<?xml version="1.0" encoding="utf-8"?>
<!-- Generator: Adobe Illustrator 23.0.5, SVG Export Plug-In . SVG Version: 6.00 Build 0)  -->
<svg version="1.1" id="carta_1_cac" xmlns="http://www.w3.org/2000/svg" xmlns:xlink="http://www.w3.org/1999/xlink" x="0px"
	 y="0px" viewBox="0 0 595.3 841.9" style="enable-background:new 0 0 595.3 841.9;" xml:space="preserve">
<style type="text/css">
	.st0{fill:#312112;}
	.st1{fill:#684B29;}
	.st2{fill:#417531;}
	.st3{fill:#61A54B;}
	.st4{fill:#091808;}
	.st5{fill:#FEFBED;}
	.st6{fill:#465D76;}
	.st7{fill:#345A41;}
	.st8{fill:#383535;}
	.st9{fill:#525050;}
	.st10{fill:#A2998B;}
	.st11{fill:#898075;}
	.st12{fill:#726B63;}
	.st13{fill:#C3342C;}
	.st14{fill:#C7BEB1;}
	.st15{fill:#B6AB9F;}
</style>
<g>
	<path class="st0" d="M135.3,406.7c0-105.9,0-211.9-0.1-317.8c0-3,0.4-3.7,3.3-3.7c105.6,0.1,211.2,0.1,316.7,0c3.2,0,3.5,1.1,3.5,4
		c-0.1,212-0.1,424.1,0,636.1c0,3.1-0.5,4-3.5,4c-105.4-0.1-210.9-0.1-316.3,0c-3.3,0-3.7-1.1-3.7-4.3
		C135.3,618.9,135.3,512.8,135.3,406.7z M432.3,407.7c0-100.1-0.1-200.2,0.2-300.3c0-11.1-7.9-18.8-17-18.7
		c-84.7,0.3-169.4,0.2-254.1,0.2c-11.2,0-17,6.3-17,18.4c0,200.2,0,400.4,0,600.6c0,11.9,6.1,18.6,17.1,18.6c84.5,0,169.1,0,253.6,0
		c11.3,0,17.2-6.5,17.2-18.9C432.3,607.6,432.3,507.7,432.3,407.7z"/>
	<path class="st1" d="M432.3,407.7c0,100,0,199.9,0,299.9c0,12.4-5.9,18.9-17.2,18.9c-84.5,0-169.1,0-253.6,0
		c-11,0-17.1-6.6-17.1-18.6c0-200.2,0-400.4,0-600.6c0-12.1,5.8-18.4,17-18.4c84.7,0,169.4,0.1,254.1-0.2c9.1,0,17.1,7.6,17,18.7
		C432.2,207.5,432.3,307.6,432.3,407.7z M176.6,367.6c-5.5,0-10.9,0-16.4,0.1c-1.3-0.2-2.5-0.2-2.7,1.7c-5.8,4.1-7.8,10.1-6.2,17.1
		c1.4,6.2,5.8,9.3,11.2,10.5c1.6,0.4,3.3,0.3,4.9,0.3c79.6,0,159.1,0,238.7,0c1.2,0,2.5,0.1,3.7-0.1c7.8-0.8,13.7-7.7,13.4-15.4
		c-0.3-8-6-14.3-13.2-14.3c-76.9,0-153.9,0-230.8,0C178.3,367.6,177.5,367.6,176.6,367.6z M425.7,135.6c0.9,0,1.6-0.4,2.1-1.2
		c3.7-6.6,4.1-13.6,1.1-20.6c-2.8-6.5-7.7-9.7-14.5-9.7c-67.8,0-135.5,0.1-203.3,0c-6.8,0-11.8,2.7-15,9c-3.4,6.8-3.1,13.8,0.4,20.6
		c3.6,7,9.6,8.2,16.2,8.2c65.4,0,130.9,0,196.3,0c3.3,0,6.6-0.2,9.8-0.9C421.8,140.3,424.8,139.5,425.7,135.6L425.7,135.6z
		 M287.2,714.8c38.8,0,77.5,0,116.3,0c9.5,0,15.6-6.5,15.6-16.6c0-56.9,0-113.9,0-170.8c0-10.4-6-16.7-15.6-16.7
		c-77.4,0-154.8,0.1-232.2-0.2c-7.8,0-15.8,8-15.8,17.2c0.4,56.6,0.4,113.3,0,169.9c-0.1,9.3,7.7,17.4,16.1,17.4
		C210.2,714.5,248.7,714.8,287.2,714.8z M303.6,363.2c33.5,0,67.1,0,100.6,0c8.4,0,14.9-6.8,14.9-15.6c0-61.1,0-122.3,0-183.4
		c0-8.8-6.7-16-14.7-16c-67.1,0-134.1,0-201.2,0c-3.5,0-6.4,1.4-9,3.7c-4.6,4.2-5.9,9.7-5.9,16c0,58.4,0,116.9,0,175.3
		c0,1.2,0,2.4,0.1,3.6c0.8,10.2,6.9,16.3,16.3,16.3C237.6,363.2,270.6,363.2,303.6,363.2z M232.7,491.7c14,0,28-0.1,42,0
		c4.4,0,7.9-1.6,11-5c4.4-4.8,4.9-10.8,4.7-17c-0.3-10.2-6.9-17.5-16.2-17.5c-26.1,0-52.2,0.5-78.3-0.2
		c-15.4-0.4-22.2,6.8-21.2,23.2c0.6,9.6,6.5,16.6,15.5,16.6C204.4,491.8,218.5,491.7,232.7,491.7z M232.1,408c-14.4,0-28.9,0-43.3,0
		c-3.5,0-6.3,1.5-8.9,3.9c-5.3,4.9-5.2,11.4-5.1,18.1c0.2,9.8,6.7,17.5,15.7,17.5c27.8,0.1,55.5,0.1,83.3,0c6.9,0,12.2-3.4,15-10.5
		c2-5.1,2.1-10.5,0.9-15.9c-2-9.1-7.1-13.3-15.7-13.3C260.1,408,246.1,408,232.1,408z M164.8,142.9c9,1.5,17.3-8.4,17.4-18.9
		c0.2-11.2-7.7-19.6-17.7-19.9c-9-0.4-17,9.6-17.1,19.5C147.4,134.2,155.7,144.1,164.8,142.9z"/>
	<path class="st2" d="M287.2,714.8c-38.5,0-77-0.2-115.5,0.2c-8.4,0.1-16.2-8.1-16.1-17.4c0.4-56.6,0.4-113.3,0-169.9
		c-0.1-9.3,7.9-17.3,15.8-17.2c77.4,0.3,154.8,0.2,232.2,0.2c9.6,0,15.6,6.3,15.6,16.7c0,56.9,0,113.9,0,170.8
		c0,10.1-6.2,16.6-15.6,16.6C364.8,714.8,326,714.8,287.2,714.8z M196.3,624.8c-2.4,0.3-3.5-0.7-3.3-3.5c0.2-2.1,0.1-4.2,0-6.3
		c-0.2-2.7,0-5,3.9-5.8c-5.8,0.5-2.9-4.3-4.3-6.5c-3.3,5-3.2,5-2.8,10.2c0.1,1.2,0,2.4,0,3.6c0,2.2,0,4.5,0,6.7c0,2,0.6,3.7,2.5,4.1
		C194.2,627.8,195.8,627.2,196.3,624.8c0.1,0,0.2,0,0.3-0.1c0-0.1,0-0.2,0-0.3C196.6,624.5,196.5,624.7,196.3,624.8z M281.3,624.8
		c-2.4,0.3-3.5-0.7-3.3-3.5c0.2-2.1,0.1-4.2,0-6.3c-0.2-2.7,0-5,3.9-5.8c-5.8,0.5-2.9-4.3-4.6-6.9c-1,3.9-6,5.9-2.6,10.7
		c0.5,0.7,0.1,2.3,0.1,3.5c0,2.2,0,4.5,0,6.7c0,2,0.6,3.7,2.5,4.1C279.1,627.8,280.8,627.2,281.3,624.8c0.1,0,0.2-0.1,0.3-0.1
		c0-0.1,0-0.2,0-0.3C281.6,624.5,281.4,624.7,281.3,624.8z M240.9,678.8c-2.2,2.2-4.5,4.2-7.6,2c-2.3-1.7-3.2-7.1-1.9-10.3
		c0.6-1.4,1.5-2.5,3.1-2.6c1.5-0.1,2.4,0.6,2.8,2.1c0.4,1.3,0.7,2.7,2.4,2.4c0.8-0.1,1.2-0.7,1.3-1.5c0.2-1.5-0.7-2.5-1.7-3.4
		c-0.9-0.8-1.8-1.2-3-1.3c-4-0.4-7.7,2.5-8.5,6.8c-1,5.2,0.9,10.3,4.6,11.8C236.4,686.4,240.1,683.8,240.9,678.8
		c0.1-0.1,0.2-0.2,0.4-0.3c-0.1,0-0.2,0-0.2,0C241,678.6,241,678.7,240.9,678.8z M368,564.6c-2.2,2.2-4.5,4.2-7.6,2
		c-2.3-1.7-3.2-7.1-1.9-10.3c0.6-1.4,1.5-2.5,3.1-2.6c1.5-0.1,2.4,0.6,2.8,2.1c0.4,1.3,0.7,2.7,2.4,2.4c0.8-0.1,1.2-0.7,1.3-1.5
		c0.2-1.5-0.7-2.5-1.7-3.4c-0.9-0.8-1.8-1.2-3-1.3c-4-0.4-7.7,2.5-8.5,6.8c-1,5.2,0.9,10.3,4.6,11.8
		C363.4,572.2,367.1,569.6,368,564.6c0.1-0.1,0.2-0.2,0.4-0.3c-0.1,0-0.2,0-0.2,0C368,564.4,368,564.5,368,564.6z M336.6,678.8
		c-0.8,0.7-1.6,1.7-2.6,2.2c-2,1-4,0.9-5.7-0.8c-1.5-1.5-2.9-3.4-2.2-5.5c0.8-2.4,3.1-0.9,4.7-1.2c0.7-0.1,1.4,0.1,2.1-0.1
		c1.4-0.4,3.8,1.1,4.1-1.3c0.3-2.1-1.1-4-3-5c-2.6-1.3-5.2-2-7.4,0.9l0,0c-4.8,3.6-5.1,11.9-0.7,15.6
		C330.4,687.2,335.6,684.8,336.6,678.8c0-0.2,0.1-0.3,0.2-0.4C336.7,678.6,336.7,678.7,336.6,678.8z M241.6,622
		c-2.3,2.4-4.8,2.8-7.4,0.9c-1.7-1.2-2.7-3.2-2.3-5.4c0.5-2.7,2.6-1.3,4.1-1.6c1.2-0.2,2.5,0,3.7-0.1c1-0.1,2.3,0.5,2.8-1
		c0.4-1.2-0.1-2.3-0.7-3.4c-1-1.8-2.6-2.6-4.4-2.8c-3.3-0.4-6,1-7.6,4.2c-1.9,3.8-1.8,7.8,0.5,11.4c1.6,2.5,4,3.7,6.8,3.2
		c2.6-0.5,4.6-2,5-5.1c0.4-0.4,0.7-0.9,0.1-1.5C242,621.3,241.8,621.6,241.6,622z M264,568.2c-1.8-0.2-1.6-1.7-1.6-3
		c0-2.7,0-5.4,0-8.1c0-2.6-1.1-4.4-3.4-4.9c-2.7-0.5-5.6-0.7-7.6,2.1c-0.8,1.1-1.1,2.8,0.1,3.6c1.5,1,2.3-0.4,2.5-1.8
		c0.3-1.9,1.3-2.5,2.9-2.3c1.3,0.2,2,1,2.2,2.3c0.4,2-0.9,2.6-2.2,3.2c-2,1-4.1,1.8-5.6,3.6c-1.4,1.6-1.5,3.6-0.8,5.4
		c0.6,1.7,1.8,2.7,3.5,2.6c2.6-0.1,5.1-2.8,8-0.2C262.4,571.3,264,569.9,264,568.2c0.2,0,0.3-0.2,0.4-0.3
		C264.3,567.9,264.1,568,264,568.2z M192.3,543.1c2.3,1.1,2.6,3.1,2.5,5.4c-0.1,4.3,0,8.7-0.1,13c-0.1,4.8-2.5,7.4-6.9,7.5
		c-4.1,0.1-6.2-2.4-6.4-7.4c-0.1-4.3,0-8.7-0.1-13c0-2.4,0.2-4.4,2.5-5.5c-3,0-6,0-9,0c3,0.9,2.4,3.6,2.5,5.9c0,3.9,0,7.8,0.1,11.7
		c0.3,7.2,3.3,10.3,9.8,10.3c6.3,0,9.5-3.4,9.7-10.5c0.1-3.9,0-7.8,0-11.7c0-2.3,0.1-4.5,2.5-5.6
		C197.2,543.1,194.8,543.1,192.3,543.1z M240.6,544.3c3.1,1.7,2.2,4.6,1.9,6.8c-0.4,2.5-2.5,0.6-3.7,0.8c-4.1,0.5-7.6,5-7.7,10.2
		c-0.1,4.4,2.8,9,6.2,8.6c3.6-0.4,7.7,0.9,11.2-2.3c-2.7-0.3-2.5-2.4-2.5-4.3c0-5.7,0-11.4,0-17.1C246,541.5,246,541.5,240.6,544.3z
		 M312,600.8c1.3,1.6,2.3,5.5,1.6,7.1c-0.9,2.2-2.6,0.5-3.9,0.7c-3.9,0.5-7.4,4.8-7.6,9.8c-0.2,4.3,2.5,9,5.9,8.9
		c3.8-0.1,7.9,0.7,11.7-2.3c-3-0.3-2.7-2.4-2.7-4.4c0-5.5,0-11.1,0-16.6C316.9,598,316.9,598,312,600.8z M293.4,544.3
		c2.8,1.1,2.6,3.5,2.7,5.7c0.1,5.1,0.2,10.2,0,15.3c-0.2,3.8,1.7,5.1,4.5,5.6c3.8,0.6,6.8-0.8,8.8-4.4c2-3.7,2.3-7.7-0.1-11.4
		c-2.6-4.1-5.9-3.4-9.8-1.3c0-2.3,0-4,0-5.8C299.4,541.3,299.4,541.3,293.4,544.3z M276,544.3c0.6,0.5,1.2,0.8,1.5,1.2
		c1,2,1,4.2,0.3,6.1c-0.6,1.7-2.4,0.1-3.7,0.3c-4,0.4-6.1,3.2-7.3,6.9c-1.4,4.2-0.1,8.5,2.9,10.8c1.2,0.9,2.4,1.3,3.8,1.3
		c2,0,3.9-2.4,6-0.2c0.9-1.1,5-0.2,2-3.8c-0.5-0.6-0.2-2-0.2-3.1c0-5.5,0-11.1,0-16.6C281.3,541.2,281.3,541.2,276,544.3z M311,685
		c-2.8-4.5-1.7-9.3-1.2-13.8c0.3-2.4,4-2.9,5.3-1c1.7,2.6,1,12.3-1.2,14.8c2.3,0,4.6,0,7.7,0c-2.4-1.4-2.5-3.3-2.5-5.3
		c0-2.7,0.2-5.4-0.1-8.1c-0.4-5-3.3-6.6-7.5-4.4c-0.6,0.3-1.4,1.8-2,0.8c-2.3-4.2-3.7,0.3-5.9,0.1c2.9,3.3,3.1,12.1,0.7,16.9
		C306.6,685,308.6,685,311,685z M244.3,610.3c3.2,3.3,3.4,13.1,0.9,17.1c2.4,0,4.7,0,7.1,0c-2.1-2.5-3.1-11.3-1.6-13.8
		c0.8-1.3,1.8-2.2,3.4-2.2c1.1,0,2.2,0.4,2.2,1.5c0.3,4.9,1.6,9.9-1.3,14.5c2.2,0,4.4,0,6.8,0c-3-3.8-1.7-8.1-1.8-12.1
		c-0.3-6.3-2.5-7.9-7.8-5.2c-0.6,0.3-1.3,1.2-1.7,0.4C248.5,606.8,246.9,610.5,244.3,610.3z M212.2,570.8c2.1,0,4.3,0,7.4,0
		c-2.7-1.4-2.7-3.4-2.7-5.3c0-2.2,0.1-4.5,0-6.7c-0.2-6.2-2.8-7.9-8-5.3c-0.5,0.3-1.1,1.4-1.7,0.4c-2.3-4-3.6,0.3-5.7,0.3
		c2.8,3.1,3,12.5,0.8,16.7c2.1,0,4.3,0,6.5,0c-1.6-2.3-2.6-11.8-1.5-13.8c0.8-1.3,2-2,3.5-2.1c1.1-0.1,2.1,0.4,2.2,1.5
		C213.8,561.1,214.7,565.9,212.2,570.8z M168.7,609c1.9,1.2,2.2,2.8,2.2,4.7c-0.1,2.7-0.1,5.4,0,8.1c0.4,5.3,3.3,7,7.7,4.6
		c0.6-0.3,1.3-1.8,2-0.7c2.3,4.1,3.6-0.3,6.5-0.2c-2.9-1.1-3-2.8-3-4.5c0-2.5-0.2-5.1,0-7.6c0.5-4.6-1.5-5.5-5-4.5
		c3,4.2,1.8,9,1.2,13.6c-0.2,1.7-2.3,2.6-4.1,2.2c-1.7-0.3-2-1.9-2-3.5c-0.1-2.5-0.2-5.1,0-7.6C174.6,609.3,173.2,607.7,168.7,609z
		 M250.8,666.2c-1.2-0.1-2.5,0-3.5,0.9c-1.3,1-2.4,2.1-2.1,4c0.1,0.5,0.6,1.2,1,1.2c2,0.3,1.9-1.5,2.3-2.9c0.4-1.5,1.5-1.6,2.6-1.4
		c1.2,0.1,2,0.9,2.2,2.2c0.2,1.3-0.1,2.4-1.3,2.9c-2.1,1-4.4,1.8-6.1,3.6c-2.3,2.5-2.2,7.1,0.6,7.9c3.5,1,7.2-0.6,10.9-0.2
		c1.1,0.1,1.9-1,0-2.8c-1.9-1.9-0.5-5.9-0.6-9C256.5,667.5,255.3,666.1,250.8,666.2z M327.2,608.6c-1.7-0.3-3.4,0.6-4.7,2.3
		c-0.7,0.8-1,1.8-0.6,2.9c0.2,0.4,0.8,1,1.2,1c1.2,0.1,1.7-0.9,1.8-2c0.2-1.9,1.1-2.6,2.7-2.4c1.4,0.2,2.2,1.1,2.3,2.6
		c0.2,2-1.1,2.4-2.4,3c-1.6,0.8-3.2,1.6-4.7,2.8c-2.2,1.7-2.7,4.2-1.4,6.7c1.3,2.5,3.5,2.5,5.8,1.5c0.8-0.4,1.4-1.3,2.6-1
		c4.5,1.3,4.3,1.3,3.6-2.9c-0.5-2.7-0.1-5.6-0.1-8.5C333.2,610,331.9,608.6,327.2,608.6z M385.8,625.4c-1.9-1.3-1.4-3.4-1.5-5.2
		c0-1.9,0-3.9-0.1-5.8c-0.1-2.5-0.9-4.9-3.5-5.5c-2.7-0.6-5.5-0.6-7.6,1.9c-0.7,0.8-1.2,1.7-0.7,2.8c0.3,0.7,0.8,1.2,1.6,1.2
		c1.3-0.1,1.3-1.3,1.5-2.3c0.3-1.9,1.5-2.3,3.1-2.1c1.4,0.1,1.8,1.2,2.1,2.4c0.6,2.1-0.9,2.5-2.1,3.1c-1.7,0.9-3.5,1.8-5.1,3
		c-2.1,1.6-2.5,3.9-1.3,6.3c1.3,2.6,3.4,3,5.6,1.8c1.6-0.9,2.7-1.1,4.3,0.2C383.5,628.2,385.1,627.2,385.8,625.4z M319.7,552
		c-1.9-0.2-3.7,0.5-5.1,2.1c-0.7,0.8-1.2,1.7-0.8,2.8c0.3,0.7,0.8,1.3,1.6,1.2c1.3-0.1,1.4-1.2,1.5-2.2c0.3-1.9,1.5-2.3,3-2.2
		c1.4,0.1,1.8,1.2,2.1,2.4c0.6,2.1-0.9,2.5-2.1,3.2c-1.7,0.9-3.5,1.8-5.1,2.9c-2.1,1.6-2.5,3.9-1.3,6.3c1.3,2.6,3.4,3.1,5.6,1.9
		c1.6-0.8,2.7-1.2,4.3,0.1c1.3,1,4.1-0.3,3.2-2c-1.9-3.5-0.7-7-1-10.4C325.3,553.6,323.9,551.9,319.7,552z M377.9,552
		c-1.4-0.1-2.9,0.1-4.3,1.4c-1,0.9-1.7,2-1.5,3.5c0.1,0.8,0.6,1.4,1.4,1.3c1.4-0.1,1.6-1.4,1.8-2.6c0.3-1.8,1.5-2,2.8-1.8
		c1.2,0.1,2,1,2.2,2.3c0.3,1.6-0.4,2.5-1.7,3.1c-2,0.8-4.1,1.7-5.7,3.4c-1.8,1.9-2.1,4.2-0.9,6.5c1.3,2.3,3.3,2.3,5.4,1.6
		c1-0.4,1.8-2,2.9-1c1.8,1.7,3.4,1.8,5-0.1c2.1-2.5-2.3-0.8-1.5-2.7c0.3-0.6,0-1.5,0-2.2c0-2.2-0.1-4.5,0-6.7
		C383.9,553.5,381.8,551.9,377.9,552z M216.6,685.1c4.8,0.1,8.4-3.8,8.6-9.3c0.2-5.3-3.2-9.5-7.7-9.6c-4.9-0.1-8.7,4.2-8.7,9.8
		C208.8,681,212.2,685,216.6,685.1z M293.9,666.2c-4.7,0-8.3,4.2-8.4,9.6c-0.1,5.2,3.5,9.3,8.1,9.3c4.8-0.1,8.3-4.2,8.3-9.6
		C301.9,670.1,298.5,666.2,293.9,666.2z M291.7,627.6c4.6-0.1,8.2-4.3,8.2-9.8c0-5.1-3.8-9.2-8.4-9.1c-4.6,0.1-7.8,4.1-7.8,9.6
		C283.7,623.8,287,627.6,291.7,627.6z M349.8,672.2c1.2-5.5,1.1-5.7-3.3-6c-2.9-0.2-5.4,0.4-6.4,3.6c-1,3.4,0.9,5.3,3.5,6.7
		c1.2,0.7,2.4,1.5,3.5,2.4c1.2,1,1.7,2.5,0.7,3.9c-1,1.3-2.2,1.3-3.7,0.6c-1.7-0.8-2.2-2.9-3.7-4.1c-0.7,5.6,1.1,7.1,6.7,5.7
		c2.1-0.5,3.9-1.7,4.3-4.3c0.4-2.5-0.6-4.4-2.6-5.6c-1.7-1-3.4-1.9-5.1-3c-1.2-0.8-1.7-2-0.8-3.4c0.8-1.2,1.8-1.6,3.2-1.1
		C348.1,668.3,348.6,670.6,349.8,672.2z M399,614.7c0.5-5.5-1.8-7.3-6.5-5.8c-1.9,0.6-3.1,1.9-3.5,4c-0.4,2,0.3,3.6,1.7,4.7
		c1.3,1.1,2.8,1.8,4.3,2.7c1.3,0.8,2.7,1.7,2.5,3.7c-0.1,1.2-0.9,1.9-1.8,2.2c-1.7,0.7-2.8-0.5-4.1-1.3c-1-0.7-0.9-2.7-2.5-2.9
		c-0.4,5.8-0.4,5.7,5.1,5.7c2.9,0,5.2-1.1,6.1-4.2c1-3.5-1.4-5.2-3.7-6.6c-1.3-0.8-2.7-1.4-4-2.3c-1-0.8-1.8-2-0.7-3.4
		c0.9-1.1,1.9-1.5,3.3-1C397.1,610.7,397.3,612.9,399,614.7z M330.8,564.9c-1.1,5.8-0.9,5.9,4.3,6c3.3,0.1,5.9-1,6.6-4.6
		c0.7-3.4-1.8-5-4.2-6.4c-1.1-0.6-2.3-1.1-3.3-1.9c-1.1-0.9-2.3-2-1-3.7c1.1-1.6,2.5-1.5,4-0.6c1.5,0.8,1.4,3.2,3.1,3.9
		c0.5-5.6-0.1-6.2-5.3-5.7c-2.3,0.2-3.9,1.3-4.6,3.8c-0.8,2.6,0.4,4.4,2.2,5.7c1.4,1,2.9,1.6,4.3,2.6c1.4,1,2.7,2.4,1.3,4.4
		c-1.2,1.8-2.8,1.4-4.4,0.5C332.5,568.2,332,566.4,330.8,564.9z M347.8,614.3c1.7-4.9-1-5.5-4.1-5.6c-2.5-0.1-4.6,0.6-5.5,3.5
		c-0.9,3,0.4,4.9,2.6,6.3c1.4,0.9,2.9,1.7,4.3,2.7c1.2,0.9,1.9,2.3,0.9,3.8c-0.9,1.4-2,1.5-3.6,1.1c-2-0.6-2.5-2.8-3.9-4
		c-1.5,5.5,1.4,5.6,4.8,5.6c3,0,5.2-1.3,6.1-4.3c0.8-3.1-1.3-4.9-3.5-6.4c-1.2-0.8-2.5-1.3-3.6-2.1c-1.4-0.8-2.1-2.2-1.2-3.7
		c1-1.7,2.4-1.5,4-0.7C346.4,611.2,346.4,613.2,347.8,614.3z M271.2,671.8c0.5-5.2,0.5-5.2-4-5.5c-2.7-0.2-4.9,0.5-5.8,3.7
		c-0.8,3,0.6,4.8,2.8,6.2c1.4,0.9,2.9,1.7,4.3,2.7c1.1,0.8,1.7,2.1,0.9,3.5c-0.8,1.4-1.9,1.8-3.5,1.4c-2.1-0.6-2.8-2.6-4.1-4.4
		c-0.5,5.6,0.7,6.7,6.2,5.8c2.4-0.4,4.1-2,4.7-4.4c0.6-2.3-0.8-4.1-2.4-5.3c-1.6-1.2-3.4-2-5-3c-1.3-0.9-1.9-2.3-0.9-3.8
		c0.9-1.4,2.2-1.3,3.7-0.7C269.7,668.6,269.6,670.9,271.2,671.8z M216.8,627.4c-2.1-1.9-2.2-4.1-2.2-6.3c0-5.7,0.1-11.4,0-17
		c0-1.7,0.9-4-0.8-4.8c-1.4-0.7-3.1,0.6-4.3,1.9c2.5,2.6,2.7,22.4,0.2,26.3C211.9,627.4,214.1,627.4,216.8,627.4z M361.8,601
		c2.7,2.8,2.9,22.5,0.4,26.3c2.2,0,4.4,0,7.9,0c-3.2-1.5-2.9-3.5-2.9-5.4c0-6,0-11.9,0-17.9C367.1,597.9,367.1,597.9,361.8,601z
		 M228.3,570.8c-1.7-1.9-1.6-3.9-1.6-5.8c0-3.6,0-7.1,0-10.7c0-0.9-0.1-2.2-1.1-2c-1.4,0.2-3,0.7-4.1,1.7c-0.8,0.7,0.9,0.6,0.9,1.2
		c0.7,5.2,1.5,10.5-0.8,15.6C223.5,570.8,225.5,570.8,228.3,570.8z M283,684.9c-2.1-1.6-1.9-3.5-1.9-5.2c0-3.1-0.2-6.3,0-9.4
		c0.3-4.1-1.2-4.7-4.2-2.9c-0.5,0.3-0.9,0.6-1.4,0.9c2.3,2.4,2.7,12,0.7,16.7C278.2,684.9,280.1,684.9,283,684.9z M205.6,627.4
		c-2.2-4.3-1-8.8-1.2-13.1c-0.2-6.5-0.1-6.5-5.1-3.7c2.5,5.6,1.5,11.2,0.6,16.9C201.7,627.4,203.6,627.4,205.6,627.4z M351.7,570.8
		c-3-4.3-1.2-9.1-1.8-13.6c-0.2-1.7,0.9-4-0.9-4.8c-1.4-0.6-3.1,0.5-4.2,2c2.5,2.6,2.7,12.5,0.2,16.6c1.5,0,2.9,0,4.2,0
		C349.9,570.9,350.7,570.8,351.7,570.8z M389.6,576.7c4.6-3.1,5.7-6.6,3.5-9.2c-1.1-1.3-2.4-1.6-3.6-0.5c-1.1,1-1.3,3,0,3.4
		C394.3,571.7,390.7,574,389.6,576.7z M318.8,548.5c2.3-1.4,3.4-3.8,5.1-6.1C318.4,541.2,319.4,545.6,318.8,548.5z M180.6,599.3
		c-4-0.6-4.6,0.1-4.6,6.3C178.1,603.7,179.4,601.7,180.6,599.3z M357.7,685c1.2-0.2,2-0.9,1.9-2.3c-0.1-1.2-0.7-1.9-1.8-2
		c-1.3-0.1-2,0.8-2.1,2.1C355.6,684.2,356.4,684.9,357.7,685z M202.7,602.3c0.9-0.1,1.6-0.6,1.6-1.7c0-1.3-0.8-1.8-1.9-1.8
		c-0.9,0-1.6,0.6-1.6,1.6C200.8,601.8,201.6,602.2,202.7,602.3z M226.6,543.9c-0.1-1-0.6-1.6-1.6-1.7c-1.1-0.1-1.9,0.4-2,1.7
		c0,1,0.6,1.6,1.5,1.7C225.7,545.7,226.4,545.1,226.6,543.9z M348.7,545.6c0.9-0.2,1.6-0.7,1.5-1.7c0-1.2-0.8-1.8-1.9-1.7
		c-0.9,0.1-1.6,0.7-1.5,1.7C346.8,545.2,347.6,545.6,348.7,545.6z M279.2,656.4c-0.9,0.1-1.6,0.6-1.7,1.6c-0.1,1.3,0.8,1.9,1.8,1.8
		c0.9,0,1.6-0.6,1.7-1.6C281.1,657,280.3,656.5,279.2,656.4z"/>
	<path class="st2" d="M425.7,135.6c-0.9,3.9-4,4.7-6.9,5.4c-3.2,0.7-6.5,0.9-9.8,0.9c-65.4,0-130.9,0-196.3,0
		c-6.6,0-12.6-1.3-16.2-8.2c-3.5-6.8-3.8-13.8-0.4-20.6c3.1-6.3,8.2-9,15-9c67.8,0.1,135.5,0.1,203.3,0c6.8,0,11.7,3.1,14.5,9.7
		c3,7,2.6,13.9-1.1,20.6C427.3,135.2,426.6,135.6,425.7,135.6c-2.7-1.3-3.6-3.4-3.4-6.6c0.3-3.3,0.2-6.6,0-9.9
		c-0.1-2.7,1.3-7-0.7-7.9c-2.3-1-5.1,1.9-7.5,3.6c-0.1,0.1-0.1,0.3-0.1,0.7c1.5,0.3,3.9,0,3.4,2.8c-1,5.7,2.6,12.3-2.7,17.2
		C418.1,135.6,421.9,135.6,425.7,135.6z M265.6,122.1c-0.9-1.2-1-3.3-3.6-2.1c-2.5,1.2-0.6,2.3-0.5,3.6c0.1,4,0.9,8-0.9,11.9
		c2.2,0,4,0,5.8,0C263.7,131.1,264.7,126.6,265.6,122.1c0.7,0.1,1.4,0.1,2,0.3c0.9,0.4,1.8,0.8,2.5-0.3c0.4-0.7,0.3-1.4-0.3-2
		c-0.8-0.8-1.7-0.8-2.6-0.3C266.5,120.3,265.7,120.9,265.6,122.1z M300.1,127.3c-2.7,0.9-3.9,3.1-2.9,5.9c1.1,3,3.5,3.1,5.8,1.5
		c1.2-0.9,1.9-0.3,2.8,0.5c1,0.8,2.1,0.4,3-0.5c0.3-0.4,0.7-1.4,0.6-1.4c-3.3-2.2-1.2-5.7-1.6-8.6c-0.3-2.2-0.4-4.4-2.6-5
		c-2.3-0.7-4.7-0.7-6.6,1.2c-0.8,0.7-1.1,1.7-0.8,2.8c0.2,0.7,0.6,1,1.2,0.9c1-0.1,1.1-1.1,1.3-2c0.5-1.7,1.5-2.6,3.1-1.8
		c1.2,0.6,2.1,1.9,1.3,3.3c-0.6,1-1.9,1.6-2.9,2.3C301.3,126.8,300.7,127,300.1,127.3z M251.7,126.6c-0.7,0.1-1.4,0-2,0.3
		c-2.4,1.2-4.6,2.8-3.5,6.1c1.1,3.3,3.6,3.4,6.1,1.8c1.2-0.8,1.9-0.2,2.9,0.5c1,0.8,2.1,0.2,3-0.6c0.4-0.4,0.8-1,0.3-1.5
		c-2.2-2.2-0.8-5.1-1.1-7.6c-0.2-2.1-0.1-4.4-2.2-5.4c-2.2-1.1-4.5-1-6.7,0.3c-1,0.6-1.8,1.4-1.7,2.8c0,0.8,0.4,1.5,1.2,1.5
		c1.4,0,1.2-1.4,1.6-2.2c0.5-1.1,1.3-2.1,2.5-1.7c0.7,0.3,1.4,1,1.7,1.7c0.6,1.3-0.1,2.2-1.1,2.9C252.2,125.7,252,126.2,251.7,126.6
		C251.6,126.6,251.7,126.6,251.7,126.6z M227.6,122.1c-2.4,0-4.2,0-5.9,0c-0.5,0-1.1-0.3-1.4,0.6c2.5,1.6,1.7,4.4,1.7,6.8
		c0,4.4-1.8,5.8-5.7,4.6c-4.6-1.4-7.5-6.9-6.7-12.8c0.9-6.3,4.8-9.4,10.1-8.2c2.5,0.6,3.4,3.2,5.4,4.7c0-2.1,0-3.8,0-6.2
		c-1.8,1.8-3.2,0.6-4.7,0.2c-3.8-1.2-7.3-0.7-10.4,2.2c-4.4,4.1-5.6,10.2-3.1,15.3c2.6,5.3,8.9,7.7,15.1,5.9
		c2.8-0.8,4.3-2.2,3.9-5.6C225.7,127.2,225.5,124.6,227.6,122.1z M279.7,112.5c2.4,1.5,2,4,1.6,6.1c-0.4,2.2-2.3,0.5-3.5,0.7
		c-5.3,0.7-8.5,8.3-5.4,13.2c2.1,3.4,4.8,3.9,7.6,1.5c-4.9-1.9-6.4-4.8-5.1-9.8c0.5-2,1.6-3.8,3.6-3.6c2,0.2,3,1.8,3,4.1
		c-0.1,2.7-0.2,5.4-0.2,8c0,2.1,0.6,2.8,2.8,2.2c3.5-1,0.8-2.6,0.7-4.1c-0.1-5.2-0.1-10.5-0.1-15.7
		C284.6,109.5,284.6,109.5,279.7,112.5z M244.5,133.7c-3.5-2.7-1.8-6.5-1.8-9.8c-0.1-3.5-0.6-5.6-4.2-4.2c1.7,3.5,0.9,7.2,0.8,10.9
		c0,1.8-1.5,2.3-3,2.4c-1.5,0.1-2.3-0.9-2.5-2.4c-0.2-2.2-0.3-4.5-0.1-6.7c0.3-3.8-0.8-5.4-4.5-4.1c3,2.9,1.4,6.7,1.7,10.1
		c0.2,2.5,0.5,5.9,3,5.4C237.3,134.6,241,136.4,244.5,133.7z M294.9,135.5c-1.6-1.5-2-3-1.9-4.9c0.1-3,0-6,0-9c0-0.7,0-1.8-0.8-1.8
		c-1,0-2.2,0.4-3.1,1c-1.3,0.9,0.3,1.3,0.5,1.9c1.2,4.3,1.2,8.6-0.7,12.8C290.7,135.5,292.6,135.5,294.9,135.5z"/>
	<path class="st2" d="M179.2,367.6c76.9,0,153.9,0,230.8,0c7.2,0,12.8,6.2,13.2,14.3c0.3,7.7-5.6,14.5-13.4,15.4
		c-1.2,0.1-2.5,0.1-3.7,0.1c-79.6,0-159.1,0-238.7,0c-1.6,0-3.3,0.1-4.9-0.3c-5.5-1.3-9.9-4.4-11.2-10.5c-1.5-7,0.4-13,6.2-17.1
		c1.9,1.9,5.7,2.9,1.4,7.8c3.1-1.5,4.9-1.4,5.9,1c0.9,2.3-1.2,3-2.1,4.3c-1.1,1.5-2.5,2.7-3.7,4.2c-0.7,0.9-1.2,2.2-0.1,3.2
		c0.9,0.8,1.8,0.1,2.5-0.7c1.7-1.8,3.4-3.5,4.9-5.4c1.4-1.8,2.6-1.8,4,0c1.4,1.8,3.1,3.4,4.6,5.1c0.9,1,2.1,2,3.2,1
		c1.2-1.1,0.1-2.5-0.7-3.4c-1-1.4-2.4-2.5-3.4-3.9c-1-1.4-3.3-2.1-2.2-4.7c1.1-2.4,3-2,5.2-1.5c-2.6-2.3-1.7-4,0.2-5.5
		C178.4,370,179.3,369.2,179.2,367.6z M212.1,385.7c3.3-1.1,2.9-4,2.1-6.4c-0.9-2.6-3-3.6-5.5-1.8c-3.3,1.1-2.9,4-2.1,6.4
		C207.5,386.5,209.6,387.5,212.1,385.7z M339.9,377.4c-3.3,1.1-2.9,4-2.1,6.4c0.9,2.6,3,3.6,5.5,1.8c3.3-1.1,2.9-4,2.1-6.4
		C344.4,376.6,342.3,375.7,339.9,377.4z M411.7,377.5c-2.6,1.6-3.2,4-1.6,6.6c1.4,2.4,3.3,3.3,5.7,1.4c2.6-1.6,3.2-4,1.6-6.6
		C416.1,376.6,414.1,375.6,411.7,377.5z M367.9,377.5c-3,1.8-3.1,4.5-1.4,7.2c1.3,2.1,3.1,2.5,5.8,0.3
		C366.4,384.9,367.9,380.8,367.9,377.5c1.8-0.8,2.9,1.9,5,1.3C371.5,376.1,369.9,376.1,367.9,377.5z M230.1,385.8
		c2.1,1.2,4.2,1.1,6-0.6c-1.9,0-3.7,0.9-5.6,0c-1.4-4.3-2-8.6,0.3-12.9c-1.6,0-3-0.4-4.3,0.4c1.7,2.5,1,5.4,1.1,8.2
		C227.7,382.9,227.6,385.1,230.1,385.8z M277.4,377.7c2.1-0.3,3.1,0.6,3.1,2.9c0,1.5-0.1,3-0.1,4.4c0,0.9,0.6,1.3,1.4,1.1
		c0.5-0.2,1.2-0.9,1.1-1c-1.4-4-0.3-8.2-0.7-12.3c-0.1-0.8-0.4-1.5-1.2-1.2c-0.5,0.2-1.7,0.3-1.1,1.3c2.3,4-1.5,3.2-2.8,4.4
		c-2.7,1.2-3.1,3.6-2.4,6.2c0.6,2.2,2,3.5,4.6,2.6C276.1,383.9,275.6,381.1,277.4,377.7z M258.5,377.7c2.2-0.5,3.5,0.5,3.6,2.9
		c0.1,1.3-0.1,2.7-0.2,4c-0.1,0.9,0.3,1.5,1,1.6c0.7,0,1.4-0.4,1.4-1.3c-0.1-4-0.2-8-0.4-12.1c0-0.8-0.3-1.5-1.2-1.3
		c-0.7,0.1-1.6,0.6-1.4,1.3c1.6,3.9-1.8,3.4-3.2,4.6c-2.5,1.5-2.9,3.8-2.1,6.5c0.6,1.9,2,2.9,4.5,2.2
		C257.1,383.8,257.5,380.9,258.5,377.7z M268.2,377.6c0.8,0,1.8,0,2,1.1c0.4,1.7-1,1.8-1.9,2.4c-1.2,0.7-2.5,1.4-2.6,3.2
		c0,1,0.6,1.9,1.4,2c1.8,0.2,3.9,0.5,5.5-0.2c1.7-0.8-0.9-2.4-0.3-3.8c0.2-0.5,0-1.2,0-1.8c0-3.6-1.6-4.5-4.5-3.2
		c-1,0.4-1.7,1-1.3,2.3c0.1,0.2,0.5,0.4,0.6,0.3C268.2,379.5,268,378.4,268.2,377.6z M249.2,385.7c-0.9-1.5-0.8-3.2-0.7-4.8
		c0.4-5.3-3.1-4-5.7-4c-3.9,0-1.1,2.6-1.1,4c-0.1,1.9-0.3,3.7-1,5.5c3,0,5.8,0,8.5,0c4.2,1.2,5.8-0.6,4.8-5.2c-0.1-0.3,0-0.6,0-0.9
		c-0.2-1.2,0.5-3.3-1.1-3.3c-2.1,0-0.9,2.2-1.2,3.5C251.2,382.4,253,385.7,249.2,385.7z M391.1,384.8c-1.8-0.3-4.5,0.3-4.6-2.4
		c0-2.2,2.4-0.7,3.7-1.2c0.7-0.2,1.4-0.2,1.5-1.2c0.2-1.4-0.6-2.3-1.6-2.9c-2-1-3.9-0.7-5,1.4c-1.2,2.4-1.3,5.1,0.7,7
		C387.6,387.1,389.6,387.2,391.1,384.8c0.1-0.4,0.3-0.6,0.5-0.9c-0.1,0-0.2-0.1-0.3-0.1C391.2,384,391.2,384.4,391.1,384.8z
		 M333.3,385.6c2.6-1.4,3.6-5.7,1.9-8c-1.7-2.3-3.9-0.3-5.8-0.6c-1.8-0.3-0.9,2-1,3.1c-0.3,3.5,0.7,7-0.8,10.4
		c3.3,0.4,3.7,0.1,3.3-0.4C328.5,386.6,332.1,386.9,333.3,385.6L333.3,385.6z M202.1,385.6c2.7-1.8,3.5-5.3,1.7-7.7
		c-1.9-2.6-4.4-1-6.5-0.8c-2.3,0.2-0.1,2.3-0.2,3.6c-0.4,3.3,0.6,6.8-1,10c3.3,0.4,3.7,0.1,3.4-0.5C197,386.2,201.2,387,202.1,385.6
		L202.1,385.6z M396,378.4c3.4-0.4,4.7,1,4.2,4.8c-0.2,1.6,0.4,3.4-0.1,4.9c-1.3,3.8,0.6,3.2,3,2.6c-3.8-5,1.5-3.5,2.8-5.1l0,0
		c2.6-1.5,2.8-3.8,2-6.5c-0.9-2.8-3-2.6-5.1-2.5c-2,0.1-4,0.3-6,0.4c-2.1-0.6-3.5-0.4-3.2,2.6c0.2,1.6,0.2,3.3-0.1,4.9
		c-0.4,1.8,0.2,2,1.5,2c1.5,0,1.3-0.7,1.1-2C395.8,382.5,396,380.5,396,378.4z M311.1,384.4c-1.3-0.8-0.6-2.1-0.9-3.2
		c-0.4-1.6,1.2-4.7-1.8-4.3c-1.7,0.2,0.5,2.4,0.1,3.8c-0.4,1.4,0.4,3.7-1.8,3.8c-2.2,0.1-1.2-2.1-1.6-3.3c-0.4-1.6,1.1-4.8-1.8-4.3
		c-2.1,0.3-0.2,2.9-0.3,4.4c-0.2,3.2,0.3,5.7,4.7,4.8c2.3-0.5,5.1-1.6,7.8,0.2c1.1,0.7,2.7-0.1,3.3-1.8c-0.2-0.1-0.5-0.4-0.7-0.3
		c-1.8,0.6-3.8,0.5-3.9-1.7c-0.2-2.7,2.2-1,3.3-1.4c0.7-0.3,1.9,0.3,2-1c0.1-1.4-0.6-2.6-1.8-3.2c-2.3-1.3-5.1,0.7-5.8,3.9
		C311.7,382,312.7,383.5,311.1,384.4z M352.7,380c0.6-0.3,1-0.3,1.2-0.6c0.7-0.8,1.1-2.6,2.3-1.1c0.9,1.2-0.3,2.1-1.3,2.7
		c-0.6,0.4-1.2,0.7-1.8,1.1c-0.9,0.7-1.1,1.7-0.8,2.8c0.3,1.1,1.2,1.8,2.2,1.5c1.3-0.3,2.6-0.3,3.9-0.1c0.7,0.1,1.6-0.8,1.1-1.3
		c-1.4-1.9-0.5-4-0.9-6c-0.4-2.1-1.7-2.5-3.3-2.4C353.7,376.7,352.3,377.3,352.7,380z M300.6,376.1c0-3.6-1.1-4.4-5.3-4
		c-3.8,0.3-6.8,4.5-6.1,8.5c0.7,4.4,3.6,6.3,8.2,5.2c-3.3-0.4-5.3-1.9-5.5-5.3c-0.2-2.8,0-5.5,2.7-7
		C297.3,372,298.9,374.1,300.6,376.1z M374.2,376.7c1,2,1.2,3.8,1.1,5.8c-0.1,2.9,0.8,3.7,3.9,3.9c4.7,0.3,3.2-2.6,2.9-4.9
		c-0.2-1.7,1.2-4.7-1.5-4.6c-1.8,0.1,0.4,2.6-0.1,4.1c-0.5,1.3,0.5,3.7-1.8,3.7c-2.1-0.1-1.2-2.2-1.5-3.5
		C376.7,379.4,378.2,376.6,374.2,376.7z M182.9,386.2c1.5,0.4,2.9,0.6,4.4-0.1c-2.5-2.7-1.2-6-1.5-9c-0.1-1.2-0.6-2.8,0.7-3.7
		c1.5-1,2.5,0.6,4,1.6c-1.2-3.2-6-3.9-11-1.7c1.8,0.3,4.2-1.3,4.2,1.6C183.8,378.6,184.7,382.5,182.9,386.2z M327.8,377.2
		c-6.1-0.6-6-0.6-6.2,7.5c-0.1,3.6,2,0.9,3.3,2.2C323.2,382.7,322.2,379.4,327.8,377.2z M194.7,386.3c-1.3-2.6-0.6-5.3-0.8-7.9
		c-0.1-0.8-0.2-1.6-1.1-1.4c-0.7,0.2-1.7,0.4-1,1.7c0.8,1.5,0.8,3.4,0.3,4.8C190.9,387,192.4,386.8,194.7,386.3z M239.8,372.1
		c-1.9,0.2-4.2,0-3.8,0.6c1.8,3.3-0.2,7,1.2,10.4C238.8,379.7,236.3,375.5,239.8,372.1z M299.1,385l-0.1,0.2l0.2,0L299.1,385z"/>
	<path class="st3" d="M303.6,363.2c-33,0-66,0-99,0c-9.4,0-15.5-6.1-16.3-16.3c-0.1-1.2-0.1-2.4-0.1-3.6c0-58.4,0-116.9,0-175.3
		c0-6.3,1.3-11.9,5.9-16c2.6-2.4,5.5-3.7,9-3.7c67.1,0,134.1,0,201.2,0c8,0,14.7,7.2,14.7,16c0,61.1,0,122.3,0,183.4
		c0,8.8-6.6,15.6-14.9,15.6C370.7,363.2,337.1,363.2,303.6,363.2z M255.7,358.4c0.6-0.2,1.1-0.3,1.7-0.5c6.8,1.7,13.8,0.4,20.6,0.7
		c3,0,6,0,9.1,0c0.6,0,1.1-0.1,1.7-0.1c4.7,0,9.4,0,14.1,0l0.4,0l0.4,0c3.3,0,6.6,0,9.9,0.1c16.2,0,32.5,0,48.7,0
		c0.3-0.2,0.7-0.4,1-0.5c1.1,1,2.4,0.7,3.6,0.7c13.2,0,26.4,0,39.6,0c5.6,0,7.7-2.4,7.7-8.4c0-63.1,0-126.1,0-189.2
		c0-5.9-2.3-8.3-7.8-8.4c-10.9,0-21.7,0-32.6,0c-41.1,0-82.2,0.1-123.3,0.1c-0.7,0-1.4,0-2.1,0c-1.8-0.6-3.2,0.1-4.2,1.8
		c-1.3-1.3-2.8-2-4.7-2c-12.6,0.1-25.3,0-37.9,0.1c-5.6,0-7.7,2.3-7.7,8.4c0,16.2,0,32.3,0,48.5c0,46.9,0,93.7,0,140.6
		c0,5.8,1.8,8.5,6.3,8.5c17.4,0,34.9-0.1,52.3-0.1c0.6,0,1.1,0,1.7,0C254.7,358.5,255.2,358.5,255.7,358.4z"/>
	<path class="st2" d="M232.7,491.7c-14.1,0-28.3,0-42.4,0c-8.9,0-14.8-6.9-15.5-16.6c-1.1-16.4,5.8-23.7,21.2-23.2
		c26.1,0.8,52.2,0.2,78.3,0.2c9.2,0,15.9,7.3,16.2,17.5c0.2,6.3-0.3,12.2-4.7,17c-3.1,3.4-6.6,5.1-11,5
		C260.7,491.7,246.7,491.7,232.7,491.7z M196.4,476.5L196.4,476.5c0.1,0.9-2.5,3.7,1.3,2.2c2.5-1,3.3,0.6,3.5,3.1
		c0.1,2-0.3,4.1,1.1,6.3c1.2-2.9,2.3-5.3,3.5-7.9c2.1,1.9,2.3,4.9,4.8,6.6c0-1.4,0-2.3,0-3.2c0.1-2.4-1-6.3,3.4-2.9
		c1,0.8,1.3-0.4,1.2-1.4c0.2-0.2,0.3-0.4,0.5-0.5c1.7,0.1,1.4-0.6,0.6-1.6c-0.8-1.1-3-2.1-2.2-3.4c1.4-2.4,1.5-5.8,4.6-7.1
		c1.6-0.7,2.9-2.3,4.3-3.4c-0.1-0.2-0.3-0.4-0.4-0.7c-3.8,1.3-7.7,2.6-11.6,4c0.2-2.4,2.3-3.7,2-6.1c-6.8,4.7-8.3-3.4-12.2-5.9
		c-0.2,3.3,1.3,6.2,0.4,9.5c-3.3-1.4-5.1-5.1-9-6.4c2.3,3.9,6.4,6.2,4.4,11.3c-1.9-0.1-4.2-0.3-7.2-0.5c2.8,2.6,5.9,2.6,8,4.8
		c-1.2,0.9-2.2,1.8-3.3,2.7C194.9,476.4,195.8,475.4,196.4,476.5z M258.7,465.6c-6.4-2-8.3-1.3-8.7,2.9c-0.3,3.1,0.3,4.9,3.6,4.5
		c2.1-0.3,3.9,0.7,3.8,3.5c-0.1,2.9-1.9,3.6-4.3,3.6c-1.2,0-2.3-1.3-3.5-0.3c0,0.3-0.1,0.7,0,0.9c2.5,2.2,5.1,1.7,7.7,0.3
		c2-1.1,2.8-3.3,2.4-5.7c-0.6-2.9-2.5-4.2-5.1-4.1c-1.5,0-2.3-0.5-2.2-2.3c0.1-1.9,1.1-2.1,2.5-2.1C256,466.5,257.3,467,258.7,465.6
		z"/>
	<path class="st2" d="M232.1,408c14,0,28,0,42,0c8.5,0,13.6,4.2,15.7,13.3c1.2,5.3,1.1,10.8-0.9,15.9c-2.8,7-8.1,10.4-15,10.5
		c-27.8,0.1-55.5,0.1-83.3,0c-9.1,0-15.6-7.7-15.7-17.5c-0.1-6.7-0.2-13.2,5.1-18.1c2.6-2.4,5.3-4,8.9-3.9
		C203.3,408.1,217.7,408,232.1,408z M207,419.1c-0.7-0.7-1-1-1.3-1.3c-3.4-4.2-6.6-5.1-10-2.6c-3.4,2.5-4.2,6.8-2,11.5
		c2.7,5.7,7,9.9,11.4,14c1,0.9,1.8,1.2,2.9,0.2c4.7-4.2,9.2-8.6,11.9-14.7c2-4.3,0.8-8.9-2.3-11.2c-3.2-2.3-6.3-1.6-9.7,2.4
		C207.5,418,207.3,418.5,207,419.1z M266.6,426.5c-0.4-1.7-0.5-3.4-1.1-4.9c-0.9-2.4-2.6-3.8-5.1-3.6c-2.5,0.2-3.8,1.8-4.3,4.1
		c-0.7,3.2-0.9,6.5,0.3,9.7c0.8,2.1,2.2,3.3,4.4,3.3c2.3,0,4-1.1,4.7-3.5C266,430,266.3,428.2,266.6,426.5z M244.1,422.5
		c2.7-1.5,3.9-1.2,3.6,1.9c-0.3,2.8-0.1,5.6,0,8.5c0,0.9,0,2,1.1,2c1.1,0,1.1-1.1,1.1-2c0-4.2,0-8.3,0-12.5c0-2.5-1.2-2.8-2.9-1.6
		C245.9,419.4,244.8,420,244.1,422.5z"/>
	<path class="st2" d="M164.8,142.9c-9.1,1.3-17.4-8.7-17.3-19.3c0.1-9.9,8.1-19.8,17.1-19.5c10,0.4,17.9,8.8,17.7,19.9
		C182,134.5,173.8,144.4,164.8,142.9z M173.4,129.4c4.9-3.2,5.5-13.6,1-17.2c-1.4-1.1-2.9-1.5-4.5-0.2c-4.8,3.4-5.5,12.9-1.2,16.9
		C170.1,130.4,171.7,130.9,173.4,129.4z M161.4,130.1c-1.8-1.1-1.3-3-1.3-4.6c0-3.9,0-7.8,0-11.7c0-0.8,0.2-2.1-0.9-2.1
		c-0.9,0-1.9,0.6-2.6,1.2c-1.4,1.2,0.7,1,0.7,1.7c0.1,5.2,1.4,10.5-1.1,15.5C157.9,130.1,159.6,130.1,161.4,130.1z"/>
	<path class="st4" d="M179.2,367.6c0.1,1.6-0.8,2.4-1.8,3.2c-2,1.5-2.9,3.2-0.2,5.5c-2.2-0.5-4.1-0.8-5.2,1.5
		c-1.2,2.6,1.2,3.3,2.2,4.7c1,1.4,2.4,2.5,3.4,3.9c0.7,1,1.9,2.3,0.7,3.4c-1.1,1-2.3,0-3.2-1c-1.6-1.7-3.2-3.3-4.6-5.1
		c-1.4-1.8-2.5-1.8-4,0c-1.5,1.9-3.3,3.6-4.9,5.4c-0.7,0.8-1.7,1.4-2.5,0.7c-1-0.9-0.6-2.2,0.1-3.2c1.2-1.5,2.5-2.7,3.7-4.2
		c1-1.3,3.1-2,2.1-4.3c-1-2.3-2.8-2.4-5.9-1c4.3-4.9,0.4-5.9-1.4-7.8c0.2-1.9,1.4-1.9,2.7-1.7c0.9,3.1,2.5,4.5,5.7,2.1
		c-0.5,3,0,5.7,2.6,5.6c2.5-0.1,2.9-2.9,2.3-5.8c3.4,2.9,4.7,0.8,5.7-2C177.5,367.6,178.3,367.6,179.2,367.6z"/>
	<path class="st2" d="M176.6,367.6c-1,2.8-2.3,4.9-5.7,2c0.6,2.9,0.2,5.7-2.3,5.8c-2.7,0.1-3.2-2.6-2.6-5.6c-3.3,2.4-4.9,1-5.7-2.1
		C165.7,367.7,171.1,367.7,176.6,367.6z"/>
	<path class="st4" d="M192.3,543.1c2.4,0,4.8,0,7.3,0c-2.5,1.1-2.5,3.3-2.5,5.6c0,3.9,0.1,7.8,0,11.7c-0.2,7.1-3.4,10.5-9.7,10.5
		c-6.6,0-9.5-3-9.8-10.3c-0.1-3.9,0-7.8-0.1-11.7c0-2.3,0.5-5-2.5-5.9c3,0,6,0,9,0c-2.3,1.1-2.6,3.2-2.5,5.5c0.1,4.3,0,8.7,0.1,13
		c0.1,5.1,2.3,7.5,6.4,7.4c4.4-0.1,6.8-2.6,6.9-7.5c0.1-4.3,0-8.7,0.1-13C194.9,546.2,194.7,544.2,192.3,543.1z"/>
	<path class="st4" d="M240.6,544.3c5.4-2.8,5.4-2.8,5.4,2.8c0,5.7,0,11.4,0,17.1c0,2-0.1,4,2.5,4.3c-3.6,3.1-7.6,1.9-11.2,2.3
		c-3.4,0.4-6.3-4.2-6.2-8.6c0.1-5.2,3.6-9.7,7.7-10.2c1.3-0.2,3.4,1.7,3.7-0.8C242.8,548.9,243.7,546,240.6,544.3z M242.6,561.8
		C242.7,561.8,242.7,561.8,242.6,561.8c0-1.6,0.1-3.3-0.2-4.9c-0.3-2-1.5-3.2-3.4-3.2c-1.7-0.1-3,0.9-3.5,2.6
		c-1,3.3-1.3,6.8,0.6,9.9c1,1.6,2.4,2.4,4.3,2c1.4-0.3,2.1-1.2,2.2-2.8C242.7,564.2,242.6,563,242.6,561.8z"/>
	<path class="st4" d="M312,600.8c5-2.8,5-2.8,5,3.2c0,5.5,0,11.1,0,16.6c0,2-0.3,4.1,2.7,4.4c-3.8,3-7.9,2.2-11.7,2.3
		c-3.4,0.1-6.1-4.6-5.9-8.9c0.2-5,3.7-9.3,7.6-9.8c1.3-0.2,3,1.5,3.9-0.7C314.2,606.3,313.3,602.4,312,600.8z M313.6,618.3
		C313.6,618.3,313.7,618.3,313.6,618.3c0-1.6,0-3.3-0.2-4.9c-0.2-1.6-1.2-2.7-2.7-3c-1.3-0.2-2.4,0-3.4,1.1
		c-2.1,2.5-1.9,9.7,0.5,12.1c1.2,1.3,2.6,1.6,4.2,1c1.7-0.6,1.7-2.2,1.7-3.7C313.6,620.1,313.6,619.2,313.6,618.3z"/>
	<path class="st4" d="M293.4,544.3c6-3,6-3,6,3.5c0,1.8,0,3.6,0,5.8c3.9-2.1,7.3-2.7,9.8,1.3c2.4,3.8,2.1,7.7,0.1,11.4
		c-1.9,3.6-5,5-8.8,4.4c-2.9-0.5-4.7-1.8-4.5-5.6c0.3-5.1,0.1-10.2,0-15.3C296,547.8,296.2,545.4,293.4,544.3z M299.4,562.2
		c0,0.9,0,1.8,0,2.7c0,1.7,0,3.4,1.9,4c1.9,0.6,3.5,0,4.7-1.8c0.9-1.3,1-2.7,1.1-4.2c0.2-4.7-1.5-8.2-4.3-7.9
		C298.5,555.4,299.5,559.2,299.4,562.2z"/>
	<path class="st4" d="M276,544.3c5.3-3.1,5.3-3.1,5.4,2.9c0,5.5,0,11.1,0,16.6c0,1-0.3,2.5,0.2,3.1c2.9,3.7-1.1,2.7-2,3.8
		c-2-2.2-4,0.2-6,0.2c-1.4,0-2.7-0.3-3.8-1.3c-3-2.3-4.3-6.6-2.9-10.8c1.2-3.7,3.2-6.5,7.3-6.9c1.3-0.1,3.1,1.4,3.7-0.3
		c0.6-1.8,0.6-4.1-0.3-6.1C277.2,545.1,276.6,544.8,276,544.3z M278.1,561.9c-0.4-3.3,1.1-8-3.9-8.1c-3.7-0.1-4.2,3.6-4.3,6.9
		c-0.1,4.7,2,7.8,5.1,7.6C279.2,568,277.7,564.4,278.1,561.9z"/>
	<path class="st4" d="M311,685c-2.3,0-4.4,0-6.5,0c2.4-4.8,2.1-13.6-0.7-16.9c2.2,0.2,3.6-4.2,5.9-0.1c0.5,1,1.3-0.4,2-0.8
		c4.1-2.2,7-0.6,7.5,4.4c0.2,2.7,0.1,5.4,0.1,8.1c0,2,0.1,3.8,2.5,5.3c-3.1,0-5.4,0-7.7,0c2.1-2.5,2.9-12.2,1.2-14.8
		c-1.3-1.9-5-1.4-5.3,1C309.2,675.7,308.2,680.6,311,685z"/>
	<path class="st4" d="M244.3,610.3c2.6,0.1,4.2-3.6,6.2,0.2c0.4,0.8,1.2-0.1,1.7-0.4c5.3-2.7,7.5-1.1,7.8,5.2
		c0.2,4-1.2,8.3,1.8,12.1c-2.4,0-4.6,0-6.8,0c2.9-4.7,1.6-9.7,1.3-14.5c-0.1-1.1-1.2-1.5-2.2-1.5c-1.5,0.1-2.6,1-3.4,2.2
		c-1.5,2.5-0.5,11.3,1.6,13.8c-2.4,0-4.7,0-7.1,0C247.6,623.4,247.4,613.6,244.3,610.3z"/>
	<path class="st4" d="M212.2,570.8c2.5-4.8,1.6-9.7,0.9-14.4c-0.1-1.1-1.1-1.6-2.2-1.5c-1.5,0.1-2.7,0.8-3.5,2.1
		c-1.2,2-0.1,11.6,1.5,13.8c-2.3,0-4.4,0-6.5,0c2.2-4.2,2-13.6-0.8-16.7c2.1,0,3.4-4.2,5.7-0.3c0.6,1,1.1-0.1,1.7-0.4
		c5.1-2.6,7.8-0.9,8,5.3c0.1,2.2,0,4.5,0,6.7c0,2,0,3.9,2.7,5.3C216.5,570.8,214.3,570.8,212.2,570.8z"/>
	<path class="st4" d="M168.7,609c4.5-1.3,5.9,0.3,5.5,4.6c-0.3,2.5-0.1,5.1,0,7.6c0,1.6,0.4,3.1,2,3.5c1.8,0.4,3.9-0.5,4.1-2.2
		c0.5-4.6,1.8-9.4-1.2-13.6c3.6-1,5.5-0.1,5,4.5c-0.3,2.5,0,5.1,0,7.6c0,1.7,0.1,3.3,3,4.5c-2.9-0.1-4.2,4.3-6.5,0.2
		c-0.6-1.1-1.3,0.3-2,0.7c-4.3,2.4-7.3,0.7-7.7-4.6c-0.2-2.7-0.1-5.4,0-8.1C170.9,611.8,170.6,610.2,168.7,609z"/>
	<path class="st4" d="M250.8,666.2c4.5-0.1,5.7,1.3,5.9,6.3c0.1,3.1-1.3,7.1,0.6,9c1.9,1.9,1.1,3,0,2.8c-3.7-0.5-7.4,1.1-10.9,0.2
		c-2.7-0.8-2.9-5.4-0.6-7.9c1.7-1.8,4-2.6,6.1-3.6c1.2-0.5,1.5-1.6,1.3-2.9s-1-2.1-2.2-2.2c-1.1-0.1-2.3,0-2.6,1.4
		c-0.4,1.4-0.2,3.2-2.3,2.9c-0.4-0.1-0.9-0.7-1-1.2c-0.3-1.9,0.9-3,2.1-4C248.3,666.2,249.5,666.2,250.8,666.2z M253.3,677.9
		c-0.4-0.9,1-3.4-1.3-3.1c-2.1,0.3-4.1,1.8-4.4,4.5c-0.2,1.9,0.8,3.2,2.6,3C252.6,682.2,253.6,680.6,253.3,677.9z"/>
	<path class="st4" d="M327.2,608.6c4.7,0,6.1,1.3,6.2,6c0.1,2.8-0.3,5.7,0.1,8.5c0.7,4.2,0.9,4.2-3.6,2.9c-1.2-0.3-1.7,0.6-2.6,1
		c-2.3,1-4.4,1-5.8-1.5c-1.3-2.5-0.8-5,1.4-6.7c1.4-1.1,3-2,4.7-2.8c1.3-0.6,2.6-1.1,2.4-3c-0.2-1.5-0.9-2.5-2.3-2.6
		c-1.6-0.2-2.6,0.5-2.7,2.4c-0.1,1.1-0.6,2.1-1.8,2c-0.4,0-1-0.5-1.2-1c-0.4-1-0.1-2,0.6-2.9C323.8,609.2,325.5,608.4,327.2,608.6z
		 M330,620.3c-0.4-0.9,1.1-3.4-1.2-3.1c-2.2,0.2-4.1,1.8-4.4,4.5c-0.2,1.9,0.7,3.2,2.6,3C329.3,624.6,330.3,623.1,330,620.3z"/>
	<path class="st4" d="M385.8,625.4c-0.8,1.8-2.3,2.9-3.6,1.8c-1.7-1.3-2.7-1.1-4.3-0.2c-2.2,1.2-4.4,0.7-5.6-1.8
		c-1.2-2.4-0.8-4.7,1.3-6.3c1.6-1.2,3.3-2,5.1-3c1.2-0.7,2.7-1,2.1-3.1c-0.3-1.2-0.8-2.3-2.1-2.4c-1.5-0.2-2.7,0.3-3.1,2.1
		c-0.2,1-0.2,2.2-1.5,2.3c-0.8,0.1-1.3-0.4-1.6-1.2c-0.5-1.1,0.1-2.1,0.7-2.8c2.1-2.6,4.9-2.5,7.6-1.9c2.6,0.6,3.3,2.9,3.5,5.5
		c0.1,1.9,0,3.9,0.1,5.8C384.4,622,383.9,624.1,385.8,625.4z M381,619.5c-0.4-0.6,0.7-2.9-1.4-2.4c-2.3,0.5-4.4,2-4.6,5
		c-0.1,1.7,1,2.8,2.6,2.8C380.4,624.7,381.2,622.6,381,619.5z"/>
	<path class="st4" d="M319.7,552c4.2,0,5.6,1.6,6.1,6.2c0.4,3.4-0.9,6.9,1,10.4c0.9,1.7-1.9,3-3.2,2c-1.7-1.3-2.8-1-4.3-0.1
		c-2.3,1.2-4.4,0.7-5.6-1.9c-1.2-2.5-0.8-4.7,1.3-6.3c1.6-1.2,3.3-2,5.1-2.9c1.2-0.7,2.7-1,2.1-3.2c-0.4-1.2-0.8-2.2-2.1-2.4
		c-1.6-0.1-2.7,0.3-3,2.2c-0.2,1-0.2,2.2-1.5,2.2c-0.8,0-1.3-0.5-1.6-1.2c-0.4-1.1,0.1-2.1,0.8-2.8C316,552.5,317.8,551.8,319.7,552
		z M322.4,563.2c-0.3-0.9,0.7-3.1-1.3-2.8c-2.4,0.3-4.5,1.9-4.7,4.8c-0.2,1.8,1,3.1,2.8,2.9C321.8,567.9,322.6,566,322.4,563.2z"/>
	<path class="st4" d="M377.9,552c4,0,6.1,1.6,5.8,5.9c-0.1,2.2,0,4.5,0,6.7c0,0.7,0.3,1.6,0,2.2c-0.8,1.9,3.6,0.2,1.5,2.7
		c-1.6,1.9-3.2,1.8-5,0.1c-1.1-1-1.9,0.6-2.9,1c-2.1,0.8-4.2,0.8-5.4-1.6c-1.3-2.3-1-4.6,0.9-6.5c1.6-1.7,3.7-2.5,5.7-3.4
		c1.3-0.6,2-1.5,1.7-3.1c-0.2-1.3-0.9-2.1-2.2-2.3c-1.3-0.1-2.5,0-2.8,1.8c-0.2,1.2-0.3,2.4-1.8,2.6c-0.8,0.1-1.3-0.5-1.4-1.3
		c-0.3-1.5,0.5-2.5,1.5-3.5C374.9,552.1,376.5,551.8,377.9,552z M380.3,563.3c-0.3-0.8,0.8-3-1.2-2.7c-2.3,0.4-4.4,1.9-4.5,4.9
		c0,1.8,0.9,2.8,2.6,2.7C379.9,567.9,380.6,566.1,380.3,563.3z"/>
	<path class="st4" d="M216.6,685.1c-4.3-0.1-7.8-4.1-7.8-9.2c0-5.6,3.8-9.9,8.7-9.8c4.5,0.1,7.9,4.3,7.7,9.6
		C225,681.3,221.4,685.2,216.6,685.1z M212.8,674.3c-0.1,2.1,0.2,4.1,1.1,6c0.9,1.8,2,3.2,4.1,3c2.2-0.2,2.8-1.9,3.4-3.8
		c0.6-2.1,0.3-4.1-0.2-6.1c-0.6-2.9-1.5-5.7-4.9-5.4C212.7,668.3,212.8,671.4,212.8,674.3z"/>
	<path class="st4" d="M293.9,666.2c4.6,0,8.1,3.9,8,9.3c0,5.5-3.5,9.6-8.3,9.6c-4.6,0.1-8.1-4-8.1-9.3
		C285.6,670.4,289.2,666.2,293.9,666.2z M289.5,674.5c0,3.2,0.5,6.3,3,8.3c1.2,1,3,0.9,4.1-0.4c2.1-2.6,2-5.6,1.3-8.8
		c-0.7-3-1.5-6.1-5.1-5.6C289.2,668.4,289.5,671.7,289.5,674.5z"/>
	<path class="st4" d="M264.1,568.2c-0.1,1.7-1.7,3-2.3,2.5c-2.9-2.6-5.4,0-8,0.2c-1.7,0.1-3-0.9-3.5-2.6c-0.6-1.9-0.6-3.8,0.8-5.4
		c1.6-1.8,3.6-2.7,5.6-3.6c1.3-0.6,2.6-1.3,2.2-3.2c-0.2-1.3-0.9-2.1-2.2-2.3c-1.6-0.2-2.6,0.4-2.9,2.3c-0.2,1.5-1,2.9-2.5,1.8
		c-1.2-0.8-0.9-2.5-0.1-3.6c2-2.7,4.9-2.6,7.6-2.1c2.3,0.4,3.4,2.3,3.4,4.9c0,2.7,0,5.4,0,8.1c0,1.3-0.2,2.8,1.6,3L264.1,568.2z
		 M259,563.5c-0.4-0.9,1-3.4-1.4-2.9c-2,0.4-4.3,1.5-4.3,4.6c0,1.7,0.6,3,2.3,3C258.2,568.1,259.3,566.5,259,563.5z"/>
	<path class="st4" d="M291.7,627.6c-4.7,0.1-8-3.8-8-9.3c0-5.5,3.2-9.5,7.8-9.6c4.6-0.1,8.4,4,8.4,9.1
		C299.9,623.2,296.3,627.5,291.7,627.6z M296.2,620.3c0-1.5,0-2.1,0-2.7c-0.3-4.6-2.4-7.4-5.2-7.2c-2.8,0.2-4.2,3.3-3.7,8.1
		c0.1,0.7,0.3,1.5,0.5,2.2c0.8,2.9,1.9,5.6,5.2,5C296.2,625.1,296,622,296.2,620.3z"/>
	<path class="st4" d="M242,622.4c-0.5,3.1-2.4,4.6-5,5.1c-2.8,0.5-5.2-0.7-6.8-3.2c-2.3-3.6-2.3-7.6-0.5-11.4
		c1.5-3.2,4.2-4.6,7.6-4.2c1.9,0.2,3.4,1.1,4.4,2.8c0.6,1,1.1,2.1,0.7,3.4c-0.5,1.5-1.8,1-2.8,1c-1.2,0.1-2.5-0.1-3.7,0.1
		c-1.4,0.2-3.6-1.1-4.1,1.6c-0.4,2.2,0.6,4.2,2.3,5.4c2.6,1.9,5.2,1.4,7.4-0.9C241.7,622.1,241.9,622.3,242,622.4z M235.1,615
		c1.3-0.4,3.4,0.8,3.3-2c-0.1-1.7-1.3-2.5-2.9-2.5c-1.9,0-3.4,0.9-3.5,2.9C231.9,615.9,234,614.5,235.1,615z"/>
	<path class="st4" d="M326.7,668c2.2-2.9,4.9-2.1,7.4-0.9c1.9,0.9,3.3,2.8,3,5c-0.4,2.5-2.7,1-4.1,1.3c-0.7,0.2-1.4-0.1-2.1,0.1
		c-1.6,0.3-4-1.2-4.7,1.2c-0.7,2.1,0.7,4,2.2,5.5c1.7,1.7,3.7,1.8,5.7,0.8c1-0.5,1.7-1.4,2.6-2.2l0,0c-1,6.1-6.2,8.4-10.6,4.8
		C321.6,679.8,322,671.6,326.7,668c1.2,1.2-2.6,3.8,0.9,4.4c1.7,0.3,3.5,0.6,5.1-0.4c0.6-0.4,0.3-1.3,0-2c-1.1-2.3-3-2.1-4.9-1.9
		C327.5,668.2,327.1,668.1,326.7,668z"/>
	<path class="st4" d="M349.8,672.2c-1.3-1.7-1.7-3.9-3.7-4.6c-1.5-0.5-2.5-0.1-3.2,1.1c-0.9,1.4-0.4,2.6,0.8,3.4
		c1.6,1.1,3.4,2,5.1,3c2,1.2,3,3,2.6,5.6c-0.4,2.5-2.2,3.8-4.3,4.3c-5.6,1.4-7.4-0.1-6.7-5.7c1.5,1.3,2,3.4,3.7,4.1
		c1.5,0.6,2.7,0.7,3.7-0.6c1-1.4,0.5-2.9-0.7-3.9c-1.1-0.9-2.2-1.7-3.5-2.4c-2.6-1.4-4.5-3.3-3.5-6.7c1-3.2,3.5-3.8,6.4-3.6
		C350.9,666.6,351.1,666.7,349.8,672.2z"/>
	<path class="st4" d="M399,614.7c-1.6-1.8-1.9-4-3.8-4.7c-1.4-0.5-2.4-0.1-3.3,1c-1.1,1.4-0.3,2.6,0.7,3.4c1.2,0.9,2.7,1.5,4,2.3
		c2.3,1.5,4.7,3.1,3.7,6.6c-0.9,3.1-3.1,4.2-6.1,4.2c-5.5,0-5.5,0.1-5.1-5.7c1.6,0.3,1.5,2.3,2.5,2.9c1.3,0.9,2.5,2.1,4.1,1.3
		c0.9-0.4,1.7-1.1,1.8-2.2c0.2-2-1.2-2.9-2.5-3.7c-1.4-0.9-2.9-1.6-4.3-2.7c-1.4-1.1-2.2-2.7-1.7-4.7c0.4-2.1,1.7-3.4,3.5-4
		C397.2,607.3,399.5,609.2,399,614.7z"/>
	<path class="st4" d="M330.8,564.9c1.1,1.5,1.6,3.3,3.1,4.1c1.6,0.9,3.2,1.3,4.4-0.5c1.4-2,0.1-3.4-1.3-4.4c-1.4-1-2.9-1.6-4.3-2.6
		c-1.8-1.3-3-3.1-2.2-5.7c0.7-2.4,2.4-3.5,4.6-3.8c5.2-0.5,5.8,0.1,5.3,5.7c-1.7-0.8-1.6-3.1-3.1-3.9c-1.6-0.9-2.9-1-4,0.6
		c-1.2,1.7-0.1,2.8,1,3.7c1,0.8,2.2,1.2,3.3,1.9c2.4,1.4,4.8,3,4.2,6.4c-0.7,3.7-3.3,4.7-6.6,4.6
		C329.9,570.8,329.8,570.7,330.8,564.9z"/>
	<path class="st4" d="M367.9,564.6c-0.8,5-4.5,7.6-8.5,6c-3.7-1.5-5.7-6.6-4.6-11.8c0.9-4.2,4.6-7.1,8.5-6.8c1.2,0.1,2.1,0.5,3,1.3
		c1,0.9,1.8,1.9,1.7,3.4c-0.1,0.8-0.5,1.4-1.3,1.5c-1.7,0.2-2-1.1-2.4-2.4c-0.4-1.5-1.3-2.2-2.8-2.1c-1.6,0.1-2.5,1.1-3.1,2.6
		c-1.3,3.2-0.4,8.7,1.9,10.3C363.5,568.8,365.8,566.8,367.9,564.6L367.9,564.6z"/>
	<path class="st4" d="M240.9,678.8c-0.8,5-4.5,7.6-8.5,6c-3.7-1.5-5.7-6.6-4.6-11.8c0.9-4.2,4.6-7.1,8.5-6.8c1.2,0.1,2.1,0.5,3,1.3
		c1,0.9,1.8,1.9,1.7,3.4c-0.1,0.8-0.5,1.4-1.3,1.5c-1.7,0.2-2-1.1-2.4-2.4c-0.4-1.5-1.3-2.2-2.8-2.1c-1.6,0.1-2.5,1.1-3.1,2.6
		c-1.3,3.2-0.4,8.7,1.9,10.3C236.4,683,238.7,681,240.9,678.8L240.9,678.8z"/>
	<path class="st4" d="M347.8,614.3c-1.4-1.1-1.4-3-2.9-3.8c-1.6-0.8-3-1-4,0.7c-0.9,1.6-0.1,2.9,1.2,3.7c1.2,0.7,2.5,1.3,3.6,2.1
		c2.2,1.4,4.4,3.3,3.5,6.4c-0.8,3-3.1,4.3-6.1,4.3c-3.4,0-6.3-0.1-4.8-5.6c1.5,1.2,1.9,3.5,3.9,4c1.6,0.4,2.7,0.3,3.6-1.1
		c1-1.6,0.3-2.9-0.9-3.8c-1.3-1-2.9-1.8-4.3-2.7c-2.2-1.4-3.5-3.3-2.6-6.3c0.9-2.9,3-3.6,5.5-3.5
		C346.8,608.8,349.5,609.4,347.8,614.3z"/>
	<path class="st4" d="M271.2,671.8c-1.5-0.9-1.5-3.2-3.2-3.9c-1.5-0.6-2.7-0.7-3.7,0.7c-1,1.5-0.4,2.9,0.9,3.8c1.6,1.1,3.4,1.9,5,3
		c1.6,1.2,3,3,2.4,5.3c-0.6,2.5-2.3,4-4.7,4.4c-5.5,1-6.7-0.1-6.2-5.8c1.3,1.8,2.1,3.8,4.1,4.4c1.6,0.5,2.7,0,3.5-1.4
		c0.8-1.4,0.2-2.7-0.9-3.5c-1.3-1-2.8-1.8-4.3-2.7c-2.2-1.4-3.7-3.1-2.8-6.2c0.9-3.2,3.1-3.9,5.8-3.7
		C271.7,666.5,271.7,666.6,271.2,671.8z"/>
	<path class="st4" d="M216.8,627.4c-2.7,0-4.9,0-7.1,0c2.5-3.9,2.4-23.7-0.2-26.3c1.2-1.3,2.9-2.6,4.3-1.9c1.7,0.8,0.8,3.2,0.8,4.8
		c0.1,5.7,0.1,11.4,0,17C214.6,623.3,214.7,625.5,216.8,627.4z"/>
	<path class="st4" d="M361.8,601c5.3-3.1,5.3-3.1,5.3,3c0,6,0,11.9,0,17.9c0,1.9-0.3,4,2.9,5.4c-3.5,0-5.7,0-7.9,0
		C364.7,623.5,364.6,603.8,361.8,601z"/>
	<path class="st4" d="M281.3,624.8c-0.6,2.4-2.2,3-4.1,2.5c-1.9-0.5-2.5-2.1-2.5-4.1c0-2.2,0-4.5,0-6.7c0-1.2,0.4-2.8-0.1-3.5
		c-3.4-4.8,1.6-6.7,2.6-10.7c1.7,2.6-1.1,7.4,4.6,6.9c-3.9,0.8-4.1,3.1-3.9,5.8c0.1,2.1,0.2,4.2,0,6.3
		C277.8,624.1,278.9,625.1,281.3,624.8L281.3,624.8z"/>
	<path class="st4" d="M196.4,624.8c-0.6,2.4-2.2,3-4.1,2.5c-1.9-0.5-2.5-2.1-2.5-4.1c0-2.2,0-4.5,0-6.7c0-1.2,0.1-2.4,0-3.6
		c-0.4-5.2-0.4-5.2,2.8-10.2c1.4,2.1-1.4,7,4.3,6.5c-3.9,0.8-4,3.1-3.9,5.8c0.1,2.1,0.2,4.2,0,6.3
		C192.8,624.1,193.9,625.1,196.4,624.8L196.4,624.8z"/>
	<path class="st4" d="M228.3,570.8c-2.7,0-4.8,0-6.7,0c2.3-5.1,1.5-10.4,0.8-15.6c-0.1-0.6-1.8-0.5-0.9-1.2c1.1-1,2.7-1.4,4.1-1.7
		c1-0.2,1.1,1.1,1.1,2c0,3.6,0,7.1,0,10.7C226.7,566.9,226.6,568.9,228.3,570.8z"/>
	<path class="st4" d="M283,684.9c-2.9,0-4.8,0-6.8,0c2-4.6,1.6-14.2-0.7-16.7c0.5-0.3,0.9-0.6,1.4-0.9c3-1.7,4.5-1.2,4.2,2.9
		c-0.2,3.1,0,6.2,0,9.4C281.1,681.5,280.9,683.3,283,684.9z"/>
	<path class="st4" d="M205.6,627.4c-2,0-3.9,0-5.7,0c1-5.6,1.9-11.3-0.6-16.9c5-2.8,5-2.7,5.1,3.7
		C204.6,618.6,203.4,623.1,205.6,627.4z"/>
	<path class="st4" d="M351.7,570.8c-0.9,0.1-1.7,0.1-2.5,0.1c-1.4,0-2.7,0-4.2,0c2.5-4,2.4-14-0.2-16.6c1.2-1.4,2.9-2.5,4.2-2
		c1.8,0.8,0.7,3.1,0.9,4.8C350.4,561.7,348.7,566.5,351.7,570.8z"/>
	<path class="st4" d="M389.6,576.7c1.2-2.7,4.7-5-0.2-6.3c-1.3-0.4-1.1-2.4,0-3.4c1.2-1.1,2.6-0.8,3.6,0.5
		C395.3,570.1,394.2,573.6,389.6,576.7z"/>
	<path class="st4" d="M318.8,548.5c0.6-2.8-0.4-7.2,5.1-6.1C322.2,544.7,321.1,547.1,318.8,548.5z"/>
	<path class="st4" d="M180.6,599.3c-1.2,2.4-2.5,4.4-4.6,6.3C176.1,599.4,176.6,598.7,180.6,599.3z"/>
	<path class="st4" d="M357.7,685c-1.3-0.1-2.1-0.8-2-2.2c0-1.3,0.8-2.2,2.1-2.1c1,0.1,1.7,0.8,1.8,2
		C359.7,684.1,358.9,684.8,357.7,685z"/>
	<path class="st4" d="M202.7,602.3c-1.1,0-1.9-0.5-1.9-1.8c0-1,0.7-1.6,1.6-1.6c1.1,0,1.9,0.5,1.9,1.8
		C204.3,601.7,203.6,602.2,202.7,602.3z"/>
	<path class="st4" d="M226.6,543.9c-0.2,1.2-0.9,1.8-2,1.7c-0.9-0.1-1.6-0.7-1.5-1.7c0.1-1.3,0.9-1.8,2-1.7
		C226,542.3,226.5,542.9,226.6,543.9z"/>
	<path class="st4" d="M348.7,545.6c-1.1,0-1.9-0.5-2-1.7c0-1,0.6-1.6,1.5-1.7c1.1-0.1,1.9,0.5,1.9,1.7
		C350.3,544.9,349.6,545.5,348.7,545.6z"/>
	<path class="st4" d="M279.2,656.4c1.1,0.1,1.9,0.6,1.8,1.9c-0.1,1-0.8,1.6-1.7,1.6c-1.1,0-1.9-0.5-1.8-1.8
		C277.6,657,278.3,656.5,279.2,656.4z"/>
	<path class="st4" d="M241.6,622c0.2-0.4,0.4-0.7,0.6-1.1c0.5,0.6,0.2,1-0.1,1.5C241.9,622.3,241.7,622.1,241.6,622z"/>
	<path class="st4" d="M281.3,624.8c0.1-0.1,0.2-0.3,0.4-0.4c0,0.1,0,0.2,0,0.3C281.6,624.8,281.4,624.8,281.3,624.8L281.3,624.8z"/>
	<path class="st4" d="M264,568.2c0.1-0.1,0.3-0.2,0.5-0.4C264.3,567.9,264.2,568.1,264,568.2C264.1,568.2,264,568.2,264,568.2z"/>
	<path class="st4" d="M368,564.6c0-0.1,0.1-0.2,0.1-0.3c0,0,0.1,0,0.2,0C368.2,564.4,368.1,564.5,368,564.6
		C367.9,564.6,368,564.6,368,564.6z"/>
	<path class="st4" d="M196.3,624.8c0.1-0.1,0.2-0.3,0.4-0.4c0,0.1,0,0.2,0,0.3C196.6,624.8,196.5,624.8,196.3,624.8
		C196.4,624.8,196.3,624.8,196.3,624.8z"/>
	<path class="st4" d="M240.9,678.8c0-0.1,0.1-0.2,0.1-0.3c0,0,0.1,0,0.2,0C241.2,678.6,241,678.7,240.9,678.8
		C240.9,678.8,240.9,678.8,240.9,678.8z"/>
	<path class="st4" d="M336.6,678.8c0.1-0.1,0.1-0.3,0.2-0.4C336.7,678.6,336.7,678.7,336.6,678.8
		C336.6,678.8,336.6,678.8,336.6,678.8z"/>
	<path class="st4" d="M227.6,122.1c-2.1,2.5-1.9,5.1-1.7,7.5c0.3,3.4-1.1,4.8-3.9,5.6c-6.2,1.8-12.4-0.5-15.1-5.9
		c-2.5-5.1-1.3-11.2,3.1-15.3c3.1-2.9,6.6-3.3,10.4-2.2c1.5,0.5,2.9,1.6,4.7-0.2c0,2.4,0,4.1,0,6.2c-2-1.6-2.8-4.2-5.4-4.7
		c-5.3-1.2-9.2,1.9-10.1,8.2c-0.8,5.9,2,11.4,6.7,12.8c3.9,1.2,5.7-0.2,5.7-4.6c0-2.4,0.8-5.2-1.7-6.8c0.3-0.8,0.9-0.6,1.4-0.6
		C223.4,122.1,225.2,122.1,227.6,122.1z"/>
	<path class="st4" d="M279.7,112.5c4.9-3,4.9-3,4.9,2.8c0,5.2-0.1,10.5,0.1,15.7c0,1.4,2.8,3.1-0.7,4.1c-2.2,0.6-2.8-0.1-2.8-2.2
		c0-2.7,0.1-5.4,0.2-8c0.1-2.3-1-4-3-4.1c-2-0.2-3.1,1.6-3.6,3.6c-1.3,5,0.3,7.9,5.1,9.8c-2.8,2.4-5.5,1.9-7.6-1.5
		c-3.1-4.9,0.1-12.6,5.4-13.2c1.2-0.1,3,1.5,3.5-0.7C281.6,116.5,282.1,114,279.7,112.5z"/>
	<path class="st4" d="M425.7,135.6c-3.8,0-7.6,0-11.1,0c5.3-4.9,1.7-11.6,2.7-17.2c0.5-2.8-1.8-2.6-3.4-2.8c0.1-0.5,0.1-0.7,0.1-0.7
		c2.4-1.7,5.2-4.6,7.5-3.6c2,0.9,0.6,5.1,0.7,7.9c0.2,3.3,0.3,6.6,0,9.9C422.1,132.2,423,134.3,425.7,135.6
		C425.7,135.6,425.7,135.6,425.7,135.6z"/>
	<path class="st4" d="M244.5,133.7c-3.5,2.7-7.2,0.8-10.7,1.6c-2.5,0.5-2.7-2.9-3-5.4c-0.3-3.4,1.3-7.2-1.7-10.1
		c3.7-1.3,4.8,0.4,4.5,4.1c-0.2,2.2,0,4.5,0.1,6.7c0.1,1.5,0.9,2.5,2.5,2.4c1.5-0.1,2.9-0.6,3-2.4c0.1-3.6,0.9-7.4-0.8-10.9
		c3.6-1.4,4.1,0.7,4.2,4.2C242.8,127.2,241,131,244.5,133.7z"/>
	<path class="st4" d="M251.6,126.6c0.3-0.4,0.6-1,1-1.3c1.1-0.7,1.8-1.6,1.1-2.9c-0.4-0.7-1.1-1.5-1.7-1.7c-1.3-0.5-2,0.5-2.5,1.7
		c-0.4,0.9-0.2,2.3-1.6,2.2c-0.8,0-1.2-0.7-1.2-1.5c-0.1-1.4,0.7-2.2,1.7-2.8c2.2-1.3,4.5-1.4,6.7-0.3c2.1,1.1,2,3.3,2.2,5.4
		c0.3,2.5-1.1,5.4,1.1,7.6c0.5,0.5,0.2,1.1-0.3,1.5c-0.9,0.8-1.9,1.4-3,0.6c-1-0.7-1.6-1.3-2.9-0.5c-2.5,1.6-5,1.5-6.1-1.8
		c-1.1-3.3,1.1-4.9,3.5-6.1C250.3,126.5,251,126.7,251.6,126.6c-0.3,0.4-0.7,0.8-1.1,1.2c-1.4,1.1-1.8,2.6-1,4.3
		c0.5,1.1,1.6,1,2.6,0.8c1.7-0.4,2-1.7,2.1-3.3C254.2,127.5,253.6,126.4,251.6,126.6z"/>
	<path class="st4" d="M301.9,126.5c1-0.7,2.3-1.3,2.9-2.3c0.8-1.4-0.1-2.6-1.3-3.3c-1.6-0.8-2.6,0-3.1,1.8c-0.2,0.9-0.3,1.8-1.3,2
		c-0.6,0.1-1-0.3-1.2-0.9c-0.3-1.1,0-2.1,0.8-2.8c2-1.8,4.4-1.8,6.6-1.2c2.3,0.7,2.3,2.9,2.6,5c0.4,2.8-1.7,6.3,1.6,8.6
		c0,0-0.3,1-0.6,1.4c-0.8,0.9-2,1.3-3,0.5c-0.9-0.8-1.6-1.3-2.8-0.5c-2.3,1.6-4.7,1.5-5.8-1.5c-1-2.8,0.1-4.9,2.9-5.9
		c0.2,0.2,0.4,0.5,0.7,0.7c-0.9,1.4-1.8,2.8-0.3,4.3c1,1,2.3,0.8,3.4,0.1c1.7-1,1.3-2.8,1.1-4.4c-0.2-2.1-1.7-1.3-2.8-1.2
		C302.1,126.8,302,126.6,301.9,126.5z"/>
	<path class="st4" d="M265.7,122.1c-1,4.5-2,8.9,0.8,13.3c-1.8,0-3.7,0-5.8,0c1.8-3.8,1-7.9,0.9-11.9c0-1.3-2-2.3,0.5-3.6
		C264.6,118.8,264.7,120.9,265.7,122.1L265.7,122.1z"/>
	<path class="st4" d="M294.9,135.5c-2.2,0-4.1,0-6,0c2-4.2,1.9-8.5,0.7-12.8c-0.2-0.6-1.8-1-0.5-1.9c0.9-0.6,2-1,3.1-1
		c0.8,0,0.8,1.1,0.8,1.8c0,3,0.1,6,0,9C292.8,132.4,293.3,134,294.9,135.5z"/>
	<path class="st4" d="M265.6,122.1c0-1.2,0.8-1.8,1.7-2.3c0.9-0.5,1.8-0.5,2.6,0.3c0.6,0.6,0.7,1.3,0.3,2c-0.7,1.1-1.6,0.7-2.5,0.3
		C267.1,122.2,266.3,122.2,265.6,122.1L265.6,122.1z"/>
	<path class="st4" d="M300.1,127.3c0.6-0.3,1.1-0.6,1.7-0.9c0.1,0.2,0.2,0.3,0.3,0.5c-0.5,0.4-0.9,0.7-1.4,1.1
		C300.6,127.8,300.4,127.6,300.1,127.3z"/>
	<path class="st4" d="M311.1,384.4c1.5-0.9,0.6-2.4,0.9-3.6c0.7-3.2,3.5-5.1,5.8-3.9c1.2,0.7,1.9,1.8,1.8,3.2c-0.1,1.2-1.3,0.7-2,1
		c-1.2,0.4-3.5-1.3-3.3,1.4c0.2,2.2,2.1,2.3,3.9,1.7c0.2-0.1,0.4,0.2,0.7,0.3c-0.7,1.6-2.3,2.5-3.3,1.8c-2.7-1.9-5.5-0.7-7.8-0.2
		c-4.4,0.9-4.9-1.6-4.7-4.8c0.1-1.5-1.8-4.1,0.3-4.4c2.9-0.4,1.4,2.7,1.8,4.3c0.3,1.3-0.7,3.5,1.6,3.3c2.2-0.1,1.4-2.4,1.8-3.8
		c0.5-1.5-1.8-3.6-0.1-3.8c2.9-0.4,1.3,2.7,1.8,4.3C310.5,382.2,309.8,383.6,311.1,384.4z"/>
	<path class="st4" d="M405.9,385.6c-1.3,1.5-6.6,0.1-2.8,5.1c-2.4,0.6-4.3,1.2-3-2.6c0.5-1.4-0.1-3.3,0.1-4.9
		c0.5-3.7-0.9-5.2-4.2-4.8c0.2-0.4,0.5-0.9,0.7-1.3c2-0.1,4-0.3,6-0.4c2.1-0.1,4.2-0.3,5.1,2.5C408.7,381.9,408.5,384.2,405.9,385.6
		c0-1.4,0.1-2.9,0.1-4.3c0-1.4-0.5-2.7-2.1-2.7c-1.6,0-1.9,1.3-2,2.7C401.6,384.6,403.1,385.9,405.9,385.6z"/>
	<path class="st4" d="M352.7,380c-0.4-2.7,1-3.2,2.8-3.4c1.6-0.1,3,0.3,3.3,2.4c0.4,2-0.5,4.1,0.9,6c0.4,0.6-0.4,1.5-1.1,1.3
		c-1.3-0.2-2.6-0.2-3.9,0.1c-1,0.2-1.9-0.4-2.2-1.5c-0.3-1.1-0.1-2.1,0.8-2.8c0.6-0.4,1.2-0.7,1.8-1.1c1-0.6,2.2-1.4,1.3-2.7
		c-1.2-1.5-1.7,0.3-2.3,1.1C353.7,379.7,353.2,379.7,352.7,380z"/>
	<path class="st4" d="M300.6,376.1c-1.7-2-3.4-4.1-6-2.6c-2.6,1.5-2.8,4.2-2.7,7c0.2,3.5,2.2,4.9,5.5,5.3c-4.6,1.1-7.5-0.9-8.2-5.2
		c-0.6-4,2.3-8.1,6.1-8.5C299.5,371.7,300.7,372.5,300.6,376.1z"/>
	<path class="st4" d="M202.2,385.6c-1,1.4-5.1,0.6-2.7,4.6c0.3,0.5,0,0.8-3.4,0.5c1.6-3.2,0.6-6.7,1-10c0.2-1.3-2.1-3.3,0.2-3.6
		c2-0.2,4.6-1.8,6.5,0.8C205.6,380.3,204.8,383.9,202.2,385.6c0.2-0.8,0.5-1.6,0.6-2.5c0.2-1.8,0.4-3.6-1.5-4.5
		c-0.8-0.4-1.8-0.2-2.1,0.7c-0.5,1.8-0.8,3.8,0.4,5.5C200.2,385.8,201.2,385.4,202.2,385.6z"/>
	<path class="st4" d="M333.3,385.6c-1.2,1.3-4.8,1-2.4,4.6c0.3,0.5,0,0.8-3.3,0.4c1.5-3.4,0.5-6.9,0.8-10.4c0.1-1.2-0.8-3.4,1-3.1
		c1.9,0.3,4-1.7,5.8,0.6C336.9,379.9,335.9,384.2,333.3,385.6c0.2-0.8,0.7-1.6,0.8-2.5c0.1-1.7,0.5-3.8-1.6-4.6
		c-1-0.4-2,0.2-2.2,1.3c-0.3,1.9-0.8,3.9,1,5.3C331.9,385.6,332.7,385.5,333.3,385.6z"/>
	<path class="st4" d="M391.1,384.7c-1.4,2.5-3.4,2.4-5.2,0.8c-2.1-1.9-2-4.6-0.7-7c1.1-2.1,3-2.5,5-1.4c1,0.5,1.8,1.5,1.6,2.9
		c-0.1,1-0.8,1-1.5,1.2c-1.3,0.4-3.8-1-3.7,1.2C386.6,385.1,389.3,384.5,391.1,384.7L391.1,384.7z"/>
	<path class="st4" d="M249.2,386.4c-2.7,0-5.4,0-8.5,0c0.7-1.9,0.9-3.7,1-5.5c0-1.3-2.8-4,1.1-4c2.6,0,6.1-1.3,5.7,4
		c-0.1,1.6-0.2,3.3,0.7,4.8C249.2,385.9,249.2,386.1,249.2,386.4z M243.3,382.3c0.3,1.1-0.5,3.2,1.6,3.3c2.4,0.1,1.8-2.1,1.8-3.6
		c0-1.3,0.5-3.4-1.5-3.5C242.9,378.4,243.5,380.6,243.3,382.3z"/>
	<path class="st4" d="M267.9,377.2c2.9-1.3,4.5-0.3,4.5,3.2c0,0.6,0.2,1.3,0,1.8c-0.6,1.5,2,3,0.3,3.8c-1.6,0.8-3.7,0.4-5.5,0.2
		c-0.8-0.1-1.4-1-1.4-2c0.1-1.8,1.4-2.4,2.6-3.2c0.9-0.5,2.3-0.7,1.9-2.4c-0.3-1.1-1.2-1.1-2-1.1C268.1,377.5,268,377.3,267.9,377.2
		z"/>
	<path class="st4" d="M374.2,376.7c4.1-0.2,2.5,2.7,2.9,4.4c0.3,1.3-0.6,3.4,1.5,3.5c2.4,0.1,1.3-2.3,1.8-3.7
		c0.6-1.5-1.7-3.9,0.1-4.1c2.7-0.2,1.3,2.9,1.5,4.6c0.3,2.3,1.8,5.1-2.9,4.9c-3.1-0.2-4-1-3.9-3.9
		C375.3,380.6,375.2,378.7,374.2,376.7z"/>
	<path class="st4" d="M182.9,386.2c1.8-3.7,0.9-7.6,0.9-11.4c0-2.9-2.4-1.2-4.2-1.6c5-2.2,9.8-1.5,11,1.7c-1.5-1-2.5-2.7-4-1.6
		c-1.3,0.9-0.8,2.5-0.7,3.7c0.2,3-1,6.3,1.5,9C185.9,386.8,184.4,386.6,182.9,386.2z"/>
	<path class="st4" d="M258.2,377.5c1.4-1.2,4.8-0.7,3.2-4.6c-0.3-0.7,0.7-1.2,1.4-1.3c0.9-0.2,1.2,0.6,1.2,1.3c0.1,4,0.3,8,0.4,12.1
		c0,0.9-0.7,1.3-1.4,1.3c-0.8-0.1-1.1-0.6-1-1.6c0.1-1.3,0.3-2.7,0.2-4c-0.1-2.4-1.4-3.5-3.6-2.9
		C258.4,377.7,258.3,377.6,258.2,377.5z"/>
	<path class="st4" d="M277,377.3c1.3-1.2,5.1-0.3,2.8-4.4c-0.6-1,0.6-1.1,1.1-1.3c0.8-0.3,1.2,0.4,1.2,1.2c0.4,4.1-0.7,8.2,0.7,12.3
		c0.1,0.2-0.7,0.9-1.1,1c-0.7,0.2-1.4-0.2-1.4-1.1c0-1.5,0.1-3,0.1-4.4c0-2.3-1.1-3.2-3.1-2.9C277.3,377.6,277.2,377.5,277,377.3z"
		/>
	<path class="st4" d="M230.1,385.8c-2.5-0.7-2.3-2.9-2.4-5c-0.1-2.8,0.6-5.7-1.1-8.2c1.4-0.8,2.7-0.4,4.3-0.4
		c-2.3,4.3-1.7,8.6-0.3,12.9C230.4,385.4,230.2,385.6,230.1,385.8z"/>
	<path class="st0" d="M249.2,386.4c0-0.2,0-0.5,0-0.7c3.9,0,2-3.2,2.5-5.2c0.3-1.3-0.9-3.5,1.2-3.5c1.6,0,0.9,2.1,1.1,3.3
		c0,0.3,0,0.6,0,0.9C254.9,385.8,253.4,387.5,249.2,386.4z"/>
	<path class="st0" d="M396.7,377c-0.2,0.4-0.5,0.9-0.7,1.3c0,2.1-0.2,4.2,0.1,6.2c0.2,1.3,0.4,1.9-1.1,2c-1.3,0-1.9-0.2-1.5-2
		c0.4-1.5,0.3-3.3,0.1-4.9C393.2,376.6,394.7,376.5,396.7,377z"/>
	<path class="st4" d="M327.8,377.2c-5.6,2.2-4.6,5.5-2.9,9.8c-1.3-1.4-3.3,1.4-3.3-2.2C321.7,376.6,321.7,376.6,327.8,377.2z"/>
	<path class="st4" d="M368,377.6c-0.1,3.3-1.6,7.3,4.3,7.4c-2.7,2.2-4.6,1.8-5.8-0.3C364.9,382,365,379.3,368,377.6L368,377.6z"/>
	<path class="st4" d="M415.8,385.6c-2.4,1.9-4.4,0.9-5.7-1.4c-1.5-2.6-1-5,1.6-6.6l0,0C411.9,380.9,410.2,385.5,415.8,385.6
		L415.8,385.6z"/>
	<path class="st4" d="M411.7,377.5c2.4-1.9,4.4-0.9,5.8,1.4c1.5,2.7,0.9,5-1.6,6.6l0,0C415.6,382.2,417.3,377.6,411.7,377.5
		L411.7,377.5z"/>
	<path class="st4" d="M194.7,386.3c-2.3,0.6-3.8,0.8-2.7-2.8c0.5-1.4,0.5-3.3-0.3-4.8c-0.7-1.3,0.3-1.5,1-1.7
		c0.9-0.2,1.1,0.6,1.1,1.4C194.1,380.9,193.4,383.6,194.7,386.3z"/>
	<path class="st4" d="M343.3,385.7c-2.5,1.8-4.6,0.8-5.5-1.8c-0.8-2.4-1.2-5.3,2.1-6.4l0.1,0.1c-1.5,5.4-0.8,7,3.2,8L343.3,385.7z"
		/>
	<path class="st4" d="M212.1,385.7c-2.5,1.8-4.6,0.8-5.5-1.8c-0.8-2.4-1.2-5.3,2.1-6.4l0.1,0.1c-1.5,5.4-0.8,7,3.2,8L212.1,385.7z"
		/>
	<path class="st4" d="M339.9,377.4c2.5-1.8,4.6-0.8,5.5,1.8c0.8,2.4,1.2,5.3-2.1,6.4l-0.1-0.1c1.4-5.5,0.8-7-3.2-8L339.9,377.4z"/>
	<path class="st4" d="M208.7,377.4c2.5-1.8,4.6-0.8,5.5,1.8c0.8,2.4,1.2,5.3-2.1,6.4c0,0-0.1-0.1-0.1-0.1c1.4-5.5,0.8-7-3.2-8
		L208.7,377.4z"/>
	<path class="st4" d="M277.4,377.7c-1.8,3.4-1.3,6.2,1.9,8.4c-2.6,0.9-4-0.5-4.6-2.6c-0.8-2.6-0.3-5,2.4-6.2
		C277.2,377.5,277.3,377.6,277.4,377.7z"/>
	<path class="st4" d="M258.5,377.7c-1,3.1-1.4,6.1,2.1,8.4c-2.5,0.7-3.9-0.3-4.5-2.2c-0.8-2.6-0.4-5,2.1-6.5
		C258.3,377.6,258.4,377.7,258.5,377.7z"/>
	<path class="st4" d="M239.8,372.1c-3.5,3.4-1,7.6-2.5,11c-1.4-3.4,0.6-7-1.2-10.4C235.6,372.1,237.9,372.4,239.8,372.1z"/>
	<path class="st4" d="M367.9,377.5c1.9-1.4,3.5-1.4,5,1.3C370.9,379.4,369.8,376.7,367.9,377.5C368,377.6,367.9,377.5,367.9,377.5z"
		/>
	<path class="st4" d="M230.5,385.1c1.8,1,3.7,0.1,5.6,0c-1.9,1.7-3.9,1.8-6,0.6C230.2,385.6,230.4,385.4,230.5,385.1z"/>
	<path class="st4" d="M268.2,377.6c-0.2,0.8,0,1.8-1,2.2c-0.2,0.1-0.6-0.2-0.6-0.3c-0.4-1.3,0.3-1.9,1.3-2.3
		C268,377.3,268.1,377.5,268.2,377.6z"/>
	<path class="st4" d="M391.1,384.8c0.1-0.4,0.1-0.7,0.2-1.1c0.1,0,0.2,0.1,0.3,0.1C391.4,384.1,391.2,384.4,391.1,384.8
		C391.1,384.7,391.1,384.8,391.1,384.8z"/>
	<polygon class="st4" points="299.1,385 299.2,385.2 298.9,385.2 	"/>
	<path class="st5" d="M250.5,152.8c41.1,0,82.2-0.1,123.3-0.1c10.9,0,21.7,0,32.6,0c5.6,0,7.8,2.4,7.8,8.4c0,63.1,0,126.1,0,189.2
		c0,6.1-2.1,8.4-7.7,8.4c-13.2,0-26.4,0-39.6,0c-1.2,0-2.5,0.3-3.6-0.7c-0.1-7.9-0.2-15.8-0.3-23.7c0.2-7.8,0.4-15.7-0.3-23.5
		c-0.1-8.6-0.3-17.2-0.4-25.9c0.4-1,0.4-1.9,0-2.9c0-1.7,0-3.5,0-5.2c0-0.9,0-1.8,0-2.8c-0.3-8.6,0.1-17.2-0.5-25.8
		c-0.3-4.5-1.6-6-5-5.6c-3.4,0.3-6.8-0.6-10.2-0.1c-2.8,0.5-4.3-0.6-4.9-3.5c-1.1-3.9-2.2-7.8-3.3-11.7c-0.3-1.5-0.6-2.9-0.9-4.4
		c0-1.6,1.5-3.1,0.7-4.7c-2.9-5.6-3.6-12.7-9.6-16.1c-0.4-1.8,0-4.1-2.2-4.9l-0.1-0.1c-2.5-2.5-6.1-2.2-8.7-4.4
		c-1.9-1.6-3.4-2.8,0.1-4.4c3-1.4,3.1-3.9,0.7-6.3c-0.9-0.9-1.8-1.8-2.8-2.6c-0.4-4.1-1.3-8.2-1.1-12.4c-0.5-5.5-5.3-11.6-8.9-10.7
		c-2.6,0.6-5.4,0.9-7.7,2.7c-1-0.1-1.9,0.1-1.8,1.6l-0.1-0.2c-3,1.8-3.9,5.2-4.7,8.4c-0.7,2.4-1.4,4.3-4,5c-1.8,0.5-4,1.6-4,3.9
		c-0.1,2.2,1.9,3.4,3.5,4.6c6.1,4.5,6.2,11.2-0.1,15.1c-3.3,2.1-6.1,4.2-7.1,8.3c-2.1,3.5-5.3,6.2-6.9,10.1c0.1,3.6-1.6,6.5-2.9,9.6
		c-2.9,0.7-4-1.7-5.5-3.5c0.1-0.8,0.1-1.6-0.8-2.1c-0.1-0.2-0.3-0.5-0.4-0.7c-1.8-2.4-3.6-4.8-5.4-7.2l0.1,0.1
		c-0.4-1.1-0.6-2.3-1.7-2.8l0,0.1c0.1-0.7-0.4-0.9-0.9-1.1c-0.1-0.5-0.4-0.7-0.9-0.6c-1.8-0.5-2.2-1.8-2.2-3.7
		c0-4.2-0.2-8.4-0.3-12.5c0.4-4-0.4-7.9-0.7-11.8c0-2.7-0.1-5.3-0.1-8c0.9-1.1-1.3-2.3-0.2-3c2.7-1.8-0.3-1.1-0.5-1.6
		c-0.2-0.3-0.5-0.7-0.8-1c0-0.8,0-1.6,0-2.3C252.4,160.4,250,156.4,250.5,152.8z"/>
	<path class="st5" d="M252.4,358.5c-17.4,0.1-34.9,0.2-52.3,0.1c-4.5,0-6.3-2.7-6.3-8.5c0-46.9,0-93.7,0-140.6c0-16.2,0-32.3,0-48.5
		c0-6.1,2.1-8.4,7.7-8.4c12.6,0,25.3,0,37.9-0.1c2,0,3.4,0.7,4.7,2c-0.5,4.5,3.6,9.6-2.5,13.8c4.4-0.3,4,2.5,4.1,5.1
		c0.2,6.3,0.6,12.5,0.8,18.8c0,2.8,0.4,5.7,0,8.4c-0.6,3.4,2.9,8-2.4,10.1c-0.5,0.2-0.3,2.2,0.9,3c0.9,2.4-2.3,6.3,2.3,7.3
		c0.3,8.4,0.7,16.7,1,25.1C249.7,283.7,251.1,321.1,252.4,358.5z"/>
	<path class="st6" d="M362.3,358.6c-16.2,0-32.5,0-48.7,0c0.7-2.9-2.5-4.5-2.3-6.8c0.5-6.7-1.9-12.8-3.3-19
		c-1.8-7.9-4.1-15.8-3.4-24.1c0.1-1-0.1-2.1-0.1-3.1c-0.2-3.1-0.5-6.2-0.5-9.4c-0.1-15.1,0-30.2-0.1-45.4c0-1.6,0.4-3.3-0.9-4.7
		c0-0.2,0.1-0.5,0.1-0.7c1-0.1,1.5-0.8,1.6-1.8l0.4,0l0.4,0c2.8,3.1,6.1,1.4,9.3,1.3c3.2-0.1,6.5-1.2,9.6,0.4
		c0.3,0.3,0.6,0.6,0.8,0.9l0,0c4.9,8.5,13,9.9,16.6,2.3c2.1-4.5,4.6-4.5,8.1-4.2c0.9,0.1,1.9,0,2.9,0c7.1-0.1,7.7,0.5,8.1,8.2
		c0,1.8,0,3.6,0,5.3c0.3,17.7,0.5,35.4,0.8,53.1c0.2,7.7-1,15.5,0.6,23.2C362.2,342.3,362.2,350.5,362.3,358.6z"/>
	<path class="st5" d="M278.1,358.6c-6.9-0.2-13.8,1-20.6-0.7c0-3.1,0-6.1-0.1-9.2c0-3.7,0.3-7.3-0.7-10.9c0-3.2-0.1-6.4-0.1-9.6
		c0.3-5.8,0-11.6-0.6-17.4c-0.1-6.3,0.1-12.6-0.9-18.8c0-3-0.1-5.9-0.1-8.9c0.3-4,0.1-7.9-0.7-11.8c0-3.3-0.1-6.5-0.1-9.8
		c0.3-4.9,0.2-9.7-0.7-14.6c0-2.7-0.1-5.3-0.1-8c1-3.8-1.2-7.8,0.8-11.5c0.4,3.7,3.3,5.5,5,8.2c2.2,3.6,3.9,7.6,5.8,11.5
		c2.4,6.5,3.3,7.1,8.4,5.6c0.2-0.1,0.4-0.2,0.6-0.3c1.5-0.5,2.2-2,3.1-3.3c1.8-1.9,2.4-4.5,3.6-6.8c0.5-0.9,0.6-2.2,1.8-0.7
		c1.6,2.4,1.4,5.2,1.4,8c-2.5,3.8-4,8.1-4.7,12.8c-1.4,2.8-2,5.8-1.8,9l0,0c-0.2,0.2-0.4,0.5-0.6,0.7c0.2,0.1,0.4,0.2,0.6,0.4
		c0,0.3,0.1,0.5,0.1,0.8c-3.7,1.5-0.2,5-1.7,7.1c-1.2,5.4-2.2,10.7,0.1,16.1c0.2,0.4,0.6,0.8,0.6,1.1c-1.3,6.4-1,13-3.1,19.3
		c-0.8,2.4-1.8,5.1,0,7.6c0.5,1.2,1.3,2.3,1.5,3.5C276.3,338.1,278.6,348.2,278.1,358.6z"/>
	<path class="st7" d="M278.1,358.6c0.6-10.5-1.8-20.5-3.5-30.7c-0.2-1.2-1-2.4-1.5-3.5c1.4-8,2.9-16.1,4.2-24.1
		c0.4-2.3,1.7-2.8,3.5-2.8c4.2,0,8.5,0.2,12.7,0c2.7-0.2,3.7,1.1,3.7,3.8l0.1-0.1c-1.5,0.8-2,2.1-1.5,3.8l0,0.1
		c-3.7,0.8-3.1,4.9-4.4,7.3c-3.2,5.9-4.8,12.2-1.8,19.1c2.7,6,2.2,12.1-0.4,18.1c-1.2,2.8-2.4,5.7-2.2,9
		C284.1,358.6,281.1,358.6,278.1,358.6z"/>
	<path class="st5" d="M302.9,358.5c-4.7,0-9.4,0-14.1,0c0.2-2.8,0.6-5.6,1.6-8.3c2.8-7.1,2.7-14.2,0-21.2c-1.3-3.3-1.2-6.6,0.1-10
		c1.8-4.6,3.6-9.3,5.4-14l0-0.1c0.5-1.3,1-2.5,1.5-3.8l-0.1,0.1c0.3-0.5,0.6-1,0.8-1.5c0.6-1.5,1.1-2.8,3.2-2.4
		c2.6,0.4,1.3,2.4,1.6,3.7c0.2,1.4,0.1,2.9,0.2,4.4c0,1.2,0,2.4,0,3.6c-0.2,14.7-0.3,29.4,0.2,44c0,0.9,0,1.8,0,2.8
		C303,356.8,303,357.7,302.9,358.5z"/>
	<path class="st8" d="M264.7,247.2c-1.9-3.8-3.6-7.8-5.8-11.5c-1.6-2.7-4.6-4.5-5-8.2c-0.2-1.1-0.4-2.1-1.3-2.8c-1,3,0.6,6.2-1,9
		c-0.1-3.1-0.1-6.2-0.2-9.3c0-0.8,0-2-1.1-2c-0.8,0-1,0.9-1,1.7c0.1,3.8-0.6,7.7,0.8,11.4c0,2.7,0.1,5.3,0.1,8
		c-0.2,4.2-0.7,8.4,0.6,12.6c0.1,4.2,0.2,8.4,0.3,12.6c-0.2,3.6-0.7,7.2,0.6,10.7c0.1,3.9,0.2,7.8,0.3,11.8
		c-0.2,3.9-0.7,7.8,0.5,11.7c0,1.5,0.1,3,0.1,4.5c-0.6,13.1,0.7,26.1,1,39.2c0,0.4,0.3,0.8,0.5,1.2c0,1.8,0.1,3.6,0.1,5.4
		c-0.1,1.8-0.1,3.5-0.2,5.3c-0.6,0-1.1,0-1.7,0c-1.3-37.4-2.7-74.8-4-112.3c-0.3-8.4-0.7-16.7-1-25.1c0.5-0.3,0.9-0.7,1.4-0.9
		c1-0.4,2.7,0.3,2.7-1.8c0-2.9-2.5-3.5-3.8-5.2c-1.4-1.8-1.7,0.2-2.5,0.7c-1.2-0.7-1.5-2.7-0.9-3c5.3-2.2,1.9-6.8,2.4-10.1
		c0.4-2.7,0.1-5.6,0-8.4c0.8-4.2-0.9-8.6,1-12.7c0,1.2,0.1,2.5,0.2,3.7c-0.1,0.3-0.1,0.5,0,0.8c0.2,7.3,0.5,14.6,0.7,21.8
		c0,1.7,0.3,3,2.3,2.6c0,0.2,0,0.4,0,0.7c0.3,0.9-2.1,3.1-0.1,2.5c3.8-1,3.2,2,4.1,3.8c-2.2,1.5-2.2,4.2-1.3,5.9
		c1.2,2.6,1.9,5.3,2.7,8c0.6,2.2,2,2.5,3.7,2.4c0.8,5.8,4.8,9.8,6.9,14.9C266.1,246.9,265.4,247.1,264.7,247.2z"/>
	<path class="st9" d="M303.1,356c0-0.9,0-1.8,0-2.8c1-14.4,0.5-28.8,0.2-43.3c0-0.3-0.3-0.5-0.4-0.7c0-1.2,0-2.4,0-3.6
		c0.5,0,0.9,0,1.4,0c0.1,1,0.2,2.1,0.1,3.1c-0.6,8.3,1.7,16.2,3.4,24.1c1.4,6.3,3.9,12.3,3.3,19c-0.2,2.3,3,3.9,2.3,6.8
		c-3.3,0-6.6,0-9.9-0.1C303.5,357.7,303.3,356.8,303.1,356z M307.7,337.4c-0.4-0.3-0.6-0.5-0.9-0.7c-0.2,0.3-0.6,0.6-0.5,0.9
		c0,0.3,0.4,0.5,0.7,0.8C307.2,338.1,307.4,337.8,307.7,337.4z"/>
	<path class="st9" d="M247.7,179.6c-1.9,4.1-0.2,8.5-1,12.7c-0.3-6.3-0.6-12.5-0.8-18.8c-0.1-2.6,0.3-5.4-4.1-5.1
		c6-4.2,2-9.4,2.5-13.8c1-1.7,2.4-2.4,4.2-1.8c-0.1,3.7,0,7.3,0.9,10.9c0,0.8,0,1.6,0,2.3c-0.1,0.7,0.1,1,0.8,1
		c0.2,0.5,3.2-0.2,0.5,1.6c-1.1,0.7,1,1.9,0.2,3c-0.3,0.3-0.6,0.7-0.9,1C246.6,174.1,249.2,177.6,247.7,179.6z"/>
	<path class="st8" d="M295.8,305.1c-1.8,4.7-3.5,9.3-5.4,14c-1.3,3.3-1.4,6.6-0.1,10c2.8,7.1,2.9,14.1,0,21.2
		c-1,2.6-1.4,5.4-1.6,8.3c-0.6,0-1.1,0.1-1.7,0.1c-0.3-3.3,1-6.2,2.2-9c2.6-6.1,3-12.1,0.4-18.1c-3.1-6.9-1.5-13.2,1.8-19.1
		C292.8,310,292.1,305.9,295.8,305.1z"/>
	<path class="st10" d="M254.3,353.2c0-1.8-0.1-3.6-0.1-5.4c1.3-1.5,0.6-3.4,0.7-5.1c0.3-4.2-0.6-8.6,0.6-12.8
		c0.1,3.6,0.1,7.3,0.2,10.9c0.1,2.7-0.7,5.7,1.6,7.9c0,3.1,0,6.1,0.1,9.2c-0.6,0.2-1.1,0.4-1.7,0.5
		C255.3,356.7,256.8,354.3,254.3,353.2z"/>
	<path class="st11" d="M249.3,163.7c-0.9-3.6-1-7.2-0.9-10.9c0.7,0,1.4,0,2.1,0C250,156.4,252.4,160.4,249.3,163.7z"/>
	<path class="st8" d="M362.3,358.6c0-8.1-0.1-16.2-0.1-24.3c0.3,0,0.5,0,0.8,0.1c0.1,7.9,0.2,15.8,0.3,23.7
		C363,358.2,362.6,358.4,362.3,358.6z"/>
	<path class="st11" d="M254.3,353.2c2.5,1.1,1,3.5,1.4,5.2c-0.5,0-1.1,0-1.6,0.1C254.2,356.8,254.3,355,254.3,353.2z"/>
	<path class="st12" d="M303.1,356c0.2,0.9,0.4,1.7,0.5,2.6l-0.4,0l-0.4,0C303,357.7,303,356.8,303.1,356z"/>
	<path class="st13" d="M215.2,479.2c0,1-0.2,2.2-1.2,1.4c-4.4-3.4-3.3,0.5-3.4,2.9c0,0.9,0,1.8,0,3.2c-2.5-1.7-2.7-4.7-4.8-6.6
		c-1.1,2.6-2.2,5.1-3.5,7.9c-1.4-2.2-1-4.4-1.1-6.3c-0.2-2.5-1-4.1-3.5-3.1c-3.8,1.5-1.1-1.3-1.4-2.2c0.2-0.2,0.3-0.4,0.5-0.6
		c-0.1,0-0.3-0.1-0.4,0c-0.4,0.2-0.4,0.4,0,0.6c-0.6-1.1-1.5-0.1-2.5-0.5c1.1-0.9,2.2-1.8,3.3-2.7c-2.1-2.3-5.2-2.2-8-4.8
		c3.1,0.2,5.4,0.4,7.2,0.5c2-5.2-2.1-7.4-4.4-11.3c3.9,1.2,5.8,5,9,6.4c0.9-3.3-0.6-6.1-0.4-9.5c4,2.5,5.4,10.7,12.2,5.9
		c0.3,2.4-1.8,3.7-2,6.1c3.9-1.4,7.8-2.7,11.6-4c0.1,0.2,0.3,0.4,0.4,0.7c-1.4,1.2-2.7,2.8-4.3,3.4c-3.1,1.3-3.2,4.7-4.6,7.1
		c-0.7,1.2,1.4,2.3,2.2,3.4c0.8,1.1,1.2,1.7-0.6,1.7c-0.3-0.3-0.7-0.6-1,0C214.7,478.7,215.1,479,215.2,479.2z M209.2,471.6
		c1.3-3.8-2.2-3.3-3.6-4.8c-1.6-1.8-4.5,0.3-4.6,0.4c-2.6,4.2,1.3,6.8,2.5,10c0.7,1.9,1.4-2.3,2.8-0.7c0,0.8,0.5,1.8,1,1.6
		c1.1-0.4,0.3-1.8,0.7-2.7c0.3-0.3,0.7-0.7,1-1C210.7,473.7,209.1,472.5,209.2,471.6z"/>
	<path class="st4" d="M258.7,465.6c-1.4,1.4-2.7,0.9-3.9,1c-1.4,0.1-2.4,0.3-2.5,2.1c-0.1,1.8,0.8,2.4,2.2,2.3
		c2.7,0,4.6,1.3,5.1,4.1c0.5,2.4-0.3,4.6-2.4,5.7c-2.5,1.4-5.2,1.9-7.7-0.3c-0.1-0.1,0-0.5,0-0.9c1.2-1,2.3,0.4,3.5,0.3
		c2.3-0.1,4.1-0.7,4.3-3.6c0.1-2.8-1.6-3.7-3.8-3.5c-3.4,0.4-3.9-1.3-3.6-4.5C250.4,464.3,252.4,463.6,258.7,465.6z"/>
	<path class="st13" d="M207,419.1c0.3-0.5,0.5-1.1,0.9-1.5c3.4-4,6.5-4.8,9.7-2.4c3.2,2.3,4.3,6.9,2.3,11.2
		c-2.7,6-7.2,10.5-11.9,14.7c-1.1,1-1.9,0.7-2.9-0.2c-4.4-4.1-8.8-8.2-11.4-14c-2.2-4.7-1.4-9,2-11.5c3.4-2.5,6.6-1.7,10,2.6
		C206,418.1,206.4,418.4,207,419.1z"/>
	<path class="st4" d="M266.6,426.5c-0.3,1.7-0.6,3.5-1.1,5.1c-0.7,2.4-2.4,3.5-4.7,3.5c-2.2,0-3.6-1.2-4.4-3.3
		c-1.1-3.2-1-6.5-0.3-9.7c0.5-2.3,1.8-3.9,4.3-4.1c2.6-0.2,4.2,1.2,5.1,3.6C266.1,423.1,266.2,424.7,266.6,426.5z M264.1,426.8
		c0,0-0.1,0-0.1,0c0-0.9,0-1.8,0-2.7c-0.1-2.1-0.7-3.9-2.9-4.2c-2.4-0.3-2.9,1.9-3.3,3.8c-0.5,2.4-0.4,4.7,0.3,7.1
		c0.5,1.6,1.3,2.6,3,2.5c1.6-0.1,2.4-1.3,2.8-2.9C264.1,429.2,264,427.9,264.1,426.8z"/>
	<path class="st4" d="M244.1,422.5c0.7-2.5,1.8-3.1,2.8-3.8c1.7-1.2,2.9-0.8,2.9,1.6c0,4.2,0,8.3,0,12.5c0,0.9-0.1,2-1.1,2
		c-1.1,0-1.1-1.1-1.1-2c0-2.8-0.3-5.7,0-8.5C248,421.2,246.8,421,244.1,422.5z"/>
	<path class="st4" d="M161.4,130.1c-1.8,0-3.5,0-5.2,0c2.5-5.1,1.2-10.4,1.1-15.5c0-0.7-2.1-0.4-0.7-1.7c0.7-0.6,1.7-1.2,2.6-1.2
		c1.1,0,0.9,1.3,0.9,2.1c0,3.9,0,7.8,0,11.7C160.1,127.1,159.6,129,161.4,130.1z"/>
	<path class="st4" d="M169.8,112.1c1.5-1.3,3-0.9,4.5,0.2c4.6,3.5,4,13.9-1,17.2c-0.1-0.1-0.2-0.3-0.4-0.4c1.9-4.3,2.3-8.7,1.2-13.2
		c-0.5-2.1-1.3-4-3.9-3.2C170.1,112.4,170,112.2,169.8,112.1z"/>
	<path class="st4" d="M173.4,129.4c-1.7,1.4-3.3,1-4.7-0.4c-4.2-4-3.5-13.5,1.2-16.9c0.1,0.2,0.3,0.3,0.4,0.5
		c-1.8,4.4-2.3,8.9-1.1,13.5c0.6,2,1.4,3.6,3.8,2.9C173.1,129.1,173.2,129.3,173.4,129.4z"/>
	<path class="st2" d="M242.6,561.8c0,1.2,0,2.4,0,3.6c0,1.6-0.8,2.5-2.2,2.8c-1.8,0.4-3.3-0.4-4.3-2c-1.9-3.2-1.6-6.6-0.6-9.9
		c0.5-1.7,1.7-2.7,3.5-2.6c1.9,0.1,3.1,1.3,3.4,3.2C242.7,558.5,242.7,560.2,242.6,561.8C242.7,561.8,242.7,561.8,242.6,561.8z"/>
	<path class="st2" d="M313.6,618.3c0,0.9,0,1.8,0,2.7c0,1.5,0,3.1-1.7,3.7c-1.5,0.5-2.9,0.2-4.2-1c-2.3-2.4-2.6-9.6-0.5-12.1
		c0.9-1.1,2.1-1.4,3.4-1.1c1.5,0.3,2.5,1.4,2.7,3C313.7,615,313.6,616.7,313.6,618.3C313.7,618.3,313.6,618.3,313.6,618.3z"/>
	<path class="st2" d="M299.4,562.2c0.1-3-0.9-6.8,3.4-7.2c2.8-0.3,4.5,3.1,4.3,7.9c-0.1,1.5-0.2,2.9-1.1,4.2
		c-1.2,1.8-2.8,2.4-4.7,1.8c-1.9-0.6-1.9-2.3-1.9-4C299.4,564,299.4,563.1,299.4,562.2z"/>
	<path class="st2" d="M278.1,561.9c-0.4,2.5,1.2,6.1-3.1,6.4c-3.1,0.2-5.2-2.9-5.1-7.6c0.1-3.2,0.6-6.9,4.3-6.9
		C279.2,553.9,277.7,558.6,278.1,561.9z"/>
	<path class="st2" d="M253.3,677.9c0.3,2.7-0.7,4.3-3,4.5c-1.9,0.2-2.9-1.1-2.6-3c0.3-2.8,2.3-4.3,4.4-4.5
		C254.3,674.5,252.9,677,253.3,677.9z"/>
	<path class="st2" d="M330,620.3c0.3,2.8-0.7,4.3-3.1,4.5c-1.9,0.1-2.8-1.1-2.6-3c0.3-2.7,2.3-4.3,4.4-4.5
		C331.1,617,329.6,619.4,330,620.3z"/>
	<path class="st2" d="M381,619.5c0.2,3.1-0.6,5.1-3.4,5.3c-1.6,0.1-2.7-1.1-2.6-2.8c0.1-3,2.2-4.4,4.6-5
		C381.7,616.6,380.6,618.9,381,619.5z"/>
	<path class="st2" d="M322.4,563.2c0.2,2.8-0.6,4.6-3.2,4.9c-1.8,0.2-3-1.1-2.8-2.9c0.3-2.9,2.4-4.4,4.7-4.8
		C323.1,560.2,322.2,562.3,322.4,563.2z"/>
	<path class="st2" d="M380.3,563.3c0.3,2.8-0.4,4.7-3.1,4.9c-1.7,0.1-2.6-0.9-2.6-2.7c0.1-3.1,2.2-4.5,4.5-4.9
		C381.1,560.2,380,562.5,380.3,563.3z"/>
	<path class="st2" d="M212.8,674.3c0-2.9-0.1-6,3.5-6.3c3.3-0.3,4.2,2.6,4.9,5.4c0.4,2,0.8,4,0.2,6.1c-0.6,2-1.3,3.6-3.4,3.8
		c-2.1,0.2-3.2-1.1-4.1-3C212.9,678.4,212.7,676.4,212.8,674.3z"/>
	<path class="st2" d="M289.5,674.5c0.1-2.8-0.2-6.1,3.3-6.5c3.6-0.4,4.4,2.6,5.1,5.6c0.7,3.1,0.8,6.2-1.3,8.8
		c-1.1,1.4-2.9,1.4-4.1,0.4C289.9,680.8,289.4,677.7,289.5,674.5z"/>
	<path class="st2" d="M259,563.5c0.3,3-0.8,4.6-3.4,4.6c-1.8,0-2.4-1.3-2.3-3c0-3.1,2.3-4.1,4.3-4.6
		C260,560.1,258.6,562.6,259,563.5z"/>
	<path class="st2" d="M296.2,620.3c-0.1,1.8,0,4.8-3.2,5.4c-3.3,0.6-4.4-2.2-5.2-5c-0.2-0.7-0.4-1.4-0.5-2.2
		c-0.5-4.9,0.9-7.9,3.7-8.1c2.8-0.2,4.9,2.6,5.2,7.2C296.2,618.2,296.2,618.8,296.2,620.3z"/>
	<path class="st2" d="M235.1,615c-1.1-0.5-3.2,0.9-3.1-1.6c0.1-2,1.6-3,3.5-2.9c1.6,0,2.8,0.8,2.9,2.5
		C238.5,615.8,236.3,614.6,235.1,615z"/>
	<path class="st2" d="M326.7,668c0.4,0,0.8,0.2,1.2,0.1c1.9-0.3,3.8-0.4,4.9,1.9c0.3,0.7,0.6,1.6,0,2c-1.6,1-3.5,0.6-5.1,0.4
		C324.2,671.9,327.9,669.3,326.7,668C326.7,668,326.7,668,326.7,668z"/>
	<path class="st2" d="M251.6,126.6c2-0.2,2.6,0.9,2.5,2.9c-0.1,1.7-0.4,2.9-2.1,3.3c-1,0.2-2.1,0.3-2.6-0.8c-0.8-1.7-0.4-3.2,1-4.3
		C251,127.5,251.3,127,251.6,126.6C251.7,126.6,251.6,126.6,251.6,126.6z"/>
	<path class="st2" d="M300.8,128.1c0.5-0.4,0.9-0.7,1.4-1.1c1.1-0.2,2.6-1,2.8,1.2c0.2,1.6,0.5,3.4-1.1,4.4
		c-1.1,0.7-2.4,0.9-3.4-0.1C299,130.9,299.9,129.4,300.8,128.1z"/>
	<path class="st2" d="M405.9,385.6c-2.9,0.3-4.4-1-4-4.3c0.1-1.4,0.4-2.8,2-2.7c1.5,0,2,1.3,2.1,2.7
		C406,382.7,405.9,384.2,405.9,385.6C405.9,385.6,405.9,385.6,405.9,385.6z"/>
	<path class="st2" d="M202.2,385.6c-0.9-0.2-2,0.2-2.6-0.8c-1.2-1.7-0.9-3.7-0.4-5.5c0.3-0.9,1.3-1.1,2.1-0.7
		c1.9,0.9,1.8,2.7,1.5,4.5C202.6,384,202.3,384.8,202.2,385.6C202.1,385.6,202.2,385.6,202.2,385.6z"/>
	<path class="st2" d="M333.3,385.6c-0.7-0.1-1.5,0-2-0.4c-1.9-1.3-1.4-3.4-1-5.3c0.2-1.2,1.2-1.7,2.2-1.3c2.1,0.8,1.7,2.8,1.6,4.6
		C334,384,333.6,384.8,333.3,385.6C333.3,385.6,333.3,385.6,333.3,385.6z"/>
	<path class="st2" d="M243.3,382.3c0.2-1.7-0.4-3.9,1.9-3.8c2,0.1,1.5,2.1,1.5,3.5c0,1.5,0.6,3.7-1.8,3.6
		C242.8,385.4,243.6,383.4,243.3,382.3z"/>
	<path class="st2" d="M411.7,377.5c5.6,0.1,3.9,4.7,4.2,8.1C410.2,385.5,411.9,380.9,411.7,377.5z"/>
	<path class="st2" d="M340,377.6c4,1,4.6,2.5,3.2,8C339.1,384.6,338.5,383,340,377.6z"/>
	<path class="st2" d="M208.8,377.6c4,1,4.6,2.5,3.2,8C208,384.6,207.3,383,208.8,377.6z"/>
	<path class="st8" d="M315.4,179.5c0.9,0.9,1.9,1.7,2.8,2.6c2.4,2.4,2.3,4.9-0.7,6.3c-3.5,1.6-2,2.9-0.1,4.4
		c2.6,2.2,6.3,1.9,8.7,4.4c-1.8,0.2-4.4,1.3-5.1,0.4c-3.9-4.6-6.3-0.5-9.2,1.2c0.9,1.2,2.7,0.2,2.8,1.7c0.1,1.4-1.4,1.8-2.4,2
		c-2.2,0.4-0.8,2.1-1.2,3.1c-0.3,0.2-1.1-0.4-0.9,0.6c0.3-0.2,0.6-0.4,0.8-0.6c0.2,0,0.5,0.1,0.7,0.2c0.4,1.1,0.8,2.1,1.7,0.4
		c0.3,0,0.6,0.1,0.8,0.1c0,0.7,0,1.4,0.1,2.1l0,0c-0.3,0.1-0.7,0.3-1,0.4c0.3,0.2,0.7,0.3,1,0.5c-1.1,1.5-4.5,0.9-3.4,4.3
		c-0.1,0.2-0.2,0.3-0.2,0.5c0.2-0.1,0.3-0.2,0.5-0.3c2.8-1,4.9-2.9,6.6-5.5c2.5-3.1,2.4-3.3-2.5-4.5c2-3.9,3.8-3.9,6.4,0.2
		c1.4-0.2-0.7-2.4,1.3-2.5c2.5-0.1,2.8-2.3,3.3-4.4c2.3,0.8,1.8,3.1,2.2,4.9c-0.9,0.8-1.8,1.6-2.7,2.5c-0.9,0.9-1.8,1.7-2.7,2.6
		c-1.3,0.5-2.4,1.5-3.1,2.8c-0.9,0.3-1.5,0.9-1.6,1.9c-1.7,0.6-3.2,1.5-4,3.4c-0.7,0.5-1.3,1-2,1.5c-0.8,0.4-1.5,0.8-2.3,1.2
		c-3.5,0.6-7,1.3-10.6,1.9c-0.3-0.7-0.6-1.5-0.8-2.2c0.9-1,2.5,0.7,3.2-0.9c0.3-0.6,0.2-1.6-0.6-1.8c-1.4-0.5-3-0.8-4.3,0.2
		c-0.8,0.6-1,2-1.5,3c-2.3-0.6-4.6-1.1-6.8-1.7c-0.7-0.1-1.4-0.1-2.2-0.2c-0.8-2-1.4-4.4-4.2-3.5c0.5-3,0.5-5.8-2.7-7.2
		c1.1-4.1,3.8-6.3,7.1-8.3c6.3-3.9,6.2-10.6,0.1-15.1c-1.6-1.2-3.6-2.4-3.5-4.6c0.1-2.3,2.3-3.4,4-3.9c2.6-0.7,3.3-2.6,4-5
		c0.9-3.2,1.8-6.5,4.7-8.4c0,1,0.1,1.9,0.1,2.9c-0.2,0.3-0.4,0.6-0.6,1c-0.9,2-1.8,4-2.7,5.9c-1.9,4-0.4,4.5,2.7,4
		c1.4,0.5,3,0.4,4.1,1.8c-2.1-0.2-4.1-0.3-7.1-0.6c1.8,1.3,2.8,2.3,2.1,3.9c-0.5,0.1-1.4,0.1-1.5,0.4c-1.2,2.8-0.4,5.6,0.8,7.9
		c0.8,1.5,2.3,3.1,4.6,2.6c2.7-0.6,4.4-2.3,5.1-5.1c0.3-1.2,0-2.6,0.8-3.8c0.1-1.9,0.7-4.2-2.5-3c-1.7,0.6-2.4-0.6-2.4-2.4
		c0.6-0.1,1.3-0.1,1.9-0.2c3.7,1.1,7.3,2.9,11.2,3.5C313.5,181.1,314.5,179.7,315.4,179.5z M306.6,199c2.5-1.4,3.9-2,5.2-2.9
		c0.9-0.7,1.3-1.8,0.5-3c-0.5,1.6-2.1-0.9-2.8,1C309.1,195.4,308.1,196.6,306.6,199z M308.8,187.2c1.1-0.4,1.2-1.4,1.3-2.4
		c0.1-0.8,0.3-2.1-0.8-2c-1.2,0.1-2.5,0.7-2.6,2.3C306.7,186.4,308.1,186.4,308.8,187.2z"/>
	<path class="st0" d="M338.2,227.4c1.1,3.9,2.2,7.8,3.3,11.7v0.4c-2.6,1.4-5.4,0.2-8,0.8c-3,0-4.2,2-4.3,5c-1.4,0.3-2.8,0.7-4.2,1
		l0,0c0-0.3,0-0.6,0-0.9l0,0c1.8-0.2,3.4-1.2,3-3.3c-0.4-1.9-2.2,0.1-3.2-0.6c1.6-1.1,0.6-2.6,0.5-3.9c1.7-0.7,1.9,1.8,3.4,2
		c1.2-4.2-0.3-7.7-1.6-12.5c-1,3.1-1.6,5-2.2,7c-0.2-0.3-0.5-0.6-0.7-1c-0.1-0.9-0.7-1.1-1.4-1.1c0.6-2.1-1.7-2.8-1.9-4.5
		c2.5,1.1,1.5-2,2.6-2.5c0.9-0.5,1.6-1.2,1.7-2.3c1.4,0.4,2.4-0.5,3.3-1.5c0.5,0,1.1,0,1.6,0c-0.7,2.1,1.7,3.9,0.5,6.2
		c-0.4,0.6,0.9,1.2,1.4,0.8C333.9,226.7,336.1,228.2,338.2,227.4z M336.7,234.4c-2.5,0.4-2.9-4.1-5-2.2c-1.6,1.5,1,3.3,1,5.4
		C334,236.6,335,235.7,336.7,234.4z"/>
	<path class="st8" d="M341.5,239.5v-0.4c0.6,2.9,2.1,4,4.9,3.5c3.4-0.6,6.8,0.4,10.2,0.1c3.4-0.3,4.7,1.1,5,5.6
		c0.6,8.6,0.3,17.2,0.5,25.8c0,0.9,0,1.8,0,2.8c0,1.7,0,3.5,0,5.2c0,1,0,1.9,0,2.9c0.1,8.6,0.3,17.2,0.4,25.9
		c-0.4,0.1-0.8,0.1-1.1,0.2c-0.3-17.7-0.5-35.4-0.8-53.1c0.9-1.8,0.9-3.6,0-5.3c-0.4-7.7-1-8.3-8.1-8.2c-1,0-1.9,0.1-2.9,0
		c-3.5-0.3-6-0.3-8.1,4.2c-3.6,7.6-11.7,6.2-16.6-2.3c1.4-0.3,2.8-0.7,4.2-1l0,0c0,1-0.1,2.1,0.8,2.7l0,0c0,0.8,0.2,1.4,0.9,1.8
		c2,0.1,4,0.2,4-2.9c0.1-0.5-0.2-1.2,0.6-1.3c0.1,0,0.3,0.4,0.3,0.7c0.2,1.5-0.4,3.7,2,3.5c2.2-0.2,3.5-1.9,3.8-4
		C341.8,243.6,341.5,241.5,341.5,239.5z"/>
	<path class="st0" d="M264.7,247.2c0.7-0.1,1.4-0.3,2.1-0.4c0.5,0.7,0.9,1.4,1.4,2c0.2,0.3,0.5,0.6,0.7,1c3.3,0.8,5.2-0.8,5.7-4.6
		c1-7.8-4.2-16.6-11.4-19.5c-0.6-0.4-0.7-1-0.5-1.7c0.2-0.7,0.3-1.3,0.5-2l0.4,0l0.4,0c1.5,1.8,2.7,4.2,5.5,3.5
		c2.5,1.1,4.9,2.4,5.9,5.6c0.2,0.7,1.1,1.1,1.7,1.7c-0.5,0.1-1.1,0.2-1.6,0.3c1,2.8-1.1,6.7,2.4,8.7l0,0c0,1-0.1,2-1,2.6
		c-2.1,1.5-1.9,3.2-0.1,4.8c-0.9,1.3-1.5,2.8-3.1,3.3c-0.3,0-0.5,0.1-0.6,0.3C268,254.3,267.1,253.7,264.7,247.2z"/>
	<path class="st14" d="M325.8,204.6c0.9-0.8,1.8-1.6,2.7-2.5c6,3.4,6.7,10.6,9.6,16.1c0.8,1.6-0.7,3.1-0.7,4.7
		c-0.8-3.3-2.7-4.4-5.7-3.5c0-2.6-0.8-4.8-3.3-5.6l0,0c0.1-1.6,0.4-3.2-0.8-4.5C327,207.8,326.4,206.2,325.8,204.6z"/>
	<path class="st8" d="M277.2,232.7c-0.6-0.6-1.5-1-1.7-1.7c-1-3.2-3.4-4.5-5.9-5.6c1.3-3.1,3-6,2.9-9.6c2,0.9,2.8,5.2,6.6,1.6
		c-1,2.8-0.8,4.5-0.2,6.2c0.2,2.5,2.2,5.3-0.9,7.3c-0.1-0.1-0.2-0.1-0.3-0.2c0.1,0.1,0.2,0.1,0.3,0.2
		C278.5,231.9,278.6,232.7,277.2,232.7L277.2,232.7z"/>
	<path class="st12" d="M315.4,179.5c-1,0.3-1.9,1.7-2.8-0.1c-0.3-0.5-0.6-0.9-0.8-1.4c1.6-2.4,1.6-5.4,0.3-7.5
		c-1.2-1.9-3.1,0.5-4.8,0.7c-2.2,0.4-4.8,0.2-5.8-1.8c-1.5-3-3.1-2-5.1-1.3c-0.3-1.2,0.2-2.7-0.9-3.7c0.2-0.3,0.4-0.6,0.6-1
		c2.3-0.1,4.5,0.1,6.6,1c1.7,1.4,1.2,5.4,4.8,4.5c2.5-0.6,2.6-2.6,3.2-4.5c1.8,0,1.9,2.8,3.7,2.6
		C314.1,171.3,315.1,175.3,315.4,179.5z"/>
	<path class="st11" d="M314.3,167.1c-1.8,0.1-1.9-2.7-3.7-2.6c-3-5.7-4.5-5.7-8,0c-2.1-0.9-4.4-1.1-6.6-1c0-1-0.1-1.9-0.1-2.9
		l0.1,0.2c1,0,1.6-0.5,1.8-1.6c2.3-1.8,5.1-2.1,7.7-2.7C309.1,155.5,313.9,161.5,314.3,167.1z"/>
	<path class="st11" d="M278.9,223.6c-0.6-1.7-0.8-3.4,0.2-6.2c-3.8,3.7-4.6-0.6-6.6-1.6c1.7-3.9,4.8-6.6,6.9-10.1
		c3.3,1.3,3.2,4.2,2.7,7.2l0,0c-2.6,1.8-1.2,4.9-2.1,7.2c-0.7,1.1,0.1,1.9,0.4,2.8C280,223.1,279.4,223.4,278.9,223.6z"/>
	<path class="st1" d="M263.2,222c-0.2,0.7-0.3,1.3-0.5,2c-0.3-1.2-0.3-3-1.9-3c-1.7,0-2,2-2.2,3.2c-0.7,3.2,1.3,4,3.7,4.1
		c-0.3,0.6-0.7,1.3-1,1.9c-1,0.1-1.3,0.8-1.4,1.7l0,0c-1.7,0.1-3.1-0.2-3.7-2.4c-0.8-2.7-1.5-5.4-2.7-8c-0.8-1.7-0.8-4.4,1.3-5.9
		c1.4,0.7,1.5,2.1,1.8,3.7c0.7,3.3,1.5,0.3,2.2-0.1c1.3,0,2.6,0.1,3.9,0.1c0.1,0.2,0.3,0.5,0.4,0.7
		C263.2,220.6,263.2,221.3,263.2,222z"/>
	<path class="st8" d="M331.7,219.5c3-0.9,4.9,0.2,5.7,3.5c0.3,1.5,0.6,2.9,0.9,4.4c-2,0.8-4.3-0.7-6.3,0.6c-0.6,0.4-1.8-0.2-1.4-0.8
		c1.3-2.3-1.1-4.1-0.5-6.2c0-0.2,0.1-0.4,0.1-0.7C330.6,220,331.1,219.7,331.7,219.5z"/>
	<path class="st12" d="M258.9,219.1c-0.7,0.4-1.5,3.4-2.2,0.1c-0.3-1.5-0.4-2.9-1.8-3.7c-0.9-1.8-0.3-4.8-4.1-3.8
		c-2.1,0.5,0.4-1.6,0.1-2.5c1.1-0.5,2.2-1.1,3.3-1.6c0.5-0.1,0.8,0.1,0.9,0.6c0.3,0.4,0.6,0.7,0.9,1.1l0-0.1c0,1.4,0.3,2.5,1.7,2.8
		l-0.1-0.1C256.8,214.6,258.6,216.7,258.9,219.1z"/>
	<path class="st12" d="M361.6,311c0.4-0.1,0.8-0.1,1.1-0.2c0.7,7.8,0.5,15.7,0.3,23.5c-0.3-0.1-0.5-0.1-0.8-0.1
		C360.6,326.5,361.7,318.8,361.6,311z"/>
	<path class="st0" d="M254.1,207.6c-1.1,0.5-2.2,1.1-3.3,1.6c0-0.2,0-0.4,0-0.7c-0.2-5.4-0.3-10.9-0.5-16.3c0.4-0.3,0.8-0.6,1.2-0.9
		c0.1,4.2,0.3,8.4,0.3,12.5C251.9,205.8,252.3,207.2,254.1,207.6z"/>
	<path class="st8" d="M258.9,219.1c-0.2-2.4-2-4.5-1.4-7.1c1.8,2.4,3.6,4.8,5.4,7.2C261.5,219.2,260.2,219.1,258.9,219.1z"/>
	<path class="st0" d="M249.8,172.7c0.3-0.3,0.6-0.7,0.9-1c0,2.7,0.1,5.3,0.1,8c-0.8,3.3,0.6,6.7-0.6,9.9c-0.1-2.4-0.2-4.8-0.3-7.2
		c0-0.3,0-0.6,0.1-1C249.9,178.5,249.8,175.6,249.8,172.7z"/>
	<path class="st9" d="M250.2,189.6c1.2-3.2-0.2-6.7,0.6-9.9c0.3,3.9,1.1,7.8,0.7,11.8c-0.4,0.3-0.8,0.6-1.2,0.9
		C250.3,191.4,250.2,190.5,250.2,189.6z"/>
	<path class="st8" d="M257.6,212c-1.4-0.3-1.8-1.4-1.7-2.8C257,209.7,257.2,210.9,257.6,212z"/>
	<path class="st8" d="M297.8,159.1c-0.2,1.1-0.8,1.6-1.8,1.6C295.9,159.2,296.8,159,297.8,159.1z"/>
	<path class="st12" d="M362.2,276.9c0-0.9,0-1.8,0-2.8C362.2,275,362.2,275.9,362.2,276.9z"/>
	<path class="st12" d="M362.3,285c0-1,0-1.9,0-2.9C362.6,283.1,362.6,284,362.3,285z"/>
	<path class="st8" d="M263.2,222c0-0.7,0-1.4,0-2.1c0.8,0.4,0.9,1.2,0.8,2.1l-0.4,0L263.2,222z"/>
	<path class="st8" d="M255.8,209.3c-0.3-0.4-0.6-0.7-0.9-1.1C255.5,208.4,255.9,208.7,255.8,209.3z"/>
	<path class="st11" d="M250,167c-0.6,0-0.9-0.4-0.8-1C249.5,166.4,249.8,166.7,250,167z"/>
	<path class="st1" d="M245.1,213.9c0.8-0.4,1.1-2.4,2.5-0.7c1.4,1.7,3.9,2.3,3.8,5.2c0,2.1-1.7,1.4-2.7,1.8
		c-0.5,0.2-0.9,0.6-1.4,0.9C242.8,220.1,246,216.2,245.1,213.9z"/>
	<path class="st8" d="M304.3,305.5c-0.5,0-0.9,0-1.4,0c0-1.5,0-3-0.2-4.4c-0.2-1.3,1-3.3-1.6-3.7c-2-0.3-2.5,0.9-3.2,2.4
		c-0.2,0.5-0.5,1-0.8,1.5c0-2.7-1-4-3.7-3.8c-4.2,0.2-8.5,0.1-12.7,0c-1.8,0-3.1,0.4-3.5,2.8c-1.3,8.1-2.8,16.1-4.2,24.1
		c-1.8-2.5-0.8-5.2,0-7.6c2-6.3,1.8-12.9,3.1-19.3c0.1-0.3-0.4-0.7-0.6-1.1c0.3-0.3,0.6-0.5,0.9-0.8c1.6-0.1,3.2,0.7,4.8,0
		c1.1,0.4,2.1,1.1,3.3,0.8c0.5,0,1,0,1.5,0c0.9,0.1,1.9,0.7,2.6-0.6c2.8,1.5,3.2,0,2.8-2.6c1.3-0.2,1.5,1.9,2.9,1.6
		c0.5,0.6-1.7,1.3,0,1.6c1.4,0.2,2.9-0.3,4.3-0.5c0.5-0.1,1-0.3,1.5-0.4c3.2-2.5,2.3-5.2,0.5-8.1c0-4.1,0.1-8.3,0.1-12.4
		c0.2-1.2,0.4-2.4,0.7-3.7c1.6-0.6,1.5-1.2,0-1.9c-0.1-4.2-0.1-8.3-0.2-12.5c1.3-2,0.4-4.2,0.8-6.3c1.2-1.3,0.6-3,0.8-4.5
		c1.3,1.3,0.9,3.1,0.9,4.7c0,15.1,0,30.2,0.1,45.4C303.8,299.3,304.1,302.4,304.3,305.5z"/>
	<path class="st12" d="M305.3,243.7l-0.4,0c0,0-0.4,0-0.4,0c-0.9-0.3-1.8,0.8-2.7,0c0.1-0.4,0.1-0.7,0.2-1.1
		c1.1-1.2,2.2-2.4,3.2-3.6c0.7,0.1,1.3,0,1.8-0.7c2,0.1,2,4.5,3.8,3c1.8-1.6,3.5-0.7,5.2-1.2c0,1.2,0,2.3-0.1,3.5
		C312.4,243.5,308.9,243.6,305.3,243.7z"/>
	<path class="st8" d="M301.8,243.6c0.9,0.8,1.8-0.3,2.7,0c-0.1,1-0.6,1.7-1.6,1.8c-3.3-0.6-4.1,1.1-3.5,4.3
		c-0.8,0.6-1.1,2.1-2.5,1.8c-1.3-0.4-0.6-1.7-0.9-2.5c1.4-2,0.1-4.7,1.6-6.7C298.6,244.5,300.3,243.6,301.8,243.6z"/>
	<path class="st0" d="M305.3,243.7c3.5-0.1,7.1-0.2,10.6-0.3c1.7,0,3.5,0,5.2,0c1-0.1,1.9-0.1,2.9-0.2c0.4,0.7,0.7,1.4,1.1,2.1l0,0
		c-0.3,0-0.6,0-0.9,0c-3.2-1.6-6.4-0.6-9.6-0.4C311.5,245.1,308.1,246.8,305.3,243.7z"/>
	<path class="st9" d="M299.5,249.7c-0.6-3.1,0.2-4.9,3.5-4.3c0,0.2-0.1,0.5-0.1,0.7c-0.2,1.5,0.4,3.2-0.8,4.5
		C300.4,252.7,300,251.1,299.5,249.7z"/>
	<path class="st9" d="M360.7,252.5c1,1.8,0.9,3.6,0,5.3C360.8,256.1,360.8,254.3,360.7,252.5z"/>
	<path class="st8" d="M324.2,245.4c0.3,0,0.6,0,0.9,0c0,0.3,0,0.6,0,0.9C324.8,245.9,324.5,245.7,324.2,245.4z"/>
	<path class="st12" d="M297.7,242.3c-1.4,2-0.1,4.7-1.6,6.7c-0.2,0-0.5,0-0.8,0c0-1.9-0.4-3.6-1.8-5.4c-1,2.1-0.6,3.8-0.8,5.5
		c-0.8,0.3-1.6,0.5-2.4,0.8c1.1-1.7,1.3-3.2,0.2-5.3c-0.5-0.9-0.6-2.4-1.6-2.3c-1.7,0.2-0.9,1.7-0.8,2.8c0.2,1.3,0.3,2.6,0.5,3.9
		c-1.3,1.5-2,3.3-2.5,5.3c-1.9,2-2,5-3.4,7.3c-1.4,0-2.7,0.1-3.9,0.9c0.8-4.6,2.2-8.9,4.7-12.8c0.5,0.8,0.9,2.2,2,1
		c1.2-1.4,2-3.5,1.1-5.2c-0.9-1.7-1.4-3.4-1.5-5.3l0.2-0.3c1-0.9,0.5-2.2,0.8-3.4c0.5-2.1,1,0.1,1.5,0c0.2,1,0.8,1.5,1.7,1.8
		c0.1,4.4,3.2,1.5,4.9,2.2c1.1,0.4,0.8-1.4,0.9-2.3c0-1.1-0.1-2.2-0.1-3.3c0.4,0,0.8,0,1.2,0c0.4,1.5-0.2,3.4,1.5,4.3
		c0,0.8,0,1.5,0,2.3C297.8,241.6,297.8,241.9,297.7,242.3z"/>
	<path class="st11" d="M255.5,329.9c-1.3,4.2-0.3,8.5-0.6,12.8c-0.1,1.7,0.6,3.6-0.7,5.1c-0.2-0.4-0.5-0.8-0.5-1.2
		c-0.3-13.1-1.6-26.1-1-39.2c2.1,0.7,1.4,2.7,1.4,4.1c0.1,4.8,0,9.6,0,14.4c0.2,0,0.4,0,0.5,0.1c0.1-0.8,0.3-1.6,0.4-2.4
		c1.8-4.1,0-8.6,0.9-12.8c0.6,5.8,1,11.6,0.6,17.4C256.2,328.8,255.9,329.3,255.5,329.9z"/>
	<path class="st8" d="M278,241.7c-3.5-2-1.4-5.9-2.4-8.7c0.5-0.1,1.1-0.2,1.6-0.3l0,0c0.8,2.2,2.3,0.8,3.6,0.9
		c0.9,2,0.2,4.7,2.2,6.3c-0.2,0.6-0.5,1.2-0.7,1.7c-1.2-1.6-1.4-0.2-1.8,0.7c-1.2,2.3-1.7,4.9-3.6,6.8c-1.8-1.6-2-3.3,0.1-4.8
		C277.9,243.7,278,242.7,278,241.7c0.1-0.1,0.1-0.2,0.2-0.3C278.1,241.5,278.1,241.6,278,241.7z"/>
	<path class="st11" d="M279,262.4c1.2-0.8,2.5-0.9,3.9-0.9l0.4,0h0.4c0.3,4.3-2.3,7.8-3,11.9c-0.3-0.1-0.6-0.1-1-0.2
		c0.3-2.4-1.2-2.1-2.5-1.9C276.9,268.2,277.6,265.2,279,262.4z"/>
	<path class="st9" d="M255.9,310.8c-0.9,4.2,0.9,8.6-0.9,12.8c-0.3-9-0.6-17.9-0.8-26.9c1-1.4,0.1-3.2,0.8-4.6
		C256,298.2,255.8,304.5,255.9,310.8z"/>
	<path class="st9" d="M282.3,241.7c0.2-0.6,0.5-1.2,0.7-1.7c0.8,0,1.6,0.1,2.4,0.1c0,1.9,0.6,3.6,1.5,5.3c0.9,1.8,0.2,3.8-1.1,5.2
		c-1.1,1.2-1.5-0.2-2-1C283.7,246.9,283.9,244.1,282.3,241.7z"/>
	<path class="st11" d="M275.5,280.3c1.5-2.1-2-5.6,1.7-7.1l0.4,0l0.4,0.1c0,0.5,0,1.1,0,1.6c0,0.7,0,1.3,0,2l0-0.1
		c-1.6,4.4-2.5,8.8-0.9,13.4c0,0.6,0.1,1.3,0.1,1.9c-0.3,0-0.6,0-0.9,0C274.7,288.3,276,284.2,275.5,280.3z"/>
	<path class="st9" d="M275.5,280.3c0.4,3.9-0.9,8,0.8,11.8c1.2,1.1-0.1,2.4,0.2,3.5c-0.3,0.3-0.6,0.5-0.9,0.8
		C273.4,291,274.4,285.7,275.5,280.3z"/>
	<path class="st0" d="M254,261.6c0,3.3,0.1,6.5,0.1,9.8c-0.7,2.1,0.5,4.4-0.7,6.4c0.5-5.4-1.5-10.7-0.6-16.2
		C253.2,261.6,253.6,261.6,254,261.6z"/>
	<path class="st12" d="M251.7,233.7c1.6-2.8,0-6,1-9c0.9,0.7,1.1,1.8,1.3,2.8c-2,3.7,0.2,7.8-0.8,11.5c-0.3,0.3-0.6,0.6-0.9,0.9
		c-1-1.3-0.5-3-0.9-4.4C251.5,234.9,251.6,234.3,251.7,233.7z"/>
	<path class="st12" d="M254,261.6c-0.4,0-0.8,0-1.2,0c-0.7-2.4-0.4-4.8-0.3-7.2c1.5-2.3,0.1-5,0.8-7.4
		C254.2,251.8,254.3,256.7,254,261.6z"/>
	<path class="st9" d="M253.4,277.8c1.2-2,0-4.4,0.7-6.4c0.8,3.9,1,7.8,0.7,11.8c-0.3,0.3-0.6,0.5-0.8,0.8
		C252.8,282,253.3,279.9,253.4,277.8z"/>
	<path class="st11" d="M257.4,348.7c-2.3-2.2-1.5-5.2-1.6-7.9c0.3-1,0.6-2,0.9-3C257.6,341.4,257.4,345.1,257.4,348.7z"/>
	<path class="st4" d="M254,283.9c0.3-0.3,0.6-0.5,0.8-0.8c0,3,0.1,5.9,0.1,8.9c-0.6,1.5,0.2,3.2-0.8,4.6
		C254.8,292.4,252.9,288.2,254,283.9z"/>
	<path class="st8" d="M253.4,247c-0.8,2.4,0.6,5.1-0.8,7.4c-0.1-4.8-0.1-9.6-0.2-14.4c0.3-0.3,0.6-0.6,0.9-0.9
		C253.3,241.7,253.3,244.4,253.4,247z"/>
	<path class="st1" d="M256.7,337.8c-0.3,1-0.6,2-0.9,3c-0.1-3.6-0.1-7.3-0.2-10.9c0.3-0.6,0.6-1.2,1-1.7
		C256.6,331.4,256.6,334.6,256.7,337.8z"/>
	<path class="st12" d="M278.1,273.3l-0.4-0.1l-0.4,0c0-0.3-0.1-0.5-0.1-0.8c0-0.4,0-0.7,0-1l0,0c1.4-0.2,2.8-0.6,2.5,1.9
		C279.2,273.2,278.6,273.2,278.1,273.3z"/>
	<path class="st11" d="M277.2,271.4c0,0.4,0,0.7,0,1c-0.2-0.1-0.4-0.2-0.6-0.4C276.8,271.8,277,271.6,277.2,271.4z"/>
	<path class="st8" d="M273.2,252.8c0.2-0.2,0.4-0.3,0.6-0.3C273.6,252.6,273.4,252.7,273.2,252.8z"/>
	<path class="st8" d="M297.3,301.2c-0.5,1.3-1,2.5-1.5,3.8C295.2,303.3,295.8,302,297.3,301.2z"/>
	<path class="st12" d="M302.9,309.2c0.1,0.3,0.4,0.5,0.4,0.7c0.3,14.4,0.8,28.9-0.2,43.3C302.5,338.5,302.7,323.9,302.9,309.2z"/>
	<path class="st6" d="M261.3,230.1c0.3-0.6,0.7-1.3,1-1.9c0.3-0.9,0.5-1.7,0.8-2.6c7.3,2.9,12.4,11.7,11.4,19.5
		c-0.5,3.9-2.4,5.4-5.7,4.6c-0.2-0.3-0.5-0.6-0.7-1c-0.5-0.7-0.9-1.4-1.4-2c-2.1-5.1-6-9.2-6.9-14.9l0,0
		C260.6,231.5,261.1,231,261.3,230.1z"/>
	<path class="st10" d="M252.3,240c0.1,4.8,0.1,9.6,0.2,14.4c-0.2,2.4-0.4,4.8,0.3,7.2c-0.9,5.4,1.1,10.8,0.6,16.2
		c-0.1,2.1-0.6,4.2,0.6,6.1c-1.1,4.3,0.8,8.5,0.2,12.7c0.3,9,0.6,17.9,0.8,26.9c-0.1,0.8-0.3,1.6-0.4,2.4c-0.2,0-0.4,0-0.5-0.1
		c0-4.8,0-9.6,0-14.4c0-1.5,0.7-3.4-1.4-4.1c0-1.5-0.1-3-0.1-4.5c0.8-3.9,1.9-7.9-0.5-11.7c-0.1-3.9-0.2-7.8-0.3-11.8
		c0.9-3.6,1.9-7.3-0.6-10.7c-0.1-4.2-0.2-8.4-0.3-12.6c0.9-4.2,2-8.5-0.6-12.6c0-2.7-0.1-5.3-0.1-8c0.4,0,0.8,0,1.2,0
		C251.8,237,251.3,238.7,252.3,240z"/>
	<path class="st11" d="M250.2,189.6c0,0.9,0.1,1.8,0.1,2.7c0.2,5.4,0.3,10.9,0.5,16.3c-2,0.4-2.3-0.9-2.3-2.6
		c-0.2-7.3-0.5-14.6-0.7-21.8c0.1-0.1,0.2-0.2,0.2-0.2c0-0.2-0.1-0.4-0.2-0.6c0-1.2-0.1-2.5-0.2-3.7c1.6-2-1-5.5,2.1-6.9
		c0,2.9,0.1,5.8,0.1,8.8c-0.3,0.1-0.6,0.3-0.9,0.4c0.3,0.2,0.6,0.3,0.9,0.5C249.9,184.8,250.1,187.2,250.2,189.6z"/>
	<path class="st11" d="M251.4,235.5c-0.4,0-0.8,0-1.2,0c-1.4-3.7-0.6-7.6-0.8-11.4c0-0.8,0.2-1.7,1-1.7c1.1,0,1.1,1.1,1.1,2
		c0.1,3.1,0.1,6.2,0.2,9.3C251.6,234.3,251.5,234.9,251.4,235.5z"/>
	<path class="st11" d="M250.3,243.5c2.6,4.1,1.4,8.3,0.6,12.6C249.6,251.9,250.1,247.7,250.3,243.5z"/>
	<path class="st11" d="M252,291.2c2.4,3.8,1.4,7.7,0.5,11.7C251.3,299,251.7,295.1,252,291.2z"/>
	<path class="st11" d="M251.1,268.7c2.5,3.4,1.5,7.1,0.6,10.7C250.4,275.9,250.9,272.3,251.1,268.7z"/>
	<path class="st12" d="M247.8,183.3c0.1,0.2,0.1,0.4,0.2,0.6c0,0.1-0.1,0.2-0.2,0.2C247.7,183.8,247.7,183.6,247.8,183.3z"/>
	<path class="st6" d="M307.7,337.4c-0.3,0.4-0.6,0.7-0.8,1c-0.2-0.3-0.7-0.5-0.7-0.8c0-0.3,0.3-0.6,0.5-0.9
		C307.1,336.9,307.4,337.1,307.7,337.4z"/>
	<path class="st5" d="M209,474.5c-0.3,0.3-0.7,0.7-1,1c-1.3-1-1.1,0.8-1.7,1.1c-1.4-1.6-2.1,2.7-2.8,0.7c-1.2-3.2-5-5.9-2.5-10
		c0.1-0.2,3-2.3,4.6-0.4c1.3,1.5,4.9,1,3.6,4.8C208,472.4,208.7,473.5,209,474.5z"/>
	<path class="st14" d="M206.3,476.5c0.6-0.3,0.4-2,1.7-1.1c-0.4,0.9,0.4,2.3-0.7,2.7C206.8,478.4,206.4,477.3,206.3,476.5z"/>
	<path class="st14" d="M209,474.5c-0.3-1-0.9-2.1,0.3-2.9C209.1,472.5,210.7,473.7,209,474.5z"/>
	<path class="st2" d="M215.2,479.2c-0.2-0.2-0.5-0.5-0.5-0.6c0.3-0.6,0.7-0.3,1,0C215.6,478.9,215.4,479.1,215.2,479.2z"/>
	<path class="st2" d="M196.4,476.5c-0.3-0.3-0.3-0.5,0-0.6c0.1,0,0.3,0,0.4,0C196.7,476.1,196.5,476.3,196.4,476.5
		C196.4,476.4,196.4,476.5,196.4,476.5z"/>
	<path class="st2" d="M264.1,426.8c-0.1,1.2-0.1,2.4-0.3,3.6c-0.3,1.5-1.2,2.7-2.8,2.9c-1.6,0.2-2.5-0.9-3-2.5
		c-0.7-2.3-0.9-4.7-0.3-7.1c0.4-1.9,0.9-4,3.3-3.8c2.2,0.2,2.8,2.1,2.9,4.2c0.1,0.9,0,1.8,0,2.7C264,426.8,264.1,426.8,264.1,426.8z
		"/>
	<path class="st2" d="M173,129c-2.4,0.7-3.2-0.9-3.8-2.9c-1.3-4.7-0.7-9.1,1.1-13.5c2.6-0.8,3.3,1,3.9,3.2
		C175.3,120.3,174.9,124.7,173,129z"/>
	<path class="st15" d="M304.3,181.5c-0.8,1.1-0.5,2.5-0.8,3.8c-0.7,2.8-2.4,4.4-5.1,5.1c-2.3,0.5-3.8-1.1-4.6-2.6
		c-1.2-2.3-2-5.2-0.8-7.9c0.1-0.3,1-0.3,1.5-0.4C297.8,180.2,301.1,180.8,304.3,181.5z"/>
	<path class="st9" d="M296.3,168.1c1.9-0.7,3.6-1.7,5.1,1.3c1,2.1,3.6,2.2,5.8,1.8c1.6-0.3,3.6-2.7,4.8-0.7c1.3,2.1,1.3,5-0.3,7.5
		c-1.1-1.9-2.7-3.4-4.6-4c-2.2-0.7-4.8-2.2-5.8,1.9c-0.6,0.1-1.3,0.1-1.9,0.2l0,0c-1.1-1.4-2.7-1.3-4.1-1.8
		C295.4,172.2,295.5,170.1,296.3,168.1z"/>
	<path class="st11" d="M320.9,227.3c0.2,1.7,2.5,2.4,1.9,4.5c-1.8,0.5-1.7,2.1-1.9,3.6c-2.5-1-3.1,2.2-4.9,2.8
		c-0.1-0.7-0.2-1.3-0.2-2c0.7-5.2-0.7-10.3-0.8-15.5c0-1.4-0.4-3.1-2.2-3.1c-0.2-0.2-0.3-0.4-0.5-0.6c0.7-0.5,1.3-1,2-1.5
		c0.5,0.7,1.1,1.3,1.6,2c0.6,2.4,1.5,4.7,3.4,6.3l0-0.1c0,0.8,0.2,1.4,0.9,1.9l0-0.1C320.3,226.1,320.6,226.8,320.9,227.3
		L320.9,227.3z"/>
	<path class="st12" d="M326.2,197.3c-0.5,2-0.8,4.3-3.3,4.4c-2,0.1,0.1,2.3-1.3,2.5c-2.6-4.1-4.4-4.2-6.4-0.2
		c-0.9,0.5-1,1.5-0.9,2.4c-0.3,0-0.6-0.1-0.8-0.1c-0.6-0.1-1.1-0.2-1.7-0.4c-0.2-0.1-0.5-0.2-0.7-0.2l0,0c0.3-1.1-1-2.8,1.2-3.1
		c1-0.2,2.5-0.6,2.4-2c-0.1-1.5-2-0.6-2.8-1.7c2.9-1.8,5.3-5.9,9.2-1.2c0.7,0.9,3.4-0.2,5.1-0.4
		C326.1,197.2,326.2,197.3,326.2,197.3z"/>
	<path class="st12" d="M299.4,220c3.5-0.6,7-1.3,10.6-1.9c0.1,0.3,0.1,0.5,0.2,0.8c-1.2,0.9-2.3,2.1-3.6,2.6c-1.9,0.7-3.1,1.6-3,3.9
		c-0.2,0-0.4,0-0.6,0c-0.8-0.9,0.1-3-1.6-3.1c-1.1-0.1-1.9,1-2.2,2.2c-0.7,0.3-1.4,0.7-2.2,1c-0.8-0.3-1.5-0.6-2.2-0.9
		c-0.1-0.9-0.1-1.8-0.2-2.7c0-0.6,0.1-1.3,0.1-1.9C296.2,221.5,297.8,219.9,299.4,220z"/>
	<path class="st12" d="M325.1,222.5c-0.1,1.2-0.8,1.8-1.7,2.3c-1.5-3-2.3-6.4-5.1-8.4c0-0.9,0-1.7,0.1-2.6c0.9-0.7,0.7-1.3-0.1-1.8
		c0.2-1,0.7-1.7,1.6-1.9c0.3,0.4,0.6,0.7,1,1.1c0.1,0.5,0.1,1,0.2,1.5C323.1,215.6,324.6,218.8,325.1,222.5z"/>
	<path class="st15" d="M301.4,175.9c0.9-4.1,3.6-2.6,5.8-1.9c2,0.6,3.5,2.1,4.6,4c0.3,0.5,0.6,0.9,0.8,1.4
		C308.7,178.8,305.1,177,301.4,175.9z"/>
	<path class="st12" d="M304.3,181.5c-3.3-0.7-6.6-1.4-9.8-2.1c0.7-1.7-0.3-2.7-2.1-3.9c3,0.2,5,0.4,7.1,0.6l0,0
		c0,1.8,0.7,3.1,2.4,2.4C305.1,177.4,304.4,179.7,304.3,181.5z"/>
	<path class="st11" d="M296.3,168.1c-0.9,2-1,4.1-1,6.2c-3.2,0.5-4.6,0-2.7-4c0.9-1.9,1.8-3.9,2.7-5.9
		C296.6,165.4,296,166.9,296.3,168.1z"/>
	<path class="st15" d="M321.1,212.7c-0.1-0.5-0.1-1-0.2-1.5c2.9,0.2,2.7-1.8,2.2-3.9c0.9-0.9,1.8-1.7,2.7-2.6
		c0.6,1.6,1.2,3.1,1.8,4.7c-1,0.1-1.6,0.6-1.7,1.7c0,0.7,0,1.3-0.1,2C324.3,212.2,322.7,212.4,321.1,212.7z"/>
	<path class="st9" d="M314.3,206.4c0-1,0-1.9,0.9-2.4c4.9,1.2,5,1.5,2.5,4.5c-1.1,0-2.3,0-3.4,0
		C314.3,207.8,314.3,207.1,314.3,206.4z"/>
	<path class="st0" d="M299.4,220c-1.6-0.1-3.2,1.5-4.8,0c-1.7-0.6-3.3-1.3-5-2c-0.4-0.5-0.7-1-1.1-1.5c2.3,0.6,4.6,1.1,6.8,1.7
		c1.1,0.4,1.9-2.2,3.2-0.5C298.9,218.6,299.1,219.3,299.4,220z"/>
	<path class="st12" d="M282.1,212.9c2.8-0.8,3.4,1.5,4.2,3.5c-0.2,0.2-0.4,0.4-0.6,0.6c-0.4-0.2-0.8-0.4-1.2-0.5
		c-3.4,0-0.7,3.2-2,4.4c-0.4-0.5-0.8-1-1.2-1.5C281,217.1,282.9,215.2,282.1,212.9L282.1,212.9z"/>
	<path class="st9" d="M298.6,217.8c-1.3-1.7-2.1,0.9-3.2,0.5c0.5-1,0.7-2.4,1.5-3c1.2-1,2.8-0.7,4.3-0.2c0.8,0.3,0.9,1.2,0.6,1.8
		C301.1,218.5,299.5,216.9,298.6,217.8z"/>
	<path class="st12" d="M314.3,208.5c1.1,0,2.3,0,3.4,0c-1.7,2.6-3.8,4.5-6.6,5.5l-0.2-0.2c-1-3.5,2.4-2.8,3.4-4.3
		C314.3,209.1,314.3,208.8,314.3,208.5L314.3,208.5z"/>
	<path class="st12" d="M306.6,199c1.4-2.4,2.4-3.6,2.9-5c0.6-1.8,2.3,0.6,2.8-1c0.8,1.2,0.4,2.3-0.5,3
		C310.5,197,309.1,197.6,306.6,199z"/>
	<path class="st12" d="M308.8,187.2c-0.8-0.8-2.1-0.8-2.1-2.1c0.1-1.6,1.4-2.2,2.6-2.3c1.1-0.1,0.9,1.2,0.8,2
		C310.1,185.8,309.9,186.9,308.8,187.2z"/>
	<path class="st9" d="M318.3,212c0.8,0.6,1,1.2,0.1,1.8c-2.1,0.2-1,2.9-2.5,3.6c-0.5-0.7-1.1-1.3-1.6-2
		C315.1,213.5,316.6,212.6,318.3,212z"/>
	<path class="st11" d="M323.1,207.2c0.6,2.1,0.8,4.1-2.2,3.9c-0.3-0.4-0.6-0.7-1-1.1C320.7,208.8,321.7,207.8,323.1,207.2z"/>
	<path class="st12" d="M288.5,216.6c0.4,0.5,0.7,1,1.1,1.5c0,0.3,0,0.5,0,0.8c-1.1-0.7-2.4-0.4-3.6-0.4c-0.1-0.5-0.1-1-0.2-1.5
		c0.2-0.2,0.4-0.4,0.6-0.6C287.1,216.5,287.8,216.6,288.5,216.6z"/>
	<path class="st11" d="M310.1,218.9c0-0.3-0.1-0.5-0.2-0.8c0.8-0.4,1.5-0.8,2.3-1.2c0.2,0.2,0.3,0.4,0.5,0.6
		C312.4,219,311.6,219.8,310.1,218.9z"/>
	<path class="st9" d="M311.7,205.9c0.6,0.1,1.2,0.3,1.7,0.4C312.6,208,312.1,207.1,311.7,205.9z"/>
	<path class="st9" d="M314.3,208.5c0,0.3,0,0.6,0,0.9c-0.3-0.2-0.7-0.3-1-0.5C313.7,208.8,314,208.6,314.3,208.5z"/>
	<path class="st12" d="M311,205.7c-0.3,0.2-0.6,0.4-0.8,0.6C310,205.3,310.7,205.9,311,205.7C311,205.8,311,205.7,311,205.7z"/>
	<path class="st12" d="M311.1,213.9c-0.2,0.1-0.3,0.2-0.5,0.3c0.1-0.2,0.2-0.3,0.2-0.5C310.9,213.7,311.1,213.9,311.1,213.9z"/>
	<path class="st12" d="M341.5,239.5c0,2.1,0.2,4.2-0.1,6.2c-0.3,2.2-1.6,3.9-3.8,4c-2.4,0.2-1.8-2-2-3.5c0-0.2-0.2-0.7-0.3-0.7
		c-0.8,0.1-0.4,0.9-0.6,1.3c-2.7-1.6-2.4-4.1-1.4-6.6C336.2,239.7,339,240.8,341.5,239.5z"/>
	<path class="st11" d="M321.1,212.7c1.6-0.2,3.2-0.4,4.7,0.4c0.8,2.6,1.7,5.3,2.5,7.9c-0.9,1-1.8,1.9-3.3,1.5
		C324.6,218.8,323.1,215.6,321.1,212.7z"/>
	<path class="st8" d="M324.9,233.9c0.6-1.9,1.2-3.9,2.2-7c1.4,4.8,2.9,8.3,1.6,12.5c-1.5-0.3-1.7-2.7-3.4-2
		C324.8,236.3,324.7,235.1,324.9,233.9z"/>
	<path class="st1" d="M333.5,240.2c-1,2.6-1.3,5,1.4,6.6c0,3.1-2,3-4,2.9c-0.3-0.6-0.6-1.2-0.9-1.8l0,0c0-1,0-2-0.8-2.7l0,0
		C329.3,242.2,330.5,240.3,333.5,240.2z"/>
	<path class="st9" d="M318.3,216.4c2.8,2,3.6,5.4,5.1,8.4c-1.1,0.6-0.1,3.7-2.6,2.5l0.1,0.1c-0.1-0.7-0.1-1.5-0.9-1.9l0,0.1
		c-0.1-0.7,0-1.5-0.9-1.9l0,0.1C320.1,221.2,316.5,219.2,318.3,216.4z"/>
	<path class="st5" d="M324.9,233.9c-0.2,1.2-0.1,2.4,0.4,3.5c0.1,1.4,1.1,2.8-0.5,3.9l0.1,0.1c-0.7,0.1-0.9,0.6-0.8,1.3l-0.2,0.2
		l0.1,0.3c-1,0.1-1.9,0.1-2.9,0.2c0-0.2-0.1-0.4-0.1-0.6c2.4-2.8,1.2-6.9,3.2-9.8C324.4,233.3,324.7,233.6,324.9,233.9z"/>
	<path class="st8" d="M324.2,233c-2,2.9-0.8,7.1-3.2,9.8c0-2.5,0-4.9-0.1-7.4c0.2-1.4,0.1-3.1,1.9-3.6
		C323.5,231.9,324.1,232,324.2,233z"/>
	<path class="st14" d="M328.4,221c-0.8-2.6-1.7-5.3-2.5-7.9c0-0.7,0-1.3,0.1-2c0.8,1,1.6,1.9,2.5,2.9l0,0c0.6,2.1,1.2,4.3,1.8,6.5
		c-0.1,0.2-0.1,0.4-0.1,0.7C329.4,221,328.9,221,328.4,221z"/>
	<path class="st8" d="M336.7,234.4c-1.6,1.3-2.7,2.1-4,3.2c0-2.1-2.6-3.8-1-5.4C333.8,230.3,334.1,234.9,336.7,234.4z"/>
	<path class="st1" d="M324,243.2l-0.1-0.3l0.2-0.2c0.3-0.4,0.5-0.9,0.8-1.3l-0.1-0.1c1,0.7,2.8-1.3,3.2,0.6c0.4,2.1-1.1,3.1-3,3.3
		C324.7,244.6,324.4,243.9,324,243.2z"/>
	<path class="st0" d="M329.2,245.3c0.8,0.7,0.8,1.7,0.8,2.7C329.1,247.3,329.2,246.3,329.2,245.3z"/>
	<path class="st0" d="M330,248c0.3,0.6,0.6,1.2,0.9,1.8C330.2,249.4,330.1,248.8,330,248z"/>
	<path class="st12" d="M263.2,225.7c-0.3,0.9-0.5,1.7-0.8,2.6c-2.4-0.1-4.4-0.9-3.7-4.1c0.3-1.2,0.5-3.2,2.2-3.2
		c1.5,0,1.5,1.8,1.9,3C262.5,224.6,262.5,225.2,263.2,225.7z"/>
	<path class="st8" d="M268.2,248.8c0.2,0.3,0.5,0.6,0.7,1C268.7,249.5,268.4,249.2,268.2,248.8z"/>
	<path class="st10" d="M330.1,220.3c-0.6-2.1-1.2-4.3-1.8-6.5c2.5,0.9,3.3,3,3.3,5.6C331.1,219.7,330.6,220,330.1,220.3z"/>
	<path class="st10" d="M328.4,213.9c-0.8-1-1.6-1.9-2.5-2.9c0.1-1.1,0.7-1.6,1.7-1.7C328.7,210.6,328.4,212.3,328.4,213.9z"/>
	<path class="st0" d="M280.8,233.6c-1.2-0.1-2.8,1.3-3.6-0.9c1.4,0,1.3-0.8,0.8-1.8l0,0c3.1-2.1,1-4.8,0.9-7.3
		c0.5-0.2,1.1-0.5,1.6-0.7C280.6,226.5,280.7,230.1,280.8,233.6z"/>
	<path class="st0" d="M278,230.9c-0.1-0.1-0.2-0.1-0.3-0.2C277.9,230.8,277.9,230.9,278,230.9C278,230.9,278,230.9,278,230.9z"/>
	<path class="st15" d="M302.6,164.4c3.5-5.7,5-5.7,8,0c-0.5,1.9-0.7,4-3.2,4.5C303.8,169.8,304.3,165.8,302.6,164.4z"/>
	<path class="st12" d="M280.8,233.6c-0.1-3.6-0.2-7.1-0.3-10.7c-0.4-0.9-1.2-1.7-0.4-2.8c0.4,0,0.8,0,1.3,0
		c1.4,3.5-0.4,7.8,2.1,11.1c0.4,0.9,0.2,2.1,1.1,2.7c0.3,2,0.7,3.9,1,5.9l-0.2,0.3c-0.8,0-1.6-0.1-2.4-0.1
		C281,238.3,281.7,235.6,280.8,233.6z"/>
	<path class="st8" d="M281.3,220.1c-0.4,0-0.8,0-1.3,0c0.8-2.4-0.5-5.5,2.1-7.2c0.8,2.3-1.1,4.2-0.7,6.4
		C281.4,219.6,281.4,219.9,281.3,220.1z"/>
	<path class="st8" d="M261.3,230.1c-0.2,0.9-0.8,1.3-1.4,1.7C260,230.9,260.3,230.2,261.3,230.1z"/>
	<path class="st12" d="M249.8,182.4c-0.3-0.2-0.6-0.3-0.9-0.5c0.3-0.1,0.6-0.3,0.9-0.4C249.9,181.8,249.9,182.1,249.8,182.4z"/>
	<path class="st15" d="M280.7,273.4c0.6-4.1,3.3-7.5,3-11.9c0.9,0,1.7,0,2.6,0c2.4,1.1,3.1,3.2,1.5,5.2c-2.6,3.2-1.8,5.8,0.4,8.5
		c0.1,4.3,1.9,0.8,3,0.7c0.1,0.6,0.1,1.1,0.2,1.7c-0.5,0.4-0.4,0.7,0.1,1c-0.1,1.5-0.3,3-0.4,4.5c-1.6,0.1-1.2,2.7-2.9,2.7
		c-0.4-2.1,2.5-4.7-0.8-6.3c-0.1-0.6,0-1.5-0.3-1.7c-1-0.6-1.6,0.8-1.6,1.2c0.2,5.8-2,11.4-0.7,17.2c-1.2,0.3-2.3-0.4-3.3-0.8
		c0.7-3.6-0.3-7.5,1.4-11.1c0.9-1.8-0.7-3.6-2.3-3.2C279.2,278.6,282.1,276.1,280.7,273.4z"/>
	<path class="st10" d="M286.2,261.5c-0.9,0-1.7,0-2.6,0h-0.4l-0.4,0c1.4-2.3,1.5-5.3,3.4-7.3c0.5,0.7,0.9,1.3,1.7,2.4
		c0.6-2.5,1.4-4.6,3.9-4.8c1,2.1-0.6,4.1-0.3,6.4c1.8-0.5,3.8-0.4,5.1-1.4c1.8-1.4,3.1-1,4.6,0.2c0.1,4.2,0.1,8.3,0.2,12.5
		c0,0.6,0,1.2,0,1.9c-0.2,1.2-0.4,2.4-0.7,3.7c-2.1-0.9-0.5-5.8-4.4-4.7c-0.4-1.4,0.6-3.2-0.9-4.4c0-0.3-0.1-0.6-0.1-0.9
		c1.7-1.9,0.1-3-1-3.6c-1.2-0.6-1.3,0.9-1.4,1.8c-0.2,0.9-0.4,1.9-0.6,2.8c-0.7,0.3-0.9,0.9-1.1,1.6c-3.3,0.2-1.4-2.4-1.5-3.7
		c-0.1-1.9,2-4.3-0.1-5.6C288,257.5,288,261.2,286.2,261.5z"/>
	<path class="st11" d="M301.2,257c-1.5-1.3-2.8-1.6-4.6-0.2c-1.3,1-3.3,1-5.1,1.4c-0.3-2.3,1.2-4.3,0.3-6.4
		c-2.5,0.2-3.3,2.2-3.9,4.8c-0.7-1-1.2-1.7-1.7-2.4c0.5-1.9,1.1-3.8,2.5-5.3c0.4,0.7,1,0.8,1.7,0.8c0.8-0.3,1.6-0.5,2.4-0.8
		c0.9,2.7,1.7-0.2,2.6-0.1c0.2,0,0.5,0,0.8,0c0.3,0.9-0.4,2.2,0.9,2.5c1.3,0.4,1.6-1.2,2.5-1.8c0.5,1.4,0.9,3,2.5,1
		C301.7,252.8,302.5,255.1,301.2,257z"/>
	<path class="st15" d="M296.4,270.4c3.9-1.2,2.3,3.8,4.4,4.7c0,4.1-0.1,8.3-0.1,12.4c-0.8,2.7-0.5,5.4-0.5,8.1
		c-0.5,0.1-1,0.3-1.5,0.4c-1.8-5,0.2-10.5-1.7-15.5C296,277.1,297.8,273.6,296.4,270.4z"/>
	<path class="st10" d="M297,280.4c1.9,5-0.1,10.5,1.7,15.5c-1.4,0.2-2.9,0.7-4.3,0.5c-1.7-0.3,0.6-1,0-1.6c1.7-0.8-0.1-2.7,0.9-3.7
		C296.1,287.5,294.3,283.6,297,280.4z"/>
	<path class="st14" d="M280.5,281.3c1.6-0.4,3.1,1.4,2.3,3.2c-1.7,3.6-0.7,7.4-1.4,11.1c-1.6,0.7-3.2-0.1-4.8,0
		c-0.4-1.1,1-2.4-0.2-3.5c0.3,0,0.6,0,0.9,0c0.5,0,1.1,0,1.6,0c1.4-0.9,2.2-1.9,0.9-3.6C280,286.1,280.2,283.7,280.5,281.3z"/>
	<path class="st14" d="M288,285.9c1.7,0,1.3-2.6,2.9-2.7c0.1,2.4,0.2,4.7,0.4,7.1c0.1,1,0.2,1.9,0.2,2.9c0.4,2.6,0,4.1-2.8,2.6
		C287.2,292.6,289.1,289.1,288,285.9z"/>
	<path class="st10" d="M288,285.9c1.1,3.2-0.8,6.7,0.7,9.9c-0.6,1.3-1.7,0.6-2.6,0.6c0.2-5.6-0.1-11.2,1-16.7
		C290.6,281.2,287.7,283.8,288,285.9z"/>
	<path class="st14" d="M287.2,279.6c-1.1,5.5-0.8,11.2-1,16.7c-0.5,0-1,0-1.5,0c-1.4-5.8,0.9-11.4,0.7-17.2c0-0.5,0.5-1.8,1.6-1.2
		C287.2,278.1,287.1,279,287.2,279.6z"/>
	<path class="st12" d="M291.6,293.1c-0.1-1-0.2-1.9-0.2-2.9c0.9-0.8,1.9-0.2,2.8,0c0.4,0.3,0.8,0.6,1.2,0.8c-1,1,0.7,2.9-0.9,3.7
		C293.1,295.1,292.9,293,291.6,293.1z"/>
	<path class="st12" d="M300.1,295.5c0-2.7-0.3-5.4,0.5-8.1C302.5,290.3,303.4,293,300.1,295.5z"/>
	<path class="st9" d="M301.4,271.4c0-0.6,0-1.2,0-1.9C302.8,270.2,302.9,270.8,301.4,271.4z"/>
	<path class="st14" d="M310.1,218.9c1.5,0.9,2.2,0.1,2.6-1.4c1.9,0.1,2.2,1.7,2.2,3.1c0.1,5.2,1.5,10.3,0.8,15.5
		c-2.3-1.6-1.3-4.2-1.5-6.4c-0.3-2.8,0.2-5.9-2.3-7.9c-0.2-0.3-0.5-0.6-0.7-0.8c0,0-0.3,0.1-0.3,0.2c0,5,0,10,0,15
		c-0.8,0-1.6,0-2.4,0l0,0c0.3-4.2-0.3-8.3-1.5-13.6c0,5.2,0,9,0,12.9c0,0.9,0,1.7-0.1,2.6c-0.4,0.7-1.1,0.8-1.8,0.7
		c-0.2-0.7-0.4-1.3-0.6-2c-0.2-0.7,0.1-2.1-1.1-1.8c-0.9,0.2-0.6,1.4-0.7,2.2c-0.3,0-0.6,0.1-0.9,0.1l-0.1-0.1c-1.9-3,0.5-7-1.7-9.9
		c0.1-1.1,0.2-2.2-1-2.8c0.3-1.2,1-2.3,2.2-2.2c1.7,0.1,0.8,2.2,1.6,3.1c0.2,2.5-0.9,5.3,0.9,8c1.5-3-0.2-5.5-0.3-8
		c0-2.3,1.1-3.2,3-3.9C307.8,221,308.9,219.8,310.1,218.9z"/>
	<path class="st11" d="M311,236.2c0-5,0-10,0-15c0-0.1,0.3-0.2,0.3-0.2c0.3,0.3,0.5,0.5,0.7,0.8c0.2,3.5,0.6,7,0.6,10.6
		c0,3,0.9,5.1,3.3,6.5c0,0.3,0,0.7,0.1,1c-1.7,0.5-3.3-0.4-5.2,1.2c-1.8,1.6-1.8-2.9-3.8-3c0-0.9,0-1.7,0.1-2.6
		c0.5,0.2,1,0.5,1.5,0.7l0,0c0.3,0.8,0.7,1.8,1.7,1.4C310.7,237.6,310.8,236.7,311,236.2z"/>
	<path class="st9" d="M316,240c0-0.3,0-0.7-0.1-1c0-0.3,0.1-0.5,0.1-0.8c1.8-0.5,2.3-3.8,4.9-2.8c0,2.5,0,4.9,0.1,7.4
		c0,0.2,0.1,0.4,0.1,0.6c-1.7,0-3.5,0-5.2,0C316,242.3,316,241.1,316,240z"/>
	<path class="st10" d="M302.8,237.3c0.2-0.8-0.2-2,0.7-2.2c1.1-0.2,0.8,1.1,1.1,1.8c0.2,0.7,0.4,1.3,0.6,2c-1.1,1.2-2.2,2.4-3.2,3.6
		c-1.1-1.4-2.9-0.5-4.1-1.3c0-0.8,0-1.5,0-2.3c1.5-0.1,2.2-2.3,3.9-1.7l0.1,0.1c0.1,0.5,0.3,1.1,0.4,1.6
		C303.1,238.6,302.6,237.8,302.8,237.3z"/>
	<path class="st9" d="M297.9,241.3c1.3,0.8,3-0.1,4.1,1.3c-0.1,0.4-0.1,0.7-0.2,1.1c-1.5,0-3.2,0.8-4.1-1.4
		C297.8,241.9,297.8,241.6,297.9,241.3z"/>
	<path class="st10" d="M289.6,218.1c1.7,0.6,3.3,1.3,5,2c0,0.6-0.1,1.3-0.1,1.9c-1.4-0.3-2.3,0.5-2.8,1.9c-1.3,3.1,1,12.1,3.6,14.2
		c-0.1,0.9,0.2,2.8-0.9,2.3c-1.6-0.6-4.7,2.2-4.9-2.2c2-2,1.5-11.1-0.7-13.6c1.1-1.8,0.7-3.8,0.8-5.7
		C289.6,218.6,289.6,218.4,289.6,218.1z"/>
	<path class="st14" d="M295.3,238c-2.6-2.1-4.8-11.1-3.6-14.2c0.6-1.4,1.4-2.1,2.8-1.9c0.1,0.9,0.1,1.8,0.2,2.7
		c-0.1,3.3-0.5,6.7,0.4,10C295.2,235.8,295.2,236.9,295.3,238z"/>
	<path class="st14" d="M288.8,224.6c2.3,2.5,2.8,11.6,0.7,13.6c-0.9-0.3-1.5-0.8-1.7-1.8c0.4-3.4-1.4-6.6-0.7-10
		C287.7,225.8,288.2,225.2,288.8,224.6z"/>
	<path class="st15" d="M301.8,237.3c-1.7-0.6-2.5,1.6-3.9,1.7c-1.8-0.9-1.2-2.8-1.5-4.3l0.3-0.1c2.4-1.7,2-4.9,3.5-7.2
		C302.3,230.4,299.9,234.3,301.8,237.3z"/>
	<path class="st10" d="M287.1,226.4c-0.7,3.4,1.1,6.6,0.7,10c-0.5,0.1-1-2.1-1.5,0c-0.3,1.1,0.2,2.4-0.8,3.4c-0.3-2-0.7-3.9-1-5.9
		c1.9-2,0-5.3,1.9-7.3C286.7,226.5,286.9,226.5,287.1,226.4z"/>
	<path class="st9" d="M290.4,249.8c-0.7,0-1.3-0.2-1.7-0.8c-0.2-1.3-0.4-2.6-0.5-3.9c-0.1-1.1-0.9-2.7,0.8-2.8
		c1-0.1,1.1,1.4,1.6,2.3C291.7,246.6,291.5,248.1,290.4,249.8z"/>
	<path class="st9" d="M295.1,234.7c-0.9-3.3-0.6-6.6-0.4-10c0.8,0.3,1.5,0.6,2.2,0.9c-2.6,2.9,0.2,6-0.3,9l-0.3,0.1
		C295.9,234.7,295.5,234.7,295.1,234.7z"/>
	<path class="st9" d="M295.4,248.9c-0.9-0.2-1.7,2.7-2.6,0.1c0.2-1.6-0.2-3.4,0.8-5.5C295,245.4,295.4,247.1,295.4,248.9z"/>
	<path class="st0" d="M278,241.7c0.1-0.1,0.1-0.2,0.2-0.3C278.1,241.5,278.1,241.6,278,241.7C278,241.7,278,241.7,278,241.7z"/>
	<path class="st10" d="M280.5,281.3c-0.3,2.4-0.5,4.8-0.8,7.2c-1.1,1-0.8,2.3-0.9,3.6c-0.5,0-1.1,0-1.6,0c0-0.6-0.1-1.3-0.1-1.9
		c0.3-4.5,1.4-8.9,0.9-13.4c0,0,0,0.1,0,0.1c2.1-0.7,0.8-1.4,0-2c0-0.5,0-1.1,0-1.6c0.5,0,1.1,0,1.6,0c0.3,0.1,0.6,0.1,1,0.2
		C282.1,276.1,279.2,278.6,280.5,281.3z"/>
	<path class="st12" d="M278.1,276.8c0.5,4.5-0.6,8.9-0.9,13.4C275.6,285.6,276.5,281.2,278.1,276.8z"/>
	<path class="st12" d="M278,274.8c0.8,0.7,2.1,1.3,0,2C278.1,276.2,278.1,275.5,278,274.8z"/>
	<path class="st15" d="M316,238.2c0,0.3-0.1,0.5-0.1,0.8c-2.4-1.4-3.4-3.5-3.3-6.5c0-3.5-0.4-7-0.6-10.6c2.5,2,2,5.1,2.3,7.9
		c0.2,2.2-0.9,4.8,1.5,6.4C315.9,236.9,316,237.5,316,238.2z"/>
	<path class="st0" d="M318.3,216.4c-1.8,2.8,1.8,4.7,0.9,7.3c-1.9-1.6-2.7-3.9-3.4-6.3c1.5-0.6,0.4-3.4,2.5-3.6
		C318.4,214.7,318.4,215.6,318.3,216.4z"/>
	<path class="st0" d="M319.2,223.7c0.8,0.3,0.8,1.1,0.9,1.9C319.5,225.2,319.2,224.5,319.2,223.7z"/>
	<path class="st0" d="M320.1,225.5c0.7,0.4,0.8,1.2,0.9,1.9C320.6,226.8,320.4,226.1,320.1,225.5z"/>
	<path class="st10" d="M296.6,234.6c0.5-3-2.3-6.1,0.3-9c0.7-0.3,1.4-0.7,2.2-1c1.2,0.6,1.1,1.7,1,2.8
		C298.7,229.6,299,232.9,296.6,234.6z"/>
	<path class="st10" d="M303.5,225.4c0.1,2.5,1.7,5,0.3,8c-1.8-2.7-0.6-5.4-0.9-8C303.1,225.4,303.3,225.4,303.5,225.4z"/>
	<path class="st14" d="M286.4,226.6c-1.9,2.1,0,5.3-1.9,7.3c-0.9-0.6-0.8-1.8-1.1-2.7c-0.4-5,0.8-9.8,1.2-14.7
		c0.4,0.2,0.8,0.4,1.2,0.5c0.1,0.5,0.1,1,0.2,1.5C284.5,221.3,286.4,223.9,286.4,226.6z"/>
	<path class="st10" d="M284.6,216.5c-0.4,4.9-1.7,9.7-1.2,14.7c-2.5-3.3-0.7-7.5-2.1-11.1c0-0.3,0.1-0.5,0.1-0.8
		c0.4,0.5,0.8,1,1.2,1.5C283.9,219.7,281.2,216.4,284.6,216.5z"/>
	<path class="st15" d="M286.4,226.6c-0.1-2.7-2-5.3-0.5-8.1c1.2,0,2.4-0.3,3.6,0.4c-0.1,1.9,0.3,3.9-0.8,5.7
		c-0.6,0.6-1.1,1.2-1.7,1.8C286.9,226.5,286.7,226.5,286.4,226.6z"/>
	<path class="st0" d="M325,241.4c-0.3,0.4-0.5,0.9-0.8,1.3C324.1,242.1,324.2,241.6,325,241.4z"/>
	<path class="st14" d="M286.2,261.5c1.7-0.3,1.7-4,3.4-3c2.1,1.3-0.1,3.7,0.1,5.6c0.1,1.3-1.7,3.9,1.5,3.7c0,0.3-0.1,0.6-0.1,0.9
		c-1.6-0.1-2.4,0.7-2.4,2.5c0,1.4,0.3,2.9-0.7,4.1c-2.2-2.7-3-5.3-0.4-8.5C289.3,264.7,288.6,262.6,286.2,261.5z"/>
	<path class="st12" d="M291.2,268.7c0-0.3,0.1-0.6,0.1-0.9c0.2-0.7,0.4-1.3,1.1-1.6c0.7,1.4,1.4,2.7,2.1,4.1
		c-0.1,2.8-0.2,5.6-0.2,8.5c-0.8-0.1-1.5-0.1-2.3-0.2c-0.2-0.3-0.5-0.5-0.7-0.8c-0.1-0.6-0.1-1.1-0.2-1.7
		C291.1,273.5,291.1,271.1,291.2,268.7z"/>
	<path class="st10" d="M291.2,268.7c0,2.4-0.1,4.9-0.1,7.3c-1.1,0-2.8,3.5-3-0.7c1-1.2,0.8-2.7,0.7-4.1
		C288.7,269.3,289.5,268.5,291.2,268.7z"/>
	<path class="st8" d="M292,278.5c0.8,0.1,1.5,0.1,2.3,0.2c0.1,0.7,0.1,1.3-0.5,1.7c-1.4,1.3-1.6,6.9-0.2,8c0.2,0.2,0.5,0.1,0.8,0.1
		c-0.1,0.5-0.1,1.1-0.2,1.6c-0.9-0.2-1.9-0.8-2.8,0c-0.1-2.4-0.2-4.7-0.4-7.1c0.1-1.5,0.3-3,0.4-4.5
		C291.6,278.7,291.8,278.6,292,278.5z"/>
	<path class="st10" d="M292,278.5c-0.2,0.1-0.4,0.2-0.6,0.1c-0.5-0.3-0.6-0.6-0.1-1C291.5,278,291.7,278.2,292,278.5z"/>
	<path class="st14" d="M294.1,290.2c0.1-0.5,0.1-1.1,0.2-1.6c-0.1-2.7,0.7-5.5-0.6-8.2c0.7-0.4,0.7-1,0.5-1.7
		c0.1-2.8,0.2-5.6,0.2-8.5c1.4-1.1,0.3-2.9,0.9-4.2c1.6,1.1,0.6,2.9,0.9,4.4c1.4,3.2-0.3,6.7,0.7,10c-2.7,3.2-1,7.1-1.7,10.7
		C295,290.8,294.5,290.5,294.1,290.2z"/>
	<path class="st9" d="M295.4,266c-0.6,1.3,0.5,3.1-0.9,4.2c-0.7-1.4-1.4-2.7-2.1-4.1c0.2-0.9,0.4-1.9,0.6-2.8c1.2,0,1.6,1.2,2.4,1.8
		C295.3,265.4,295.4,265.7,295.4,266z"/>
	<path class="st12" d="M295.3,265.1c-0.8-0.5-1.2-1.8-2.4-1.8c0.1-1,0.2-2.4,1.4-1.8C295.4,262.1,297,263.2,295.3,265.1z"/>
	<path class="st15" d="M278.9,292.1c0.1-1.3-0.3-2.6,0.9-3.6C281.1,290.2,280.2,291.2,278.9,292.1z"/>
	<path class="st10" d="M308.6,236.3c-0.5-0.2-1-0.5-1.5-0.7c0-3.9,0-7.7,0-12.9C308.3,228,308.9,232.1,308.6,236.3z"/>
	<path class="st10" d="M311,236.2c-0.2,0.5-0.3,1.3-0.6,1.5c-1,0.3-1.4-0.6-1.7-1.4C309.4,236.3,310.2,236.3,311,236.2z"/>
	<path class="st15" d="M302.8,237.3c-0.2,0.6,0.3,1.4-0.5,1.7c-0.1-0.5-0.3-1.1-0.4-1.6C302.2,237.4,302.5,237.3,302.8,237.3z"/>
	<path class="st12" d="M293.7,280.4c1.2,2.6,0.5,5.4,0.6,8.2c-0.3,0-0.6,0-0.8-0.1C292.2,287.4,292.4,281.7,293.7,280.4z"/>
</g>
</svg>
