<?xml version="1.0" encoding="utf-8"?>
<!-- Generator: Adobe Illustrator 23.0.5, SVG Export Plug-In . SVG Version: 6.00 Build 0)  -->
<svg version="1.1" id="Capa_1" xmlns="http://www.w3.org/2000/svg" xmlns:xlink="http://www.w3.org/1999/xlink" x="0px" y="0px"
	 viewBox="0 0 595.3 841.9" style="enable-background:new 0 0 595.3 841.9;" xml:space="preserve">
<style type="text/css">
	.st0{fill:#417630;}
	.st1{fill:#FFFFFF;}
	.st2{fill:#427531;}
	.st3{fill:#4F773A;}
	.st4{fill:#426C34;}
	.st5{fill:#4E8147;}
	.st6{fill:#3C6F2F;}
	.st7{fill:#447731;}
	.st8{fill:#EEF0EB;}
	.st9{fill:#518441;}
	.st10{fill:#84A16C;}
	.st11{fill:#729D62;}
	.st12{fill:#437532;}
	.st13{fill:#407731;}
	.st14{fill:#447336;}
	.st15{fill:#457336;}
	.st16{fill:#417731;}
	.st17{fill:#1E231C;}
	.st18{fill:#3F7730;}
	.st19{fill:#447434;}
	.st20{fill:#427532;}
	.st21{fill:#427332;}
	.st22{fill:#437432;}
	.st23{fill:#407633;}
	.st24{fill:#427431;}
	.st25{fill:#417633;}
	.st26{fill:#3F7831;}
	.st27{fill:#436C35;}
	.st28{fill:#1E221B;}
	.st29{fill:#437634;}
	.st30{fill:#447733;}
	.st31{fill:#4C7938;}
	.st32{fill:#3D7831;}
	.st33{fill:#1F221C;}
	.st34{fill:#456732;}
	.st35{fill:#3F7931;}
	.st36{fill:#437535;}
	.st37{fill:#467333;}
	.st38{fill:#426633;}
	.st39{fill:#3D6F2E;}
	.st40{fill:#4E793E;}
	.st41{fill:#457332;}
	.st42{fill:#4C7640;}
	.st43{fill:#3D7931;}
	.st44{fill:#3F722F;}
	.st45{fill:#417537;}
	.st46{fill:#446B35;}
	.st47{fill:#477A35;}
	.st48{fill:#407A31;}
	.st49{fill:#477A32;}
	.st50{fill:#457C31;}
	.st51{fill:#427731;}
	.st52{fill:#457433;}
	.st53{fill:#437632;}
	.st54{fill:#417733;}
	.st55{fill:#437833;}
	.st56{fill:#4D743A;}
	.st57{fill:#427535;}
	.st58{fill:#487434;}
	.st59{fill:#457A31;}
	.st60{fill:#447734;}
	.st61{fill:#406D2D;}
	.st62{fill:#376A2F;}
	.st63{fill:#477935;}
	.st64{fill:#4E663E;}
	.st65{fill:#477836;}
	.st66{fill:#476839;}
	.st67{fill:#3B692D;}
	.st68{fill:#3F7732;}
	.st69{fill:#3D7731;}
	.st70{fill:#1F2B1B;}
	.st71{fill:#211C20;}
	.st72{fill:#1F251D;}
	.st73{fill:#20231D;}
	.st74{fill:#4C6940;}
	.st75{fill:#576F4F;}
	.st76{fill:#1C231A;}
	.st77{fill:#1B1D1A;}
	.st78{fill:#1C261A;}
	.st79{fill:#211E20;}
	.st80{fill:#221E22;}
	.st81{fill:#1E1F19;}
	.st82{fill:#576B4F;}
	.st83{fill:#1F2C1E;}
	.st84{fill:#5A764D;}
	.st85{fill:#231B22;}
	.st86{fill:#231A27;}
	.st87{fill:#221B22;}
	.st88{fill:#417532;}
	.st89{fill:#437133;}
	.st90{fill:#417632;}
	.st91{fill:#447034;}
	.st92{fill:#437332;}
	.st93{fill:#20271D;}
	.st94{fill:#427433;}
	.st95{fill:#527147;}
	.st96{fill:#427534;}
	.st97{fill:#437434;}
	.st98{fill:#447332;}
	.st99{fill:#457233;}
	.st100{fill:#457835;}
	.st101{fill:#437534;}
	.st102{fill:#457331;}
	.st103{fill:#416E33;}
	.st104{fill:#417A32;}
	.st105{fill:#447331;}
	.st106{fill:#527847;}
	.st107{fill:#477232;}
	.st108{fill:#467232;}
	.st109{fill:#417B32;}
	.st110{fill:#4A6A3D;}
	.st111{fill:#427A32;}
	.st112{fill:#457933;}
	.st113{fill:#547246;}
	.st114{fill:#231C23;}
	.st115{fill:#1C1E19;}
	.st116{fill:#231A29;}
	.st117{fill:#417531;}
	.st118{fill:#417131;}
	.st119{fill:#241B23;}
	.st120{fill:#446C3A;}
	.st121{fill:#46533E;}
	.st122{fill:#221C20;}
	.st123{fill:#221C1E;}
	.st124{fill:#241925;}
	.st125{fill:#4A5544;}
	.st126{fill:#20211D;}
	.st127{fill:#251A26;}
	.st128{fill:#4B5847;}
	.st129{fill:#211522;}
	.st130{fill:#2E352A;}
	.st131{fill:#3F473B;}
	.st132{fill:#211F21;}
	.st133{fill:#2E332C;}
	.st134{fill:#261A26;}
	.st135{fill:#1D241A;}
	.st136{fill:#44573E;}
	.st137{fill:#4A7836;}
	.st138{fill:#251924;}
	.st139{fill:#45693D;}
	.st140{fill:#20241B;}
	.st141{fill:#261727;}
	.st142{fill:#1F201D;}
	.st143{fill:#221A26;}
	.st144{fill:#1F1E1A;}
	.st145{fill:#4B5642;}
	.st146{fill:#211D20;}
	.st147{fill:#201D1E;}
	.st148{fill:#1E211B;}
	.st149{fill:#251927;}
	.st150{fill:#201C20;}
	.st151{fill:#201D1F;}
	.st152{fill:#211D1F;}
	.st153{fill:#251925;}
	.st154{fill:#231A24;}
	.st155{fill:#231A26;}
	.st156{fill:#33442E;}
	.st157{fill:#271928;}
	.st158{fill:#261927;}
	.st159{fill:#181816;}
	.st160{fill:#241826;}
	.st161{fill:#261926;}
	.st162{fill:#251928;}
	.st163{fill:#231928;}
	.st164{fill:#49543F;}
	.st165{fill:#211F1A;}
	.st166{fill:#20201F;}
	.st167{fill:#476F38;}
	.st168{fill:#407730;}
	.st169{fill:#22321C;}
	.st170{fill:#4C773D;}
	.st171{fill:#467A38;}
	.st172{fill:#477A38;}
	.st173{fill:#51644C;}
	.st174{fill:#405038;}
	.st175{fill:#487643;}
	.st176{fill:#251826;}
	.st177{fill:#4E6146;}
	.st178{fill:#251A23;}
</style>
<g>
	<g>
		<path class="st0" d="M390,379c0,1.3,0,2.7,0,4c-1.1,1.9-0.1,4.1-0.7,6.1c-0.5,3.4-0.6,6.8,0.1,10.2c-0.7,6.1,0.1,12.6-4,18
			c-1.9,0.7-3.5,0-5.1-1c-0.8-0.5-1.3-1.4-2.4-2.2c-1.2,3.3-0.4,6.6-1.3,9.1c1-2.1,0.5-5.4,3.3-7.3c1.2,1.4,3,1.5,4.5,2.2
			c1.5,5.8-2.2,10-4.3,14.7c-1.6,0.8-2.8,1.8-2.7,3.8c-2.1,4.4-3.1,9.4-7.7,12.2c-2.9,1.4-4.1,4.5-6.2,6.7c-2.6,2.8-4.1-1.1-6.1-1.1
			c-0.1,1.1,1.1,0.5,1.4,1c2,1.3,1.8,3.1,1.1,5c-1.5,3.3-4.6,5.1-7.3,7.2c-7.3,5.7-15,10.8-23.7,14.2c-1.5,0.6-3,1.3-4.8,1.1
			c-1-0.1-1.8-0.4-2.3-1.4c0.1-0.4,0.3-0.8,0.7-1c-0.2,0-0.4,0.2-0.7,0.5c-0.7,1.4-2.6,1.4-3.3,2.7c-0.3,0.3-0.7,0.6-1.1,0.7
			c-2.2,0.3-4.3-0.2-6.4-0.7c-1.6-0.3-1.5,0.7-1.6,1.7c-0.2,0.4-0.5,0.8-0.9,1c-1.2,0.5-2.3,0.4-3.5,0.1c-1.3-0.5-2.8-0.8-3.5-2.3
			c-0.1-0.5,0-0.9,0.2-1.4c2.6-2,1-4.9,1.5-7.4c0.6-3.2-0.7-6-1.2-9c-0.4-2-0.4-4,0-6c0.5-1.6,0.7-3.3,0.9-5.1
			c0.1-0.5,0.2-0.9,0.3-1.4c0.7-2,1.4-4,0.7-6.2c-1.3-4.6,1.7-8.6,1.7-13c-1-7.1,0.8-14.3-1.3-21.3c0.7-1.8,2.4-1.3,3.8-1.4
			c0.5,0.3-0.1-1,0-0.3c-2.4-0.1-2.8-2-3.2-3.8c-0.1-1.3,0.2-2.4,1-3.4c3.8-3.3,4.7-8.6,8.5-11.9c2.1-1.9,4.3-3.7,6.2-5.8
			c0.4-0.2,0.8-0.4,1.2-0.5c2.4-0.3,4.7-1.6,7.2-1.4c2.4-0.2,4,2,7,2c-1.5-2-3.9-3.6-1.7-6c0.3-0.3,0.7-0.5,1.1-0.6
			c1.1-0.5,1.4-1,0-1.6c-1.9-0.1-2.3,2.3-4.1,2.5c-0.7-0.3-1.1-0.9-1.3-1.5c-0.8-2.6,0.9-4.8,0.9-7.3c-0.1-2.1,0.6-4.3-1.2-6.1
			c1.5,2.7,2.1,5.4-0.2,8c-1.4,0.3-2.3-0.6-3.2-1.4c-0.7-0.7-1.1-1.6-1.3-2.5c-0.2-2.3-1-4.3-2.9-5.8c-1.4-1.7-2-3.7-2.8-5.6
			c-0.2-0.7-0.2-1.4-0.2-2.1c-1.3-5.2,3.3-9.7,1.8-14.4c-0.6,2.4,1.5,6.3-3.1,7.9c-0.5,0-0.9-0.1-1.3-0.5c-1-1.5-0.8-3.3-1.5-4.9
			c-0.7-4.3-4.7-7.2-4.6-11.8c1.3-0.9,2-2.1,2-3.7c-0.9,0.7-0.5,2.5-1.9,2.8c-3.3-4.1-5.9-8.4-7.2-13.8c-1.4-5.8-2.3-11.9-5.4-17.3
			c-0.9-1.6-1.1-3.8-0.6-5.8c1.6-1.3,3.6-1.7,5.3-2.7c1.4,1,1.3,3.3,3.3,3.8c1,0.5,1.7,1.3,2.4,2.2c4.1,1.4,8.1,2.2,12-0.3
			c0.4-0.6,0.9-1,1.6-1.3c4.5,0.1,8.9,2.1,13.5,0.3c1.5-0.6,3.2,0.5,4.2,1.9c0.9,1.3,1.9,2.2,3.5,2.5c2.4,0.7,4.6,2.2,7.1,2.9
			c4.2,1.7,6.4,5.5,9,8.8c0,0.5-0.2,1.3,0,1.4c5.7,3.4,1.7,9.4,3.6,13.8c0.2,0.5-0.5,1.1-1.2,1.4c-4.1-0.5-2.7-5.2-5.4-6.9
			c-0.6,3.2,1.7,6.5,5.3,7.3c1.8-0.6,2.8-1.6,2.3-3.7c-0.3-1.6-0.6-3.4,1.4-4.3c1.2,0.2,2.1,1,3.2,1.3c4.8,3.4,7.4,8.2,9,13.7
			c0,1-0.3,2-0.5,2.9c-0.4,1.7,0.2,4.1-2.1,4.6c-1.9,0.5-2.4-2-4.3-3c0.6,2.7,0.1,5-0.1,7.5c1.1-0.6,1.9-1.7,3.1-0.9
			c0.7,2.4,0.3,5,1.3,7.3c3.9,2.9,8.1,5.2,12.1,7.9c1.7,1.8,1.5,4,1,6.2C389.1,373.1,388.2,376.3,390,379z"/>
		<path class="st1" d="M287,489c-30.1,0-60.3,0-90.4,0.1c-2.6,0-3.7-0.1-3.7-3.4c0.1-65.7,0.1-131.5,0-197.2c0-3.3,1.1-3.4,3.7-3.4
			c28.1,0.1,56.3,0.1,84.4,0.1c-2.9,4-7.8,3.3-11.7,5.2c-1,0.5-2.3,0.1-3.4,0.7c-0.7,0.4-1.3,0.7-2,0.9c-3.3,0.5-6.5,1.6-9.5,3
			c-4.6,1.5-8.9,3.7-12.8,6.6c-2.1,1.1-4.3,2.2-6,4c-0.7,0.6-1.4,1.1-2.1,1.6c-1.9,1.2-3.3,2.9-4.9,4.4c-0.8,0.8-1.6,1.5-2.5,2.2
			c-1.5,0.9-2.7,2-3.3,3.7c-0.2,0.4-0.4,0.8-0.7,1.1c-1.7,1.3-3.4,2.8-4.5,4.7c-1.2,1.6-2.7,2.8-3.8,4.6c-0.7,1.1-1.5,2.2-2.2,3.4
			c-4.2,7.1-8.2,14.3-10.7,22.3c-0.9,2.5-1.7,5-2.2,7.6c-0.3,1.2-0.6,2.5-0.9,3.7c-1,4.2-1.8,8.3-1.7,12.6
			c-1.1,5.5-1.1,10.9-0.3,16.4c0.4,1.6,0.4,3.2,0.5,4.8c0.5,5.6,1.9,11,3.2,16.4c0.2,0.4,0.3,0.9,0.4,1.4c0.4,1.8,0.9,3.5,1.6,5.2
			c0.2,0.4,0.3,0.8,0.5,1.3c1.4,4,3,8,5,11.7c1.7,3.2,3.6,6.3,5.6,9.3c3.1,4.5,6.5,8.8,10.2,12.9c12.7,13.5,28,22.5,45.8,27.5
			c1.5,0.6,3,0.8,4.6,1c0.4,0.1,0.9,0.2,1.3,0.3c1.7,0.6,3.5,0.4,5.3,0.7c0.5,0.1,0.9,0.2,1.4,0.3C283,487.4,286.1,485.6,287,489z"
			/>
		<path class="st1" d="M369.3,448.1c3.8-3.4,5.1-8.2,7.7-12.3c0.5-1,0.6-2.3,1.8-2.8c2.5-4.7,4.9-9.5,5.6-14.8
			c-0.1-0.5,0.1-0.9,0.5-1.1c2.3-5.8,3.3-11.9,3.8-18c-0.3-1.3-0.3-2.5-0.1-3.8c0.4-0.5,0.8-0.5,1.3-0.1c0,30.2-0.1,60.3,0.1,90.5
			c0,3-0.6,3.6-3.6,3.6c-30.2-0.1-60.3-0.1-90.5-0.1c-0.1-0.2-0.2-0.5-0.3-0.7c0.2-0.5,0.5-0.8,1-1.1c2.1-0.7,4.4-0.4,6.6-1
			c2,0.1,3.9,0.8,5.9-0.1l0,0c2.5-2.7,6.1-0.8,8.9-2.1l0,0c1.6-2,4.2-1.2,6.2-2c13.5-4.4,25-11.9,34.8-22c1-1.8,2.3-3.2,3.9-4.5
			C365.3,453.3,366.5,450.1,369.3,448.1z"/>
		<path class="st1" d="M377.1,337.8c-2.3-4.7-4.4-9.6-8.8-12.9c-1.5-1.9-3.2-3.6-4.7-5.5c-2.1-1.4-4.1-2.8-4.3-5.6
			c-3.4-2.2-5.2-6.2-9-7.9c-2.6-1.5-5.2-3.2-7.9-4.5c-2.8-3.1-6.6-4.2-10.4-5.5c-6.8-2.3-12.9-6.1-20.2-7c-2.3-1-4.8-1.6-7.3-1.8
			c-0.5,0-0.9-0.1-1.4-0.2c-0.5-0.1-0.9-0.4-1.3-0.7c-0.3-0.4-0.3-0.9,0.1-1.3c28.2,0,56.3,0.1,84.5-0.1c3,0,3.6,0.6,3.6,3.6
			c-0.1,29.8-0.1,59.7-0.1,89.5c-2.2,0-1.4-1.7-1.4-2.7c0-2-0.7-3.8-1.5-5.5c1.8-2,0.4-3.8-0.2-5.7c-0.9-0.8-1.2-1.9-1.6-3
			c-0.4-1.3-0.6-2.6-1-3.9c-0.8-2.7-1.7-5.4-2.7-8.1c-0.2-0.4-0.3-0.8-0.5-1.2c-0.8-2-1.8-3.9-2.8-5.8
			C377.5,340.8,377.5,339.2,377.1,337.8z"/>
		<path class="st2" d="M265,289.9c5.3-1.6,10.7-3.3,16-4.9c0.3,0,0.7,0,1,0c0.8,1.2,2.5,0.9,3.3,2.1c0.1,1.6-0.8,2.6-2.1,3.4
			c-0.7,0.3-1.4,0.3-2.1,0.2c-3.4-0.9-4.1,1.3-4.2,3.9c-0.1,2.5,0.3,4.9,0.3,7.4c-0.2,2,0.4,4.2-1.9,5.4c-1.9,0.1-2.5-1.3-2.9-2.7
			c-1.5-4.7-2.9-5.5-7.6-3.6c-2.2,0.9-4.4,1.2-6.7,0.8c-5-0.9-6-3-4.1-8c2.9-2.5,6.2-3.4,9.9-3.1c0.5,0.1,0.9,0.7,1.6,0.5
			C264.8,291,264.5,290.6,265,289.9z"/>
		<path class="st3" d="M287,489c-1.9-2.4-5.1,0-7.1-1.9c4.7-2.9,9.8-1.3,14.8-1.1c0.6,0.2,1.1,0.5,1.5,1c-0.1,0.3-0.1,0.6-0.2,0.9
			l0.1,0.3c-2.6,1-5.5-0.4-8.1,0.8C287.7,489,287.3,489,287,489z"/>
		<path class="st4" d="M387.1,369.8c3.5,1.9,0.4,6,2.9,8.2c0,0.3,0,0.7,0,1C386.4,376.8,388.2,372.8,387.1,369.8z"/>
		<path class="st5" d="M285,285c2.3,0,4.7,0,7,0c0.3,0.4,0.5,0.8,0.4,1.3c-0.5,1.5-1,3.1-2.5,4c-1.4-0.1-1.5-1.3-1.8-2.3
			C287.7,286.3,284.6,287.5,285,285z"/>
		<path class="st6" d="M285,285c0.7,2,3.4-0.2,4,2c-1.3,1-2.7,1.2-4,0c-1.5,0-2.9,0-3-2C283,285,284,285,285,285z"/>
		<path class="st7" d="M292,286c0-0.3,0-0.6,0-1c1.7,0,3.3,0,5,0c0.3,0.3,0.5,0.7,0.4,1.1c-0.4,1-0.9,1.9-2,2.2
			c-1.1-0.1-1.8-0.8-2.7-1.4C292.4,286.7,292.2,286.3,292,286z"/>
		<path class="st8" d="M288,489c2.5-2.1,5.4-0.6,8.1-0.8c0,0.3,0,0.6-0.1,0.8C293.3,489,290.7,489,288,489z"/>
		<path class="st9" d="M388.9,389.1c0.5-2-0.8-4.3,1.1-6.1c0,2.3,0,4.7,0,7c-0.3,0.3-0.7,0.4-1.1,0.2
			C388.6,389.8,388.6,389.4,388.9,389.1z"/>
		<path class="st10" d="M389.1,390.1c0.3,0,0.6-0.1,0.9-0.1c0,1.7,0,3.3,0,5c-0.3,0.1-0.6,0.2-0.9,0.1
			C388.2,393.5,388.2,391.8,389.1,390.1z"/>
		<path class="st11" d="M297.1,285.9c0-0.3-0.1-0.6-0.1-0.9c1.7,0,3.3,0,5,0c-0.1,0.3,0,0.6,0.1,0.9c-1,1.3-2.3,1.3-3.7,1
			C297.9,286.7,297.4,286.4,297.1,285.9z"/>
		<path class="st12" d="M297.1,285.9c0.3,0,0.6,0,1,0.1c1.6,0.8,3.3,0.7,4.9,0c0.3,0,0.7,0,1,0c2.7,1.1,5.6,1.4,8.4,1.7
			c11,2.4,21.2,6.6,30.7,12.8c0.5,0.8,0.6,1.6-0.1,2.3c-0.9-1.1-3.7,0.9-3.6-2.5c0.1-1.4-2.6-2.8-4-2c-4.7,2.7-9,0-13.5-0.5
			c-3.1-3.3-6.8-1.3-10.2-1.2c-1.9,0.1-3.8,1.1-5.8,0.2c-5.1,1.7-2.2-2.5-3-4c-1.6-2.1-3.3-2.1-5.3-0.6c-1.9-0.9-3.2-2.1-2.7-4.4
			C295.7,287.3,296.4,286.6,297.1,285.9z"/>
		<path class="st13" d="M386.1,360.9c0.9,0.9,0.9,2,0.8,3.2c-2.9,3.4-3.3-3.4-5.8-1.4c-0.1-4-4.6-1.6-5.9-4c-0.3-0.6-0.8-1-1.2-1.5
			c2.9-2.7,0.8-5.3,0-8c-3.1,0.1-1.2,3.4-3.2,4.7c-2.2-4.2,0.4-8.9-1.4-13c-0.3-0.8,1.2-1.5,2.1-0.4c1.2,1.4,2.4,2.9,3.8,4.7
			c1.3-2.3,0.2-5.1,1.9-7.1c1.3,1,1.8,2.3,2,3.9c0.3,0.9,0.8,2.1,0.5,2.9c-1.2,2.7,0.9,2.8,2.4,3.5l0,0c0.5,1.8,0.4,3.7,0.1,5.6
			C381.8,356.9,385,358.3,386.1,360.9z"/>
		<path class="st14" d="M295,288c1,1.3,2,2.7,3,4c0.2,1,0.2,2,0,3c4.5,12.3,5.8,25.7,13,37c0.3,0.2,0.3,0.4,0.3,0.7
			c-0.1,0.2-0.2,0.3-0.2,0.3c1.2,4.2,5,7.3,5,12c-0.2,0.1-0.4,0.1-0.6,0.2c-1.6-0.6-2.3-2.1-3.4-3.2c-2.7-3.8-3.9-8.4-5.9-12.5
			c-0.5-1.5-1.1-3-1.9-4.4c-1-1.8-1.2-4-2.3-5.9c-1.4-2.8-2.4-5.8-3.1-8.9c-0.7-3.6-2.7-6.7-3.8-10.1c-0.7-1.6-1.2-3.3-1.4-5.1
			c0.2-3-2.5-5.7-1-8.9C293.9,286.3,294.6,287,295,288z"/>
		<path class="st15" d="M304,476c-0.7,2.3,3.4,6-2,7c-0.1-0.2-0.3-0.4-0.4-0.6c-0.1-0.5-0.1-0.9,0-1.4c0.4-2-0.4-3.8-0.8-5.7
			c-0.4-7.2-0.1-14.3-0.2-21.5c0-1.1,0.1-2.2,0.4-3.3c0.6-1.7,0.8-3.5,0.7-5.3c0-0.8,0-1.5,0.1-2.3c0.1-1.3,0.4-2.5,1.1-3.6
			c1.4-1.8,0.4-4.4,1.8-6.2c2.2-1.1,1.5,1.3,2.3,1.9c-0.2,4.7-3.1,9.1-2,14c-0.4,1.7-0.2,3.4-1,5c0,0.3,0,0.7,0,1
			c-1.2,1.5,0.2,3.5-1,5c0,2.3,0,4.7,0,7C303.7,470,303.9,473,304,476z"/>
		<path class="st16" d="M359.4,313.8c2.3,0.9,2.3,4,4.7,5c0.2,1.6,2.5,2.3,1.9,4.2c-1.3,1-1.4,2.6-0.8,3.6c2.8,4.5-0.5,4.1-3.2,4.4
			c-0.2-0.2-0.3-0.4-0.2-0.7c0.1-0.2,0.2-0.3,0.2-0.3c0.2-3.3-3.6-6.8,0.7-9.8c-1.2-1-2.2-2.4-3.6-3
			C355.3,315.6,358,314.8,359.4,313.8z"/>
		<path class="st17" d="M326,370.1c0.3,0.6,0.5,1.3,0.8,1.9c1.1,2.3,3.1,4.2,3.5,6.9c0.1,0.5,0.2,1,0.2,1.5c0.7,2.7-1,3.8-3.1,4.5
			c-1.8,0.7-3.5,1.6-5.4,1.9c-0.3,0.1-0.6,0.2-0.9,0.3c-1.1,1.1-1.9,2.9-4,2c0.8-2.2-0.9-4-1.2-6c1-1.2,2.2-1.2,3.4-0.5
			c1.4,0.8,2.7,0.8,4-0.2c0.4-0.3,0.7-0.5,1.1-0.8c2.9-3.2,0.4-6.2-0.4-9.2c-0.4-1.6-2.3-3-0.7-5C325.5,366.9,325.2,369.1,326,370.1
			z"/>
		<path class="st18" d="M306,297c3.8-1.3,7.9-1.3,11.8-2.1c2.9-0.6,3.8,0.7,4.2,3.1c-0.3,0.3-0.7,0.7-1,1c-4.3,1.4-8.7,2.3-13,0
			C307,298.6,306.4,298,306,297z"/>
		<path class="st19" d="M307,435c-0.6-0.7-1.3-1.3-1.9-2c-0.5-0.1-0.9-0.3-1.3-0.6c-0.3-0.4-0.5-0.8-0.7-1.3
			c-0.3-1.4-0.3-2.9-0.1-4.3c0.1-0.5,0.2-1,0.3-1.4c0.7-2.9,0.6-5.8-0.2-8.6c-0.3-1.3-0.4-2.6-0.4-3.9c0.1-3.2-0.3-6.6,2.4-9.2
			c0.5-0.2,1.1-0.3,1.6-0.1c0.6,0.3,0.7,0.8,0.3,1.3c-1.2,0.7-1,1.9-1,3c-1.2,1.5,0.8,3.6-1,5C308.4,420.1,305.6,427.7,307,435z"/>
		<path class="st20" d="M362,330c0,0.3,0,0.7,0,1c-0.1,1.1-0.5,2-1.8,1.8c-1.4-0.2-6.4-7.8-6.2-9.2c0.2-1.2,0.7-2.2,2.1-2.4
			c1.5-0.3,1.9,1,2.4,2C359.8,325.4,359.3,328.5,362,330z"/>
		<path class="st21" d="M318.5,336.6c-0.4-3.4-2.4-5.9-3.9-8.8c-0.8-1.6-1.6-3.8,0.9-4.6c2.4-0.8,2.7,1.6,3,3.1
			c0.6,3.3,0.9,6.7,1.3,10.1C319.4,336.4,319,336.5,318.5,336.6z"/>
		<path class="st22" d="M319,397c0,2.3,0,4.6,0,6.9c0,1.6-0.8,2.9-2.3,3.5c-0.9,0.3-1.9-0.3-2.5-1.1c-1-1.2-0.9-2.7,0.1-3.6
			C316.2,401,315.4,397.1,319,397L319,397z"/>
		<path class="st23" d="M380,416c-1.1,3.3-2.9,6.4-4,9.9c0-3.4,0-6.8,0-10.2c0-1.6-0.4-3.7,2.1-3.6C380.7,412.3,379.8,414.5,380,416
			L380,416z"/>
		<path class="st21" d="M316.9,350.1c2.6-0.9,3.4-2.7,3.2-5.4c-0.1-1.6-0.8-3.6,1.5-5.1c1.8,6.2-1.8,11.6-1.6,17.4
			C316.4,355.8,316.2,353.2,316.9,350.1z"/>
		<path class="st24" d="M335,381c-1,1.7-1,3,1,4c1.2,0.6,2.2,1.4,1.8,3.1c-1.4-0.5-2.9,1.1-4.4-0.4c-1.1-1.2-2.8-1.4-4.4-1.7
			c0.2-2.6,2.9-3.4,4-5.4C333.8,380.4,334.4,380.5,335,381z"/>
		<path class="st20" d="M370.7,424.1c-0.8-3.2-2.2-6.3-1.7-9.7c0.1-0.9,0.5-1.8,1.4-1.8c0.9,0,1.4,0.9,1.4,1.8
			C371.8,417.7,372.7,421,370.7,424.1z"/>
		<path class="st20" d="M345.5,314.1c-2.6,0.7-5.3,2-7.2-0.8c-0.5-0.8-0.6-2.2,0.4-2.7C342.3,308.8,343.3,312.7,345.5,314.1z"/>
		<path class="st20" d="M330,380c-0.1-0.3-0.1-0.6-0.1-0.9c-0.1-1.7-2-3.2-0.9-5.1c2.2-3.2,1-6.1-0.9-9c5.3,1.8,3.8,6.1,3.8,9.7
			c0,1.8-0.5,3.6-0.8,5.3C330.7,380.5,330.3,380.5,330,380z"/>
		<path class="st25" d="M307,405c0-0.3,0-0.7,0-1c-1.5-2.3,1-4,1.1-6c1.6-2.8,3.2-5.6,6.9-6.1c0.5,0.4,0.5,0.8,0.1,1.2
			C311.6,396.5,311.3,402.1,307,405z"/>
		<path class="st26" d="M298,295c-0.6-1-0.6-2,0-3c1.6-0.4-0.3-2.9,1.5-2.8c2.2,0.1,3.3,1.7,3.5,3.8
			C301.8,294.8,300.8,297.2,298,295z"/>
		<path class="st27" d="M330,380c0.3,0,0.7,0,1,0c0.3,0.3,0.7,0.7,1,1c0.3-0.4,0.7-0.4,1,0c0,2.8-2.6,3.4-4,5
			c-2.5-0.6-4.5,2.2-7,0.9c1.5-1.6,3.5-2.1,5.4-3C329.1,383.1,330.4,382.2,330,380z"/>
		<path class="st20" d="M308,299c4.3,1.4,8.7-0.2,13,0c1.3,1.2,0.8,2.3-0.6,2.3c-3.9,0.1-7.9-0.2-11.9-0.4
			C307.2,300.8,307.9,299.7,308,299z"/>
		<path class="st28" d="M316.9,350.1c0.8,2.4,1.3,4.9,3.1,6.9c0,0.7,0,1.3,0.1,2c0.6,0.6,0.5,1.3,0.3,2c-2,0.7-2-1.2-2.7-2.2
			c-0.4-0.6-0.6-1.4-1.5-1.5c-0.9,0.5-1.7,1.4-2.6,0.1c-0.9-2.5,0.1-4.8,0.9-7c0.3-0.4,0.7-0.7,1.2-0.8
			C316.1,349.5,316.6,349.7,316.9,350.1L316.9,350.1z"/>
		<path class="st12" d="M374,349c3.8,3.9,3.8,5.9,0,8C374.1,354.3,371.9,351.7,374,349z"/>
		<path class="st29" d="M318.1,484.1c-2.8,1.5-5.8,2-8.9,2.1c-0.4-1-1.4-2.3-1-2.9c0.6-1.2,2-0.6,3.1-0.3
			C313.5,483.4,315.8,483.7,318.1,484.1z"/>
		<path class="st30" d="M363,455.9c-0.9,1.8-2.3,3.1-4,4.2c-0.1-1.4,1.4-3.3-1.1-4.1c-0.6-1-2.6-1.1-2-3c1.8,0.1,3.6-0.1,4.5,2.1
			c0.7,1.5,1.6,0,2.4-0.1c0.4,0.2,0.5,0.4,0.4,0.6C363.2,455.8,363.1,455.9,363,455.9z"/>
		<path class="st31" d="M363,455.9c0-0.3-0.1-0.6-0.1-1c1.7-2.7,2.9-5.9,6.4-6.9C367.7,451.1,365.7,453.8,363,455.9z"/>
		<path class="st20" d="M336,369c2.3,0.2,3.2,1.6,2.9,3.7c-0.3,1.8-1.4,2-2.9,1.3C334.5,372.3,334.8,370.7,336,369z"/>
		<path class="st32" d="M336,369c0,1.7,0,3.3,0,5c-2.5,1.9-2.4-1-2.7-1.8C332.7,370.1,334.1,369.2,336,369z"/>
		<path class="st33" d="M320,361c0-0.7,0-1.3,0-2c1.8,1.2,1.5,3.6,3,5c0.5,0.7,0.6,1.4,0.2,2.1C318.2,365.2,317.8,364.7,320,361z"/>
		<path class="st29" d="M302,484c1,0.7,2,1.3,3,2c-1.4,0.8-3,0.7-4.4,1.5c-1.5-0.1-3.1,0.5-4.6-0.4l0,0c0-2.2,2-2.5,3.2-3.5
			C300.3,483.1,301.2,483.2,302,484z"/>
		<path class="st34" d="M343,303c0-0.8,0.1-1.6,0.1-2.3c2.8,1.3,5.3,3,7.3,5.3C347.6,305.8,345.6,303.6,343,303z"/>
		<path class="st24" d="M372,432c-0.2,2.1,0.5,4.4-1.1,6.3C370.1,436,369,433.7,372,432L372,432z"/>
		<path class="st29" d="M304,476c-2-2.8-0.6-6-1-9C304,469.9,306,472.7,304,476z"/>
		<path class="st35" d="M311,333c0-0.3,0-0.7,0-1c0-1.5,0.1-2.9,2.3-5C312.6,329.8,316.5,332.6,311,333z"/>
		<path class="st36" d="M315,393c0-0.4,0-0.8-0.1-1.1c-0.2-1.6-0.1-3,2.1-2.9c1.7,0.2,2.5-1.5,4-1.8
			C320.1,390.2,317.4,391.5,315,393z"/>
		<path class="st29" d="M308.6,480.2c1.8-1.4,3-2.2,4.3-3.3C312.6,480.6,312.6,480.6,308.6,480.2z"/>
		<path class="st25" d="M305,413c0.2-1.7-0.7-3.6,1-5c-0.1,2.3,2,3,3.4,4.8C307.7,412.9,306.4,412.9,305,413z"/>
		<path class="st37" d="M333,381c-0.3,0-0.7,0-1,0c0.5-2.1,1-4.2,4-3c0.9,1,0.8,2,0,3c-0.3,0-0.7,0-1,0C334.3,381,333.7,381,333,381
			z"/>
		<path class="st29" d="M324.3,482.1c-1.9,1.3-3.9,1.9-6.2,2c-0.8-3.8,2.6-2.1,4-3.1l0,0C322.5,481.9,323.4,482,324.3,482.1z"/>
		<path class="st38" d="M366,323c-0.6-1.4-2.2-2.4-1.9-4.2c1.9,1.7,4.1,3.2,4.3,6.1C366.9,325,366.1,324.4,366,323z"/>
		<path class="st39" d="M389.1,390.1c0,1.7,0,3.4,0.1,5c-0.1,1.3-0.3,2.6-0.4,3.8c-1.1-3.3-1.4-6.6,0.2-9.9
			C389,389.4,389,389.7,389.1,390.1z"/>
		<path class="st40" d="M323.1,366c0-0.7,0-1.3-0.1-2c2.4,1.4,3,3.6,3,6.1c-1-0.7-1.3-2.3-2.9-2.3
			C322.5,367.2,322.4,366.6,323.1,366z"/>
		<path class="st41" d="M358.8,444.6c0.8,0.5,1.8,1,1.5,2.1c-0.1,0.7-0.8,1.1-1.5,0.9c-1-0.3-1.7-0.9-1.5-2.1
			C357.5,444.9,358,444.5,358.8,444.6z"/>
		<path class="st42" d="M329,374c0.3,1.7,0.6,3.4,0.9,5.1c-1.7-2.1-2.7-4.4-3.1-7.1C327.5,372.7,328.3,373.3,329,374z"/>
		<path class="st43" d="M336,381c0-1,0-2,0-3c1.6-1.4,1.9-0.2,2,1.1C338.1,380.5,338.2,382,336,381z"/>
		<path class="st44" d="M356,453c0.6,1,2.2,1.4,2,3c-1.3,0-2.8,0.2-3.4-1.3C354.3,453.9,355.2,453.4,356,453z"/>
		<path class="st45" d="M343.5,466.7c-1.2-0.1-1.3-0.7-1.3-1.4c0.1-0.8,0.7-1.1,1.4-1.1c0.8,0,1.2,0.6,1,1.3
			C344.3,466,343.7,466.4,343.5,466.7z"/>
		<path class="st46" d="M301,486.9c1.1-1.4,2.6-0.8,4-0.9c1.4,0,2.8,0.1,4.2,0.1c-1.8,1.3-3.8,0.9-5.8,1
			C302.6,487.4,301.7,487.7,301,486.9z"/>
		<path class="st47" d="M378.7,433c-0.4,1.1-0.4,2.4-1.8,2.8c-0.4-0.9-1.2-1.7-0.4-2.7C377.2,432.2,378,432.5,378.7,433z"/>
		<path class="st19" d="M304,454c0.2-1.7-0.7-3.6,1-5C306.6,451.1,304.9,452.4,304,454z"/>
		<path class="st24" d="M372,432c0.4-0.9-1.4-2.2,0.5-2.8c0.3-0.1,1,0.3,1.2,0.6C374.3,431.3,373.3,431.8,372,432L372,432z"/>
		<path class="st48" d="M343,305.1c1.6,1.1,3.1,1.7,2.1,3c-0.9,1.3-1.6,0.7-1.6-0.8C343.5,306.9,343.3,306.4,343,305.1z"/>
		<path class="st49" d="M384.9,417c0.2,0.6,0,0.9-0.5,1.1c-1.7-0.1-3.5-0.1-4.3-2.1c0,0,0,0,0,0C381.6,416.3,383.3,416.7,384.9,417z
			"/>
		<path class="st15" d="M302,484c-1,0-2,0-3,0c-1.5,0.7-2.9,1.3-2.9-1.2c2-1.4,4-1.2,5.9,0.2c0,0,0,0,0,0
			C302,483.3,302,483.7,302,484z"/>
		<path class="st22" d="M319,397c0.1-1,0.4-2,1.7-1.8c0.3,0.1,0.8,0.7,0.8,0.9C321,397.3,319.9,396.9,319,397L319,397z"/>
		<path class="st50" d="M322,481c0.8-1.7,1.8-2,3.7,0C324.1,481,323,481,322,481C322,481,322,481,322,481z"/>
		<path class="st21" d="M316.9,350.1c-0.3,0-0.6-0.1-0.9-0.1c-0.6-0.6-0.9-1.3-1-2.1c-0.1-1.1,0.2-2.1,1-2.9c0,0,0,0,0,0
			C317.7,346.5,316.8,348.4,316.9,350.1z"/>
		<path class="st19" d="M303,460c0.2-1.7-0.7-3.6,1-5C303.8,456.7,304.7,458.6,303,460z"/>
		<path class="st0" d="M296,483c0.7,1.1,1.9,0.9,3,1c0.2,2.2-2.3,1.7-3,3c-5.4,0-10.8,0.1-16.1,0.1c0,0,0.1,0,0.1,0
			c-1.8-1.5-4.2,0.1-6-1.1l0,0c-1.5-1.4-3.5,0.1-5-1c-18.7-4.3-34.2-13.9-47-28c-2-5.4-6.3-9-10.1-13c-2.5-2.7-4.1-5.9-5.7-9.1
			c0.1-1.7,1.3-2.9,2.4-4.1c1.1-4.7,1.5-8.9-1.5-13.5c-2.6-4,0.1-8.9,0.8-13.4c0.3-1.9,2.1-4-0.6-5.7c-3.9,1.8-0.7,4-0.4,6.1
			c0.4,1.3,0.5,2.9-0.3,3.9c-3.1,4.3-1.5,7.9,1,11.8c1.4,2.2,2.2,4.9,0.9,7.6c-0.5,0.6-1.4,0.7-1.6,0.1c-1.1-2.9-3.6-4.2-6.1-5.6
			l0-0.1c0.2-2,0.3-3.9-1.7-5.1c-0.3-0.2-0.3-0.5-0.2-0.8c0.3-4.1,1.2-8.2,1.2-12.4c0.8-1.3,0.9-2.8,0.8-4.2c-0.2-2.3-0.5,0.3-0.9,0
			c-1.5,0.6-3.2,3.7-4.5-0.2c0-0.7,0-1.3,0-2c0.3-0.9,0.8-1.8,0.3-2.8c-0.3-0.3-0.6-0.4-0.9-0.4c-1.4-5.7-1.5-11.4,0.1-17.1
			c0.3-0.3,0.7-0.4,1.1-0.2c0.8,0.8,1.4,2,2.9,1.7c2.6-1.9-0.6-3.1-0.6-4.7c-0.5-1-0.9-2.1-1.2-3.2c-0.2-1.2-0.3-2.3,0.3-3.4
			c0.2-0.3,0.5-0.4,0.7-0.6c0.4-0.3,1.1,0.2,1.4-0.5c-0.5,0-0.9,0.1-1.4,0.1c-1-0.5-0.6-1.6-1-2.3c-0.1-1.1-0.2-2.2,0.7-3
			c4.2-1.8,4.2-1.8,7.3,5.6c-1.5-4.6-3.8-8.9-5-13.6c2.3-8.3,6.1-15.9,11.1-22.9c1.6-0.6,2.6,1.8,4.2,0.9c1.1-0.8,0.7-2.5,1.9-3.2
			c3.3,0,4.5-1.7,3.6-4.7c-0.6-2-0.8-3.9,0.9-5.4c-0.2-0.2-0.2-0.4,0-0.6c1.2-0.8,1.5-2.5,3.2-2.6c0.4,0,0.8,0.1,1.2,0.2
			c1,0.4,1.8-0.1,2.7-0.4c0.6-0.2,1.2-0.3,1.8-0.4c1.9-0.3,2.3-1.9,3-3.3c0.7-0.7,1.6-1.1,2.6-0.9c2.5,0.7,4,1.9,3,4.8
			c-0.2,0.5-0.8,0.6-0.9,1.1c0.2-0.3,0.4-0.5,0.6-0.7c1-0.9,2.1-1.7,0.9-3.2c-1.9-2.5,1.3-5.8-1.3-8.4c-0.5-0.5,1.5-1.4,2-2.5
			c3.9-3.1,8.1-5.6,13.1-6.8c0.5,2.1-1.3,5.3,1.6,6.1c2.7,0.8,5.9,2.4,8.7-0.5c2-2,4.7-0.4,7-0.4c4.3-0.1,1.9,3,2,5
			c0,1.1,0.6,2.2,1.7,2.9c1.1,0.8,1.7,0.5,2.1-0.8c0.4-1.3,1.1-2.3,2.4-2.8c0.4-0.2,1.4,0.1,1.3-0.8c-0.1-0.5-1-0.4-1.6-0.5
			c-1.2-0.1-2.3-0.3-3.1-1.2c0.7-3.2-1.7-6.6,0.5-9.8c1.2-1.8,2.2-4,4.5-1.2c1,0.9,0.6,2.1,0.5,3.2c-0.1,1.3-0.3,2.9,0.9,3.5
			c1.4,0.7,1.7-1.7,3-1.9c0.5,0,0.9,0.2,1.2,0.7c0.7,1.4,0.6,2.8,0.6,4.3c0,0.7-0.1,1.4-0.3,2.1c-0.6,2.2-2.3,3.9-2.9,6.2
			c-0.1,0.4-0.3,0.8-0.5,1.2c-1.2,1.6-2,3.4-3.2,5c-0.8,0.8-1.9,1.1-2.9,1.4c-2.5,0.8-2.2,3.1-2.8,5c-1.5,3.7,1.3,6.8,1.5,10.3
			c0,1.2-0.3,2.4-1,3.4c-1.2,2.2-3.2,1.7-5.1,1.5c0.5,1.4,1.2,2.8,1,4.3c0,0.7-0.2,1.4-0.5,2c-2.9,2.9-3.3,7-5.4,10.3
			c-0.7,1.2-1.1,2.5-1.6,3.7c-1,1.7-2.3,3.2-2.3,5.3c-0.1,1.1-0.2,2.2-0.6,3.3c-1.1,2.1-2.3,4.3-2.1,6.8c-0.1,0.8-0.4,1.6-0.7,2.3
			c-3.1,7.1-3.1,7.1,2.6,11.7c0.7,1.9,2.6,2.4,4,3.5c7.4,5.6,13.4,12,13.8,22c-1.4,2-0.8,4.5-1.7,6.6c-0.5,0.8-1.4,1.3-1.5,2.3
			c-0.1,0.6-0.2,1.2-0.2,1.9c0.6-0.2,0.7-1,1.4-1c1.4,0.3,2,1.4,2.5,2.6c0.9,3.6,0.4,7.2-0.4,10.8c0,0.5,0,1-0.1,1.5
			c-0.5,2.2,1.1,4.6-0.5,6.8c-3.8,1.8-3.4,5.2-3.4,8.5c1.4-2.2-1.4-6.7,3.9-6.7c0.6,2.4,0.6,5,0.4,7.3c-0.3,3.9,0.8,7.1,3.1,10
			c0.7,2.6,0.7,5.1,0,7.7c-3.3,2-2.5,5.4-2.6,8.4c-0.2,2.7,1,4.3,3.6,5c1.2,0.2,2.3,0.1,3.5,0.1c2.3,0,4.5,0.1,6.7-0.5
			C294.1,482.1,295.2,482.1,296,483z"/>
		<path class="st51" d="M201,404c0.1,4.2,0.7,8.5-2.1,12.2c-2.3-5.5-3.2-11.3-3.7-17.2c0.2-0.5,0.4-0.5,0.7,0c1.3,3.5,2.7-1.3,4,0
			C201.4,400.5,201.1,402.2,201,404z"/>
		<path class="st52" d="M200.1,353c4.1,4.2,4.5,10,6.8,15c0.4,0.8-0.1,2.2-1.2,2.3c-1.3,0.2-1.6-1-1.6-2c0-1.7-1.2-3.1-1.4-4.6
			c-0.6-3.2-2.5-3.1-4.8-2.8C198,358.1,198.8,355.5,200.1,353z"/>
		<path class="st53" d="M240.9,300.6c-0.5,1.7-2.5,3.4,0.3,4.9c1.8,0.9,1.5,2.2,0,2.9c-1.8,0.9-1.1,1.5-0.2,2.4
			c2.7,2.9,2.5,3.1-2,4.1c0.7-2.7-1.1-3.8-3-5c-0.4-1.7,0.3-3.7-1.3-5.1C236.4,302.9,238.5,301.6,240.9,300.6z"/>
		<path class="st54" d="M221.9,317.6c-1.4,2.2,0.3,4,0.6,6.1c0.7,5.3-0.3,6-5.5,4.3c-0.2-0.1-0.4-0.2-0.7-0.3
			c-0.6-0.5-0.9-1.1-0.9-1.8c0.2-1.2,1-2,1.5-3C217.5,320.2,219.1,318.3,221.9,317.6z"/>
		<path class="st51" d="M209,432c-1,1-1.9,2-2.9,3c-2.4-4-4.3-8.2-5.4-12.8c4.7-0.9,5.7,2.8,7.2,5.8C209,429.2,208.9,430.6,209,432z
			"/>
		<path class="st55" d="M211.8,444.1c4.2,1,10,8.4,10.1,13C217.9,453.2,214.4,449,211.8,444.1z"/>
		<path class="st56" d="M196,377c-0.3,0-0.6,0-1,0c-0.2-4.5,0.5-8.8,2.1-13c0.8,0.5,0.9,1.2,0.9,2c0.3,0.2,0.4,0.4,0.3,0.7
			c-0.1,0.2-0.2,0.3-0.3,0.3c0,1.3,0,2.7,0,4C198.2,373.3,198.1,375.5,196,377z"/>
		<path class="st26" d="M234.7,304.9c5.8,0.4,2.2,3.1,1.3,5.1c-0.7,0.3-1.3,0.7-2,1c-1.4-0.4-1.8-1.5-1.9-2.8
			c0.1-0.7,0.4-1.4,0.9-1.9C233.6,305.8,234.2,305.4,234.7,304.9z"/>
		<path class="st57" d="M216,332c-3,2.7-3-1.7-4.8-1.9c0.6-1,1.3-2,1.9-3.1c0.4-0.3,0.7-0.4,1.1-0.1c0.9,1.2,1.1,2.8,2.1,4
			C216.5,331.3,216.4,331.7,216,332z"/>
		<path class="st58" d="M233,306.3c0,0.6,0,1.2,0,1.7c-1.7,1.5-0.2,4.6-2.9,5.6c-1.7-0.3-2.8-1-2.3-3
			C229.4,308.9,230.8,307.1,233,306.3z"/>
		<path class="st59" d="M227.8,310.6c0.5,1.5,1.5,2.4,3.2,2.4c0.5,0.7,0.6,1.3,0,2c-0.7,0-1.3,0-2,0c-1-0.9-2,0.8-3,0l0,0
			c-0.6-0.7-0.6-1.4,0-2.1C226.6,312.1,227.2,311.4,227.8,310.6z"/>
		<path class="st51" d="M199.1,417c3.2,0.6,3.4,1.3,1.7,5.1C199.9,420.5,198.8,419,199.1,417z"/>
		<path class="st58" d="M226,312.9c0,0.7,0,1.4,0,2.1c-1.4,0.7-2.7,1.3-4.1,2C222.5,314.8,223.9,313.5,226,312.9z"/>
		<path class="st60" d="M265,289.9c0.6,1.8,2.6-0.2,3.5,1.6c-1.7,0.7-3.2,1-4.5-0.7C264.3,290.5,264.6,290.2,265,289.9z"/>
		<path class="st61" d="M214,327c-0.3,0-0.6,0-0.9,0c0.9-1.7,1.9-3.3,3.9-4.1c-0.3,1-0.6,2.1-1,3.1C215.5,326.7,215.1,327.6,214,327
			z"/>
		<path class="st62" d="M196,399c-0.2,0-0.5,0-0.7,0c-0.1-1.6-0.2-3.2-0.3-4.9c0.4-0.4,0.7-0.8,1.1-1.2c0.8,1.3,0.8,2.7,0,4
			C196,397.7,196,398.3,196,399z"/>
		<path class="st3" d="M273.9,486.1c2,0.2,4.3-0.9,6,1.1C277.9,487.2,275.8,487.3,273.9,486.1z"/>
		<path class="st63" d="M269,485c1.7,0.2,3.6-0.7,5,1C272.2,486.1,270.5,486.2,269,485z"/>
		<path class="st64" d="M301,486.9c0.8,0.1,1.6,0.2,2.4,0.2c-2.4,1.3-4.9,0.7-7.4,0.7c0-0.3,0.1-0.5,0.1-0.8
			C297.7,487,299.4,486.9,301,486.9z"/>
		<path class="st12" d="M382,348c-1,0.3-1.9,0.6-2.9,0.8c-0.9,0.2-1.7,0.1-2.2-0.7c-0.6-0.9,0.1-1.6,0.8-2c1.8-1.1,1.2-2.9,1.5-4.5
			C380.6,343.5,381.6,345.6,382,348z"/>
		<path class="st65" d="M381,353c0.3-1.7,0.7-3.3,1-5c1.6,2.8,2.7,5.7,3.1,9C381.3,358.1,382.3,354.4,381,353z"/>
		<path class="st0" d="M381,353c1.7,0.9,1.4,4,4.1,4c1,1.1,1,2.5,1,3.9C384,358.5,379.6,357.6,381,353z"/>
		<path class="st66" d="M312.4,287.9c-3,0.4-6,0.8-8.4-1.7C306.9,286.1,309.7,286.6,312.4,287.9z"/>
		<path class="st67" d="M303,286.1c-1.7,1.3-3.3,1.4-4.9,0c1.4-0.1,2.7-0.1,4.1-0.2C302.5,285.8,302.7,285.9,303,286.1z"/>
		<path class="st68" d="M286,295c-1.5,1.1-1.7,3-2.6,4.7c-4.4-2.5-3.6-6-2.4-9.7c0.7,0,1.3,0,2,0c1-1.5,0.2,2.4,2,0.6
			C286.3,289.3,287.3,291.2,286,295z"/>
		<path class="st0" d="M286,295c0-1,0-2,0-3c0-0.3-0.1-0.7-0.2-1c-1.5,0.1-0.3,2.2-1.3,2.1c-1.6-0.2-1.7-1.7-1.5-3.1
			c0.7-1,1.3-2,2-3c1.3,0,2.7,0,4,0c0,1-0.2,2.1,0.7,3c0.2,0.1,0.4,0.3,0.5,0.4c0,0.2,0,0.4,0,0.7c-0.1,0.4-0.3,0.8-0.6,1.2
			c-0.9,1-1.6,2.1-2.6,3C286.7,295.4,286.3,295.4,286,295L286,295z"/>
		<path class="st69" d="M280,304c-1.5,0.6-2,1.9-2.1,3.5c-0.1,0.9-0.4,2.1-1.6,1.8c-1.1-0.2-1.2-1.3-1.3-2.3c1.8-1.8,0.7-4,1-6
			c1.3,0,2.7,0,4,0C280.8,302,280.9,303,280,304z"/>
		<path class="st70" d="M290,291c-0.1-0.3-0.2-0.6-0.2-1c0.7-1.4,0.8-3.1,2.3-4.1c0.2,0.1,0.5,0.2,0.7,0.2c0.3,3.1,2.4,5.7,2.3,8.8
			C291.9,295.4,292,291.8,290,291z"/>
		<path class="st71" d="M290,291c4.2-1.8,2.3,4,5,4c0.4,1.6,0.7,3.3,1.1,4.9c0.4,0.6,0.5,1.3,0.3,2c-2.7,0.6-2.2-1.7-3.2-3.8
			c1.5,6.9-0.8,11.9-5,16.1c-1-0.7-0.9-1.7-0.8-2.8c0.1-1.2-0.5,0.4-0.8,0c-1.1-0.5-1.1-1.4-0.9-2.6c-0.4,1.5,0.3,2.5,0.7,3.6
			c-0.1,0.5-0.4,0.9-0.8,1.1c-3.9-0.5-1.9-3.4-2.2-5.3c-0.3-2.6,1.7-4.1,2.8-6.1c1-1.3,0.8-2.9,1.1-4.4c0.1-0.4,0.3-0.8,0.4-1.2
			C288.5,294.6,289.1,292.7,290,291L290,291z"/>
		<path class="st72" d="M315.9,348.1c0,0.6,0.1,1.3,0.1,1.9c-0.3,0-0.7,0-1,0c-3.3-1.3-3.7-4.1-3.9-6.5c-0.3,2,0.6,4.7-0.1,7.3
			c-0.2,0.5-0.4,0.9-0.8,1.3c-2.1,0.2-2.4-1.6-3.2-2.9c-0.8-4.4-4.3-8.2-3.3-13c1-0.8,1.8-0.2,2.6,0.4c0.9,1.2,0.7,2.8,1.3,4.2
			c-0.5-1.7-0.3-3.5-1-5.2c-2.1-3.5-4.7-6.8-4.7-11.2c0-1.9-0.4-4,1.3-5.5c1.5,1.8,1.1,4.2,2,6.2c0.6,1.4,0.9,2.9,1.9,4
			c2,4.3,4,8.6,6.1,13C314.3,343.9,315.2,345.9,315.9,348.1z"/>
		<path class="st71" d="M303.1,318.9c-1.4,6.6,1.9,11.8,4.9,17.2c-0.5,0.6-1.1,1.1-2,1c-0.8-0.3-1.5-0.6-2.3-0.9
			c-2.4-0.5-3.1-2.5-3.8-4.4c-0.6-2.7,0.1-5.5-0.7-8.1c-0.3-1.2-0.6-2.3-1-3.5c-0.3-0.9-0.4-1.8-0.4-2.8c0-2-0.2-3.9-1.6-5.4
			c-0.6-0.7-1-1.4-1.2-2.3c-0.3-1.1-0.9-2-1.2-3c0.2-1.3,1-2,2.4-2c2.1,1.3,2.9,3.5,3.9,5.5C301.1,313,302.1,315.9,303.1,318.9z"/>
		<path class="st73" d="M300.1,310c-1.4-1.7-2.7-3.3-4.1-5c-0.9-1-0.8-2,0-3c0-0.7,0-1.4,0.1-2.1C297.4,303.2,299.7,306.3,300.1,310
			z"/>
		<path class="st74" d="M315.9,348.1c-1.4-1.8-2.5-3.8-2.9-6.1c1,1,2,2,2.9,3C316,346,315.9,347.1,315.9,348.1z"/>
		<path class="st75" d="M307,329c-1.7-0.8-2.2-2.2-1.9-4C306.3,326.1,306.9,327.4,307,329z"/>
		<path class="st76" d="M277.2,435.6l0-0.1c1.8-3.9,2.1-8,1.3-12.2c-0.3-1.6-1-3.3,1-4.4c2,0.9,1.5,3.1,2.3,4.6
			c0.3,0.9,0.7,1.8,1,2.8c0.4,2.2-0.4,4.2-0.9,6.3c-0.7,2-1,3.9-0.2,5.9c0.2,0.4,0.3,0.9,0.5,1.4c0.9,2.6,1.1,5.4,1.9,8.1
			c0.5,3.1,0.3,6.1,0.4,9.2c-0.1,3.7,0,7.4,0,11.1c0.1,2.8-0.3,5.6,0.2,8.4c0.5,1.1,1.2,1.8,2.4,1.9c1.9,0.1,3.7,0,5.6,0
			c0.9,0,1.9,0,2.8,0.1c6.3,1.2,0.1-3.3,1.9-4.2c0.2-0.4,0.4-0.7,0.8-0.9c1.4-1.4-0.3-2.6-0.2-3.9c-0.4-2.6-0.4-5.2,0.1-7.8
			c1-3.5,0.4-7,0.6-10.6c0.1-2.1-0.1-4.3,0.2-6.4c0.2-1,0.6-2,1.3-2.7c0.4-0.3,0.8-0.5,1.3-0.6c0.8,0.1,1.1,0.9,1.6,1.4
			c0,0.7-0.1,1.3-0.1,2c-1,1.6,0.2,3.5-0.9,5.1c0,1-0.1,1.9-0.1,2.9c-0.7,8-1,16,0.2,24c1.1,1.8,1.6,3.5-0.1,5.2
			c-6.3,0.3-12.7,1-19,0.8c-4.4-0.8-3.4-4-3.1-6.9c0.1-0.6,0.2-1.1,0.3-1.7c1.9-5.5,1.5-11,0.5-16.7
			C279.4,450.3,279.6,442.7,277.2,435.6z"/>
		<path class="st77" d="M303,443c-0.4-0.4-0.7-0.7-1.1-1.1c-1.1-1.2-1.2-2.6-0.9-4.1c0.3-1.1,0-1.8-1.3-2c-2.3-0.4-2.3-1.8-1.3-3.5
			c0.5-0.6,1.1-1,1.9-1.2c1.3-0.3,2.6-0.2,3.8,0.5L304,432c0.7,2.6,0.8,5.3,0,7.9C302.8,440.7,303.1,441.9,303,443z"/>
		<path class="st78" d="M302.1,477c-2.2-2.8-1.1-6-1-9c0.1-5-1.2-10.1,0.8-15C302,461,302,469,302.1,477z"/>
		<path class="st3" d="M282,482.2c6.7,0,13.3,0,20,0c0,0.3,0,0.5,0,0.8c-2,0-4,0-6,0c-1,0-2,0-3,0c-2.2,1.2-4.8-0.4-7,1
			c-1.3,0-2.7,0-4,0C281.4,483.4,281.4,482.8,282,482.2z"/>
		<path class="st78" d="M304,439.9c0-2.6,0-5.3,0-7.9c0.4,0.3,0.7,0.7,1.1,1C304.6,435.3,306,437.9,304,439.9z"/>
		<path class="st78" d="M302,450.1c0.2-1.7-0.7-3.6,0.9-5.1C302.9,446.8,303.3,448.6,302,450.1z"/>
		<path class="st79" d="M317,389c-0.7,1-1.4,1.9-2.1,2.9c-2.4,1.6-4.5,3.6-5.9,6.2c-0.9,2.1-2.1,3.9-3.2,5.9c-2,2.7-1.7,6-2,9.1
			c-0.4,0.4-0.9,0.5-1.4,0.3c-1.5-1-1.5-2.6-1.6-4.1c0-1,0-2,0.1-3c0.1-0.7,0.2-1.4,0.4-2.1c1.5-3,5-5,3.8-9.3
			c0.5,3.4-0.8,5.7-4,6.6c-0.6,0.6-1.1,1.4-1.6,2.1c-3.3,3.5-4.1,0.7-4.8-2c0.1-0.4,0.3-0.8,0.6-1.2c1.2-0.9,1.8-2.3,2.4-3.7
			c1.2-1.6,2.6-3,3.8-4.7c0.3-0.3,0.7-0.6,1-0.9c0.8-0.5,1.6-0.9,2.3-1.4c4.1-1.6,5.9-6.6,10.7-7.2c0.2,0.1,0.4,0.3,0.6,0.4
			C316.8,384.9,319.5,386.5,317,389z"/>
		<path class="st80" d="M323.1,366c0,0.6,0,1.2,0,1.8c1.1,3.4,3.3,6.4,3.7,10c0.3,2.4,0.6,4.8-2.8,5.2l0,0c-2.7,4.3-5.3-0.5-8,0
			c0,0,0,0,0,0c-0.5-1.5,0.8-1.8,1.6-2.5c2-0.9,1.7-2.5,1.3-4.2c-0.2-4.1-2.5-7.5-4-11.1c-0.9-2.1-2.3-4.1-1.4-6.6
			c0.2-0.2,0.3-0.4,0.5-0.5c0.7-1,1.3-2,2-3c1.4,0.5-0.2,3,2,3c0.7,1,1.3,2,2,3C318.7,364.1,320.4,365.3,323.1,366z"/>
		<path class="st81" d="M303,413c0.3,0,0.5,0,0.8,0c0.1,1.3,0.2,2.6,0.3,3.9c0.7,3,0.7,6.1,0,9.1c0,0.3,0,0.6,0,0.9
			c-1.1,1.9-1.6,4.1-3.9,5c-0.4,0.3-0.7,0.7-1.1,1c-2.7,0.3-1.4,3.4-3.1,4.4c-1.3,0.5-2.3-0.1-3.2-1c-0.9-1.2-1.5-2.6-1.2-4.1
			c0.2-0.7,0.7-1.2,1.3-1.7c1.7-0.9,3.7-1.3,4.8-3.1c1.5-1.6,2.5-3.6,3.6-5.6c1.1-2.2,0.3-4.7,0.8-7
			C302.1,414.2,302.4,413.5,303,413z"/>
		<path class="st82" d="M300.1,432c1.3-1.7,2-3.8,3.9-5c0,1.5,0.1,3.1,0.1,4.6C302.8,431.7,301.4,431.8,300.1,432z"/>
		<path class="st83" d="M304,426c0-3,0-6.1,0-9.1C305.5,420,305.6,423,304,426z"/>
		<path class="st84" d="M305.8,403.9c0.2-2.4,1.5-4.2,3.2-5.9c0.6,2.4-2,3.7-2,5.9C306.6,404,306.2,403.9,305.8,403.9z"/>
		<path class="st85" d="M310,351c0-2.7,0-5.4,0-8.8c3.2,2.3,2.9,5.8,5,7.8c-0.3,2.7-0.7,5.3-1,8c0,0,0,0,0,0
			C310.3,357,311.1,353.4,310,351z"/>
		<path class="st86" d="M318,358c-0.1,0.8,0.3,1.8-0.7,2.2c-0.2,0.1-1.1-0.7-1.2-1.2c-0.2-1.3-0.1-2.6-0.2-3.9
			C317.3,355.6,318,356.6,318,358z"/>
		<path class="st87" d="M303,415c-0.4,2.7,1,5.5-1,8c-0.4-0.3-0.7-0.7-0.8-1.2c-0.3-0.9-0.1-1.9-0.4-2.8c-0.1,1-0.3,2-1.5,2.2
			c-1.4-0.6-1.7-2.4-3.3-2.8c-1.7,1.8-0.6,3.9-0.6,5.9c0,1.8,0.7,3.6-1.2,4.9c-0.3,1.7-6-3.1-3.1,2.6c0.2,0.9-0.1,1.6-0.7,2.2
			c-2.8,3.2-2,5.5,1.7,7.2c1.4,0.6,2.7,0.8,4.1,0.1c0.7-0.1,1.4,0,1.9,0.4c0.6,0.9,0.7,1.8,0.5,2.8c-0.1,0.5-0.3,1-0.5,1.4
			c-1.3,2.1-0.9,4.5-0.9,6.8c0.1,4.1-1,7.8-3.7,11c-0.4,0.3-0.8,0.5-1.3,0.5c-0.6-0.1-1.5-0.9-1.7-0.4c-0.3,1.3-0.8,2.9,0.9,3.8
			c0.4,0.2,0.9,0.3,1.2,0.8c1.3,3.8-0.8,7.7,0.3,11.5c-2.3,0-4.7,0-7,0c0.2-1.5,0.1-2.8-2-2c-2-2.8-0.6-6-1-9c1.3-4,1.9-8,0-12
			c0-3.3,0-6.7,0-10c-1.8-3.7,2.9-6.2,1.4-9.9c-1,0.5-1.1,3.4-3.4,1.9l0,0c-0.8-2-0.8-4,0-6c0.3-2.3,0.7-4.7,1-7
			c0.1-0.9,0.8-1.6,1.3-2.3c0.7-2.7,1-5.4,2.6-7.9c2-3.2-0.2-4.8-3.1-5.6c-2.7-3.1-4-6.8-5.2-10.6c0-0.4,0.7-0.4,0.6-0.9
			c0,0.3-0.2,0.5-0.6,0.6c-2.7-1.8-4.3-4.4-5.8-7.1c0.4-2.6,1.3-5.1-0.1-7.7c-0.5-1.8,1.8-2.7,1.4-4.9c-2,2.8-3.5,5.8-6.9,6.7
			c-1.3-1.7-3.1-2-5.1-1.7c-6.6-1.7-6.9-2.5-4.3-8.5c0.6-1.3,0.7-2.9,1.8-4c0.9-1.1,2-1.5,3.3-1.3c1.3,1.2,0.4,2.3-0.2,3.4
			c1.9-2.8,3.5-5.7,4-9.2c0.8-2.6-1.9-4.8-0.6-7.6c1.2-2.5,2.4-3.7,4.4-0.8c-0.2-1.4-2.6-2.2-1-4c0.9-0.7,2-1,3.1-1.3
			c3.5-2.4-0.4-5,0.2-7.4c0-1.4-0.3-2.8-0.5-4.1c-0.2-2.4,2.2-3.6,2.8-5.7c0.9-0.7,1-1.8,1-2.8c0.9-1.9,1.5-4,3.1-5.5
			c1-1.9,1.2-4.1,1.9-6.1c0.5-1.4,1.3-2.6,2.6-0.6c1.2,2.7-0.3,6,1.6,8.5c0.3,0.6,0.6,1.3,0.7,2c1.2,4,2.2-0.4,3.4-0.1
			c0.5-0.1,1-0.2,1.5-0.1c2.1,0.7,3.6,2.3,3.6,4.3c0.1,4.9,0.9,10.2-1.1,14.6c-2.4,5.2-2.1,10.5-2.6,15.9c0.7-1.8-1.2-4.6,2.2-5.2
			c2.4,4.3,0.8,9,1.3,13.5c0.2,2.4-0.9,5,1.5,6.9c0.4,0.4,0.7,0.8,1,1.4c0.5,5.6,1.5,11.3-0.7,16.8c-0.6,0.5-1.2,0.9-2,0.8
			c-0.4-0.1-0.8-0.3-1.1-0.6c-0.5-0.6-1-0.8-1.1,0.3c-2.1,2.9-3.2,5.7,0.4,8.3c1,0.8,1.8,2,0.9,3.5c-0.3,0.2-0.5,0.3-0.9,0.3
			c-0.7,0-1.2-0.4-1.6-0.8c0,0,0,0.3,0.2,0.7c0.6,1,1.3,0.5,1.9,0c2.5-1.7,0.1-2.7-0.6-3.9c-1-1.9-2.4-3.8,0.4-5.4
			c0.4-0.7,1.1,2.4,1.4-0.1c0.1-0.8,0.4-1.6,1.2-1.9c1.1,0.5,1.4,1.2,0.6,2.3c1.1,1.1,0.8,5,4,2c0.9,0.5,1.6,1.4,1.5,2.4
			c-0.2,2.1,1.4-0.3,1.5,0.6c0,1,0,2,0,3C300.3,411.3,301,413.3,303,415z"/>
		<path class="st88" d="M209,432c-2.4-0.8-1-2.6-1-4c1.1-5.4-3.1-9.1-4.8-13.5c-0.7-1.8-1.4-2.4,0.6-3.8c2.2-1.5,2.2-4.2,2.1-6.7
			c-0.6-2.5-0.7-4.9,1-7c3.9-0.1,3.1,2.7,2.8,4.8c-0.4,2.6-1.6,5-1.9,7.7c-0.5,4-0.7,7.1,2.2,10.9C212.2,423.2,211.5,428.3,209,432z
			"/>
		<path class="st89" d="M279.9,418.9c-1.5,2.1-1.1,4.4-0.5,6.6c1,3.8,0.2,7-2.2,9.9c0.3-4.1,1.2-8.3,0.8-12.4
			c-0.7-1.6-1.2-3.3-0.9-5.1c0.6-2,0.8-4.1,0.8-6.2c0-0.2,0.1-0.5,0.1-0.7c-1.2-3.2-2.7-6.3-3.6-9.6c-0.7-2.6-1.3-4.8-4.7-4.5
			c-0.9,0.1-1.3-0.6-1.3-1.6c-0.2-3.8-3.7-4.4-6.1-6.2c-1-0.8-3.9-0.3-2.5-3.1c1.7-0.6,3.2,0,4.7,0.9c7,4.2,11.8,10.4,15.1,17.8
			c0.9,2.1,2,4.1,2.9,6.2c0.1,2.7-0.9,5.1-1.9,7.6C280.3,418.6,280.1,418.8,279.9,418.9z"/>
		<path class="st78" d="M281.9,411c-1.9-1.1-2.4-3-3-4.9c-3.2-9.7-9.8-16.2-19.1-20.2c-7.1-4-7.1-4-3.4-11.9c0.5-1,0.9-2.1,1.3-3.2
			c0-1,0.5-1.2,1.3-0.8c0.4,0.6,0.5,1.3-0.1,1.9c-0.4,1.2-0.7,2.5-1.1,3.7c-2,6.1-2,6.1,4.1,8.3c1.1,0.1,1.8,0.9,2.6,1.5
			c0.9,1.2,2.7,0.9,3.7,1.9c0.9,0.8,2,1.5,3,2.3c0.6,0.7,1.2,1.3,0.6,2.3c2.7,1.8,3.8,4.8,6,7l0,0c1.7,3.7,3.3,7.3,5,11
			C283.2,410.9,282.8,411.3,281.9,411z"/>
		<path class="st13" d="M245,384c0-1,0-2,0-3c1.8-1.9,2.7-4,2.1-6.8c-0.5-2.1-0.5-4.4,1.1-6.2c1.5-1.7,3.2-2.6,4.8-0.1
			c2.6,3.1,0.9,6.9-0.5,8.9c-3.2,4.5-1.6,7.2,1.5,10.1l0,0c-2.3,0.1-4.7,1.2-7,0C244.8,387,244,386.1,245,384z"/>
		<path class="st20" d="M253,368c-4.3-0.7-5.9,1.3-4.7,6.5c0.8,3.3,1.8,6.4-3.3,6.5c-3.3-5.3,0.8-10,1.5-15c0.3-1.9,3.5-0.9,5.4-0.9
			C254.4,365.1,252.7,367,253,368z"/>
		<path class="st90" d="M278.9,326.9c-1.3,1.4-2.6,2.8-3.8,4.3c-0.1-3.8-4.3-7.1-1.1-11.2c1.5,1.6,0,3.6,0.6,5.3
			c0.2,0.3,0.3,0.6,0.7,0.6c-0.5-0.2-0.6-0.6-0.8-1.1c0.5-3.4-0.2-7.1,2.5-9.9c1-0.3,2-0.7,3-1c1,0.9,1.1,2,0.9,3.2
			C280.1,320.4,279.9,323.7,278.9,326.9z"/>
		<path class="st91" d="M277.2,435.6c3.5,5.3,3.7,11.5,4.2,17.5c0.7,7.4,1.4,14.8-0.4,22.1c-1.6-1.7-1.6-3.4-0.1-5.2c0-3,0-6,0-9
			c-3-4.6-2.1-9.8-2.6-14.8c-0.1-0.9,0.3-1.9-0.4-2.8c-0.3-0.5-0.3-0.9,0-1.4C277.4,439.9,276.8,437.8,277.2,435.6z"/>
		<path class="st12" d="M245,384c0,1.4,0.7,2.4,2,3c2.4,3.2,6.6,3.3,9.7,5.7c-5.7,1.7-9.5-1.8-13.6-4.3c-1.5-0.9-1.4-2.7-1-4.1
			C242.7,382.5,244,383.7,245,384z"/>
		<path class="st92" d="M278,443c2.1,5.8,1.8,12,3,18c-1.7-0.7-3-1.7-3.2-3.8c-0.4-4.4-1.1-8.8,0.2-13.2c-0.2-0.2-0.3-0.4-0.2-0.7
			C277.9,443.1,277.9,443,278,443z"/>
		<path class="st93" d="M278.9,326.9c0.4-3.3,0.8-6.5,1.2-9.8c0.9-2.8,1.2-5.7,2.9-8.2c0.1-0.3,0.1-0.6,0.3-0.9
			c1.7,1.2-0.6,4.6,2.7,4.9c1,1.1,0.4,2.1-0.2,3.1c-0.8,1-1.6,2.1-2.6,3.1c-0.4,0.2-0.8,0.2-1.2-0.1
			C279.6,321.1,281.3,324.8,278.9,326.9z"/>
		<path class="st18" d="M278,443c0,0.3,0,0.7,0,1c-2.1,0.9-2,2.8-2,4.7c0,1.9,0.3,4-1.5,5.5c-2.3-3.4-1.5-6.9-0.3-10.5
			c0.7-2.2,2.1-2.1,3.8-1.7C278,442.3,278,442.7,278,443z"/>
		<path class="st94" d="M262.1,332.9c1.2,3,3.4,4.8,3.8,7.6c0.2,1,0,2.1-1.4,2.2c-1,0.1-1.7-0.8-1.4-1.6
			C263.8,338.4,259.6,336.5,262.1,332.9z"/>
		<path class="st94" d="M204.5,348.9c3.6,3.1,4.2,6,2.4,9.5C206.7,355.3,203.5,353,204.5,348.9z"/>
		<path class="st95" d="M263,356c-0.1-1.4,0.3-2.7,1-4c0.6-0.6,1.3-0.7,2.1-0.3c1.5,2.7-1.3,4.6-1.3,7c-1.4,2.1-1.6,5-4.2,6.4
			c-0.2-0.1-0.5-0.1-0.7-0.2c0-1.3,0-2.7,0.1-4C261.3,359.5,261.8,357.6,263,356z"/>
		<path class="st96" d="M266.1,352.1c-0.7,0-1.4,0-2.1,0c2.6-3,1.7-8.1,6-10.1c0.4,0.3,0.6,0.7,0.8,1.2c0.1,0.7,0,1.5-0.2,2.2
			C269,347.5,269.7,351.3,266.1,352.1z"/>
		<path class="st97" d="M281,470c0,1.7,0.1,3.5,0.1,5.2c0,0.3,0,0.5,0,0.8c-1.1,0.6-1.2,2.6-3.1,2c0-2.1,0.1-4.2,0-6.3
			C277.9,469.2,279.1,469,281,470z"/>
		<path class="st26" d="M278,417c0,2,0,4,0,6c-0.7-0.7-1.3-1.3-2-2c-0.9-1-0.8-2,0-3c0.7-2.3-1.7-5.5,2-7c0,0,0,0,0,0
			C278.8,413,278.8,415,278,417z"/>
		<path class="st98" d="M275,326c-1.8-1.8-0.7-4-1-6c0.1-2.2-0.6-4.9,3-5C276.9,318.8,274.7,322.2,275,326L275,326z"/>
		<path class="st99" d="M270.1,343.1c0-0.4-0.1-0.8-0.1-1.1c0-0.7,0-1.3,0-2c1.4-2.5-0.2-3.8-2-5c0.6-2.5,1.8-2.7,3.1-0.6
			c1.4,2.1,2-0.1,3-0.3c0.3,2.3-2,3.8-2,6C272.2,341.6,272.2,343,270.1,343.1z"/>
		<path class="st18" d="M207,397c-0.1,2.4,0.4,4.8-1,7c-2.8-1.5-2.2-4-1.7-6.3C204.6,396.2,205.9,396.5,207,397z"/>
		<path class="st100" d="M196,377c0.7-2,1.3-4,2-6c1.2,0.7,1,1.9,1,3c1.1,2,0,4,0,6C196.8,380.2,195.8,379.2,196,377z"/>
		<path class="st53" d="M231,315c0-0.7,0-1.3,0-2c-0.8-2.3-0.4-4,2-5c0.3,1,0.7,2,1,3C235.2,314,233.1,314.5,231,315z"/>
		<path class="st91" d="M278,478c1-0.6,1.5-2.2,3.1-2c0.8,2-2,4.5,0.9,6.2c0,0.6,0,1.2,0,1.8C279.7,482.6,277.3,481.3,278,478z"/>
		<path class="st26" d="M254,387c1.4,0.2,3.1-0.6,3.8,1.4c0.3,0.8,0.3,2-0.6,2.1c-1.2,0.1-2.7-0.2-3.7-0.9
			C251.4,388.4,253.9,387.9,254,387C254,387,254,387,254,387z"/>
		<path class="st44" d="M199,380c-2.9-2,0.9-4,0-6C199.9,376,205.2,378,199,380z"/>
		<path class="st101" d="M201,404c-1-1.5-1.1-3.2-1-5c0.1-0.9,0.3-1.8,0.4-2.7C201.8,398.9,203,401.4,201,404z"/>
		<path class="st102" d="M276,418c0,1,0,2,0,3c-0.1,1.2-0.4,2.3-1.4,3C273.6,418.9,273.6,418.9,276,418z"/>
		<path class="st90" d="M259.6,349.5c0.4,2,0.8,3.6-0.7,4.7c-0.7,0.5-1.3-0.1-1.5-0.7C256.6,351.6,257.7,350.6,259.6,349.5z"/>
		<path class="st103" d="M283,309c-0.2,3-1.1,5.7-2.9,8.2c0-1.1-0.1-2.1-0.1-3.2C280.4,311.9,281,310,283,309z"/>
		<path class="st104" d="M198,367c0-0.3,0-0.7,0-1c3-1.8,4-0.9,3.3,2.6C200.2,368,199.1,367.5,198,367z"/>
		<path class="st105" d="M225.4,329c-1.9-1.7-1.2-2.9-1.3-4.6C226.5,325.7,226,327,225.4,329z"/>
		<path class="st53" d="M239,315.6c-0.4,1.3-1,2.2-2.2,1.9c-0.5-0.1-1-1-1-1.5c0.1-1.5,1.4-0.9,2.2-1
			C238.7,314.9,239.5,314.8,239,315.6z"/>
		<path class="st106" d="M258.8,369.9c-0.4,0.3-0.7,0.7-1.1,1c-0.4-2.4-0.1-4.5,2.2-5.9c0,0,0.2,0,0.2,0c1.1,1.7,0.2,3.1-0.7,4.5
			C259.2,369.6,259,369.7,258.8,369.9z"/>
		<path class="st107" d="M221.7,333.4c-0.8,0-1.3-0.4-1.4-1.1c-0.2-0.9,0.3-1.7,1.2-1.7c0.4,0,1,0.8,1.2,1.3
			C222.9,332.6,222.4,333.1,221.7,333.4z"/>
		<path class="st108" d="M280,304c0-1,0-2,0-3c1.3,0.2,2.8,0.2,2.3,2.3C281.9,304.7,281,304.5,280,304z"/>
		<path class="st109" d="M209.2,345.1c-2.2-1.5-3.7-2.2-2.3-4.5C208.5,341.3,208.2,342.9,209.2,345.1z"/>
		<path class="st96" d="M268,335c3.2,0.6,3.8,2.3,2,5C270.4,337.9,268.9,336.6,268,335z"/>
		<path class="st90" d="M263,356c-0.3,2.1-1,3.9-3,5C260.3,358.9,261,357.1,263,356z"/>
		<path class="st15" d="M286,484c2.1-1.9,4.7-0.6,7-1C290.9,484.9,288.3,483.6,286,484z"/>
		<path class="st70" d="M288,297c0,1.9,0.3,3.9-1.9,5c0-0.6,0-1.2,0-1.8C287.3,299.4,285.4,296.8,288,297z"/>
		<path class="st110" d="M288,297c-0.6,1.1-1.3,2.1-1.9,3.2c0-1.7,0-3.4-0.1-5.1c0.3,0,0.7,0,1,0c0.6,0.1,1,0.4,1.3,1
			C288.4,296.4,288.3,296.7,288,297L288,297z"/>
		<path class="st111" d="M216,332c0-0.3,0-0.7,0-1c-0.8-0.6-1.5-1.2-0.9-2.3c0.4-0.7,1.1-1.1,1.9-0.7c0,0,0,0,0,0
			C217,329.4,218.4,331.2,216,332z"/>
		<path class="st58" d="M226,315c1-0.3,2-1.6,3,0C228,315.7,227,317.6,226,315z"/>
		<path class="st112" d="M196,397c0-1.3,0-2.7,0-4C197.4,394.3,198.6,395.7,196,397z"/>
		<path class="st0" d="M217,328c-1.6,0.6-1.8,1.6-1,3c-2.7-0.3-1.8-2.4-2-4c0.7-0.3,1.3-0.7,2-1C216.3,326.7,216.7,327.3,217,328z"
			/>
		<path class="st70" d="M288,297c0-0.4-0.1-0.7-0.1-1.1c-0.8-1.7,0.5-2.7,1.2-3.9c0.3-0.3,0.6-0.7,1-1
			C290.1,293.2,290,295.4,288,297z"/>
		<path class="st113" d="M289,292c-0.4,1.3-0.8,2.6-1.2,3.9c-0.3-0.3-0.6-0.6-0.9-1C287,293.6,287.7,292.5,289,292z"/>
		<path class="st114" d="M289,330c-0.3,0-0.7,0-1,0c-1.6,1-2.6,0.2-3.4-1.2c-0.9-3.3-1.8-6.4,1.9-9.1c1.3-1-0.4-4.1,1.5-5.8
			c2.7-5.1,5.6-10.2,4.1-16.8c3.1,1.3,2.3,3.8,3.9,4.8c0,1,0,2,0,3c-1,0.4-1.6,1-2,2c0,0.3,0.1,0.5,0.1,0.8c0.3,3.3,0.2,6.6,0.1,9.9
			c0,1.7-0.9,3,0.9,5c2.2,2.5,1.4,6.5,0.4,9.9c-2.5,1.5-3.1-0.8-3.9-2.1C290.8,329.2,290.1,328.8,289,330z"/>
		<path class="st115" d="M288,314c-0.1,2.8,0.4,5.5-2.2,7.8c-1.8,1.7-0.6,4.7-0.8,7.2c0.3,1-0.1,1.2-1,1c0-0.7,0-1.3,0-2
			c-1.7-2.3-0.8-4.9-0.9-7.4c0.5-1.6,1-3.1,1.9-4.6c0.3-1,0.7-2,1-3c0-0.3,0-0.7,0-1c0-0.6,0.6-0.7,1-1c0.2-0.4,0.3-1.6,0.8-0.7
			C288.3,311.3,288,312.7,288,314z"/>
		<path class="st116" d="M287,311c-0.3,0.3-0.7,0.7-1,1c-1.4-1.1-1.1-2.5-0.7-4.1C286.6,308.6,285.6,310.5,287,311z"/>
		<path class="st117" d="M308,349c0.6,1.1,1.3,2.1,1.9,3.2c1.6,2.2,2.5,4.7,3,7.4c-1.4,2.5,1.3,4.9,0.3,7.4
			c-4.9,1.9-5.5-1.4-5.9-4.9c0.1-0.7-1,0.1-0.3,0c0.4,2.1-0.8,3.7-1.9,5.3c-0.4,0.2-0.9,0.3-1.4,0.2c-3-2-2.2-5.6-3.6-8.3
			c-0.4-1-1.3-1.8-1.4-3c0.8-2.4,0-4.8,0.5-7.2c0.1-0.4,0.3-0.8,0.6-1.2c0.4-0.3,0.7-0.5,1.2-0.6c3.1-0.6,0.9-4.6,3.5-5.5
			C306.8,343.6,304.9,347.5,308,349z"/>
		<path class="st28" d="M312.1,359.9c-0.7-2.6-1.4-5.1-2.2-7.7c0-0.4,0.1-0.8,0.1-1.2c2.3,1.8,2.2,4.9,4,7c0.1,4.5,2.9,8,4.5,11.9
			c1,2.4,1.7,4.6,1.5,7.1c-0.4,0.3-0.9,0.4-1.4,0.1C314.4,372.1,314.1,365.7,312.1,359.9z"/>
		<path class="st118" d="M308,349c-2,0.1-3.1-0.7-3-2.9c0-1.4,0.5-3-1-4.1c-1.2-0.2-2.4-1.1-2.3-2.1c0.2-2.7-1.4,0-1.8-0.8
			c-0.7-0.7-0.8-1.6-0.7-2.6c0.4-1.5-0.2-3.2,0.6-4.6c0.4-0.3,0.8-0.3,1.2,0.1c0.9,1.4,1.8,2.7,2.8,4.1
			C305.2,340.4,306.6,344.7,308,349z"/>
		<path class="st119" d="M306,337c0.4-0.8,1.2-1,2-1c0.1,2,0.2,4.1,0.3,7.1C306.5,340.8,306,339,306,337z"/>
		<path class="st120" d="M298.9,317.2c0,0.9,0.1,1.9,0.1,2.8c0,0.3,0,0.5-0.1,0.8c-1.4,3.3,0.6,7.5-2.3,10.5
			c-1.1-2.3-2.2-13.5-1.6-15.8c0.3-0.5,0.8-0.8,1.3-0.9C298.4,314.3,298.3,316.1,298.9,317.2z"/>
		<path class="st121" d="M297.1,314.9c-0.3,0.1-0.6,0.1-0.9,0.1c-2.9,0-1.8-2.3-2.1-3.7c0.2-1.1,0.2-2.4,1.9-2.3
			c0,0.8,0.1,1.6,0.9,2C297.8,312.3,297.9,313.6,297.1,314.9z"/>
		<path class="st120" d="M299,320c1.1,0.8,0.9,2,1.1,3.1c0.5,2.4,0.8,4.8-0.2,7.1c-3.8-3-1.5-6.6-1-10.1L299,320z"/>
		<path class="st72" d="M299.9,330c0.1-2.3,0.2-4.6,0.2-6.9c1.8,2.8,0.5,6,0.9,9c-0.3,0-0.6-0.1-0.9-0.2
			C299.5,331.3,299.4,330.6,299.9,330z"/>
		<path class="st73" d="M297.1,314.9c-0.1-1.3-0.1-2.6-0.2-3.9c2.2,1.5,2.2,3.8,2.1,6.1C298.3,316.4,297.7,315.7,297.1,314.9z"/>
		<path class="st73" d="M296,309c-0.9,0.4-1,1.2-1.1,2c-0.5,0.3-0.9,0.2-1.3-0.3c0-1.3-0.5-2.6,0.4-3.7c0,0,0,0,0,0
			C295.3,307,296,307.7,296,309z"/>
		<path class="st122" d="M292,464c0.3,0,0.7,0,1,0c2.8,0.5,4.8,1.9,5.3,4.9c0.2,0.6,0.2,1.3,0.2,2c0.2,1,1,2,0.5,3.2
			c-0.3,0-0.7,0-1,0c-1,0.2-2.4,0.1-1.8,1.9c0.4,1.3,1.1,2.8-0.2,4.1c-1,0-2,0-3,0c-1.9-1.5-2.6-3.4-1.6-5.7
			c0.9-2.1,0.5-4.2,0.6-6.3C290.9,466.7,290.8,465.3,292,464z"/>
		<path class="st123" d="M281,439c3.3-0.3,1.1-4.8,4.4-5.5c0.7,3.5,1.7,6.8-1.2,9.9c-1,1-1.2,2.3-1.2,3.7
			C281.5,444.5,281.5,441.7,281,439z"/>
		<path class="st124" d="M296,480c0.1-1.5-0.3-2.8-1.3-4c-1-1.1-0.1-2,0.7-2.9c1.5-1.5,1.7,0.7,2.6,0.8c0.1,0.8,0.1,1.7,0.5,2.3
			c0.7,1.2,2.7,2,1.6,3.6C299.1,481.3,297.4,479.5,296,480z"/>
		<path class="st125" d="M298.1,470.9c0-0.7-0.1-1.3-0.1-2c-1.5-4.3-3.4-8.6-0.7-13.1c1-0.2,1.6,0.3,2,1.1c0.2,1.7,0.5,3.3-0.2,5
			c0,3-0.1,6-0.1,9C298.6,471.3,298.3,471.3,298.1,470.9z"/>
		<path class="st123" d="M283,457c4.3,4,2.2,8,0,12C283,465,283,461,283,457z"/>
		<path class="st126" d="M298,445c0-1,0-2,0-3c-0.9-4.1-0.4-4.8,3.2-5.7c0.7,1.9-0.2,3.8-0.3,5.7c-0.3,0.7-0.7,1.4-1,2.1
			C299.4,444.7,299,445.5,298,445z"/>
		<path class="st127" d="M284,478c0.2-1.8,1.2-2.3,2.7-1.6c0.7,0.3,1.8,0.5,1.7,1.5c-0.1,1.4-2.1,0.8-2.5,2
			C284.7,480,284,479.3,284,478z"/>
		<path class="st128" d="M298,445c0.6-0.3,1.3-0.6,1.9-0.9c0,2.3,0,4.5,0,6.8c-0.4,0.4-0.9,0.6-1.4,0.6c-0.6-0.2-1-0.5-1.2-1
			C296.9,448.5,296.8,446.7,298,445L298,445z"/>
		<path class="st78" d="M299.1,451c0.3,0,0.6,0,0.9-0.1c-0.4,3.7,1.1,7.5-0.9,11.1c-0.1-1.7-0.1-3.4-0.2-5
			C297.9,454.9,297.3,452.9,299.1,451z"/>
		<path class="st129" d="M281,424c-1.7-1.4-0.7-3.4-1.1-5.1c0,0,0,0,0,0c0.8-0.6,1.5-0.6,2.3,0c1.1,1.6,1.1,3.2,0.2,4.8
			C282.1,424.2,281.6,424.3,281,424z"/>
		<path class="st130" d="M281,424c0.3,0,0.7,0,1,0c1.3-0.5-0.8-3.8,2.3-2.8c0.1,1.3,0.5,2.6-0.3,3.8c-0.7,0.3-1.3,0.7-2,1
			C281.2,425.6,281,424.8,281,424z"/>
		<path class="st131" d="M301,442c-1.8-1.7,0.7-3.3,0-5c0.3-0.3,0.6-0.3,1,0c0,1.6,0,3.3-0.1,4.9C301.6,441.9,301.3,442,301,442z"/>
		<path class="st132" d="M281,433c0,2,0,4,0,6C279.5,437,279.5,435,281,433z"/>
		<path class="st133" d="M298.1,470.9c0.3,0,0.6,0,0.9,0c0.9,1,2.2,2,0.1,3C298.7,473,298.4,472,298.1,470.9z"/>
		<path class="st134" d="M302,437c-0.3,0-0.6,0-1,0c-2.6,0.7-3,2.7-3,5c-0.7,0-1.3,0-2,0c-0.7-0.5-0.9-1.3-1-2.1
			c-0.1-1.1,0.3-2.1,1-2.9c0.8-1.5-2.1-5.7,3-4c-0.9,2.2,0.5,2.2,1.9,1.9C304,434.2,303.4,435.4,302,437z"/>
		<path class="st117" d="M302.9,391.8c-0.3,0.1-0.6,0.2-0.9,0.2c-1.2,1.1-1.9,3.8-3.9,2.8c-2-1-1.3-3.4-1-5.3c0.7-2,1.7-3.9,0.3-6.1
			c-0.8-1.3-0.8-3.2,0.6-4.1c1.7-1.1,2.6,0.6,3.5,1.7c2.5,3.1,2.8,3,4.4-0.7c0.9-2,0.4-4.3,1.7-6.2c3.3-0.7,1.8,3.3,3.7,3.9
			c3.1-1.6,0.3-5.5,2.9-7.3c3,1.9,2.9,4.9,2.8,7.9c-0.1,0.5-0.3,0.9-0.6,1.3c-1.1,1.1-2.9,1.3-3.6,2.9c-2.1,2.6-4.5,4.9-7.2,6.7
			C304.5,390,303.3,390.5,302.9,391.8z"/>
		<path class="st135" d="M294,398c2.1-5.9,0.5-12,1-18c-2.7-4-1.2-8.1,0.3-11.8c1.1-2.9,2.8-0.6,4.1,0.5c0.8,0.8,1.3,1.7,1.6,2.7
			c1.1,3.5,3.1,6.6,4.5,9.9c-0.1,1.2-0.2,2.5-1.6,2.8c-1.6,0.3-1.8-1.1-2.2-2.2c-0.7-1.5-1.9-2.7-2.6-4.3c-0.6-1.7-1.3-3.3-1.2-5.5
			c-0.3,2.2,0.6,3.9,0.2,5.6c-0.5,1.2-0.6,2.6-0.9,3.9c-0.4,6.4,0.8,13-1.1,19.3c-0.4,0-0.7,0-1.1,0.1c0-0.8-0.2-1.6-1-2
			c-0.2-0.2-0.3-0.4-0.2-0.7C293.8,398.1,293.9,398,294,398z"/>
		<path class="st87" d="M300,401c4.6-1.1,3-6.2,5.7-9.3c2,5.5-0.1,9.1-3.7,12.3C300.9,403.3,300.4,402.1,300,401z"/>
		<path class="st17" d="M305.3,389.1c2.3-2.3,5-4.3,6.8-7.1c1.2-0.9,2.4-1.7,4-1.6c0.8-0.2,1.4,0,2,0.5c-0.7,0.7-1.3,1.3-2,2
			c-4.6,1.4-6.6,6.5-11.2,7.9C304.4,390.2,304.4,389.6,305.3,389.1z"/>
		<path class="st136" d="M296.1,400.9c0.2-6.7-0.9-13.4,0.7-20c0.9,1.9,1.3,3.9,1.3,5.9c-0.9,3.4-0.8,6.9,0,10.3
			C298.2,398.8,297.7,400.2,296.1,400.9z"/>
		<path class="st137" d="M298.1,397.2c-2.3-3.2-0.7-6.8-1-10.1c1.6,0,1.6,0.8,0.9,2c0,1.7,0,3.4,0,5.7c1.7-1.2,2.9-2,4-2.7
			C301.9,394.6,299.7,395.7,298.1,397.2z"/>
		<path class="st138" d="M300,401c2,0.1,2,1.5,2,3c0,0.7,0,1.3,0,2c-4.3,2.3-1.6-2.4-3-3C299,402.2,299.2,401.4,300,401z"/>
		<path class="st138" d="M303,415c-4.3-1.3-4.1-3.4-1-6c0.1,1.4-0.5,2.9,1,4C303,413.7,303,414.3,303,415z"/>
		<path class="st139" d="M305.3,389.1c-0.2,0.6-0.3,1.2-0.5,1.8c-0.6,0.3-1.3,0.6-1.9,0.9C301.9,389.3,303.4,389.1,305.3,389.1z"/>
		<path class="st140" d="M318,381c-0.7,0-1.4,0-2.1,0c-0.3-0.3-0.3-0.5-0.2-0.7c0.1-0.2,0.2-0.2,0.4-0.2l0,0c1-1,1.6-2.4,3-3.1
			c0.3,0,0.7,0,1,0C321.3,379.3,320.8,380.7,318,381z"/>
		<path class="st141" d="M324,383c-0.8-0.1-1.7-0.2-1.5-1.3c0.1-0.3,0.8-0.6,1.2-0.6C325,381.5,324.1,382.3,324,383
			C324,383,324,383,324,383z"/>
		<path class="st142" d="M294,429c1.2-3.8-0.7-7.7,0-11.5c0.1-0.8,0-2,1-1.9c1.3,0.1,0.9,1.5,1,2.4c0.6,0.5,1.1,1.3,1,2.1
			c-0.4,2.9,1.2,0.9,2,0.9c1.3-0.2,0.5-2.8,2-2.1c1.6,0.7,0.8,2.6,1,4c-1.4,1.6-1.5,4.2-4,5c-1.3,0.9-2.3,2.3-4.1,2.2
			C293.6,429.8,293.6,429.4,294,429z"/>
		<path class="st143" d="M292,442c-3.5-0.5-5.7-3.7-4.1-6.2c0.8-1.4,2.1-2.5,3.1-3.8c0.3-0.2,0.7-0.2,1,0c0.3,1.3,0.7,2.7,1,4
			c1.8,1.9-2.4,2.9-0.6,4.8C292.5,441.3,292.3,441.7,292,442z"/>
		<path class="st144" d="M292,432c-0.3,0-0.7,0-1,0c-3.3-1-3.3-1,0-5.6c1.4,0.4,1.1,2.9,3,2.6c0,0.3,0,0.6,0,0.9
			c0,0.7-0.6,0.8-1,1.1C292.7,431.3,292.3,431.7,292,432z"/>
		<path class="st87" d="M292,441c-5-2.7,0.6-3.3,1-5c1,0.3,2,0.7,3,1c0,1,0,2,0,3C294.7,440.7,293.3,440.5,292,441z"/>
		<path class="st145" d="M293,431c0.3-0.4,0.7-0.8,1-1.1c1.5-0.4,2.3-2,4-1.9C297.4,430.8,295.3,431,293,431z"/>
		<path class="st146" d="M289,330c0.1-1.2,0.4-2.5,1.8-2.5c1.4,0,1,1.4,1.3,2.3c0.4,1.6,1.5,2.5,2.9,3.2c1.5-0.7,2.5,0,3.5,1.1
			c0.4,0.7,0.5,1.5,0.5,2.4c0,0.6,0,1.1,0,1.7c0.7,6.3,0.1,12.5-0.5,18.8c0,0.6-0.3,1.1-0.9,1.4c-2-0.8-1.8-2.7-2-4.3
			c0.7-4.6,1.2-9.1,0.9-13.5c0,2.4,0,5.1,0,7.7c-1,3.1-2.9,5.8-3.3,9c-0.2,0.8-0.5,1.4-1.2,1.9c-2,1.6-0.2,4.2-2,7
			c-0.9-6.3-2.8-11.7,0.9-16.9c0.7-1,1-2,1.1-3.1c0.2-3.6-0.2-7.2,0.6-10.8C293.2,332.8,291.5,330.8,289,330z"/>
		<path class="st147" d="M266.1,352.1c2.1-1.9,1.7-5.2,3.9-7.1c1.2,0.3,1.6-1.9,3-0.9c-0.4,2.5,2.1,4.4,1.1,7.1
			c-0.6,1.5-1.1,1.3-2.1,0.9c-1.6-1.6-2.1,0.3-3,1c-1,2,1.3,2.2,1.9,3.4c0.6,1,1.7,2.1,0.5,3c-1.4,1-1.8-0.6-2.5-1.5
			c-0.5-0.7-0.5-1.9-2.1-2.1c-0.6,2.3-2.6,4.4,0.5,6.7c1.5,1.1,0.4,2.3-1.3,2.5c-1.9,1.6-1.9,4.5-4,6c-1,0.3-2,0.7-3,1
			c-0.1-0.7-0.1-1.4-0.2-2.1c0,0,0,0,0,0c2.5-3.3,3.5-7.4,5-11.1C264.6,356.5,265.4,354.3,266.1,352.1z"/>
		<path class="st148" d="M284,425c0-1.3,0-2.7-0.1-4c-0.7-0.6-1.2-1.3-1.9-2c-0.7,0-1.4,0-2.1-0.1c-0.2-2.9,1.2-5.3,2-7.9
			c0.4-0.4,0.7-0.7,1.1-1.1c3.9-0.6,6.5,1.9,4.6,5.1C285.6,418.3,285.6,421.8,284,425z"/>
		<path class="st126" d="M298,445c0,2,0,4,0.1,6c0.5,1.7,0.8,3.3-0.2,4.9c-2.4,4.3,0.2,8.7,0,13c-1-2.3-4.1-2.5-4.9-5
			c2.4-5,3.7-10.3,3-15.9C295.9,446.6,296.7,445.6,298,445z"/>
		<path class="st149" d="M292,359c0-0.7,0-1.3,0-2c0.9-0.6,1.7-0.6,2.4,0.2c1.6,3.1,1.4,6.5,1.1,9.7c-0.4,4.4-0.8,8.8-1.5,13.1
			c-2.7,1.1-2-1.1-2-2.2C292,371.5,292,365.3,292,359z"/>
		<path class="st150" d="M294,380c0-7.7,0-15.3,0-23c1.1-1.4,1.8-1.7,2.6,0.4c0.9,2.4,0.1,5.3,2.2,7.3c1.1,1.7,1.7,3.5,0.2,5.3
			c-0.7-0.8-1.3-1.7-2.3-2.9c-1.4,4.7-1.9,8.8-1.7,12.9C294.7,380,294.3,380,294,380z"/>
		<path class="st147" d="M292,401c-2.3,2.5-0.2,4,1.1,5.8c1,1.3,1.3,2.8,0.4,4.3c-0.5-0.4-1-0.7-1.5-1.1v0c-0.3-0.8-0.4-1.6-0.9-2.3
			c-1.7-2.6-2.3-8.1-1.1-10.7c0.7-0.6,1.3-0.6,2,0l0,0C292.8,398.3,293.2,399.7,292,401z"/>
		<path class="st151" d="M268,388c-1.3-0.7-2.7-1.3-4-2c0.7-0.5,1.3-0.6,2,0c1.7-2.6,5.3-3.7,5.5-7.6c0-0.9,1.3-1.5,2.3-0.8
			c1.3,0.9,1.3,2.2,0.9,3.5c-0.4,1.6-2.8,1.8-2.8,3.8c-0.1,0.2-0.1,0.4-0.2,0.7C271,387.1,269.7,388,268,388z"/>
		<path class="st152" d="M268,375.2c-1.7,0.3-2.2-1-1.9-2.4c0.6-2.7,1.1-5.6,4.2-6.7c0.9-0.3,1.8,0.8,1.2,1.5
			C269.5,369.9,274.8,375.2,268,375.2z"/>
		<path class="st153" d="M262,371c1.3-2-0.4-6.1,4-6c0.9,4.5-1.9,9-6.7,10.4C259.9,373.5,262.3,373,262,371z"/>
		<path class="st154" d="M292,464c0,1.3,0,2.7,0,4c-2,0.7-3.1-0.7-3-3.8c0-1.1-0.3-2.6,1.2-2.8C292.3,461,291.8,462.8,292,464z"/>
		<path class="st155" d="M289.8,418.1c1.5-0.1,2.1,0.7,2.1,2.1c-0.1,1.6-1,2.9-2.5,3.3c-1.4,0.3-1.3-1-1.4-2
			C287.8,419.3,288.4,418.2,289.8,418.1z"/>
		<path class="st156" d="M284,320c0,2.7,0,5.3,0,8c-3.9-2.3-1.2-6-2-8.9c0.3,0,0.6-0.1,0.9-0.1C283.6,319,283.7,319.6,284,320z"/>
		<path class="st155" d="M299,421c-0.6,1-1.1,2.1-2.5,2.2c-1-1.7-0.2-3.5-0.5-5.2C299.3,416.7,298.8,419.2,299,421z"/>
		<path class="st144" d="M292,441c0.6-3.3,2.4-1.5,4-1c0,0.7,0,1.3,0,2c-1.3,4.1-2.7-0.2-4,0C292,441.7,292,441.3,292,441z"/>
		<path class="st157" d="M292,401c0-1.3,0-2.7,0-4c0.7,0.3,1.3,0.7,2,1c0,0.3,0,0.7,0,1c0.2,1.8,0.3,3.5,0.5,5.6
			C292.6,404,292.2,402.6,292,401z"/>
		<path class="st158" d="M292,410c-0.1,1.1,0.3,2.5-1.3,2.8c-1.3,0.2-1.4-0.9-1.7-1.9c-0.3-1.2-0.8-2.3-1.5-4.2
			C289.4,408.1,290.7,409.1,292,410C292,410,292,410,292,410z"/>
		<path class="st158" d="M272,392c-0.3-0.7-0.7-1.3-1-2c-1.4-2,0.3-3.4,1-5c0,0,0,0,0,0c0.3-0.1,0.8-0.4,0.9-0.3
			C274,385.8,273.4,390.5,272,392z"/>
		<path class="st146" d="M284,330c0.3-0.3,0.7-0.7,1-1c1,0.3,2,0.7,3,1c0,1.5-0.1,3.1-2.2,2.9C283.9,332.8,284.1,331.3,284,330z"/>
		<path class="st159" d="M273,344c-1.2-0.3-1.2,3.1-3,0.9c0-0.6,0.1-1.2,0.1-1.8c0.7-1,1.3-2.1,2-3.1
			C273.5,341.1,272.9,342.6,273,344z"/>
		<path class="st160" d="M266,386c-0.7,0-1.3,0-2,0c-1-0.4-1.6-1-2-2C264.6,382.1,266,382.7,266,386z"/>
		<path class="st161" d="M269,353c0.2-1.3-0.7-3.3,1.3-3.7c2-0.4,1.6,1.5,1.7,2.7C271,352.3,270,352.7,269,353z"/>
		<path class="st162" d="M278,399c0.1-1.6,1-2.3,2.5-1.6c0.3,0.1,0.8,0.8,0.7,1C280.4,399.8,279.2,399.6,278,399
			C278,399,278,399,278,399z"/>
		<path class="st163" d="M292,397c-0.7,0-1.3,0-2,0c0.2-0.8-0.5-2.1,0.8-2.2C291.9,394.8,291.9,396.1,292,397z"/>
		<path class="st0" d="M278,417c0-2,0-4,0-6C279.5,413,279.5,415,278,417z"/>
		<path class="st87" d="M272,385c-0.3,1.7-0.7,3.3-1,5c-1.4,0-2.4-0.7-3-2C269.3,387,270.7,386,272,385z"/>
		<path class="st0" d="M275,326c0.6-0.5,1.1-1.3,1.8-1.5c0.6-0.2,0.5,0.6,0.3,1C276.6,326.6,276,327.3,275,326
			C275,326,275,326,275,326z"/>
		<path class="st164" d="M284,320c-0.4-0.4-0.7-0.7-1.1-1.1c0.1-1.3,0.7-2.4,2-2.9C285.2,317.5,284.7,318.8,284,320z"/>
		<path class="st78" d="M263.9,358.8c-1.3,3.9-0.4,8.7-5,11.1c0.4-1.6,0.8-3.2,1.2-4.9C261.4,363,262.6,360.9,263.9,358.8z"/>
		<path class="st165" d="M297.6,334c-0.9-0.3-1.7-0.7-2.6-1c0-3.3,0-6.5,0-9.8c-1.3-0.5-1,1.8-2.2,1.2c-0.9-0.4-0.8-1.4-0.7-2.1
			c0.2-1.4,0.6-2.9,0.9-4.3c1.3-2.2-0.3-4.8,1-7c0.3,0,0.6,0,0.9,0c0.3,1.4-0.4,3.1,1.3,4c-0.7,5.4-0.5,10.8,0.7,16.2
			C297.8,331.9,298.9,332.7,297.6,334z"/>
		<path class="st71" d="M294,311c-0.4,2.3,0.9,4.9-1,7c0.5-3.6-1.1-7.5,1-11C294,308.3,294,309.7,294,311z"/>
		<path class="st13" d="M314,371c0.2,3.5,1.6,7.3-3.3,9.2c-2-1.4-0.8-4.5-2.7-6.2c-2.3-1.8-4-3.8-3-7c-0.5-2.5,2.6-4.3,1.2-7.1
			c2.9,2,1.9,7.4,6.8,7.1C315,367.9,314.3,369.5,314,371z"/>
		<path class="st166" d="M305.2,381.1c-3.3-2.1-3.6-6-5.2-9.1c2.2-3.6,0.1-6.4-1.6-9.3c-0.9-1.5-2.9-2.9-0.4-4.7l0,0
			c1-0.2,2-0.2,2.9,0c1,3,2,6,3,9c1.5,3.1,2.9,6.2,3.3,9.7C307.4,378.7,307.3,380.3,305.2,381.1z"/>
		<path class="st15" d="M305.2,381.1c2.7-2.5,0.8-5.2,0.3-7.8c-0.4-2.1-1-4.1-1.6-6.2c0.4,0,0.7,0,1.1,0c1,2.3,2,4.7,3,7
			c0.1,2.8-0.1,5.6-1.5,8.2c-0.8,1.6-1.4,3.1-3.4,3.1c-1.8,0-1.8-1.7-2.2-2.8c-0.4-1.2-0.9-2.1-2.5-2.8c-2.1,3,4,6.7-0.5,9.4
			c0-0.8-0.2-1.5-0.9-2c-0.1-2-0.2-4.1-0.3-6.1c0.1-1.3,0.1-2.7,0.2-4c1-1.4,2-1.5,3,0c0.8,1.6,1.5,3.1,2.3,4.7
			C304,385.1,304.6,383,305.2,381.1z"/>
		<path class="st167" d="M314,371c-1.7-1,0.3-2.9-1-4c0-0.5,0.1-1.3-0.1-1.4c-4.4-1.3-0.9-3.8-0.9-5.8c2.3,5.7,4.6,11.4,7,17.1
			c0,2-1.1,2.9-3,3.1C316,376.9,316.3,373.7,314,371z"/>
		<path class="st168" d="M300,339c4-2.5,2.1,2.8,4,3c0,1.6,0,3.2,0,4.8c-0.1,2.6-1.6,1.8-3,1.2c-1.7-1.8-1-4.2-1.6-6.2
			c-0.1-0.5-0.1-1-0.1-1.5C299.4,339.8,299.6,339.4,300,339z"/>
		<path class="st169" d="M300.9,358c-1,0.6-2,0.6-2.9,0c0-7,0-14,0-21c2.4,0.2,1.1,2.2,1.5,3.3c0.7,2.9,0.6,5.8,0,8.7
			c-0.3,2.3,0.5,4.7-0.3,7C299.8,356.6,300.4,357.3,300.9,358z"/>
		<path class="st170" d="M299,349c0-3,0-6,0-9c0.3-0.5,0.7-0.5,1,0c0,0.3,0,0.7,0,1c0.7,2.3,0.7,4.7,0,7c0,0.3,0,0.7,0,1
			C299.7,349.4,299.3,349.5,299,349z"/>
		<path class="st171" d="M299,349c0.3,0,0.7,0,1,0c-0.8,2.3,1.8,4.9-0.8,7C299.1,353.6,299.1,351.3,299,349z"/>
		<path class="st118" d="M300,348c0-2.3,0-4.7,0-7c1.9,2.1,0.6,4.7,1,7c0,0-0.5,0-0.5,0L300,348z"/>
		<path class="st97" d="M297.6,334c-0.2-0.9-0.5-1.9-0.7-2.8c0.8-3.7-1.3-7.9,2-11.1c0.5,3.3-0.9,6.7,1,9.8c0.1,0.6,0.1,1.3,0.2,1.9
			c-0.6,1.4,1.7,2.8-0.1,4.2c-0.6,0.1-1.3,0.3-1.9,0C298,335.3,297.8,334.7,297.6,334z"/>
		<path class="st172" d="M298.1,336c0.6-0.1,1.3-1.1,1.9,0c0,1,0,2,0,3c0,0.3,0,0.7,0,1c-0.3,0-0.7,0-1,0c-0.2-1.1,0.1-2.3-1-3
			C298,336.6,298.1,336.3,298.1,336z"/>
		<path class="st173" d="M297.9,455.9c0.1-1.6,0.1-3.3,0.2-4.9c0.3,0,0.6,0,0.9,0c-0.1,2-0.1,3.9-0.2,5.9
			C298.6,456.6,298.2,456.3,297.9,455.9z"/>
		<path class="st174" d="M282,419c1.3,0,1.9,0.6,1.9,2c-0.6,1-1.3,2-1.9,3C282,422.3,282,420.7,282,419z"/>
		<path class="st175" d="M316.1,380.1c-0.1,0.3-0.1,0.6-0.2,0.9c-1.3,0.4-2.6,0.7-3.9,1.1C312.8,380.1,314.3,379.9,316.1,380.1z"/>
		<path class="st176" d="M299,362c3.5,2.3,2.9,6.4,3.5,9.7c0.4,2-1.6,0.3-2.5,0.3c0-0.8-0.2-1.6-1-2c0.1-1.8-0.1-3.5-1-5
			c-1-0.7-1.9-1.5-1.1-2.8C297.4,361.4,298.2,361.4,299,362z"/>
		<path class="st177" d="M300,377c-1-0.6-2-0.6-3,0c0-1.6,0-3.2,0-5.4C299,373.2,299.6,375,300,377z"/>
		<path class="st178" d="M299,362c-2.6,0.2-1.5,1.7-1,3c-3.2-0.7-1.5-3.4-2-5.1c-0.4-1.1,1.4-3.8-2-2.9c-0.7,0-1.3,0-2,0
			c0.6-3,0.7-6.3,4-8c0.4,1.7-0.2,3.5,1,5c0.2,1.4-0.5,3,1,4C296.7,359.7,298.5,360.7,299,362z"/>
		<path class="st157" d="M297,354c-1.7-1.4-2.3-3-1-5c0-3.6,0-7.2,0-10.8c0.3,0,0.7,0,1,0C297,343.5,297,348.7,297,354z"/>
	</g>
</g>
</svg>
