<?xml version="1.0" encoding="utf-8"?>
<!-- Generator: Adobe Illustrator 23.0.5, SVG Export Plug-In . SVG Version: 6.00 Build 0)  -->
<svg version="1.1" id="Capa_1" xmlns="http://www.w3.org/2000/svg" xmlns:xlink="http://www.w3.org/1999/xlink" x="0px" y="0px"
	 viewBox="0 0 595.3 841.9" style="enable-background:new 0 0 595.3 841.9;" xml:space="preserve">
<style type="text/css">
	.st0{fill:#417630;}
	.st1{fill:#FFFFFF;}
	.st2{fill:#A9B995;}
	.st3{fill:#598948;}
	.st4{fill:#7E9E65;}
	.st5{fill:#477334;}
	.st6{fill:#437532;}
	.st7{fill:#6B8F3B;}
	.st8{fill:#417731;}
	.st9{fill:#3F7730;}
	.st10{fill:#437632;}
	.st11{fill:#407730;}
	.st12{fill:#447533;}
	.st13{fill:#437432;}
	.st14{fill:#417532;}
	.st15{fill:#446F2C;}
	.st16{fill:#427532;}
	.st17{fill:#6C742F;}
	.st18{fill:#A88E42;}
	.st19{fill:#437633;}
	.st20{fill:#456E2C;}
	.st21{fill:#487532;}
	.st22{fill:#7A8938;}
	.st23{fill:#447634;}
	.st24{fill:#407732;}
	.st25{fill:#46712F;}
	.st26{fill:#3E7932;}
	.st27{fill:#4A6E2D;}
	.st28{fill:#6A8739;}
	.st29{fill:#467635;}
	.st30{fill:#457236;}
	.st31{fill:#4A7837;}
	.st32{fill:#3F722F;}
	.st33{fill:#467534;}
	.st34{fill:#467234;}
	.st35{fill:#427B32;}
	.st36{fill:#3E722F;}
	.st37{fill:#3D7A31;}
	.st38{fill:#427130;}
	.st39{fill:#417B33;}
	.st40{fill:#396E2E;}
	.st41{fill:#416833;}
	.st42{fill:#39682C;}
	.st43{fill:#436932;}
	.st44{fill:#3A6D2E;}
	.st45{fill:#447531;}
	.st46{fill:#C0A04B;}
	.st47{fill:#427731;}
	.st48{fill:#DBC56A;}
	.st49{fill:#C6AA4E;}
	.st50{fill:#417632;}
	.st51{fill:#D8CB74;}
	.st52{fill:#3D7931;}
	.st53{fill:#447732;}
	.st54{fill:#427832;}
	.st55{fill:#427334;}
	.st56{fill:#E4E68F;}
	.st57{fill:#E2CA6E;}
	.st58{fill:#467435;}
	.st59{fill:#EAE28B;}
	.st60{fill:#4A7838;}
	.st61{fill:#416C30;}
	.st62{fill:#376B2E;}
	.st63{fill:#487237;}
	.st64{fill:#427831;}
	.st65{fill:#427835;}
	.st66{fill:#426C34;}
	.st67{fill:#D7B863;}
	.st68{fill:#3C6B30;}
	.st69{fill:#497535;}
	.st70{fill:#457533;}
	.st71{fill:#3B672F;}
	.st72{fill:#4D7439;}
	.st73{fill:#457633;}
	.st74{fill:#51793E;}
	.st75{fill:#40692F;}
	.st76{fill:#567A44;}
	.st77{fill:#D4C77E;}
	.st78{fill:#CABB5B;}
	.st79{fill:#C9A04B;}
	.st80{fill:#3E6C2F;}
	.st81{fill:#B29348;}
	.st82{fill:#CCAC54;}
	.st83{fill:#BC9F4B;}
	.st84{fill:#C5A54D;}
	.st85{fill:#407830;}
	.st86{fill:#C2B35E;}
	.st87{fill:#E7DD7E;}
	.st88{fill:#DED376;}
	.st89{fill:#DFDA87;}
	.st90{fill:#E4DD86;}
	.st91{fill:#E6E592;}
	.st92{fill:#E0DD8C;}
	.st93{fill:#427A31;}
	.st94{fill:#B49442;}
	.st95{fill:#D0B85D;}
	.st96{fill:#A1934A;}
	.st97{fill:#4A6E2B;}
	.st98{fill:#AA9D4F;}
	.st99{fill:#618037;}
	.st100{fill:#A98A3B;}
	.st101{fill:#BC9A48;}
	.st102{fill:#809946;}
	.st103{fill:#507B33;}
	.st104{fill:#426C2C;}
	.st105{fill:#DAC66C;}
	.st106{fill:#C2A04C;}
	.st107{fill:#CBAA55;}
	.st108{fill:#CDBA68;}
	.st109{fill:#C7C171;}
	.st110{fill:#427531;}
	.st111{fill:#417730;}
	.st112{fill:#7F9749;}
	.st113{fill:#407731;}
	.st114{fill:#407632;}
	.st115{fill:#4E7530;}
	.st116{fill:#80984B;}
	.st117{fill:#3F7831;}
	.st118{fill:#406D2C;}
	.st119{fill:#5B7B32;}
	.st120{fill:#426B2B;}
	.st121{fill:#E9E78C;}
	.st122{fill:#C4B05B;}
	.st123{fill:#AA9C52;}
	.st124{fill:#447336;}
	.st125{fill:#E0DD86;}
	.st126{fill:#447731;}
	.st127{fill:#3F7230;}
	.st128{fill:#447633;}
	.st129{fill:#447C31;}
	.st130{fill:#447337;}
	.st131{fill:#447B32;}
	.st132{fill:#437A32;}
	.st133{fill:#C19D44;}
	.st134{fill:#DFCE6E;}
	.st135{fill:#A4A953;}
	.st136{fill:#DCCE73;}
	.st137{fill:#D3C76B;}
	.st138{fill:#CEB755;}
	.st139{fill:#4E7132;}
	.st140{fill:#CAAE58;}
	.st141{fill:#D7B064;}
	.st142{fill:#5C7630;}
	.st143{fill:#DDD37B;}
	.st144{fill:#EEDF84;}
	.st145{fill:#D9CB70;}
	.st146{fill:#E2D56A;}
	.st147{fill:#EDE082;}
	.st148{fill:#EFE484;}
	.st149{fill:#E4D57D;}
	.st150{fill:#F1E387;}
	.st151{fill:#B38E3D;}
	.st152{fill:#B59040;}
	.st153{fill:#AA9041;}
	.st154{fill:#B7893E;}
	.st155{fill:#B99146;}
	.st156{fill:#CCB65E;}
	.st157{fill:#D3B158;}
	.st158{fill:#B99742;}
	.st159{fill:#EEE584;}
	.st160{fill:#E3DC84;}
	.st161{fill:#EBE483;}
	.st162{fill:#F2D979;}
	.st163{fill:#E8D17B;}
	.st164{fill:#ECE287;}
	.st165{fill:#E6DE80;}
	.st166{fill:#E9D981;}
	.st167{fill:#DCC976;}
	.st168{fill:#E1D274;}
	.st169{fill:#DFCD6D;}
	.st170{fill:#EFE084;}
	.st171{fill:#E4D073;}
	.st172{fill:#E7D376;}
	.st173{fill:#EBD97D;}
	.st174{fill:#EEDF83;}
	.st175{fill:#F3E48A;}
	.st176{fill:#D8B75B;}
	.st177{fill:#DEC567;}
	.st178{fill:#BFA755;}
	.st179{fill:#D2D06E;}
	.st180{fill:#D6BA62;}
	.st181{fill:#DDCF72;}
	.st182{fill:#39783E;}
	.st183{fill:#BDAA5B;}
	.st184{fill:#DBCA6F;}
	.st185{fill:#D3BD63;}
	.st186{fill:#CBAD54;}
	.st187{fill:#E6D97A;}
	.st188{fill:#E4E48C;}
	.st189{fill:#C5A24D;}
	.st190{fill:#D7D07C;}
	.st191{fill:#C8BD6A;}
	.st192{fill:#D3CC76;}
	.st193{fill:#3F6C2C;}
	.st194{fill:#9D843B;}
	.st195{fill:#968239;}
	.st196{fill:#456D2C;}
	.st197{fill:#748C3E;}
	.st198{fill:#AA8D40;}
	.st199{fill:#697A34;}
	.st200{fill:#B89D4D;}
	.st201{fill:#7D9543;}
	.st202{fill:#437833;}
	.st203{fill:#EBDF7D;}
	.st204{fill:#E2DB86;}
	.st205{fill:#E8E892;}
	.st206{fill:#E1E08A;}
	.st207{fill:#D6CF79;}
	.st208{fill:#C9BE6C;}
	.st209{fill:#A78E42;}
	.st210{fill:#F0E986;}
	.st211{fill:#DBD075;}
	.st212{fill:#E9DE7F;}
	.st213{fill:#EBE78C;}
	.st214{fill:#E1D479;}
	.st215{fill:#D0BD65;}
	.st216{fill:#EAE188;}
	.st217{fill:#E4E895;}
	.st218{fill:#A69144;}
	.st219{fill:#BAA04E;}
	.st220{fill:#BFA854;}
	.st221{fill:#E3D173;}
	.st222{fill:#ECD77C;}
	.st223{fill:#E2E795;}
	.st224{fill:#DFD376;}
	.st225{fill:#E5E38A;}
	.st226{fill:#D5C66A;}
	.st227{fill:#537A33;}
	.st228{fill:#E8DE7E;}
	.st229{fill:#536C28;}
	.st230{fill:#D1CF78;}
	.st231{fill:#E9E488;}
	.st232{fill:#E9DC7E;}
	.st233{fill:#E8E07E;}
	.st234{fill:#E3D476;}
	.st235{fill:#DBC56D;}
	.st236{fill:#DFD478;}
	.st237{fill:#EBE07F;}
	.st238{fill:#F2E98C;}
	.st239{fill:#ECE684;}
	.st240{fill:#E2D578;}
	.st241{fill:#DCCD6E;}
	.st242{fill:#457734;}
	.st243{fill:#D9D579;}
	.st244{fill:#86A551;}
	.st245{fill:#C4A24B;}
	.st246{fill:#C9A64E;}
	.st247{fill:#CDAB54;}
	.st248{fill:#C4A14B;}
	.st249{fill:#DCCC72;}
	.st250{fill:#EFDA7E;}
	.st251{fill:#E5DA80;}
	.st252{fill:#CEB159;}
	.st253{fill:#D1B75D;}
	.st254{fill:#C7A64E;}
	.st255{fill:#CEB861;}
	.st256{fill:#C4A952;}
	.st257{fill:#D7C36C;}
	.st258{fill:#DBC769;}
	.st259{fill:#EDE582;}
	.st260{fill:#E2D073;}
	.st261{fill:#EEE27D;}
	.st262{fill:#F4E582;}
	.st263{fill:#B79E4C;}
	.st264{fill:#DADE8A;}
	.st265{fill:#C4AF5A;}
	.st266{fill:#C9BA63;}
	.st267{fill:#D3C470;}
	.st268{fill:#BFA554;}
	.st269{fill:#C9B45F;}
	.st270{fill:#D2BE67;}
	.st271{fill:#E3E38B;}
	.st272{fill:#E6E78B;}
	.st273{fill:#E1DB7E;}
	.st274{fill:#DAC76C;}
	.st275{fill:#E8EA96;}
	.st276{fill:#F3E283;}
	.st277{fill:#F1EB8A;}
	.st278{fill:#EAE683;}
	.st279{fill:#E7E27D;}
	.st280{fill:#DACA72;}
	.st281{fill:#F4EE93;}
	.st282{fill:#CCAC56;}
	.st283{fill:#C3A248;}
	.st284{fill:#D3BC65;}
	.st285{fill:#CDB55F;}
	.st286{fill:#EEE786;}
</style>
<g>
	<g>
		<path class="st0" d="M204,381c0-2.3,0-4.7,0-7c1-1.3,0.3-2.9,0.5-4.3c0.1-0.4,0.2-0.9,0.3-1.3c0.1-0.4,0.4-0.8,0.6-1.2
			c0.3-0.3,0.7-0.6,1.1-0.8c3.9-1.7,3.7,1.2,3.5,3.4c-0.2,1.8-0.1,2.5,1.8,1.7c1.1,0,2.5,0.2,2.3-1.5c-0.2-1.4-1.6-0.1-2.3-0.7
			c-2-1.5-1-4.4-2.9-5.9c-0.5-1-1.3-1.8-2.1-2.6c-0.3-0.4-0.4-0.8-0.5-1.3c0-0.5,0-0.9,0.2-1.4c0.7-1.5,1.2-3,3.3-2.9
			c1,0.1,1.9,0.6,2.9,0.3c1.8-1.2,0.3-2.3-0.1-3.3c-1.3-3.3-1.4-6.7-0.3-10.1c0.4-1.2,0.9-2.2,2.5-1.5c0.4,0.3,0.6,0.7,0.5,1.2
			c0.1-0.5-0.1-0.8-0.5-1.1c-1.5-1.1-2,0.1-2.5,1.2c-0.5,1.1-0.7,2.7-2.6,2.1c-0.3-0.4-0.6-0.8-0.8-1.2c0.1-6.9,3.2-12.5,7.3-17.7
			c1.1-0.9,2.1-1.8,2.9-3c0.4-0.3,0.8-0.5,1.3-0.6c1,0,1.9,0.4,2.6,1.1c2.5,3,3.9-0.3,5.7-1c1.9-0.7,2.4-2.5,3.3-4.1
			c-0.7,1-1.4,1.9-2.8,1.8c-1.4-1.7-4.1-1.4-5.4-3.3c-0.6-2,0.4-3.7,1.7-5c8.8-9.3,17.6-18.5,29.8-23.4c1.6-0.3,3.1-0.8,4.3-2.1
			c3-1.6,5.9-3.9,9.7-2.7c1.6,2.1,0.5,3.7-0.8,5.3c-0.1,1,1,0.8,1.4,1.2c2.6,1.2,5.3,0.5,7.9,0.7c6.4,0.5,7.4,1.5,7.8,7.8
			c0,0.5-0.5,1.3,0.4,1.6c0.1,0.6,0.5-0.5,0-0.1c-0.3,0.2-0.5,0.1-0.4-0.2c0.5-2.2-1.3-4.6,0.8-6.6c3.4-0.1,4.1,2.1,4.1,4.9
			c0,4.6,0.2,9.2-0.1,13.8c-3.1,1.6-0.9,5.2-2.7,7.3c-2,0.5-3.4-0.5-4.5-1.9c-0.4-0.5-0.4-1.4-0.9-1.8c-2.8-2.1-11.5-0.9-14,1.8
			c-1.8,0.7-3.6,0.2-5.4,0.3c-1.6,0.1-3.3,0-4,0c4.1-0.4,9.1,0.5,14.2,0.6c1.6,0,3.5,0.2,3,2.7c-1,0.9-2.2,0.6-3,0.7
			c2.3,0.3,4.8-0.7,7.3-0.5c1.8,0.2,3.8-0.1,3.9,2.6c-2,2.7-5,2.2-7.7,2.3c-5.4,0.2-10.8,0.1-16.3,0.1c-1.8,0-3.6-0.1-5.3,0.8
			c-2.2,1.9-1.6,4.2-1,6.5c0.2,0.4,0.3,0.8,0.4,1.2c0.2,0.6,0.4,1.3,0.5,1.9c0,0.5,0,0.9-0.1,1.4c-0.2,0.7-0.5,1.3-0.8,2
			c-0.2,0.4-0.5,0.9-0.8,1.3c-1.1,5,2.9,4.6,5.5,4.7c6.3,0.4,12.5,0.1,18.8,0.1c14.8-0.1,11.6,1.3,11.9,11.9c0,0.3,0,0.7,0,1
			c0.1,4.8-0.4,9.6,0.9,14.2c0.2,25.7,0,51.3,0.1,76.9c-0.2,6.4,0.4,12.9-0.3,19.3c-0.2,0.5-0.5,0.9-0.9,1.3
			c-3.9-0.2-2.3-3.3-2.7-5.2c-0.1-0.6,0.1,0.2-0.1-0.5c-0.3-0.9-0.1,0.2-0.3,0.1c-1.6,2.2,0.7,5.4-1.9,7.4c-1.7,0.5-3.5,1.1-5.3,1.4
			c-4.4-0.2-8.7-1-12.3-3.8c-0.9-1.1-2-1.6-3.4-1.4c-2.5-0.3-4.8-1.1-6.3-3.3c-0.2-0.4-0.2-1-0.5-1.3c-1.5-1.8,1.6-4.3-0.7-5.7
			c-2-1.2-3.9,1.4-6,0.8c-1-0.4-1.5-1.1-1.6-2.1c0.2-1.7,0.5-3.5,0.2-5.2c-0.4-3.3-3.2-6.4-0.4-11.1c-3.7,2.4-6.4,3.8-9.6,2.1
			c-1.1-0.6-2.2,0-2.9,1.2c-1,1.9-2.3,2.3-4,0.9c-1.4-2.5-3-4.9-0.4-7.6c0.6-1.1,0.4-2.2,0.4-3.5c-0.6,0.9-0.3,1.9-1.1,2.6
			c-3.4,1.7-5.6-1.7-8.5-2c-4.6-3.1-7.2-7.4-8.3-12.8c0.1-0.7,0.3-1.4,0.7-2.1c3-1.3-0.5-1.5-0.4-2.3c-0.6-1.9-1.7-3.7-1.4-5.8
			c0-1,0.1-2,0.7-2.8c0.6-0.9,3.1-0.4,1.9-2.6c0-2.1,0.7-3.8,2.5-4.9c0.3-0.5,1.5,0.5,1.3-0.4c-0.4-1.7-0.4-3.6-1.8-4.9
			c-0.7-1.3-1.5-2.5-3.2-2.4c-1.1-0.3-2.2-0.6-3.3-0.6c-1.4-0.5-2.8-0.9-4.1-1.5c-0.8-0.6-1.3-1.5-1.5-2.5c-0.2-1.6,0.1-3.3-0.3-4.9
			C204.4,382.7,204.7,381.7,204,381z"/>
		<path class="st1" d="M257.9,464.3c1.6,1.8,4.2,1.5,6.1,2.7c1.3-0.4,2.2,0.1,2.9,1.3c3.9,1.7,7.9,2.8,12.1,3.5c1-0.3,2-0.2,3-0.1
			c2.1,0.8,4.1-0.4,6.2,0c2.2,1.2,4.7,0.1,7,0.7c3.7,0.1,7.5,0.6,11.2-0.6c0.8-0.2,1.5-0.3,2.3-0.4c1.8,0.2,3.5-0.1,5.2-0.7
			c3.3-0.3,6.1-2.4,9.5-2.2c2.9-0.3,5.6-1.1,8.1-2.6c3.9-0.9,7.2-2.8,10.5-5.1c1.6-0.8,3.2-1.6,4.5-2.9c2.6-1.6,5.3-3.2,7.6-5.3
			c1.9-1.9,4.1-3.3,5.8-5.3c0.4-0.5,0.9-1,1.4-1.4c1.6-1.5,3.2-2.9,4.6-4.6c0.8-1,1.6-2.1,2.6-2.9c0.3-0.3,0.6-0.6,0.9-0.9
			c1.6-1.7,3.1-3.5,3.8-5.8c0.4-0.8,1-1.5,1.7-2c1.2-1.3,2.4-2.5,2.6-4.3c0.8-3.8,3.9-6.4,5-10c0.1-0.9,0.4-1.7,0.9-2.5
			c0.2-0.4,0.4-0.8,0.6-1.2c0.6-1.4,1.3-2.8,1.5-4.4c0.1-2.4,1-4.5,2-6.6c0.4-0.8,0.9-1.7,1-2.6c0.7-2.3,1.2-4.7,1-7.1
			c0-0.5,0.1-1,0.2-1.5c0.7-2,0.9-4.1,0.8-6.3c0-4.6,0-9.1,0-13.7c0.3-4.1-0.7-8.1-1.3-12.1c-0.8-1.8-1.2-3.8-1.5-5.7
			c-0.1-2.3-0.7-4.5-1.8-6.5c-0.2-0.4-0.3-0.8-0.4-1.3c-0.1-1.6-1-2.8-1.9-4.1c-0.5-0.7-0.8-1.5-1-2.4c-0.1-1.9-1-3.6-1.9-5.3
			c-0.2-0.6-0.6-1.1-0.9-1.6c-0.3-0.8-0.7-1.5-1.1-2.2c-0.3-0.8-0.8-1.5-1.2-2.2c-3.5-4.6-5.8-10.1-10.3-14
			c-1.9-1.8-3.5-3.8-5.3-5.7c-0.7-1.4-2.1-1.9-3.4-2.5c-0.9-0.7-1.6-1.4-2.4-2.2c-0.7-1.7-2.3-2.3-3.9-3c-5.9-3.7-11-8.6-17.6-11.3
			c-2-0.6-3.9-1.5-5.9-2.2c-2.5-1.8-5.6-1.9-8.4-2.8c-1.4-0.5-2.9-1.1-4.4-1c-0.4,0-0.8-0.1-1.2-0.2c-1.1-0.6-2.3-0.8-3.6-0.8
			c-0.4,0-0.8-0.1-1.2-0.2c-0.9-0.4-1.9-0.8-2.9-0.7c-0.4,0-0.8,0-1.3,0c-0.4,0-0.9,0-1.3,0c-1.1,0-2.2,0-3.3,0c-0.7,0-1.4,0-2.1,0
			c-0.9,0-1.8,0.1-2.8,0c-0.7,0-1.4,0-2.1,0c-1.6,0.3-3.2,0.3-4.8,0.8c-0.5,0.1-1,0.1-1.5,0.2c-4.9-0.2-9.4,1.4-14.1,2.6
			c-1.7,0.4-3.1,1-4.7,0c-3,1.3-6,2.7-9,4c-1.3,0.9-2.8,1.3-4.2,1.8c-12.8,6.3-23,15.8-31.7,27c0,0.2,0,0.5,0.1,0.7
			c-0.3,2.6-1.5,4.6-4.2,5.3l0,0.1c-0.9,1.2-0.8,3.1-2.4,3.8c-3.5,5.2-6,10.9-7.7,16.9c0.2,3.4-0.6,6.7-1.5,10c-0.7,2-1.3,4-1.6,6.1
			l0-0.1c-1.3,1.5,0.3,3.8-1.6,5.1c-0.4,0.2-0.9,0.3-1.3,0.1c0-27.8,0.1-55.7-0.1-83.5c0-3,0.6-3.6,3.6-3.6c61,0.1,122,0.1,183,0
			c3,0,3.6,0.6,3.6,3.6c-0.1,63.7-0.1,127.3,0,191c0,3-0.6,3.6-3.6,3.6c-61-0.1-122-0.1-183,0c-3,0-3.6-0.6-3.6-3.6
			c0.1-28.5,0.1-57,0.1-85.5c0.5-0.4,0.9-0.3,1.3,0.1c0.2,0.7,0.2,1.5,0.2,2.3c1.8,4.2,2.2,8.8,3.7,13.1c0.2,0.7,0.4,1.4,0.6,2.2
			c0.8,6.1,4.2,11.4,5.1,17.4c2.3,4.2,3.4,9.3,8,12.1c3.9,2.6,6.1,6.5,8.5,10.4c1.5,2.7,4.7,3.4,6.6,5.6c2.7,1.7,5.4,3.4,7.6,5.8
			c1.6,1.2,2.5,3.2,4.4,4c0.4,0.1,0.9,0.1,1.3,0.2c1.1,0.6,2.2,1.4,3.4,1.8C256,461.9,257.1,462.9,257.9,464.3z"/>
		<path class="st2" d="M204,364c0.3-0.1,0.6-0.1,0.8,0c0.2,0.2,0.4,0.3,0.7,0.5c1.1,1.7,0.4,3.1-0.6,4.5l-0.1-0.1
			c-0.1,0.8-0.4,0.8-0.8,0.2C204,367.3,204,365.7,204,364z"/>
		<path class="st3" d="M204,369c0.3-0.1,0.5-0.2,0.8-0.2c0.2,1.8,0.5,3.6-0.8,5.2C204,372.3,204,370.7,204,369z"/>
		<path class="st4" d="M204.8,386.2c-0.3-0.1-0.5-0.1-0.8-0.2c0-1.7,0-3.3,0-5c0.4,0.7,0.8,1.4,1.1,2.1
			C205.5,384.2,205.9,385.3,204.8,386.2z"/>
		<path class="st5" d="M289,313c0-5-0.1-9.9,0.1-14.9c0.1-2.4-0.6-4.2-3-5.1c-1.5-0.7-2-2.1-2-3.7c0-2,1.6-3.3,2.3-5
			c0.3-1.6,0.8-3.1,1.8-4.4c0.3-0.3,0.6-0.7,0.9-1l0.1-0.3c2.9,0.8,2.3,3.3,2.4,5.3c0.1,8.5,0,17,0,25.4c0.1,3.1-0.3,6.2,0.4,9.3
			c-0.1,2.2-0.2,4.4-1.3,6.4c-0.9,1-2.1,1.3-3.4,1.3c-1.3,0-2.5,0.5-3.7,0.5c-7.8-1-15.7-0.2-23.6-0.5c-2.1-0.1-4.3,0.2-6.4-0.4
			c-0.6-0.3-1.1-0.7-1.5-1.1c2.4-1.8,5.1-0.9,7.7-1c8.1-0.2,16.2,0.4,24.3-1C286.6,320.1,289.1,317.2,289,313z"/>
		<path class="st6" d="M237,450c-2.3-1.7-4.6-3.3-5.9-6c0.3-0.5,0.5-0.5,0.8,0c1.2,0.5,1.9,0.1,2.1-1.2c0.3-1.5,2-2.9,2.7-2.4
			c5.1,3.3,8.5-1.7,12.7-2.3c0.5-0.1,0.9,0.1,2,0.3c-3.9,4.1-4.9,8-0.4,12c0.8,0.7-0.3,1.3-1.1,1.6c-2.8-0.3-4.9-1.8-6.9-3.6
			c-1.8-1.6-3.8-3.6-4.5,0.9C238.5,449.9,237.8,450.3,237,450z"/>
		<path class="st7" d="M289.1,450c0-26-0.1-52-0.1-78c-0.9-4.6-0.2-9.2-0.4-13.8c0.3-4-0.5-8,0.4-11.9c2.4-0.3,2.3,1.5,2.6,3
			c0,10.6,0,21.2,0,31.7c0,10.9,0,21.9,0,32.8c0,8.8,0,17.6,0,26.4c0,1.8,0,3.6,0,5.4c-0.1,1.4,0.1,2.9-0.9,4.2
			C290.2,450.2,289.6,450.3,289.1,450z"/>
		<path class="st8" d="M237,450c0.2-0.6,0.6-1.2,0.6-1.8c0.1-1.4-3.9-1.7-1.2-3.6c1.8-1.3,4.2-1.1,6,0.4c2.6,2.2,5.1,4.6,7.6,6.9
			c-0.6,1.3,0.9,3.1-1,4c-1.3,1.7-2.7,0.4-4.1,0.2C242.7,453.6,238.9,453.1,237,450z"/>
		<path class="st9" d="M284,316c1.3,0.7,2.3,2,4,2c0.2,1.6-0.3,3.6-1.9,3.3c-3.3-0.6-6.9,0.7-10.1-1.3c-5.8-1.3-11.5-2.3-17.5-1.9
			c-1.9,0.1-3.8,0.5-6.2-1.5c5.7-1.1,10.7-0.4,15.7-0.6C272.2,313.2,279.8,313.2,284,316z"/>
		<path class="st10" d="M289,279c0,0.3,0,0.7,0,1c-1.3,1-2.1,2.6-3.7,3.2c-0.4,0.1-0.9,0.2-1.4,0.2c-2.7,0.1-5.5-0.2-7.8,0.6
			c0.4-0.2,1.2-0.1,2-0.1c1.3-0.1,2.5,0.4,3.8,0.7c2.8,0.6,3.4,2.2,1.7,4.5c-5,2-10,0.6-15.1,0.3c-1-0.2-2-0.4-2.5-1.4
			c1.5-1.4,3.4-2.4,3-4.9C275.5,280.7,282,278.8,289,279z"/>
		<path class="st11" d="M206.9,358.9c-1.4-2-1.4-4,0.1-5.9c2.7-2.4,1.3-6.3,3.2-9c0.8-1.4,1.6-2.8,2.5-4.2c0.5-0.7,0.7-2.2,1.9-1.5
			c0.5,0.3,0.3,1.8,0.5,2.7l0,0c-4.1,3.9-1.7,7.9-0.1,11.9c0.5,1.4,1.6,2.7,0.6,4.1c-1,1.5-2.3,0.4-3.5,0c-0.6-0.4-1.2-1-2-1
			C208,356,208.8,358.9,206.9,358.9z"/>
		<path class="st8" d="M218,401c-0.7,1.7-1.3,3.3-2,5c-0.2,1.2-1.3,1.4-2,2c0,1,0,2,0,3c-3.2-0.2-5.2-2.9-3.8-6.1
			c1.4-3.2,1.6-6.6,2.3-9.9c0.1-1.2,0.4-2.3,1.5-3c0.9-0.6,1.5-2.2,2.9-1.5c1.9,1,0.9,3,1.1,4.5C219.4,397,219.4,399,218,401z"/>
		<path class="st12" d="M214,395c0.1,3.6-0.3,7.1-2.2,10.4c-1.4,2.5-1.2,4.8,2.2,5.6c0.3,2,0.7,4,1,6c0.5,0.7,0.6,1.3,0,2
			c0,0.7,0,1.4,0,2c-3.2-5.3-5.3-11-6.8-17c0.6-1.4,0.3-2.8,0.3-4.2c0-2.6-0.3-5.3,3-6.3C212.8,393.3,213.4,394.1,214,395z"/>
		<path class="st9" d="M268,289c5-1.8,10-1.1,15,0c0.7-0.6,1.3-0.6,2,0c0.3,1.3,0.7,2.7,1,4c0,2.5,0,4.9,0,7.6c-1.5-0.7-1-1.8-1-2.6
			c-0.2-4.3-2.1-6.3-6.6-6.1c-3.6,0.2-7.4,0.8-10.4-1.9c-0.2-0.2-0.3-0.4-0.2-0.7C267.9,289.1,267.9,289,268,289z"/>
		<path class="st13" d="M253,352.6c2-0.7,4.1-1.7,6.7-1.2c5.8,1.1,11.5,1.1,17.3-0.1c1.3-0.3,2.6-0.2,4-0.1c1,0,2.2,0.4,2.2,1.6
			c0,1.3-1.3,1.3-2.3,1.3c-9,0-18,0-27-0.1C253.5,353.9,252.9,353.7,253,352.6z"/>
		<path class="st14" d="M229,319c1.8-1.6,2.1-4.6,4.8-5.4c0.8-0.2,1.6-0.4,2.2,0.4c0.5,0.6,0.5,1.3-0.1,1.8
			c-3.3,2.8-4.6,7.5-8.7,9.5c-2.4,1.2-4.9,1.7-5.3-2.3c0-1.5,0.7-2.6,1.8-3.4C225.5,319,227.2,318.8,229,319z"/>
		<path class="st15" d="M289.1,346c-0.1,4-0.1,8-0.2,12c-0.3,0.7-0.6,0.7-0.9,0c0-11,0-11-11.1-11c-7.3,0-14.6,0-21.8,0
			c-1.7,0-3.7-0.3-3.8-2.4c-0.1-1.9-1.9-4.4,1.2-5.6c0.7,0,1.4,0.4,1.5,1c0.5,4.4,3.4,4.9,6.9,4.4c9.2,0.1,18.4-0.5,27.5,0.9
			C288.7,345.5,288.9,345.7,289.1,346z"/>
		<path class="st16" d="M284,316c-5.3,0-10.7,0-16,0c-0.1-2.2,0.2-4,3.1-4c3.3,0,6.6,0,9.9,0C283.8,312,284.1,313.8,284,316z"/>
		<path class="st16" d="M276,320c2.8,0.1,5.6-0.1,8.3,0.4c2.3,0.4,2.9-0.9,3.6-2.4c-0.1-1.8-2.2-2.6-1.7-4.8
			c0.9-3.5,1.8-0.5,2.7-0.2c0,4.2,1.2,8.9-5,10c-3.1-1.9-6.5-0.6-9.7-1c-2-0.3-4.3,0.7-6.7-1.4C270.7,319.5,273.4,320.2,276,320z"/>
		<path class="st17" d="M252,325c0.4,0.1,0.8,0.1,1.2,0.2c1.7,1.3,1,3.9,2.6,5.3c5.7,2.3,11.7,0.6,17.5,1.1c3.8,0,7.6,0.1,11.4-0.1
			c2.1-0.2,4.3-0.7,6,1c0.4,0.5,0.6,1,0.4,1.7c-1.6,1.9-3.8,1.2-5.8,1.4c-0.9,0-1.7,0-2.6,0c-2,0-4,0-6,0c-0.6,0-1.2,0-1.8,0
			c-5.3,0-10.6,0-15.9,0c-2.2,0-4.3,0.1-6.1-1.5C251.1,331.2,252.3,328,252,325z"/>
		<path class="st8" d="M210,362c1.7,2,2.3,4.4,2,7c0.8,1,0.9,2,0,3c-0.9,1.3-1.8,2.7-2.9,4.3c-1.7-2.6-1.1-5.1-0.5-7.6
			c0.6-2.8-0.8-1.2-1.6-0.7c-1.1-1.3-1.3-2.6-0.1-4C208.7,364.6,207.9,361.1,210,362z"/>
		<path class="st8" d="M232,444c-0.3,0-0.5,0-0.8,0c-3.3-3.2-6.9-6.2-8.2-10.9c3.1-0.9,4.7,1.9,7,2.9c1.6-0.2,2.1,1.2,3,2
			C229.3,439.4,232.4,442,232,444z"/>
		<path class="st18" d="M260,345.5c-6.7,0.7-6.7,0.7-7.5-6.5c0.2-0.3,0.3-0.6,0.5-0.9c5.4-2.6,10.9-1.8,16.5-0.9
			c0.5,0.4,0.8,0.9,0.8,1.5c-1.5,2.2-3.8,2.2-6,2.2c-2-0.6-3.9-0.3-5.9,0.3c0.3,1.1,1.5,1.4,1.9,2.3
			C260.6,344.3,260.6,344.9,260,345.5z"/>
		<path class="st19" d="M250.9,460.3c-0.3-0.2-0.6-0.3-0.8-0.5c-0.6-0.6-0.6-1.2,0-1.8c1.9-1.4,4-2.6,6.3-1.8c1.5,0.5,7,0,1.8,4
			c-1.5,1.2,0,2.8-0.2,4.1c-1.4-0.5-2.9-1-3.9-2.2C252.6,462.1,253,458.9,250.9,460.3z"/>
		<path class="st20" d="M254,337c0-0.3,0-0.7,0-1c1.5-1.5,3.4-1,5.2-1c8.1-0.1,16.1,0,24.2,0c1.4,0,2.9,0,4.3-0.3
			c0.9,0.3,1.5,0.8,1.7,1.7c-0.1,0.6-0.3,1.1-0.9,1.5c-1.1,0.6-2.3,0.6-3.5,0.6C274.6,338.7,264.3,337.4,254,337z"/>
		<path class="st21" d="M285,336c-10.3,0-20.7,0-31,0c-0.3-0.3-0.7-0.7-1-1c5.7-1.1,11.4-0.2,17.2-0.5c1.9-0.1,3.9,0.5,5.8-0.5
			c0.3,0,0.7,0,1,0c2,0.7,4,0.7,6,0c0.7,0,1.4,0,2.1,0C285.6,334.7,285.6,335.3,285,336z"/>
		<path class="st16" d="M212,372c0-1,0-2,0-3c2-0.7,1.5-3.1,3.5-4.7c0,3.6,2.8,6.8-0.4,9.7C213.7,375.2,212.4,373.7,212,372z"/>
		<path class="st22" d="M254,337c10.7,0,21.3,0.1,32,0.1c0.3,0.5,0.2,1-0.2,1.5c-0.6,0.6-1.4,0.8-2.2,0.9c-2.4,0.1-4.9,0-7.3,0.2
			c-0.8,0.2-1.6,0-2.5-0.1c-1.5,0.1-2.7-0.3-3.8-1.4c-5.7,0-11.3-0.1-17-0.1C253.4,337.7,253.7,337.4,254,337z"/>
		<path class="st6" d="M233,438c-1.4-0.1-2.4-0.8-3-2c-0.4-1.4-0.7-2.9-1.1-4.3c-0.4-1.2-0.9-2.4,0.5-3c1.7-0.8,2.3,0.8,2.9,1.9
			C233.4,433,232.9,435.5,233,438z"/>
		<path class="st23" d="M207.9,402.2c-1.8-4.6-2.7-9.3-2.8-14.2c0.3-0.7,0.6-0.7,0.9,0c0.3,0.7,0.7,1.3,1,2c1.1,0.7,2.8,0.7,3.1,2.6
			c-0.4,2.5-1.5,4.8-0.7,7.4C209,400.8,208.7,401.7,207.9,402.2z"/>
		<path class="st24" d="M284,463c1-1.3,2-2.5,4-5c0,4.9,0,8.4,0,12c-1.6,2.2-2.4,1-2.8-0.8C284.7,467.2,284.9,465,284,463z"/>
		<path class="st25" d="M284,463c1.4,1.7,1.8,3.7,2,5.8c0.1,1.4,0.9,1.5,2,1.2c0.4,0,0.7,0,1.1,0c0.4-0.3,0.8-0.3,1.2,0
			c0.4,0.6,0.5,1.2,0.4,2c-0.4,1-1.3,1.3-2.2,1.4c-2.2-0.5-4.5,0.1-6.6-1.2c0.5-0.9,1.6-0.3,2.1-1.1C284,468.3,284,465.7,284,463z"
			/>
		<path class="st26" d="M229,319c-1.3,2.2-2.7,3.7-5,1c-1.1-1.3-0.8-2.6,0.1-3.8c0,0,0.1-0.2,0.1-0.2
			C226.1,316.5,229.1,315.3,229,319z"/>
		<path class="st27" d="M276,334c-5.8,2.1-11.7,0.5-17.6,0.9c-1.8,0.1-3.6,0-5.4,0c0-0.3,0-0.7,0-1C260.7,334,268.3,334,276,334z"/>
		<path class="st28" d="M289.9,470.1c-0.3,0-0.6-0.1-0.9-0.1c0-6.7,0-13.3,0-20c0.2,0,0.5,0,0.7,0c1.7,0.9,1.7,2.4,1.7,4
			c0,3.3,0,6.7,0,10C291.3,466.2,292.1,468.5,289.9,470.1z"/>
		<path class="st29" d="M210.2,344c-0.8,3.1,1.3,7.2-3.2,9c0.3-3.6,1.3-7,3-10.2C210,343.2,210.1,343.6,210.2,344z"/>
		<path class="st6" d="M218,401c0-2,0-4,0-6c2.2-0.6,2,0.9,2,2.2c0,2.1,0,4.2,0,7.2C219,402.8,218.5,401.9,218,401z"/>
		<path class="st30" d="M215,341c3.4,2-0.2,4.5,0.3,6.8C213.5,345.6,213.9,343.4,215,341C215,341,215,341,215,341z"/>
		<path class="st6" d="M214,408c0.2-1.2,0.8-1.8,2-2c2.2,1.3,2.2,3.1,1.5,5.8C216,410.2,215,409.1,214,408z"/>
		<path class="st31" d="M224.1,316.2c0,1.3,0,2.6-0.1,3.8c-0.1,1.4-0.8,2.4-2,3c-0.6-0.3-1.3-0.6-1.9-1
			C221.4,320.1,222.7,318.1,224.1,316.2z"/>
		<path class="st29" d="M208,364c-1.2,1.1-1,2.6-1,4c-0.3,0-0.7,0-1,0c-1-1.2-0.1-2.7-0.7-4l-0.2-0.1c0,0-0.2,0.1-0.2,0.1
			c0.7-1.7-0.9-4.3,2-5.1c0.1,0.4,0.2,0.8,0.4,1.2C208.2,361.2,208.4,362.5,208,364z"/>
		<path class="st32" d="M288,358c0.3,0,0.6,0,0.9,0c0,4.6,0,9.3,0,13.9C287,367.4,288.4,362.6,288,358z"/>
		<path class="st19" d="M269.7,462.8c-2.5,0.8-4.1,0.3-5.6-2C266.6,460.4,268.1,460.8,269.7,462.8z"/>
		<path class="st6" d="M225.7,423.3c-0.1,1-0.6,1.5-1.6,1.4c-0.9-0.1-1.6-0.6-1.6-1.6c0-1,0.8-1.4,1.7-1.4
			C225.2,421.7,225.7,422.4,225.7,423.3z"/>
		<path class="st33" d="M250,458c0,0.6,0,1.2,0,1.8c-1.9-0.9-3.7-1.9-5.1-3.6c1.3-1.1,2.8,0.1,4.1-0.2
			C249.3,456.7,249.7,457.3,250,458z"/>
		<path class="st34" d="M268,289c0,0.3,0,0.7,0,1c-1.1,0.3-2.4,1.7-3.4,0.1c-0.6-1,0.6-1.6,1.4-2.1C266.7,288.3,267.3,288.7,268,289
			z"/>
		<path class="st23" d="M214,395c-0.7-0.3-1.3-0.7-2-1c-1.5,0.4-1.6-0.7-1.7-1.7c0.1-0.5,0.4-0.9,0.7-1.3c1.1,0,2.2,0.1,3,1
			C214,393,214,394,214,395z"/>
		<path class="st35" d="M215,419c0-0.7,0-1.3,0-2c1.6,1.4,1.4-1.6,2.5-1.1c0.3,0.1,0.4,1.2,0.3,1.7C217.6,419.4,216.5,419.6,215,419
			z"/>
		<path class="st36" d="M208,364c-0.6-1.2-1.1-2.5-0.8-4c1.3,0.1,2.2,0.8,2.8,2C208.9,362.2,209.6,364.3,208,364z"/>
		<path class="st37" d="M235.8,308c-0.3,1.4-0.8,1.8-1.5,1.6c-0.3-0.1-0.8-0.6-0.8-1c0.1-0.7,0.6-1.2,1.3-1.1
			C235.3,307.6,235.8,307.9,235.8,308z"/>
		<path class="st38" d="M210,356c0.5-0.4,1-1.1,1.3-1c0.9,0.3,0.6,1.3,0.7,2C210.7,357.9,210.5,356.7,210,356z"/>
		<path class="st39" d="M211,391c0,0.3,0,0.7,0,1c-0.5,0.6-0.9,1.6-2,1c-0.1-1.4-1.3-2-2-3C208.3,390.3,209.7,390.7,211,391z"/>
		<path class="st19" d="M266.9,468.2c-1-0.4-1.9-0.9-2.9-1.3c0.7-0.7,1.6-1.2,2.6-0.8C267.6,466.6,267.1,467.5,266.9,468.2z"/>
		<path class="st40" d="M206,388l-0.5,0c0,0-0.5,0-0.5,0c-0.1-0.6-0.2-1.2-0.3-1.8c0.1-1,0.2-2.1,0.3-3.1
			C206.4,384.6,205.9,386.3,206,388z"/>
		<path class="st41" d="M217.6,325.9c0.6-1.4,1.2-2.8,2.4-3.8C220,323.9,219.6,325.4,217.6,325.9z"/>
		<path class="st42" d="M205.3,364c0.9,1.2,0.7,2.6,0.7,4c-0.3,0.3-0.7,0.6-1.1,1C205.1,367.3,205.2,365.7,205.3,364z"/>
		<path class="st43" d="M255.8,289c1.1-1.2,2.4-2,4.2-1.8C259.1,288.7,257.6,289.1,255.8,289z"/>
		<path class="st44" d="M284,471c-0.7,0.4-1.4,0.7-2.1,1.1c-0.9-0.1-1.9-0.2-2.8-0.4C280.6,470.7,282.3,471.1,284,471z"/>
		<path class="st0" d="M335,286.1c7,2.3,12.6,7,18.1,11.6c0.3,0.4,0.4,0.8,0.3,1.2c-1.7,4.8,1.5,5,4.8,5.2c0.5-0.1,0.9-0.1,1.4-0.1
			c1.2,0,2.3,0.1,3.2,1c1.8,1.8,3.6,3.7,5.5,5.5c0,1.9,1.4,2.8,2.4,4.2c2.5,3.5,5.1,6.9,6.8,10.9c0.8,1.8,1.7,3.6,3.9,4.3
			c0.2,0.4,0.4,0.7,0.6,1.1c-0.4,1.4,0.9,2.3,1,3.5c0.1,0.6,0.1,1.1,0.4,1.7c0.2,0.3,0.5,0.6,0.7,0.9c0.4,0.5,0.8,1,1.2,1.5
			c0.3,1.3,0.7,2.5,0.6,3.8c-0.1,0.5-0.4,0.8-0.8,1.1c-0.8,0.2-1.5,0.3-2.1-0.3c0,0.1-0.1,0-0.1,0s0.1,0.3,0.1,0.3
			c0.8,2.1,1.2,4.2,1.9,6.2c0.9,3.4,0.5,6.4-0.6,10c-1.5,5.1-1.7,10.8,0.2,16c1.2,3.1,1.5,5.7-0.3,8.3c-1.4,2-1.5,3.9-0.6,6
			c0.2,1.8,0.1,3.6,0.2,5.5c0.2,2.3,0.6,4.6,1.8,6.7c0.2,1.6,0.3,3.2-0.2,4.8c-0.3,0.4-0.5,0.8-1,1.1c-0.4,0.2-0.9,0.5-1.4,0.3
			c0.5,0.2,1,0.1,1.5,0.2c0.5,0,0.9,0.4,1.2,0.7c0.2,1.4,0.2,2.7-0.2,4l0,0c-0.5,0.6-2.8-0.3-1.3,1.7c0.5,4.7-3.8,7.1-5,11
			c-1.5,0.9-1.8,3.2-3.9,3.5c-1.7-0.3-2.5-1.6-3.4-3c0.6,1.3,0.7,2.5-0.1,3.7c-0.4,0.7-2.2,1.2-1.1,2.2c2.6,2.5,1.1,4.6-0.2,6.8l0,0
			c-1,0.9-4.1-0.2-2.9,3c-1.1,2.2-3.1,3.6-5.1,5.1c-1-0.2-1.5,0.6-2,1.2c-1.5,0.9-2.9,1.9-4,3.3c-2.7,2.6-6.5,1.8-9.7,2.9
			c-1.7,0.6-3.3,1.5-4.8,2.4c-1.6,1,0.1,2.1-0.2,3.1c-2.2,4.1-5.7,5.3-10.1,4.6c-0.9,0-1.3,0.5-1.7,1.2c-0.6,1.1-1.6,1.8-2.8,2.2
			c-0.7,0.3-1.4,0.6-2,1.1c-0.3,0.3-0.5,0.5-0.8,0.8c-3.1,1.2-6.2,2.2-9.6,2.2c-1.5,0.5-3,0.6-4.5,0c-0.4-0.5-0.6-1.1-0.6-1.8
			c0.7-8.5,0.2-17,0.3-25.4c0.1-22.9-0.1-45.9,0.1-68.8c0-1.2,0.7-2.3,1-3.4c1.2-3.5,2.1-7,1.9-10.7c-0.2-4,1.6-5.9,5.7-6.7
			c5.1-1,10.2-1.1,15.2-0.2c2,2.4,0,2.3-0.9,2.4c2.8-0.6,6.3,0.2,9.8,0c1.2-0.1,2.8,0.5,3.2-1.4c0-0.6-0.3-1.2-0.8-1.7
			c-7.3-2.3-14.8-1.8-22.2-1.9c-2.1,0-4.4,0.6-6.2-1.1c-0.3-0.3-0.6-0.7-0.7-1.2c-0.4-1.6,1.1-2.6,1.1-4.1c0.2-0.4,0.5-0.7,0.9-1
			c0.9-0.4,1.8-0.5,2.8-0.3c3.9,1.7,8.1-0.2,12.1,1c1.1,1,2.2,1.3,3.6,0.6c0.4,0,0.8,0,1.3,0.1c1.9,0.3,3.8,0.1,5.6-0.5
			c1.3-0.5,2.9,0,3.9-1.4c1.1-2,0.9-4,0.1-6.1c-0.4-0.8-0.8-1.7-0.7-2.6c0-0.7,0.3-1.3,0.5-2c1.2-2.4,0.7-5.1,1-7.6
			c0-0.1-0.1-0.2-0.1-0.2c-0.2,0-0.3,0.1-0.5,0.2c-0.8,0-1.4-0.3-2.2-0.5c-10.1-0.5-20.2-0.8-30.4,0.2c-0.9,0.2-1.8,0.1-2.6-0.4
			c-1-0.8-1.6-1.7-1.1-3c1.5-2.3,3.9-2.4,6.2-2.1c6.2,0.9,12.5-0.8,18.7,0.8c2.1,0.5,5,1.1,7-1.1c0.3-0.3,0.7-0.6,1.1-0.8
			c0.7-0.2,1.5,0,2-0.6c0-0.6-0.1-1.2-0.1-1.8c-0.2-1.3,0.5-2.6,0.1-3.9c-3.7-2.7-8.3-2-11.8-0.9c-6.5,2.2-13,1.3-19.5,1.4
			c-2.6-3.1-1.6-7.5-4-10.7c-0.5-5.6,0.4-11.2-0.6-16.8c-0.6-1.3-0.4-2.9-1.1-4.2c-0.3-0.6-0.5-1.3-0.4-2c0.3-0.7,0.7-1.1,1.5-1.3
			c0.3,0.1,0.7,0.1,1,0.2c1.5,0.4,2.8,1.2,4.2,1.8c0.8,0.1,1.7,0,2.5,0.1c1.7,0.2,4,0,4.5,2.2c0.6,2.4-1.4,3.4-3.1,4.2
			c4.9,1.1,10,2.2,15,3.2c0.5-1,0-1.9,0-2.9C334.2,287.1,334.5,286.6,335,286.1z"/>
		<path class="st16" d="M382,390c-2.8-2.1-2.7-4.2-0.1-6.6c2.6-2.4,3.4-4.9-0.1-7.3c-0.6-0.4-1.4-0.8-1-1.5
			c3.2-5.6-0.8-12.2,2.8-17.9c1.2-1.9,0.5-4.5-0.6-6.7c1.3-2.2-1.4-5,1-7c0.3,0,0.7,0,1,0c1.1-0.7,1.5,0.5,2.1,0.9l0-0.1
			c0.6,0.9,0.3,2,0.5,3c1.3,7.2-0.8,14.2-1.8,21.2c-0.7,4.7,0.8,7.3,4.5,9.3c1.3,2.4,0.3,5.1,0.6,7.6c0,0.7,0,1.5-0.5,2.1
			c-3.4,2.1-4.1,6.2-2,12.2c0.4,0.5,0.5,1.1,0.7,1.7c-1.1,2.2-1.9,4.5-2.2,6.9c-0.5,0.6-0.8,1.7-2,1c-1.9,0.1-2.6-0.4-1-2
			c1.2-1.7,1.2-3.3,0-5c-2.5-1.4-1.9-3.8-2-6C383.5,394,383.4,392,382,390z"/>
		<path class="st8" d="M390,378c-4.6-0.6-6.3-3-6.2-7.7c0.2-7.9,2.2-15.5,3.2-23.3c1.5,0.9,0.5,3.2,2.2,3.9c1.1,1.5,0.9,3.4,1.3,5.1
			c-0.6,4.3,1.7,8.3,1,12.5c0,0.4,0,0.9-0.1,1.3c-2.2,1.4-1.1,3.1-0.4,4.8C390.9,375.9,391.2,377.1,390,378z"/>
		<path class="st45" d="M335,291c0.3,0.9,1.6,1.7,0.8,2.6c-0.8,0.8-2.1,0.4-3.2-0.3c-4.9-3.1-10.1-4.6-15.9-2.8
			c-0.9,0.3-1.7,0.4-2.2-0.4c-0.5-0.8-0.1-1.6,0.4-2.3c0.3-0.4,0.7-0.7,1.1-1c1.6-1.3,5.8-0.4,4.8-3.5c-0.8-2.5-4.5-0.8-6.8-1.2
			c-0.7-1.3-0.6-2.1,1.1-2.2l0,0c1.4,1.5,3.6-0.1,5.1,1.1c3.2,0.3,6.2,1.2,9,2.7c-0.4,3.9,4.1,3,5.2,5.4
			C334.8,289.6,335,290.3,335,291z"/>
		<path class="st46" d="M290.2,310c-0.1-8.9-0.1-17.8-0.2-26.7c0-1.6,0.7-3.3-0.9-4.6c1.5-1.4,3.3-0.5,4.9-0.6
			c0.9,0.8,1.8,1.6,2.4,2.6c0.6,1.5,0.6,2.8-0.8,3.8c-3.2,1.2-0.4,3.6-1,5.3c0.9,2.4,0.1,4.6-0.9,6.8c-0.4,1.6,0,3.2,0.3,4.8
			c0.3,3.5,0.9,7.1,0.1,10.7c-0.2,0.4-0.5,0.8-0.9,1C290.7,313.6,291.3,311,290.2,310z"/>
		<path class="st47" d="M341,456c2.8-3.4,4.7-3.9,10.4-3.6c1.5,0.1,2.8-1.7,4.6-1.4c0.6,1.3-0.4,1.9-1,2.8c-2.4,2.1-4.4,4.7-7.8,5.3
			c-0.8,0.5-1.6,0.8-2.6,0.8c-1.8-0.4-2.4-1.9-3.4-3.2C341.1,456.4,341,456.2,341,456z"/>
		<path class="st48" d="M304.9,278.2c0.3,0,0.7,0,1,0c2.1,1.9,1.6,4.5,1.3,6.8c-0.2,1.8-0.2,3.5,0.1,5.2c0.1,4.8,0.2,9.7,0,14.5
			c-0.1,1.8,0.3,3.8-2.1,4.5c-1.9-0.7-2.5-2.3-2.7-4.1c-0.4-5.7,0.5-11.5-0.6-17.2c-0.2-0.5-0.4-0.9-0.6-1.4
			c-0.5-2.2,0.3-4.3,0.8-6.4C302.7,279,303.9,278.7,304.9,278.2z"/>
		<path class="st49" d="M295,284c1.2-1,0.4-2,0-3c-0.6-1.3,0.3-2,1-2.8c1,0,2,0,2.9,0c0.7,0.9,1.1,1.8,1.1,3c-0.4,1.1,0,2.2,0.1,3.3
			c0,1-0.4,1.9-0.5,2.8c-0.1,1.6-0.1,3.2,0,4.7c0.2,5.6,1.5,11.2-0.9,16.6c-1.6,1.2-2.4,0.1-2.8-1.2c-0.6-1.5-1.1-3-1.3-4.6
			c-0.1-1,0-2.1,0-3.1c0.4-1.8,1.1-3.5,0-5.3c-0.2-1.4-0.1-2.8-0.1-4.2C295.1,288.2,293.1,285.9,295,284z"/>
		<path class="st50" d="M381.2,329.9c-2,0.9-3.4,0.4-4.3-1.7c-1.4-2.9-2.9-5.7-4.5-8.5c-0.9-1.6-1.8-4.2-2.9-4.3
			c-4.8-0.7-2.2-2.8-1.3-4.7c4.5,4.5,7.8,9.9,10.9,15.4c0,0.8,0.1,1.6,1,1.9C380.9,328.3,381.1,329.1,381.2,329.9z"/>
		<path class="st51" d="M288.4,473.3c0.6-0.5,1.1-0.9,1.7-1.4c1.5-3.2,1-6.8,1.9-10.1c0.4-0.6,0.9-1.1,1.7-1.2c2,0.1,3.3,1.2,3.3,3
			c0,2.3,1.7,3.9,2,6.1c0,0.5-0.1,0.9-0.2,1.4c-0.5,1.2-1.6,1.5-2.6,2.1c-0.4,0.2-0.7,0.5-1.1,0.7
			C292.8,473.7,290.5,474.6,288.4,473.3z"/>
		<path class="st52" d="M388,400c-1.1,0.9-1.9,1.5-2-0.7c-0.1-2.6,0.1-5.4-0.5-7.9c-1-4.3,0.3-5.7,4.5-4.4c0.9,0.8,0.2,2.2,0.9,3
			c0.1,0.2,0.2,0.4,0.2,0.6c0,0.1-0.1,0.2-0.1,0.3c-1,1.6-0.6,3.6-1.4,5.3C388.8,397.3,389.4,399.1,388,400z"/>
		<path class="st9" d="M371,430c0.1-2-0.8-3.5-2.4-4.7c-0.9-0.7-2.1-1.6-0.7-2.7c1.1-0.9,2.2,0,3,0.9c1.4,1.8,2.8,3.7,4.1,5.5
			c0.7,0.4,1.4,0.8,0.9,1.8c-0.5,0.4-1.1,0.9-1.6,1.3c-0.7,1-1.7,1.6-2.8,0.8C370.5,432.1,370.1,431.1,371,430z"/>
		<path class="st53" d="M331,463c4.2,1.7,6.9-1.3,10-3c1.6-0.4,2.1,0.3,2,1.8c-3.2,2.5-6.8,4.2-10.7,5.3c-0.7,0.4-1.2,0.1-1.7-0.4
			C329.9,465.4,330,464.1,331,463z"/>
		<path class="st54" d="M334,290c-2.1-0.8-3.8-2.4-6.4-2.1c-1.2,0.2-3,0-2.9-1.8c0.1-1.6,1.8-0.9,2.8-0.9c1,0,1.3-0.7,1.6-1.5
			c2.1,0.4,4.1,1.1,5.8,2.4c0,0.6,0,1.3,0,1.9C335,288.8,334.9,289.6,334,290z"/>
		<path class="st55" d="M371,430c0.2,2.2,1.4,2.7,3.3,2.1c0.1,3.3-2.3,5-4.2,7c0.5-2.2,1.2-4.3-1.5-6c-1.1-0.7-2.2-3-0.8-4.4
			C369.1,427.4,370,429.4,371,430z"/>
		<path class="st56" d="M310.1,471c-0.1,0.3-0.2,0.6-0.2,0.9c-0.1,0.5-0.4,0.8-0.9,1c-0.6,0.1-1.3,0.1-1.9,0.2
			c-2.9-2.8,1.4-5.6,0.1-8.4c-0.1-1.4-0.3-2.8-0.1-4.3c0.6-3.8,0.3-7.7,0.6-11.6c0.4-1.4,0.2-3.4,2.7-2.6
			C310.5,454.5,310.9,462.8,310.1,471z"/>
		<path class="st57" d="M306,290c-2.1-3.9,0.9-7.9,0-11.8c0.3,0,0.7,0.1,1,0.1c0.9,0.5,1.5,1.4,1.7,2.4c1.7,2.6,2.1,5.4,1.1,8.3
			C308.7,290.3,307.5,290.7,306,290z"/>
		<path class="st58" d="M343,461.8c-0.7-0.6-1.3-1.2-2-1.8c-1.1-1.4-3.4-1-4.4-2.9c1.1-1.8,2.9-0.8,4.3-1.1c0,0,0,0,0,0
			c1.2,0.8,2.3,1.7,3,3c1,0,2.1,0,3.1,0.1C346.3,460.8,344.8,461.5,343,461.8z"/>
		<path class="st59" d="M309,465c0.7,3-2.3,5.2-2,8.1c-3.9,1.5-8,0.8-12,0.6c0-0.3,0-0.5,0-0.8c1-0.8,2.3-0.9,3.5-1.1
			c1.3-0.6,2.8-0.2,4-1.1c1-0.5,1.7-1.1,2.1-2.2c0.2-0.4,0.4-0.8,0.6-1.2C306.3,466.3,306.8,464.3,309,465z"/>
		<path class="st60" d="M331,466c0.4,0.4,0.8,0.7,1.3,1.1c-2.6,1.6-5.3,2.5-8.3,2.9c0-0.3,0-0.7,0-1c0.5-0.8,1.2-1.5,2-2
			c1-0.7,2-1.3,3-2C330.1,464.5,330.6,465.2,331,466z"/>
		<path class="st61" d="M391,369c1-4.4-2.6-8.5-0.5-12.9c1,4.3,1.8,8.5,1.5,12.9C391.7,369.7,391.3,369.7,391,369z"/>
		<path class="st62" d="M391,369c0.3,0,0.6,0,1,0c0.6,5,0.6,10-0.1,15c-0.6,0.3-1.1,0.2-1.4-0.5c-0.4-3.4,0.5-6.9-0.5-10.3
			c-0.4-1.3,0.1-2.3,0.9-3.2C391,369.7,391,369.3,391,369z"/>
		<path class="st33" d="M250.9,460.3c1.2-2,2.5-3.8,5.7-2.7c-1,1.7-4.4,1.8-2.6,4.5C252.7,461.9,251.7,461.3,250.9,460.3z"/>
		<path class="st63" d="M355,453.8c0.3-0.9,0.7-1.8,1-2.8c0.8-1.8,1.8-3.2,4-3c0.4-0.3,0.8-0.3,1.2,0.1
			C359.4,450.3,357.4,452.2,355,453.8z"/>
		<path class="st64" d="M383.9,415c-2.7,0.5-4.8,0.4-3-3.4c1.7-0.3,2.7,1.6,4.4,1.7C384.8,413.8,384.3,414.4,383.9,415z"/>
		<path class="st65" d="M367.1,442.1c-1.5-1-3.2-1.8-2.7-4.7c1.7,1.8,3.7,1.7,5.7,1.7C369.1,440.1,368.1,441.1,367.1,442.1z"/>
		<path class="st66" d="M391,384c0.3,0,0.6,0,0.9,0c0.3,2.1,0.2,4.2-1,6c-2.2-0.4-1.5-1.7-0.9-3c0-0.7,0-1.3,0-2
			C390.3,384.6,390.4,384,391,384z"/>
		<path class="st67" d="M299,281c-0.6-0.9-0.7-1.9-0.1-2.8c0.7,0,1.4,0,2.1,0c1,0.4,1.6,1,1.5,2.2c0.1,1.4,0.4,2.8-0.8,3.9
			C299.6,284.2,299.7,282.3,299,281z"/>
		<path class="st68" d="M389,396c0.4-1.8,0.7-3.7,2.1-5.1c0.3,2.8-0.5,5.5-1.3,8.1C387.8,398.4,388.5,397.2,389,396z"/>
		<path class="st69" d="M375.9,430.8c-0.3-0.6-0.6-1.2-0.9-1.8c1.1-1.3,1.5-3.4,3.9-3C378.6,428,377.6,429.5,375.9,430.8z"/>
		<path class="st70" d="M389.2,350.9c-2.5-0.3-2.1-2.3-2.2-3.9c0-1,0.1-2.1,0.1-3.1C388.4,346,389,348.4,389.2,350.9z"/>
		<path class="st71" d="M383.9,337l-0.4,0l-0.4,0c-0.6-0.5-1-1.2-1-2c0.1-1.3-1.4-2.6-0.2-4C382.9,332.8,384.5,334.6,383.9,337z"/>
		<path class="st72" d="M353,299c0-0.4,0.1-0.9,0.1-1.3c2.6-0.4,3.7,0.9,4.1,3.2c-0.3,0.4-0.7,0.6-1.2,0.6
			C354.5,301.3,353.4,300.6,353,299z"/>
		<path class="st73" d="M389,396c0.3,1,0.5,2,0.8,3c0.2,0.8,0.1,1.5-0.6,2.1c-0.4-0.4-0.8-0.7-1.2-1.1
			C388,398.6,387.8,397.1,389,396z"/>
		<path class="st0" d="M356,301c0.4,0,0.8-0.1,1.2-0.1c1.1,0.2,1.5,1,1.8,2c0.5,0.7,0.5,1.4,0,2.1l0,0
			C355.3,305.7,355.5,303.5,356,301z"/>
		<path class="st74" d="M359,305c0-0.7,0-1.4,0-2.1c1.5,0.2,3.2,0.1,3.7,2.2C361.5,305,360.2,305,359,305z"/>
		<path class="st47" d="M361.2,448c-0.4,0-0.8,0-1.2-0.1c0.4-1-1.8-1.9-0.4-2.7c1.1-0.5,1.8,0.8,2.4,1.8
			C361.8,447.4,361.5,447.7,361.2,448z"/>
		<path class="st70" d="M387.1,343.9c-0.7-0.3-1.4-0.6-2.1-0.9c0-1.5,0.1-3,0.1-4.5C386.3,340.1,386.9,341.9,387.1,343.9z"/>
		<path class="st75" d="M385,409c0.7-0.3,1.3-0.7,2-1c-0.1,1.9-0.8,3.6-1.8,5.3C385.1,411.8,385.1,410.4,385,409z"/>
		<path class="st0" d="M380.1,327.8c-0.5,0.5-1.1,1-1.6,0.2c-0.6-0.8-0.1-1.5,0.6-2.1C379.9,326.4,380,327.1,380.1,327.8z"/>
		<path class="st76" d="M315.1,279.8c-0.4,0.7-0.7,1.4-1.1,2.2c-1-1-2-1.9-3-2.9C312.4,279,313.9,278.7,315.1,279.8z"/>
		<path class="st77" d="M308,280c-0.4-0.6-0.7-1.1-1.1-1.7c1.1-0.1,2.2-0.5,3,0.6c-0.3,0.4-0.6,0.7-0.9,1.1
			C308.7,280.5,308.4,280.5,308,280z"/>
		<path class="st78" d="M302,280c-0.3-0.6-0.6-1.2-1-1.8c1.3,0,2.6,0,3.9,0c-0.6,0.6-1.3,1.2-1.9,1.8
			C302.7,280.5,302.3,280.5,302,280z"/>
		<path class="st79" d="M296,278.2c-0.3,0.9-0.7,1.9-1,2.8c-0.9-0.7-1-1.8-1-2.8C294.7,278.2,295.3,278.2,296,278.2z"/>
		<path class="st80" d="M207.9,402.2c0.4-0.7,0.7-1.5,1.1-2.2c0.6,0.1,0.6,0.7,1,1c-0.6,1-1.2,2-1.8,3
			C208.1,403.4,208,402.8,207.9,402.2z"/>
		<path class="st76" d="M320.1,281c-1.8,0.1-3.7,0.5-5.1-1.1C316.8,279.9,318.6,279.8,320.1,281z"/>
		<path class="st53" d="M309,472.9c0.3-0.3,0.6-0.7,0.9-1c1.5,0.1,3,0.1,4.5,0.2C312.7,473.3,310.8,473,309,472.9z"/>
		<path class="st81" d="M253.1,332c0-2.3,0.1-4.5,0.1-6.8c10.2,0,20.5,0.1,30.7,0.1c0,2.2-1.6,2.7-3.3,3.1c-3.2,0.2-6.4,0.2-9.6,0.1
			c-1.7-0.2-3.4,0.1-5.2,0c-1.4,0-2.8,0-4.2,0c-1.7,0.1-3.4-0.3-4.7,1.2c-0.4,0.5-0.6,1.1-1,1.6c-0.5,0.5-1.1,0.8-1.7,1
			C253.7,332.4,253.4,332.3,253.1,332z"/>
		<path class="st82" d="M290,324.9c0.1-2,0.1-4,0.2-5.9c1.3-1.8,0.6-4.6,2.9-5.9l0,0c0.6-0.9,1.2-1.7,2.5-1.3
			c0.7,0.3,1.3,0.9,1.7,1.6c0.5,2.1,0.4,4.1,0.1,6.2c-0.4,1.2-1.4,2.1-2.1,3c-1.6,1-2.3,2.8-4,3.8c-0.5,0.1-0.9,0-1.3-0.3
			C289.6,325.7,289.6,325.2,290,324.9z"/>
		<path class="st83" d="M281,327c1-0.6,1.9-1.2,2.9-1.8c1,0,2,0.1,3,0.1c0.5,0.7,0.7,1.4,0.6,2.2c0,2-0.4,3.7-2.3,4.7
			c-1.4,0.4-2.9,0.2-4.3,0.2c-1.9-0.9-1.9-2.7-2.1-4.3C279.2,327.2,280.4,327.7,281,327z"/>
		<path class="st0" d="M285,289c-0.7,0-1.3,0-2,0c0.7-1.6,0.8-2.8-1.4-3c-1.6-0.1-3.3,0.3-4.6-1c-0.4-2,1.2-1.3,2.1-1.5
			c1.7-0.4,3.6,0.1,4.9-1.5c0.3,0,0.7,0,1,0c1.3,0.7,2,2,3,3C287.9,287,285.6,287.4,285,289z"/>
		<path class="st84" d="M293,313c-0.1,2.4-0.8,4.5-2.9,5.9c0-3,0-6,0-8.9C292,310.2,291.9,312.2,293,313z"/>
		<path class="st85" d="M288,285c-1.8-0.2-2.8-1.2-3-3c1.1-1.1,2.2-2.2,4-2C288.7,281.7,288.3,283.3,288,285z"/>
		<path class="st86" d="M286.1,327c0.3-0.6,0.5-1.1,0.8-1.7c1-0.2,2.1-0.3,3.1-0.5c0,0.4,0.1,0.7,0.1,1.1
			C289.5,329.4,288.1,329.5,286.1,327z"/>
		<path class="st87" d="M290.2,349c-0.4-1,0.3-2.4-1.1-3.1c0,0-0.2-0.2-0.2-0.2c-0.3-0.3-0.4-0.7-0.4-1.1c0.2-0.6,0.6-1.1,1.1-1.5
			c0.6-0.5,1.4-0.7,1.9-1.4c0.2-0.4,0.5-0.7,0.7-1c0.5-0.7,1-1.5,1.8-1.9c3.4-1.3,3.7,0.6,3.3,3.2c-0.2,3.3-2.5,6.3-1.6,9.8
			c-0.8,2.4-2.4,3.2-4.8,2.4C289.9,352.7,291,350.7,290.2,349z"/>
		<path class="st88" d="M290.2,454c-0.1-1.3-0.2-2.6-0.3-3.9c0.1-1.3,0.3-2.7,0.4-4c0.3-0.3,0.7-0.3,1.1-0.2c0.9,0.6,1.6,1.3,2.5,2
			c1.1,1.2,2.3,2.2,3.2,3.6c0.6,1.4,0.6,2.9,0.1,4.3c-0.3,0.7-0.8,1.2-1.5,1.5c-1.5,0.6-2.6-0.3-3.7-1.1c-0.5-0.4-0.9-0.8-1.1-1.3
			C290.6,454.6,290.4,454.3,290.2,454z"/>
		<path class="st89" d="M290.2,414c0-11,0-22,0-33c0.6-0.1,1.1,0.1,1.5,0.6c1.5,3.3,0.5,6.8,0.8,10.2c0,0.9,0,1.7,0,2.6
			c0,4.3,0,8.5,0,12.8c0,0.6,0,1.1,0,1.7c-0.1,1.7,0.3,3.4-0.8,4.9C291.3,414.2,290.8,414.3,290.2,414z"/>
		<path class="st90" d="M291,381c-0.3,0-0.6,0-0.8,0c0-10.6,0-21.3,0-31.9c1.2,1.5,0.7,3.3,0.8,4.9c2.9,2.4,2,5.7,2.3,8.8
			c-0.8,2.4-0.8,5-0.8,7.5c-0.3,3.4,0.7,6.9-0.8,10.2C291.5,380.6,291.2,380.8,291,381z"/>
		<path class="st91" d="M290.2,414c0.3,0,0.5,0,0.8,0c2.7,2.8,1.1,6.2,1.5,9.4c0.2,1.9,0,3.9,0,5.9c-0.1,3.5,0.3,7.1-0.4,10.6
			c-0.2,0.5-0.6,1-1.1,1.3c-0.3-0.1-0.6-0.1-0.9-0.2C290.2,432,290.2,423,290.2,414z"/>
		<path class="st92" d="M290.2,441c0.3,0,0.6,0,0.8,0c1.6,1.7,1.6,3.3,0,5l-0.4,0c0,0-0.4,0-0.4,0
			C290.2,444.3,290.2,442.7,290.2,441z"/>
		<path class="st9" d="M284,282c-0.9,4.4-4.7,1.9-7,3c-0.3-0.7-3.6-0.6-0.7-2.2C278.7,281.5,281.4,282.1,284,282z"/>
		<path class="st93" d="M210,401c-0.3-0.3-0.7-0.7-1-1c-1.4-2.3-0.6-4.7,0-7c0.7-0.3,1.3-0.7,2-1c0.3,0.7,0.7,1.3,1,2
			C209.6,395.8,210,398.5,210,401z"/>
		<path class="st94" d="M288.8,345.1c0.1,0.2,0.1,0.4,0.1,0.6c-9.6,0.5-19.2,0.3-28.8-0.2c0-0.5,0-1-0.1-1.6c-0.6-2.6,1.5-3.6,3-5
			c2.3,0,4.7,0,7,0c1.3,1.1-0.1,3.2,1.6,4.1c1.5,0.6,3,0.4,4.5,0.4c0.9,0,1.9,0,2.8,0c1.2-0.1,2.4,0,3.6,0c1.5,0.1,2.9-0.6,4.3-0.4
			C287.9,343.3,288.6,344,288.8,345.1z"/>
		<path class="st95" d="M286.1,327c1.7,1,3,0.8,4-1c0.3,0,0.6,0,1,0c0.9,0.1,1.6,0.6,2.2,1.2c0.4,0.5,0.7,1.1,0.8,1.8
			c0.1,0.7,0,1.3-0.2,1.9c-0.3,0.8-1,1.4-1.7,1.9c-0.4,0.2-0.7,0.4-1.2,0.4c-2-0.1-4-0.3-6-0.4c-0.7-0.2-0.7-0.5-0.2-0.9
			C285.3,330.3,285.7,328.7,286.1,327z"/>
		<path class="st96" d="M253.1,332c0.3,0,0.6,0,1,0c6-2.5,12.1-1.7,18.3-0.7c0.5,0.4,0.8,0.9,0.8,1.6
			C266.4,332.6,259.6,334.1,253.1,332z"/>
		<path class="st97" d="M285,336c0-0.7,0-1.3,0-2c2,0,4,0,6,0c1.9-1.8,4.1-1.8,6.4-0.9c0.5,0.3,0.8,0.8,0.9,1.4
			c-0.1,0.6-0.4,1.1-1,1.4c-3.2,0.9-6.4,1-9.4-0.9C287,335.3,286,335.7,285,336z"/>
		<path class="st98" d="M273,332.9c0-0.3,0-0.6,0-0.9c0.2-0.2,0.4-0.5,0.6-0.7c2.3-1,4.5-1.6,6.4,0.6c1.6,0,3.3,0,4.9,0
			c0.1,0.3,0.1,0.6,0.2,0.9C281,332.9,277,332.9,273,332.9z"/>
		<path class="st99" d="M298,334c-2.3,0-4.7,0-7,0c0-0.2,0-0.5,0-0.7c0,0,0-0.5,0-0.5c2.2-1.1,4.4-1.8,6.7-0.4
			C298.2,332.9,298.3,333.4,298,334z"/>
		<path class="st97" d="M283,334c-2,1.4-4,1.4-6,0C279,334,281,334,283,334z"/>
		<path class="st100" d="M263,339c-0.3,2.1-1.7,3.5-3,5c-0.6-0.2-1.3-0.3-1.9-0.5c-1.3-0.4-3.4,0.2-3.2-2.1c0.1-2.1,1.9-2.5,3.7-2.4
			C260,339,261.5,339,263,339z"/>
		<path class="st101" d="M270.1,344.9c-4.3-1.9-0.1-3.9-0.1-5.9c0-0.3,0-0.5,0.1-0.8c1.3,0,2.6,0,4,0.1c2,2.4,0.4,4.1-1.3,5.7
			C272,344.6,270.9,344.3,270.1,344.9z"/>
		<path class="st102" d="M285.9,337.9c0-0.3,0-0.5,0.1-0.8c1-0.1,2-0.2,3-0.2c2.2-1.5,4.7-0.6,7.1-0.8c0.5,0,1.1,0.2,1.5,0.4
			c0.2,0.2,0.4,0.4,0.6,0.6c0.1,0.6,0,1-0.5,1.4c-1.8,0.1-3.7,0.4-5.4,1.2C289.8,340.6,287.6,340.5,285.9,337.9z"/>
		<path class="st103" d="M297.9,337.1c-0.3,0-0.7-0.1-1-0.1c-2.5-1.2-5.4,0.4-7.9-0.9c-0.3-0.3-0.7-0.7-1-1c3.3,0,6.7,0,10,0
			C298.5,335.7,298.5,336.4,297.9,337.1z"/>
		<path class="st104" d="M289,336c2.6,0.3,5.4-0.8,7.9,0.9c-2.6,0-5.3,0-7.9-0.1C289,336.6,289,336.3,289,336z"/>
		<path class="st105" d="M285.9,337.9c2,0,4,1.5,6.1,0.2c0.3,0.3,0.6,0.6,0.8,0.9c0.1,1,0.8,1.9,0.1,2.9l0,0c-0.9,0.9-1.9,1.5-3,2
			c-0.4,0.4-0.8,0.7-1.2,1.1c-0.6-0.4-1.2-0.7-1.9-1.1c-0.6-0.3-1.3-0.4-1.9-0.8c-1.1-1-1.5-2.3-1.6-3.7c0-0.5,0.2-0.9,0.5-1.3
			C284.6,338.1,285.3,338,285.9,337.9z"/>
		<path class="st106" d="M272,344c0.2-2.1,2.3-3.5,2-5.7c0.7,0,1.4,0,2.1,0c1.3,0.6,2.8,1.1,3.4,2.6c0.1,0.5,0.1,1-0.1,1.5
			c-0.8,1.6-2.4,1.6-3.8,2.1C274.4,344.4,273.1,344.9,272,344z"/>
		<path class="st107" d="M279,341c-1.7-0.2-2.2-1.5-2.9-2.7c2.6,0,5.2,0,7.8-0.1c0,0.3,0.1,0.5,0.1,0.8
			C283.1,343.3,282.5,343.6,279,341z"/>
		<path class="st108" d="M293,462c0,3.5,0.6,7.3-2.8,9.8c-0.1-0.6-0.1-1.2-0.2-1.8c0.1-2.1,0.2-4.1,0.3-6.2c0.5-1.2,0-2.6,0.5-3.9
			c0.4-0.3,0.8-0.4,1.2-0.3C292.9,460.2,292.5,461.3,293,462z"/>
		<path class="st109" d="M291,460c-0.1,1.3,0.2,2.7-0.7,3.9c0-3.3-0.1-6.6-0.1-9.9c0.3,0,0.6,0.1,0.8,0.1
			C292.3,456,292.9,458,291,460z"/>
		<path class="st110" d="M314,313c2.7-0.8,5.5-1.3,8.3-1c7.1,1,13.7-3,20.9-2.1c2.8,0.4,4.9,0.7,4.8,4.1c-1.3,1.1-2.7,2.1-4.4,1.9
			c-7.1-0.8-14,2.3-21.1,1.6c-2.4-0.2-4.5,0.8-6.6,1.8C312.1,318.1,311.9,315.9,314,313z"/>
		<path class="st111" d="M334,356c-5.1,0.3-10.2-0.3-15.3,0.7c-4.5,0.9-5.1,3.5-4.7,7.1c0.4,3.3,0.2,6.4-2.1,9.1
			c-1.9-1.4-1.4-3.5-1.5-5.4c-0.2-5.6,0.3-11.1-0.3-16.7c-0.1-0.6,0-1.2,0.3-1.8c0.4-0.5,0.8-0.9,1.4-1.1c1.6-0.4,3-0.4,4.1,1.1
			c0,0.3,0,0.7,0,1c1,2.5,3.1,2.5,5.4,2.5c7.1-0.1,14.3-0.1,21.4,0.5c1.4,0.1,3-0.3,4.2,1c0,0.7,0,1.3,0,2
			C342.7,358.4,338.3,358.4,334,356z"/>
		<path class="st112" d="M311.1,349c0,0.4,0,0.7-0.1,1.1c0.6,8.3,0.8,16.6-0.1,25c0,29.9,0,59.8,0,89.7c0,2.1,0.6,4.3-0.9,6.3
			c-0.1-8.3-0.2-16.6-0.3-24.9c-1-0.8-1.2-2-1.3-3.2c0-2.6,0-5.3-0.6-7.9c0.2-2.1,0.7-4.1,0.2-6.2c-0.5-2.7,0.6-5.4,0.3-8.1
			c0-11.6,0-23.1,0-34.7c0-2,0-4-0.6-5.9c-0.2-0.6-0.3-1.1-0.4-1.7c-0.1-1.4-0.1-2.9,0.1-4.3c0.2-2.4,1.2-4.8,0.9-7.3
			c0-2.2,0-4.4,0-6.7c0-0.6,0-1.1,0-1.7c0.4-4-0.8-8.2,0.9-12.1c0.4-0.5,1-0.7,1.6-0.5C311.9,346.8,311.9,347.8,311.1,349z"/>
		<path class="st113" d="M314,313c0.1,2.2-0.5,4.6,2,6c0.2,0,0.5,0.1,0.7,0.1c5.5,1.4,10.9-1.5,16.4-0.6c3.6,0.6,7.6-1.3,10.9,1.5
			c0,2.4-1.4,3.1-3.6,3c-7.7-0.3-15.3-0.5-23-0.9c-2.2-0.1-4.2,0.4-6.3,0.9c-1.2-0.8-1.4-1.9-1.3-3.2c0.9-3.4,0.6-6.9,0.7-10.3
			c0.1-1.9-0.5-4,1.5-5.5C314.8,306.5,315.5,309.5,314,313z"/>
		<path class="st11" d="M316,319c0-2.1,1-3.1,3.1-3c9.8,0.8,19.1-3.5,28.9-2c-0.3,1.3-0.7,2.7-1,4c-4.4,2.1-9.2,0.5-13.7,1
			C327.5,318.4,321.8,320.4,316,319z"/>
		<path class="st16" d="M347,354c-9.1,0-18.1-0.1-27.1,0.1c-3.1,0.1-4.7-0.7-3.9-4.1c2,1.1,4.1,1.1,6.3,1c7.6-0.4,15.1,0.6,22.7,1
			C346,352.1,347.9,351.7,347,354z"/>
		<path class="st114" d="M315,460c1.1-3.7,4.4-4.2,7.2-3.8c3.7,0.4,7.2,2.3,11,2c0.9-0.1,1.6,0.8,1.1,1.7c-0.5,1.1-1.7,1-2.6,0.7
			c-5.7-1.8-10.7,0.3-15.8,2.3C315.3,462.1,315,461.1,315,460z"/>
		<path class="st115" d="M347.9,326.2c2.4,2.9,1,5.8,0.1,8.8c-1.9,1-3.9,0.3-5.4,0.5c1.1,0.6,3-0.6,4.4,0.6c0.3,0.7,0.7,1.3,1,2
			c-0.1,0.2-0.3,0.4-0.4,0.6c-0.6,0.5-1.3,0.8-2,1c-1,0.2-2,0-3-0.1c-1.2,0-2.5,0-3.7-0.1c-1,0-2-0.1-2.8-0.8
			c-0.3-0.3-0.6-0.7-0.7-1.2c-0.4-0.3,0.8-1.4-0.7-1.2c-1.7,0.2-3.2,0.8-4.6,1.7c-1,0.3-1.9,0.4-2.9,0.1c-1.3-0.4-2.2-1.4-3.1-2.2
			c-0.3-0.4-0.5-0.9-0.5-1.5c0.1-0.5,0.4-1,0.9-1.3c1.2-0.7,2.6-0.6,3.9-0.6c5.3-0.5,10.8,1.1,16-1.2c1.8-0.8,2-2.6,2.6-4.2
			C347.2,326.8,347.5,326.5,347.9,326.2z"/>
		<path class="st14" d="M334,356c4.3,0,8.7,0,13,0c3.3,3.1-0.3,2.8-1.7,2.9c-6,0.6-11.9-0.8-18.6-1.2
			C329.5,356.4,332.1,357.8,334,356z"/>
		<path class="st116" d="M311.1,319.9c0,1,0,2.1,0,3.1c0.3,0.6,0.6,1.2,0.9,1.9c-0.7,0.7-1.5,0.7-2.3,0.2c-0.4-0.4-0.8-0.9-1-1.4
			c-0.4-2.3-0.2-4.6-0.3-6.9c0-2.4,0-4.7,0-7.1c0.1-6.2-0.1-12.3,0.1-18.5c1.7-3.2,0.3-6.7,1.3-10c1.4,1,0.9,2.6,1.2,4
			C311.7,296.7,311.8,308.3,311.1,319.9z"/>
		<path class="st117" d="M356,301c1.3,1.1,0.9,3.5,3,4c-4.8,1.6-7.1,0.6-8.7-3.9c-0.3-0.9-1-2,0-2.7c0.9-0.6,1.9,0.3,2.8,0.6
			C354.4,299.1,355.4,299.8,356,301z"/>
		<path class="st118" d="M311.1,319.9c0-11.6,0-23.2,0-34.8c1.9,6.2,0.4,12.6,0.9,18.9C311.5,309.3,313,314.7,311.1,319.9z"/>
		<path class="st119" d="M314,324.9c7.5-1.9,15.2-0.6,22.8-0.8c3.3-0.1,7-1.3,10.1,1.1c-2.6,2.3-5.9,0.7-8.8,1.8
			c-2.2,0-4.4-0.7-6.7-0.5c-2.6,0-5.2,0-7.9,0C320.4,326,316.8,327.8,314,324.9z"/>
		<path class="st16" d="M353,443c-0.3,2-1,3.8-3.4,4.2c-1.3,0.2-1.8-0.6-2.1-1.5c-0.5-1.3-0.6-2.6,0.4-3.6c1.1-1.2,2.7-0.9,4.1-1
			C353,441.4,353.5,441.9,353,443z"/>
		<path class="st120" d="M333,347c-4.3-1.1-8.8,2.1-13-0.9c1.8-2.4,4.5-1.3,6.8-1.6c2.1,0,4.2,0,6.3,0c4.5,0.2,9-0.4,13.5,0.4
			c0.6,0.2,1,0.6,1.4,1.2c-1.2,2.6-3.2,1.2-5,1c-2,0.7-4,0.7-6,0c-0.3,0-0.7,0-1,0C335,347.7,334,347.7,333,347z"/>
		<path class="st53" d="M313,446.7c0,6.1-0.1,12.2,0.1,18.4c0,1.4-1.3,3.9,1.9,3.9c0.1,0,0.5,0.9,0.3,1.2c-0.2,0.3-0.8,0.6-1.2,0.6
			c-1.8-0.1-2-1.5-2-2.8c0-7.1,0-14.2,0-21.3C312.3,446.7,312.7,446.7,313,446.7z"/>
		<path class="st13" d="M333,318c4.7,0,9.3,0,14,0c0.3,0.7,0.7,1.3,1,2c-1,0.8-2,0.8-3,0c-0.3,0-0.7,0-1,0c-4,0-8,0-12,0
			C331.4,318.8,332.4,318.6,333,318z"/>
		<path class="st50" d="M363.5,315.1c1.9,2.1,4.1,3.6,6.2,5.2c0.8,0.6,1.2,1.6,0.5,2.6c-0.4,0.6-1.5,0.9-1.7,0.5
			C367.1,320.4,363.5,318.8,363.5,315.1z"/>
		<path class="st121" d="M314,324.9c3.4,0.1,6.7,0.2,10.1,0.4c1.5,1.2,4.4-1.4,5.1,1.9c-0.3,0.5-0.7,0.8-1.2,1
			c-1.8,0.5-3.7,0.3-5.5,0.3c-0.5,0-1,0-1.5,0c-2.5-0.7-4.9-0.6-7.4,0c-1.9-0.2-4-0.2-4-2.9c0.2-0.2,0.3-0.5,0.5-0.7
			c0.7,0,1.3,0,2,0C312.7,324.9,313.4,324.9,314,324.9z"/>
		<path class="st120" d="M311,375c0-8.3,0.1-16.6,0.1-25c2,7.6,0.4,15.3,0.9,22.9C311.7,373.7,311.3,374.3,311,375z"/>
		<path class="st122" d="M327,345.7c-2.3,0.1-4.6,0.3-7,0.4c-1,0-2.1,0-3.1,0c-1.9,1.6-3.9,1.7-5.8-0.1c-0.3-0.1-0.7-0.1-1-0.1
			c-0.3-0.5-0.2-1,0.2-1.5c1.3-1.2,3-0.9,4.6-1c1.1,0,2.1,0,3.2-0.1c2.1-0.6,4.2-0.3,6.3,0.1c0.8,0.1,1.6,0.2,2.2,0.7
			C327.1,344.7,327.2,345.1,327,345.7z"/>
		<path class="st123" d="M338,325.9c2.8-1.7,5.9-0.5,8.9-0.7c0.3,0.3,0.7,0.7,1,1c0,0.2,0,0.4,0,0.5c-0.2,0.4-0.5,0.7-0.8,1
			c-1.3,0.6-2.6,0.5-3.9,0.5c-1.3-0.1-2.6-0.5-3.8-1c-0.4-0.2-0.7-0.5-1-0.8C338.2,326.3,338.1,326.1,338,325.9z"/>
		<path class="st70" d="M384,343c-0.8,2.3,1.7,5-1,7c-0.8-2.6-1.2-5.3-1-8C382.7,342.3,383.3,342.7,384,343z"/>
		<path class="st124" d="M382,390c2.6,2,3.5,4,0,6C382,394,382,392,382,390z"/>
		<path class="st125" d="M309.9,281.1c0,3.3,0,6.6,0,9.9c-0.4,0.3-0.8,0.2-1.2-0.1c-0.3-0.7-0.3-1.3,0.3-1.9c0.2-3,0-6-0.9-9
			c0.3,0,0.7,0,1,0C309.3,280.4,309.6,280.7,309.9,281.1z"/>
		<path class="st126" d="M316,349c-1.3,0-2.7,0-4,0c0.3-2.8,0.6-2.9,5-2C318.2,347.9,318.2,347.9,316,349z"/>
		<path class="st126" d="M337,347c2,0,4,0,6,0C341.7,348.6,338.1,348.6,337,347z"/>
		<path class="st127" d="M331,466c-0.7-0.3-1.3-0.7-2-1c-0.6-0.4-1.6-0.8-1-1.7c0.8-1.1,1.9-0.8,3-0.3C331.5,464,331.5,465,331,466z
			"/>
		<path class="st115" d="M348,346c-0.4,0-0.7,0-1.1-0.1c-0.6-2.7-1-5.4,0.9-7.8c0,0,0.2-0.2,0.2-0.2
			C349.5,340.7,349.5,343.3,348,346z"/>
		<path class="st47" d="M353,443c-0.3-0.7-0.7-1.3-1-2c1.1-0.8,2.5-1.7,3.2-0.1C355.7,442.2,353.8,442.4,353,443z"/>
		<path class="st120" d="M317,347c-1.8,0.3-4.2-0.8-5,2c-0.3,0-0.6,0-0.8,0c0-1,0-1.9,0-2.9c1.9,0,3.8,0.1,5.8,0.1
			C317,346.4,317,346.7,317,347z"/>
		<path class="st128" d="M347,336c-1.8,0-3.6,0-5.4,0c0-0.3,0-0.7,0-1c2.1,0,4.3,0,6.4,0C347.7,335.3,347.3,335.7,347,336z"/>
		<path class="st73" d="M384,402c2.5,1.7,2.5,3.3,0,5C384,405.3,384,403.7,384,402z"/>
		<path class="st129" d="M334,290c0.3-0.7,0.7-1.3,1-2c0.7,1,2.8,2,0,3C334.7,290.7,334.3,290.3,334,290z"/>
		<path class="st113" d="M345,320c1,0,2,0,3,0c-0.2,1-0.3,2.2-1.5,2.2C345.3,322.2,345.2,321,345,320z"/>
		<path class="st130" d="M348.8,306.7c-0.2-0.7-0.5-1.1-0.4-1.4c0.1-0.2,0.6-0.4,1-0.4c0.1,0,0.4,0.5,0.3,0.7
			C349.6,305.9,349.2,306.2,348.8,306.7z"/>
		<path class="st126" d="M333,347c1,0,2,0,3,0c0,1.6-1.4,1.8-2.3,1.9C332.6,349,333.2,347.7,333,347z"/>
		<path class="st53" d="M326,467c-0.2,1.2-0.8,1.8-2,2C323.1,466.7,323.8,466.1,326,467z"/>
		<path class="st131" d="M382,335c0.3,0.7,0.7,1.3,1,2c-0.7-0.1-1.7,0.3-2-0.7C380.9,336,381.7,335.4,382,335z"/>
		<path class="st69" d="M375.5,423.1c-0.6,0.5-0.9,0.9-1.2,1.1c-0.5,0.2-1-0.1-0.8-0.7c0.1-0.3,0.4-0.6,0.6-0.7
			C374.4,422.8,374.8,423,375.5,423.1z"/>
		<path class="st53" d="M315,460c0.9,0.8,1,1.9,1,3C314.9,462.3,313.6,461.6,315,460z"/>
		<path class="st70" d="M382,342c-1-0.2-2.4-0.3-2.2-1.4c0.3-1.5,1-0.5,1.5,0.1C381.6,341.1,381.8,341.6,382,342z"/>
		<path class="st132" d="M391,384c-0.3,0.3-0.7,0.7-1,1c-0.9-2.3,0.4-4.7,0-7c0-1.3,0-2.7,0-4c-0.3-0.9,0.1-1.2,1-1
			C391,376.7,391,380.3,391,384z"/>
		<path class="st10" d="M391,373c-0.3,0.3-0.7,0.7-1,1c-1.8-0.3-3.2-1.1-2.7-3.1c0.6-2.1,2.3-0.9,3.6-0.9C391,371,391,372,391,373z"
			/>
		<path class="st84" d="M295,312c-0.7,0.3-1.3,0.7-2,1c0-3.7-0.2-7.4-1-11c0.9-1,0-2.7,0.9-3.5c1.8-1.8-0.5-1.7-0.9-2.5
			c0.9-1.9,2.1-3.8,1-6c1.4-0.8,2.2,0.2,3,1c-0.4,1-1.2,2,0,3c0.8,1.7,0.8,3.3,0,5c0,1,0,2,0,3C296.1,305.4,298.3,309,295,312z"/>
		<path class="st79" d="M296,291c-1-0.3-2-0.7-3-1c0.1-1.6-0.6-2.9-1.3-4.2c-0.7-1.2-0.2-2.4,0.9-3c1.1-0.6,1.6,0.8,2.4,1.2
			C295.6,286.3,296.3,288.6,296,291z"/>
		<path class="st133" d="M292,296c4.6,2,0.2,4,0,6C292,300,292,298,292,296z"/>
		<path class="st0" d="M344,459c-1.3-0.7-2.3-1.7-3-3C342.8,456.2,343.8,457.2,344,459z"/>
		<path class="st134" d="M308.9,289c0,0.7,0,1.3,0.1,2c1.1,4.1,0.2,8.4,0.5,12.5c-0.7,2.2-0.3,4.6-1.1,6.8c-1,1-2.1,1.5-3.5,0.8
			c-0.4-0.7-0.4-1.5,0.1-2.1c1.7-6.3,0.7-12.7,1-19C307,289.7,308,289.3,308.9,289z"/>
		<path class="st135" d="M302.1,285.8c0.3,0.1,0.5,0.2,0.8,0.3c1.3,6.2,0.2,12.5,0.6,18.7c0.2,3.9,1.1,7.8,1,11.8
			c0.1,2.3-0.2,4.7,0.5,7c0.1,0.6,0.1,1.2,0.1,1.8c-0.5,2.3-0.4,4.7-1.1,7c-0.3,0.6-0.8,0.9-1.4,1.2c-0.7,0-1.2-0.3-1.6-0.9
			c-1-1.3-1-2.8-1-4.2c0.2-13.4-0.6-26.8,0.6-40.1c0.1-0.6,0.3-1.2,0.7-1.8C301.6,286.1,301.9,286,302.1,285.8z"/>
		<path class="st136" d="M303.1,317c0-4,0-8,0-12c0.3-0.7,0.6-0.7,0.9,0c0.3,1.3,0.7,2.7,1,4c0,0.7,0,1.3,0,2c2.8,1.7,2.9,4,1.7,6.7
			C305.2,319.1,304.1,318,303.1,317z"/>
		<path class="st137" d="M304,305c-0.3,0-0.6,0-0.9,0c-0.1-6.3-0.1-12.7-0.2-19C305.3,292.2,303.4,298.7,304,305z"/>
		<path class="st138" d="M302,280c0.3,0,0.7,0,1,0c0.9,2.1-0.2,3.9-0.9,5.7c0,0-0.2,0.4-0.2,0.4c-1.3,1-2.6,1-3.9-0.1
			c0.3-0.7,0.6-1.4,1-2.1c0.6-0.6,1.3-0.7,2-0.1C302.2,282.9,301.9,281.4,302,280z"/>
		<path class="st139" d="M301.9,287c0.1,15.3,0.1,30.6,0.2,45.9c0.1,0.2,0.2,0.5,0.4,0.7c-0.1,0.5-0.4,0.9-0.9,1.2
			c-1.4,0.6-2.5,0.2-3.5-0.8c0,0,0,0,0,0c0-0.4,0-0.8-0.1-1.1c-1.8-1.7-1.3-3.9-1.4-6c-0.2-5.1,0.9-10.2,0.4-15.4
			c0.1-0.9,0.3-1.8,0.8-2.6c0.1-6,0.2-11.9,0.4-17.9c0.3-0.3,0.5-0.6,0.8-0.9c0.7-1-0.5-2,0-3C299.8,286.3,300.8,286.2,301.9,287z"
			/>
		<path class="st140" d="M297.7,308.9c0,0.7,0,1.5,0,2.2c-0.3,0.9-0.7,1.7-1.8,1.9c-0.3-0.3-0.7-0.7-1-1c1.7-3.2,0.8-6.7,1-10
			C297.9,304,296.2,306.8,297.7,308.9z"/>
		<path class="st141" d="M301,284c-0.7,0-1.3,0.1-2,0.1c-1.1-1-1.1-2.1,0-3.1C302.1,280.4,300.6,282.8,301,284z"/>
		<path class="st142" d="M299,291c-0.3,0-0.6,0-0.9,0c0-1.6,0-3.3-0.1-4.9c1.3,0,2.6,0,3.9,0.1c0,0.3,0,0.6-0.1,0.9
			c-1.1,0-2.1,0-2.9,1C299.8,289,299.9,290,299,291z"/>
		<path class="st140" d="M296,299c0-1.7,0-3.3,0-5C297.4,295.7,297.4,297.3,296,299z"/>
		<path class="st143" d="M295,457c0.3-0.3,0.7-0.7,1-1c1.7-3.3-0.6-6.4-0.5-9.7c0.2-6.3,0.1-12.6,0-18.9c-0.1-1.9-0.5-3.9,1.4-5.3
			c0.6-0.3,1.2-0.2,1.7,0.3c1.3,1.8,0.9,3.8,0.9,5.8c0,10.6,0,21.2,0,31.9c-0.8,2.8,0.6,4.9,2.3,6.9c0.4,3-0.6,4.4-3.8,3.1
			c-3.1-2.2-1.6-6.5-4-9C292.4,459.2,293.9,458.1,295,457z"/>
		<path class="st144" d="M298,470c1.4-0.6,3.4-0.5,3-2.9c0-0.7,0.3-1.2,0.8-1.6c0.4-0.2,0.8-0.3,1.2-0.3c0.4,0,0.8,0.1,1.2,0.3
			c0.8,0.4,1.2,1.2,1.5,2c0,0.2,0.1,0.4,0.1,0.6c0,0.3,0,0.7,0,1c-0.7,1.3-0.9,2.9-2,4c-1.7,0-3.4,0-5.1,0c-0.6-0.5-1.5-0.8-1-1.9
			C298,470.7,298,470.3,298,470z"/>
		<path class="st145" d="M295,457c0.9,1.6-1.3,2.5-1,4c-0.3,0.3-0.7,0.7-1,1c-0.3-0.7-0.7-1.3-1-2c-0.8-1.7-0.8-3.3,0-5
			C293.4,455.1,294,456.3,295,457z"/>
		<path class="st146" d="M298,471c0.3,0.6,0.7,1.3,1,1.9c-1.3,0-2.6,0-3.9,0C295.7,471.7,296.6,471.1,298,471z"/>
		<path class="st147" d="M309,449c0,4,0,8,0,12c-3.4,0.5-4.4-2.4-6.2-4.3c-0.4-2.2-0.7-4.3,0.3-6.4c0.5-0.6,1.1-0.9,1.9-1
			c1,0.1,2,0,2.9-0.6C308.4,448.6,308.7,448.7,309,449z"/>
		<path class="st148" d="M304,457c2.3,0.5,3.3,2.7,5,4c0,1.3,0,2.7,0,4c-1,1-2,2-3,3c0,0,0,0,0,0c-0.9-1-1.2-2.3-2.1-3.3
			C303.4,462.1,303,459.6,304,457z"/>
		<path class="st149" d="M309,449c-0.3,0-0.7,0-1,0c-1.4-0.8-1.4-2.2-1.5-3.5c0-0.5,0-1.1,0-1.6c0.1-1.3,0-2.6,0.8-3.7
			c0.4-0.4,0.8-0.6,1.4-0.5c1.4,0.7,0.4,2.4,1.2,3.3c0,1,0,2.1-0.1,3.1C309,446.9,309,448,309,449z"/>
		<path class="st150" d="M304,473c0.2-1.5,0.8-2.9,2-4C306,470.7,305.7,472.2,304,473z"/>
		<path class="st151" d="M266,327c1.3,0.1,2.7-1.4,4,0c0.3,1.5,4.5,2.4,0.7,4.5c-5.2,0-10.5,0.2-15.7-0.5c0-0.7,0-1.3,0-2
			c1.5-1.4,3.3-0.9,5.1-1C262.1,327.9,264.4,329.3,266,327z"/>
		<path class="st152" d="M272,331c-0.9-1.2-3.3-1.7-2-4c3.7,0,7.3,0,11,0c-0.7,0.3-1.3,0.7-2,1c-1,2.7-3.4,2.9-5.8,3.3
			C272.8,331.4,272.4,331.3,272,331z"/>
		<path class="st153" d="M272,331c0.3,0,0.7,0,1,0c0.3,0.2,0.3,0.4,0.3,0.6c-0.1,0.2-0.2,0.3-0.2,0.3c0,0,0,0,0,0
			c-6.3,0-12.7,0-19,0c0.3-0.3,0.7-0.6,1-1C260.7,330.1,266.3,331.4,272,331z"/>
		<path class="st154" d="M266,327c-0.3,4.2-2.7,2.9-5,2c-0.6-0.7-0.6-1.3,0-2C262.7,327,264.3,327,266,327z"/>
		<path class="st155" d="M261,327c0,0.7,0,1.3,0,2c-2,0-4,0-6,0C256.1,325.8,258.9,327.4,261,327z"/>
		<path class="st156" d="M296,313c0.6-0.6,1.2-1.3,1.8-1.9c0,5.3,0,10.6,0.1,15.9c-0.5,0.3-0.9,0.2-1.3-0.1
			c-1.5-1.9-0.9-4.1-0.6-6.2c0-0.2,0-0.5,0.1-0.7C296,317.7,296,315.3,296,313z"/>
		<path class="st157" d="M292,328c-0.3-0.7-0.7-1.3-1-2c0.3-1.8,0.8-3.6,3-4c1.4,0.5,1.6,1.5,1.2,2.7
			C294.4,326.1,293.7,327.6,292,328z"/>
		<path class="st156" d="M294,324c0.8-0.7,0.2-1.3,0-2c0.7-0.7,1.3-1.3,2-2c0,0,0,0,0,0c0.4,2.2,1.5,4.5-0.8,6.3
			C293.6,326.2,293.1,325.5,294,324z"/>
		<path class="st158" d="M273,332c0-0.3,0-0.7,0-1c2-1,4-2,6-3c0.2,1.4,3.5,1.9,1,3.9C277.7,332,275.3,332,273,332z"/>
		<path class="st159" d="M292,363c-1.5-2.9-0.8-6-1-9c1.4-0.9,3.6-0.7,4-3c0.3,0,0.5-0.1,0.8-0.1c1.9,1,2,3,2.6,4.7
			c0.2,2.1,0.1,4.3,0,6.4c-0.1,0.8-0.3,1.5-0.8,2.1c-2,0.6-3.3,3.4-6,1.9C291.5,364.9,291.3,363.9,292,363z"/>
		<path class="st160" d="M297,362c0-2.4,0-4.7-0.1-7.1c-0.6-2.1-0.7-4.4-1.3-6.5c0.5-2.1,1.2-4.2,0.4-6.4c0.2-1.5,0.9-3.6-2-2
			c-0.9,0-1.5-0.4-2-1c0-0.3,0-0.5,0-0.8c1.9,0,3.9,0,5.8,0c1.7,1.1,1.6,2.8,1.6,4.4c0,5.8,0.2,11.6-0.1,17.4
			c-0.1,0.6-0.3,1.2-0.7,1.7C298.2,362.2,297.6,362.3,297,362z"/>
		<path class="st161" d="M296,342c1.6,1.8,0.8,4,1,6c-0.7,1-0.5,2.5-2,3c0,0,0,0,0,0c-0.5-0.4-1.5-0.9-1.4-1.1
			C294.3,347.2,295.2,344.6,296,342z"/>
		<path class="st162" d="M290,344c0.6-1.3,1.6-1.9,3-2C292.7,343.6,291.9,344.7,290,344z"/>
		<path class="st163" d="M292,339c0.7,0.3,1.3,0.7,2,1c-0.3,0.7-0.7,1.3-1,2C292.7,341,292.3,340,292,339z"/>
		<path class="st164" d="M297,427c0,7.9,0,15.8,0,23.8c0,1.8,0.4,3.7-1,5.2c0-1.7,0-3.3,0-5c-2.6-3.5-3.9-7.5-3.8-11.9
			c1.6-3,2.3-6.1,2.4-9.5C294.9,428.3,295,426.8,297,427z"/>
		<path class="st165" d="M293,439c0.7,4.1,3.1,7.8,3,12c-2.2,1.1-2.1-2.4-4-2c-1.1-2.4-0.3-4.9-0.5-7.3c0-0.8,0-1.6,0.1-2.4
			C292,438.7,292.5,438.7,293,439z"/>
		<path class="st166" d="M292,441c0,2.7,0,5.3,0,8c-0.9-0.8-1-1.9-1-3c0-1.7,0-3.3,0-5c0,0,0,0,0,0C291.3,440.3,291.7,440.3,292,441
			z"/>
		<path class="st167" d="M292,455c0,1.7,0,3.3,0,5c-0.3,0-0.7,0-1,0c0-2,0-4,0-6C292.1,453.6,291.9,454.5,292,455z"/>
		<path class="st168" d="M291,409c0-0.3,0-0.7,0-1c1.1-2,0.2-4.5,1.9-6.3c0.5-0.2,1-0.1,1.5,0.1c1.7,1.3,2.8,2.8,2.2,5
			c-0.4,1.3-1.3,1.6-2.5,0.8c4,2.1,5.6,5.1,3.4,9.4c-0.6,0.6-1.3,0.8-2.1,0.8c-1.6-0.2-2.5-1.3-3.5-2.3
			C291.2,413.4,292.1,411,291,409z"/>
		<path class="st169" d="M294,402c-0.3,0-0.7,0-1,0c-2.9-2.1,0-5.7-2-8c0-0.7,0-1.3,0-2c0.4-0.4,0.9-0.6,1.3-0.9
			c0.7-0.7,1.3-1.6,2.6-1.3C297.8,393.9,297.4,399.4,294,402z"/>
		<path class="st170" d="M291,409c1.3,1.8,1.7,3.8,1,6c3.1,3.2,1.9,7.2,1.7,10.9c-0.3,1.3-0.1,2.8-1.2,3.9c-0.5,0.4-1,0.5-1.5,0.1
			c0-5.3,0-10.7,0-16C291,412.3,291,410.7,291,409z"/>
		<path class="st171" d="M291,394c2.8,2.1,0.7,5.5,2,8c-0.1,2.2-0.6,4.2-2,6C291,403.3,291,398.7,291,394z"/>
		<path class="st172" d="M293,393c-0.7-0.3-1.3-0.7-2-1c0-3.7,0-7.3,0-11c0,0,0,0,0,0c0.4-0.3,0.8-0.4,1.3-0.3
			c2.5,1.9,2.7,4.7,1.9,7.2C293.6,389.6,293.7,391.4,293,393z"/>
		<path class="st173" d="M292,381c-0.3,0-0.7,0-1,0c0-3.7,0-7.3,0-11c0.4-0.3,0.8-0.4,1.3-0.2c1.3,1,1.2,2.5,1.8,3.8
			c0.4,1.9-0.3,3.7-0.2,5.5C293.6,380.1,293,380.8,292,381z"/>
		<path class="st174" d="M292,370c-0.3,0-0.7,0-1,0c0.2-2.3-0.7-4.9,1-7c0,1,0,2,0,3C293,367.3,293.3,368.7,292,370z"/>
		<path class="st175" d="M291,430c0.3,0,0.7,0,1,0c2.9,3,2,6,0,9c0,0.7,0,1.3,0,2c-0.3,0-0.7,0-1,0C291,437.3,291,433.7,291,430z"/>
		<path class="st176" d="M279,341c2.7,2,3-2.2,5-2c2.4,0.5,0.7,3,2,4c-0.7,1.1-2.3,0.9-3.1,1.9c-1.3,0-2.6-0.1-3.9-0.1
			c-0.9-0.9-0.7-1.9-0.1-2.9C279,341.7,279,341.3,279,341z"/>
		<path class="st177" d="M282.9,345c0.4-1.7,1.6-2,3.1-1.9c0.3,0.3,0.6,0.7,0.9,1C285.7,344.9,284.4,345.2,282.9,345z"/>
		<path class="st107" d="M279,342c0,1,0,1.9,0.1,2.9c-1,0-2,0.1-3,0.1c-0.7-0.3-0.7-0.6-0.1-1C277,343.3,278,342.6,279,342z"/>
		<path class="st178" d="M276,344c0,0.3,0,0.7,0.1,1c-2,0-4,0-6,0c0.6-0.3,1.3-0.6,1.9-0.9C273.3,344,274.7,344,276,344z"/>
		<path class="st179" d="M297,327c0.3,0,0.5,0,0.8,0c0,2,0.1,3.9,0.1,5.9c-2.3,0-4.6,0-6.9-0.1c0.2-1.1,1-1.7,2-1.8
			c1-1.1,1.9-2.3,2.9-3.4C296.2,327.3,296.6,327.1,297,327z"/>
		<path class="st180" d="M294,324c0.3,0.7,0.7,1.3,1,2c0.6,0.9,1.6,1.7,1.1,3c-1,0.9-2,1-3.1,0.1c-0.3-0.3-0.7-0.7-1-1
			C292.7,326.7,293.3,325.3,294,324z"/>
		<path class="st181" d="M293,329.1c1.1-0.1,2.2-0.1,2.9-1c0.3-0.3,0.7-0.4,1,0c0.3,3.2-2.3,2.4-3.9,3
			C293,330.3,293,329.7,293,329.1z"/>
		<path class="st182" d="M298,334c1.3,0,2.7,0,4,0c0.4,0.4,0.5,1,0.5,1.5c-0.9,2.5-2.5,2.9-4.6,1.5c0,0,0,0,0,0c0-0.7,0-1.4,0.1-2.1
			C298,334.7,298,334.3,298,334z"/>
		<path class="st103" d="M297.9,337c1.7,0,3.2-0.3,4.1-2c1.6-0.3,1.6,0.8,1.8,1.9c0,0.8-0.4,1.5-0.7,2.3c-0.3,0.5-0.6,0.9-1.1,1.2
			c-2.1,1.3-1.4,3.5-1.6,5.3c-0.5,5,1,10.1-0.9,15c-0.4,0.4-0.9,0.5-1.5,0.3c-0.1-7.6-0.2-15.2-0.3-22.9
			C297.9,337.8,297.9,337.4,297.9,337z"/>
		<path class="st183" d="M309,379c0.9,0.9,0.9,2.1,0.9,3.3c0,13-0.1,25.9-0.1,38.9c-0.6,0-1.1-0.2-1.5-0.6c-1.3-2-0.6-4.3-0.8-6.5
			c0-1.1,0-2.2,0-3.4c0-1.7,0-3.5,0-5.2c0-6.4,0-12.9,0-19.3C307.8,383.7,306.7,380.9,309,379z"/>
		<path class="st184" d="M309,440c-0.3,0-0.7,0-1,0c-1.3-0.1-2.2-0.8-2.9-1.8c-0.9-1.9-1.5-3.9-2.3-5.9c-0.1-0.5-0.2-0.9-0.2-1.4
			c0.2-2-0.4-4.2,1.1-6c1.9-0.7,2.7,0.6,3.3,1.9c0.6,1.3,1.5,2,2.8,2.2c0,2,0,4-0.1,6C309,436.7,310.1,438.5,309,440z"/>
		<path class="st185" d="M309.8,429.1c-1,0.7-0.6,2.8-2.6,2.4c-1.9-0.4-0.6-1.8-1-2.7c-0.6-1.3-1.4-2.6-2.2-3.8
			c-0.3-0.3-0.5-0.7-0.5-1.2c0.8-2.5,3.2-1.7,4.9-2.7c0.2,0,0.4-0.1,0.6-0.1c0.3,0,0.5,0,0.8,0.1
			C309.8,423.8,309.8,426.4,309.8,429.1z"/>
		<path class="st186" d="M309.1,374c-0.1,1.4-0.1,2.7-0.2,4.1c-0.7,2.3-0.5,4.7-0.4,7c0,0.4-0.1,0.9-0.3,1.3c-1,1.3-1.2,3.8-3.9,2.4
			c-1.3-1.9-0.4-4.3-1.5-6.3c-0.1-0.5-0.2-1-0.2-1.5c0-0.8,0.1-1.5,0.4-2.2c2.2-1.8,2.5-5.5,6-6c0.3,0.2,0.4,0.5,0.3,0.8
			C309.2,373.8,309.2,374,309.1,374z"/>
		<path class="st187" d="M309.8,358.9c0,0.4,0,0.7,0,1.1c-0.2,0.3-0.5,0.7-0.8,1c-0.5,0.4-1.1,0.6-1.7,0.6c-1.1-0.3-1.9-1.1-2.6-1.9
			c-1.4-1.4-2.3-2.9-1.4-4.9c0.4-0.6,0.9-1.1,1.5-1.4c1.5,0,3-1.2,4.5-0.1C309.7,355.1,309.2,357.1,309.8,358.9z"/>
		<path class="st188" d="M309.8,358.9c-1.3-1.8-0.6-3.9-0.8-5.9c-1-0.6-1.4-1.6-1.5-2.7c-0.2-1.3-0.1-2.6,0.2-3.9
			c0.3-0.8,0.8-1.3,1.6-1.6c0.2,0.1,0.5,0.2,0.7,0.3c0,0.3,0,0.5,0.1,0.8C310.1,350.3,309.9,354.6,309.8,358.9z"/>
		<path class="st189" d="M308,386c-0.9-2.8-0.9-5.5,0.8-8c0.1,0.3,0.1,0.6,0.2,1c0,2.3,0,4.7-0.1,7C308.7,386.3,308.3,386.4,308,386
			z"/>
		<path class="st190" d="M309,440c0.1-1.6-0.4-3.4,0.7-4.9c0,2.6,0.1,5.2,0.1,7.9C309,442.1,309,441.1,309,440z"/>
		<path class="st191" d="M309.1,374c0-0.3-0.1-0.6-0.1-0.9c-1.9-1.6-1.7-3.5-0.7-5.4c0.4-0.5,0.9-0.7,1.5-0.6
			C309.7,369.3,310.7,371.8,309.1,374z"/>
		<path class="st192" d="M309.8,367c-0.3,0-0.5,0.1-0.8,0.1c-0.2-0.2-0.5-0.4-0.7-0.5c-1.5-2.3-0.5-4.4,0.7-6.5c0.3,0,0.6,0,0.9-0.1
			C309.8,362.3,309.8,364.6,309.8,367z"/>
		<path class="st110" d="M333,318c-0.3,0.7-0.7,1.3-1,2c-4.4,0.3-8.8,0.7-13.2,1c-1.2,0.1-3.4,0.8-2.8-2
			C321.6,317,327.3,318.4,333,318z"/>
		<path class="st193" d="M325,335c0.7,0.6,1.3,1.3,2,1.9c-1.3,1.9-3.3,1.4-5.2,1.6c-5.9-0.5-11.8,1-17.6-1c0.6-3.7,0.8-3.8,6.4-3.9
			C315.3,335,320.2,334.2,325,335z"/>
		<path class="st194" d="M343,338.1c1,0,2,0,3,0c2.3,1.5,1.9,3.9,1.1,5.7c-0.9,1.9-3,2.2-5.1,1.4C342.2,342.7,339.3,339.9,343,338.1
			z"/>
		<path class="st195" d="M342,344c4.8,0.9,5.7-0.4,4-6c0.6,0,1.2,0.1,1.8,0.1c0,2.6,0.6,5.3-0.9,7.8c-4.7-0.1-9.3-0.1-14-0.2
			c-0.6-0.7-0.5-1.3,0-1.9c2.5-0.9,5.2-0.1,7.8-0.6C341.3,343.4,341.7,343.7,342,344z"/>
		<path class="st196" d="M311,335c-2.5-0.1-5-0.1-7,1.8c-0.3,0.4-0.6,0.4-1,0.1c-0.3-0.6-0.7-1.3-1-1.9c0-0.3,0-0.7,0-1
			c0,0,0-0.1,0-0.1c7.3-2.1,14.6-2.6,21.9,0.1c0,0.3,0,0.6,0,0.9C319.7,335.8,315.4,335.8,311,335z"/>
		<path class="st197" d="M324,334.1c-7.3,0-14.6-0.1-21.9-0.1c0-0.3,0-0.7,0-1c0.3,0,0.7,0,1,0c4.9-2.8,10.2-0.8,15.3-1.4
			c2.3,0,4.7,0,7,0.1c0.9,0.1,1.7,0.2,2.4,0.8c0.5,0.5,0.5,1,0.1,1.5C326.6,334,325.3,334,324,334.1z"/>
		<path class="st198" d="M342,344c-0.3,0-0.7,0-1,0c-1,0.9-2.2,0.4-3.4,0.5c-2.4-2.8-0.4-4.6,1.4-6.4c1.3,0,2.7,0,4,0
			C341.8,339.9,344.4,342.4,342,344z"/>
		<path class="st199" d="M327.9,333.9c0.1-0.2,0.1-0.5,0.1-0.8c0.5-1.1,1.4-1.5,2.5-1.6c0.8-0.1,1.5-0.1,2.3-0.1c0.5,0,1,0,1.5,0
			c1.3,0,2.5,0,3.8-0.1c1.3-0.2,2.6,0,3.9,0c1.6-0.2,3.3-0.3,4.6,0.9c0.1,0.2,0.3,0.5,0.4,0.7C340.8,335.1,334.3,333.5,327.9,333.9z
			"/>
		<path class="st200" d="M339,338.1c0.4,2.4,0.7,4.7-2,5.9c-1.4,0.5-2.1-0.3-2.6-1.5c0-1.5,0.6-2.9,1.1-4.3c0.2-0.1,0.3-0.3,0.5-0.4
			C337,337.9,338,338,339,338.1z"/>
		<path class="st128" d="M330,336.9c2-3.4,5-1.4,8.3-1.9c-1.2,1.1-1.7,1.6-2.3,2.1C333.9,338.6,331.9,339,330,336.9z"/>
		<path class="st201" d="M330,336.9c2,0.1,4,0.1,6,0.2c0,0.2,0.1,0.5,0.1,0.7c0,0,0,0.5,0,0.5c-0.8,0.6-1.5,1.2-2.6,1.2
			c-0.9,0-1.9,0-2.8,0.2c-1.4,0.4-2.7,0.4-4.1,0c-1.1-0.2-2.3-0.1-3.5-0.4c-0.4-0.2-0.8-0.5-1.2-0.8c-0.2-0.4-0.3-0.9,0-1.3
			c1.7-0.1,3.3-0.1,5-0.2C328,336.9,329,336.9,330,336.9z"/>
		<path class="st202" d="M311,335c4.3,0,8.7,0,13,0c0.3,0,0.6,0,1,0C320.3,336.6,315.7,336.6,311,335z"/>
		<path class="st199" d="M347,327c0.3-0.1,0.6-0.1,0.8-0.2c0.1,2.1,0.7,4.3-0.8,6.3c0,0-0.2-0.2-0.2-0.2
			C345,330.8,345.2,328.9,347,327z"/>
		<path class="st203" d="M303,325c0-0.3,0-0.7,0-1c1.4-2,0.4-6.7,5.3-4.7c1.3,1.3,0.8,3.1,1.5,4.6c0.1,0.3,0.2,0.6,0.2,0.9
			c0,0-0.1,0.3-0.1,0.3c-0.6,2.8-0.9,5.7-4.3,6.6c-0.8,0-1.5-0.2-1.9-0.8C303.1,329,304.1,326.9,303,325z"/>
		<path class="st204" d="M309,305c0-4.7,0-9.3,0-14c0.3,0,0.6,0,0.8,0c0,6.3,0,12.7,0,19c-0.2,0.1-0.5,0.1-0.7,0.2
			c-0.4-0.3-0.6-0.7-0.6-1.2C308.2,307.6,307.9,306.2,309,305z"/>
		<path class="st205" d="M309.9,323.9c-0.6-1.3-1.2-2.6-1.9-3.9c-0.4-1-0.8-1.9-0.3-3c0.3-0.3,0.7-0.5,1.1-0.5
			c0.4,0,0.8,0.2,1.1,0.6C309.8,319.3,309.8,321.6,309.9,323.9z"/>
		<path class="st206" d="M309.8,317c-0.3,0-0.6,0-0.9,0c-3.2-2.3-1.8-4.7,0.1-7c0.3,0,0.5,0,0.8,0
			C309.8,312.3,309.8,314.7,309.8,317z"/>
		<path class="st207" d="M329,327c-1.3-1.5-3.5-0.5-4.9-1.7c2.7,0,5.3,0,8,0c1,0.6,2.3-0.1,3.1,0.9c0.1,0.5,0.1,0.9-0.1,1.3
			c-0.8,1-1.9,1.4-3.1,1.5C330.8,328.6,328.8,329.3,329,327z"/>
		<path class="st208" d="M335,327c-1-0.6-1.9-1.2-2.9-1.7c2-0.4,4-0.2,5.9,0.7c0,0-0.1,0.3-0.1,0.3c0.2,0.9-0.3,1.3-1,1.5
			C336.1,327.8,335.5,327.6,335,327z"/>
		<path class="st209" d="M333,344.2c0,0.5,0,1.1,0,1.6c-2,0-4-0.1-6-0.1c0-0.2,0-0.4,0-0.6c0.1-1.1,0.8-1.7,1.7-2.1
			c1.2-0.4,2.4-0.4,3.5,0.2C332.6,343.3,332.9,343.7,333,344.2z"/>
		<path class="st210" d="M306,331c1.3-2,2.6-3.9,3.9-5.8c0.6,2.2,2.4,1.8,4.1,1.9c2.3-0.8,4.7-0.8,7,0c0.3,0,0.7,0,1,0
			c1.3,1.2,3.6,1.8,2,4.4c-0.7,0.5-1.5,0.6-2.3,0.6c-3.2,0.2-6.5-0.3-9.7,0.4C309.9,332.6,307.8,332.5,306,331z"/>
		<path class="st211" d="M329,327c0.8,1,2.4-0.3,3.1,1.1c1,1.9,0.4,3.4-1,4.8c-1,0.1-2,0.2-3,0.3c-0.7-0.1-1.4-0.3-2.1-0.4
			c-0.3-0.3-0.6-0.7-0.8-1.1c-0.2-0.7-0.1-1.4-0.1-2c0.2-1.7,1.9-1.8,2.9-2.7C328.3,327,328.6,327,329,327z"/>
		<path class="st212" d="M328,327c-0.7,1-1.3,2-2,3c-0.5,0.6-0.9,1.5-2,1c-0.7-1.3-1.3-2.7-2-4C324,327,326,327,328,327z"/>
		<path class="st213" d="M321,327c-2.3,0-4.7,0-7,0C316.3,325.5,318.7,325.5,321,327z"/>
		<path class="st214" d="M324.9,344.8c-2.3,0-4.6,0-6.9,0.1c-1.9-2.4-1.4-4.5,0.7-6.5c1.2-0.5,2.3-0.4,3.5,0.1
			c0.5,0.1,0.9,0.2,1.3,0.5c1.1,1.2,1.8,2.6,2.3,4.2C325.8,343.8,325.5,344.4,324.9,344.8z"/>
		<path class="st215" d="M324.9,344.8c0-0.6,0-1.2,0.1-1.8c-0.4-1.6,0.5-2.4,1.9-2.7c1.1,0,2,0.5,2.6,1.5c0.3,0.8,0.1,1.5-0.5,2.1
			c-0.6,0.4-1.3,0.8-1.9,1.2C326.3,345,325.6,344.9,324.9,344.8z"/>
		<path class="st216" d="M319,339c-0.3,2-0.7,3.9-1,5.9c-1,0-2,0-2.9,0c-0.1-0.2-0.3-0.3-0.4-0.5c-0.1-0.4,0-0.9,0.1-1.3
			c0.6-1,0.8-2.1,1-3.1c0.2-0.4,0.4-0.8,0.8-1.1c0.4-0.3,0.8-0.4,1.3-0.4C318.3,338.4,318.7,338.7,319,339z"/>
		<path class="st217" d="M315,344c0,0.3,0,0.6,0.1,0.9c-1.6,0.1-3.3,0.2-4.9,0.3c0,0-0.1-0.2-0.1-0.2c-0.3-0.3-0.4-0.7-0.3-1.2
			c0.3-0.6,0.7-1.1,1.4-1.4c1.2-0.3,2.2,0,3.2,0.6C314.6,343.3,314.8,343.6,315,344z"/>
		<path class="st218" d="M347,327c-0.1,1.9-0.1,3.9-0.2,5.8c-1.6,0-3.3,0-4.9,0c-3.1-2.6-1-4.2,1.1-5.8
			C344.4,326.2,345.7,326.9,347,327z"/>
		<path class="st219" d="M343,327c0,2-2.1,3.6-1.1,5.8c-1.3,0-2.6,0-3.9-0.1c-1.2-0.9-1.9-2-1.2-3.5c0.9-1,1.4-2.2,2.2-3.2
			C340.4,326.4,341.7,326.7,343,327z"/>
		<path class="st220" d="M339,326.1c-0.1,1.4,0.2,2.9-1,3.9c-1.3-0.7-2.1-1.5-1-3c0.3-0.3,0.6-0.6,0.9-0.9
			C338.3,326.1,338.7,326.1,339,326.1z"/>
		<path class="st221" d="M309,310c0.4,2.3-1.5,4.6-0.1,7c-0.3,0-0.6,0-1,0c-0.4,0.9-0.9,1.5-2,1c0.3-2.4-0.4-4.7-1-7
			c1-0.3,2-0.7,3-1C308.3,309.3,308.6,309.3,309,310L309,310z"/>
		<path class="st222" d="M309,310c-0.3,0-0.7,0-1,0c-0.2-1.8-1.6-3.8,1-5C309,306.7,309,308.3,309,310z"/>
		<path class="st223" d="M306,331c2,0.3,4,0.7,6,1c2.1-1,4.3-0.3,6.5-0.4c0.6,0.2,0.8,0.7,0.5,1.3c-5.3,0-10.6,0.1-15.9,0.1
			c-0.1-0.3-0.1-0.6,0-1c0.4-0.3,0.4-1,1-1C304.7,331,305.3,331,306,331z"/>
		<path class="st224" d="M306,318c0.7-0.3,1.3-0.6,2-1c0.6,1,0.5,2,0,3c-3.3-0.7-3.1,2.9-4.9,4c0-2.3,0-4.6,0-7
			C304.1,317.3,305,317.7,306,318z"/>
		<path class="st225" d="M304,331c-0.3,0.3-0.7,0.7-1,1c0-2.3,0-4.6,0-7C304.6,326.8,303.8,329,304,331z"/>
		<path class="st24" d="M299,291c0-1,0-2,0-3c1.5,0.3,2.2,1.2,1.8,2.7C300.5,291.7,299.7,291.6,299,291z"/>
		<path class="st226" d="M294,402c1.4-4,2.3-8,0-12c1.2-4.1-1.5-8.4,0.8-12.5c1.1-1.3,0.6-5.4,4.2-2.6c1.1,13.4,0.2,26.8,0.4,40.2
			c0,2.4,0.8,5.1-1.7,6.9c-0.3,0-0.5,0-0.8,0c-0.2-0.2-0.4-0.3-0.6-0.5c-1.1-1.7-0.6-3.1,0.6-4.5c0-2.7-0.2-5.1-2-7.7
			C293.9,407.9,295,404.4,294,402z"/>
		<path class="st227" d="M297.8,422c0-16,0-31.9,0-47.9c-2.5-4-1-8.1,0-12.1c0.1-0.3,0.2-0.7,0.3-1c0.3,0,0.6,0,0.8,0
			c1.8,1.3,1.5,3.2,1.5,5c0,30.2,0,60.3,0,90.5c0,1.7,0.1,3.3-0.7,4.9c-0.4,0.6-1,0.9-1.7,0.7C298,448.7,297.9,435.3,297.8,422z"/>
		<path class="st228" d="M292,426c0.2-3.7,0.6-7.3,0-11c1.4,0,2.7,0.3,3,2c1.6,1.3,0.4,3.7,2,5c0,0,0,0,0,0c0,1.7,0,3.3,0,5
			c-0.9,0.8-1,1.9-1,3c-0.5,0.6-1.1,0.7-1.8,0.5c-1.5-0.7-1-2.3-1.4-3.5C292.6,426.6,292.3,426.3,292,426z"/>
		<path class="st229" d="M298.1,462.1c0.3,0,0.6-0.1,0.9-0.1c2.1-3.5,0.4-7.4,1.1-11c0.2-1.4-0.6-4.3,2.7-2.3
			c0.5,4.1,0.1,8.2,0.7,12.3c0.3,1.8,0.1,3.6-1.3,5.1c-0.4,0.4-0.7,0.7-1.1,1.1C299.7,465.6,294.9,466.1,298.1,462.1z"/>
		<path class="st230" d="M302.1,466c-0.1-6-0.2-12-0.2-18c-0.8-0.6-1.4-1.5-1.3-2.5c0.2-6.3-0.8-12.7,0.6-19
			c0.4-0.6,0.9-0.8,1.6-0.8c1.5,1.6,0.6,3.5,0.8,5.3c0.3,2.5,1,4.9,1,7.4c0.4,8.1-1.9,16.1-0.5,24.3c0.2,1.2-0.1,2.3-0.9,3.3
			C302.7,466,302.4,466,302.1,466z"/>
		<path class="st231" d="M303,466c0.1-9.3,0.1-18.6,0.2-27.9c0.6-0.3,1.1-0.2,1.5,0.3c1,1.2,0.9,2.7,0.8,4.2
			c-0.2,2.5,0.6,5.3-1.5,7.5c0,2.3,0,4.7,0,7c1.4,2.5,0.9,5.3,1,8c-0.1,0.6-0.4,0.9-1,1C303.7,466,303.3,466,303,466z"/>
		<path class="st150" d="M304,466c0.3-0.3,0.7-0.7,1-1c0.9,0.8,1,1.9,1,3C304.8,467.8,304.2,467.2,304,466z"/>
		<path class="st232" d="M304,450c0-2.7,0-5.3,0-8c2.6-1.8,3.2,0.2,4,2c0,0.3,0,0.7,0,1c-1.7,1.2-0.2,3.8-2,5
			C305.3,450,304.7,450,304,450z"/>
		<path class="st233" d="M306,450c0.3-1.8-0.8-4.2,2-5c0,1.3,0,2.7,0,4c-0.1,1.4,0.3,2.9-0.7,4.3C305.6,452.6,306.2,451.1,306,450z"
			/>
		<path class="st234" d="M308,444c-1.1-1.1-2.2-2.2-4-2c0-1.3,0-2.6,0-4c-0.3-0.2-0.4-0.5-0.4-0.7c0-0.3,0.1-0.4,0.2-0.4
			c1.2-0.5,1.7,0.4,2.2,1.1c1.2,0.2,1.8,0.9,2,2C308,441.4,308,442.7,308,444z"/>
		<path class="st235" d="M297,328c-0.3,0-0.7,0-1,0c-1.5-0.1-1.4-1-1-2c1.6-1.8,0.8-4,1-6c1.7,2.1,0.7,4.6,1,6.9
			C297,327.3,297,327.7,297,328z"/>
		<path class="st236" d="M297.8,362c0,4,0,8,0,12.1c-1.3,1.4-0.2,3.6-1.8,4.9c-1-0.9-2,0.9-3,0c-1.2-1.7-0.3-3.3,0-5
			c0.3-2-0.3-4.5,2.8-5c1.1-0.2,0.2-0.7,0.1-0.9c-0.6-1.6,0-2.9,1.1-4.1c0-0.7,0-1.3,0.1-2C297.3,362,297.5,362,297.8,362z"/>
		<path class="st237" d="M296.9,364c1.1,4.3-1.3,7.2-4,10c-1.2-1.1-0.9-2.6-1-4c0-1.3,0-2.7,0-4C293.9,365.9,294.4,362.5,296.9,364z
			"/>
		<path class="st238" d="M295,351c0.7-1,1.3-2,2-3c0,2.3,0,4.6,0,6.9C296.3,353.6,295.7,352.3,295,351z"/>
		<path class="st239" d="M292,426c0.3,0,0.7,0,1,0c1.2,1.1-0.2,2.9,1,4c0.7,0,1.3,0,2,0c-0.3,3.2,1.3,7.1-3,9c-0.3,0-0.7,0-1,0
			c0-3,0-6,0-9C292,428.7,292,427.3,292,426z"/>
		<path class="st240" d="M297,422c-2.8-0.8-1.7-3.2-2-5c0.7,0,1.3,0,2,0C297,418.7,297,420.3,297,422z"/>
		<path class="st241" d="M293,379c1,0.2,2-3,3,0c-1.6,1.1-1.1,3.7-0.8,4c3.4,3.1,0.2,4.9-1.2,7c-0.4,1,0.8,2.5-1,3
			c-1.5-3.9,1.2-8.2-1-12C292.3,380.3,292.7,379.7,293,379z"/>
		<path class="st242" d="M302.4,425.9c-0.2,7.4-0.3,14.8-0.5,22.1c-1.8,3.5-0.4,7.3-0.9,11c-0.2,1.2,1.2,3.6-2,3
			c0-33.7,0-67.3,0-101c0-5.7,0-11.4,0-17.2c0-2.2,0.1-4.4,2.9-4.8c3.1,4.2,1.3,9,1.4,13.5c0.1,3-0.1,6,0.2,8.9c0,2.7,0,5.4,0,8.1
			c-0.4,17.2,0.1,34.3,0,51.5C303.2,422.7,303.1,424.4,302.4,425.9z"/>
		<path class="st243" d="M302.4,362c-0.1-7.7-0.3-15.4-0.4-23c0.1-0.2,0.2-0.5,0.3-0.8c0.5-0.5,1-0.5,1.4,0c1,1.3,0.8,2.7,0.9,4.2
			c-0.2,4,0.5,8.1-0.6,12.1c-1.2,2.2,1.1,4.5,0,6.7c-0.2,0.2-0.4,0.4-0.6,0.7C302.9,362,302.7,362,302.4,362z"/>
		<path class="st244" d="M303,338.2l-0.4,0c0,0-0.4,0-0.4,0c0.3-0.4,0.5-0.9,0.8-1.3c0.3,0,0.7,0,1-0.1c6,0.1,12,0.2,18,0.3
			c0,0.2,0,0.5,0.1,0.7c-1.3,1.2-3,0.4-4.4,0.7C312.7,339.8,307.9,340.5,303,338.2z"/>
		<path class="st245" d="M308,386c0.3,0,0.7,0,1,0c0,6.7,0,13.3,0,20c-0.6,0.6-1.3,0.6-2,0.3c-0.3-0.4-0.6-0.8-0.6-1.2
			c-0.2-1.2,1.4-1.9,1.1-3.1c0.1,1.3-0.7,1.5-1.8,1.6c-2.7-1.1-2-3.7-2.5-5.7C304.9,393.9,305.3,389.5,308,386L308,386z"/>
		<path class="st246" d="M307,406c0.7,0,1.3,0,2,0c0,1.7,0,3.3,0,5c-0.6,0.6-1.3,0.7-2.1,0.5c-1-0.5-1.5-1.3-1.7-2.4
			C305.3,407.8,305.7,406.6,307,406z"/>
		<path class="st247" d="M309,414c0,2.3,0,4.7,0,7c0,0,0,0,0,0c-2.9-1.8-3.7-4.5-2.5-8.1C307.8,412.3,308.4,413.1,309,414z"/>
		<path class="st248" d="M309,414c-0.7-0.3-1.3-0.7-2-1c-0.5-0.7-0.5-1.3,0-2c0.7,0,1.3,0,2,0C309,412,309,413,309,414z"/>
		<path class="st249" d="M303.1,431.1c-0.1-1.7-0.1-3.5-0.2-5.2c-0.6-1.2-0.7-2,1-1.9c0,0.3,0,0.7,0,1c0,2,0.6,4,0,6.1
			C303.8,431.5,303.5,431.6,303.1,431.1z"/>
		<path class="st250" d="M306,438c-0.7-0.3-1.4-0.7-2-1c-0.8-1.7-0.8-3.3,0-5C305.4,433.8,305.9,435.8,306,438z"/>
		<path class="st251" d="M304,432c0,1.7,0,3.3,0,5c0,0.3,0,0.7,0,1c-0.3,0-0.5,0-0.8,0c0-2.3,0-4.6,0-6.9c0.3-0.1,0.6-0.1,0.8-0.1
			C304,431.3,304,431.7,304,432z"/>
		<path class="st252" d="M304,424c-0.3,0.6-0.7,1.3-1,1.9c0,0-0.3,0-0.3,0s-0.3,0-0.3,0c0-1.7,0-3.3,0-5c0.4-0.8,0.1-1.7,0.6-2.5
			c0.8-2.6,0.3-5.2-0.4-7.7c-0.4-1.1-0.1-2.2,0-3.3c0.1-0.4,0.4-0.7,0.8-0.9c1,0.4,1.5-1,2.5-0.7c0.9,1,0.9,2,0.2,3.1
			c0.3,0.7,0.7,1.4,1,2c0,0.7,0,1.3,0,2c-0.4,2.9,1.1,5.4,2,8c0.1,2.1,0.1,4-2.9,2.3C305.4,422.9,304.6,423.4,304,424z"/>
		<path class="st253" d="M309,367c0,2,0,4,0,6c-1.4,2.2-2.4,4.8-5,6c-1-0.7-1-1.8-1.2-2.8c0.2-1.5,0.1-3,0.4-4.5
			C305.3,370.3,305.6,366.8,309,367L309,367z"/>
		<path class="st254" d="M308,386c0.2,3.7-2.4,7-1.9,10.8c0.1,0.8-1.3,0.4-2.1,0.2c-0.7-0.5-0.9-1.2-1.1-2c-0.3-1.6,0.1-3.1,0.3-4.7
			c0.4-0.8,1-1.2,1.8-1.3C306.5,388.5,305,385,308,386z"/>
		<path class="st255" d="M304,390c0,1.7,0,3.3,0,5c-0.6,0.4-1.1,0.2-1.4-0.4c-0.1-4.4-0.1-8.7,0-13.1c0.3-0.6,0.8-0.8,1.4-0.5
			c0,0.4,0,0.7,0,1.1C304.8,384.7,304.8,387.3,304,390z"/>
		<path class="st256" d="M304,390c0-2.7,0-5.3,0-8c1.7,2.1,0.7,4.6,1,7C304.7,389.3,304.3,389.7,304,390z"/>
		<path class="st257" d="M304,381c-0.3,0-0.6,0-0.9,0c-1.1-1.5-0.5-3.1-0.5-4.6c0.4-0.5,0.8-0.6,1.4-0.3c0,1,0,2,0.1,3
			C304,379.7,304,380.3,304,381z"/>
		<path class="st258" d="M309,367c-1.9,1.1-1.7,4.7-5,4c-0.7-0.5-0.9-1.2-0.9-2c0.5-3.4,1-6.8,4.9-8c0.3-0.3,0.6-0.7,1-1
			C309,362.4,309,364.7,309,367z"/>
		<path class="st259" d="M309,346c0,1.3,0,2.7,0,4c-1.4,1.3-2,3.3-4,4c-0.3,0.3-0.7,0.7-1,1c-0.1-0.2-0.3-0.4-0.4-0.6
			c-0.1-2.5,0-5.1-0.1-7.6c0.6-2.1,2.3-2.8,4.2-3.1C308.9,344.1,308.5,345.3,309,346z"/>
		<path class="st260" d="M308,361c-1.3,2.7-2.7,5.3-4,8c-2.6-2-1.2-4.6-1-7l0.1-0.2c0.8-1.1,0.3-3.5,2.8-2.8
			C306.7,359.7,307.3,360.3,308,361z"/>
		<path class="st261" d="M305,354c0.9-1.7,1-4.3,4-4c0,1,0,2,0,3C307.9,354.4,306.5,354.4,305,354z"/>
		<path class="st259" d="M306,359c-1,0.9-1.9,1.9-2.9,2.8c0-2.3,0-4.6,0-6.9c0.3-0.5,0.6-0.5,0.8,0.1c0,0,0,0,0,0
			C303.3,357,305.9,357.4,306,359z"/>
		<path class="st262" d="M309,346c-0.3-0.7-0.7-1.3-1-2c-0.7-1.4-0.4-2.4,1.3-2.2c1.2,0.1,1.4,1.2,0.7,2.2c0,0.3,0,0.6,0,1
			C309.6,345.3,309.3,345.7,309,346z"/>
		<path class="st263" d="M335,342c0.7,0.7,1.3,1.3,2,2c1.3,0,2.7,0,4,0c-2.6,1.7-5.3,1.1-8,0.2c0,0-0.1-0.3-0.1-0.3
			c-0.2-0.2-0.3-0.5-0.3-0.8c0-0.3,0-0.4,0.1-0.4C333.3,341.9,334,341.4,335,342z"/>
		<path class="st264" d="M319,332.8c0-0.3,0-0.5,0-0.8c0.9-0.8,2-0.4,3.1-0.5c1.3,0.2,2.7-0.4,3.9,0.5c0,0.3,0,0.5,0,0.8
			C323.6,332.8,321.3,332.8,319,332.8z"/>
		<path class="st265" d="M337,327c0.3,1,0.7,2,1,3c-0.8,0.9,0.1,1.9,0,2.8c-1.3,0-2.6,0-4,0c-1.4-1.4-0.8-2.8-0.2-4.3
			c0.3-0.6,0.7-1.1,1.2-1.5c0,0,0,0,0,0C335.7,327,336.3,327,337,327z"/>
		<path class="st266" d="M335,327c0,0.7,0,1.3,0,2c-1.8,0.7-1.2,2.6-2,3.8c-0.7,0-1.3,0-2,0.1c-0.1-1.7,0.1-3.3,1-4.8
			C333,327.7,334,327.3,335,327z"/>
		<path class="st267" d="M333,332.8c0-1.6-0.2-3.4,2-3.8c-0.3,1.3-0.7,2.6-1,3.8C333.7,332.8,333.3,332.8,333,332.8z"/>
		<path class="st268" d="M335,342c-0.7,0.3-1.3,0.7-2,1c-1.9-1.6-2.7-3.1-0.1-4.8c1,0,2.1,0,3.1,0C336.5,339.7,336.2,341,335,342z"
			/>
		<path class="st269" d="M332.9,338.2c-0.8,1.6,0.2,3.2,0.1,4.8c0,0.3,0,0.6-0.1,0.9c-1.3,0-2.7,0-4,0c0-0.6,0-1.3,0-1.9
			c-0.1-1.4,0.6-2.6,1-3.9C331,338.2,332,338.2,332.9,338.2z"/>
		<path class="st270" d="M330,338.1c1,1.6,0.8,3-1,3.9c-0.7-0.3-1.3-0.7-2-1c-0.6-0.5-1.7-0.1-2.2-1c-0.2-1.7,1.3-1.3,2.1-1.8
			C327.9,338.6,329,338.7,330,338.1z"/>
		<path class="st214" d="M326.9,338.2c-0.6,0.6-1.3,1.2-1.9,1.8c-1,0.5-1.4-0.3-1.9-0.9L323,339c-0.4-0.2-0.5-0.4-0.4-0.5
			c0.1-0.2,0.3-0.3,0.4-0.3C324.3,338.2,325.6,338.2,326.9,338.2z"/>
		<path class="st271" d="M323,338.2c0,0.3,0,0.5,0,0.8c-1.3,0-2.6,0-4,0c-0.3,0-0.7,0-1,0c-0.4-0.2-0.6-0.4-0.4-0.5
			c0.1-0.2,0.3-0.3,0.4-0.3c1.4-0.1,2.7-0.2,4.1-0.3C322.4,338,322.7,338.1,323,338.2z"/>
		<path class="st272" d="M322,332c-1,0-2,0-3,0c-2.3,0-4.7,0-7,0c3.2-1.9,6.7-0.6,10-1C322.7,331.3,322.7,331.7,322,332z"/>
		<path class="st273" d="M322,332c0-0.3,0-0.7,0-1c0.7,0,1.3,0,2,0c0.7-0.3,1.3-0.7,2-1c0,0.7,0,1.3,0,2
			C324.7,332,323.3,332,322,332z"/>
		<path class="st274" d="M323,339c0.6,0.3,1.3,0.6,1.9,0.9c0.7,0.3,1.4,0.7,2,1c-0.7,0.7-1.4,1.4-2.1,2
			C323.4,342.1,322.9,340.7,323,339z"/>
		<path class="st275" d="M318,338.2c0,0.3,0,0.5,0,0.8c-0.3,0-0.7,0-1,0c-0.7,0.7-1.5,1.3-2.6,1.4c-0.7,0.1-1.5,0.1-2.2,0.1
			c-0.7,0-1.4,0-2.1,0c-1.5,0-3-0.2-4.3,0.7c-0.5,0.4-0.9,0.9-1.5,1.1c-0.4,0.1-0.8,0-1.2-0.2c0-1.3-0.1-2.6-0.1-3.8
			C308,338.2,313,338.2,318,338.2z"/>
		<path class="st276" d="M314,339c1,0,2,0,3,0c0,0.3,0,0.7,0,1c-0.9,1.2-0.1,3.3-2,4c0,0,0,0,0,0c-0.3,0-0.6,0-1,0
			C312.5,342.3,312.5,340.7,314,339z"/>
		<path class="st214" d="M315,344c0.7-1.3,1.3-2.7,2-4C316.9,341.6,317.3,343.5,315,344z"/>
		<path class="st277" d="M304,342c0-0.7,0-1.3,0-2c2-0.3,4.2,0.7,6-1c0.7,0,1.3,0,2,0c1.3,1.7,0.5,3-1,4c-0.3,0.3-0.7,0.7-1,1
			c-0.1-0.6-0.2-1.3-1-1.3c-0.8,0-0.9,0.7-1,1.4c-0.9,1.5-1.9,2.9-4,2C303.3,344.7,303.2,343.3,304,342z"/>
		<path class="st278" d="M311,343c0.3-1.3,0.7-2.7,1-4c0.7,0,1.3,0,2,0c0,1.7,0,3.3,0,5C313,343.7,312,343.3,311,343z"/>
		<path class="st279" d="M294,430c-0.3,0.8-0.8,1.2-0.9,0c-0.2-1.3,0-2.7-0.1-4C294.2,427.1,294,428.6,294,430z"/>
		<path class="st245" d="M303,376c0,1.6,0,3.3,0.1,4.9c0,4.7,0,9.4,0,14c0.6,2,0.5,4.1,0.9,6.1c0.1,2,0.7,4.2-0.9,6c0,1.3,0,2.7,0,4
			c0.5,2.7,1.6,5.3,0,8c0.2,0.8,0.8,1.8-0.7,2c-0.8-16.9-0.6-33.8,0-50.7C304.4,372,303.5,374,303,376z"/>
		<path class="st280" d="M303,376c-0.3-1.9,0.3-3.9-0.7-5.8c0-2.7,0-5.5,0-8.2c0.2,0,0.4,0,0.6,0c0.3,2.3,0.7,4.6,1,7
			c0,0.7,0,1.3,0,2c0,1.7,0,3.3-0.1,5C303.7,376,303.3,376,303,376z"/>
		<path class="st281" d="M304,342c0,1.3,0,2.7,0,4c0,3,0,6,0,9c-0.3,0-0.5,0-0.8-0.1c0-4.3,0-8.6,0-12.9
			C303.4,342,303.7,342,304,342z"/>
		<path class="st282" d="M303.1,401c0-2,0-4,0-6.1c0.3,0,0.6,0,0.9,0c0,0.7,0,1.4,0,2c0.7,2,0.6,4.2,2,6c0.6,0.5,0.6,1.1,0.4,1.7
			c-0.3,0.6-0.8,1-1.4,1.2c-0.1,0.5,0.1,1.4-1,1C302.8,405.2,304.2,402.9,303.1,401z"/>
		<path class="st246" d="M306,405c0-0.7,0-1.3,0-2c0.5-1.2,1.1-2.4,1.7-3.8c0.7,2.2,0.2,4-0.7,5.8C306.7,405.4,306.3,405.4,306,405z
			"/>
		<path class="st283" d="M306,405c0.3,0,0.7,0,1,0c0,0.3,0,0.7,0,1c0,1.1-0.1,2.2-1,3c0-1.1-0.1-2.2-1-3
			C305.3,405.7,305.7,405.3,306,405z"/>
		<path class="st284" d="M303.1,419c0-2.7,0-5.3,0-8C305,413.7,306.3,416.3,303.1,419z"/>
		<path class="st285" d="M303.1,401c1.5,1.8,0.7,3.9,0.9,6c-0.3,0-0.6,0-0.9,0C303.1,405,303.1,403,303.1,401z"/>
		<path class="st286" d="M310,339c-1.6,2.7-3.6,2.9-6,1C305.8,338.4,308,339.2,310,339z"/>
	</g>
</g>
</svg>
