<?xml version="1.0" encoding="utf-8"?>
<!-- Generator: Adobe Illustrator 23.0.5, SVG Export Plug-In . SVG Version: 6.00 Build 0)  -->
<svg version="1.1" id="Capa_1" xmlns="http://www.w3.org/2000/svg" xmlns:xlink="http://www.w3.org/1999/xlink" x="0px" y="0px"
	 viewBox="0 0 595.3 841.9" style="enable-background:new 0 0 595.3 841.9;" xml:space="preserve">
<style type="text/css">
	.st0{fill:#FFFFFF;}
	.st1{fill:#E32A2A;}
	.st2{fill:#E42A2B;}
	.st3{fill:#E52B29;}
	.st4{fill:#E42C2A;}
	.st5{fill:#E52A2B;}
	.st6{fill:#E42A28;}
	.st7{fill:#E5282B;}
	.st8{fill:#E42B2B;}
	.st9{fill:#E85E28;}
	.st10{fill:#E22E2D;}
	.st11{fill:#E42B30;}
	.st12{fill:#E32C2D;}
	.st13{fill:#E52A28;}
	.st14{fill:#E5292A;}
	.st15{fill:#E42929;}
	.st16{fill:#E42F2C;}
	.st17{fill:#E22A2B;}
	.st18{fill:#E53423;}
	.st19{fill:#E5282F;}
	.st20{fill:#E32D2E;}
	.st21{fill:#9B3B3F;}
	.st22{fill:#E4292C;}
	.st23{fill:#E22C1D;}
	.st24{fill:#E1372B;}
	.st25{fill:#E4302C;}
	.st26{fill:#E52D25;}
	.st27{fill:#E52A27;}
	.st28{fill:#FBD74F;}
	.st29{fill:#E7522F;}
	.st30{fill:#DD2D18;}
	.st31{fill:#E42E1A;}
	.st32{fill:#E62B29;}
	.st33{fill:#E13524;}
	.st34{fill:#E75724;}
	.st35{fill:#DF2C33;}
	.st36{fill:#E75034;}
	.st37{fill:#E52D23;}
	.st38{fill:#DD2B29;}
	.st39{fill:#E22E28;}
	.st40{fill:#EA5822;}
	.st41{fill:#E03527;}
	.st42{fill:#E94F2D;}
	.st43{fill:#E6292C;}
	.st44{fill:#E84929;}
	.st45{fill:#D22A17;}
	.st46{fill:#E42C2F;}
	.st47{fill:#DC2E28;}
	.st48{fill:#E94F31;}
	.st49{fill:#D93428;}
	.st50{fill:#E2362A;}
	.st51{fill:#DE3026;}
	.st52{fill:#F2DC30;}
	.st53{fill:#E52D1A;}
	.st54{fill:#E42425;}
	.st55{fill:#E32827;}
	.st56{fill:#D63236;}
	.st57{fill:#CF3A24;}
	.st58{fill:#E42A25;}
	.st59{fill:#E43D30;}
	.st60{fill:#E52C2F;}
	.st61{fill:#C02B18;}
	.st62{fill:#CD4327;}
	.st63{fill:#CF2322;}
	.st64{fill:#E43F27;}
	.st65{fill:#C92833;}
	.st66{fill:#E32B31;}
	.st67{fill:#E03936;}
	.st68{fill:#E73534;}
	.st69{fill:#E0332C;}
	.st70{fill:#E42C21;}
	.st71{fill:#E32B34;}
	.st72{fill:#DE282D;}
	.st73{fill:#DF312F;}
	.st74{fill:#C02629;}
	.st75{fill:#E42826;}
	.st76{fill:#E64A2D;}
	.st77{fill:#D2302C;}
	.st78{fill:#E42820;}
	.st79{fill:#CA2625;}
	.st80{fill:#E94C31;}
	.st81{fill:#E62A2E;}
	.st82{fill:#E74A37;}
	.st83{fill:#C4201C;}
	.st84{fill:#E32F2A;}
	.st85{fill:#E32B1F;}
	.st86{fill:#DF1F20;}
	.st87{fill:#DA3219;}
	.st88{fill:#E54829;}
	.st89{fill:#E22D2F;}
	.st90{fill:#E1322B;}
	.st91{fill:#E1312F;}
	.st92{fill:#E32927;}
	.st93{fill:#D23638;}
	.st94{fill:#D31F1F;}
	.st95{fill:#E32B2E;}
	.st96{fill:#C42933;}
	.st97{fill:#E94C2B;}
	.st98{fill:#EA5431;}
	.st99{fill:#E32824;}
	.st100{fill:#D72227;}
	.st101{fill:#E6292D;}
	.st102{fill:#E22E2C;}
	.st103{fill:#CF3131;}
	.st104{fill:#E13131;}
	.st105{fill:#DF2C1A;}
	.st106{fill:#E32E2B;}
	.st107{fill:#DD2C23;}
	.st108{fill:#C12722;}
	.st109{fill:#E34D26;}
	.st110{fill:#E62930;}
	.st111{fill:#E4271C;}
	.st112{fill:#E24935;}
	.st113{fill:#E44D37;}
	.st114{fill:#E63A24;}
	.st115{fill:#EA522D;}
	.st116{fill:#AB696C;}
	.st117{fill:#C53922;}
	.st118{fill:#C2271C;}
	.st119{fill:#E32E1E;}
	.st120{fill:#DE3735;}
	.st121{fill:#C53030;}
	.st122{fill:#E23837;}
	.st123{fill:#CC2328;}
	.st124{fill:#C94223;}
	.st125{fill:#E22D2D;}
	.st126{fill:#B92E2C;}
	.st127{fill:#D42024;}
	.st128{fill:#E5621C;}
	.st129{fill:#CE2422;}
	.st130{fill:#E62D33;}
	.st131{fill:#C62129;}
	.st132{fill:#E03232;}
	.st133{fill:#CA2D22;}
	.st134{fill:#E63C30;}
	.st135{fill:#E32221;}
	.st136{fill:#E03234;}
	.st137{fill:#E6392B;}
	.st138{fill:#C73529;}
	.st139{fill:#C0514F;}
	.st140{fill:#CC251A;}
	.st141{fill:#CF2126;}
	.st142{fill:#C62124;}
	.st143{fill:#D42124;}
	.st144{fill:#E52D1C;}
	.st145{fill:#BF2E38;}
	.st146{fill:#E32B2C;}
	.st147{fill:#CE2125;}
	.st148{fill:#E4272F;}
	.st149{fill:#C8201F;}
	.st150{fill:#E22C2D;}
	.st151{fill:#BE3434;}
	.st152{fill:#D62B2F;}
	.st153{fill:#D71E22;}
	.st154{fill:#D11D26;}
	.st155{fill:#E95030;}
	.st156{fill:#E52523;}
	.st157{fill:#E6282D;}
	.st158{fill:#E52A1F;}
	.st159{fill:#E73529;}
	.st160{fill:#E5701E;}
	.st161{fill:#E6491B;}
	.st162{fill:#E85824;}
	.st163{fill:#E62C22;}
	.st164{fill:#E94D33;}
	.st165{fill:#E52920;}
	.st166{fill:#E5261F;}
	.st167{fill:#E53628;}
	.st168{fill:#E95225;}
	.st169{fill:#E65B23;}
	.st170{fill:#EA5627;}
	.st171{fill:#E26221;}
	.st172{fill:#E52B23;}
	.st173{fill:#E94F2E;}
	.st174{fill:#E42921;}
	.st175{fill:#EA5428;}
	.st176{fill:#E4651E;}
	.st177{fill:#E6701F;}
	.st178{fill:#E63D28;}
	.st179{fill:#E42A1C;}
	.st180{fill:#E3291D;}
	.st181{fill:#EA5621;}
	.st182{fill:#E94E2E;}
	.st183{fill:#E52423;}
	.st184{fill:#E94F2C;}
	.st185{fill:#E4291B;}
	.st186{fill:#E42B1D;}
	.st187{fill:#E5282A;}
	.st188{fill:#E5281F;}
	.st189{fill:#E94D32;}
	.st190{fill:#E94937;}
	.st191{fill:#E9492D;}
	.st192{fill:#DE2518;}
	.st193{fill:#FADB29;}
	.st194{fill:#F3DE24;}
	.st195{fill:#F2DF41;}
	.st196{fill:#F2AE2C;}
	.st197{fill:#EA6412;}
	.st198{fill:#E68B22;}
	.st199{fill:#E37111;}
	.st200{fill:#E9512F;}
	.st201{fill:#E95623;}
	.st202{fill:#E52829;}
	.st203{fill:#E52D1E;}
	.st204{fill:#EA5036;}
	.st205{fill:#EA532B;}
	.st206{fill:#E94E2C;}
	.st207{fill:#E94538;}
	.st208{fill:#E52B24;}
	.st209{fill:#E1241A;}
	.st210{fill:#EA552B;}
	.st211{fill:#E95B1C;}
	.st212{fill:#E95726;}
	.st213{fill:#E52A29;}
	.st214{fill:#EA541E;}
	.st215{fill:#E42420;}
	.st216{fill:#E6282E;}
	.st217{fill:#E52722;}
	.st218{fill:#E62D1F;}
	.st219{fill:#E85D18;}
	.st220{fill:#FCDC27;}
	.st221{fill:#E64C2A;}
	.st222{fill:#E42B1C;}
	.st223{fill:#E94F2B;}
	.st224{fill:#E8591D;}
	.st225{fill:#E02E1A;}
	.st226{fill:#F7A746;}
	.st227{fill:#ED7530;}
	.st228{fill:#E42A1A;}
	.st229{fill:#E7552D;}
	.st230{fill:#E33C1B;}
	.st231{fill:#E53725;}
	.st232{fill:#E94B31;}
	.st233{fill:#E52A22;}
	.st234{fill:#E75126;}
	.st235{fill:#FFFFFE;}
	.st236{fill:#F6DC4F;}
	.st237{fill:#E16815;}
	.st238{fill:#E9622A;}
	.st239{fill:#E5292C;}
	.st240{fill:#E62D22;}
	.st241{fill:#EA581F;}
	.st242{fill:#E8571E;}
	.st243{fill:#D13317;}
	.st244{fill:#F4A130;}
	.st245{fill:#E95323;}
	.st246{fill:#E46415;}
	.st247{fill:#FCCD35;}
	.st248{fill:#E95921;}
	.st249{fill:#E94636;}
	.st250{fill:#F5D927;}
	.st251{fill:#E9571C;}
	.st252{fill:#EA5630;}
	.st253{fill:#EB7B12;}
	.st254{fill:#E25911;}
	.st255{fill:#E94A2F;}
	.st256{fill:#E95325;}
	.st257{fill:#E94E35;}
	.st258{fill:#E84B20;}
	.st259{fill:#E95A17;}
	.st260{fill:#F9E133;}
	.st261{fill:#FFE833;}
	.st262{fill:#E94C30;}
	.st263{fill:#E95132;}
	.st264{fill:#E9502A;}
	.st265{fill:#FEE14A;}
	.st266{fill:#E94E25;}
	.st267{fill:#FDC75A;}
	.st268{fill:#F6AF32;}
	.st269{fill:#EA5526;}
	.st270{fill:#E53322;}
	.st271{fill:#E85C1D;}
	.st272{fill:#EA561C;}
	.st273{fill:#D65515;}
	.st274{fill:#EFE42C;}
	.st275{fill:#F4CE39;}
	.st276{fill:#E65C14;}
	.st277{fill:#F18532;}
	.st278{fill:#EA5919;}
	.st279{fill:#FBC331;}
	.st280{fill:#F0E134;}
	.st281{fill:#D55615;}
	.st282{fill:#E9551B;}
	.st283{fill:#E85125;}
	.st284{fill:#E22B15;}
	.st285{fill:#EA5D1E;}
	.st286{fill:#E45E13;}
	.st287{fill:#F4CD25;}
	.st288{fill:#F6E137;}
	.st289{fill:#EFDF34;}
	.st290{fill:#F9B532;}
	.st291{fill:#EFE031;}
	.st292{fill:#F1DF2B;}
	.st293{fill:#E75A24;}
	.st294{fill:#E96620;}
	.st295{fill:#F2DA32;}
	.st296{fill:#E3271C;}
	.st297{fill:#E84433;}
	.st298{fill:#E7611D;}
	.st299{fill:#EDDF35;}
	.st300{fill:#C67019;}
	.st301{fill:#BD781E;}
	.st302{fill:#EA5523;}
	.st303{fill:#E22918;}
	.st304{fill:#EFE237;}
	.st305{fill:#EFD230;}
	.st306{fill:#F0E771;}
	.st307{fill:#DD8417;}
	.st308{fill:#E75A1E;}
	.st309{fill:#F4DE43;}
	.st310{fill:#E4E026;}
	.st311{fill:#EFE33A;}
	.st312{fill:#E8E044;}
	.st313{fill:#E8E142;}
	.st314{fill:#DEDD11;}
	.st315{fill:#ECC12F;}
	.st316{fill:#E2DF2D;}
	.st317{fill:#E5E245;}
	.st318{fill:#E3641F;}
	.st319{fill:#E25024;}
	.st320{fill:#E4E025;}
	.st321{fill:#E6E249;}
	.st322{fill:#F0DB62;}
	.st323{fill:#E2E03E;}
	.st324{fill:#E9D84D;}
	.st325{fill:#FDEC44;}
	.st326{fill:#DEDE37;}
	.st327{fill:#E9E454;}
	.st328{fill:#E77326;}
	.st329{fill:#EFE234;}
	.st330{fill:#DEDE32;}
	.st331{fill:#D08312;}
	.st332{fill:#FECE34;}
	.st333{fill:#DA6713;}
	.st334{fill:#E36211;}
	.st335{fill:#F3BE21;}
	.st336{fill:#EA5E24;}
	.st337{fill:#EBCE33;}
	.st338{fill:#F4D842;}
	.st339{fill:#C58211;}
</style>
<g>
	<g>
		<path class="st0" d="M311,297c31.8,0,63.7,0.1,95.5-0.1c3,0,3.6,0.6,3.6,3.6c-0.1,59.7-0.1,119.3,0,179c0,3-0.6,3.6-3.6,3.6
			c-63.7-0.1-127.3-0.1-191,0c-3,0-3.6-0.6-3.6-3.6c0.1-59.7,0.1-119.3,0-179c0-3,0.6-3.6,3.6-3.6C247.3,297.1,279.2,297,311,297z"
			/>
		<path class="st1" d="M328.8,466.4c-3.9-5.9-7.7-11.9-10.6-18.4c0.3-0.6,0.4-1.2,0.9-1.7c0.7-0.6,1.4-0.9,2.3-0.8
			c0.6,0.2,1,0.5,1.3,1c0.8,0.5,0.6-0.3,0.8-0.7c0.5-2.4,0-5,0.7-7.4c3.1-2.6,0.7-5.1-0.2-7.6c-0.1-2.9-1.3-6.1,1.7-8.4
			c2.1,0,4.4-0.2,4.6,2.9c0.6,12.9,0.1,25.7,0.2,38.6C330.5,465.2,330.4,466.4,328.8,466.4z"/>
		<path class="st2" d="M244.1,389.7c-1-0.6-2.4-0.2-3.2-1.4c-0.9-2-3.1-2.3-4.5-3.5c-1.8-1.5-2.6-3,0.4-4.2c2.3,0.6,4.3,1.8,6.5,2.6
			c3,1.3,6.2,2,9.1,3.6c1.6,0.8,3.4,1.4,5.1,1.8c1.8,0.4,3.5,0.9,5.2,1.5c1.8,0.7,3.4,2.1,5.2,2.7c0.4,0.1,0.8,0.3,1.2,0.4
			c1,0.4,2.1,0.6,3.1,0.9c1.1,0.5,1.9,1.3,2,2.6c-0.2,1.3-0.9,2.2-1.9,3c-1,0.7-2.1,1.1-3.4,1c-1-0.2-1.7-0.8-2.2-1.7
			c-1.6-0.7-3.3-1.4-4.9-2.2c-1.2-1-2.6-1.4-4-1.8c-3.3-0.6-6.1-2.5-9-4C248,388.5,245.8,390,244.1,389.7z"/>
		<path class="st3" d="M363.2,374.1c-3.7,3.7-7.8,7-12.2,10c-1.9,1.3-3.9,2.6-5,4.7c0.2,0.2,0.3,0.5,0.3,0.8c0,0.3,0,0.4-0.1,0.4
			c-0.6,0.8-1.4,1.2-2.3,1.4c-1,0.1-1.9-0.2-2.7-0.7c-0.4-0.3-0.8-0.6-1-1c-1.1-1.7-1.6-3.5-0.8-5.5c1.9-2.6,4.4-4.7,6.9-6.7
			c1.8-1.3,3.3-3,5.4-4c0.5-0.1,0.9,0,1.3,0.1c2.4,1.2,3.4-1.9,5.5-1.9C360.2,372.2,362,372.6,363.2,374.1z"/>
		<path class="st4" d="M309.1,432c-1-1.2-1.9-2.5-3-3.9c-3,7.1-6,14-9,21c-2.9-0.4-1.4-2.6-1.8-4.1c0.1-1.5,0.2-3-0.2-4.4
			c-0.2-1.2-0.1-2.3,0.3-3.4c0.3-0.7,0.7-1.2,1.1-1.8c2.9-3.7,3.9-8.1,5.5-12.4c0.2-0.4,0.4-0.8,0.7-1.2c1.9-1.6,3.6-1.4,4.9,0.8
			c0.7,1.3,1.7,2.4,2.6,3.6c0.3,0.4,0.5,0.8,0.6,1.3c0.3,1.2,0.3,2.4,0,3.5C310.4,431.7,310,432.2,309.1,432z"/>
		<path class="st5" d="M296.8,330c2.6,2.8,5.8,5.1,7.1,9c-1.3,1.7-2.5,3.6-4.4,4.8c-0.6,0.4-1.2,0.6-1.9,0.8c-0.8,0.1-1.4-0.1-2-0.6
			c-0.6-0.8-0.7-1.8-0.7-2.8c0-0.7,0.2-1.4,0.5-2c0.3-0.5,0.9-0.7,1.4-1c-0.6-0.6-1.3-0.8-2.1-0.6c-0.5,0.1-0.9,0-1.4-0.1
			c-0.9-0.3-1.6-0.9-2.1-1.7c-0.4-0.9-0.6-1.8-0.7-2.8c-0.3-2.6-3.3-4.3-2.4-7.3c0.5-1.4,0.4-3,1.8-4c1.8,1.3,3.4,2.7,4,5
			C295.1,327.8,296,328.8,296.8,330z"/>
		<path class="st6" d="M296,445c1.2,1.1-1,3.1,1.1,4c-0.6,1.9-0.5,4.2-2.8,5.1c-0.4,0.3-0.8,0.6-1.1,1c-2.9,4.1-3.1,4.1-4.8-0.3
			c-0.8-2.1-2-2.1-3.6-2.2c-2.1-1-0.5-3.2-1.6-4.5c-0.3-2-0.6-4-0.9-6c0.3-0.3,0.6-0.5,1-0.7c1.4,0,2.8-0.7,4.2-0.7
			c1.6,0.7,0.9,2.7,2.3,3.5c0.3,0.3,0.6,0.6,0.8,1c0.4,0.8,0.5,1.6,0.5,2.5c0,0.4-0.1,0.8,0,1.3c0.1-0.2,0.2-0.4,0.4-0.7
			c0.3-0.5,0.8-0.8,1.2-1.2C293.9,446.7,294.1,444.6,296,445z"/>
		<path class="st7" d="M285,452c6.5-3.2,2.9,4.1,5.6,5c0.8-1.2,1.3-3.2,3.6-2.9c0.1,3.4-1.3,6.2-3,9c-1.1,1.5-1.8,3.2-2.1,5.1
			c-0.3,0.6-0.7,1.2-1,1.9c-0.9,1.1-1.9,2.1-2.5-0.2c-0.2-0.9,0.2-1.9-0.5-2.8c0-0.7-0.1-1.4-0.1-2c0.6-2-0.2-4-0.4-5.9
			C284.9,456.7,283.8,454.3,285,452z"/>
		<path class="st8" d="M323.9,351c5.3-3.7,10.7-7.4,16-11.1c0.4,0.2,0.7,0.6,0.9,1c0.4,0.8,0.7,1.7,0.8,2.5c0.1,1.3-0.8,2-1.6,2.8
			c-0.5,3.1-1.8,5.7-3.9,7.9c-1.1,0.5-1.5-0.3-1.9-1.1c-0.3-0.7-0.4-1.5-1.1-1.9c-1.1-0.3-1.8,0.6-2.7,1
			C328,353,325.6,354,323.9,351z"/>
		<path class="st9" d="M338.1,415.1c1.8,2.8,4.4,4.9,6.8,7.1c0.4,2.5,2.3,3.7,4.3,4.8c0.3,0.3,0.6,0.6,0.9,0.9
			c0.5,0.7,0.6,1.4,0.3,2.1c-0.5,0.6-1.2,0.8-2,0.9c-1,0-1.9-0.4-2.8-0.9c-2.2-1.4-4.1-3.1-5.3-5.5c-0.8-1.8-1.6-3.6-3.9-4
			c-3-1.3-4.8-4.1-7.2-6.2c-1.1-1.4-2.4-2.7-1-4.6c2.8-1.4,4.9-0.2,7,1.6C336,412.5,337.3,413.6,338.1,415.1z"/>
		<path class="st10" d="M373.8,355.9c6.8-2.7,13.7-5.4,21.3-5.3c-3.6,3.1-6.7,6.7-11.1,8.6c-2.5,0.5-4.5-0.6-6.5-2
			C376.1,357.2,374.5,357.8,373.8,355.9z"/>
		<path class="st11" d="M237,381c-2.6,1.4-1.3,2.3,0.4,3.2c1.7,0.9,3.8,1.5,3.5,4.1c-5.2-2.1-10.5-4.1-15.7-6.2
			c-1.5-0.6-4.4-0.6-3.8-2.7c0.7-2.7,3,0.6,4.4-0.4c2.2-0.9,4.4-0.1,6.5-0.1c0.9,0.1,1.8,0.1,2.7,0.2c1.2,1,2.8,0,4.1,0.8
			c0.2,0.5,0.1,0.9-0.1,1.4C238.3,381.6,237.6,381.5,237,381z"/>
		<path class="st12" d="M353.9,413.2c1.2-0.1,1.7,0.9,2.1,1.8c0.2,1.7,1.8,2.1,2.8,3.1c1.2,3.2,5.8,3.1,6.3,6.8
			c0.3,0.5,0.3,0.9-0.2,1.3c-5.3-1.7-10.1-4.5-15.1-6.9c-0.5-1.2,1.2-2.1,0.6-3.3C350.9,414,352.6,413.8,353.9,413.2z"/>
		<path class="st13" d="M373.8,355.9c1.4,1.1,2.8,0.2,4.2,0.1c0.1,2.4,3.4,3.1,3,5.8c-2.3,1.4-4.5,2.8-6.8,4.3
			c-2.2,1.2-4.1,1.2-5.6-1.1c-1.1-2.7,1.2-3.7,2.6-5.1c0.6-1-0.9-1.9-0.2-3C371.6,355.9,372.7,355.9,373.8,355.9z"/>
		<path class="st14" d="M299,343c2.2-0.7,2.1-4.2,4.9-4c1.4,1.6,2.8,3.3,4.1,4.9c1.1,1.6-0.8,3.8,1,5.3c0.9,1.9,1.4,3.7-1.4,4.5
			c-3-0.2-3.1-3.9-5.8-4.5c-0.4-0.2-0.7-0.5-1.1-0.8c-0.3-0.3-0.5-0.7-0.7-1.1C299.8,345.8,298.3,344.7,299,343z"/>
		<path class="st15" d="M323.9,351c2.3,1.8,4.7,0.6,7.1,0c0.3,0.4,0.3,0.8,0.2,1.3c-0.5,0.8-1.3,1.3-2.2,1.6
			c-2.9,0.4-5.2,1.7-6.4,4.5c-0.7,1.5-2,2.3-3.2,3.3c-0.8,0.5-1.5,0.9-2.5,0.6c-1.5-0.8-1.8-2.4-2.3-3.8c-0.4-1.2,0-2.5,0-3.7
			c0-0.4,0.2-0.8,0.4-1.2c0.6-0.7,1.3-1.1,2.3-1c1,0.1,1.3,1.2,2.2,1.4C320.9,352.9,322.4,351.9,323.9,351z"/>
		<path class="st16" d="M309.1,432c0.3-0.3,0.6-0.7,0.9-1c1.1-0.6,2.2-0.4,3.3-0.4c1.2,0.3,1.8,1.3,2.4,2.3c0.9,1.6,2,3.1,2.6,4.8
			c0.6,1.6,1.5,3.1,1.7,4.8c0.3,1.6-0.1,3.1-1.1,4.4c-0.3,0.3-0.6,0.7-0.8,1c-0.2-0.2-0.2-0.5-0.2-0.8c-1-1.4-1.1-3.3-2.8-4.2
			C312.4,439.7,311,435.7,309.1,432z"/>
		<path class="st17" d="M343.9,401c0.4,3.5,3.9,4.5,5.6,7c1.2,1.7,3.6,2.4,3.6,4.9c-1.2,2.1-3.2,1.8-5.2,1.8c-0.2,0-0.4-0.1-0.6-0.1
			c-0.2-0.1-0.4-0.2-0.6-0.3c-1.1-0.8-1.7-2-2.5-3c-0.5-0.7-0.9-1.5-1-2.4c0.2-1.6-0.1-3-1-4.3c-0.3-1.2-0.3-2.3,0.4-3.4
			C343,400.8,343.5,400.8,343.9,401z"/>
		<path class="st6" d="M343.9,401c-0.3,0-0.6,0-0.8,0c-0.4-0.2-0.7-0.6-0.9-1c-0.5-1-0.9-2.1-1.1-3.3c-0.1-0.7,0-1.4,0.3-2.1
			c0.5-0.9,1.3-1.4,2.2-1.6c1.8-0.2,3.6-0.3,4.9-1.7c0.6-0.4,1.2-0.6,1.9-0.8c0.9,0,1.9-0.2,2.7,0.4c0.3-0.1,0.6-0.1,0.8,0.1
			c-0.7,3.2-3.1,5.4-5,7.9C347.3,399.7,345.6,400.3,343.9,401z"/>
		<path class="st18" d="M328.1,368.2c-0.1,2.2,1.5,1.7,2.8,1.7c0.9,0.1,1.9,0.1,2.8,0.6c0.4,0.3,0.6,0.8,0.6,1.3
			c-0.2,0.5-0.5,0.9-0.9,1.2c-1.2,0.9-2.5,1.7-3.8,2.3c-2.4,1.1-5,1.7-7.1,0.1c-2.5-1.9-0.1-4.2,0.4-6.3c0.4-1,1-1.8,2-2.3
			C326.3,366.5,327.4,366.9,328.1,368.2z"/>
		<path class="st19" d="M282,311c1.7,2.3,4,4.1,5.1,6.9c0.4,2.3,0.2,4.8,1.4,6.9c0.1,0.5,0.1,0.9,0,1.4c-0.1,0.8-0.6,1.2-1.3,1.4
			c-0.8,0-1.3-0.3-1.8-0.9c-0.8-1.1-1.4-2.4-2.1-3.6c-0.7-1.7-2.3-3-2.7-5c0.4-2.3-0.9-4.6,0.1-6.9C281,310.7,281.5,310.7,282,311z"
			/>
		<path class="st20" d="M349,399c-0.1-3.7,2.6-5.7,5-7.9c2.6-0.2,4.3,2.1,7.5,2.1C357.4,396.5,353.3,398,349,399z"/>
		<path class="st21" d="M328.8,466.4c1.4-1,1.3-2.5,1.3-4c-0.1-12.5-0.1-25-0.2-37.5c0.3-0.4,0.6-0.3,0.8,0.1c0,14.7,0,29.3,0,44.5
			C329.7,468.5,328.9,467.7,328.8,466.4z"/>
		<path class="st22" d="M260.1,372c-2-2.3-4.1-4.5-6.1-6.8c-0.8-2.2-0.1-3,2.2-2.2c1.3-0.4,1.9,0.8,2.9,1.2c1.6,0.6,2.5,2.5,4.4,2.5
			c1,0.4,1.1,1.3,1.3,2.2c0,0.5-0.1,0.9-0.3,1.3C263.4,371.7,261.3,370.7,260.1,372z"/>
		<path class="st23" d="M267,408c-0.6,0-1.3,0-1.9,0c-0.3-0.3-0.5-0.7-0.6-1.2c0-0.5,0.2-0.9,0.4-1.3c0.6-0.7,1.4-1.1,2.4-1
			c1.3,0.2,2.6,0.3,4,0.3c0.7,0,1.4,0.1,2.1,0.4c0.4,0.2,0.8,0.5,1.1,1c-1.9,3.9-3.3,8.3-8.4,9.4c-1.4-0.4-2.4-1-2-2.6
			c1.1-1.3,2.2-2.5,3.3-3.8C267.9,408.6,267.6,408.3,267,408z"/>
		<path class="st1" d="M311.9,346.8c1.4-2.3,2.9-4.5,4.3-6.8c3-0.9,2,1.5,2.2,2.8c-0.2,2.3,0.6,4.8-0.7,7c-0.5,0.6-1.2,0.9-2,1
			c-0.5,0-1,0-1.5-0.1c-0.7-0.2-1.4-0.5-2-0.9c-0.4-0.3-0.7-0.7-0.9-1.1C311.3,348,311.4,347.4,311.9,346.8z"/>
		<path class="st24" d="M334.9,368.8c5.1-2.5,10.5-3.9,15.9-5.2c0.7,0.3,1.2,0.7,1.5,1.5c0,0.8-0.5,1.3-1.1,1.6
			c-1.9,0.7-3.9,1.1-5.8,1.9c-0.6,0.2-1.3,0.4-1.9,0.6c-1.5,0.4-2.9,0.9-4.3,1.5c-0.4,0.2-0.8,0.3-1.3,0.4c-1.3,0.3-2.6,1-3.9-0.1
			l0-0.1C333.4,369.9,334.6,369.5,334.9,368.8z"/>
		<path class="st25" d="M236.1,322.8c1.9,1.8,4.5,2.7,6,5c1.5,1.4,2.4,3.1,2.5,5.2c-1.2,2.4-2.4,0.2-3.7,0c-2-2-3.8-4.2-4.9-6.9
			C235.3,325.1,235,323.9,236.1,322.8z"/>
		<path class="st26" d="M284.2,362.9c1.2-0.1,2.9,0.4,2.8-1.8c-0.2-3-0.9-6-0.2-9c0.4-0.4,0.9-0.5,1.5-0.2c1.2,1.3,1.2,3,1.8,4.5
			c0.5,2.2,0.4,4.4,0.4,6.5c-0.1,1.7-0.1,3.4-1.7,4.5c-0.8,0.4-1.6,0.5-2.4,0.3c-2.2-1-4.4-1.9-4.3-4.9
			C282.8,362.4,283.5,362.4,284.2,362.9z"/>
		<path class="st27" d="M280.1,422c-0.3-0.7-0.1-1.7-1.1-2c-1.1-1-1.4-2.3-1.3-3.7c0.2-0.4,0.5-0.8,0.9-1c1.8-0.6,3.5-1.3,5.5-0.7
			c2.3,1.3,3,3.1,1.4,5.4c-0.3,0.4-0.7,0.6-1.1,0.9C283,421.3,282,423.3,280.1,422z"/>
		<path class="st28" d="M275.9,416.9c-0.7,0-1.3-0.1-2-0.1c-0.8-0.2-1.8,0-2.2-1.1c-0.1-1.5,0.6-2.5,1.8-3.3
			c1.1-0.6,2.3-1.2,3.3-1.9c1.3-0.7,2.5-1.8,4.1-1.8c0.7,0.2,1.1,0.7,1.4,1.3c0.2,1-0.2,1.7-0.8,2.4c-1.2,1.2-2.1,2.6-3.8,3.4l0,0.1
			C277.5,416.7,277.2,417.7,275.9,416.9z"/>
		<path class="st29" d="M266.3,368.7c2.1,0.8,4.3,1.5,6.6,1.2c0.3-0.3,0.7-0.4,1.2-0.3c1.2,1,2.2,2.1,3.2,3.3c0.2,1-0.3,1.7-1.1,2.3
			c-0.4,0.1-0.9,0.2-1.3,0.1c-1.3-0.3-2.5-2.7-3.9-0.2c-1.1,0.7-2.1,0.3-3.1-0.4c-0.5-0.4-1-0.9-1.4-1.5c-0.6-1.2-1.3-2.3-1.1-3.7
			C265.6,369.2,265.8,368.9,266.3,368.7z"/>
		<path class="st30" d="M260.7,355.1c-2.2-2.1-4.9-3.8-6-6.9c0.2-0.7,0.6-1.2,1.4-1.5c2.3,0.1,3.8,1.6,5.4,3c0.9,1.8,3.1,3,2.7,5.5
			c-0.4,0.3-0.8,0.5-1.3,0.5C262.1,355.6,261.4,355.4,260.7,355.1z"/>
		<path class="st31" d="M328.1,368.2c-1-0.4-2-0.8-3-1.2c-0.7-0.9-0.1-1.7,0.3-2.4c0.8-1.1,1.6-2.2,2.1-3.4c1.6-1.9,1.3-5.6,5.1-5.4
			c1.3,1.1,0.9,2.3,0.4,3.5c-1,1.6-2.1,3.1-3.1,4.7C329.8,365.5,328.5,366.6,328.1,368.2L328.1,368.2z"/>
		<path class="st32" d="M363.2,374.1c-2.1,0.1-3.9-0.3-5.2-2.1c-0.4,0.4-0.8,0.4-1.2,0c-0.3-1.1,0.2-1.8,0.9-2.5
			c1.3-0.9,2.5-2,3.9-2.8c0.4-0.2,0.9-0.2,1.4-0.2c0.7,0.1,1.3,0.5,1.9,0.9c0.3,0.3,0.5,0.8,0.5,1.2c-0.7,1.4-1,2.8-0.4,4.3
			C364.5,373.5,364.1,374.2,363.2,374.1z"/>
		<path class="st33" d="M370.9,356.9c-0.2,1.7,4,0.3,2.1,3.1c-2.9,0-5.1,2.3-8,2.5c-1.8,0.4-3.6,0.9-5.2-0.4c-0.2-0.5-0.2-1,0.1-1.5
			C363.5,359.3,367.2,358.1,370.9,356.9z"/>
		<path class="st34" d="M264,381.1c0.4-0.3,0.9-0.7,1.3-1c0.3-0.3,0.6-0.3,1-0.1c0.5,0.5,1,1.1,1.6,1.6c0.9,0.5,1.9,0.7,2.6,1.5
			c0.7,0.9,1.1,2,0.9,3.2c-1.2,2.1-2.9,0.7-4.5,0.6c-1.5-0.6-3.2-0.6-4.8-1.1c-0.9-0.3-1.7-0.8-2.4-1.5c-0.2-0.4-0.2-0.9,0-1.3
			C261.1,382.1,263,382.5,264,381.1z"/>
		<path class="st35" d="M240,443.1c-1.8,2.6-3.6,5.1-6.9,5.9c-0.5,0.5-0.9,0.4-1.2-0.2c2.8-3.3,4.4-7.6,8.9-9.2
			C242.3,441.2,241.1,442.2,240,443.1z"/>
		<path class="st36" d="M258,428.1c-2,2.7-3.9,5.6-7.7,6c-1.8-0.1-1.9-0.4-0.9-2.8c0.6-1.3,2-2,3-3c1.4-1.1,2.5-2.9,4.7-2.6
			C258,426.3,258.5,427,258,428.1z"/>
		<path class="st37" d="M260.9,343c3.3,2.6,6.7,5.3,10,7.9c-0.1,0.7-0.5,1.2-1.1,1.6c-0.6,0.3-1.3,0.3-2,0.2
			c-0.4-0.1-0.8-0.3-1.2-0.6c-1-0.9-1.9-1.8-3-2.5c-0.9-0.7-1.8-1.3-2.5-2.2c-0.9-1.5-2.9-2.5-2.1-4.7
			C259.7,342.4,260.3,342.5,260.9,343z"/>
		<path class="st38" d="M240,443.1c0.3-1.1,0.5-2.3,0.8-3.4c0.7-3,2.7-5.1,5.1-6.9c0.8,0.2,1.2,0.7,1.4,1.5c0.1,2.7-1.9,4.2-3.2,6.1
			C243.1,441.7,242,443.1,240,443.1z"/>
		<path class="st39" d="M288,352c-0.3,0-0.6,0-1,0c-0.9-0.4-1.1-1.3-1.4-2.1c-0.3-0.9,0.4-2.2-0.9-2.8c-0.1-0.4-0.3-0.8-0.4-1.1
			c0.7-2.2-0.6-4.6,0.5-6.8c1.7-0.7,2.3,0.5,2.9,1.7c0.5,1.7,0.4,3.6,1,5.3c0.3,1.5,0.5,3.1,0,4.7C288.7,351.3,288.4,351.7,288,352z
			"/>
		<path class="st40" d="M258,428.1c-0.4-0.7-0.7-1.4-1.1-2.1c-0.4-2.9,2-3.8,3.6-5.3c0.4-0.2,0.9-0.3,1.3-0.3
			c0.7,0.1,1.3,0.5,1.7,1.1c0.4,0.8,0.9,1.6,0.2,2.5C262.2,425.8,260.4,427.2,258,428.1z"/>
		<path class="st41" d="M368.9,451.3c-3.2-1.3-5.5-3.8-8-6.1c0.6-1.3,1.7-1.6,3-1.7c2.1,0.3,3.4,1.8,4.8,3.1
			c0.7,0.8,1.2,1.6,1.2,2.7C369.8,450.1,369.6,450.8,368.9,451.3z"/>
		<path class="st42" d="M364,444c-1.1,0.4-2.1,0.8-3.2,1.2c0,0,0-0.1,0-0.1c-0.4-0.9-0.7-1.8-1.2-2.6c-0.7-1.6-1.8-3-1.4-4.9
			c0.1-0.5,0.5-0.9,0.9-1.1c2.5,0.5,3.3,2.8,4.8,4.3C364.7,441.9,364.9,443,364,444z"/>
		<path class="st43" d="M369,364c1,2.4,3.2,1.9,5.2,2.1c-1.6,1.7-2.7,3.9-5.2,4.7c-0.6-0.6-0.9-1.7-2.2-1.4
			c-0.9-0.1-1.5-0.6-1.9-1.4l0,0c-0.5-2.3,1.3-3.2,2.7-4.3C368.2,363.6,368.6,363.7,369,364z"/>
		<path class="st44" d="M359.2,436.5c-0.1,0.5-0.2,1-0.2,1.5c-0.3,0.3-0.7,0.4-1.2,0.3c-1.4-0.7-2.3-2-3.6-2.8
			c-1.7-1.6-4.6-2.2-4.2-5.5c0-0.7,0-1.5,0.1-2.2C353.4,430.4,356.5,433.2,359.2,436.5z"/>
		<path class="st45" d="M274,370c-0.4,0-0.7,0-1.1,0c-1.7-2.3-3.3-4.5-5-6.8c-0.4-0.9,0.1-1.3,0.9-1.6c1.1-0.2,1.9,0.3,2.7,0.9
			c1.8,1.9,3.7,3.8,4.1,6.6C275.3,369.8,274.9,370.3,274,370z"/>
		<path class="st46" d="M381,361.8c-0.8-2-4.1-2.8-3-5.8c2,1,4,2.1,6,3.1C383.5,360.6,382.6,361.6,381,361.8z"/>
		<path class="st47" d="M240.8,333.1c1.1-0.4,2.1,1.1,3.2,0c1.1-0.5,1.8,0.1,2.5,0.8c1,1.8,3.1,3.1,2.9,5.6c-0.6,1-1.3,1.4-2.4,0.6
			C245,337.7,242.9,335.4,240.8,333.1z"/>
		<path class="st48" d="M239,381c0-0.3,0-0.6,0-1c2.1-0.9,4.3-0.7,6.5-0.1l0.2-0.3l0.3,0.2c0.6,1,1.8,1.2,2.4,2.2
			c0.1,0.4,0.2,0.9,0.1,1.3c-0.3,0.7-0.8,1.1-1.5,1.3c-1.2,0-2.3-0.5-3.3-1C242.2,382.6,239.9,383.1,239,381z"/>
		<path class="st49" d="M260.9,343c-0.7,0-1.3,0-2,0c-0.5,0.6-1.1,0.6-1.8,0.5c-0.4-0.2-0.8-0.4-1.2-0.6c-1.2-1-2.3-2.1-3.3-3.3
			c-0.3-0.4-0.5-0.8-0.7-1.2c-0.3-0.8-0.7-1.7-0.1-2.6C255.8,337,257.8,340.8,260.9,343z"/>
		<path class="st50" d="M275.9,416.9c0.6-0.3,1.2-0.7,1.9-1c0.8,1.3,1.4,2.6,1.2,4.1c-1.2,0.7-1.6,2.6-3.5,2.2
			c-0.6,0.3-1.2,0.3-1.7-0.3C273,419.6,275.3,418.6,275.9,416.9z"/>
		<path class="st51" d="M246,334c-0.7-0.3-1.3-0.7-2-1c-0.7-1.7-1.3-3.4-2-5.1c2.5,1.8,5.8,2.7,7,5.9c0.3,0.4,0.3,0.8,0.1,1.3
			C247.8,335.7,246.9,334.8,246,334z"/>
		<path class="st52" d="M271.9,415.9c0.7,0.3,1.4,0.6,2.1,0.9c-2.6,2.3-4.8,5-8.1,6.4c-0.5-0.6-0.7-1.2-0.7-2
			c0.1-0.5,0.2-0.9,0.5-1.3C267.7,418.5,268.9,415.9,271.9,415.9z"/>
		<path class="st53" d="M261,421c-1.3,1.7-2.7,3.3-4,5c-1.3,1-2.7,2-4,3.1c-0.9-1-0.7-2.1,0-3.1c0.4-0.6,0.8-1.2,1.2-1.8
			c2-0.7,3-2.7,4.9-3.6C259.8,420.3,260.5,420.5,261,421z"/>
		<path class="st54" d="M385.1,462c-3.3,0.4-5.4-1.4-7.2-3.7c-0.4-1.3,0.1-2,1.2-2.5c2.6,1.5,4.6,3.6,5.9,6.4L385.1,462z"/>
		<path class="st55" d="M365,368c0.7,0.3,1.3,0.7,2,1c1.7,0,1.7,0.9,1,2.1c-0.5,1.5-1.5,2.1-3.1,1.9
			C360.9,371.3,364.7,369.7,365,368z"/>
		<path class="st56" d="M230.8,321.3c-0.1-0.1-0.3-0.1-0.4-0.2c-1.5-1.8-3.9-3-4.2-5.6c0-0.2,0.8-0.7,1.1-0.6c2.4,0.9,3.7,2.9,4.9,5
			C232,320.6,231.6,321.1,230.8,321.3z"/>
		<path class="st57" d="M356.9,442.2c-2.3-1.7-4.7-3.4-7-5.1c-0.5-0.8,0.1-1.3,0.7-1.6c0.9-0.3,1.8,0,2.7,0.2
			c0.7,0.2,1.3,0.4,1.9,0.8c1,1,2,1.9,2.5,3.2c0.1,0.5,0.1,0.9,0,1.4C357.6,441.6,357.3,442,356.9,442.2z"/>
		<path class="st58" d="M359.9,360.6c0,0.5,0.1,1,0.1,1.4c-1.5,4-4.6,3.9-8,3c-0.4-0.5-0.8-0.9-1.2-1.4
			C353.2,360.8,357.3,363.1,359.9,360.6z"/>
		<path class="st59" d="M347,414c0.3,0,0.6,0,0.9,0c1.1,0.5,2.6,0.5,3.1,2c1.2,1.6-0.7,2.1-1.1,3.2c-1.6-0.7-3.3-1.4-4.9-2.1
			C344.5,415.2,345.8,414.7,347,414z"/>
		<path class="st60" d="M230.8,321.3c0.5-0.5,0.9-0.9,1.4-1.4c2.2-0.2,2.7,1.8,3.8,2.9c0,1.1-0.1,2.3-0.1,3.4
			C234.2,324.6,232.5,322.9,230.8,321.3z"/>
		<path class="st61" d="M343.8,432.1c-2.7-0.8-4.4-2.7-5.8-5c-0.2-0.3-0.3-0.5-0.3-0.8c0.1-0.3,0.1-0.4,0.2-0.4
			c0.4-0.2,0.9-0.3,1.4-0.3c2.8,1.1,4.9,2.8,6,5.7C345,432,344.7,432.7,343.8,432.1z"/>
		<path class="st62" d="M343.8,432.1c0.4-0.3,0.8-0.7,1.3-1c0.2-0.1,0.4-0.2,0.6-0.3c2.6,0.9,5.3,1.7,5.6,5.1
			c-0.4,0.4-0.9,0.9-1.3,1.3C347.9,435.5,345.8,433.8,343.8,432.1z"/>
		<path class="st63" d="M285,452c0,2.7,0,5.4,0,8c0.6,0.9,0.8,1.7-0.7,1.9c-0.4-4.6-0.8-9.3-1.3-13.9
			C284.6,448.9,283.4,451.1,285,452z"/>
		<path class="st64" d="M263.9,412.9c0.4,1,1.1,1.7,2.1,2.1c1.1,3.6-1.8,3.1-3.7,3.6c-0.6-0.1-1-0.3-1.4-0.7
			C260.8,415.6,262.1,414.1,263.9,412.9z"/>
		<path class="st65" d="M316.9,350c1.5-2.2,1-4.6,1.1-7c0.3-0.5,0.6-0.4,0.9,0c0.2,3.6,0.3,7.2,0.5,10.8c-0.8-0.3-1.6-0.6-2.3-0.8
			C316.1,352,316.2,351,316.9,350z"/>
		<path class="st66" d="M260.1,372c0.9-1.5,2.6-1.4,3.9-2c0.9,0.8,1,1.8,0.9,2.8c-0.2,1.1-0.8,1.9-1.7,2.5c-0.5,0.2-1,0.1-1.5-0.2
			C260.5,374.4,259.8,373.5,260.1,372z"/>
		<path class="st67" d="M244.1,440.4c1-2.1,1.9-4.3,2.9-6.4c1.3-0.5,2.1,0.4,3,1C248.7,437.5,246.5,439,244.1,440.4z"/>
		<path class="st68" d="M251,409.1c2-1.1,4-2.2,5.9-3.4c0.6,0.4,0.8,1,0.9,1.7c0,0.4-0.1,0.9-0.3,1.3c-0.6,0.9-1.7,1.2-2.6,1.9
			c-0.3,0.1-0.7,0.2-1,0.2C253.3,409.9,250.9,411.5,251,409.1z"/>
		<path class="st69" d="M247.1,340c0.8,0,1.6-0.2,2-1c0.4-0.3,0.8-0.4,1.3-0.2c0.6,0.3,1.2,0.8,1.6,1.3c0.9,1.2,1.2,2.6,0.9,4
			c-0.2,0.5-0.5,0.8-0.9,1.1C250.3,343.5,248.7,341.7,247.1,340z"/>
		<path class="st70" d="M274.9,355.9c2.4,0.7,4.1,2.5,6,4c0.9,0.6,1.7,1.1,1,2.4c-1.5,0.9-2.8,0.5-4.1-0.6c-0.9-1.1-1.7-2.2-2.8-3.2
			C274.5,357.7,274.2,356.8,274.9,355.9z"/>
		<path class="st71" d="M311.9,346.8c0,0.7,0,1.4,0,2.2c-1.3,1.3-2.7-0.4-4,0c-4.4-1.8,1.5-3.4,0.1-5.1
			C309.5,344.7,310.1,346.6,311.9,346.8z"/>
		<path class="st72" d="M286,350c0.8,0.4,1,1.2,1,2c-0.4,3,0.9,6.1-0.1,9.1c-1.4-2.9-1-6.1-1.7-9.2C285.6,351.3,285.3,350.5,286,350
			z"/>
		<path class="st73" d="M281,311c0,2.7,0,5.4,0,8c0.5,0.8,0.6,1.6-0.2,2.3c-1.2-3.3-1.4-6.8-1.7-10.3c0.3-0.6,0.7-1.2,1.5-1.1
			C281.1,310,281.3,310.5,281,311z"/>
		<path class="st74" d="M388.9,464.3c1.9,0.9,3.4,2.1,4.2,4.6c-2.6,0.1-3.7-1.7-5.1-2.9C387.5,465,388.1,464.6,388.9,464.3z"/>
		<path class="st75" d="M253,425.9c0,1,0,2.1,0,3.1c-0.6,1.3-1.5,2-2.9,2c-0.5,0.4-0.9,0.3-1.3-0.1
			C248.8,428.1,251.3,427.4,253,425.9z"/>
		<path class="st76" d="M259.1,404.2c1.3-0.6,2.6-1.3,3.9-1.9c0.8,0.7,2,0.9,2.4,2.1c-0.1,1-0.9,1.6-1.5,2.2
			c-0.9,0.5-1.9,0.5-2.8,0.3C259.8,406.4,258.7,405.8,259.1,404.2z"/>
		<path class="st77" d="M248.1,412.1c-1.8,1.6-3.7,1.6-5.8,0.8c1.9-1.2,3.3-3.1,5.8-2.8C248.6,410.7,248.6,411.4,248.1,412.1z"/>
		<path class="st78" d="M288,326c0-0.3,0-0.7,0-1c-0.8-2.1-2.1-4.1,0.1-6.1c1.6,0.3,1.5,1.8,2,2.9c-0.3,1.4,0.4,3.1-1.1,4.2
			C288.7,326.5,288.3,326.5,288,326z"/>
		<path class="st79" d="M285.1,467c1.7,0.2-0.4,4.4,3,3c0.3,1.8-0.9,3.1-1.6,5.1C284.7,472.3,285.1,469.6,285.1,467z"/>
		<path class="st80" d="M364,444c0-1.1,0-2.1,0.1-3.2c1.6,1.1,3,2.4,4,4c0.5,0.7,0.6,1.5-0.1,2.2C366.7,446,365.3,445,364,444z"/>
		<path class="st81" d="M341,343c-0.8-0.4-1-1.2-1-2c0.7-1.3,1.9-2.1,2.9-3.2l0,0c2,0.1,1.7,1.3,1.3,2.6c-0.4,0.8-0.9,1.7-1.3,2.5
			C342.2,343.5,341.6,343.6,341,343z"/>
		<path class="st82" d="M368,447c0-0.7,0-1.4,0.1-2.2c2,1.4,3.7,3,5.1,5c-1.8,1.6-3.1,0.8-4.1-0.9C368.7,448.3,368.3,447.7,368,447z
			"/>
		<path class="st83" d="M260.7,355.1c0.8,0,1.5-0.1,2.3-0.1c1.7,0.9,3.5,1.7,3.5,4.1c-0.3,0.7-0.6,1.3-1.5,0.9
			C262.9,359,261.8,357,260.7,355.1z"/>
		<path class="st84" d="M244.1,389.7c1.4-0.7,2.8-1.5,4.4-1.3c2.4,0.4,1.5,1.6,0.4,2.7C247.1,391.3,245.6,390.5,244.1,389.7z"/>
		<path class="st85" d="M369,449c1.3,0.7,2.6,1.3,4.1,0.9c0,0,0,0,0,0c0.4,0.6,0.5,1.2,0.5,1.9c-0.2,1-0.8,1.6-1.6,2.1
			c-1.4-0.5-2.2-1.6-3.1-2.6C368.9,450.5,369,449.7,369,449z"/>
		<path class="st86" d="M248.1,412.1c0-0.7,0-1.3,0-2c0.9-0.6,1.7-1.5,3-1c1,0.6,2,1.2,3,1.8C252,411.2,250.2,412.6,248.1,412.1z"/>
		<path class="st87" d="M338.1,415.1c-1.9-0.2-3.1-1.1-3.1-3.1c0.1-0.1,0.3-0.3,0.4-0.4c0.4-0.1,0.8-0.2,1.2-0.2
			c0.4,0,0.8,0.1,1.2,0.1c1.2,0.1,2.5,0,3.4,1.2c0.2,0.4,0.2,0.8,0.1,1.2c-0.5,0.9-1.6,0.4-2.3,0.8
			C338.8,415,338.5,415.1,338.1,415.1z"/>
		<path class="st88" d="M341,414c0-0.3,0-0.6-0.1-1c0.3-0.4,0.8-0.6,1.3-0.7c1.9-0.3,3.3,0.9,4.8,1.7c0,0,0,0,0,0
			c0.1,1.6-1.5,2-2.1,3c-0.3,0-0.7-0.1-1-0.1C343.4,415.5,341.5,415.5,341,414z"/>
		<path class="st89" d="M280.1,422c1.3-0.7,2.6-1.3,3.9-2c1.9,2.9-1.9,3.6-2.1,5.7c-0.1,0.7-0.4,1.2-1,1.6
			C279.9,425.6,280,423.8,280.1,422z"/>
		<path class="st90" d="M333.1,359.3c-0.2-1.2,0.1-2.5-1.1-3.3c-0.8-1-0.4-1.7,0.5-2.3c1.3-0.2,2.2,0.6,3.2,1.2
			C335.6,356.8,335,358.4,333.1,359.3z"/>
		<path class="st91" d="M379.1,455.7c-0.4,0.8-0.8,1.7-1.2,2.5c-1-0.7-1.9-1.4-2.9-2.2c-0.5-1.1,0.1-1.8,0.9-2.4
			c0.5-0.1,0.9,0,1.4,0.2C378.2,454.2,378.8,454.8,379.1,455.7z"/>
		<path class="st92" d="M260.9,417.9c0.4,0,0.8,0,1.2,0.1c0.8,1,0.8,2-0.1,3c-0.3,0-0.6,0-1,0c-0.7,0-1.3,0-2,0
			c-1,0.1-1.6-0.2-1.1-1.3C258.3,418.2,259.6,418,260.9,417.9z"/>
		<path class="st93" d="M273.8,421.9c0.6,0.1,1.1,0.2,1.7,0.3c-0.1,0.5,0,1.1-0.3,1.4c-1,1-1.6,2.7-3.4,2.5c-0.2,0-0.7-0.4-0.7-0.6
			C271.4,423.9,271.8,422.3,273.8,421.9z"/>
		<path class="st94" d="M269.9,352c0.3-0.3,0.6-0.7,1-1c2,1,3.7,2.3,3.4,4.9c-1,0.8-1.8,0.2-2.6-0.3
			C270.7,354.6,269.4,353.8,269.9,352z"/>
		<path class="st95" d="M257.9,419.7c0.4,0.4,0.8,0.9,1.1,1.3c-1.3,1.5-1.9,4.1-4.8,3.1C254.7,422,256.4,421,257.9,419.7z"/>
		<path class="st96" d="M388.9,464.3c-0.3,0.6-0.6,1.1-0.9,1.7c-1.7-0.8-3.4-1.7-2.9-4c0,0-0.1,0.1-0.1,0.1
			C386.9,461.8,388.3,462.3,388.9,464.3z"/>
		<path class="st97" d="M248,382c-1.4,0-2-0.8-2-2.1c1.7,0.1,3.3,0.2,5,0.2c0.5,0.4,1.2,0.6,1.3,1.3c0,0.5-0.3,0.8-0.6,1.1
			c-0.4,0.2-0.8,0.3-1.3,0.4C249.5,383,248.7,382.7,248,382z"/>
		<path class="st98" d="M264,381.1c-0.4,2.6-2.5,1.7-4,1.9c-0.8,0.7-1.6,0.9-2.6,0.5c-0.4-0.3-0.7-0.6-0.7-1.1
			c0.4-1.1,1.3-1.3,2.3-1.3C260.6,381.1,262.3,381.1,264,381.1z"/>
		<path class="st99" d="M248.7,430.9c0.4,0,0.9,0.1,1.3,0.1c0.3,1-1.4,2.2,0.3,3.1c0,0.3-0.1,0.6-0.3,0.9c-1-0.3-2-0.7-3-1
			c-0.4-0.4-0.7-0.8-1.1-1.2C246.9,432.2,247.8,431.5,248.7,430.9z"/>
		<path class="st100" d="M282,437c-1-2.2-1.1-4.6-0.9-7c0.5-0.3,1-0.2,1.4,0.2c1.6,2.1,2.1,4.3,0.9,6.7
			C282.9,437.3,282.5,437.4,282,437z"/>
		<path class="st101" d="M288,318.9c-0.8,2-0.1,4.1-0.1,6.1c-2.3-2.1-2.5-4.5-0.9-7.2C287.4,318.2,287.7,318.5,288,318.9z"/>
		<path class="st102" d="M280.9,321.3c0.1-0.8,0.1-1.5,0.2-2.3c1.6,0.9,2.9,2,3,4c0,0.9-0.2,1.7-1.1,2.3c-0.4,0.1-0.8,0-1.2-0.3
			c-0.5-0.9,0.2-2.2-0.8-3C280.7,321.8,280.7,321.5,280.9,321.3z"/>
		<path class="st103" d="M353.2,391c-1.1,0-2.1,0-3.2,0c-1.6,0.6-3.3,1.7-4-1c0-0.4,0.1-0.8,0.1-1.2
			C348.5,389.2,351,389.7,353.2,391z"/>
		<path class="st104" d="M256.1,362.9c-1.4,0.1-2.1,0.8-2.2,2.2c-1.1-1.1-3.2-2.3-1.6-3.8C253.7,360,255.3,361.3,256.1,362.9z"/>
		<path class="st105" d="M356.9,442.2c0.1-0.4,0.1-0.9,0.2-1.3c1.7-1.2,2.7,0.5,3.9,1.1c0,1-0.1,2.1-0.1,3.1
			C359.3,444.5,357.8,443.8,356.9,442.2z"/>
		<path class="st106" d="M261.7,375.1c0.4,0,0.9-0.1,1.3-0.1c3.3,0.4,4.1,2.1,2.9,5c-0.2,0-0.4,0-0.6,0.1
			C264.1,378.4,262.9,376.8,261.7,375.1z"/>
		<path class="st107" d="M251.9,345.2c0-0.4,0.1-0.9,0.1-1.3c0.6-0.5,1.3-0.6,2.1-0.4c1.3,0.8,2.5,1.6,1.9,3.5
			c-0.4,0.4-0.9,0.8-1.3,1.1C253.4,347.5,252.6,346.5,251.9,345.2z"/>
		<path class="st108" d="M245.5,380c-2.2,0-4.3,0.1-6.5,0.1c-1.3-0.3-2.9,0.5-3.9-1C238.6,379,242.1,378.6,245.5,380z"/>
		<path class="st109" d="M349.2,426.9c-2.3-0.8-5.5-0.8-4.3-4.8C346.3,423.8,347.8,425.4,349.2,426.9z"/>
		<path class="st110" d="M330.7,425c-0.3,0-0.5,0-0.8-0.1c-1.3-0.6-2.6-1.2-3.9-1.9c-0.2-0.2-0.3-0.5-0.3-0.8c0-0.3,0.1-0.4,0.1-0.4
			c1.3-1.7,2.8-0.6,4.2-0.4c0.4,0.1,0.8,0.3,1.2,0.5c0.2,0.4,0.2,0.8-0.1,1.2C331,423.7,330.8,424.4,330.7,425z"/>
		<path class="st111" d="M351,416c-1-0.7-2-1.3-3.1-2c1.6-1,3.7,0.3,5.2-1.1c0.3,0,0.5,0.1,0.8,0.2C353,414.1,352,415.1,351,416z"/>
		<path class="st112" d="M259.1,404.2c0.7,0.6,1.3,1.2,2,1.9c-0.4,2.5-2.1,2.4-4,2c0-0.8-0.1-1.5-0.1-2.3
			C257.3,404.8,258.1,404.4,259.1,404.2z"/>
		<path class="st91" d="M376,454c-0.3,0.7-0.7,1.4-1,2.1c-1-0.7-2-1.4-3-2.1c0.1-0.8,0.2-1.5,1-1.9C374.8,451.4,375.2,453,376,454z"
			/>
		<path class="st113" d="M265,404c-1.2,0-1.9-0.5-2-1.8c1-0.4,2-0.9,3-1.3c1,0.1,1.9,0.3,2.3,1.4C267.8,404,266.6,404.4,265,404z"/>
		<path class="st114" d="M258.9,381.1c-0.6,0.3-1.3,0.6-1.9,0.9c-1.7,1.2-3.3,1.5-5,0c0-0.3,0-0.6,0-0.9c1.5-1.1,3.3-0.2,5-0.7
			C257.7,380.3,258.5,380.2,258.9,381.1z"/>
		<path class="st115" d="M272,355c0.8,0.3,1.5,0.6,2.3,0.9c0.2-0.2,0.4-0.2,0.6,0c0.1,0.8,0.2,1.6,1,2.1c0.3,1-0.3,1.3-1.1,1.6
			c-2.7,0-3.5-1.7-3.3-4.1C271.7,355.4,271.9,355.2,272,355z"/>
		<path class="st116" d="M214.7,377.3c1.7-0.6,3.2-0.2,5.1,0.3C217.2,378.7,217.2,378.7,214.7,377.3z"/>
		<path class="st117" d="M264.9,360c0.4-0.4,0.7-0.7,1.1-1.1c0.4-0.3,0.8-0.3,1.2-0.2c1.1,0.8,2.3,1.5,1.8,3.2
			c-0.4,0.4-0.8,0.8-1.2,1.2C266.9,362.1,265.9,361.1,264.9,360z"/>
		<path class="st118" d="M331.1,423.1c0-0.4,0-0.7,0-1.1c0.3-0.3,0.6-0.6,1.1-0.7c1.2-0.2,2.2,0.3,3,1.1c0.1,0.2,0.2,0.4,0.4,0.6
			c0.2,0.4,0.2,0.9,0.2,1.3c-0.1,0.4-0.4,0.8-0.7,1.1C333.6,424.6,332.4,423.9,331.1,423.1z"/>
		<path class="st119" d="M249,335c0-0.4,0.1-0.8,0.1-1.2c0.9,0.7,1.9,1.3,2.8,2c0.4,0.8,0.7,1.5,1.1,2.3c-0.9,0.7-1.8,0.8-2.8,0.3
			C249.2,337.4,248.4,336.5,249,335z"/>
		<path class="st120" d="M255,410.7c0.1-1.2,0.8-1.7,1.9-1.7c1.1-0.8,2.3-1.1,3.6-0.5c0.2,0.2,0.4,0.4,0.5,0.5
			C259.3,410.5,257,410.2,255,410.7z"/>
		<path class="st121" d="M318.9,343c-0.3,0-0.6,0-0.9,0c-0.1-1.3,0.1-2.8-1.8-3c0.3-0.9,0.5-2.1,1.7-2.2c1.5-0.1,1.1,1.3,1.2,2.2
			C319.1,341,319,342,318.9,343z"/>
		<path class="st122" d="M328.2,368.2c-0.4-1.8,0-3.4,1.8-4.2C331.4,366.2,329.9,367.2,328.2,368.2z"/>
		<path class="st123" d="M285,339c-0.3,2.3,0.6,4.7-0.7,6.9c-0.4-2-0.8-4-1.1-6c0.2-0.5,0.4-1,0.8-1.3c0.2,0,0.3,0,0.5,0
			C284.7,338.8,284.9,338.9,285,339z"/>
		<path class="st124" d="M334.9,425.4c0-0.5,0.1-1,0.1-1.5c2-0.8,3-0.2,3,2c0,0.4,0,0.8-0.1,1.2
			C336.6,427.1,335.6,426.6,334.9,425.4z"/>
		<path class="st125" d="M315.1,443c3.3-0.2,2,2.7,2.8,4.2C316.3,446.2,315.8,444.6,315.1,443z"/>
		<path class="st126" d="M344.2,340.4c-0.1-1-0.3-2-1.3-2.6c0.7-0.9,1.7-2,2.6-0.8C346.6,338.4,345,339.4,344.2,340.4z"/>
		<path class="st127" d="M358.8,418c-1.2-0.8-4.2,0-2.8-3.1C357.2,415.7,358.5,416.4,358.8,418z"/>
		<path class="st128" d="M266.1,421c-0.1,0.7-0.1,1.4-0.2,2.1c-0.5,0.6-1,1.2-1.9,0.8c-0.3-0.7-0.6-1.4-0.9-2
			C263.7,420.7,264.6,419.9,266.1,421z"/>
		<path class="st129" d="M282,362.1c-0.3-0.7-0.7-1.4-1-2.1c2.1-0.1,2.9,1.2,3.2,3c-0.7,0-1.4,0-2.1,0c-0.3-0.2-0.4-0.4-0.3-0.6
			C281.8,362.2,281.9,362.1,282,362.1z"/>
		<path class="st130" d="M368,371.1c0-0.8-0.2-1.6-1-2.1c0.5-0.8,1.1-2.1,2-1.6c1.7,0.9-0.4,2.2,0,3.3
			C368.7,370.9,368.4,371,368,371.1z"/>
		<path class="st131" d="M341,414c1.2,0.8,3,1,2.9,2.9c-1.6-0.7-3.3-1.4-4.9-2.2C339.7,414.5,340.4,414.2,341,414z"/>
		<path class="st132" d="M232.4,378.8c-2.2,1.3-4.4-0.2-6.5,0.1C228,377.2,230.2,378.2,232.4,378.8z"/>
		<path class="st133" d="M334.9,368.8c-0.3,0.7-0.6,1.5-0.9,2.2c-1.1,0-2.3,0.2-3-1C332.1,368.8,333.5,368.9,334.9,368.8z"/>
		<path class="st134" d="M376,454c-1-0.7-2-1.3-3-2c0-0.7,0.1-1.4,0.1-2.1c1.8,0.9,3,2.4,4.2,4C376.9,453.9,376.4,454,376,454z"/>
		<path class="st135" d="M284.3,462c0.2-0.6,0.4-1.3,0.7-1.9c1.5,1.7,1.5,3.3,0,5C284.8,464,284.5,463,284.3,462z"/>
		<path class="st136" d="M289.1,468.2c-1.3-2.5,0.7-3.7,2.1-5.1C290.9,465,290.3,466.7,289.1,468.2z"/>
		<path class="st137" d="M268,402c-0.9,0-1.6-0.2-2-1.1c0.3-0.6,0.6-1.2,0.9-1.8c0.7,0.3,1.4,0.6,2.1,1
			C269.5,401.1,268.9,401.6,268,402z"/>
		<path class="st138" d="M256.9,380.4c-1.5,1-3.3,0.4-5,0.7c-0.3-0.3-0.6-0.6-1-0.9C253,380.2,255,380.3,256.9,380.4z"/>
		<path class="st139" d="M364.9,426.1c0.1-0.4,0.1-0.9,0.2-1.3c1.4,0,3.2,0.8,2.7,1.9C367.1,428.3,365.8,426.9,364.9,426.1z"/>
		<path class="st140" d="M265,407.1c0,0.3,0,0.6,0,1c-1.1,1.2-2.6,1-3.9,1c0,0,0.1-0.4,0.1-0.4C261.8,406.7,263.1,406.3,265,407.1z"
			/>
		<path class="st141" d="M281,311c-0.6-1.1-1.2-0.1-1.9,0c-0.3-1-0.4-2.1,0.8-2.3c1.5-0.2,2,1,2.1,2.3c0,0-0.5,0-0.5,0L281,311z"/>
		<path class="st142" d="M263,367c-2,0-3-1.4-4-2.8c1.7-0.1,2.8,1,4,1.9c0.3,0.2,0.4,0.4,0.3,0.6C263.2,366.9,263.1,367,263,367z"/>
		<path class="st143" d="M282,325c0.3,0,0.6,0,1,0c0.6,0.5,0.9,1.2,1,1.9c0.1,1,0.1,2-0.2,2.9c-0.3,0.7-0.7,1.3-1.6,1.2
			c-0.1-1.2-0.2-2.4-0.3-3.7C281.5,326.5,281.4,325.7,282,325z"/>
		<path class="st144" d="M335.7,354.9c-1,0-2.1,0.2-2.7-0.9c-0.2-0.2-0.3-0.5-0.3-0.8c0-0.3,0-0.4,0.1-0.4c0.6-0.7,1.2-1.4,2.2-0.8
			c0,0.9,0.3,1.7,1.2,2.1C336.1,354.4,336,354.7,335.7,354.9z"/>
		<path class="st145" d="M231.9,448.9c0.4,0.1,0.8,0.1,1.2,0.2c-1.1,1.2-1.5,3.2-3.9,2.8C229.5,450.2,230.6,449.4,231.9,448.9z"/>
		<path class="st146" d="M296.8,330c-1.9-0.2-2.2-1.8-2.7-3.3C296,327,296.7,328.2,296.8,330z"/>
		<path class="st147" d="M284,339c-0.3,0.3-0.5,0.7-0.8,1c-0.1-2-0.3-3.9-0.4-5.9c0.3-0.1,0.5-0.2,0.8-0.2
			C285.7,335.4,285.3,337.2,284,339z"/>
		<path class="st148" d="M267,408c1.3-1,2.4-0.4,2.3,0.9c-0.1,1.1-1.3,0.4-2,0.2C267.1,408.8,267,408.4,267,408z"/>
		<path class="st149" d="M282,437c0.3,0,0.7,0,1,0c1.5,1.7,1.4,3.3,0,4.9c-0.2,0-0.5,0-0.7,0.1C282.1,440.3,282.1,438.7,282,437z"/>
		<path class="st150" d="M341,343c0.6,0,1.2,0,1.8,0c-0.5,1.4-0.8,3-2.8,3.2C340.4,345.1,340.7,344.1,341,343z"/>
		<path class="st29" d="M263,367c0-0.3,0-0.6,0.1-0.9c1.8,0,2.1,1.8,3.2,2.7c-0.2,0.2-0.3,0.3-0.5,0.5c-0.7,0.4-1.3,0.4-1.8-0.3
			C264,368.1,263.8,367.4,263,367z"/>
		<path class="st102" d="M282.2,331c0.3-0.3,0.6-0.7,0.8-1c3.1,1.3,1.1,2.7,0.1,4c0,0-0.3,0.1-0.3,0.1
			C282,333.2,282,332.1,282.2,331z"/>
		<path class="st73" d="M282,325c-0.1,0.8-0.1,1.6-0.2,2.4c-1.2-1.6-0.9-3.5-0.9-5.4C282.2,322.7,282,323.9,282,325z"/>
		<path class="st151" d="M257.9,395.2c1.7-0.2,3.2,0,4,1.8C260.5,396.7,259.1,396.2,257.9,395.2z"/>
		<path class="st152" d="M342.9,337.8c-0.4,1.6-1.5,2.5-2.9,3.2c0-0.4-0.1-0.7-0.1-1.1C340.6,338.8,341.6,338.1,342.9,337.8z"/>
		<path class="st153" d="M282,430l-0.5,0c0,0-0.5,0-0.5,0c-0.1-0.9-0.2-1.8-0.2-2.7c0.1-0.7,0.2-1.4,0.2-2.2
			C284.2,426.2,283.2,428.1,282,430z"/>
		<path class="st154" d="M286,350c-0.2,0.7-0.5,1.3-0.7,2c-0.2-1.6-0.3-3.3-0.5-4.9C286.2,347.6,285.9,348.9,286,350z"/>
		<path class="st155" d="M322,447c-0.3-0.3-0.7-0.7-1-1c-1.1-1-1.6-2.3-1.4-3.8c1.8-2.8,0.9-5.9,1-8.8c0.4-5.2-1.1-10.5-0.1-15.7
			c0.2-1.2-0.2-2.8,1.8-3c1,0.3,1.4,1,1.8,1.9c0,9.6,0.3,19.2-0.2,28.8C323.5,446.2,323.3,447.2,322,447z"/>
		<path class="st156" d="M326,422c0,0.3,0,0.7,0,1c-2,2.8-0.6,6-1,9c0.9,2,1.4,4,0,6c-0.4,3,1,6.2-1,9c-0.4-0.5-0.5-1.1-0.5-1.7
			c0-9.2,0-18.4,0-27.6c0-1.3,0.2-2.3,1.8-1.8c0.5,0.2,0.9,0.5,1.3,0.9c0.5,0.6,0.8,1.2,0.9,2C327.6,420.1,325.6,420.5,326,422z"/>
		<path class="st157" d="M325,438c0-2,0-4,0-6C326.9,434,329.1,436,325,438z"/>
		<path class="st158" d="M320,442c0.4,1.3,0.7,2.6,1.1,4c-0.7,0.3-1.4,0.7-2,1c0-1.7,0-3.3,0-5C319.3,441.7,319.7,441.7,320,442z"/>
		<path class="st159" d="M324,446c0,0.3,0,0.7,0,1c-0.1,0.9,0.2,2.3-0.8,2.4c-1.7,0.1-1-1.5-1.2-2.4c0.3-0.3,0.7-0.7,1-1
			C323.4,445.5,323.7,445.6,324,446z"/>
		<path class="st160" d="M274.1,397c-0.7-0.7-1.3-1.4-2-2c-0.4-0.3-0.6-0.8-0.6-1.3c0.1-0.5,0.4-0.9,0.8-1.2
			c0.7-0.3,1.4-0.4,2.2-0.3c3.2,0.9,6.9,1,8.1,5.1c-0.1,0.5-0.3,0.9-0.6,1.3c-1.3,1-2.5,2.1-3.8,3c-1.3,0.7-2.5,1.4-4,0.8
			c-0.4-0.3-0.6-0.7-0.7-1.2c0-0.5,0.1-0.9,0.2-1.3C274.1,398.9,276.2,398.3,274.1,397z"/>
		<path class="st161" d="M272.1,392.8c0,0.4-0.1,0.8-0.1,1.2c-1,0.5-2-0.2-3,0c-0.3,0-0.7,0-1,0c-1.6-1.2-3.1-2.4-5-3
			c-2-0.3-4-0.7-6-1c-0.4-1.2-2.2-1.3-2.3-2.9c0.2-0.4,0.6-0.6,1-0.8c1-0.4,2.1-0.6,3.1-0.7c0.4,0,0.8,0,1.2,0.2
			c0.9,0.6,1.6,1.3,2.5,1.8c1.5,0.9,3.1,1.3,4.7,1.9C269,390.5,271.5,390.3,272.1,392.8z"/>
		<path class="st162" d="M274,400c0,0.3,0,0.6,0,1c-1.4,1.3-3.2,2.3-4.5,3.9c-0.8,0.5-1.6,1-2.5,0.2c-0.7,0.3-1.3,0.7-2,1
			c-0.4,0.4-0.7,0.4-1,0c0.3-0.7,0.7-1.3,1-2c1-0.7,2-1.3,3-2c0.4-0.7,0.7-1.3,1.1-2c1-0.3,2-0.7,3-1
			C272.6,399.6,273.6,399.2,274,400z"/>
		<path class="st163" d="M244,383c1,0.3,2,0.6,3,1c2,0.5,4.5,0,5.5,2.7c0,0.5-0.1,0.9-0.5,1.3c-3-1.3-6-2.7-9-4
			C243.2,383.6,243.5,383.2,244,383z"/>
		<path class="st164" d="M274,400c-0.8,0-1.6-0.2-2-1c0.7-0.7,1.4-1.4,2.1-2c1.2,0.1,2.6-0.2,3.3,1.4C276.3,399,275.2,399.5,274,400
			z"/>
		<path class="st165" d="M244,383c-0.3,0.3-0.7,0.6-1,1c-2.1-0.7-4.7-0.5-6-3c0.7,0,1.3,0,2,0C240.7,381.7,242.3,382.3,244,383z"/>
		<path class="st166" d="M252,388c0-0.3,0-0.7,0-1c1-0.8,2-0.9,2.9,0c0.7,1,2.2,1.4,2.1,2.9C255.4,389.3,253.7,388.7,252,388z"/>
		<path class="st167" d="M263,391c2.4-0.3,3.9,0.9,5,3C265.8,393.8,264.5,392.3,263,391z"/>
		<path class="st167" d="M269,394c1-1.6,2-0.3,3,0c0,0.3,0.1,0.6,0.1,0.9C270.9,395,269.8,395.2,269,394z"/>
		<path class="st168" d="M352,365c2.7-1,5.9-0.6,8-3c1.8,0.1,3.5-0.1,5-1c1.7,0.6,3,1.4,1.7,3.4c-1,1.1-1.6,2.9-3.7,2.6
			c-0.3,0-0.7,0-1,0c-1.4,0.5-2.1,2.2-3.9,2.1c-0.3-0.2-0.5-0.4-0.7-0.6c0.2,0.2,0.4,0.4,0.7,0.6c0.2,0.2,0.3,0.5,0.2,0.7
			c-0.1,0.2-0.2,0.3-0.3,0.3c-0.3,0.7-0.7,1.3-1,2c-0.9,1.4-2,2.7-4,2.1c-0.3,0-0.6,0-0.9,0c-0.4-0.3-0.6-0.7-0.8-1.1
			c-0.1-0.4-0.1-0.9-0.1-1.3c-0.9-2.3-2.3-1-3.6-0.5c-3.2,1.3-6.4,1.6-9.6,0.1c-0.3-0.4-0.3-0.8,0-1.3c0.3,0,0.7,0,1,0
			c1.2-0.9,3.3,0,4-2c0.7,0,1.3,0,2,0c2.1-0.4,4.1-1,6-2C351.3,365.7,351.7,365.3,352,365z"/>
		<path class="st169" d="M347,378c-2.3,2.1-4.1,4.7-7,6c-0.9,0.9-1.3,2.9-3.3,1.9c-0.5-0.6-0.6-1.3-0.6-2.1c1.3-4.3,4.7-6,8.5-7.3
			C345.6,376.7,346.4,377.1,347,378z"/>
		<path class="st170" d="M341,390c0.3,0,0.7,0,1,0.1c1.6,3.4,1.2,4-3.3,4.1c-1.4-0.3-2.5-1.4-3.8-1.9c-0.9-0.7-2.7-0.8-1.6-2.6
			c1.5-1,3.1-0.9,4.7-0.8C339.1,388.8,340.1,389.2,341,390z"/>
		<path class="st171" d="M347,378c-0.8,0-1.6-0.2-2-1c0.3-3.5,2.9-4.1,5.6-4.7c0.5,0.1,0.9,0.3,1.3,0.6c0,0.4,0.1,0.8,0.1,1.2
			C350.4,375.4,348.7,376.7,347,378z"/>
		<path class="st172" d="M341,390c-1,0-2,0-3,0c-0.3-0.3-0.5-0.6-0.8-0.9c-0.4-0.5-0.7-0.9-1.1-1.4c-0.2-0.3-0.4-0.7-0.4-1.1
			c0.2-0.6,0.5-1.1,1.3-0.7c1-0.6,2-1.3,3-1.9C339.7,386.1,340.7,388,341,390z"/>
		<path class="st173" d="M339,393c3.3,1.3,3.6-0.4,3-3c0.7,0.3,1.3,0.6,2,1c0.6,0.5,0.8,1.1,0.7,1.8c-0.1,0.4-0.4,0.8-0.7,1.2
			c-0.8,0-1.6,0.2-2,1c-0.9,0.8-1.9,0.9-3,0.3C338.4,394.5,338.4,393.7,339,393z"/>
		<path class="st20" d="M344,393c0-0.7,0-1.3,0-2c0.4-0.8,1.2-1,2-1c1.1,1.4,2.6,0.8,4,1c-0.3,0.3-0.7,0.7-1,1
			C347.5,392.9,346,394.2,344,393z"/>
		<path class="st174" d="M353,374.1c1.3-0.7,2.7-1.4,4-2.1c0.3,0,0.7,0,1,0C356.4,373,356.2,377.2,353,374.1z"/>
		<path class="st175" d="M293,448c-0.3,0.3-0.7,0.7-1,1c-1.1,0.6-1.4-0.4-2-1c0-1,0-2,0-3c-1.5-5.7-3.2-11.5-1.7-17.5
			c0.4-0.8,1.1-1.1,2-1.1c2.8,1.3,1.5,4,2,6.1c0.3,1.3-1.3,3.4,1.5,3.8c0.4-0.1,0.9-0.1,1.3,0c0.4,0.1,0.8,0.4,1,0.8
			c0,1.3-0.1,2.6-0.1,3.9C294.8,443.2,294.9,446.1,293,448z"/>
		<path class="st176" d="M314.9,433.1c-0.6-0.7-1.3-1.4-1.9-2.1c-2.3-0.3-2.1-2.6-3-4l0,0c-0.8-1.6-2.3-2.8-2.9-4.5
			c-1-3.4-2.6-1.8-4.1-0.4c0,0.3,0,0.6-0.1,0.9c-0.6,0.6-1.3,0.6-2.1,0.2c-0.3-0.4-0.6-0.8-0.7-1.4c0.2-3.4,1.3-6.4,3.5-8.9
			c1.9-0.5,2.7,0.8,3.5,2c3.2,5.5,6.8,10.8,9.4,16.6c0,0.5-0.1,1-0.3,1.4C315.8,433.4,315.4,433.4,314.9,433.1z"/>
		<path class="st177" d="M300.9,421.8c0.1,0.4,0.1,0.9,0.2,1.3c0.7,5-2.2,8.7-4.1,12.9c-0.3,0.4-0.6,0.7-1,1.1
			c-0.4-0.1-0.8-0.1-1.2-0.2c-0.5-0.6-0.8-1.3-0.9-2.1C295.1,429.8,297,425.3,300.9,421.8z"/>
		<path class="st178" d="M297,436c0.7-4.5,3.9-8.2,4.1-12.9c0.6-0.1,1.2-0.1,1.9-0.2C301.5,427.5,300.7,432.4,297,436z"/>
		<path class="st179" d="M303,422c0.9-1.1,0.4-3.4,2.1-3.5c1.8-0.1,2.2,1.9,2.6,3.2c0.5,1.9,2.9,3,2.3,5.3c-1.6-0.7-2.7-1.9-3.2-3.5
			C306.1,421.4,304.6,421.6,303,422z"/>
		<path class="st180" d="M293,448c1.2-2.3,0.2-5.5,3-7c1,1.3,0.1,2.7,0,4C294.7,445.7,295.2,448.2,293,448z"/>
		<path class="st179" d="M310,427c1,1.3,2,2.7,3,4c-1,1.6-2,0.3-3,0C310,429.7,310,428.3,310,427z"/>
		<path class="st181" d="M288,351c0-1.7,0-3.3,0-5c0.2-1.9-0.6-3.6-0.5-5.4c-0.2-0.5-0.4-0.9-0.7-1.3c-1-1.7-1.5-3.8,0.2-4.9
			c1.8-1.2,2.8,0.9,4,1.9c0.7,0.7,1.5,1.3,2.2,2.1c1.6,1.6,1.5,4,2.9,5.7c0.6,0,1.3,0,1.9,0c0.6,0.5,0.6,1.1,0.5,1.8
			c-0.9,2.2,1.9,4.1,0.5,6.7c-0.5,0.9,2.3-0.3,2.9,1.1c1.2,2.5,3.3,4.4,3.9,7.3c0.4,1.8,0.8,4,3.4,4.1c0.3,0.4,0.4,0.8,0.5,1.3
			c-2,3.8-2.1,3.9-6.2,0.6c-0.9-1.9-2.1-3.4-3.9-4.4c-1.1-0.9-2-1.9-2.6-3.2c-1.5-3.4-3.8-6.3-6.3-8.9c-1-0.6-1.1,0.6-1.6,0.9
			C288.7,351.4,288.3,351.3,288,351z"/>
		<path class="st182" d="M293,339c-1.8-1.4-3.5-2.7-5.5-4.2c-1.5,2.2,0.4,4.2,0.5,6.2c-0.3,0.4-0.7,0.5-1,0c-0.4-1-1-1.6-2-2
			c0,0,0,0,0,0c0.7-3.1-2.3-6.7,1.2-9.5c1.7,0.1,2.6,1.3,3.6,2.3c0.3,0.3,0.6,0.7,0.8,1.1c0.4,1,0.5,2.2,1.3,3.1
			c0.7,0.3,1.3,0.7,2,1c0.4,0.7,0.1,1.2-0.4,1.7C293.4,338.8,293.2,338.9,293,339z"/>
		<path class="st101" d="M288,326c0.3,0,0.7,0,1,0c-0.5,3,3.3,4.1,3,7c-0.7,0.6-1.3,0.6-2,0l0,0c-0.9-1.6-2.3-2.8-3.4-4.2
			c-0.2-0.7-0.2-1.3,0.4-1.9C287.3,326.7,287.7,326.3,288,326z"/>
		<path class="st183" d="M295,337c0.5-0.8,1.1-2.2,2-1.1c0.7,0.8,1.6,2.8-1,3.1C294,339.2,295.1,337.8,295,337z"/>
		<path class="st184" d="M296,344c-2.1-1-2.7-2.9-3-5c0,0,0,0,0,0c1.8-0.6,2.1,1.2,3,2.1C296,342,296,343,296,344z"/>
		<path class="st158" d="M296,341c-1-0.7-2-1.4-3-2.1c0.3-0.7,0.7-1.3,1-2c0.3,0,0.7,0,1,0c0.3,0.7,0.7,1.3,1,2
			C296,339.7,296,340.4,296,341z"/>
		<path class="st185" d="M298,346c0-0.7,0-1.3,0-2c0.3-0.3,0.7-0.7,1-1c0.6,1.4,2.2,2.3,2,4C299.7,347.6,298.7,347,298,346z"/>
		<path class="st186" d="M290,333c0.7,0,1.3,0,2,0c0,1,0,2,0,3C290.7,335.4,290,334.4,290,333z"/>
		<path class="st187" d="M282,430c-0.2-1.6,0.7-3.5-0.9-4.9c1-1.7,2.9-2.9,2.9-5.1c0.3,0,0.7,0,1,0c1.2,1.2,1,3.2,2.5,4.3
			c0.3,0.7,0.3,1.3,0.2,2c-0.6,2,0,3.9,0.3,5.8c-0.4,3,1.5,6.1-0.9,8.9c-1.1,1.5-2.4,1.9-4.1,1c0-1.6,0-3.3,0-4.9
			C283.3,434.6,282.6,432.3,282,430z"/>
		<path class="st188" d="M287,441c0-3.3,0-6.7,0-10c0.6-0.3,1.1-0.2,1.4,0.4c-0.2,4.5,2.3,9,0.6,13.6C285.6,445,289,441.7,287,441z"
			/>
		<path class="st189" d="M289,445c0.6-4.7-1.3-9.3-1-14c-1.1-1.4-1.2-2.9-0.4-4.5c0.8-0.7,1.3-0.8,1.4,0.5c0.3,6,0.7,12,1,18
			C289.7,445,289.3,445,289,445z"/>
		<path class="st190" d="M290,448c0.7,0.3,1.3,0.7,2,1c-0.5,0.8-0.5,1.8-1.6,2.1C290.3,450.1,290.1,449,290,448z"/>
		<path class="st191" d="M335,352c-0.7,0.4-1.3,0.7-2,1.1c-0.7-0.2-1.2-0.6-1.4-1.4c0.4-1.1,0.7-2.2,2.3-1.7
			C334.8,350.4,335,351.2,335,352z"/>
		<path class="st192" d="M334,350c-0.7,0.7-1.4,1.3-2.1,2c-0.3,0.3-0.6,0.3-0.9,0c0-0.3,0-0.6,0-0.9C331.8,350,332.3,348.2,334,350z
			"/>
		<path class="st193" d="M335,412c-2.2-1-4.2-2.8-7-1.8c-0.3-0.3-0.5-0.7-0.6-1.2c0-0.4,0.2-0.9,0.4-1.2c1.2-0.6,1.5-1.8,2.1-2.9
			c1.7-0.5,2.9,0.8,4.2,1.5c1.4,1.1,2.8,2.2,3.2,4c0,0.4-0.2,0.8-0.6,1.1c-0.6,0.1-1.3,0.1-1.8,0.4L335,412z"/>
		<path class="st194" d="M345,431.1c-2-1.7-4-3.3-6-5c-0.8-1.1-0.5-1.9,0.6-2.5c0.6-0.1,1,0,1.4,0.4c1.6,1.7,3.2,3.4,4.9,5.1
			c0.6,1-0.2,1.3-0.9,1.7L345,431.1z"/>
		<path class="st195" d="M330,413.8c2.3,2.1,4.6,4.2,6.9,6.3c0.4,0.3,0.6,0.7,0.6,1.2c-0.4,1.3-1,2.2-2.5,1.8l0,0
			c-1.2-3.6-5.8-4.9-6.1-9.1C329.1,413.7,329.6,413.6,330,413.8z"/>
		<path class="st196" d="M344.9,430.8c0.3-0.6,0.6-1.1,0.9-1.7c0.7,0.3,1.4,0.6,2.1,0.9c1.9,2.1,6,2.7,5,6.9c-0.6-0.3-1.1-0.7-1.7-1
			C349.1,434.2,347,432.5,344.9,430.8z"/>
		<path class="st197" d="M352.9,436.9c-0.2-3.4-3.8-4.3-5-6.9c0.7,0,1.4,0,2.1,0c1.1,2.3,3.3,3.3,5,5c0.5,0.7,0.6,1.5-0.1,2.2
			C354.3,437.1,353.6,437,352.9,436.9z"/>
		<path class="st198" d="M330,413.8c-0.4,0-0.9,0-1.3,0c-2.9,0.1-4.1-1.9-5-4.2c0.1-0.5,0.3-0.8,0.8-1c1.1-0.1,2.3,0,3.4,0.3
			c0,0.4,0.1,0.9,0.1,1.3C328,411.8,329.5,412.5,330,413.8z"/>
		<path class="st199" d="M337.1,420.9c0-0.3-0.1-0.6-0.1-0.8c2.8-0.2,3.6,1.8,4,4c-0.3-0.1-0.5-0.1-0.8-0.2
			C338.5,423.5,337.5,422.5,337.1,420.9z"/>
		<path class="st200" d="M366,364c1.1-1.5-0.3-2.1-1-3c2.8,0.9,4.9-3.5,8-1c-0.8,1.9-3.8,1.5-4,4c-0.3,0-0.7,0-1,0
			C367.3,364.6,366.7,364.6,366,364z"/>
		<path class="st201" d="M298,346c1,0.3,2,0.7,3,1c0,0.3,0,0.6,0,1c0.4,1.4,1.4,2.1,2.7,2.7c0.8,0.5,1.2,1.3,1.4,2.2
			c0.4,1.4,0.5,3.1,2.5,3.3c0.4-0.1,0.8-0.1,1.2-0.3c0.8-0.3,1.5-0.6,2.3-1c1.3-0.5,2.7-2.1,3.9,0.1c1.2,1-0.4,2,0,3
			c0.9,1.2,0,3.2,1.9,3.9c0.7-0.3,1.4-0.6,2.1-1c0.6-0.5,1.2-0.6,2-0.5c1.4,0.5,2.6,1.2,2.6,3c-0.1,0.5-0.3,0.9-0.7,1.2
			c-2.5,1.8-6.1,1.8-7.7,5c-3.3,1.5-3.2-1.1-3.3-2.9c-0.1-2.4-0.9-2.9-2.9-1.7c-1.6,2-2.9,1.4-3.3-0.7c-0.6-3.6-3.4-6.2-4.1-9.7
			c-0.2-0.9-0.9-1.4-1.7-0.3c-0.6,0.8-2.2,1.7-2.1,0.5C297.8,351.9,296.8,348.9,298,346z"/>
		<path class="st202" d="M311,356c-0.7,0.3-1.3,0.7-2,1c-1-1.2-2.8-1.9-2-4c3.3-0.6,1.5-2.5,1-4c1.3-4.1,2.7,1.3,4,0c0,0,0,0,0,0
			c1.2,1.3,0.3,2.8,0.5,4.2C312.3,354.3,311.8,355.2,311,356z"/>
		<path class="st203" d="M307,353c0.6,1.4,2.1,2.3,2,4c-0.3,0-0.7,0-1,0c-2.6-0.1-2.7-2.6-4-4.1c0-0.8-0.2-1.5-1-1.9
			c-1.1-0.7-2.1-1.5-1-3C304.7,348.7,305.8,350.9,307,353z"/>
		<path class="st204" d="M302,348c0.3,1,0.7,2,1,3c-2.3,0.1-3.4-0.6-2-3C301.3,348,301.7,348,302,348z"/>
		<path class="st205" d="M331,351.9c0.3,0,0.6,0,0.9,0c0.4,0.4,0.7,0.7,1.1,1.1c0,0.3,0,0.6,0,1c-0.8,0.4-1,1.2-1,2
			c-1.3,2-2.6,4-4,6.1c-1.7-0.6-2.3-2-2.5-3.6c0.1-0.4,0.4-0.8,0.7-1c0.9-0.5,1.7-1.1,1.4-2.4c-0.1-1,0.7-1.5,1.3-2
			C329.7,352.6,330.4,352.3,331,351.9z"/>
		<path class="st144" d="M329,353c-0.3,0.7-0.7,1.3-1,2c-0.4,0.8-1.1,1.3-1.8,1.8c-1.3,0.7-2.4,2.1-4.2,1.2
			C323.4,354,324.5,353.3,329,353z"/>
		<path class="st206" d="M322,358c1.3-0.7,2.7-1.3,4-2c0.5,0.7,0.6,1.3,0,2l0,0c-1.1,1.9-2.8,3-5,3c-0.7,0-1.3,0-2,0
			C320,360,321,359,322,358z"/>
		<path class="st207" d="M311,356c0.3-1,0.7-2,1-2.9c0.1-1.4,0.5-2.6,2-3.1c0.3,0,0.6,0,1,0c1.2,1.3,0.4,2.7,0,4c0,0.3,0,0.7,0,1
			C313.2,353.7,312.5,356.4,311,356z"/>
		<path class="st208" d="M315,354c-1-1.3-0.1-2.7,0-4c0.6,0,1.3,0,1.9,0c0,1,0.1,2,0.1,3C316.4,353.3,315.7,353.7,315,354z"/>
		<path class="st209" d="M316.9,361.9c-2.7-0.3-1.7-2.4-1.9-3.9C316.4,359,316.1,360.7,316.9,361.9z"/>
		<path class="st210" d="M320,442c-0.3,0-0.6,0-1,0c-0.7-1.3-1.3-2.7-2-4c0.3-0.4,0.6-0.9,1-1c1-0.1,1.4-0.4,1.4-1.2
			c0.6-0.9,0.9-2.2,2.5-1.8c0,2.2-0.1,4.5,0,6.7C322.1,442.4,321.3,442.5,320,442z"/>
		<path class="st211" d="M320,436c0.6,3.1-2.2,1-3,2c-0.7-1.6-1.4-3.3-2.1-4.9c0.3,0,0.7,0,1,0c0.9,0,1.5-0.8,2.3-1.2
			c0.5-0.1,0.9,0,1.2,0.3C320.1,433.3,320.4,434.6,320,436z"/>
		<path class="st212" d="M336.8,411c-0.9-1.3-1.9-2.6-2.8-3.9c-1.1-1.2-2.3-2.3-3.4-3.5c-3.2-3.7-2.8-5.1,2.1-7.3
			c0.4,0,0.9,0.2,1.3,0.4c0.9,1.1,1.2,2.7,2.6,3.4c0.7,0.5,1.3,1,1.9,1.6c0.7,1,1.3,2,2.2,2.9c1.4,1.2,2.4,2.8,3.4,4.4
			c0.3,0.6,0.7,1.3,1,1.9c0.5,2.9-2.7,0.3-3,2c-0.3,0-0.7,0-1,0c-1.1-1.3-3.1,0.8-4-1.1c-0.3-0.2-0.5-0.4-0.4-0.6
			C336.6,411.1,336.7,411,336.8,411z"/>
		<path class="st213" d="M339.9,405c-1.3-0.6-2-1.6-2-3c0.2-3.6,1.6-4.1,5-2c0,0.3,0,0.7,0.1,1c0,1.3-0.1,2.7-0.1,4
			C342,406.3,341,404.9,339.9,405z"/>
		<path class="st214" d="M342,413c-0.2-0.7-0.8-1.7-0.5-2.1c0.4-0.7,1,0.2,1.5,0.5c0.8,0.5,1.5,0.4,2-0.4c0.7,1,1.3,2,2,3
			C345.3,413.7,343.7,413.3,342,413z"/>
		<path class="st215" d="M339.9,405c1-1.2,2,0.6,3.1,0c2.5,0.8,1,2.6,1,4C342.3,408.1,341,406.7,339.9,405z"/>
		<path class="st216" d="M343,400c-2.2-0.7-4.2-0.8-5,2c-0.7-0.3-1.3-0.7-2-1c-0.5-0.7-0.6-1.4-0.3-2.2c1.8-1.6,3.5-3.6,6.3-1.8
			C342.3,398,342.7,399,343,400z"/>
		<path class="st217" d="M342,397c-2.4-0.6-3.8,2-6,2c-0.6-0.6-0.6-1.2-0.5-1.9c0.7-1.4,1.9-2.1,3.5-2c1,0,2,0,3-0.1
			C342,395.6,342,396.3,342,397z"/>
		<path class="st218" d="M344,393c1.6-0.3,3.3-0.7,4.9-1c-1,2.3-3.1,2-5,2C344,393.7,344,393.3,344,393z"/>
		<path class="st219" d="M338,371c3.5-0.3,7.1,0.8,10.3-1.7c1-0.8,3.4-0.6,4.7,0.1c1,0.5-0.9,1.8-1.1,2.8c-0.5,0.2-1,0.2-1.5,0.2
			c-5.8,1.7-11.4,3.7-17.2,5.5c-3.5,0.4-6.7,1.7-10,2.8c-1.9,0.4-3.9,1.4-5.6-0.5c-1.1-3.2,1.6-5.4,2.2-8.1c0.4-0.9,0.8-1.7,1.5-2.4
			c0.7-0.6,1.5-1.2,2.5-0.9c0.6,2.1-2.9,4.3-0.9,5.7c2.3,1.5,5.3,0.6,7.7-1.3c0.8-0.7,2.1-0.8,3.2-1.2
			C335.5,372.3,336.6,371.2,338,371z"/>
		<path class="st220" d="M323.9,368.8c-0.6,0.5-1.2,1-1.8,1.5c-1.1-0.5-1.9-1.3-2.4-2.3c0-2.2,1.9-2.9,3.3-4l0,0
			c1.4-1.2,2.2-0.4,2.9,0.9c-0.3,0.7-0.5,1.3-0.8,2C324.7,367.6,324.3,368.2,323.9,368.8z"/>
		<path class="st221" d="M338,371c-1,1.6-2.1,3-4,1c0-0.3,0-0.6,0-1c1.3-0.3,2.7-0.7,4-1C338,370.3,338,370.7,338,371z"/>
		<path class="st39" d="M287,327c0,0.7,0,1.3,0,2c0.3,0.2,0.4,0.5,0.3,0.7c-0.1,0.2-0.2,0.3-0.3,0.3c-1.1,0.1-2.1,0.6-1.5,1.8
			c1.2,2.5,0,4.8-0.5,7.1c-0.3,0-0.6,0-1,0c-0.3-1.7,0.6-3.5-1-5c-0.5-1.3,1.7-2.7-0.1-4c0-1,0-2,0-3c0.7-1.1,1.5-2.1,3-1
			C286.3,326.3,286.7,326.7,287,327z"/>
		<path class="st101" d="M286,326c-1,0.3-2,0.7-3,1c0-0.7,0-1.3,0-2c0-0.8,0.2-1.6,1-2C284.7,324,285.3,325,286,326z"/>
		<path class="st222" d="M264,368.9c0.6,0.1,1.2,0.2,1.8,0.3c0.4,1.3,0.8,2.5,1.2,3.8c-1,0.9-2,0.9-3,0c0-1,0-2-0.1-3
			C264,369.7,264,369.3,264,368.9z"/>
		<path class="st223" d="M266.1,421c-1,0.3-2,0.6-3.1,0.9c-0.3-0.3-0.7-0.7-1-1c0-1,0.1-2,0.1-3c1.2-1.1,3.8-0.4,4-3
			c3.9-1.9,5.1-6.2,7.9-8.9c1.4-2.4,1.9-2.4,3.6,0.1c-0.2,1.9-1.2,3.3-2.2,4.9c-1.2,0.5-2.8-0.2-3.4,2.1c-0.9,3-3.9,4.7-5.8,7.2
			C266.2,420.6,266.2,420.8,266.1,421z"/>
		<path class="st224" d="M277,407c-0.4-2.2-1.4-2.6-3-0.9c-0.3,0-0.7-0.1-1-0.1c-0.5-0.8-0.5-1.5,0-2.3c1.2-0.9,2.6-0.6,4-0.9
			c1.7,0,3.4,0,4.4,1.7c0.3,2.4-0.9,3.5-3,4.1C277.4,408.4,276.8,408.1,277,407z"/>
		<path class="st225" d="M264,406c0.3,0,0.7,0,1,0c0,0.3,0,0.7,0,1c-1.5,0-2.7,0.7-3.8,1.6c-1.4,0.1-2.8,0.2-4.2,0.3
			c0.1-0.3,0.1-0.6,0.1-1c1.3-0.7,2.7-1.3,4-2C262,406,263,406,264,406z"/>
		<path class="st226" d="M273.1,404.2c0,0.6-0.1,1.2-0.1,1.8c-0.6,0-1.3-0.1-1.9-0.1c-0.9-0.5-1.7-1-1.1-2.2c0.9-1,1.8-1.7,3.2-0.8
			C273.4,403.3,273.4,403.8,273.1,404.2z"/>
		<path class="st227" d="M270,404c0.3,0.6,0.7,1.2,1,1.8c-1.4,0-3,0.7-4.1-0.9c0.8,0,1.6-0.2,2-1C269.4,403.6,269.7,403.6,270,404z"
			/>
		<path class="st228" d="M314,350c-0.7,1-1.3,2-2,3.1c-1.8-1.3,0.3-2.7,0-4C312.8,349,313.6,349.2,314,350z"/>
		<path class="st221" d="M351,366c-1.7,1.7-3.6,2.5-6,2C346.7,366.5,348.8,366.1,351,366z"/>
		<path class="st221" d="M343,368c-0.4,2.7-2.4,1.8-4,2C340.3,369.3,341.7,368.7,343,368z"/>
		<path class="st229" d="M282,362.1c0,0.3,0,0.6,0.1,0.9c1.3,1.3,2.6,2.7,4,4c1.3,1.1,3,1.5,4.4,2.3c0.4,0.2,0.7,0.5,0.9,0.9
			c0.2,3.1-2.2,2-3.8,2.4c-4.5-0.9-6.7-4.9-10-7.4c-0.2-0.4-0.4-0.9-0.5-1.4c-0.1-1.1,0.1-2,0.9-2.7
			C279.2,361.7,280.5,362.1,282,362.1z"/>
		<path class="st230" d="M291,370c-0.3,0-0.7,0-1,0c-0.8-0.9-2.6-1.1-2-3c1.5-1,0.9-2.6,1-4c0.4-0.3,0.8-0.5,1.4-0.4
			C292.5,364.9,292.7,367.4,291,370z"/>
		<path class="st231" d="M290.1,363c-0.3,0-0.7,0-1,0c0-2.3,0-4.7,0-7c0.3,0,0.5-0.1,0.8-0.1c1.3,0.8,1.3,2.1,1.4,3.4
			C291.2,360.7,291.1,362,290.1,363z"/>
		<path class="st232" d="M288,367c0.7,1,1.4,2,2,3c-2-0.1-3.1-1.4-4-3C286.7,367,287.3,367,288,367z"/>
		<path class="st231" d="M288,351c0.3,0,0.6,0,0.9,0.1c1.5,1.6,1.4,3.3,0.1,5c0,0,0,0,0,0c-1.4-1.1-0.8-2.6-1-4
			C288,351.7,288,351.3,288,351z"/>
		<path class="st233" d="M287,424c-4.1,0.4-1-2.8-2-4c0.7-1.8,0.5-3.5-1-4.9c0.2-0.2,0.4-0.4,0.6-0.5c0.8-0.3,1.6-0.2,2.3,0.2
			c1.6,1.5,1.3,3.5,1.4,5.4C288.2,421.6,288.2,423,287,424z"/>
		<path class="st234" d="M277.8,415.8c0-2.1,1.6-2.9,3-3.8c2.8-0.8,4.1,0,3.3,3c0,0-0.1,0.1-0.1,0.1
			C281.9,415.2,279.9,416.6,277.8,415.8z"/>
		<path class="st235" d="M278.3,365.1c4.1,1.2,5.7,5.8,9.6,7.2c2,0,3,1.7,4.3,2.8c0.4,0.4,0.9,0.9,1.3,1.3c0.4,0.4,0.8,0.8,1.4,1
			c1.6-0.9,0.2-2,0.3-3c-0.4-1.9-0.4-3.8-1-5.7c-0.1-0.5-0.3-1-0.2-1.5c0.1-2.2-1-5.3,1.6-6.1c2.2-0.7,3.2,2.3,4.6,3.8
			c1.2,1.9,2.7,3.7,3.9,5.6c1.2,2,2.9,2.5,5,1.9c1.6,0.3,2.3,3.3,4.6,1.4c2-0.3,3.5-3.5,5.9-0.9c-0.2,2.2-1.7,3.9-2.5,5.9
			c-0.4,0.9-1.6,2.1,0.5,2.7c3.1,0,5.8-1,8.6-2.1c2.3-0.6,4.6-1.4,6.9-1.8c1.3-0.3,2.8-1.1,3.7,0.3c1,1.6-0.7,2.3-1.5,3.2
			c-2.5,2.5-5.5,4.2-8.3,6.2c-0.9,0.6-1.9,1.2-2.8,1.8c-0.3,0.3-0.7,0.5-1,0.8c-1.5,1.8,1.1,2.1,1.2,3.3c-3.9,3-3.1,5.9,0,8.9
			c0.8,0.8,1.4,1.8,1.5,3.1c0,0.5,0,0.9-0.1,1.4c-0.2,0.9-0.8,1.6-1.4,2.3c0.9,2.2,2.8,3.4,4.4,5c1.5,3.5,6.4,4.7,6.2,9.3
			c-0.9-0.4-1.8-0.8-2.6-1.2c-2.3-1.3-4-3.4-6.2-4.8l-0.1,0c-0.7-1.2-1.7-1.9-2.7-2.7c-1.8-1.6-3.4-3.5-5.5-4.7
			c-1.4-0.6-2.1-2.8-4.2-1.8c-0.7,3.1,0,6.2-0.4,9.3c-0.2,1.1-0.2,2.4-1.5,2.9c-1.4,0.5-1.9-0.8-2.6-1.7c-1.6-1.9-2.4-4.3-3.8-6.3
			c-0.5-0.9-0.5-1.9-1.5-3c-3.2,3.8-4.1,8.8-6.9,12.7c-4.4,0.8-2.4-2.8-3.2-4.6c-0.1-2.5,0.3-5-0.4-7.4c-0.8-2,0.4-4.7-2.3-6
			c-3.8,1-6.1,4.8-10.1,5.2c-1.3,0.8-2.3,2.3-4.1,2.2c-0.8-1.5-0.1-2.4,1.3-3c1-1,2-2,2.9-3c0.5-0.8,0.1-1.8,0.8-2.5
			c0.9-0.9,2-1.5,2.9-2.4c-0.9-0.7-1.9,0.1-2.7-0.4c-0.7-0.3-1.2-0.7-1.2-1.5c0.5-0.2,1-0.4,1.5-0.6c0.4-0.8,0.7-1.6,1.5-2.1
			c0.4-0.2,0.8-0.4,1.2-0.6c0.2-0.3,1.7-0.1,0.3-1c-1.2-0.3-2.3-0.7-3.4-1.2c-1.2-0.5-2.4-1-3.4-1.8c-1.1-1-2.4-1.6-3.8-1.9
			c-0.7-0.1-1.3-0.4-1.8-0.8c-0.8-0.7-0.9-1.6-1.2-2.5c0-0.5,0.2-0.9,0.6-1.2c0.7-0.3,1.4-0.3,2.1-0.2c2.1,0.5,4.3,0.3,6.4,0.6
			c1.9,0.3,3.7,1.1,5.8,0.7c-0.9-1.7-2.5-3.1-2-5.3c0.2-0.4,0.5-0.7,1-0.9c0.5-0.2,1.5,0.1,1.4-0.3c-0.1-0.6-0.9-1.1-1.3-1.7
			c-0.7-1.1-1.4-2.2-2.4-3c-2.5-2.5-5.6-4.5-6.5-8.3C277,365.5,277.5,365,278.3,365.1z"/>
		<path class="st236" d="M280.9,408.9c3.3-2.3,6.1-5.3,10.1-6.6c1.1,1.9-0.1,3.1-1.3,4.2c-1.6,0.8-3,1.8-4.4,2.9
			c-1,0.5-2,1.1-3.2,0.6C281.8,409.7,281.3,409.3,280.9,408.9z"/>
		<path class="st128" d="M266.1,420.3c0.9-3.6,4.5-5.5,5.8-8.9c0.6-1.6,2-0.1,3-0.4c0.4,1-0.1,1.4-0.9,1.7c-0.7,1.1-1.4,2.2-2.2,3.3
			C269.7,417.1,268.9,419.9,266.1,420.3z"/>
		<path class="st237" d="M282.2,410.1c0.9-0.5,1.7-0.9,2.6-1.4c0.8-0.3,1.2,0.1,1.6,0.7c0.4,1.2,0,2.6,0.3,3.8
			c0,0.7-0.1,1.3-0.7,1.7c-0.6,0-1.3,0.1-1.9,0.1c-0.2-2-1.4-2.9-3.3-3C281.2,411.3,281.7,410.7,282.2,410.1z"/>
		<path class="st238" d="M274,412.6c0.3-0.6,0.6-1.1,0.9-1.7c0-1.7,0.2-3.2,2-4c0.4,0.4,0.8,0.7,1.1,1.1c-0.4,1-1.6,1.7-1.3,3
			C276.2,412.1,275.3,412.7,274,412.6z"/>
		<path class="st239" d="M264,373c1,0,2,0,3,0c0.3,0.3,0.7,0.7,1,1c0.3,0.9,0.8,1.7,1.4,2.5c0.9,1.4,3.3,2.4,2.5,4.3
			c-0.8,1.9-3.2,0.7-4.9,1.2c-0.8-0.4-1-1.2-1.1-2c-0.2-2.1-0.9-4-2.9-5C263.3,374.3,263.7,373.6,264,373z"/>
		<path class="st240" d="M267,382c0.8-2.3,2.7-1.1,4.4-1c-0.9-2.8-5-3.6-3.4-7c1,0.4,2,0.7,2.9,1.1c0.2,0.1,0.4,0.3,0.6,0.4
			c1.1,2.3,3.7,4,3.1,7c-0.2,0.5-0.5,0.9-1,1.1c-1.3,0.5-2.5,0.4-3.6-0.6C268.9,383,267.7,383.2,267,382z"/>
		<path class="st241" d="M271,375c0.4-0.9-1.3-2.4,0.4-2.8c1.8-0.4,2.7,1.3,3.6,2.7c0.1,0.9,0.1,1.7-0.3,2.6
			c-0.2,0.4-0.5,0.7-0.9,0.9C271.6,378.2,271.9,376.1,271,375L271,375z"/>
		<path class="st242" d="M276,375c0.3-0.6,0.7-1.3,1-1.9c0.4-0.4,0.8-0.5,1.3-0.6c1.6,0.4,2.7,1.3,3.2,2.9c-0.6,3.5-2.7,2.1-4.6,1.5
			C276.2,376.4,275.7,375.9,276,375z"/>
		<path class="st243" d="M278.2,372.9c-0.4,0-0.8,0.1-1.2,0.1c-1.9-0.2-2.9-1.1-3-3c0.3-0.4,0.7-0.7,1-1.1
			C277.7,369,278.3,370.6,278.2,372.9z"/>
		<path class="st244" d="M276,375c0.3,0.4,0.6,0.7,0.9,1.1c0.7,0.4,0.7,1.1,0.5,1.8c-0.3,0.4-0.7,0.6-1.2,0.7
			c-1.2,0.1-1.6-0.8-2.1-1.6c0-0.8,0.2-1.6,0.9-2.1C275.3,374.9,275.7,375,276,375z"/>
		<path class="st245" d="M256,347c-0.7-1-1.3-2-2-3c0.6-1.4,1.6-2,3-1l0,0c1.8,1.2,3.1,2.9,5,4c0.7,0.7,1.3,1.3,2,2
			c0.3,0.9-0.2,1.3-1,1.6c-0.8,0.1-1.5-0.1-2-0.6C259.3,349,257.7,348,256,347z"/>
		<path class="st246" d="M261,350c0.7,0,1.3,0,2,0c1.3,0.7,2.9,0.8,4,2c0.3,0,0.7,0,1,0.1c0.8,0.8,1.3,1.8,1.9,2.7
			c0.6,1,1,2.1,0.7,3.3c-1.2,2.1-2.2,0.7-3.3-0.2c-0.7-1.5-2.3-2.1-3.4-3.2C262.9,353.2,260.9,352.2,261,350z"/>
		<path class="st247" d="M263.9,354.7c2.1-0.6,3.3,0.5,4,2.3c-0.5,0.6-0.1,1.6-1,2c-0.3,0-0.6-0.1-0.9-0.1c-1-1.3-2-2.6-3-3.9
			C263.3,355,263.6,354.9,263.9,354.7z"/>
		<path class="st248" d="M325.9,365c-1-0.3-1.9-0.6-2.9-0.9c0.1-1.6-1.4-2-2.1-3.1c1.3-1.6,3.3-2,5-3c0.7,1.3,1.4,2.7,2,4
			C328,363.5,327.3,364.5,325.9,365z"/>
		<path class="st70" d="M366,364c0.7,0,1.3,0,2,0c-1,1.3-2,2.7-3,4c-0.8,0-1.6-0.2-2-1C364.3,366.3,365.4,365.4,366,364z"/>
		<path class="st249" d="M358,369c1.4-0.6,2.2-2.2,4-2c-0.9,1.6-2,2.9-4,3C358,369.7,358,369.4,358,369L358,369z"/>
		<path class="st250" d="M272.2,386c0.3,0.6,0.7,1.3,1,1.9c-1.8,1.9-3.9,1.1-6,0.8c-1.8-0.3-3.5-0.8-5.4-0.4c-1.3-0.1-2.2-0.7-2-2.2
			c2.4-0.9,4.8-0.6,7.2,0c1.3-0.2,2.7,1.1,3.9-0.1C271.4,385.4,271.8,385.4,272.2,386z"/>
		<path class="st251" d="M257,383c1,0,2,0,3,0c0,0.3,0,0.6,0,1c-1.1,1.3-2.9,1-4.2,1.8c-0.4,0.2-0.8,0.4-1.2,0.5
			c-2.3-0.9-4.9-1.2-6.6-3.4c0-0.3,0-0.7,0-1c1,0,2,0,3,0C252.8,383.3,255.2,381.7,257,383z"/>
		<path class="st252" d="M272.2,386c-0.4,0-0.8-0.1-1.3-0.1c-0.3-1-0.6-1.9-1-2.9c1.3,0,2.7,0,4,0c0.8-0.6,1.7-0.5,2,0.4
			c0.2,0.6-0.5,1.1-1.3,1.2c-0.9,0.1-2-0.4-2.6,0.7C272.2,385.5,272.2,385.7,272.2,386z"/>
		<path class="st253" d="M267,386c-2.4,0-4.8,0-7.2,0c-0.2,0.1-0.4,0.2-0.7,0.2c-0.4-0.4-0.5-0.9-0.2-1.4c1-0.3,2.1-0.5,3,0.2
			C263.7,385.3,265.6,384.4,267,386z"/>
		<path class="st254" d="M262,385c-1,0-2,0-3,0c-1.3,1-2.6,1-3.9,0c1.4-1.7,3.3-0.8,5-1C260.8,384,261.6,384.2,262,385z"/>
		<path class="st255" d="M269,355c-1.2-0.7-1-1.9-1-3c0.6,0,1.3,0,1.9,0c0.7,1,1.4,2,2.1,2.9c0,0,0,0.1,0,0.1
			C271,355.9,270,355.7,269,355z"/>
		<path class="st182" d="M262,347c-2.5-0.3-3.8-2.1-5-4c0.6,0,1.3,0,1.9,0C260,344.3,261,345.7,262,347z"/>
		<path class="st256" d="M267,352c-1.7,0.1-3.2-0.2-4-2c0.3-0.3,0.7-0.7,1-1C265.3,349.7,267,350,267,352z"/>
		<path class="st257" d="M287,341c0.3,0,0.7,0,1,0c-0.2,1.7,2.2,3.3,0,5C286.4,344.6,287.2,342.7,287,341z"/>
		<path class="st258" d="M361,442c-1.3-0.4-2.6-0.7-3.9-1.1c0-0.3,0-0.7,0-1c0.6-0.5,0.2-1.6,1-2c0.3,0,0.6,0,1,0
			C358.9,439.7,360.5,440.6,361,442z"/>
		<path class="st259" d="M358,438c0,0.8-0.2,1.6-1,2c-0.6-1-2.2-1.3-2.1-2.8c0-0.7,0-1.4,0.1-2.2C356.3,435.7,357.4,436.6,358,438z"
			/>
		<path class="st260" d="M278.2,372.9c-1.1-1.3-1.4-3.3-3.2-4c-1.4-1.9-2.7-3.8-4.1-5.8c-0.8-1.1-0.4-2,0.7-2.7
			c1.3-0.5,2.5-0.4,3.6,0.6c0.7,1.7,0.6,3.7,2.1,5c2.2,2.7,4.5,5.3,6.7,8c1.2,1.1,1.3,2.8,2.4,4c0.3,0.7,0.2,1.3-0.4,1.8
			c-0.4-0.1-0.8-0.2-1.2-0.3c-0.4,0.1-0.9,0.1-1.3,0c-0.6-0.3-1.1-0.8-1.5-1.3c-0.8-0.8-0.1-2.2-1.1-2.9
			C280,374.5,279.1,373.7,278.2,372.9z"/>
		<path class="st261" d="M272.2,360.9c-0.9,0.5-1.1,1.3-1.2,2.2c-0.6-0.4-1.3-0.8-1.9-1.2c-0.7-1-1.4-1.9-2.1-2.9
			c0.1-0.8,0.1-1.6,1-2c0.6,0.6,0.8,2,2.1,0.9C272.1,357.9,272.4,359.2,272.2,360.9z"/>
		<path class="st262" d="M249,335c0.3,1,0.7,2,1,3c0.3,0.2,0.3,0.5,0.2,0.7c-0.1,0.2-0.2,0.3-0.3,0.3c-0.3,0-0.6,0-0.9,0
			c-0.8-1.8-3.1-2.7-3-5C247,334.3,248,334.7,249,335z"/>
		<path class="st182" d="M248,383c2.3,1,4.7,2,7,3c1-0.4,1.2,0.1,1,1c-0.3,0-0.7,0.1-1,0.1c-1,0-2,0-2.9,0c-1.1-1.9-3.7-1.4-5-3
			C247.3,383.7,247.7,383.3,248,383z"/>
		<path class="st263" d="M257,343c-1,0.3-2,0.7-3,1c-0.7,0-1.3-0.1-2-0.1c0.1-1.4-0.4-2.7-1-3.9c0.4-0.9,0.9-1.6,2-1
			C254.7,340,256,341.3,257,343z"/>
		<path class="st264" d="M253,339c-0.7,0.3-1.3,0.7-2,1c-0.3-0.3-0.7-0.7-1-1c0-0.3,0-0.7,0-1c1,0,2,0.1,3,0.1
			C253,338.4,253,338.7,253,339z"/>
		<path class="st265" d="M337.1,420.9c1,1,2.1,2,3.1,3c-1,0.5-1.1,1.3-1.2,2.3c-0.3-0.1-0.6-0.2-1-0.2c-0.5-1.4-1.6-1.9-3-2
			c-0.1-0.3-0.1-0.5-0.1-0.8C335.7,422.4,336.4,421.6,337.1,420.9z"/>
		<path class="st266" d="M278,361c0,1,0,2.1,0,3.1c-1.5,0.4-2.1-0.5-2.4-1.8c0.2-1.2-1.2-2-0.5-3.3c0.3-0.3,0.7-0.7,1-1
			C277.3,358.6,278,359.5,278,361z"/>
		<path class="st267" d="M336.8,411c0.1,0.3,0.2,0.6,0.2,1c0,0-0.5,0-0.5,0l-0.5-0.1c-0.2-0.2-0.3-0.3-0.3-0.5
			c0.1-0.2,0.1-0.3,0.2-0.3C336.3,411,336.5,410.9,336.8,411z"/>
		<path class="st268" d="M336,411c0,0.3,0,0.5,0.1,0.8c-0.4,0-0.7,0-1.1,0C335.3,411.5,335.6,411.2,336,411z"/>
		<path class="st269" d="M257,383c-2-0.3-4.2,0.8-6-1c0.3,0,0.7,0,1,0c1.7,0,3.3,0,5,0C257,382.3,257,382.7,257,383z"/>
		<path class="st270" d="M326.1,417c3.1,0.3,5.1,2,6.2,4.8c-0.4,0.1-0.8,0.1-1.2,0.2c-0.4,0-0.7,0-1.1,0c-1.5-0.5-2.2-1.8-3-3
			C326.7,418.4,326.4,417.7,326.1,417z"/>
		<path class="st13" d="M327,419c1.4,0.6,2.3,1.6,3,3c-1.3,2.3-2.7-2-4,0C324.9,420.5,326.4,419.9,327,419z"/>
		<path class="st271" d="M275,359c0.3,1,0.6,2,1,3c-0.4,0.4-0.7,0.3-0.9-0.2c-0.7-1.3-1.9-0.7-2.9-0.9c-0.7-1-1.4-2-2.2-3
			c-0.3-1-0.7-2-1-2.9c1,0,2,0,3,0C272.3,356.8,272.7,358.7,275,359z"/>
		<path class="st272" d="M320,436c-0.7-1.3-1.2-2.6-1-4c-2.3-6.2-1.9-12.5-0.3-18.8c1.1-1,2.2-0.7,3.2,0.2c0.4,0.5,0.5,1,0.1,1.6
			c-1.1,6.3,0.4,12.7,0,19C321.3,434.7,320.7,435.3,320,436z"/>
		<path class="st270" d="M324,446c-0.3,0-0.6,0-1,0c0-10,0-20,0-30c0.4-0.3,0.7-0.3,1,0.1C324,426.1,324,436,324,446z"/>
		<path class="st273" d="M324,416.1c-0.3,0-0.7-0.1-1-0.1c-0.3-0.3-0.7-0.7-1-1c0-0.3,0-0.6,0-1c0.8-0.7,1.5-0.6,2.2,0.1
			c1.1,0.6,1.8,1.5,1.8,2.9C325.3,416.7,324.7,416.4,324,416.1z"/>
		<path class="st274" d="M261.8,388.2c3.7-3.2,7.6,0.8,11.4-0.3c0.6,0.1,1.2,0.2,1.8,0.2c1.2,0.9,2.6,1.2,3.9,1.9
			c1,0.6,2.1,1.2,3.1,1.8c-1,2.2,2,2.5,2,4.2c-0.2,0.9-0.9,1.3-1.7,1.6c-1.7-3.4-5.6-3-8.3-4.7c-2.1-1.8-4.8-1.8-7.2-2.9
			C264.9,390.3,263.3,389.5,261.8,388.2z"/>
		<path class="st275" d="M273.1,404.2c-0.1-0.4-0.1-0.8-0.2-1.2c0.2-0.5,0.5-0.9,1.1-0.9c1.2-0.4,2.5-0.8,3.7-1.3
			c0.2,0,0.5,0.1,0.7,0.1c1.2,0.1,2.4,0.1,2.9,1.6c-1,2-3.2,0.3-4.4,1.5C275.6,404,274.3,404.1,273.1,404.2z"/>
		<path class="st250" d="M266.9,390.1c2.6,0.5,5.6-0.2,7.2,2.9c-0.6,0-1.3-0.1-1.9-0.1C270.4,391.9,268.6,391,266.9,390.1z"/>
		<path class="st276" d="M274,402c-0.4,0.3-0.7,0.6-1.1,0.9c-1,0.4-1.9,0.7-2.9,1.1c-0.3,0-0.7,0-1,0c1-2.1,2.6-3.2,5-3
			C274,401.3,274,401.7,274,402z"/>
		<path class="st275" d="M280.8,398.2c0.4,0.3,0.7,0.7,1.1,1c-0.5,2.2-2,2.3-3.8,1.8c0,0-0.4-0.3-0.4-0.3
			C278.8,399.9,279.8,399.1,280.8,398.2z"/>
		<path class="st277" d="M256,387c-0.3-0.3-0.7-0.6-1-1c0-0.3,0-0.6,0-0.9c1.3,0,2.6,0,3.9,0c0.1,0.4,0.1,0.8,0.2,1.2
			C258.3,387.3,257.1,387,256,387z"/>
		<path class="st278" d="M358,369c-1,0.2-2.1,1.5-2.8-0.1c-0.4-0.9,0.1-2.1,1.1-2.3C358.5,366.1,357.8,368,358,369
			C358,369,358,369,358,369z"/>
		<path class="st279" d="M351,372.2c0.3,0,0.6,0,0.9,0.1c0,0.2,0,0.4,0,0.6c0,0-0.5,0-0.5,0l-0.5,0C351,372.6,351,372.4,351,372.2z"
			/>
		<path class="st280" d="M351,372.2c0,0.2,0,0.5,0,0.7c-2.4,0.8-4.4,2.2-6,4.1c-2.9,2.1-6.5,3.3-8,6.9c-1.3,1.4-2.9,2.5-4.2,4
			c-1.3,1.3-3.3,1.5-4.3,3.2c1.2,1.2,3.1,1.1,4.2,2.3c0.5,0.6,0.8,1.2,0.5,2c-2.5,1.5-4.8,3.7-8,3.3c-0.8-0.3-1.7-1.2-1.3-1.7
			c2.2-2.7-0.2-5.1-0.2-7.6c0.5-1.1,1.8-1.4,2.2-2.6c3.3-3.1,7.7-4.9,10.7-8.7c-1.4,0-2.5,0-3.6,0c-0.2-0.2-0.3-0.4-0.2-0.6
			c0.1-0.2,0.2-0.3,0.2-0.3C338.9,375,344.4,371.7,351,372.2z"/>
		<path class="st281" d="M332.2,387c1.2-1.6,2.6-3,4.7-3.1c0,0.7,0,1.4,0.1,2.1c-0.3,0.3-0.7,0.7-1,1c-0.7,0.8-1.6,0.9-2.6,0.8
			C332.9,387.6,332.5,387.3,332.2,387z"/>
		<path class="st282" d="M332.2,387c0.3,0,0.6,0,0.8,0.1c1,1,0.3,2,0,3c0.7,1.2,1.9,1,3,1c0.2,0.2,0.3,0.5,0.3,0.8
			c0,0.3-0.1,0.4-0.1,0.4c-0.9,1.7-2.6,1.5-4.1,1.5c-1.8-0.8-5.1-0.6-5.1-2.5C326.9,388.8,330.3,388.4,332.2,387z"/>
		<path class="st283" d="M336,392c0-0.3,0-0.7,0-1c1,0.6,1.4,2.2,3,2c0,0.7,0,1.4,0,2c-1,0.7-2,1.3-3,2c-0.7,0.6-1.3,0.6-2,0l0,0
			c-0.6-1.2,0.5-1.9,0.8-2.8C335.2,393.5,335.4,392.6,336,392z"/>
		<path class="st283" d="M333,390c-1.2-1,0.3-2,0-3c1,0,1.9,0,2.9,0c0,0,0.1,0,0.1,0c-0.8,2.1,1.6,1.1,2,2c0,0.3,0,0.7,0,1
			C336.3,390,334.7,390,333,390z"/>
		<path class="st284" d="M338,389c-1.2-0.1-3.1,0.4-2-2C337.3,387,338,387.7,338,389z"/>
		<path class="st285" d="M286,414.9c0-0.7,0-1.4-0.1-2.1c0.1-1.4,0.8-2.1,2.2-2c2,1,1.8,3.5,3.3,4.9c0.5,0.8,1,1.6,1.3,2.4
			c0.2,0.7,0.3,1.4,0.3,2.1c0,0.7-0.1,1.4-0.3,2.1c-0.6,1.5-0.3,3.4-1.8,4.7c-0.7,0-1.3,0-2,0c-0.3-0.3-0.7-0.7-1-1
			c-0.1-0.2-0.3-0.4-0.4-0.6c-0.4-1.8,0.5-3.7-0.6-5.4C286.8,418.3,287.6,416.3,286,414.9z"/>
		<path class="st286" d="M291,427c0.2-1.7-0.5-3.5,0.7-5c2.4,1.7,1.1,4.5,2.1,6.6c0.2,0.5,0.3,1,0.3,1.6c-0.2,2.3,0.4,4.6-0.5,6.9
			c-0.8,0.5-0.2,2.2-1.5,2.2c-0.9,0-1.1-1.1-1.1-1.9C291,433.8,291,430.4,291,427z"/>
		<path class="st287" d="M293.6,437c-0.2-2.3-0.4-4.7-0.7-7c0.4-0.3,0.9-0.3,1.3,0c1.4,1.5-0.5,3.4,0.6,4.9c0,0.7,0,1.3,0,2
			C294.5,437,294.1,437,293.6,437z"/>
		<path class="st288" d="M306,411c1.7,2.8,3.4,5.5,5.4,8.9c1.6-5.2-0.2-10.1,1.6-14.6c1.4,1.7,1.3,3.6,0.7,5.7
			c-0.7,2.4,0.2,4.7,0.5,7c-1.2-8-0.9-8.8,3.5-7.4c0.3,7,0.7,14-0.3,20.9c-0.3,0.7-0.8,0.8-1.5,0.5c-3-5.1-6-10.2-9-15.3
			c-0.7-1.2-1.1-2.9-2.7-3.4c-0.5-0.4-0.7-0.8-0.7-1.4C304,410.7,304.7,410.1,306,411z"/>
		<path class="st289" d="M304,412c0.1,0.5,0.1,0.9,0.2,1.4c-1.1,2.8-2.2,5.7-3.3,8.5c-1.9,4.4-4.7,8.4-6,13.1
			c-1.5-1.4-0.7-3.2-0.9-4.9c-0.8-1.4-1.1-2.8-0.7-4.4c2.6-0.7,4.7-1.8,4.4-5.1C299.1,417.3,299.5,413.1,304,412z"/>
		<path class="st290" d="M316,432c0.4,0,0.7,0,1.1,0c0.2-0.1,0.4-0.2,0.6-0.4c0.2,0.1,0.4,0.2,0.6,0.3c-0.2,0.7-0.1,1.9-0.6,2.2
			c-0.8,0.5-1.3-0.5-1.7-1.1C315.9,432.7,316,432.4,316,432z"/>
		<path class="st291" d="M299.8,366.1c-1.3-1.4-2.6-2.8-4.4-4.8c-0.1,3-0.2,5.4-0.3,7.7c0.4,0.5,0.4,0.9,0,1.4
			c-0.8,0.3-1.5,0.3-2.2-0.2c-1.2-1.5-0.4-3.6-1.2-5.2c-0.2-0.8-0.1-1.6,0-2.3c0-0.5,0-1,0.1-1.5c0.3-2.2-0.7-5.3,1.8-6.2
			c2.6-0.9,2.9,2.8,4.6,4c0.7,0.9,1.4,1.8,2.1,2.7c1.2,1.5,2.8,2.7,3.9,4.3c1.7,0.5,3.3,5.4,5,0c0.4-0.3,0.8-0.5,1.3-0.5
			c2.9,1.4,0.8,5,3,6.7c0.5,0.8,1.1,1.6,0.7,2.6c-3,2.8-4.3,1.2-5-2c-2.5,0-4.8-0.2-6-3.1C302.4,368.2,301,367.2,299.8,366.1z"/>
		<path class="st292" d="M298,359c-1.3-1.2-2.6-2.3-4.1-3.6c-2.3,2.1,0.4,5.5-1.9,7.6c-1.3-1.2-1.3-2.9-1.6-4.5c0.1-2.6-1.6-5-1-7.6
			c0.2-0.9-0.1-2.1,1.4-1.8C293.5,352.3,296.8,354.9,298,359z"/>
		<path class="st293" d="M309.8,365.9c-0.3,0-0.5,0.1-0.8,0.1c0-0.3,0-0.7,0-1c0.1-1.7,0.7-2.8,2.7-2.4c2.2,0.4,0.8,2.1,1.3,3
			c0.7,1.1-2.1,4.2,2,3.4c1-0.3,1.2,0.3,1.3,1.1c-0.5,1.2-1.3,2-2.5,2.4c-2.5,0-2.1-1.7-2.3-3.3C311.3,368,312.6,365.8,309.8,365.9z
			"/>
		<path class="st294" d="M291,349.1c-2.7,3.3,0.7,6.6,0.1,9.9c-0.4,0.5-0.7,0.5-1.1,0c-0.1-1.1,0.1-2.3-1-3c0-1.7,0-3.3-0.1-5
			c0.3-1.2-0.6-2.8,0.8-3.4C290.9,347.1,290.8,348.4,291,349.1z"/>
		<path class="st295" d="M304,366c-2-0.8-3.5-2-3.9-4.3C302.2,362.4,303.6,363.7,304,366z"/>
		<path class="st296" d="M287,330c0-0.3,0-0.7,0-1c1.6,0.9,3,2,3,4C288.6,332.4,287.6,331.4,287,330z"/>
		<path class="st233" d="M288,426c0,1.7,0,3.3,0,5c-0.3,0-0.7,0-1,0c-1.5-1.7-1.5-3.3,0-5C287.3,425.5,287.7,425.5,288,426L288,426z
			"/>
		<path class="st297" d="M288,426c-0.3,0-0.7,0-1,0c0-0.7,0-1.3,0-2c0-1.3,0-2.6,0-4C288.8,421.8,287.7,424,288,426z"/>
		<path class="st298" d="M336,395c-0.7,0.7-1.3,1.3-2,2c-4.9,1.5-5.2,2.3-2.4,5.9c1,1.3,2.6,2.2,2.4,4.1c-1.3-0.7-2.6-1.4-4-2.1
			c-1.5,0.6-2-0.9-2.8-1.5c-1-1.7-3.7-2.7-2.1-5.4c2.6-1,5.2-2.1,7.9-3.1C334,394.1,335,394.2,336,395z"/>
		<path class="st299" d="M328.1,402.8c0.6,0.7,1.3,1.4,1.9,2.1c0.4,1.8,0.7,3.5-2.1,3.1c-0.3,0.3-0.7,0.4-1.1,0.3
			c-0.6-0.2-1.1-0.5-1.6-0.9c-0.1-0.2-0.2-0.4-0.3-0.5c0.1-0.3,0.2-0.6,0.3-1C325,403.8,327.6,404.3,328.1,402.8z"/>
		<path class="st300" d="M327,408c0.3,0,0.6,0,0.9,0c0.1,0.3,0.1,0.6,0,0.9c-1,0.8-1.9,0.6-2.8-0.2c-0.3-0.4-0.2-0.8,0.2-1.1
			C325.9,407.5,326.5,407.5,327,408z"/>
		<path class="st301" d="M325,408.1c0,0.2,0,0.4,0,0.6c-0.2,0.1-0.5,0.1-0.8,0.1c-0.3-0.8-0.4-1.6,0.7-1.9c0,0,0,0.3,0,0.3
			c0.3,0.2,0.5,0.4,0.3,0.6C325.2,408,325.1,408.1,325,408.1z"/>
		<path class="st248" d="M316,369.7c-0.3-0.3-0.7-0.5-1-0.8c0.8-4.7,5-4,8.1-4.9c-1.1,1.3-2.3,2.5-3.4,3.8
			C318.9,369.3,318.1,370.8,316,369.7z"/>
		<path class="st115" d="M304,353c1.9,0.7,2.5,2.8,4,4.1C303.9,358.3,304.3,355.3,304,353z"/>
		<path class="st302" d="M326,358c0-0.7,0-1.3,0-2c0.4-0.8,1.2-1,2-1c0.8,0.2,1.9,0.2,1.6,1.3C329.1,358.2,327.4,358,326,358z"/>
		<path class="st273" d="M320,412.9c-2.2,6.2-0.5,12.7-1,19c0,0-0.4,0-0.4,0s-0.4,0-0.4,0c0,0-0.3,0-0.3,0c-0.9-6-0.3-11.9-0.4-17.9
			C317.5,412.5,317.7,410,320,412.9z"/>
		<path class="st303" d="M334,397c0.7,0,1.3,0,2,0c0,0.7,0,1.3,0,2c0,0.7,0,1.3,0,2C334.5,400.1,332.7,399.3,334,397z"/>
		<path class="st304" d="M316,369.7c1.5-0.1,2-2.1,3.7-1.9c1.5,0.2,2.3,1,2.5,2.5c-0.4,0.5-0.7,1.1-1.1,1.6c-0.5,0.5-0.9,1.1-1.7,1
			c-2.3-0.9-3.3,1.9-5.4,1.9c-0.3-0.6-0.6-1.2-0.9-1.8c0.1-0.6,0.7-0.8,0.9-1.2C314.6,371.1,315.3,370.4,316,369.7z"/>
		<path class="st220" d="M319.3,372.9c0.6-0.3,1.2-0.6,1.7-1c-0.3,3.1-3.5,5.2-3.1,8.6c0.9,1.3-0.2,1.8-1,2.3
			c-1.8,0-4.1,0.5-2.1-2.6C316.4,377.9,317.9,375.4,319.3,372.9z"/>
		<path class="st305" d="M333,377.1c0,0.3,0,0.6,0,0.9c-2.1,1.5-4.5,2-7,2c-1,0.6-2,0.6-3,0C326.1,378.3,329.4,377,333,377.1z"/>
		<path class="st306" d="M323,380c1,0,2,0,3,0c-2.7,2-5.9,2.2-9,2.9c0.3-0.8,0.7-1.5,1-2.3C319.7,380.4,321.3,380.2,323,380z"/>
		<path class="st307" d="M276.9,403.9c1.4-0.6,2.8-1.2,4.3-1.8c0.9-0.1,1.4,0.2,1.1,1.3c-0.2,0.8-0.3,1.5-1.2,1.8
			C280,403.5,278.3,404.2,276.9,403.9z"/>
		<path class="st308" d="M290,359c0.4,0,0.7,0,1.1,0c0.3,1.3,0.7,2.7,1,4c0,0.7-0.1,1.4-0.1,2.1c1.3,1.9-0.4,4.5,1.4,6.3
			c0.2,0.5,0.4,0.9,0.5,1.5c-0.2,1.4,0.7,3.4-2,3.3c-1.4-1.2-2.7-2.5-4.1-3.7c0.2-2,3.3,0.2,3.1-2.3c0.1-2.4,0-4.8-0.9-7
			C290,361.7,290,360.3,290,359z"/>
		<path class="st309" d="M275.1,361.8c0.3,0.1,0.6,0.1,0.9,0.2c0.7,0.7,1.4,1.4,2,2.1c0.1,0.3,0.2,0.7,0.3,1c-0.3,0.3-0.7,0.7-1,1
			C274.3,365.8,273.6,364.4,275.1,361.8z"/>
		<path class="st310" d="M298,421c1.8,2.5-1.1,4-0.7,6.4c-1.7-0.8-1.7-2.7-3.3-2.4c-0.9-0.5-1.1-1.5-1.5-2.4c-0.1-0.9,0-1.9,0-2.8
			c-0.6-3-0.3-6.3-1.9-9.1c-0.5-0.4-1.1-0.8-1.6-1.1c-0.5-0.4-1-0.9-1.3-1.5c-0.3-1.1,0.5-1.6,1.1-2.2c1.4-0.9,1.9-2.2,2.2-3.7
			c4.8,0.4,2.6,4.1,3.1,6.6c1,2.6-0.2,5.5,0.7,8.1c0.9,1.1-1.1,3.6,1.8,3.9C297.1,420.3,297.6,420.4,298,421z"/>
		<path class="st311" d="M328.1,402.8c0.2,2.1-2.4,1.5-2.8,3.1c-0.4-2.8-2.7-4.4-4.5-6.2c-2.6-2.6-3.3-4.2,1-5.3
			c0.7-0.2,1.4-0.8,2.1-1.2c-0.9-1.3-3.6-2.3-1-4.4l-0.1,0c0.4-0.3,0.8-0.3,1.1,0.1c2.7,2.7,0.9,6,1.1,9
			C324.6,400.6,327.4,401,328.1,402.8z"/>
		<path class="st312" d="M284.2,379c0.3,0.1,0.5,0.3,0.7,0.6c-0.1,2.9,2.9,4.3,3.4,7.2c-2.5,0.2-4.9,0.3-7.2-0.9
			c-1.4-1.2-2.7-2.4-3.9-3.8c-0.3-0.3-0.5-0.7-0.8-1.1c-0.4-1-1.1-1.9-0.5-3.1c0.4-0.1,0.8-0.1,1.2-0.2c1.2-0.8,2.1,0,3.1,0.4
			C281.5,378.6,282.5,380.2,284.2,379z"/>
		<path class="st313" d="M298,421c-0.5-0.1-0.9-0.1-1.4-0.2c2.2-4.8,4.3-9.6,6.5-14.6c1.9,1.4,2.8,2.8,2.8,4.8c-0.8,0-1.5,0.2-2,1
			C301.4,414.6,299.5,417.7,298,421z"/>
		<path class="st314" d="M317.1,410c-4.8,0.8-2.7,3.9-2.1,6.5c0.2,1.2,1.6,2.4,0.1,3.6c-0.2,0.2-0.7,0.3-0.9,0.2
			c-1.4-0.8-1.2-2.3-1.2-3.6c0-3.8,0-7.6,0-11.4c2.4,0.3,3.7,2,5.2,3.6C318.4,409.8,318,410.2,317.1,410z"/>
		<path class="st315" d="M317.1,410c0.4-0.4,0.7-0.8,1.1-1.2c2.5,1.2,4.4,3,6,5.2c-0.7,0-1.5-0.1-2.2-0.1c-0.7-0.4-1.4-0.7-2-1.1
			c-2.7-1.2-1.9,1-2,2.1c-0.1,5.6-0.1,11.3-0.1,16.9c0,0-0.4,0-0.4,0s-0.4,0-0.4,0C317.1,424.7,317.1,417.4,317.1,410z"/>
		<path class="st316" d="M282.3,403.4c-0.4-0.4-0.7-0.8-1.1-1.3c-1-0.3-2.3,0.2-3-1c1.3-0.6,2.5-1.2,3.8-1.8
			c1.9-0.2,3.7-1.5,6.2-0.8C286.1,400.3,284.8,402.5,282.3,403.4z"/>
		<path class="st317" d="M299.8,366.1c0.7,0.3,1.9,0.5,2.2,1c1.5,3,4.1,4.5,7.1,5.7c-1.7,2-3.2,2.5-4.8-0.2
			C302.8,370.4,301.2,368.3,299.8,366.1z"/>
		<path class="st318" d="M277.1,380.9c1.6,1.4,3.8,2.5,3.9,5.1c-2.5-0.1-5,0.4-7.3-0.8C276.3,384.9,276.2,382.5,277.1,380.9z"/>
		<path class="st319" d="M277.1,380.9c1.3,3.3-0.2,4.5-3.4,4.2c-0.6,0-1.1,0.1-1.7,0.1c0.4-1.1,1.3-1.2,2.3-1.2c0.4,0,1-0.2,0.5-0.7
			c-0.1-0.2-0.6-0.2-0.9-0.2c0-0.3,0-0.7,0-1c0.7-0.6,0.2-1.7,1-2.2C276.1,379.5,276.4,380.5,277.1,380.9L277.1,380.9z"/>
		<path class="st320" d="M284.1,396.1c-1.5-1-3.2-1.9-2-4.2c1.3,0.4,2.6,0.8,3.9,1.3c1.2,1.5,0.1,2.1-1,2.8
			C284.7,396,284.4,396,284.1,396.1z"/>
		<path class="st292" d="M293.1,370c0.6,0,1.3,0,1.9,0c1.3,1.8-0.3,4.1,1.2,5.9c0.1,1.6-0.5,2.5-2.2,2.2c-0.3-0.3-0.6-0.6-1-0.9
			c0.5-1.7,1.1-3.4,0-5.1l0,0C292.4,371.3,292.4,370.6,293.1,370z"/>
		<path class="st321" d="M322.9,388.8c-1.2,1.8,0.7,3,1,4.4c-1.3-0.7-3.3-0.7-3.6-2.1C319.9,389.7,321.7,389.3,322.9,388.8z"/>
		<path class="st322" d="M322.2,406.5c-1.5-0.6-2.9-0.7-2.7-2.2c0.1-0.6,0.8-0.9,1.5-0.6c0.9,0.3,1.9,0.6,1.8,1.9
			C322.9,406.4,322.5,406.6,322.2,406.5z"/>
		<path class="st323" d="M286,379.9c0-0.6,0-1.3,0-1.9c-0.5-0.5-0.4-0.9,0.1-1.3c1.5,1.2,3.1,2.4,2.6,5.1
			C287.7,381.1,286.9,380.5,286,379.9z"/>
		<path class="st324" d="M293.9,378c1-0.4,1.7-1,2-2.1c-0.4-0.5-0.3-0.9,0.3-1.2c0.9,1.5,1.4,3.5,0.4,4.7
			C295.7,380.5,294.6,378.9,293.9,378z"/>
		<path class="st325" d="M294.8,416.9c-1.6-2.6-0.6-5.4-0.7-8.1C295.3,411.5,294.9,414.2,294.8,416.9z"/>
		<path class="st326" d="M296.2,374.8c-0.1,0.4-0.2,0.8-0.3,1.2c-1.6-1.8-0.6-4-0.9-6c0-0.4,0-0.7,0-1.1
			C296.8,370.6,295.9,372.8,296.2,374.8z"/>
		<path class="st327" d="M285,395.9c0.3-0.9,0.7-1.8,1-2.8c1.1-0.2,2.5,0.2,2.3,1C288,395.7,286.5,396.1,285,395.9z"/>
		<path class="st328" d="M293,372c1.2,1.7,1.6,3.4,0,5.1c-0.3-0.4-0.7-0.7-1-1.1C293.4,375,292.8,373.4,293,372z"/>
		<path class="st329" d="M279,390c-1.6,0.1-3.1-0.2-3.9-1.9C276.7,388.1,278,388.6,279,390z"/>
		<path class="st330" d="M286.1,376.7c0,0.4-0.1,0.8-0.1,1.3c-1.3-1-1.8-2.4-2.1-3.9C285.1,374.6,285.8,375.5,286.1,376.7z"/>
		<path class="st321" d="M324,389c-0.4,0-0.8-0.1-1.1-0.1c0.7-1.2,1.8-1.8,3-2.1C326,388.1,325.4,388.9,324,389z"/>
		<path class="st331" d="M288.8,406c-0.3,0.6-0.6,1.3-0.9,1.9c-0.2,1.1-0.1,2.5-1.9,2.1c-0.4-0.4-0.9-0.9-1.3-1.3
			C285.9,407.4,286.9,406,288.8,406z"/>
		<path class="st332" d="M286,410c0.6-0.7,1.3-1.4,1.9-2.1c0.4,0.4,0.7,0.7,1.1,1.1c0.3,0.3,0.4,0.6,0.3,1c-0.3,0.5-0.8,0.8-1.4,0.9
			c-0.7,0.6-1.4,1.2-2,1.9C284.3,411.8,286.1,410.9,286,410z"/>
		<path class="st155" d="M275,380c0,0.8-0.2,1.6-1,2c0-2.7-3.8-3.9-3.1-7c1,1,2,2,3,3C274.8,378.4,275.6,378.9,275,380z"/>
		<path class="st333" d="M275,380c-0.3-0.7-0.7-1.3-1-2c0-0.4,0-0.7,0.1-1.1c0.6,0.4,1.2,0.7,1.9,1.1c0.4,1,0.8,1.9,1.2,2.9
			C276.4,380.6,275.7,380.3,275,380z"/>
		<path class="st334" d="M280,379c-1-0.4-1.9-0.8-2.9-1.2c-0.1-0.6-0.2-1.2-0.3-1.8c1.3-0.8,3.3,2.4,4.1-0.8
			c1.2,0.5,1.5,1.8,2.1,2.8C282.3,379.3,281.4,379.9,280,379z"/>
		<path class="st335" d="M280,379c1-0.3,2.1-0.6,3.1-1c0.4,0.3,0.7,0.6,1.1,1C282.8,382.5,281.4,379.8,280,379z"/>
		<path class="st336" d="M336,395c-1,0-2,0-3,0c-0.3-0.4-0.6-0.8-0.9-1.2c1.3-0.6,2.6-1.2,3.9-1.7C336,393,336,394,336,395z"/>
		<path class="st325" d="M290.8,409.1c3.9,3,1.6,7.3,2.2,10.9c-0.3,0.4-0.7,0.4-1,0c0-0.6-0.1-1.3-0.1-1.9c-0.5-2-1.2-4-1.7-6
			C290,411.1,290.1,410,290.8,409.1z"/>
		<path class="st287" d="M292,420c0.3,0,0.6,0,1,0c0,1,0,2,0,3c0.6,2.1,0.9,4.2-0.2,6.2c-1.5-2.2-0.4-4.8-1.2-7.2
			C291.8,421.3,291.9,420.7,292,420z"/>
		<path class="st237" d="M288,410.9c0.3-0.3,0.6-0.7,1-1c2.8,0.6,1.4,3.2,2.3,4.7c0.2,0.5,0.2,1-0.2,1.4
			C287.9,415.5,289.6,412.2,288,410.9z"/>
		<path class="st337" d="M291,416c0-0.4,0-0.8,0-1.1c-0.5-1-0.7-2,0.2-2.9c1.5,1.9,0.8,4.1,0.7,6.1C291.6,417.4,291.3,416.7,291,416
			z"/>
		<path class="st325" d="M292.9,429.2c0.1-2.1,0.1-4.1,0.2-6.2c0.8,0.5,0.9,1.2,1,2c0,1.7,0,3.4,0,5c-0.3,0-0.7,0-1-0.1
			C292.9,429.7,292.8,429.5,292.9,429.2z"/>
		<path class="st338" d="M313.9,371.8c-0.3,0.4-0.6,0.8-0.9,1.2c-4.1-1-0.4-5.6-3.2-7.2c1.6-2.5,1.7-1.3,2.1,0.7
			C312.2,368.4,310,371.3,313.9,371.8z"/>
		<path class="st328" d="M293.1,370c0,0.7-0.1,1.3-0.1,2c-1.8-2.1-0.7-4.6-1-6.9C293.4,366.5,292.6,368.4,293.1,370z"/>
		<path class="st198" d="M325,408.1c0-0.3,0-0.6,0-0.9c0.8-0.2,1.5,0.1,2,0.8C326.4,408,325.7,408,325,408.1z"/>
		<path class="st339" d="M291.1,412c-0.1,1-0.1,1.9-0.2,2.9c-1.8-1.2,0-3.9-2-5c0.1-0.3,0.1-0.6,0.2-0.9c0.6,0,1.1,0,1.7,0.1
			C290.9,410.1,291,411,291.1,412z"/>
	</g>
</g>
</svg>
