<?xml version="1.0" encoding="utf-8"?>
<!-- Generator: Adobe Illustrator 23.0.5, SVG Export Plug-In . SVG Version: 6.00 Build 0)  -->
<svg version="1.1" id="Capa_1" xmlns="http://www.w3.org/2000/svg" xmlns:xlink="http://www.w3.org/1999/xlink" x="0px" y="0px"
	 viewBox="0 0 595.3 841.9" style="enable-background:new 0 0 595.3 841.9;" xml:space="preserve">
<style type="text/css">
	.st0{fill:#FFFFFF;}
	.st1{fill:#427532;}
	.st2{fill:#446833;}
	.st3{fill:#417630;}
	.st4{fill:#427631;}
	.st5{fill:#417632;}
	.st6{fill:#417532;}
	.st7{fill:#407631;}
	.st8{fill:#427632;}
	.st9{fill:#447533;}
	.st10{fill:#457533;}
	.st11{fill:#417832;}
	.st12{fill:#417833;}
	.st13{fill:#437732;}
	.st14{fill:#477534;}
	.st15{fill:#457534;}
	.st16{fill:#497A36;}
	.st17{fill:#447436;}
	.st18{fill:#487636;}
	.st19{fill:#436B35;}
	.st20{fill:#416E32;}
	.st21{fill:#466930;}
	.st22{fill:#416733;}
	.st23{fill:#4A6A39;}
	.st24{fill:#476535;}
	.st25{fill:#497736;}
	.st26{fill:#54773E;}
	.st27{fill:#457834;}
	.st28{fill:#497837;}
	.st29{fill:#477734;}
	.st30{fill:#426632;}
	.st31{fill:#466434;}
	.st32{fill:#577940;}
	.st33{fill:#406E30;}
	.st34{fill:#487A37;}
	.st35{fill:#487836;}
	.st36{fill:#427830;}
	.st37{fill:#020203;}
	.st38{fill:#020303;}
	.st39{fill:#020404;}
	.st40{fill:#417631;}
	.st41{fill:#427432;}
	.st42{fill:#407731;}
	.st43{fill:#447135;}
	.st44{fill:#407632;}
	.st45{fill:#427530;}
	.st46{fill:#417533;}
	.st47{fill:#417634;}
	.st48{fill:#3F7831;}
	.st49{fill:#4C763B;}
	.st50{fill:#4E7442;}
	.st51{fill:#437334;}
	.st52{fill:#437532;}
	.st53{fill:#3E7831;}
	.st54{fill:#427533;}
	.st55{fill:#3F7830;}
	.st56{fill:#457038;}
	.st57{fill:#437432;}
	.st58{fill:#457833;}
	.st59{fill:#447833;}
	.st60{fill:#447336;}
	.st61{fill:#407931;}
	.st62{fill:#50783E;}
	.st63{fill:#526A4B;}
	.st64{fill:#4A733F;}
	.st65{fill:#3E7636;}
	.st66{fill:#457236;}
	.st67{fill:#3F7538;}
	.st68{fill:#447232;}
	.st69{fill:#456634;}
	.st70{fill:#447432;}
	.st71{fill:#487337;}
	.st72{fill:#4E7741;}
	.st73{fill:#4D743E;}
	.st74{fill:#476D39;}
	.st75{fill:#417B33;}
	.st76{fill:#3F7B31;}
	.st77{fill:#427A31;}
	.st78{fill:#437537;}
	.st79{fill:#4F7742;}
	.st80{fill:#417C31;}
	.st81{fill:#527848;}
	.st82{fill:#517642;}
	.st83{fill:#407B32;}
	.st84{fill:#3F7A31;}
	.st85{fill:#477C33;}
	.st86{fill:#457039;}
	.st87{fill:#3F7730;}
	.st88{fill:#437433;}
	.st89{fill:#417530;}
	.st90{fill:#437431;}
	.st91{fill:#407730;}
	.st92{fill:#4A773B;}
	.st93{fill:#49773B;}
	.st94{fill:#427A32;}
	.st95{fill:#447733;}
	.st96{fill:#437335;}
	.st97{fill:#4C723B;}
	.st98{fill:#466F37;}
	.st99{fill:#46683A;}
	.st100{fill:#4A7640;}
	.st101{fill:#517545;}
	.st102{fill:#4E743E;}
	.st103{fill:#4F7640;}
	.st104{fill:#527744;}
	.st105{fill:#467035;}
	.st106{fill:#486340;}
	.st107{fill:#53754A;}
	.st108{fill:#4D793F;}
	.st109{fill:#4F7245;}
	.st110{fill:#427333;}
	.st111{fill:#436E30;}
	.st112{fill:#447134;}
	.st113{fill:#487A3B;}
	.st114{fill:#427531;}
	.st115{fill:#447233;}
	.st116{fill:#457337;}
	.st117{fill:#417A31;}
	.st118{fill:#050D08;}
	.st119{fill:#437333;}
	.st120{fill:#051007;}
	.st121{fill:#4B7640;}
	.st122{fill:#407A31;}
	.st123{fill:#437232;}
	.st124{fill:#4C753B;}
	.st125{fill:#477837;}
	.st126{fill:#4E7841;}
	.st127{fill:#4E793C;}
	.st128{fill:#507740;}
	.st129{fill:#477139;}
	.st130{fill:#466D34;}
</style>
<g>
	<g>
		<path class="st0" d="M204,390c0-27.8,0.1-55.7-0.1-83.5c0-3,0.6-3.6,3.6-3.6c61,0.1,122,0.1,183,0c3,0,3.6,0.6,3.6,3.6
			c-0.1,63.7-0.1,127.3,0,191c0,3-0.6,3.6-3.6,3.6c-61-0.1-122-0.1-183,0c-3,0-3.6-0.6-3.6-3.6c0.1-28.2,0.1-56.3,0.1-84.5
			c2.2-0.1,2,1.8,2.3,3.1c0.8,3,1.2,6,2,9c1.3,5.9,3.1,11.6,5.6,17c3.1,6.9,6.7,13.5,11.5,19.4c4.5,7,10.6,12.4,16.9,17.6
			c0.5,0.4,1.1,0.8,1.7,1.2c5.2,3.3,10,7.2,16,9.3c20.9,9.6,42.3,11.5,64.3,4.7c3.2-0.5,6.1-1.8,9.1-3c2.2-0.8,4.2-1.9,6.3-3
			c2.5-1.1,4.9-2.3,7.1-4c6.5-4.1,12.3-8.9,17.5-14.5c1.8-2.5,4.2-4.6,6.1-7c1.1-1.4,2.3-2.7,3.1-4.2c1.8-2.6,3.6-5.2,5-8
			c2.2-3.1,3.8-6.5,4.9-10.1c2.6-6.1,4.5-12.4,5.8-18.9c0.9-4.6,1.8-9.2,1.4-13.9c0-4.9,0-9.9,0-14.8c0.1-3.5-0.9-6.9-1.5-10.4
			c-1.3-6.7-3.5-13.2-6-19.6c-3.9-9.7-9.6-18.3-16.6-26c-3.9-3.8-7.4-8.2-12-11.3c-4.9-4.3-10.3-7.8-16.5-9.9
			c-2-1.8-4.3-3.1-7.1-3.5c-0.5-0.1-0.9-0.2-1.3-0.4c-2.4-1.3-5.3-1.6-7.8-2.8c-1.3-0.6-2.7-0.7-4.1-0.9c-0.5-0.1-1-0.2-1.4-0.3
			c-3.3-1.6-7-1.1-10.5-1.8c-5.9-1-11.8-1-17.5,0.8c-1.6,0.1-3.3-0.7-4.9-0.1c-0.4,0.1-0.9,0.2-1.4,0.3c-3.7,0.5-7.3,1.5-10.8,2.7
			c-1.1,0.4-2.2,0.7-3.3,1.1c-4.7,1.8-9.4,3.6-13.7,6.3c-0.4,0.2-0.8,0.4-1.2,0.6c-1.2,0.5-2.2,1.3-3.3,2c-1.5,0.8-2.9,1.5-4.2,2.7
			c-0.9,0.8-2,1.4-3,2c-0.5,0.4-0.9,0.8-1.3,1.1c-0.7,0.7-1.4,1.4-2.2,2.1c-0.6,0.6-1.3,1.1-2,1.6c-2.7,2.2-5.2,4.6-7.2,7.4
			c-0.2,0.4-0.5,0.7-0.8,1.1c-1.2,1.3-2.4,2.5-3.3,4c-0.2,0.4-0.5,0.7-0.8,1.1c-1.3,1.4-2.4,3-3.5,4.7c-0.8,1.1-1.4,2.2-2.1,3.3
			c-2.6,5.1-5.6,9.9-7.3,15.4c-0.9,2.6-0.9,5.4-2,7.9c-0.2,0.4-0.4,0.8-0.6,1.2c-0.7,1.1-1.2,2.3-1.4,3.6c-0.1,0.7-0.2,1.4-0.4,2.1
			C206.4,384,208.2,388.2,204,390z"/>
		<path class="st1" d="M204,390c2.5-2.9,1-6.9,3-10c2.9,2.1,2.6,5.1,2.4,8.1c0.2,2.7,0.5,5.3,2.3,7.5c2,2.9,1.3,5.3-2.1,5.9
			c-4,0.7-3.2,2.3-1.4,4.5c0.5,0.6,0.6,1.5,1.1,2.2c2.8,4.4,2.8,4.4-2.2,7.3c-2.4-0.5-1.1-3.5-3-4.5C204,404,204,397,204,390z"/>
		<path class="st2" d="M204,411c2.8,0,1.3,3.2,3,4c1.9,3.2,2.2,6.7,1.7,10.4c-0.3,0.6-0.7,0.8-1.3,0.7c-1.9-4.2-0.8-9-3.3-13
			C204,412.3,204,411.7,204,411z"/>
		<path class="st3" d="M208,426c-0.1-3.7-1.6-7.2-1-10.9c1.3-0.4,0.6-2.7,2.4-2.7c2,0,1.4-1.3,0.5-1.6c-2.8-0.9-1.7-4.7-4.5-5.9
			c-0.5-0.2-2.3-5.1,2.8-4.3c3.5,0.5,4.5-1.3,2.8-4.5c-0.4-2.9-1.5-5.5-3-8c1.1-2.9-0.1-5.4-1-8c0.1-0.7,0.2-1.3,0.3-2
			c1.4-0.6,1.2-2,1.7-3.1l0,0c2.1-0.4,2.8-2.9,5-3.2c3.4,0.4,1.3-2.7,2.4-3.8c0.3-1.1,0.7-2.2,1.2-3.2c-2.1,0.7-4,2-6.4,1.3
			c1.8-5.8,4.3-11.2,7.9-16c1.7-0.6,3.3,0.7,4.9,0.5c1.7,0.3,2.6-0.9,3.6-1.9c0.7-0.6,1.4-1.1,2.2-1.5c2-1.2,2.8-3.5,4.2-5.3
			c-1.5,1.3-2.3,3.7-4.8,3.6c-1.4-0.8-2.7-1.8-3.4-3.4c0.1-2.3,2.8-3,3.1-5.2l-0.1,0.1c2.8-2.9,5.8-5.5,8.3-8.7
			c0.6-0.5,1.2-1,1.9-1.5c1.2,0.2,2.5-0.8,3.6,0.2c1.6,1.8,4.9,2.2,3.6,6.1c-0.6,1.8,2.3,0.7,3.5,1.4c1.4,0.8,1.8-0.7,1.8-2
			c0-1.6-1.4-2.6-1.6-4c0-0.3,0.2-0.5,0.6-0.5c-0.4-0.1-0.6,0-0.7,0.5c-2.6-0.3-4.5-1.4-5.2-4c0.1-0.7,0.5-1.2,0.9-1.8
			c1.2-2,3.7-2.2,5.3-3.6c0.8-0.7,1.7-1.1,2.3-2l0,0c0.8-0.4,1.7-0.5,2.7-0.3c0.5,0.3,0.7,0.9,1.4,0.9c-0.4-0.2-0.8-0.4-1.1-0.8
			c0.2-1.7,1.4-2.1,2.7-2.3c1.8,0.6,3.4-0.5,5-0.6c0.1,0.2,0.2,0.3,0.2,0.3c0.2,0,0.3-0.1,0.3-0.3c0-0.1-0.1-0.2-0.4-0.2
			c-0.1-0.4,0-0.7,0.1-1c1-1.5,2.8-1.7,4.1-2.7c0.7-1,1.7-1,2.8-0.9c3.3-0.7,6.5-1.6,9.8-2.4c0.7-0.6,0.1,1.7,1.1,0.5
			c0.3-0.5,1-0.7,1.3-1.2l-0.1,0c0.8-0.2,1.4,0.2,1.8,0.8c0.9,2.2,2.5,2,3.9,0.7c4.6-4.3,10.1-2.5,15.2-2.6c0.3,0.6,0.4,1,0.2,1.3
			c-4.2,4.8-4.2,4.8,2.3,8.2c5.6,1.9,11.3,2.9,17.3,2.1c3.5-0.7,6.7,1,11.2,1.5c-3-2.1-5.2-2.5-7.7-2.4c-1.9,0.1-4,0.2-5.1-1.2
			c-2.3-2.8-4.3-1.3-6.5-0.3c-3,0.2-6,2-9.1,0.3c-0.6-0.6-1.1-1.2-1.5-1.9c-2.5-4.8-1.5-6.3,4-6.1c0.7,0,1.3-0.1,1.9-0.2
			c2.2,0.1,4.3,0.5,6.5,0.9c0.3,0,0.6,0,0.9,0.1c1.2,0.7,2.7,0.7,3.9,1.5c2.4,1.9,5.6,1.1,8.2,2.3c0.3,0,0.6,0,0.9,0.1
			c2.6,1,5.2,2,7.3,3.8c7,0.8,11.7,5.7,16.9,9.7c0.2,0.6,0.7,1.2,1,1.8c2.1,2.6,2.5,6.9,7.2,6.8c1.4,0.8,2.4,2.2,3.9,2.7
			c7.3,7.6,13,16.2,16.5,26.1c-1.8,3.3-0.4,6.9-0.9,10.2c-0.4,2.2,1.7,1.6,2.3,2.5c1.2,1.7,2.4,3.4,1.3,5.5c-1.1,2.2-3.1,2-5.3,0.9
			c0.3,1.5,1.3,2.6,1.6,3.9c0.6,2.3,1.1,4.9,0.2,6.9c-2.4,5.6,1.2,9.7,2.9,14.3c0.7,1.8,2.4,0.4,3.5,1.1c1.6,1.6,0.5,4.2,2,5.9
			c-0.1,0.9-0.4,1.8-1.1,2.4c-4.1,2.4-3.2,5.7-1.5,9.1c-0.2,2.6-0.4,5.1-2.3,7.7c-2.8-4.4-2.5-9-2.9-13.4c-0.2-1.2-1.1-1.6-2.2-1.6
			c-1.5-0.2-3,0.1-4.5-0.1c-2.1-1.3-4.2-0.7-6.2,0.3c-2.4,0.1-4.6-0.4-6.5-1.7c-0.4-0.1-0.9-1.5-1.1,0.1c-0.1,0.7,0.5,1.6,0,2.3
			c-0.6,0.4-1.2,0.6-1.9,0.6c-1.4-0.1-2.5-0.6-2.7-2.1c-0.2-1.7-1.4-1.3-2.5-1.3c-1.6-0.2-3.2-0.2-4.7-1c-0.4-0.3-0.6-0.7-0.6-1.2
			c0.1-0.7,0.6-1.3,1.1-1.7c2.4-1.3,5.2-2.2,5.8-5.5c3.1-5.4,3.8-11.1,1.8-17.1c0-0.5,0.2-0.9,0.4-1.4c0.4-0.7,1-1.2,1.4-1.9
			c0.3-0.5,1.1-1,0.5-1.5c-0.4-0.3-1.1,0.3-1.8,0.3c-2.9-0.8-4.1-4.6-7.7-4.3c-3.4-0.9-6.8-1-10.2-0.9c-1.4,0-2.8,0.1-4.1,0.2
			c-2.4,0.4-3.6,2.8-5.9,3.5c-4.8-1.3-8-6.4-7.7-12.1c0.3-0.6-1-0.1-0.3-0.1c-0.1,2.4-1.7,2.9-3.7,2.7c-2.4-1.3-3-3.7-4-5.9
			c-0.3-2.3-1.6-4-3.5-5.3c-1.5-1.5-3.3-2.1-5.4-2c-3-0.3-5.9-0.9-8.8-1.5c-1-0.5-1.6-1.2-1.7-2.3c0.4-1.4,1.5-2.4,2.7-3
			c0.3-0.1,0.5-0.2,0.6-0.3c0,0-0.1,0-0.4,0c-2.3,0.9-4.7,0.5-7,0.7c-0.5-0.1-0.9-0.2-1.3-0.4c-2.1-0.4-4.5-3.1-5.9,0.9
			c-0.4,1.2-1.2,2-2.5,2c-7.4-1.9-11.6,1.2-11.2,8.4c1.3,2.5-0.6,6,2.4,8c0.5,1.9,0.9,3.7-1.3,4.8c-1.9,0.2-3-1.1-4.2-2.3
			c-1.3-2.8-2.8-2.9-4.5-0.3c-2.8-0.6-5.6-0.7-8,1.2c-1.8-0.3-3.7-1.5-5.1,0.8c-0.4,0.2-0.8,0.4-1.2,0.5c-1.3,0.2-2.4,0.6-3.4,1.5
			c-1.5,1.2-3.8,1.2-4.7,3.1c-0.9,1.2-2,2.3-2.7,3.6c-0.2,0.4-0.5,0.7-0.7,1.1c-1,1.3-1.1,2.8-1,4.4c0,4.7-0.2,9.4,1.8,13.8
			c0.2,1.1,0.5,2.2,0.4,3.3c0,0.2-0.2,0.5-0.5,0.5c0.3,0.1,0.5,0,0.8-0.2c2.7,1.1,4.8,3.3,7.7,4.1c0.4,0.2,0.8,0.4,1.2,0.7
			c0.6,0.5,0.8,1.1,0.5,1.9c-2.8,2.4-6.3,2.9-9.5,4.2c-1.6,0-3.1,0.3-4.6,0.8c-1.7,0.5-2.2,2.2-3.2,3.4c-1.4,1.8-3.1,2.8-5.3,1.5
			c-0.3,0-0.5-0.2-0.4-0.6c-0.3,0.2-0.2,0.4,0.2,0.5c1.1,0.8,1.7,1.7,0.6,2.9c-1.4,0.4-2.8,0.8-4.1,1.3c-0.5,0-0.8-0.2-1.1-0.6
			c-0.2-0.4-0.3-0.9-0.3-1.3c0-1.1,0.3-2.2-0.3-3.3c0,0.8-0.3,1.4-0.9,1.9c-1.5,0.2-2-0.9-2.6-1.9c-1.5-2,1-5.6-2.7-6.6
			c-1.5-0.5-1.6,0.5-1.6,1.6c0,2.6-0.6,5.2-0.9,7.8c-0.1,1.4,0.2,2.8-1.5,3.1c-1.8,0.3-1.8-1.6-2.3-2.6
			C208.3,426.9,208.1,426.4,208,426z"/>
		<path class="st3" d="M371.1,463.4c-1.9,2.2-3.8,4.5-5.7,6.7c-6.9,4.7-12.1,11.5-19.6,15.3c-2.3,1.1-3.9-0.6-5.7-1.5
			c1.4,1.4,2.8,2.8,0.4,4.5c-2.6,1.6-5.5,2.5-8.2,3.8c-2.2,1.5-5.2,1.3-7.2,3.2c-22.7,7.1-44.8,5.3-66.3-5c-4.3-4.3-4.2-5,1.1-8.5
			c0.2-0.2,0.4-0.3,0.6-0.5c-0.4,0.3-0.8,0.6-1.2,0.9c-5.2,1.7-10.3,3.6-14.7-1.6c-0.1-0.3-0.2-0.7,0-1c4.4-4.9,4.4-4.9,0.1-9.9
			c-1-0.9-2.1-1.6-3.2-2.2c-2.2-1-3.9,0.2-5.6,1.4c-1.6,2.2-3.4,2.6-5,0.1c-1.6-2.5-3.9-4.4-5.3-6.9c-2.3-3.4-3.7-7.2-6.8-10.1
			c-1.2-1.1-1.7-2.8-0.7-4.5c0.8-0.4,1.7-0.5,2.3,0c3.9,3.6,7,1.8,9.8-1.4c1.2-0.4,2.3-0.4,3.4,0.1c1.6,2.7,2.4-0.7,3.7-0.5
			c5.4-0.4,10.8-0.9,16.1,0.3c1.1,0.6,1.4,1.6,1.3,2.7c-0.6,2.1-4.2,4.4,0.5,6.1c0.6,1.3-0.1,2.2-0.9,2.9c-1.4,1.3-1.2,2.5,0.2,3.6
			c1,0.6,2.1,1.6,3,0.4c0.5-0.7-1-1.1-1.4-1.7c-0.5-3,2.7-3.8,3.5-6.1c0.3-0.3,0.7-0.5,1.2-0.5c2.1,1.1,3.8-0.3,5.7-0.8
			c0.5-0.1,1.1-0.2,1.6-0.2c21.1-0.1,42.2,0,63.3-0.1c4.2,0.3,6.8-0.9,5.8-5.9c-0.3-1.7,0.9-4.2,2.6-2.8c3,2.5,6.1,0.7,9,1.4
			c4.5,1.1,9.2-0.4,13.8,1c1.6,0.8,2.2,2.4,2.8,3.9c1.6,4.2,2.9,8.5,6.1,11.8C371.4,462.4,371.3,462.9,371.1,463.4z"/>
		<path class="st4" d="M382,385c-1.4-1.3-2.2-2.8-1.8-5c1.9,0.5,4.2,2.4,5.4-0.1c1-2.2-0.4-3.9-2.8-4.8c-1.3-0.5-2-2.2-1-3.4
			c0.5-0.6,1.5-1.2,0.6-1.7c-3.7-2.5-2.2-4.3,0.5-6.2c0.5-0.3,0.6-1.1,0.8-1.7c3.5,6.1,5.5,12.8,6.3,19.8c0.2,3.5,0.9,6.8,1.4,10.2
			c0,1.1,0.1,2.1-0.2,3.1c-0.8,2.6,0.5,5.5-1.1,8c-5.2,0.7-7.6-1.6-7.6-7.2C382.7,392.3,384.1,388.6,382,385z"/>
		<path class="st5" d="M245,469c1.6,0.7,2.4,2.1,3.3,3.5c2.8,4.5,1.9,6.6-3.3,7.5c-0.6,0.5-1.4,0.3-2,0.9c-0.7,0.1-0.9-0.2-1-0.8
			c-0.7-1.4-1.9-2.5-2.3-4c0.7-2.7-1.4-1.1-2.3-1.4c-4.4-1-2.8-4-2.4-6.7c2.3-0.7,4.3-3.5,7-1C241.1,470.5,243.3,469.4,245,469z"/>
		<path class="st6" d="M311,307c-0.1,0.1-0.3,0.2-0.4,0.2c-6.7-1.2-6.2,2.4-4.5,6.8l0,0c-2.7-0.3-5.9,1.2-6.8-3.5
			c-0.8-3.8,3.6-2.6,3.8-5.1c-5.6-1.3-10.5-0.3-14.8,3.6c-2.7,2.4-4,1.4-4.1-2c0.6-1.5,1.9-1.1,3.1-1.1c6.3-2.3,12.7-2.5,19.1-0.9
			C307.2,307,310.5,303.7,311,307z"/>
		<path class="st7" d="M250,328c1.8,1.5,3,2.8,2.7,5.7c-0.3,3.6-1.5,3.5-3.9,2.1c-0.6-0.3-1-1.5-2-0.6c-1.2,1-2.5,1.3-3.4,0
			c-0.9-1.3,0.6-1.9,1.4-2.7c1.2-1,1-1.9-0.4-2.7c-1.1-0.6-2.5-1.1-2.5-2.8c-0.7-0.6-1.7-1-1.1-2.2c0.4-0.3,0.7-0.6,1.1-0.9
			c1-0.6,2-0.8,3,0C246.4,325.7,247.9,327.2,250,328L250,328z"/>
		<path class="st8" d="M371,462c-6-3.2-5.6-9.8-8-15c0.6-0.6,1.2-0.6,2-0.5c2.3,3,5.8,4.9,7.7,8.5c1-1.8,0.3-3.9,1.9-5.1
			c2-0.8,4.1-2,4.7,1.5c-1,2.9-2.7,5.4-4.8,7.6C373.1,459.8,372.5,461.5,371,462z"/>
		<path class="st9" d="M208,426c0.8,1.2,1.7,2.3,3.1,4.2c0.3-4.5,0.9-8.3,0.8-12c0-3.8,1.6-2.1,3.1-1.2c1.6,4.6,0.8,9.1-1.3,13.3
			c-1.2,2.3-1.3,4.2,0.3,6.3c1.3,1.8,2.6,3.9,1.2,6.4c-0.7,0.5-1.4,0.4-2.1-0.1c-2.7-5.4-4.6-11.1-5.8-17
			C207.5,426,207.8,426,208,426z"/>
		<path class="st10" d="M384,417c2,4.4,0.5,9.3,2.5,13.7c1.7-1.8,1.4-4.3,1.5-6.7c-0.5-2-0.5-3.7,2.1-4.1c0.4,0.8,0.5,1.5-0.1,2.2
			c-0.7,6.7-2.7,13-5.7,19.1c-0.4,0.3-0.8,0.4-1.3,0.1c-1.1-6.3-0.7-12.7-1.5-19C383.4,421.1,382.4,418.4,384,417z"/>
		<path class="st10" d="M243,480.9c0-1.8,1-1.3,2-0.9c2.6,2.5,5.1,4.7,9.2,2.3c1.5-0.9,3.9-0.2,5.8-0.3l0,0
			c-3.1,3.9-3.1,3.9-1.1,8.4C253,488.3,248,484.5,243,480.9z"/>
		<path class="st11" d="M214,372c-1.7,0.9-1.8,4.7-5.1,2.9c0.7-3,1.5-5.9,2.2-8.9c2.3-1.3,5.4-0.9,7.1-3.7c-0.8,2,0.6,4.1-1.2,5.7
			C215.5,369,215.4,370.9,214,372z"/>
		<path class="st12" d="M226,342c1.3,0.7,3,1,3,3c0.9,0.8,1.7,1.7,1,3c-0.7,0.3-1.3,0.7-2,1c-1.5,0.3-2.7,1.3-4,2
			c-2.1,1.7-3.4-0.1-5-1c0.6-1,1.2-2.1,1.8-3.1c2.6-0.7,3-3.1,3.9-5.2l0.3,0.2l-0.3-0.2C225.2,341.4,225.6,341.5,226,342z"/>
		<path class="st13" d="M213.1,443c0.6,0,1.3,0,1.9,0c1.2,0.7,1.6,2,2.4,3.1c0.3,0.6,0.6,1.2,0.6,1.9c0.1,2.7,2.2,4,3.8,5.8
			c2,2.2,2.8,5.4,4.2,8.2c-0.4,0.6-0.9,0.6-1.4,0.1C219.6,456.5,216,450,213.1,443z"/>
		<path class="st14" d="M383,441c0.4,0,0.9,0.1,1.3,0.1c-1.1,3.7-2.8,7.2-5.1,10.3c-1.5-2.5-3.4-1.2-5.2-0.4c-2,1.2-2.8-0.1-3.5-1.6
			c0-0.5,0-1,0.2-1.4C374.8,445.7,379.9,445.1,383,441z"/>
		<path class="st15" d="M224.6,462.1c0.5,0,0.9-0.1,1.4-0.1c1.7,2.2,3.5,4.3,5.1,6.6c1.8,2.4,2.9,1.5,3.9-0.6c1.2,1.9-1.5,5.8,3,6
			c2-0.7,1.3,1.4,2,2c1.3,1,1.9,2.4,2,4.1C235.2,475,229.2,469.3,224.6,462.1z"/>
		<path class="st16" d="M346,485c5.1-3.8,10.5-7.2,14.3-12.4c1.4-1.8,3.6-1.2,5.1-2.4c-5.2,6-11.2,11.1-18.2,14.9
			C346.7,485.5,346.3,485.5,346,485z"/>
		<path class="st17" d="M346,485c0.4,0,0.8,0.1,1.2,0.1c-2,2.1-4.5,3.2-7.1,4.1c-0.5-0.4-0.5-0.8-0.1-1.2c2.9-4.4-3.9-2.3-3.4-5.5
			C340.3,480.8,342.5,486,346,485z"/>
		<path class="st18" d="M355,327c0-0.8,0.1-1.6,0.1-2.4c4.7,3,8.6,7,12.1,11.3c-1.8,0.3-2.8-1.3-4.2-1.9
			C359.4,332.7,358.1,328.9,355,327z"/>
		<path class="st9" d="M256,317c-1,0-2.1-0.1-3.1-0.1c4.5-3.5,9.6-5.6,15.1-7.1c-1.3,1.1-2.6,2.1-4,3.2c-1.7,0.7-2.6,3.2-5,2
			C257.6,315,256.6,315.7,256,317L256,317z"/>
		<path class="st19" d="M311,307c-1.3-1.8-3.4-0.4-5-1.3c-0.1,0-0.1-0.3-0.1-0.4c0-0.1,0.2-0.3,0.3-0.4c3.7,0.2,7.6-0.3,10.9,2.1
			C315.1,307.7,313,307.7,311,307z"/>
		<path class="st20" d="M330.1,311c-3.2,0.1-6.5,0.6-9.1-2c-0.1-1,0.1-1.6,1.3-1.1C324.8,309.1,328,308.6,330.1,311z"/>
		<path class="st21" d="M237,328.2c-1.7,3.9-4.8,6.5-8.3,8.7C230.9,333.4,233.7,330.6,237,328.2z"/>
		<path class="st22" d="M391,395c0-1,0-2,0-3c0.2-0.4,0.5-0.4,0.8,0c0.6,5.3,0.6,10.7,0.1,16c-0.7,0.3-1.1,0.1-1.4-0.5
			C389.6,403.3,390.6,399.2,391,395z"/>
		<path class="st23" d="M391,408c0.3,0,0.6,0,0.9,0c0.4,4.8-0.3,9.5-1.9,14.1c0-0.7-0.1-1.4-0.1-2c-1.5-1.7-0.9-3.4,0.1-5
			c0.3-0.7,0.6-1.3,0.9-2C389.9,411.3,389.8,409.6,391,408z"/>
		<path class="st24" d="M282.9,305.8c-0.3,0.4-0.6,0.8-0.9,1.2c-0.3,0.5-0.7,0.5-1,0c-3.3,1.3-6.7,1.9-10.3,1.9
			C274.6,307.1,278.7,306.1,282.9,305.8z"/>
		<path class="st25" d="M391.8,392c-0.3,0-0.5,0-0.8,0c-0.8-3.3-2.1-6.7-0.9-10.2C391.4,385.1,391.8,388.5,391.8,392z"/>
		<path class="st26" d="M325.1,495.4c1.4-3,4.6-2.3,6.9-3.4c0.7-0.5,1.5-0.6,2.2,0.1C331.4,493.9,328.3,494.8,325.1,495.4z"/>
		<path class="st27" d="M334.2,492.1c-0.7,0-1.4-0.1-2.2-0.1c2.2-2.3,5.5-2.2,8-4c0,0.4,0,0.8,0.1,1.2
			C338.3,490.5,336.4,491.7,334.2,492.1z"/>
		<path class="st28" d="M224.7,341.7c-0.8,2.1,1.2,6.3-3.9,5.2C221.9,345,222.9,343.1,224.7,341.7z"/>
		<path class="st27" d="M251,319c-1.7,1.3-3.3,2.6-5,4c-1,0.3-1.3-0.1-1.1-1.1c1.3-1.5,2.8-2.5,4.7-3
			C250.1,318.5,250.6,318.6,251,319z"/>
		<path class="st29" d="M338.3,314.9c-2.6-1-5.2-2-7.3-3.8C333.9,311.5,336.8,311.8,338.3,314.9z"/>
		<path class="st30" d="M226,342c-0.4-0.1-0.9-0.2-1.3-0.3c0.8-2.2,2.4-3.6,4.1-5C229.4,339.3,226.7,340.1,226,342z"/>
		<path class="st31" d="M371,462c0.8-1.4,1.7-2.6,3.4-2.9c-0.6,1.8-1.9,3.1-3.3,4.4C371.1,462.9,371,462.5,371,462z"/>
		<path class="st32" d="M287.1,305.8c-0.7,1.2-2.2,0.3-3.1,1.1c-0.4-0.4-0.8-0.8-1.1-1.2C284.3,305,285.7,304.2,287.1,305.8z"/>
		<path class="st33" d="M208.9,374.9c0.2,1.4,1.4,3.5-1.7,3.1C207.3,376.7,207.5,375.4,208.9,374.9z"/>
		<path class="st9" d="M251,319c-0.5-0.1-0.9-0.1-1.4-0.2c0.8-1.2,1.9-1.7,3.3-2C253,318.2,252.3,318.9,251,319z"/>
		<path class="st34" d="M244.9,321.9c0.4,0.4,0.7,0.7,1.1,1.1c-0.3,0.3-0.7,0.7-1,1c-1,0-2,0-3,0C243,323.3,243.9,322.6,244.9,321.9
			z"/>
		<path class="st34" d="M240.9,324.8c0.4,0.7,0.7,1.4,1.1,2.2c-1-0.3-2.2,1.3-3.1-0.3C239.5,326.1,240.2,325.5,240.9,324.8z"/>
		<path class="st35" d="M322.3,307.9c-0.4,0.4-0.8,0.8-1.3,1.1c-1-0.6-2-1.3-3-1.9C319.6,306.6,321,306.8,322.3,307.9z"/>
		<path class="st36" d="M208,388c2.1,2.3,5.4,4.1,3,8C207.5,394.3,209,390.7,208,388z"/>
		<path class="st37" d="M316.9,367.2c1.1,1.9,2.2,3.9,3.3,5.8c4.9,4.9,3.1,10.8,2.5,16.6c-0.6,1.9-1.5,3.7-2.4,5.5
			c-0.8,1.4-1.8,2.7-2.7,4.1c-0.6,0.7-1.3,1.3-2,1.8c-1.2,0.8-2.2,1.8-3.3,2.7c-0.4,0.3-0.8,0.6-1.3,0.8c-6.1,3.5-12.7,3.2-19.3,2.5
			c-2.4-0.8-4.6-2.1-6.9-3.1c-2.6-2-4.6-4.6-6.7-7.1c-3.1-5.3-5.3-10.7-4-17c0.8-2.2,1.1-4.6,1.9-6.9c0.1-0.4,0.3-0.9,0.5-1.3
			c1.1-2.2,2.8-4.1,4.3-6c1.4-1.1,2.8-2.3,4.3-3.4c1.5-0.8,3-1.6,4.4-2.4c6.3-3,12.6-0.8,18.8,0.2c2.3,0.4,3.7,2.3,5.7,3.2
			C315.5,364.2,316.2,365.7,316.9,367.2z"/>
		<path class="st38" d="M352.1,412c-0.4,0.3-0.8,0.7-1.1,1c-0.7,0.5-1.4,1-2.2,1.1c-3,0.2-5.9,0.3-8.9-0.1c-1-0.2-1.9-0.7-2.9-1.1
			c-1.1-0.5-2.3-0.8-3.5-1.2c-1.8-0.7-2.9-2.1-3.7-3.7c-2.8-4.8-5.1-9.8-3.8-15.6c1.2-3.5,2.1-7.3,5.5-9.6c1.6-1.6,3.8-2.1,5.6-3.4
			c1.4-0.5,2.7-1.3,4.3-1.1c3.3,0,6.6-0.4,9.8,1c4.5,1.2,7.4,4,8.7,8.5c2.8,6.7,2.1,13-1.8,19.1C356.6,409.2,354.7,411,352.1,412z"
			/>
		<path class="st38" d="M247.7,413.8l-0.4,0.1c-3.3-2.5-7.4-4-9.3-8.1c-2.6-4.9-2.3-10.2-2-15.5c0.6-1.5,0.8-3.1,2-4.2l0,0.1
			c0.8-1.6,2.1-2.8,3.4-4c5.5-4.7,11.8-5.5,18.5-3.3c5.6,2.5,9.2,6.7,10.9,12.6c0.5,2.3,0.4,4.7,0.3,7.1c-0.4,3.1-1.5,6-3.1,8.7
			c-1.4,1.8-3.3,3.1-5.1,4.5c-2,1.2-4.3,1.9-6.5,2.4C253.5,414.6,250.6,414.1,247.7,413.8z"/>
		<path class="st39" d="M238.9,418.7c3.4-1.3,6.7-2.5,10.1-3.8c2-1.6,4.3-0.7,6.5-1c1.1,0,2.2-0.1,3.3,0.1c0.5,0.1,0.9,0.2,1.4,0.4
			c7.4,2.1,8,3.7,3.9,10.2c-4.4,5.8-5.9,12.8-7.9,19.5c-1.1,1.6-2.7,1.8-4.4,1.8c-8.3-0.1-16.6,0.2-24.9,0c-1.2-0.4-2-1.2-2.5-2.3
			c-1.3-4.1,0.5-7.8,1.5-11.5c0.1-0.5,0.3-0.9,0.5-1.4c1.7-3.7,4.8-6.2,7.1-9.4C235,420,236.9,419.1,238.9,418.7z"/>
		<path class="st40" d="M383,441c-1.7,6.3-6.9,6.6-12,7c-0.6-1.3,0-2.4,0.4-3.5c2.5-6.6-1.2-18.2-7.4-23c-1.2-0.9-3.2-1.2-2.9-3.4
			c0.7,0,1.3,0,2,0c1.4-0.6-1.9-2.9,1-3c2.3,0.7,4.7,1.3,7,2c4.7,3.5,6.5,8.9,8.7,13.4c-0.4-4.1-3.9-8.2-2.7-13.4
			c1.7-1.1,3.3-1.1,5,0c1.3,1.7,1.2,3.3,0,5c3.1,4.2,0,9.6,2.5,14C385.1,437.1,383.6,439.3,383,441z"/>
		<path class="st41" d="M332.1,383.2c-2.3,2.6-3.4,5.8-4.9,8.8c-0.4,0.2-0.8,0.5-1.1,0.8c-2,1.1-2.3,3.7-4.3,4.7
			c-1.5,0.8-2.7,2.7-4.8,1.4c0-1.7,1.3-2.8,2.2-4c1.5-1.3,2.5-2.8,2.2-4.9c1.3-5.8,1.1-11.6-1.2-17.2c2.1-0.1,3-1.8,4.9-4
			c-0.9,6.8,2.6,10.2,6.9,13c0.3,0.3,0.4,0.5,0.3,0.8C332.3,383.1,332.2,383.2,332.1,383.2z"/>
		<path class="st40" d="M274,373c-2.4,0.2-3.4-1-2.9-3.2c0.3-1.6,0.3-3.2-0.1-4.8c3.3-3.9,6.6-7.8,12-9c1-0.4,1.6-1,2-2
			c2.1-2,4.6-1.2,7-1v0c0.8,1.1,3-0.3,3.2,1.8c-0.6,0.8-1.2,0.6-1.7,0.6c0.7,0.5,1.9-0.4,2.9,0.1c0.2,0.1,0.3,0.3,0.5,0.4
			c0.3,0.7,0.7,1.3,1,2c-0.5,0.6-1.2,0.5-1.9,0.5c-1.6,0.3-3.3-1.3-4.9,0.3c-0.6,1.1-1.7,1.1-2.7,1.4c-1.4,1.4-3.5,1.8-4.8,3.3
			c-0.8,1.4-2.7,1.4-3.4,2.8c-0.5,1-1,1.9-2.1,2.5C276.5,369.8,276.5,372.6,274,373z"/>
		<path class="st42" d="M217,447c-1.3-1-1.8-2.4-2-4c0.1-1.4,0-2.8-0.9-3.8c-3.8-3.8-3-7.9-0.6-11.8c2.1-3.4-0.3-7.2,1.6-10.4
			c2.2-1.8,2.9-0.6,3,1.5c0.1,1.8,0,3.6,0,5.5c1.1,2.7,1.5,5.9,4.2,7.7c0.4,0.7,0.4,1.3,0.2,2.1c-2.3,2.4,0.6,6-1.8,8.3
			c-2.7,0.8-0.5,3.9-2.4,5C217.8,447.4,217.4,447.4,217,447z"/>
		<path class="st41" d="M269.9,391.1c-2.1-4.8-5.2-8.7-9.9-11.2c-2.9-2.5-7-0.7-10-2.9c1.4-1.1,2-2.8,3-4.5c1.5,0.9,1.2,3.2,3,3.5
			c3.5-1.5,6.1,1.1,9,2.1c2.7,1.5,6,2.3,7.4,5.5c0.2,0.4,0.4,0.9,0.5,1.4c0.2,1.8-0.3,3.4-1.2,4.9
			C271.3,390.5,270.7,391,269.9,391.1z"/>
		<path class="st43" d="M361,418c8.7,4.3,11,12.6,12.8,21.1c0.5,2.2,0,4.3-1.8,5.9c-0.5,0.3-0.9,0.2-1.3-0.2
			c0.5-11.1-4.1-19.5-13.5-25.4c-1.3-0.8-2.5-1.6-2.7-3.4c0.2-0.8,0.5-1.4,1.5-1.1c1.7-0.7,5.1-4.7,3.4,1.7
			C359.1,417.8,360.2,417.8,361,418z"/>
		<path class="st44" d="M382,385c1.7-1.4,1.9-0.1,2,1.2c0.1,3.3,0.2,6.6,0,9.8c-0.3,4.5,1.6,6.8,6,7c0.8,1.7,0.7,3.3,0,5
			c-1.9-0.3-3.5,0.8-5.7,1.7c0.6-3.5,0.8-6.5-3-8.3c-1.9-0.9-0.5-3.8-0.1-5.5C382,392.2,382,388.6,382,385z"/>
		<path class="st45" d="M316,313c1.9-2.2,3.5-4.1,5.7-0.1c0.9,1.6,3.1,2,4.9,1.3c3-1.1,5.4,1,8.1,1.4c2.1,0.3-0.3,2.8,1.3,5.4
			c-4.6-2.9-8.3-3.4-12-4c-1.8,0-3.6,0.2-5.3-0.1C316.6,316.5,314.9,315.7,316,313z"/>
		<path class="st46" d="M283,356c-4.2,2.7-7.5,6.7-12,9c-2.4-3.7,0.2-6.5,2.4-8.4C276.1,354.3,279.6,352.3,283,356z"/>
		<path class="st6" d="M377,417c1.1,4.7,3.4,9.2,2.6,14.7c-2.9-4.9-5.7-9.8-8.6-14.7C373,414.2,375,414.2,377,417z"/>
		<path class="st47" d="M272,385c0-0.3,0-0.7,0-1c-0.7-2.5-0.7-4.9,1-7c0.3-1.3,0.7-2.7,1-4c1.7-1.4,1.3-4.4,4-5
			c0.5,1.5-0.7,2.7-0.9,4.1l0,0c-1.7,2-1.3,4.7-2.1,7c-0.9,6.5,1.3,12.2,4.1,17.9c-0.7,0.8-2.1,0.6-2.5,1.8
			c-0.2,0.4-0.5,0.7-0.9,0.9c-1.7,0.8-3.2,1-3.4-1.5c0.1-0.7,0.3-1.3,0.7-1.9c1.2-2,0.8-4.1,0.2-6.2
			C272.6,388.4,273.4,386.4,272,385z"/>
		<path class="st44" d="M330,368c5.5-1,10.6,0.4,15.8,2.1c1.4,0.5,2.8,1.3,2.7,2.6c-0.1,2-2,1.2-3.2,1.3c-2.1,0.2-4.1-0.4-5.5-1.8
			c-3.3-3.2-6.5-2.6-9.8-0.1C328.9,370.7,328.9,369.3,330,368z"/>
		<path class="st6" d="M316,313c0.2,2.2,1.5,3,3.5,3c1.5,0,3.2-0.5,4.5,1c-5.6,2-15.5,0.4-18-3c0,0,0,0,0,0
			C309.4,314.1,312.6,312.4,316,313z"/>
		<path class="st40" d="M273,377c-0.1,2.4,0.4,4.8-1,7c-1.7-2.5-4.9-3-7-5c-0.4-1.8,1.3-1.8,2.1-2.6c0.6-0.5,1.2-1.1,1.9-1.4
			C270.3,375.7,271.7,376.3,273,377z"/>
		<path class="st48" d="M268,377c-1,0.7-2,1.3-3,2c-3-1-6-2-9-3c2.2-3.9,5.1-2.9,8-1C265.7,374.9,267.3,375.1,268,377z"/>
		<path class="st49" d="M296,358c0.7,0,1.3,0,2,0c3.4-0.6,6.6,1.1,10,1c0.6,0.8,2.6,0.2,2.1,2.2c-0.5,0.2-0.9,0.2-1.3-0.1
			c-6.6-1.8-13.2-2.5-19.8,0c-1.9,0.1-1.6-0.9-1-2c1.1-0.1,2.3,0.2,3-1C292.7,357.2,294.3,357.3,296,358z"/>
		<path class="st50" d="M250,377c3.4,0.7,7.3-0.2,10,2.9c-6.8-1.9-13.2-1.1-19,3.1c-0.3-0.2-0.4-0.4-0.3-0.7
			c0.1-0.2,0.2-0.4,0.3-0.4c-0.1-3.6,3.6-2.3,5-4C247.2,377,248.8,377.7,250,377L250,377z"/>
		<path class="st51" d="M234,422c-2.3,3-4.6,6.1-6.9,9.1c-1.2-0.7-1.7-1.7-1.2-3.1c1.6-1,0.3-2,0-3l0,0c2.5,0.3,4.5-0.3,5.5-3
			c0.6-1.6,1.4-3,3.5-3C235.7,420.3,234.1,421,234,422z"/>
		<path class="st52" d="M230,348c-0.3-1-0.7-2-1-3c3-1.2,3.2-5.4,7.3-6.5C235.1,342.7,233.4,345.9,230,348z"/>
		<path class="st53" d="M390,415c0,1.7,0,3.3-0.1,5c-0.6,1.3-1.3,2.6-1.9,4C384.4,420.6,385.2,417.2,390,415z"/>
		<path class="st54" d="M214.8,384.1c2,0.6,2.4,2,2.2,3.5c-0.2,1.5,1.8,3.1,0,4.6c-0.6,0.5-1.2,0-1.7-0.5c-2.1-2-0.9-4.7-1.5-7
			C213.7,384.6,214.5,384.3,214.8,384.1z"/>
		<path class="st41" d="M268,377c-1.3-0.7-2.7-1.3-4-2c0-1.9,0.1-4,2.7-3.8c2.2,0.2,2.3,2.1,2.3,3.8C269,375.8,268.8,376.6,268,377z
			"/>
		<path class="st55" d="M330,368c0,1.3,0,2.7,0,4c-0.2,1.2,0.1,3.3-1.7,2.6c-2.4-0.8-1.6-3.8-1.8-5.6
			C326.3,366.6,328.4,367.2,330,368z"/>
		<path class="st56" d="M360,388c-2.3-3.1-4.9-5.8-8.2-7.9c0.2-0.6,0.8-0.7,1.2-1.1c3.6-0.1,4.7,3.3,7,5c1.2,1.2,0.9,2.5,0.2,3.9
			L360,388z"/>
		<path class="st57" d="M222,432c-5.6-0.6-3.7-4.8-4-8c0.7,0.7,1.3,1.3,2,2c1.9-0.6,1.3,1.4,2,2c0,0.3,0,0.7,0,1
			C222.8,430,222.9,431,222,432z"/>
		<path class="st58" d="M390,408c0-1.7,0-3.3,0-5c0.4-2.6-1-5.5,1-8c0,4.3,0,8.7,0.1,13c0,1.7-0.1,3.3-0.1,5
			C388.3,411.8,388.2,410,390,408z"/>
		<path class="st6" d="M292,353c-2.2,1.4-4.6,0.9-7,1c-1.7-2-0.8-2.8,1.4-3C288.5,350.9,290.5,351.2,292,353z"/>
		<path class="st54" d="M240,373.9c-0.1,1.3-0.3,2.7-2.1,2.6c-1.4,0-1.8-1.2-1.8-2.5c0-1.4,0.3-2.8,2-2.7
			C239.5,371.5,239.8,372.7,240,373.9z"/>
		<path class="st59" d="M355,327c4,0.8,5.1,4.9,8,7C357,335.5,357.8,329.1,355,327z"/>
		<path class="st60" d="M214,372c-0.1-2.1-0.2-4.3,3-4c-0.2,1.6-0.2,3.2-0.5,4.8c-0.1,0.7-0.5,1.9-1.5,1.3
			C214.4,373.8,214.3,372.7,214,372z"/>
		<path class="st6" d="M295,355c-1-0.7-2-1.3-3-2c2.7-0.3,5.3-0.7,8-1c0.6,0.7,0.6,1.3,0,2c-1,0.6-1.4,2.2-3,2h0
			C296.5,355.3,295.5,355.7,295,355z"/>
		<path class="st52" d="M362.4,380c-1.4-0.1-2.3-0.4-2.2-1.7c0.1-1.3,1-2.1,2.2-2.1c1.2,0,2.3,0.6,2.2,2
			C364.5,379.6,363.3,379.8,362.4,380z"/>
		<path class="st42" d="M226,428c0.4,1,0.8,2.1,1.2,3.1c0,0,0-0.1,0-0.1c-1.4,0.9-1,4.1-3.9,3.2c-1.5-1.7,0.3-3.5-0.2-5.2
			C223.8,427.9,224.3,426.2,226,428z"/>
		<path class="st42" d="M222,428c-0.7-0.7-1.3-1.3-2-2c0.2-1.8-0.4-3.8,1.1-6.4C222,423,223.3,425.3,222,428z"/>
		<path class="st52" d="M283.5,317.3c-1.2,1.2-2.7,0.7-4.1,0.6c-0.7-0.1-1.2-0.7-0.9-1.4c0.8-1.7,2.3-1.6,3.8-1.1
			C283.1,315.6,283.7,316.2,283.5,317.3z"/>
		<path class="st61" d="M360.1,387.9c-0.1-1.3-0.1-2.6-0.2-3.9c1.4-0.2,0.6-3.3,2.4-2.3c1.2,0.7,1.8,2.8,0.1,4.3
			C361.7,386.7,360.9,387.2,360.1,387.9z"/>
		<path class="st62" d="M238.1,405.8c3.1,2.7,6.2,5.4,9.3,8.1c-3.3-0.8-5.8-3-8.4-4.9l0,0C238.7,407.9,238.4,406.9,238.1,405.8z"/>
		<path class="st63" d="M256,414.9c-2.3,0-4.7,0.1-7,0.1c-0.4-0.4-0.8-0.8-1.2-1.2c3-1.5,6.2-0.3,9.2-0.7
			C257.5,414.1,256.7,414.4,256,414.9z"/>
		<path class="st64" d="M353,379c-0.4,0.4-0.8,0.7-1.2,1.1c-3.5-0.9-7.2-1.3-10.8-1.2c-0.3-0.2-0.4-0.4-0.3-0.6
			c0.1-0.2,0.2-0.3,0.3-0.3C345,377.8,349,378.1,353,379z"/>
		<path class="st65" d="M267.9,313.6c1.7-1.6,3.5-3.3,5.7,0C271.5,313.6,269.7,313.6,267.9,313.6z"/>
		<path class="st66" d="M382,422c0-1.7,0-3.3,0-5c0.7-1,1.3-1,2,0C383.1,418.6,386.1,421.7,382,422z"/>
		<path class="st67" d="M367.5,343.6c0.6,0.9,1.4,1.7,1.8,2.7c0.3,1-0.5,1.5-1.4,1.4c-1.1-0.1-1.7-1-1.7-2
			C366,344.8,366.4,344,367.5,343.6z"/>
		<path class="st68" d="M224,351c0.3-2.8,1.7-3.3,4-2C227,350.3,226.9,353.4,224,351z"/>
		<path class="st69" d="M352.1,412c2-1.7,4-3.3,6-5C357.4,410.2,355.4,411.9,352.1,412z"/>
		<path class="st70" d="M350.9,331.3c0,1-0.5,1.5-1.4,1.6c-0.9,0-1.8-0.4-1.8-1.3c0-1,0.8-1.9,1.8-1.9
			C350.4,329.6,350.8,330.4,350.9,331.3z"/>
		<path class="st54" d="M316.9,367.2c-1-1-2-2-3-3c-0.4-0.6-1-0.9-1.2-1.6c0.1-0.2,0.2-0.4,0.2-0.6
			C316,362.5,317.2,364.3,316.9,367.2z"/>
		<path class="st71" d="M250,328c-0.5-1.2-1.4-2.4,0.3-3.4c0.7-0.4,1.3-0.1,1.5,0.6C252.2,326.7,251.8,327.8,250,328
			C250,328,250,328,250,328z"/>
		<path class="st61" d="M364,415c-1.2,0.7,0.7,2.5-1,3c-0.9-1.1-2.8-2.1-0.7-3.8C363.5,413.2,363.9,413.7,364,415z"/>
		<path class="st72" d="M234,422c-1.3-1.5,1-1.9,1-3c1.3,0.3,2.5-1.6,3.9-0.3C237.3,419.8,235.7,420.9,234,422z"/>
		<path class="st73" d="M332.1,383.2c0-0.4-0.1-0.8-0.1-1.2c1.5-1.4,3.1-2.4,5-3c0.3,0.2,0.5,0.5,0.4,0.7c-0.1,0.2-0.2,0.4-0.3,0.4
			C335.4,381.1,333.7,382.2,332.1,383.2z"/>
		<path class="st74" d="M349,413c0.7,0,1.3,0,2,0c0,0.3,0,0.6,0,1c0.7,0.6,1.6,1.1,1,2.2c-0.6,0.4-1.3,0.5-2,0.4
			c-1.1-0.3-2.3-0.6-3.1-1.5C346.4,413.3,348.4,413.8,349,413z"/>
		<path class="st75" d="M352,415.8c-0.3-0.6-0.7-1.2-1-1.9c1.7,0.3,3.6-0.7,5,1c-0.3,0.4-0.7,0.7-1,1.1
			C353.9,416.9,352.9,416.8,352,415.8z"/>
		<path class="st51" d="M226,425c-1.6-0.2-2.2-1.1-1.8-2.6c0.1-0.3,0.8-0.8,0.9-0.7C226.6,422.4,225.8,423.9,226,425
			C226,425,226,425,226,425z"/>
		<path class="st76" d="M223,429c2.2,1.7-0.2,3.3,0,5c0,0-0.3,0.3-0.3,0.3c0,0-0.4,0-0.4,0c0,0-0.3-0.3-0.3-0.3c0-0.7,0-1.3,0-2
			c0-1,0-2,0-3C222.3,429,222.7,429,223,429z"/>
		<path class="st9" d="M264,314c1.2,0.1,2.4,0.4,2.6,1.8c0.1,0.8-0.6,1.2-1.3,1C263.7,316.5,264.1,315.1,264,314L264,314z"/>
		<path class="st12" d="M230.7,351.8c-0.7,0-1.5-0.1-1.3-0.9c0.1-0.5,0.7-1,1.1-1.3c0.1-0.1,0.8,0.5,1,0.9
			C231.9,351.2,231.5,351.7,230.7,351.8z"/>
		<path class="st77" d="M259,315c1.7-0.7,3.3-1.3,5-2c0,0.3,0,0.7,0,1c0,0,0,0,0,0C262.4,314.4,261.2,317.4,259,315z"/>
		<path class="st54" d="M310,361c-0.7-0.7-1.3-1.3-2-2c2.2,0.1,4.4,0.2,5,3c0,0,0,0,0,0C311.7,362.6,310.9,361.6,310,361z"/>
		<path class="st78" d="M300,354c0-0.7,0-1.3,0-2c1.2,0.1,2.7-0.3,3.3,1.4C302.3,354.4,301.1,353.8,300,354z"/>
		<path class="st79" d="M241,382c0,0.3,0,0.7,0,1c-0.8,1.2-1.6,2.4-2.9,3.1C238,384,239.4,382.9,241,382z"/>
		<path class="st80" d="M300.3,355.4c2-0.5,3.7-0.5,3.7,0.6c0,1.9-1.2,0.1-1.9,0.2C301.7,356.1,301.3,355.8,300.3,355.4z"/>
		<path class="st81" d="M238.1,386c-0.2,1.6-0.9,3-2,4.2C235.9,388.4,236,386.8,238.1,386z"/>
		<path class="st36" d="M211,388.4c-0.9-0.3-0.8-0.8-0.6-1.2c0.3-0.5,0.8-0.9,1.2-1.3c0.1,0.3,0.3,0.7,0.2,0.9
			C211.7,387.4,211.3,387.9,211,388.4z"/>
		<path class="st82" d="M337,380c0-0.3,0-0.7,0-1c1.2-0.7,2.5-1.2,4-1c0,0.3,0,0.6,0,0.9C339.7,379.3,338.3,379.7,337,380z"/>
		<path class="st41" d="M250,377c-1.1,1.4-2.6,0.9-4,1C247.1,376.6,248.4,376.1,250,377z"/>
		<path class="st83" d="M239,409c-0.5,1-1.1,1.9-2.4,2.3C236.1,409.2,237.7,409.3,239,409C239,409,239,409,239,409z"/>
		<path class="st84" d="M229.5,422.4c-0.2,0.3-0.5,0.6-0.8,0.9c-0.2-0.3-0.6-0.7-0.7-1c-0.1-0.4,0.1-1.3,0.3-1.3
			C229.2,420.9,229.2,421.7,229.5,422.4z"/>
		<path class="st85" d="M281,307c0.3,0,0.7,0,1,0c0.2,1.1,0.4,2.1,0.7,3.3C280.6,309.7,281.1,308.3,281,307z"/>
		<path class="st9" d="M256,317c1.6,0.1,2.3,1,2.2,2.6C256.7,319.3,256.6,317.9,256,317C256,317,256,317,256,317z"/>
		<path class="st86" d="M371,445c0.3,0,0.7,0,1,0c-0.3,1-0.7,2-1,3c0,0.3,0,0.7,0,1c-2.2,0.9-3.8-0.2-5.1-1.8
			c-4.1-1.4-8.4-0.3-12.5-0.7c-1.8-0.1-3.6,0.4-5.3-0.4c-2.8-0.3-5.9,3.2-8.5-1.3c-0.7-1.3-1.7,1.3-1.3,2.3c1.6,5-0.9,6.6-5.2,6.9
			c-0.9-0.7-1.9-0.5-2.9-0.5c-20.4,0-40.8,0-61.3,0c-1,0-2-0.2-2.9,0.5c-0.3,0-0.7,0-1,0c-1.3,0.7-2.7,1-4,0c-0.3,0-0.7,0-1,0
			c-1.1-0.5-1.6-1.2-1.1-2.4c0.5-0.7,1.1-1.1,2-1.1c2.7,0.2,5.4,0.3,8.1,0.1c18.8-0.1,37.6,0,56.4-0.1c10,0,10,0,9.6-9.8
			c2.8-1.5,2.2-4.1,2.1-6.6c0-1,0.1-2,1.2-2.4c0.6,0,1,0.3,1.4,0.7c1.6,2,2.1,4.5,2.7,6.8c0.7,3.1,2.5,4.4,5.6,4.3
			c5.8,0,11.5-0.1,17.3,0C367.4,443.6,369.5,443.5,371,445z"/>
		<path class="st87" d="M332,460c-4.7,1-9.4,0.5-14.2,0.5c-14.8,0.1-29.7,0.1-44.5,0c-1.8,0-3.6,0.5-5.3-0.5c-0.5-0.7-0.6-1.3,0-2h0
			c1.4-1.2,3.1-1,4.8-1c17.8,0,35.6,0,53.4,0c1.6,0,3.4-0.2,4.8,1C331.3,458.7,331.7,459.3,332,460z"/>
		<path class="st88" d="M331,458c-21,0-42,0-63,0c0.3-2.5,2.3-2,3.9-2c18.4,0,36.9,0,55.3,0C328.7,456,330.7,455.5,331,458z"/>
		<path class="st6" d="M331.6,483.2c0.5,1.3,2.2,0.5,2.9,1.4c0.6,0.7,0.5,1.5,0,2.3c-0.5,0.6-1.1,0.9-1.7,0.2
			c-2.2-2.8-4-0.8-5.8,0.4c-3.5,2.3-6.1,0.2-9.1-1.3c-1.8-0.9-1.9-2-1.9-3.5c0-0.8-0.2-1.8,0.9-2.1c0.5-0.1,1.3,0.3,1.6,0.7
			c2.4,3.8,6.3,1.7,9.5,2.6c1,0.3,1.9-0.5,2-1.7c0.2-2,1.6-3.3,3.3-2.8c2.2,0.7,1,1.8-0.4,2.5C332.3,482.2,331.5,482.2,331.6,483.2z
			"/>
		<path class="st42" d="M259,452c0.3,0.7,0.7,1.3,1,2c0.8,3.5-3,3.8-4,6c0.3,1.6-0.4,2.3-2,2c-3.8-0.7-3.3-2.7-1.1-4.7
			c0.8-0.7,2.1-0.9,2.1-2.3c-1.3-1.5-2.3-3-1-5c0-1,0-2,0-3c-0.3-0.4-0.3-0.9,0-1.3c0.7-0.2,1.4-0.5,2.1-0.4c2,0.8,2.7,2.7,3.4,4.6
			C259.6,450.7,259.5,451.4,259,452z"/>
		<path class="st89" d="M220,442c1-1.4,0.5-2.7,0.2-4.2c-0.3-1.5-0.7-3.5,1.8-3.8c0,0,0,0,0,0c0.7,0.7,0.9,1.6,0.7,2.6
			c-0.1,0.5-0.3,1.1-0.3,1.6c0.6-0.3,0.1-1.4,1.1-1.4c2.1,1.4,0.6,3.4,1,5.1c-0.7,1.2,0.3,2.4-0.1,3.7c-0.3,0.3-0.5,0.7-0.6,1.1
			c0,0.1,0,0.2,0,0.2c0.2-0.3,0-0.8,0.4-1.1c0.6-0.4,1.2-0.5,1.8-0.3c0.9,0.1,1.8,0,2.7,0.1c0.7,0.2,1.2,0.7,1.3,1.4
			c-4.1,6-3.1,6.3-9.4,2.1c-0.8-0.5-1.7-0.8-2.6-1.1c-0.3-0.3-0.7-0.7-1-1c0.3,0,0.7,0,1,0C219.6,445.7,220.9,444.3,220,442z"/>
		<path class="st90" d="M266,454c1.1-1.4,2.7-1,4.2-1c19.6,0,39.1,0,58.7,0c1.4,0,3-0.4,4.2,1C310.7,454,288.3,454,266,454z"/>
		<path class="st44" d="M351,473c-2,0-3.7-0.3-3.9-2.7c-0.1-1.4,0.5-3.2,1.8-3c2.4,0.3,5.2-3.9,7.1,0.7
			C354.4,469.7,353.6,472.2,351,473z"/>
		<path class="st91" d="M351,473c1.6-1.7,1.9-4.8,5-5c0.6,1.2,3.1-0.7,2.8,1.6c-0.2,2.2-1.5,4-3.7,4.8
			C353.4,475,351.6,475.8,351,473z"/>
		<path class="st52" d="M234,461c-0.1,1.5-0.2,3.2-1.8,2.7c-3.5-1.1-2.2-5.1-3.8-7.5c-0.7-1,1.1-2.5,2-2
			C233.1,455.8,233.2,458.8,234,461z"/>
		<path class="st52" d="M332,460.1c1.3-1.5,2.7-2.8,4.8-3.2c1.7-0.2,4-1.4,4.6,0.7c0.6,2.2-2,3.2-3.7,3.6
			C335.9,461.8,333.5,462.1,332,460.1z"/>
		<path class="st92" d="M230,447c-0.3-0.3-0.7-0.6-1-0.9c8.3-1,16.7-0.9,25,0c0,0.3,0,0.6,0,0.9c-6,0-12,0-18,0
			c-0.7,0.6-1.3,0.6-2,0C232.7,447,231.3,447,230,447z"/>
		<path class="st90" d="M254,462c1-0.4,1.6-1,2-2c1.3,0.2,3.2-0.7,3.8,1.4c0.3,1.1-0.5,2-1.5,2.3C256.6,464.1,254.5,464.8,254,462z"
			/>
		<path class="st93" d="M348,446.1c6.3,0.5,12.7-1.2,18.9,0.9c-0.7,0.6-1.3,0.6-2,0c-0.7,0-1.3,0-2,0
			C358,446.5,352.9,448.1,348,446.1z"/>
		<path class="st41" d="M254,450c0.3,1.7,0.7,3.3,1,5c-1.6,0.9-3.2,1.2-3.8-1C250.6,451.8,251.5,450.2,254,450z"/>
		<path class="st15" d="M245,469c-2,4.5-4.1,0.7-6.6,0.3c0.8-2,3.1-0.8,3.6-2.3C243,467.7,244,468.3,245,469z"/>
		<path class="st41" d="M268.7,487c-0.2,1.2-0.9,2.3-2.1,2.2c-0.7,0-1.8-1.1-2-1.9c-0.5-1.6,1.2-1.7,2.1-2
			C267.7,485.1,268.5,485.8,268.7,487z"/>
		<path class="st10" d="M260,482c0.7-3.1,2.7-1.7,5-1.8C263.4,482.7,261.5,481.7,260,482C260,482,260,482,260,482z"/>
		<path class="st1" d="M234,447c0.7,0,1.3,0,2,0c-0.4,1.2,0.9,3.6-1.3,3.4C232.5,450.3,233.4,448.3,234,447z"/>
		<path class="st90" d="M268,458c0,0.7,0,1.3,0,2c-1.6,1.7-3.3,0.2-3.3-0.7C264.7,457.1,266.8,458.4,268,458z"/>
		<path class="st90" d="M261,454c1.3,0,2.7,0,4,0C263.7,454.7,262.3,457.5,261,454z"/>
		<path class="st94" d="M329.3,489.8c0.2,0.6-0.1,1-0.6,0.9c-0.4-0.1-0.9-0.5-1-0.8c-0.1-0.3,0.2-1,0.4-1.1
			C329,488.4,329,489.4,329.3,489.8z"/>
		<path class="st95" d="M240,476c-0.7-0.7-1.3-1.3-2-2c1.1-1.6,2.9-0.7,3.4-0.1C242.2,474.8,240.2,475.1,240,476z"/>
		<path class="st3" d="M365,447c0.7,0,1.3,0,2,0c1.3,0.7,2.7,1.3,4,2c0.6,1.3,1.6,2,3,2c1,1.3,0.1,2.8,0.4,4.3
			c0.2,1.3-1,2.2-2.1,2.3c-1.4,0.1-1.2-1.2-1.2-2.2c0-1.4-0.5-3.2-1.6-3.3C366.2,451.7,366,449.1,365,447z"/>
		<path class="st96" d="M369.9,456.9c0-0.2-0.1,0.8-1.2,0.7c-0.9-0.1-1.4-0.8-1.5-1.7c-0.1-1,0.3-1.6,1.3-1.7
			C369.5,454.2,369.9,454.9,369.9,456.9z"/>
		<path class="st3" d="M317,399c4.4-0.5,5.2-5.7,9-7c1,3-0.4,6.2,1,9.4c1,2.4,2,4.7,3.8,6.6c1,1,2.1,2.1,3.1,3.1c3,3.5,3,4.7-1,5.7
			c-3.2,0.7-3.6,4.8-7,4.7c-2.2-0.1-4-0.9-5.3-2.7c-0.3-2.2-2.6-2.1-3.8-3.2c-3.4-2.1-7.1-3.2-10.9-3.8c-3-0.8-6.2-0.8-9.2-1.4
			c-1-0.6-2.5-1-1.7-2.8c2.3-1.3,4.9-0.3,7.3-0.9c3.4-0.7,7.1-0.9,9.5-4l0,0c1.3-0.5,2.2-1.5,3.1-2.5
			C315.7,399.9,316.3,399.5,317,399z"/>
		<path class="st4" d="M295,408c0.7,0.7,1.3,1.3,2,2c-2.5,2.3-6.1-0.7-8.5,1.7c-2.3,1.7-5.5,1.5-7.6,3.5c-0.4,0.3-0.7,0.5-1.1,0.7
			c-2.3,0.9-4.1,2.5-5.5,4.5c-2.2,1.6-4,3.6-6.1,5.3c-1.7,0.9-3.8,3.3-4.4-0.9c4.3-6.4,3.7-8-4.1-9.8c-1-3,2.6-2.5,3.1-4.3
			c1.4-1.2,2.8-2.4,4.2-3.7c1.9-1.7,3-3.9,3.8-6.3c0.1-0.9,0.1-1.9,0.8-2.7c0.4-0.3,0.9-0.3,1.3,0c0.2,2.7,2,0.6,3,1
			c0.7,0.5,1.5,0.8,2.4,1.1c-0.8-0.9-2-1.1-2.4-2.1c0.3-2.7,2.1-0.5,3.1-1c2,2,3.9,4,5.9,6.1c1.9,1.4,4.2,2.2,6.2,3.4
			c0.9,0.1,1.7,0,2.6,0.1C294.4,406.8,294.9,407.3,295,408z"/>
		<path class="st97" d="M294,407c-1,0-2,0-3,0c-0.3-0.3-0.4-0.5-0.3-0.7c0.1-0.2,0.2-0.4,0.3-0.4c7.2,0.7,14.3,0.5,20.9-3
			c-1.6,4.5-5.3,4.1-8.9,4.1C300,407.8,297,407.8,294,407z"/>
		<path class="st98" d="M288,359c0,0.8,0.2,1.6,1,2c-1.1,1.1-2.4,1.8-3.9,2c-0.7,0.5-1.4,0.6-2.1,0C284.7,361.7,286.3,360.3,288,359
			z"/>
		<path class="st99" d="M277.1,372.1c-0.3-1.5,0.2-2.8,0.9-4.1c0.7-0.7,1.4-1.3,2.1-2c0.5-0.4,0.9-0.4,1.2,0.2
			C279.9,368.1,278.5,370.1,277.1,372.1z"/>
		<path class="st100" d="M291,405.9c0,0.4,0,0.7,0,1.1c-2-1.3-4.7-1.6-6-4C287.4,403.2,289.3,404.4,291,405.9z"/>
		<path class="st101" d="M281.3,366.2c-0.4-0.1-0.8-0.1-1.2-0.2c0.4-1.6,2.2-1.8,3-3c0.7,0,1.4,0,2.1,0
			C284.1,364.4,283,365.6,281.3,366.2z"/>
		<path class="st99" d="M275,379.1c-0.1-2.6-0.5-5.2,2.1-7C276.8,374.5,276.2,376.9,275,379.1z"/>
		<path class="st102" d="M310,361c1,0.3,2,0.7,3,1c0.3,0.7,0.6,1.5,1,2.2c-1.7-1.1-3.4-2.1-5.1-3.2C309.2,361,309.6,361,310,361z"/>
		<path class="st103" d="M321.4,390.2c1.2,2.5,0.2,4-2.2,4.9C319.9,393.4,320.6,391.8,321.4,390.2z"/>
		<path class="st104" d="M315,400.4c-0.3,1.8-1.3,2.6-3.1,2.5C312.6,401.7,313.6,400.8,315,400.4z"/>
		<path class="st51" d="M325.9,421.1c2.3-2.7,4.7-5,8.4-6.1c2.7-0.7-1.1-2.5-0.3-4c1.1-0.1,2.2-0.2,3,0.9c0.5,1,1.8,1.7,1.6,3.2
			c-0.4,1.5-1.7,1.7-2.8,2.3c-0.4,0.2-0.8,0.4-1.2,0.6c-1.5,0.6-2.4,1.9-3.2,3.2c-0.7,0.7-1.5,1.1-2.4,1.4c-0.9,0.3-1.9,0.3-2.7-0.3
			c-0.3-0.2-0.4-0.5-0.4-0.8C325.8,421.3,325.9,421.1,325.9,421.1z"/>
		<path class="st105" d="M330.8,408c-3.6-1.8-6.4-8.3-5.5-12.7c0.2-1.1,0.4-2.2,0.6-3.3c0.4,0,0.8,0.1,1.2,0.1
			C326,397.9,328.6,402.9,330.8,408z"/>
		<path class="st106" d="M349,413c-0.7,0.6-1.3,1.3-2,1.9c-1.7,1.7-3.7,1.4-5.7,0.9c-1.2-0.7-2.9-1-2.3-3
			C342.4,412.9,345.7,412.9,349,413z"/>
		<path class="st107" d="M339,412.9c0.6,0.7,1.3,1.4,1.9,2.1c-0.9,0.9-1.8,1-2.9,0.3c0-1.2-2.2-1.6-1.1-3.2
			C337.7,412.3,338.4,412.6,339,412.9z"/>
		<path class="st47" d="M272,398c0,1,0,2,0,3c-1.9,0.5-1.2-1.3-1.7-1.9c-0.1-2.7-0.2-5.3-0.3-8c0.4-0.4,0.7-0.7,1.1-1.1
			C273.8,392.4,273.7,395.1,272,398z"/>
		<path class="st108" d="M270.2,399.1c0.6,0.6,1.2,1.3,1.7,1.9c-0.7,2.7-2.3,4.8-4.9,6C268.2,404.3,269.2,401.7,270.2,399.1z"/>
		<path class="st109" d="M262.9,410.7c0,2.1-3,2.1-2.9,4.3c-0.4,0.4-0.7,0.4-1.2,0.1c-0.9-0.1-1.9-0.1-2.8-0.2
			c0.3-0.6,0.6-1.2,1-1.8C259,412.3,260.9,411.5,262.9,410.7z"/>
		<path class="st110" d="M264,425c1.3,3.2,2.6-0.6,4,0c1.5,2.8-1.2,4.3-2.1,6.3c-1.1,1.5-1.7,3.2-2.2,5c-0.9,2.1-1.2,4.4-2.2,6.5
			c-0.3,0.3-0.6,0.5-1.1,0.6c-1.3,2,0.9,4.9-1.5,6.7c-1-1.3-2-2.7-3-4c-0.7-1-0.6-2.1,0-3.1c0.3-7.1,2.9-13.3,7.2-18.8
			C263.9,424,264.4,424.1,264,425z"/>
		<path class="st111" d="M256,442.9c0,1,0,2.1,0,3.1c-0.7,0-1.3,0.1-2,0.1c-8.3,0-16.7,0-25,0c-1,0-2-0.1-3-0.1
			c-0.2-0.3-0.3-0.5-0.2-0.7c0.1-0.2,0.2-0.4,0.3-0.4c8.6,0.1,17.3,0.1,25.9,0.3C253.9,445.2,255,444.4,256,442.9z"/>
		<path class="st112" d="M264,425c-0.3-0.3-0.5-0.6-0.8-0.9c3.5-5.9,3.5-5.9-4.4-9c0.4,0,0.8-0.1,1.2-0.1c2.8,0.1,5.9,0.1,6.8,3.5
			C267.6,421.1,266.9,423.6,264,425z"/>
		<path class="st51" d="M224,443c-0.3-2,0.8-4.2-1-6c-0.7-1-0.7-2,0-3c0,0,0,0,0,0c2.2,0.1,2.2-2.7,4.1-2.9c-0.7,4-2.3,7.8-2.1,11.9
			C224.7,443.3,224.3,443.3,224,443z"/>
		<path class="st113" d="M224,443c0.3,0,0.7,0,1,0c0.4,0.6,0.7,1.3,1.1,1.9c0,0.4,0,0.7,0,1.1c-0.7,0-1.3,0-2,0l0,0
			C224.3,445,222.8,444,224,443z"/>
		<path class="st114" d="M378.1,436.1c1.4,0.1,2.1,0.9,2.2,2.1c0.1,1.5-1.2,1.7-2.4,1.7c-1.1,0-1.8-0.6-1.8-1.8
			C376,436.7,376.8,436.1,378.1,436.1z"/>
		<path class="st3" d="M296,358c-1.7,0-3.3,0-5,0C292.7,356.2,294.3,356.7,296,358z"/>
		<path class="st3" d="M295,355c0.8,0,1.6,0.2,2,1c-1.3,0-2.7,0-4.2,0C293.4,354.7,294.3,355.2,295,355z"/>
		<path class="st115" d="M220,442c2.9,3.3,2.6,4-2,5C218.3,445.2,217.6,443,220,442z"/>
		<path class="st116" d="M216.9,434.1c-0.2,0.7-0.2,1.5-1.1,1.4c-1.2-0.1-1.7-1-1.7-2c0-0.9,0.6-1.5,1.6-1.2
			C216.9,432.5,216.8,433.4,216.9,434.1z"/>
		<path class="st40" d="M272,398c0.2-2.7-0.2-5.4-1-8c0.3-1.7,0.7-3.3,1-5c2.3,1,2,3.1,2,5c0.8,2.3,0.8,4.7,0,7
			c-0.3,0.3-0.7,0.7-1,1C272.7,398,272.3,398,272,398z"/>
		<path class="st39" d="M371,445c-8.5,0-16.9,0-25.4,0.2c-2.4,0-3.5-0.6-4-3.2c-0.6-3.4-1.8-6.7-2.7-10c-1.3-2.6-1.1-6.1-4.6-7.3
			c-1-0.7-1.7-1.6-2-2.8c-0.2-1.7,0.4-2.9,2.1-3.4c1.4-0.3-0.4-1.3,0.4-1.7l0,0c5-1.4,10-2.1,15.2-1c0.6,0,1.3-0.1,1.9-0.1
			c1,0.1,2,0.2,2.9,0.3c5.8,4.3,12.1,8.2,14.8,15.5C371.4,435.9,373.3,440.3,371,445z"/>
		<path class="st117" d="M276,398c1.7,0.6,3.8,0.7,3.1,4c-0.9-1.5-3-1-3.1-3C276,398.7,276,398.3,276,398z"/>
		<path class="st4" d="M274,397c0-2.3,0-4.7,0-7C275.6,392.3,275.6,394.7,274,397z"/>
		<path class="st118" d="M350.1,415.9c-5.1-0.5-10.1,0.9-15.2,1c1.1-0.6,2.1-1.2,3.2-1.8c1-0.1,1.9-0.2,2.9-0.3c2,0,4,0,6.1,0
			C348.1,415.1,349.3,414.9,350.1,415.9z"/>
		<path class="st42" d="M223,434c0,1,0,2,0,3c0,0.6-0.1,1.2-0.1,1.9c-0.3,0-0.6,0.1-0.9,0.1c0-1.7,0-3.3,0-5
			C222.3,434,222.7,434,223,434z"/>
		<path class="st37" d="M260.9,442.8c-0.1-2.5,0.6-4.7,1.8-6.9c1.5-1.3,1.3-3.4,2.3-4.9c0.5-2.3,3-3.6,3-6.1c1.7-2.1,3.3-4.3,6-5.2
			c1.5-2.3,3.8-3.4,6-4.7l0,0c3-2.4,6.9-2.5,10.2-4.1c5.1-0.5,10.2-1.2,15.3,0.3c4.3,0.5,8.4,1.8,12,4.2c1.2,0.8,2.7,1.1,3.6,2.5
			c1.1,1.8,3.3,2.1,4.8,3.2c0,0.3,0,0.6,0.1,0.8c1.7,1.1,3.4,2,4.5,3.8c1.1,1.7,2.2,3.3,3.1,5.1c0.7,1.4,1.4,2.8,2,4.2
			c0.4,1.3,1.1,2.6,0.3,3.9c0.4,2.6,0.7,5.3,1.1,7.9c0.5,3.9-1.2,5.3-5.1,5.2c-16.3-0.1-32.7-0.1-49-0.1c-5,0-10-0.1-15-0.1
			c-1.9-1.2-4.5,0.5-6-1.1C259.8,448.6,259.2,445.8,260.9,442.8z"/>
		<path class="st119" d="M336,439c-0.4-1.2-0.8-2.5-1.1-3.7c-0.3-0.6-0.4-1.2-0.3-1.9c1.4-0.3,1.7-1.6,2.4-2.5
			c0.7-0.1,1.3,0,1.2,0.9c-0.4,2.4,1.3,4.6,0.2,7.2C337.1,441.7,336.7,438.8,336,439z"/>
		<path class="st120" d="M260.9,442.8c-0.9,5.6,1.8,8.3,7.1,9.1c-2.7,0-5.5,0.7-7.9-1.1c-0.9-2.6-0.9-5.2,0-7.7
			C260.4,443,260.6,442.9,260.9,442.8z"/>
		<path class="st118" d="M338.1,431.8c-0.3-0.3-0.7-0.7-1-1c-2.4-1.7-2.7-4.1-2.2-6.7c4.6,0.9,4.7,4.3,4.2,7.9
			C338.7,431.9,338.4,431.9,338.1,431.8z"/>
		<path class="st121" d="M260.1,443.1c0,2.6,0,5.2,0,7.7c-0.4,0.4-0.7,0.7-1.1,1.1c0-0.7,0-1.3,0-2c0-2.6,0-5.2,0.1-7.8
			c0-0.1,0.3-0.2,0.3-0.2C259.6,442.4,259.9,442.8,260.1,443.1z"/>
		<path class="st122" d="M224,446c0.3,0.6,0.7,1.2,1,1.8c-0.7,0-1.9,0.2-2.2-0.2C222.4,446.7,223.3,446.4,224,446
			C224,446,224,446,224,446z"/>
		<path class="st123" d="M306,411.7c-5.4-1.1-10.7-0.7-16,0.2c-0.5-0.6-1.5-0.1-2-0.9c2.6-3.7,6-0.3,9-1c3.1-0.9,6.1-0.3,9,1
			c0.3,0.2,0.4,0.3,0.3,0.5C306.2,411.6,306.1,411.7,306,411.7z"/>
		<path class="st124" d="M306,411.7c0-0.2,0-0.5,0-0.7c4.5,0,8.5,1.2,12,4c0.3,0.2,0.4,0.4,0.3,0.6s-0.2,0.3-0.3,0.3
			C314,414.4,310.2,412.5,306,411.7z"/>
		<path class="st125" d="M294,407c3,0,6,0,9,0c-2.5,2-5.3,0.5-8,1C294.7,407.7,294.3,407.3,294,407z"/>
		<path class="st126" d="M318,416c0-0.3,0-0.6,0-0.9c1.1,1,3.4,0.5,3.1,2.9C320.1,417.3,319,416.6,318,416z"/>
		<path class="st127" d="M288,411c0.8,0,1.5,0.1,2,0.9c-3.3,1.1-6.6,2.1-10,3.2C281.6,411.6,285.4,412.6,288,411z"/>
		<path class="st128" d="M280.1,415c-1.5,2.3-4,3.2-6,4.7C274.7,416.5,277.2,415.6,280.1,415z"/>
		<path class="st88" d="M334.8,424.1c0.7,2.2,1.5,4.5,2.2,6.7c-0.3,1.1,0.6,3.3-2.1,2.2c-0.9-0.5-1.3-1.5-2.3-1.9
			c-1-1.6-1.9-3.2-2.9-4.8c-0.2-1.5-1.7-2.7-0.8-4.3c0.5-0.9,1.3-1,2.2-1.1c1-0.4,1.3,0.5,1.8,0.9
			C333.6,422.6,334.2,423.3,334.8,424.1z"/>
		<path class="st118" d="M333,421.9c-0.6-0.3-1.2-0.6-1.8-0.9c-0.6-3.1,1.5-3.6,3.7-4c0.2,0.8,2.7,1.7-0.2,2.3
			C333.5,419.5,333.1,420.7,333,421.9z"/>
		<path class="st129" d="M329,422c0.7,1.4,1.2,2.8,0.8,4.3c-1.4-1.3-3-2.4-3.8-4.3C327,422,328,422,329,422z"/>
		<path class="st120" d="M265,431.1c-0.1,2-0.3,3.9-2.3,4.9C263.1,434.1,263.5,432.3,265,431.1z"/>
		<path class="st118" d="M338,420.6c0.7,0.4,1.6,0.5,1.2,1.3c-0.1,0.3-0.7,0.7-1.1,0.7c-0.8,0.1-1.1-0.6-1-1.3
			C337.2,421,337.7,420.8,338,420.6z"/>
		<path class="st130" d="M332.7,431.1c1.4-0.2,2.2,0.4,2.3,1.9c0,0.8-0.1,1.5-0.1,2.3C334.2,433.9,333.4,432.5,332.7,431.1z"/>
	</g>
</g>
</svg>
