<?xml version="1.0" encoding="utf-8"?>
<!-- Generator: Adobe Illustrator 23.0.5, SVG Export Plug-In . SVG Version: 6.00 Build 0)  -->
<svg version="1.1" id="Capa_1" xmlns="http://www.w3.org/2000/svg" xmlns:xlink="http://www.w3.org/1999/xlink" x="0px" y="0px"
	 viewBox="0 0 595.3 841.9" style="enable-background:new 0 0 595.3 841.9;" xml:space="preserve">
<style type="text/css">
	.st0{fill:#FFFFFF;}
	.st1{fill:#417630;}
	.st2{fill:#3B6D2E;}
	.st3{fill:#417732;}
	.st4{fill:#417731;}
	.st5{fill:#427732;}
	.st6{fill:#437530;}
	.st7{fill:#437733;}
	.st8{fill:#427531;}
	.st9{fill:#407632;}
	.st10{fill:#407431;}
	.st11{fill:#407731;}
	.st12{fill:#427532;}
	.st13{fill:#447632;}
	.st14{fill:#477334;}
	.st15{fill:#467535;}
	.st16{fill:#457533;}
	.st17{fill:#437532;}
	.st18{fill:#429650;}
	.st19{fill:#5AAE64;}
	.st20{fill:#477736;}
	.st21{fill:#5AAA63;}
	.st22{fill:#417332;}
	.st23{fill:#447834;}
	.st24{fill:#417B33;}
	.st25{fill:#4B7237;}
	.st26{fill:#446B2F;}
	.st27{fill:#437531;}
	.st28{fill:#407732;}
	.st29{fill:#3C682F;}
	.st30{fill:#476437;}
	.st31{fill:#477635;}
	.st32{fill:#446C34;}
	.st33{fill:#497937;}
	.st34{fill:#3F6733;}
	.st35{fill:#71AB79;}
	.st36{fill:#437833;}
	.st37{fill:#406A32;}
	.st38{fill:#40682B;}
	.st39{fill:#3A6D2E;}
	.st40{fill:#3B6A2F;}
	.st41{fill:#497C38;}
	.st42{fill:#427630;}
	.st43{fill:#54AD65;}
	.st44{fill:#407633;}
	.st45{fill:#56AD66;}
	.st46{fill:#57AB63;}
	.st47{fill:#3F7731;}
	.st48{fill:#3E7731;}
	.st49{fill:#447432;}
	.st50{fill:#3F7430;}
	.st51{fill:#437334;}
	.st52{fill:#457331;}
	.st53{fill:#5DA761;}
	.st54{fill:#53AF66;}
	.st55{fill:#53AE65;}
	.st56{fill:#417532;}
	.st57{fill:#58AC65;}
	.st58{fill:#54AE65;}
	.st59{fill:#54AB63;}
	.st60{fill:#3F7730;}
	.st61{fill:#53AE66;}
	.st62{fill:#447431;}
	.st63{fill:#407730;}
	.st64{fill:#427432;}
	.st65{fill:#57AB61;}
	.st66{fill:#56AB64;}
	.st67{fill:#407733;}
	.st68{fill:#437431;}
	.st69{fill:#56AA66;}
	.st70{fill:#5BA65D;}
	.st71{fill:#3D7A33;}
	.st72{fill:#3E7A31;}
	.st73{fill:#52AD63;}
	.st74{fill:#417330;}
	.st75{fill:#44732F;}
	.st76{fill:#58AA60;}
	.st77{fill:#487130;}
	.st78{fill:#446F30;}
	.st79{fill:#3F722F;}
	.st80{fill:#3C7E36;}
	.st81{fill:#54AE66;}
	.st82{fill:#3D7A34;}
	.st83{fill:#488B49;}
	.st84{fill:#3E934F;}
	.st85{fill:#447430;}
	.st86{fill:#3E7832;}
	.st87{fill:#55AD68;}
	.st88{fill:#437533;}
	.st89{fill:#407831;}
	.st90{fill:#42712F;}
	.st91{fill:#57AA60;}
	.st92{fill:#3D7A32;}
	.st93{fill:#3F7831;}
	.st94{fill:#447338;}
	.st95{fill:#42732F;}
	.st96{fill:#437331;}
	.st97{fill:#447931;}
	.st98{fill:#467734;}
	.st99{fill:#3E712F;}
	.st100{fill:#54AD63;}
	.st101{fill:#3F7B36;}
	.st102{fill:#417735;}
	.st103{fill:#54AD67;}
	.st104{fill:#3E7833;}
	.st105{fill:#447334;}
	.st106{fill:#458A44;}
	.st107{fill:#52B068;}
	.st108{fill:#479156;}
	.st109{fill:#55AE64;}
	.st110{fill:#53AF65;}
	.st111{fill:#40924E;}
	.st112{fill:#5AAA62;}
	.st113{fill:#4A8743;}
	.st114{fill:#50B063;}
	.st115{fill:#407C37;}
	.st116{fill:#56AA67;}
	.st117{fill:#439250;}
	.st118{fill:#3E944E;}
	.st119{fill:#57AA67;}
	.st120{fill:#50B164;}
	.st121{fill:#398B49;}
	.st122{fill:#50B066;}
	.st123{fill:#40904E;}
	.st124{fill:#43904F;}
	.st125{fill:#41914E;}
	.st126{fill:#419151;}
	.st127{fill:#458F4F;}
	.st128{fill:#50B064;}
	.st129{fill:#5AB06B;}
	.st130{fill:#449051;}
	.st131{fill:#41934F;}
	.st132{fill:#42914E;}
	.st133{fill:#53B167;}
	.st134{fill:#51B168;}
	.st135{fill:#54AD68;}
	.st136{fill:#52AE65;}
	.st137{fill:#57A866;}
	.st138{fill:#3C8F48;}
	.st139{fill:#448E4E;}
	.st140{fill:#55AC66;}
	.st141{fill:#51AE65;}
	.st142{fill:#51B066;}
	.st143{fill:#56AC67;}
	.st144{fill:#56AB67;}
	.st145{fill:#419350;}
	.st146{fill:#58B16A;}
	.st147{fill:#439151;}
	.st148{fill:#50B166;}
	.st149{fill:#3F8B47;}
	.st150{fill:#55AC65;}
	.st151{fill:#57A962;}
	.st152{fill:#428C50;}
	.st153{fill:#58A05C;}
	.st154{fill:#55AC67;}
	.st155{fill:#4FB066;}
	.st156{fill:#40944E;}
	.st157{fill:#409650;}
	.st158{fill:#469552;}
	.st159{fill:#448F51;}
	.st160{fill:#459050;}
	.st161{fill:#429250;}
	.st162{fill:#56AF60;}
	.st163{fill:#56AC68;}
	.st164{fill:#3F924E;}
	.st165{fill:#51B064;}
	.st166{fill:#53AC66;}
	.st167{fill:#41924F;}
	.st168{fill:#3D944E;}
	.st169{fill:#51B068;}
	.st170{fill:#53A663;}
	.st171{fill:#41904F;}
	.st172{fill:#52B066;}
	.st173{fill:#54AC67;}
	.st174{fill:#55AD67;}
	.st175{fill:#3E924D;}
	.st176{fill:#54A864;}
	.st177{fill:#55AB66;}
	.st178{fill:#438F51;}
	.st179{fill:#419250;}
	.st180{fill:#52B065;}
	.st181{fill:#56AB68;}
	.st182{fill:#418F4E;}
	.st183{fill:#54AA66;}
	.st184{fill:#51A763;}
</style>
<g>
	<g>
		<path class="st0" d="M230,386c0-26.7,0-53.3,0-80c62,0,124,0,186-0.1c3.4,0,4.1,0.7,4.1,4.1c-0.1,56.7-0.1,113.3,0,170
			c0,3.4-0.7,4.1-4.1,4.1c-60.7-0.1-121.3-0.1-182,0c-3.4,0-4.1-0.7-4.1-4.1c0.2-26,0.1-52,0.1-78c2.2-0.2,2.2,1.5,2.6,3
			c-0.6,9,3,17.1,6.1,25.2c2,5.4,4.9,10.4,8.7,14.9c2.3,3.5,4,7.4,7.8,9.8c0.8,0.4,1.5,0.9,2,1.6c0.5,0.7-0.4,1.9,0.8,2.4
			c1.1,1,2,2.1,3.5,2.5c0.9,0.3,1.6,0.7,2.3,1.3c2.2,1.9,3.9,4.3,6.6,5.6c2.4,0.8,4.2,2.7,6.3,4c3.1,2.1,6.7,3.1,10.2,4.5
			c2.8,1,5.6,1.9,8.5,2.4c2.8,0.8,5.5,1.5,8.4,1.6c6.5,1.1,13.1,1,19.6,0.4c1.3-0.3,2.6-0.4,3.9-0.5c1,0,1.9-0.2,2.9-0.5
			c0.7-0.2,1.4-0.3,2.1-0.4c3.7-0.6,7.2-1.7,10.5-3.3c0.6-0.3,1.3-0.5,2-0.6c1.6-0.2,2.9-0.9,4.2-1.8c4.2-2.1,8.3-4.4,12.3-7
			c1.7-1,2.8-2.8,4.6-3.7c1.8-1,3.3-2.3,4.6-3.9c0.8-1.1,1.5-2.2,2.6-3.1c4-2.8,7-6.5,9.2-10.8c3.1-4,5.8-8.3,7.8-13
			c0.5-1.1,1-2.1,1.4-3.2c1.4-3.2,2.4-6.5,3-9.9c1.5-6.2,3.5-12.3,3.3-18.8c0-3.1,0-6.2,0-9.2c-0.1-2.7,0.3-5.4-0.5-8.1
			c-0.3-1.3-0.4-2.6-0.5-3.9c-0.4-4.2-2.4-8-3.5-12c-0.2-0.7-0.3-1.4-0.4-2.1c-0.1-1.8-1.5-3.2-1.8-5c-0.3-1.5-0.8-2.9-1.6-4.2
			c-0.2-0.4-0.4-0.8-0.6-1.2c-1.1-2.4,0.2-4,1.6-5.7c0-1.9-1.6-1-2.5-1.4c-0.7-0.1-1.3-0.2-2-0.4c-0.9-0.3-1.7-0.8-2.4-1.4
			c-3.4-4.2-6.2-8.8-10.1-12.5c-2-2.5-4.6-4.1-7.1-5.9c-1-1.3-2.2-2.1-3.8-2.3c-1.4-0.8-2.2-2.3-3.6-3c-0.7-0.6-1.3-1.3-2-1.9
			c-5-3-10.3-5.6-15.8-7.5c-5.2-1.6-10.4-3.4-15.9-3.7c-1.5,0-3,0.4-4.5-0.1c-4.2-1.5-8.4-1.2-12.7-0.4c-1.3,0.3-2.5,0.4-3.8,0.4
			c-4.1,0-7.8,1.5-11.7,2.4c-2.8,0.7-5.5,1.6-8.1,2.9c-2.8,0.9-5.6,2-7.9,4c-3.8,2-7.5,4.3-10.8,7.1c-2.1,0.7-3.7,2.2-5.1,3.8
			c-1.8,1.7-3.5,3.4-5.1,5.2c-3.2,2.9-5.9,6.3-8.4,9.8c-1.2,1.6-2.3,3.3-3.2,5.2c-1.1,1.8-2.3,3.5-3.1,5.5
			c-4.3,9.2-7.3,18.9-8.7,28.9C231.7,385.1,231.5,386.3,230,386z"/>
		<path class="st1" d="M275.9,473c-2.5-0.4-3.4-3.3-6-3.6c-1.1-1.4-2.1-2.8-2.7-4.5c-0.7-2.1-2.3-2.5-4.2-1.7
			c-0.6-0.4-1.2-0.7-1.8-1.1c-1.6-0.8-2.6-2.4-4.1-3.2c-1.9-0.6,0.4-1.3,0-1.9c-0.5-0.6-0.5-1.3-0.4-2c1.1-2,2.4-2.2,4-1
			c-1.4-1.1-2.7-1.8-4.1,0.5c-0.3,0.7-0.8,1-1.4,1.2c-4.5-1.8-6.4-5.6-8.1-9.7c-0.3-3.5-2.8-6.8-1.1-10.5c3.3,0.3,4.8,3,6.6,5.2
			c-0.5,2.8,2.9,2.7,3.6,4.7c-0.1-2.3-2.4-3.3-3.1-5.2c-1-1.9-1.9-3.8-3.6-5.3c-0.6-0.5-1.5-1.2-1.5-1.9c-0.2-3.9-2.4-6.2-5.5-8
			c-0.4-0.5-0.8-1.1-1.2-1.7c-1.9-2.4-0.7-6.2-3.6-8.2c-1.3-1.3-1.2-2.9-0.9-4.5c-0.5-1.9,2.3-4.3-1-5.6c-1.3,0.3-2.6,1-3.8-0.2
			c-0.6-1-1.2-2-1.8-2.9c0-3.3,0-6.7,0-10c1.8-2.3,0.6-5.1,1.6-7.6c1.5-1.7,2.4,0,3.6,0.5c1.4,1.1,3,1.4,4.7,1.4
			c1.4,0.2,2.9,0.2,4.3,0.1c1.3,0.2,2.7-0.2,3.9,0.7c0.9,1,1.1,2.3,1.2,3.6c0.3,5.8-0.4,11.6,0.6,17.4c0.6,6.9,3.3,13.1,6.5,19.2
			c0.6,1.5,1.7,2.8,2,4.4c1,0.4-2.6,2.6,0.8,2c2.4,0.5,3.7,2.5,5.3,4c1,1.3,1.9,2.7,1.8,4.4c-1.3,8.5,4.5,13.1,9.8,18
			c0.7,0.6,1.5-0.3,2.3-0.5c0.5-0.1,0.9-0.1,1.3,0.1c1.2,0.7,1.9,1.9,3.2,2.4c0.7,0.3,1.2,0.8,1.5,1.5
			C284.7,469.3,280.1,471,275.9,473z"/>
		<path class="st2" d="M232,384c-0.9,2.6,2,6.2-2,8c0-2,0-4,0-6c1.1-0.3,0.8-1.3,1.2-2C231.5,383.7,231.7,383.7,232,384z"/>
		<path class="st1" d="M367,327c2.7,1.6,5.5,3.1,7,6c0.6,0.8,1,1.7,1.6,2.5c0.8,1,1.9,2.3,1.1,3.5c-1.1,1.6-2.6,0.3-4-0.2
			c0.6,2.8,4.4,4.4,2.4,7.8c-1.1,1.3-2.6,1.6-4.2,1.7c-3.6,0-7.1,1-10.7,1.6c-6.1,1.3-12.1,2.9-17.7,5.7c-3.6,1-6.3,3.7-9.7,5.2
			c-1.4,0.6-2.7,1.3-3.9,2.3c-0.3,0.3-0.7,0.5-1.1,0.7c-1.3,0.7-2.4,1.6-3.8,1.9c-1.1,0.1-1.5,1-2,1.9c-2,2.7-4.7,4.8-6.4,7.7
			c-0.7,0.9-1.3,1.8-2.2,2.6c-1.7,1.5-2.8,3.4-3.9,5.3c-0.7,1.2-1.4,2.3-2.1,3.5c-1.2,1.1-1.1,3.7-3.7,3.2c-1.9-3.8,0.3-6.8,1.6-10
			c-1.3,3.2-4.6,6.1-1.5,10.1c1.2,1.4,0.3,2.6-0.2,3.9c-0.7,1.4-1.4,2.8-1.9,4.4c-0.4,1.1-0.8,2.1-1.3,3.2c-1.1,2.3-1.1,5.1-3.5,6.8
			c-1.6,0.3-2.3-0.7-3.1-2.5c0,2.1,0.2,3.6-0.6,4.9c-0.3,0.5-0.8,0.6-1.3,0.5c-1.5-1.1-1.4-2.8-1.5-4.3c0-1.4,0.1-2.7,0.4-4
			c1.2-3.4-0.2-7.1,1.3-10.5c0.8-1.2,2-1.6,3.2-2c2.3-0.5,3.3-2,3.2-4.3c-0.1-2.2,1.7-4,1-6.7c-2.7,2.3-0.6,6.4-3.6,8.1
			c-3.2,0.7-2.6-1.6-2.6-3.4c-0.6,1.6,0.7,3.4-0.4,5c-0.5,0.3-0.9,0.3-1.4,0.1c-0.9-0.7-1.4-1.6-1.7-2.7c-1.1-6.7-2.3-13.4-4.1-19.9
			c-1.1-4-1.8-8.1-1.1-12.3c0.2-1.8,2-3,1.7-5c-1.3-0.6-2.2,0.5-3.2,0.8c-2.1,0.8-3.8,2.7-6.2,2.7c-3.5-1-4.1,2.3-5.8,3.9
			c-2.4,0-1.8,2.7-3.2,3.5c-0.4,0.2-0.8,0.4-1.2,0.5c-1.5,0.2-3.5-1-4.2,1.5c-1.1,1.9-2.9,2.7-5.1,2.8c-4-1.4-5.8-5.4-4.1-9.2
			c0.6-1.4,1.7-2.4,2.5-3.6c0.8-1,1.7-1.9,2.8-2.5c4,0.4,4.1,3,3.6,6c0.9-4.8,0.7-9.3-2.8-13.2c1.8-2.6,3.2-5.4,5.5-7.6
			c0.4-0.2,0.8-0.4,1.3-0.4c2.9-1,6.7,1.2,8.8-2.5c0.9-1.6-0.2-0.8-0.8-0.7c-0.3,0.1-0.6,0.2-0.9,0.2c-3.3-1.2-5,1.9-7.6,2.7
			c-0.7-3.3-4.1-3.6-6.1-5.4c1.4-1.7,2.7-3.4,5.2-3.5c6.4,2.3,10.9-1.2,15.3-5c2.1-1.8,4.1-4.3,6.9-1.1c0.1,1.3-1.4,1.7-1.8,3.5
			c6.5-5.7,14.4-6.1,21.9-7.3c-0.4-1.7-1.7-1.7-2.4-2.2c-1-1-3.5-0.3-3.2-2.8c1.3-2.1,3.6-0.9,5.3-1.7c0.7-0.1,1.4-0.4,2.1-0.5
			c3.7-0.5,7.1,1.8,10.7,1.1c2.6,1.4,5.2-0.6,7.8,0.1c1.5,0.7,3.2,1.2,4.8,1.7c1.9,0.8,3.6,1.7,3.7,4.1c-1.4,1.4-3.2,1.2-5,1
			c-0.7,0,0.2-0.2-0.5,0c-0.2,0.1-0.1,0.5,0.3,0.7c0.4,1-0.2,1.6-0.9,2c-3.6,1.7-0.4,1.8,0.6,2.4c3.6,0.9,7.3,0.4,10.9,1.3
			c0.7-0.1,1.5-0.1,2.3-0.2c-0.8-0.2-1.4,0-2.1,0.1c-1.4,0-2.7-0.3-3.8-1.1c-0.5-2.2,1.6-2.4,2.6-3.4c0.4-0.2,0.8-0.3,1.3-0.3
			c1.2,0.4,2.3,1.2,3.5,1.6c1,0.4,2,0.8,3,1.3c2.4,1.5,4.5,1.6,6.1-1.1c1.2-0.2,2.4-0.1,3.4,0.6c1.2,0.1,1.2,0.9,1.2,1.8
			c-0.8,1.9,1.9,2.2,1.7,3.8c0,0.5-0.1,0.9-0.3,1.3c-1.1,1.3-1.1,2.7-0.2,4.1c-0.4,2-2.4,3.6-1.5,5.9c0.2,4.8,3.4,3.4,6.1,3
			c0.7-0.3,2-0.5,1.5-1.3c-0.9-1.4-2.3,0-3.5-0.1c-1-0.1-1.8-0.5-2.2-1.4c-0.4-3.1,2.1-4.2,3.9-5.7c0.9-1.5-1.2-3.3,0.5-4.7
			C365.8,326.4,366.5,326.5,367,327z"/>
		<path class="st1" d="M393.9,367c2,3.8,3.5,7.7,3.8,12c-0.4,1.3-0.1,2.6-0.3,3.8c-0.4,2,0.3,3.8,1,5.6c-0.1,0.5-0.2,0.9-0.4,1.3
			c-1.2,4.4-0.8,8.8-0.1,13.2c0,1.1,0.1,2.1-0.7,3c-2.8,0.4-2.2-2.6-3.7-3.6c-1.1-4.4-0.3-8.8-0.5-12.3c0.5,3.7-1.1,8.3,0.8,12.8
			c1.1,2.2,2.3,4.3,2.9,6.6c-0.7,3.5-0.5,7.2-1.7,10.6c0.3,3.7-1.2,6.8-2.9,9.9c-0.9,0.8-2.1,1.4-1.3,3c-1.8,4.8-4.3,9.2-7.8,13
			c-1.4,1.1-2.2,2.8-3.7,3.8c-1,0.7-2,1-3.2,0.6c-3-2-2.1,1-2.6,2.1c-0.5,2.6-2.8,4.6-2.2,7.5c-1.4,1.8-2.7,3.6-5.2,4
			c-0.7-0.2-1.2-0.6-1.3-1.4c-0.8-0.6,2.7-2.4-0.7-2.2c-1,0.1-2-0.2-3-0.1c-2.4,1.5,0.9,2.1,0.5,3.3c0.1,1-1.3,2.2,0.5,2.9
			c0.2,0.2,0.3,0.5,0.2,0.7c-0.1,0.2-0.1,0.4-0.2,0.4c-4,2.9-8.2,5.5-12.8,7.3c-1.6-0.1-2.8,0.9-4.1,1.6c-0.7,0.1-1.3,0.3-2,0.4
			c-2.4-1.2-1.6-2.8-0.4-4.3c0.7-1.3-0.5-1.6-1.2-2.2c-0.6-0.4-1-0.8-1.5-1.3c-3.3-2.6-7.1-2.2-10.8-1.8c-0.8,0.1-0.9,0.8-0.8,1.5
			c1,2.6,5.4,0.6,5.7,4.1c-1.3,1.2-3,0.9-4.6,1.3c0.6,0.8,1.8,0.5,2.5,1.3c0.4,0.6,0.3,1.3-0.1,1.8c-0.4,0.5-1.8,3.1-1.8,3.6
			c-0.6,0.6-1.3,0.8-2.1,0.7c-1.4-0.5-2.9-0.2-4.3-0.3c-0.4,0-0.6,0-0.9,0.3c0.6-0.4,1.1-0.1,1.5,0.4c-7.1,1.3-14.2,1.3-21.3-0.3
			c-0.6-0.6-1.8-0.2-2.3-1.1c-0.2-1,0.2-1.8,0.8-2.5c0.5-0.6,1.2-0.6,1.8-0.8c-0.7,0-1.5,0.2-2.2-0.2c0.3-1.9-2.1-2-2.4-3.4
			c2.9-3.1-0.3-3.1-1.9-3.8c-4.4-5.2-3.5-11.3-2.7-17.3c0.6-1.9,1.4-3.5,3.3-4.5c4.1-1.3,8.4,0.1,12.4-1.1c2.7-0.7,5.5-0.1,8.1-1
			c3.1-0.4,6.2-1.1,9.3-1.4c3.2-0.3,6.4,0.7,9.7,0.5c3.5-0.2,0.2-1.5,0.6-2c0.3-2.5,2.5-2.8,4.3-3.6c7.6-3.3,14.2-8,19-14.9
			c0.8-0.7,1.7-1.4,2.3-2.4c0.7-1.1,1.3-2.3,2.3-3.2c1.7-1.5,2.6-3.4,3.4-5.5c0.3-0.8,0.7-1.6,1.3-2.2c1.1-1.1,1.6-2.5,2.1-3.9
			c0.3-0.9,0.7-1.7,1-2.6c1.6-3.5,2.8-7.1,3.8-10.8c0.6-2,0.9-4.3,3-5.4c0.5-0.1,0.9,0.1,1.3,0.4c0.6,0.8,0.8,1.8,1.5,3.2
			c1.7-5.4,4.8-9.8,4-15.5c-0.3-2.2-0.3-4.7,2.3-6c2.2,0.5,2.4-0.5,1.6-2.2C391.3,367,392.1,365.9,393.9,367z"/>
		<path class="st1" d="M260,342c5.9,3.1,3.3,9,4.5,13.6c0.2,0.9-0.8,2.2-2.2,2.3c-1,0.1-2.1-0.1-2.6-1.1c-0.8-1.4,0.6-1.4,1.2-2.1
			c2.5-2.7-0.5-3.5-1.9-4.8c-0.6-0.4-0.9-0.9-1.3-1.5c-0.9-1.2-2-2-3.2-0.6c-1.1,1.3,0.1,2.1,1.1,2.8c0.5,0.4,1.1,0.7,1.5,1.3
			c-0.1,3.4-4.8,5.5-2.2,9.8c0.9,1.5,1.5,2.3,3.2,2.2c1.2,1.3,0.3,2.7,0.3,4.1c-0.1,0.9-0.3,1.9-0.7,2.7c-0.3,0.6-0.8,1.1-1.4,1.4
			c-2.4-0.4-2.4,0.9-1.8,2.6c-0.1,0.7-0.3,1.3-0.5,2c-0.8,2.2-1.2,4.5-2.1,6.7c-1.5,2-0.4,5.6-3.7,6.6c-0.1-1.1,0.2-2.3-1-3.1
			c-0.9-1.2-0.6-2.9-1.6-4.7c-0.5,1.8-0.1,3.6-1.4,4.7c-1.3,0.9-2.7,0.9-4,0c-3-4.5,0-9.1-0.1-13.7c0.8-4.2,1.1-8.3,6.1-10.5
			c3.1-1.4,0.5-5.5,1.1-8.3c0.1-0.7-1.4,0-2.1,0c-0.5,0-0.9-0.1-1.3-0.4c-2.1-1.5,0-3.5-0.6-5.2c0.6-1.9,1.8-3.5,3.2-4.9
			c2.6-0.6,4.9-1.1,5.2-4.6c0.2-1.8,2-2.8,3.6-3.7c0.5-0.1,0.9,0,1.3,0.3C258,337.8,259.5,339.6,260,342z"/>
		<path class="st3" d="M231.8,404.9c1.4-0.3,2.8-0.6,4.2-0.9c2,2-0.2,5.1,2,7c-0.9,1.3-0.9,2.7,0,4c0,0.6-0.3,1-0.5,1.5
			c-0.1,0.6,0.1,1,0.5,1.5c1.5,1.6,2,3.9,4.1,5c0.3,0.3,0.7,0.7,1,1c-0.2,2.2,0.7,4.1,1.7,6c0.5,1.4,0.4,2.9,1.2,4.2
			c0.3,0.6,0.5,1.2,0.2,1.8c0.7,3.3,2.5,6.6,1,10.1c-5-4.6-7.5-10.6-10-16.6c-2.7-6.4-4.6-13.1-5.7-19.9
			C231.1,408,230.2,406.3,231.8,404.9z"/>
		<path class="st4" d="M287,319c-2.6-1.1-4.3,0.3-6,2c-3.8,3.8-7.8,7.1-13.7,6.6c-1.6-0.1-1.5-1.5-2.2-2.3c3.1-3.3,6.6-5.7,10.8-7.3
			c2.4-1.9,5.8-2,8-4.4c2.5-1.3,5.1-2.4,8-2.6c3.4,0.4,6.7-2.2,10.1,0c1,0.3,2,0.7,3,1c-0.3,2.5-2.1,3.8-4.2,4
			c-4.3,0.3-8.3,1.2-12,3.5C288.2,319.8,287.5,319.5,287,319z"/>
		<path class="st5" d="M232,384c-0.3,0-0.6,0-0.8,0c0.7-10.7,4.1-20.6,9.1-30c1.2-1.1,2.5-0.9,3.7,0l0,0c3.2,6.3-1.5,10.6-4.1,15.4
			c-1.9,3.2-0.7,6.8-1.2,10.1c-0.3,2.8-0.7,5.3-3.7,6.5C234,385.3,233,384.7,232,384z"/>
		<path class="st6" d="M393.9,367c-1.4,0-2.4,0.7-2.9,2c0,0.9-0.3,1.5-1,2c-0.9,0.5-1.7,1.1-1.8,2.2c-0.6,5.8,0.9,12-3,17.3
			c-0.9,1.2,0.2,4.1-2.3,4.2c-2.9,0.1-1.4-2.7-1.8-4.2c-0.1-0.5,0-1,0-1.5c-0.7-3.6,1-6.9,1.3-10.5c0.5-6.2,3.2-12,2.9-18.3
			c-0.1-0.8,0-1.6,0.5-2.3c0.9-0.7,1.9-0.8,3-0.4c1.1,0.7,1.5,1.9,1.9,3c0.9,1.7,0.5,4.2,3.3,4.5C394.3,365.7,394.3,366.3,393.9,367
			z"/>
		<path class="st7" d="M357.9,320c-1.3,0-2.6,0-3.9,0c-1.7,1.8-3.8,2.2-6,1c-1-0.3-2-0.7-3-1c-0.9-0.8-1.6-1.9-3-2c-0.3,0-0.7,0-1,0
			c-1.3,0-2.6-0.1-3.8-0.6c-0.5-0.7-0.3-1.8-1.2-2.4c-1.3-1.1-2.1-2.8-4-3c0.1-2.2,1.6-1.7,2.8-1.3c2.4,0.7,4.8,1,7.2,1.5
			C347.7,313.9,353.1,316.4,357.9,320z"/>
		<path class="st8" d="M332,476c-1.8-0.5-5.2,1.3-5.3-1.4c0-2.5,3.4-1.4,5.3-1.6c0.6-0.1,1.3,0,1.9,0c2.2-1.7,5-1.6,7.5-2.3
			c1.3,0.2,2,1.2,2.5,2.3c-1.3,1.1-2.3,2.4-1,4.1c-3.1,3-7.3,2.8-11.1,3.7C330.3,479.2,333,477.6,332,476z"/>
		<path class="st9" d="M275.9,473c1.9-4,8.3-4.4,8.1-10c-1.2-1.4-1.3-3-0.9-4.6c0.6-1.6,0.9-3.7,3.3-3.8c2.4,1.6-0.1,4.4,1.5,6.1
			c0.2,0.2,0.3,0.3,0.5,0.5c0.2,0.1,0.3,0.3,0.5,0.4c0.8,0.6,1.5,1.1,1.9,2.1c0.5,2.7,0.5,5.1-2.9,5.9c-1.1-0.2-1.8-3.8-3.2-0.3
			c-0.8,1.5-1.7,2.9,0.4,4c1.2,0.7,1.8,1.8,2.2,3.1c0,0.9-0.6,1.2-1.3,1.3C282.5,476.5,279,475.2,275.9,473z"/>
		<path class="st10" d="M375,346c0.6-2.8-2.7-3.9-2.7-6.2c0-1.2-2.4-0.5-1.4-1.9c0.7-1,1.7-0.6,2.6,0.1c0.6,0.5,1.4,0.8,2.3,1.3
			c0.5-2.6-2.4-3.9-1.8-6.2c4.1,3.7,7.9,7.6,10,12.9C381,348,378,348,375,346z"/>
		<path class="st11" d="M259.9,328.8c4.2-0.8,6.6,0.5,6.1,5.2c0.3,0.2,0.5,0.4,0.3,0.7c-0.1,0.2-0.2,0.3-0.3,0.3l0,0
			c-0.8,0.6-1.6,0.9-2.6,0.9c-2.2-1-4.2-0.6-6.2,0.5c-0.5,0.1-0.9-0.1-1.2-0.4l0,0c-0.9-0.5-1.8-1.1-1.1-2.3
			C256.2,331.6,257.8,330,259.9,328.8z"/>
		<path class="st12" d="M254.9,333.7c0.4,0.8,0.8,1.5,1.1,2.3c-1.4,2-4.1,2.6-3.9,6.3c0.2,2.4-3.2,3.3-5.8,1.8
			C248.5,340.1,251.4,336.6,254.9,333.7z"/>
		<path class="st13" d="M320,310c-3.9,2.4-7.2-1.7-11-1c-0.4-0.4-1-0.5-1.2-1.1c4.6-0.8,9.2-2.5,13.5,0.9
			C321.1,309.5,320.4,309.6,320,310z"/>
		<path class="st14" d="M395,420.1c-0.7-3.8,0.9-7.4,1-11.1c-0.9-1.4-0.3-2.3,1-3c0-1,0-2,0-3c0.6-0.6,0.2-1.6,0.8-2.2
			c0.4-0.2,0.7-0.2,1,0.2C398.6,407.6,398,414.1,395,420.1z"/>
		<path class="st4" d="M376,450c1-0.3,2-0.7,3-1c1.4,2.7-1.7,2.9-2.5,4.4c-0.8,1.6-2.4,2.5-3.4,4c-0.7,0.8-0.5,2.3-1.9,2.7
			c-2.6-3.4,0.6-5.5,1.8-8.1C373.7,450.9,374.1,449.3,376,450z"/>
		<path class="st15" d="M262.9,463.2c1.7-4,3.6-2.7,5,0.1c1,1.9,1.4,4,2,6.1C266.8,468.2,265.1,465.5,262.9,463.2z"/>
		<path class="st16" d="M342,312.2c-3.4,1.7-6.6-2.4-10-0.2c-1.6-0.2-3-0.7-4-2c-0.6-1.2-3,0.4-3-1.8
			C331,308.4,336.5,310.1,342,312.2z"/>
		<path class="st13" d="M302,311c-3.4-0.3-6.7,1.6-10.1,0c3.9-1.7,7.9-2.6,12.1-2.7c0.9,0.6,2.2-0.1,3,0.8
			C305.8,310.9,303.2,309.1,302,311z"/>
		<path class="st17" d="M373.1,457.4c0.9-3.5,4-5.6,5.9-8.4c1.4-1,1.8-3.2,4-3C380.8,450.7,378,455,373.1,457.4z"/>
		<path class="st18" d="M385.9,346.9c0.7,0.1,1.4,0.1,2,0.2c0.7,0.4,1.4,0.6,1.6,1.4c0.3,3.3-1.9,4.3-4.5,5
			c-1.7-0.3-3.5-0.6-3.7-2.9c0.1-0.7,0.5-1.3,1-1.8C383.5,348,384.6,347.2,385.9,346.9z"/>
		<path class="st19" d="M385.9,346.9c-0.4,1.4-1.5,2-2.9,2.1c-1.4,0.7-2.3-0.7-3.5-0.7c-1.5-0.2-3,0.3-4.4,0.6
			c-0.5,0.1-0.9,0.1-1.4,0.2c-1,0-1.9-0.2-2.8-0.8c-0.3-0.4-0.3-0.9,0-1.3c1.3-0.3,2.7-0.6,4-1c3,0,6,0,9-0.1
			C384.7,346.3,385.3,346.6,385.9,346.9z"/>
		<path class="st20" d="M365,463c0.3,0.4,0.7,0.7,1,1.1c-1.5,1.1-2.1,3.1-4.1,3.7c0-0.3,0-0.5,0-0.8c-0.8-1.1,0.2-2.4-0.5-3.5
			c-1.1-1.4-3.4-2.7-0.5-4.5c1,0.3,2,0.7,3,1C365.2,460.7,364.3,462.1,365,463z"/>
		<path class="st21" d="M385,353c1.7-1.3,4.3-1.9,4-4.9c1.9-1,2.8-0.3,2.9,1.7c-1.6,1.3-3.2,2.6-2,5c-0.5,1.2-1.5,1.7-2.8,1.6
			c-1.2-0.3-2.2-0.9-2.5-2.2C384.5,353.8,384.7,353.4,385,353z"/>
		<path class="st7" d="M393.9,365c-4.9,2.2-3-2.3-3.9-4c-0.1-1.7,0.7-1.6,1.9-1C391.7,362,394.4,362.9,393.9,365z"/>
		<path class="st22" d="M325,308.2c1,0.6,2,1.2,3,1.8c-2.7-0.1-5.3,2.1-8,0c0.4-0.4,0.8-0.8,1.3-1.2
			C322.3,307.3,323.7,308,325,308.2z"/>
		<path class="st23" d="M360,326c0.2-1.5-2.4-2.4-0.9-4.2c2.6-0.5,2.9,1.8,3.9,3.2c0.4,0.3,0.5,0.7,0.5,1.2
			c-0.2,0.7-0.7,1.2-1.4,1.3C361,327.6,360.5,326.7,360,326z"/>
		<path class="st24" d="M332,476c2.2,1.6-0.2,3.2,0,4.8c-0.6,0.1-1.3,0.2-1.9,0.3c0.2-2-1.5-1.6-2.7-2.1
			C328.6,477.4,331.4,478.4,332,476z"/>
		<path class="st25" d="M283.9,313.6c-1.3,4-5.4,2.8-8,4.4C277.9,315.3,281,314.7,283.9,313.6z"/>
		<path class="st26" d="M286,477.7c0.3-0.2,0.7-0.5,1-0.7c1.6-1.4,3.4-0.7,5.1-0.3c1.1,0.8,2.4,1.3,3.2,2.4c0.1,0.5-0.1,0.9-0.4,1.2
			C291.8,480,288.9,478.9,286,477.7z"/>
		<path class="st27" d="M244,354c-1.2,0-2.5,0-3.7,0c0.9-1.7,1.9-3.3,2.8-5C245.1,350.4,242.6,352.5,244,354z"/>
		<path class="st28" d="M387,355.9c1-0.4,1.9-0.8,2.9-1.2c0.1,0.3,0.2,0.7,0.2,1c0.5,1.1,0.7,2.2-1.1,2.2c-1,0-1.9,0-2.9,0
			C385.5,356.9,385.1,356,387,355.9z"/>
		<path class="st29" d="M398.9,401c-0.3,0-0.6,0-0.9,0c-1.8-3.1-1-6.3-0.6-9.5c0.4-0.6,0.8-0.8,1.5-0.5
			C399.4,394.3,399.4,397.7,398.9,401z"/>
		<path class="st30" d="M294.9,480.3c0-0.4,0.1-0.9,0.1-1.3c1.4-0.7,2.7-0.1,4,0.1c0.9,0.3,1.6,0.9,2,1.8c0.6,0.3,1.3,0.7,1.9,1
			C300.1,482.2,297.5,481.1,294.9,480.3z"/>
		<path class="st31" d="M389,358c0.9-0.5,1-1.3,1.1-2.2c1.1,1.2,1.8,2.5,1.8,4.2c-0.8,0-1.5,0.2-1.9,1
			C388.8,360.3,389,359.1,389,358z"/>
		<path class="st32" d="M398.9,391c-0.3,0-0.6,0-0.9,0c-0.6-0.7-0.6-1.3,0-2c0-0.3,0-0.7,0-1c-0.6-0.9-0.9-2-0.9-3.1
			c0.1-0.9,0.4-1.6,1.1-2.2C399.4,385.4,399,388.2,398.9,391z"/>
		<path class="st33" d="M390.8,433c-0.8-0.2-1.7-0.4-1.4-1.4c0.4-1.3,1.5-1.5,2.7-1.5C392.2,431.3,391.5,432.1,390.8,433z"/>
		<path class="st34" d="M363,326c0-0.3,0-0.7,0-1c2.5-1.6,3.1,0.6,4,2c-0.7,0-1.3,0-2,0C363.9,327.6,363.5,326.7,363,326z"/>
		<path class="st35" d="M391.9,349.7c-0.6-1.2-1.5-1.8-2.9-1.7c-0.3-0.3-0.7-0.6-1-0.9C389.5,347.7,393.2,344.9,391.9,349.7z"/>
		<path class="st36" d="M345,476.7c0.8-1.9,1.9-3.2,4.1-1.6C348.1,476.3,346.6,476.6,345,476.7z"/>
		<path class="st37" d="M257,459c2.1,0.1,3.2,1.5,4.1,3.2C258.9,462.2,258.2,460.3,257,459z"/>
		<path class="st38" d="M398.2,382.7c-0.1,0.7-0.2,1.5-0.3,2.2c-1.7,0-1.6-0.8-0.9-1.9c0.1-1.3-0.4-2.8,0.7-4
			C397.9,380.2,398,381.5,398.2,382.7z"/>
		<path class="st39" d="M324.3,482.2c-0.3-0.1-0.6-0.1-0.9-0.3c-0.4-0.3-0.7-0.8,0-0.8c1.5-0.1,3.2-0.6,4.5,0.7
			C326.7,481.9,325.5,482,324.3,482.2z"/>
		<path class="st40" d="M307,309c-1,0-2.2,0.2-3-0.8c1.3-0.1,2.5-0.2,3.8-0.3c0.4,0.4,0.8,0.7,1.2,1.1C308.3,309,307.7,309,307,309z
			"/>
		<path class="st41" d="M257,455c0,0.7,0,1.4,0,2.1c-0.6-0.4-1.3-0.9-1.9-1.3c0.3-0.3,0.7-0.6,1-0.8
			C256.3,454.7,256.7,454.7,257,455z"/>
		<path class="st42" d="M287,455c-2.2-0.2-1.7,2.3-3,3c-3,0.7-0.3,3.8-2,5c-1.3-0.6-2-1.6-2-3c-2.4-2.9-0.3-5.2,1.5-7.8
			c-2.6-0.5-5,0.2-7-1.2c-2.1-1.3-2.9-3.3-3.2-5.6c0-1,0.4-1.9,1-2.7c0.9-1.1,1.9-2,3.3-2.3c1.2-0.1,1.7-0.9,1.7-2
			c0.7-2.2,1.7-4.2,4.2-4.9c2.6,0.4,1.4-1.5,1.5-2.6c-0.1-0.7,0-1.4,0.1-2c0.3-1.4,1.1-2.5,1.9-3.6c1.2-1.6,1.6-3.7,3.2-5.1
			c1.8-1.5,3.9-2.8,3.2-5.8c-0.3-1.2,0.5-2.5,1.5-3.4h0c1.3-1.1,2.6-4.3,4,0c0.1,0.8,0,1.5-0.2,2.3c-0.6,2-0.5,4.1-1,6.1
			c-0.2,6.7-1.6,13.4-0.7,20.2c0.2,1.3,0.2,2.9-0.7,3.8C291,446.7,290.3,451.7,287,455z"/>
		<path class="st43" d="M248,390.1c1.6-2.1,1-5.2,2.9-7.2c3.4,3.1,5.2,6.6,3.8,11.3c-0.4,1.1-2.3,1.4-1.8,3.1c0.3,1.6-0.2,3.7,2.4,4
			c1.4,0.4,2.5,1.4,3.4,2.5c1.4,2.4,3.9,4.1,4.4,7c-0.1,3.7,1.5,8.1-4.3,9.1c-3.3-0.3-4.3-3.3-6.2-5.2c-1.7-1.6-2.3-3.9-3.7-5.7
			C246.9,402.8,248.3,396.4,248,390.1z"/>
		<path class="st44" d="M279,460c-1.6,2.5-3.5,2.9-4.7,0c-0.8-1.9-2.3-3-3.7-3.7c-5.7-3.1-4.4-8.9-5.7-13.7c0-0.1,0.8-0.3,1.2-0.5
			c0.5-0.6,1.2-0.7,1.9-0.6c0.7,0.2,1.2,0.7,1.5,1.3c2.3,4.2,2.5,9.8,7.9,12C279,456.1,279.3,458,279,460z"/>
		<path class="st45" d="M258,432c-0.7-1.3-1.4-2.7-2.1-4c0.3-0.4,0.6-0.7,1-0.9c1.6-0.4,2.2-2.2,3.9-2.5c6.1,3.5,8,7.6,6.2,13.6
			c-1.1,0.6-2.1,0.3-3.1-0.3c-1.6-1.4-3.2-2.8-4.7-4.2C258.2,433.6,258.6,432.5,258,432z"/>
		<path class="st12" d="M244,430c-2-1.7-2.5-3.7-1-6c1.6,3.5,3,2.3,4.9-0.8c-2.5,7.8,4,11.4,6.1,16.8c-0.5,0.7-0.9,1.6-2,1
			c-2-1.7-4-3.3-6-5c-0.3-0.3-0.7-0.7-1-1C244.6,433.3,245.2,431.5,244,430z"/>
		<path class="st17" d="M235,386c3.3-3.7,2.9-8.2,2.7-12.6c-0.1-1.7,0-3.2,1.3-4.4c1.5,0.5,2.5,1.2,2,3c0.5,5.1-1.7,9.9-1,15
			C238.1,387.8,236.5,387.4,235,386z"/>
		<path class="st46" d="M257,428c-0.4,0-0.8,0-1.1,0c-3.9-5.8-6.4-12-6.9-19c2.5,0.7,3,3.1,4,4.9c0.6,2.6,3.1,4.3,3.6,6.9
			C256.4,423.3,258,425.5,257,428z"/>
		<path class="st47" d="M279,460c-0.7-1.7-1.3-3.3-2-5c-1.3-1.4-3.4-2.5-2-5c5.3,1.8,5.7,2.5,5,7.6c-0.1,0.8,0,1.6,0,2.4
			C279.7,460,279.3,460,279,460z"/>
		<path class="st3" d="M252,441c0.7-0.3,1.3-0.7,2-1c1.1,2.7,5.8,4,2.9,8.7C255.4,445.8,251.4,445,252,441z"/>
		<path class="st48" d="M240,406.1c0.2-1.3-0.2-3,1.8-2.9c1.9,0.2,2.2,1.8,2.2,3.4c0,1.6-0.6,3.6-2.1,3.4
			C240,409.9,240.1,407.7,240,406.1z"/>
		<path class="st49" d="M244,387c0.2-2.4-0.5-4.9,0.9-8.4c1.8,3.1,3.6,5.2,2.1,8.4C246,387.6,245,387.6,244,387z"/>
		<path class="st12" d="M242,423c-3.1-0.2-3.8-2.8-5-5c-0.7-0.7,0-1.3,0-2c0.3-0.3,0.7-0.7,1-1c1.8,0.2,3,0.8,2.6,3
			C240.4,419.8,241.2,421.4,242,423z"/>
		<path class="st50" d="M257,455c-0.3,0-0.7,0-1,0c-0.7-1.5-1.4-3.1,1.3-2.9c2.6,0.2,5.2,0.6,3.9,4.7
			C259.7,456.4,259.4,452.6,257,455z"/>
		<path class="st51" d="M238,411c-3.8-1.4-1.6-4.6-2-7c2.3-1.4,3-0.2,2.5,1.8C238,407.6,238.1,409.3,238,411z"/>
		<path class="st52" d="M282,463c-0.2-2-1.8-3.9,0-5.9c1.5-1.6,1.7-0.4,2,0.9c0,1.7,0,3.3,0,5C283.3,463,282.7,463,282,463z"/>
		<path class="st53" d="M263.8,438.1c1.1,0,2.1-0.1,3.2-0.1c2.6,0.8,2,2.4,1,4.1c-0.6,0-1.3-0.1-1.9-0.1
			C265.3,440.7,264.6,439.4,263.8,438.1z"/>
		<path class="st17" d="M258,432c0.4,0.6,0.8,1.2,1.1,1.8c-1.1,1.4-2.8,1.8-3.6,0.3C254.6,432.2,257.3,433,258,432z"/>
		<path class="st54" d="M332,360.1c3.3-1.6,5.8-4.7,9.7-5.2c2-0.2,3.9-0.2,4.8,2.1c0.2,5.2,0.6,10.5,1.2,15.7
			c1.4,6.5,0.1,11.9-5.3,16.3c-3.6,2.9-6.6,6.5-9.6,10c-0.4,0.3-0.8,0.5-1.3,0.5c-1.7-0.4-2.8-2-4.6-2.3c-1.3-1.2-1.3-3-2.1-4.4
			c-1.2-2.5-1.2-5.3-1.2-8c-0.9-3,0.7-6.8-3.2-8.7c-0.6,0.2-1.3,0.3-1.9,0.4c-0.5-0.1-0.8-0.3-1.2-0.6c-1.2-1.8-0.4-2.9,1-4.2
			c1.5-1.4,3.6-2.5,4.2-4.7c0.2-0.7,0.6-1.1,1.3-1.3c0.9-0.1,1.7,0.2,2.4,0.6c0.3,0.1,0.8,0.3,0.9,0.2c0.3-0.5-0.2-0.9-0.4-1.3
			c-0.1-1,0.7-1.4,1.3-2l0,0C329.4,362.1,331.6,362.4,332,360.1z"/>
		<path class="st55" d="M346,357c-1.4-0.7-2.8-1.4-4.2-2.2c5.6-3.5,11.7-5.1,18.1-5.9c1.5,0.1,3.3-1.3,4.5,0.7
			c0.1,0.5,0,0.9-0.1,1.3c-1.2,4.2-2,8.5,0.1,12.7c0.2,0.7,0.3,1.4,0.1,2.1c-0.7,1.8-2.2,2.9-3.6,4c-1.4,1.1-2.2,2.7-3.5,3.9
			c-1.3,1.3-2.8,2.3-4.4,3.2c-2.2,1-3.1-0.5-3.8-2.1c-0.4-1.2-0.5-2.4-0.5-3.6c0-1.7,0-3.4-0.6-5c-0.2-0.9-0.3-1.9-0.4-2.8
			C347.9,361,347.4,358.9,346,357z"/>
		<path class="st56" d="M287,319c4.4-2.4,8.7-4.8,14.1-4.2c1.2,0.1,2.6-1.8,3.9-2.8c0.6,0.3,1.2,0.6,1.8,0.8c1.1,0.4,3-0.1,3,1.9
			c-0.1,1.9-1.6,2.2-3.2,2.3c-7,0.7-14.1,1-19.7,6.4c-1.1,1.1-3.1,1.2-4-0.3c-1-1.8,1.2-1.8,2.1-2.6C285.7,320,286.4,319.5,287,319z
			"/>
		<path class="st57" d="M286.1,353.1c-0.9,9.6,3.2,18.3,4.4,27.6c0.3,2.1,0.4,4.2,0.7,6.3c-1.7,0.4-2.1-0.9-2.7-2
			c-0.4-0.9-0.5-1.9-0.7-2.8c-1.8-3.4-1.5-7.3-3-10.8c-0.1-0.4-0.2-0.9-0.2-1.4c-0.4-4.5-0.9-9-2.8-13.3c-0.4-2.7,1.3-4,3.4-5.1
			C285.8,351.8,286.4,352,286.1,353.1z"/>
		<path class="st58" d="M289,385c0.7,0.7,1.4,1.3,2.1,2c0.3,0.7,0.6,1.3,0.9,2c1,4.7,0.7,9.3,0.1,14c0,1.3-0.1,2.6-0.1,3.9
			c-1.2,3,0.6,6.3-0.9,9.3c-0.4,0.9-0.6,1.9-1.6,2.3c-0.6,0.1-1.1,0-1.6-0.3c-1-1.2-1.2-2.7-0.8-4.1c1-3.9,0.3-7.7-0.5-11.5
			c0.1-0.8,0.5-1.4,1.1-2c3.9-2.8,1.1-7.3,2.6-10.7c-0.7,0-1.5,0.6-1.9-0.5C287.7,387.8,287.7,386.3,289,385z"/>
		<path class="st59" d="M267.1,360c0.3,0,0.6-0.1,0.9-0.2c0.9-0.9,1.4-2.1,2.8-2.4c1.2-0.4,2.2-1.1,3-2.1c0.5-0.5,1.1-0.8,1.7-0.9
			c2.3,0.2,2.5,1.8,2.3,3.6c-0.1,0.5-0.3,0.9-0.6,1.3c-1.5,1.1-2.2,2.8-3.1,4.3c-1,1-2.2,1.4-3.6,1.1c-1.1-0.5-1.8,0.1-2.5,0.9
			c-1.7,1.5-3.4,1.2-5-0.2c-1-1.6,0.3-2.6,1.1-3.7C265,360.9,266.2,360.7,267.1,360z"/>
		<path class="st60" d="M337,317c1.4,0,3.2-1.4,4,1c0.2,2.2-2.3,1.7-3,3c-2.5,1.7-5.3,1.1-8,1c-1.1-1-3.8,0.3-3.8-2.2
			c-0.1-3,2.9-0.3,3.8-1.8c0.2-0.4,0.7-0.7,1.1-1C333,315.6,335,315.7,337,317z"/>
		<path class="st60" d="M296,387c1.2-1.9,1-4.1,1-6.2c0-1.5,0.2-3,2-3.5c0.9-0.2,1.6,0,2.2,0.7c1.1,1.3,1.1,2.8,0.1,4.1
			c-1.3,1.6-1.5,3.3-1.3,5.1c0.3,3.1-1.1,4.2-4,3.8C294.8,389.7,295,388.3,296,387z"/>
		<path class="st61" d="M299.9,400.9c0.4-1,0.7-1.9,1.1-2.9c3.7,0,2.9,3.4,3.9,5.3c0.4,1.9,0.5,3.9,0.4,5.9c-0.2,1.6,0,3.6-2.1,4.1
			c-1.8,0.5-2.7-0.9-3.3-2.4C298.8,407.6,299.4,404.2,299.9,400.9z"/>
		<path class="st56" d="M266,335c0-0.3,0-0.7,0-1c1.9-3,4-5.5,8-3c1.1-0.5,1.6,0.1,2,1c-0.3,2.9-2.3,3.6-4.8,3.4
			C269.5,335.3,267.7,335.1,266,335z"/>
		<path class="st62" d="M304,390c-3.1-1.6-3.1-6.9,0.1-10.4c0.5-0.6,1.3-1,1.9-1.6c0.8-0.8,1.7-1.3,2.5-0.3c0.6,0.8-0.1,1.6-0.7,2.1
			C304.5,382.5,304.2,386.2,304,390L304,390z"/>
		<path class="st12" d="M256,336c0.3,0,0.7,0,1,0c2-0.5,4-0.6,6-1c1,0,2,0,3,0c-2.3,2-2,6.4-6,7C257.9,340.5,256.6,338.5,256,336z"
			/>
		<path class="st56" d="M257,352c-2.4,0.1-4.3-0.8-4.8-3.2c-0.4-1.9,1.6-2.7,2.7-3c3.5-1,4,1.6,4.1,4.2C259,351.3,258.3,352,257,352
			z"/>
		<path class="st63" d="M366,332c-2.1,1.2-4.3,2.3-5,5c-1,0.9-2,0.8-3,0c-2.2-2.9,0.1-4.4,2-6c-0.4-0.8,0.2-1.3,0.8-1.6
			c0.4-0.1,0.9-0.2,1.4-0.1C363.8,329.8,365.1,330.5,366,332z"/>
		<path class="st12" d="M316.3,323c-4.6-0.6-8.4,1.8-11.8-1.3C308.1,323.3,311.9,316.4,316.3,323z"/>
		<path class="st64" d="M290.5,339.1c2.3-0.1,4.2,0.7,3.3,1.9c-1.4,1.9-4,2.6-6.4,3.2c-1.2,0.3-1.5-0.6-1.2-1.5
			C286.8,340.1,289.2,339.8,290.5,339.1z"/>
		<path class="st65" d="M299.9,400.9c0.4,3,0.7,6.1,1.1,9.1c-0.5,0.5-0.6,1.2-1.1,1.7c-1.5,1-2.6,0.6-3.3-1.1c0-0.9-0.4-1.9,0.4-2.6
			C298,405.6,298.9,403.3,299.9,400.9z"/>
		<path class="st66" d="M277,359c-0.2-1.6,0.7-3.7-2-4c-0.6-1.9,0.8-2.3,2.1-2.9c2-1,3.9-2,5.9-2.9c0.4,0.4,0.5,0.8,0.5,1.3
			C281.8,353.6,280.9,357.4,277,359z"/>
		<path class="st67" d="M289.1,418.1c2.2-3.4,1.1-7.7,2.8-11.2c0.2,1.4-0.4,3,1.1,4.1c0.2,2-0.9,3.9-0.3,6.1
			c0.9,2.9-2.9,2.2-3.9,3.9C288.1,419.9,288.2,419,289.1,418.1z"/>
		<path class="st9" d="M358,337c1,0,2,0,3,0c0.7,0.3,1.3,0.7,2,1c1.4,0.5,2.6,1.2,2,3C358.5,342.1,357.2,341.4,358,337z"/>
		<path class="st68" d="M296,387c0,1.3,0,2.7,0,4c-0.7,1.2-1.9,1-3,1c-0.7-1-0.7-2,0-3c0-2.7,0-5.4,0-8.7
			C296.4,382.1,291.6,386.5,296,387z"/>
		<path class="st46" d="M323,366.9c1.3,3.1-2,3.2-3.2,4.7c-1.1,1.4-2.7,2.3-1.8,4.5c-1.5,0.9-2.5,0.4-3.2-1.1
			c1.9-3.2,4.4-5.7,7.1-8.1C322.3,366.5,322.6,366.6,323,366.9z"/>
		<path class="st16" d="M337,317c-2,0-4,0-6,0c-1.5-0.3-3.2,0.7-5.2-2c3.9,0,7.1,0,10.2,0C337.8,314.9,337.5,315.9,337,317z"/>
		<path class="st36" d="M265.2,362.1c-0.8,0.9-1.5,1.9-2.3,2.8c0,0.7-0.4,1.2-0.9,1.6c-0.7,0.5-1.4,0.9-2.1,1.4
			c-1,0.5-1.9,1.1-2.9,0.1c0.3-1.3,0.7-2.7,1-4c1.8-0.4,3.7-0.6,4-3C263.5,360,264.5,360.7,265.2,362.1z"/>
		<path class="st17" d="M330,322c2.7-0.3,5.3-0.7,8-1c1.5-0.2,2.8,0.3,4,1c0.2,0.2,0.3,0.4,0.2,0.7c-0.1,0.2-0.1,0.3-0.2,0.3
			C338,322.9,333.9,323.8,330,322z"/>
		<path class="st69" d="M364,350c-1-1.7-3,0.2-4.1-1.1c3.6-1.2,7.3-2,11.1-2c0,0.3,0,0.7,0,1c-1.2,1.3-0.8,3.7-2.9,4.3
			C366.5,351.9,365.1,351.3,364,350z"/>
		<path class="st63" d="M365,341c-0.7-1-1.3-2-2-3c1.4-1.2,2.9-2.1,4.7-0.7c0.6,0.5,1.3,1.2,1,2.1C368,341.1,366.5,341,365,341z"/>
		<path class="st67" d="M297,408c-0.1,1-0.1,1.9-0.2,2.9c-0.2,0.4-0.5,0.5-0.8,0.2c-1-2.9-2,1-3,0c0.3-2.4-0.7-4.9,1-7.5
			C295.6,404.7,294.7,407.6,297,408z"/>
		<path class="st70" d="M283,350c0-0.3,0-0.6,0-0.9c1.8-0.7,3.7-3.4,5.4-1.4c0.9,1.1-0.3,4.1-2.4,5.3c-0.3-0.4-0.7-0.7-1-1.1
			C284,351.7,283.6,350.7,283,350z"/>
		<path class="st71" d="M277.1,352.1c-0.7,1-1.4,2-2.1,2.9c-0.3,0.3-0.7,0.7-1,1c-0.7,0.8-1.6,1.2-2.6,1.3c-0.2-0.1-0.3-0.2-0.5-0.4
			C272.3,354.5,271.7,349.5,277.1,352.1z"/>
		<path class="st72" d="M366,332c-1.7,0.1-2.6-1.4-4-2c-0.2-1-0.2-2,0-3c0.3-0.3,0.7-0.7,1-1c0.7,0.3,1.3,0.7,2,1
			C364.3,328.9,368.2,329.8,366,332z"/>
		<path class="st73" d="M314.8,374.9c1.1,0.4,2.2,0.7,3.2,1.1l0,0c1,1,1.1,2.2,0.6,3.4c-2.1,1.9-3.9,0-5.9-0.4
			c-0.4-0.7-0.3-1.3,0.2-1.9C313.6,376.4,314.2,375.6,314.8,374.9z"/>
		<path class="st67" d="M293,389c0,1,0,2,0,3c-0.5,3.6,1.1,7.5-1,11c0-4.7-0.1-9.3-0.1-14C292.3,389,292.6,389,293,389z"/>
		<path class="st65" d="M304,390c1-1.4,2-2.7,3-4.1c0.7,0.1,1.1,0.6,1.4,1.2c0.1,1.1-0.3,2.1-0.8,3.1c-0.3,0.6-0.6,1.2-0.9,1.7
			c-0.8,1.1-1.6,2.2-3.1,2.3c-0.2-0.1-0.4-0.2-0.6-0.3C303.3,392.6,303.7,391.3,304,390C304,390,304,390,304,390z"/>
		<path class="st74" d="M348,321c2-0.3,4-0.7,6-1c-0.2,0.9,0.7,2.7,0,2.6C352,322.3,349.3,324,348,321z"/>
		<path class="st75" d="M292.8,352.4c-1.5-1.2-2.2-2.5-1.2-4.2c0.4-0.7,1.2-0.8,1.6-0.2C294.4,349.5,294.4,351,292.8,352.4z"/>
		<path class="st65" d="M303.9,403c-1.6-1.3-0.3-4.3-2.9-5c0.1-1.6,0.7-3,1.9-4.1c0,0,0.2,0.1,0.2,0.1c0.5,0.3,1.1,0.6,1.3,1.3
			c0.1,1.3,0.2,2.6,0.6,3.8C305.1,400.5,305.2,402,303.9,403z"/>
		<path class="st73" d="M308,387c-0.3-0.3-0.7-0.7-1-1c0.6-1,1.3-2,1.9-3c0.8-0.6,1.6-0.6,2.4,0.1C312.1,385.9,311.7,387.8,308,387z
			"/>
		<path class="st46" d="M311,383c-0.7,0-1.4,0-2.1-0.1c0.8-2.3,2-4.4,4.1-5.8c0,0.6,0,1.3,0,1.9C313.1,380.7,313.6,382.6,311,383z"
			/>
		<path class="st4" d="M276,332c-0.7-0.3-1.3-0.7-2-1c0.8-1.3,1.9-2.7,3.3-1.4C278.7,330.9,277.6,331.8,276,332z"/>
		<path class="st76" d="M332,360.1c1.1,4.5-1.8,3.2-4.1,2.9C328.8,361.3,330.4,360.7,332,360.1z"/>
		<path class="st77" d="M265.2,362.1c-1.1-0.4-2.1-0.7-3.2-1.1c1-4.1,3.4-0.4,5.1-1C266.5,360.7,265.8,361.4,265.2,362.1z"/>
		<path class="st78" d="M361,330c-0.3,0.3-0.7,0.7-1,1c-1.4-0.1-2-0.9-1.9-2.2c0.1-1.2,0.9-1.6,1.9-1.8
			C360.9,327.8,361.6,328.7,361,330z"/>
		<path class="st60" d="M342,323c0-0.3,0-0.7,0-1c1.5-1.9,2.8-0.4,4.4,0.2C344.9,323.5,343.6,323.8,342,323z"/>
		<path class="st16" d="M342,318c2.6-1.8,2.6,0.5,3,2C343.6,320,342.6,319.3,342,318z"/>
		<path class="st79" d="M361,330c-0.3-1-0.7-2-1-3c0-0.3,0-0.7,0-1c0.7,0.3,1.3,0.7,2,1c0.6,1,0.6,2,0,3
			C361.7,330,361.3,330,361,330z"/>
		<path class="st76" d="M326,367c-0.7-0.3-1.4-0.7-2.1-1c-0.3-0.2-0.3-0.5-0.2-0.7c0.1-0.2,0.2-0.3,0.3-0.3c1.4-0.6,2.2-2.1,3.9-2.1
			c-0.3,0.7-0.6,1.4-1,2.1C327,365.9,326.7,366.5,326,367z"/>
		<path class="st71" d="M270.9,358c-1,0.6-2,1.2-3,1.8c0.6-1.4,0.1-3.9,3-2.9c0,0,0.1,0.1,0.1,0.1c0.3,0.2,0.4,0.5,0.3,0.7
			C271.2,357.9,271.1,358,270.9,358z"/>
		<path class="st80" d="M324.1,365c0,0.3-0.1,0.6-0.1,0.9c-0.3,0.3-0.7,0.6-1,0.9c-0.3,0-0.7,0-1-0.1
			C320.8,364,322.2,364.3,324.1,365z"/>
		<path class="st61" d="M380,389c-2.3,5.6-2.9,11.8-6.1,17c-0.8,0.6-1.8,1-2.8,0.6c-4.9-1.7-7.8-0.7-9.2,4.2
			c-1.3,4.6-3.1,5.2-7.4,3.8c-5.4-1.8-8.7-0.4-10.7,3.1c-0.5,1.1-1.4,2-2.4,2.7c-2.7,1.3-5.6,0.7-8.2,0c-2.9-0.8-5.2-0.5-7.5,1.4
			c-1.3,0.1-2.5-0.2-3.2-1.5c-0.6-3.2,1.9-5,3.4-7.2c4.1,1.1,7.9,3.8,12.8,2.1c-0.5-1.7-3.4-1.5-3.1-3.7c0.1-0.5,0.4-0.9,0.9-1.2
			c6.2-2.2,12.6-1.4,18.9-2c0.6-1.9-1.1-0.8-1.6-1.2c-0.9-0.1-1.8-0.2-2.5-0.7c-0.3-0.3-0.5-0.6-0.6-1.1c0.3,0.6-0.4-0.7,0.2-0.5
			c0.4,0.1,0.5-0.3,0.3-0.3c-1.8,0.4-3.6,0.7-5.3,1.1c-1,0.2-1.9,0.2-2.8-0.1c-2.7-1.3-6.6-0.8-7.6-4.8c0.1-0.5,0.2-0.9,0.5-1.3
			c4.4-2.4,7.6-5.9,9.5-10.6c0.4-1.2,1.1-2.1,2.2-2.6c3.5-0.5,6.1-3.3,9.6-3.6c0.7-0.1,1.4-0.1,2.1-0.1c3.4-0.2,6.7,1.5,10.1,0.3
			c-3.9-0.8-7.8-1.1-11.6-1.8c-2.3-0.4-3.9-1.2-2.7-4c0.7-1.4,1.8-2.3,3.3-2.7c2.2,0,4.2-0.5,5.7-2.4c1.4-1.7,3.3-2.7,5.4-3.4
			c1.4-0.4,2.9-0.8,4.1,0.3c2.1,2.1,3.4,0.4,5-0.7c1.1-0.6,2.2-1.1,3.1,0.3c0.9,1.7,1.5,3.5,1.2,5.4c-0.1,0.4-0.2,0.9-0.4,1.3
			c-1.5,1.8-0.5,3.8-0.5,5.7C382.4,384,381,386.5,380,389z"/>
		<path class="st61" d="M326,421c1.7-1.3,2.3-4.3,5.9-1.9c2.2,1.5,6,0.7,9.1,0.9c3.4-0.8,6.8,1.2,10.2,0.1c-2.7-1-6.4,1.9-8.2-2.1
			c-0.6-3.8,0.8-5.7,4.9-5c3.3,0.5,6.9-1.2,9.9,1.6c0.6,0.6,2.1,0.1,1.9-0.7c-0.7-4.1,2.7-6,4.3-8.9c1.5-2.7,4.9-2.9,6.5-0.1
			c1,1.7,2.2,0.8,3.3,1.1c-0.3,0.7-0.6,1.3-0.9,2c-1.1,1.1-1.3,2.6-2,3.9c-0.4,0.7-0.7,1.4-1.1,2.1c-2.2,1.3-2.5,4-3.9,5.9
			c-0.7,1-1.4,2.1-2.1,3.1c-0.6,1.9-1.4-2.5-2.1,0.1c-1.6,1.5-2.4,3.6-3.7,5.2c-1.3,1.6-3,2-4.9,1.5c-4.4-1.3-9-1.9-13.1-4.6
			c-2.9-1.9-6.9-0.4-10.3-0.9C328.1,424,325,424.8,326,421z"/>
		<path class="st81" d="M354,429c2.5,0.5,3.4-1.6,4.4-3.1c1-1.5,1.8-3.1,3.6-3.9c0.7,1,0.7,2,0,3c-4.9,7.6-12.1,12.3-20.1,15.9
			c-1.3,0.6-2.6,1.3-3.9,2c-2.7,3.2-6.8,1.8-10,3c-3.3,0-6.5,1.6-9.8,1.1c-3.3,0.4-6.6,0.5-9.8,0.8c-2.3,0.2-5.1,1.1-6.5-2.1
			c2.3-3.2,5.7-1.3,8.7-2.1c-1.3-1.4-2-3.2-1.1-5.2c0.9-2.1,2.8-2.8,4.9-2.7c6.2,0.1,12.5-0.3,18.7,0.3c2.9,1.9,5.8,3.9,9.1,0.7
			c0.2-0.2,0.3-0.2,0.3-0.2c-0.3-0.6-0.8-0.1-1.2-0.2c-0.7-0.2-1.2-0.7-1.4-1.3c-0.1-0.8,0.2-1.4,0.7-1.9c1-1.1,2-2,3.7-1.6
			C348.7,435.9,351.1,431.6,354,429z"/>
		<path class="st4" d="M292,477c-1.7,1.1-3.3-0.3-5,0c-0.7-1-1.4-2.6-2.3-2.8c-6.2-1-1.6-3.3-0.7-5.2c1-0.8,2-0.9,3,0
			c4-0.5,2.7-3.6,3-6c-0.8-1.5,0-2.8,0.4-4.2c1.4-2,1.3-5.3,4.7-5.8c-0.2,3.1,0.5,6.3-0.6,9.4c-0.9,2.4,0.9,3.3,2.6,4.1
			c2.8,1.2,1.1,2.3,0.1,3.5c-1.1,2.2,0.9,2.9,2,4c1.1,0.7,3.2,0.7,2,3c-0.6,0.6-1.2,0.7-2,0.7C296.7,477.1,294.3,477.4,292,477z"/>
		<path class="st82" d="M380,389c0.4-3,0.7-5.9,1.1-8.9c0.5-1.7-0.5-3.6,1-5.1l0,0c0.9-5-0.2-10.4,2.7-15.1c0.5-0.4,1-0.4,1.5,0.1
			c2.5,3.9-0.8,7.3-1.3,10.8c-0.9,6.1-1.2,12.4-3.8,18.1C380.7,389,380.3,389,380,389z"/>
		<path class="st83" d="M295,453c-1.3,2-2.7,4-4,6c-1,1-0.5,3.6-3,3l0,0c-1.6-2-0.3-3.9,0-5.9c1.2-3.8,3.2-7,6.1-9.6
			c1.1-0.4,2.1-0.4,3,0.3c0.5,0.8,0.5,1.5-0.1,2.2C296.3,450.3,295.7,451.7,295,453z"/>
		<path class="st60" d="M342,471c-2.3,2.2-5.1,2.1-8,2c-1.9-2.1-6.3,0.2-7-4c4.7-2.7,9.3-1.3,14,0c0.3,0.3,0.7,0.7,1,1
			c0.2,0.2,0.3,0.4,0.2,0.7C342.2,470.9,342.1,471,342,471z"/>
		<path class="st84" d="M297,449c0-0.7,0-1.3,0-2c0-1,0.1-2.1-0.4-3c-0.1-0.4-0.2-0.8-0.2-1.3c0.6-2,2-3.4,3.4-4.9
			c0.4-0.2,0.9-0.3,1.4-0.2c1.2,0.4,2.1,1.1,2.5,2.3c0.3,1.8-0.6,3.1-1.7,4.4c-0.2,0.4-0.5,0.8-0.7,1.1c0.2,2.5,2.2,1.8,3.6,2.1
			c1.7,0.3,3.5-0.6,5.1,0.5C305.8,450,301.3,448.4,297,449z"/>
		<path class="st12" d="M341,469c-4.7,0-9.3,0-14,0c-0.8-0.6-1-1.4-0.2-2.1C329.2,464.8,338.5,466.2,341,469z"/>
		<path class="st85" d="M394,403c-1.4-0.2-2-1-2-2.4c0-4.6,0-9.2,0-13.8c0.7,0,1.3-0.1,2-0.1C394,392.2,394,397.6,394,403L394,403z"
			/>
		<path class="st12" d="M299,474c-1.8,0-3.8,0-4.4-2c-0.3-1.1,1.5-1.4,2.4-2c2.2,0.6,4.2-2.1,6.6-0.2C302.7,472,300.2,472.3,299,474
			z"/>
		<path class="st86" d="M327.9,446c3.3-1,6.7-2,10-3c0.8,1.5,3,1.5,3.4,3.7C336.8,446.4,332.4,446.2,327.9,446z"/>
		<path class="st5" d="M398,389c0,0.7,0,1.3,0,2c0,3.3,0,6.7,0,10c0,0.8-0.2,1.6-1,2C396,398.2,394.2,393.4,398,389z"/>
		<path class="st87" d="M310,448.1c-2.8,0-5.6,0-8.4-0.1c-3.6-0.2-2.6-1.5-0.7-3c0.6,0.1,0.8,0.6,1,1.1c3.6,1.8,7.5,1,11.2,0.7
			c1.6-0.1,3.2-0.5,4.8,0.3C315.6,448.7,312.7,447.6,310,448.1z"/>
		<path class="st17" d="M369.8,454.5c-0.1,1.3-0.7,2.2-2,2.3c-1.3,0.2-2.3-0.4-2.4-1.7c-0.1-1.4,1.1-1.9,2.3-2
			C368.7,453,369.6,453.2,369.8,454.5z"/>
		<path class="st88" d="M309.9,477.1c0,1.2-0.7,1.8-1.9,1.8c-1.5,0-2-0.9-1.9-2.2c0.1-1.2,1-1.6,2.1-1.5
			C309.5,475.2,309.9,476,309.9,477.1z"/>
		<path class="st7" d="M390,371c0-0.8,0.2-1.6,1-2c2.1,0.2,2,1.6,2,3.1c0,0.7-0.3,1.5-1,1.4C390.7,373.3,390.5,371.9,390,371z"/>
		<path class="st89" d="M362,464c1.6,1,0.3,2-0.1,3c-1.1-0.2-2.7,1.3-3.4-0.3c-0.9-2.2,2.1-1.3,2.4-2.7
			C361.3,463.5,361.7,463.5,362,464z"/>
		<path class="st17" d="M377.4,446.7c-1.1-0.1-1.4-0.7-1.2-1.6c0.2-1.1,0.9-1.8,2-1.7c0.8,0.1,1.5,0.7,1.4,1.7
			C379.4,446.2,378.2,446.2,377.4,446.7z"/>
		<path class="st17" d="M376,450c-1,0.7-2,1.3-3,2c-0.8-1.8-0.3-3.5,1.2-4.2C375.7,447.1,375.8,448.9,376,450z"/>
		<path class="st90" d="M362,464c-0.3,0-0.7,0-1,0c-0.5-1.3-3.2-0.7-2.8-2.8c0.2-1.6,1.4-2.1,2.8-2.2C359.1,461.1,362,462.3,362,464
			z"/>
		<path class="st91" d="M366,419.9c0.3-2.7,0.4-5.4,3.9-5.9C368.8,416.1,368.4,418.7,366,419.9z"/>
		<path class="st92" d="M365,463c-1.2-0.7-1-1.9-1-3c1-1.1,2.5-1.6,3.2-0.4C367.9,461.1,365.7,461.8,365,463z"/>
		<path class="st5" d="M397,406c-0.3,1-0.7,2-1,3c-1.9-1.6-2.1-3.7-2-6c0,0,0,0,0,0C395,404,396,405,397,406z"/>
		<path class="st60" d="M343.9,466.3c1,0,1.5,0.6,1.6,1.5c0.1,0.8-0.6,1.1-1.3,1.1c-0.8,0-1.8,0.1-1.9-1
			C342.4,467,343,466.5,343.9,466.3z"/>
		<path class="st93" d="M364,431c2.3,2-1.9,2.1-0.7,3.8c-2.2-1.4-0.7-2.6-0.3-3.8C363.3,430.7,363.7,430.7,364,431z"/>
		<path class="st94" d="M342,471c0-0.3,0-0.7,0-1c1.5,0.5,3.8,0.4,2,3C342.7,473,342,472.3,342,471z"/>
		<path class="st95" d="M364,431c-0.3,0-0.7,0-1,0c-0.3-0.3-0.7-0.7-1-1c0.9-1.4,2.1-2.6,3-4C367.4,428.2,364.5,429.4,364,431z"/>
		<path class="st96" d="M378.9,402.6c-0.8-0.4-0.9-1-0.7-1.7c0.2-0.6,0.6-1.3,1.3-1c0.3,0.1,0.4,0.9,0.4,1.3
			C379.9,401.9,379.8,402.6,378.9,402.6z"/>
		<path class="st5" d="M397,383c0,0.8,0.1,1.5,0.9,1.9c0,1,0.1,2.1,0.1,3.1C395.9,386.7,395.2,385.1,397,383z"/>
		<path class="st97" d="M299,477c0.7,0,1.3,0,2,0c1,0,2,0,3.6,0c-1.3,0.9-1.9,1.5-2.6,2c-1.2,0.5-2.2,0.1-3.1-0.7
			C298.7,477.8,298.7,477.4,299,477z"/>
		<path class="st98" d="M365,426c-0.1,2-1.4,3.1-3,4C362.1,428,363.4,426.9,365,426z"/>
		<path class="st99" d="M299,478c1,0.3,2,0.7,3,1c-0.3,0.6-0.7,1.3-1,1.9c-0.7-0.3-1.3-0.6-2-0.9C298.4,479.3,298.5,478.7,299,478z"
			/>
		<path class="st91" d="M371,411.9c-0.1-1.7,0.2-3.1,2-3.9C372.8,409.5,372.3,410.9,371,411.9z"/>
		<path class="st91" d="M362,425c0-1,0-2,0-3c1.3-1.1,1.1,1.1,1.9,1C363.7,424,363,424.7,362,425z"/>
		<path class="st55" d="M253.9,395.1c1.5-4.7-2.1-8.1-3-12.2c0.8-2.3,0.8-4.8,2.4-6.8c0.8-0.2,1.4,0.1,1.9,0.6
			c0.5,1.6,0.1,5,3.3,1.8c0.4-0.1,0.9-0.1,1.3,0c1,0.5,1.8,1.4,2.5,2.2c0.8,1.1,1.6,2.2,2.2,3.4c0.2,0.4,0.3,0.9,0.4,1.3
			c1.4,5.3-2.3,9.7-2.7,14.7c0,0.3-2.7,1.2-4.2,1.5c-2.4-0.6-3.3-2.7-4.6-4.5C253.3,396.5,253.4,395.7,253.9,395.1z"/>
		<path class="st27" d="M241,372c-0.7-1-1.3-2-2-3c3.3-4.4,5.2-9.4,5-15c2,0.6,2.2-3.6,4.3-1.9c1.7,1.4,0.1,3.3-0.1,5.1
			c-0.1,1.2,0.4,2.5,0.6,3.8c0.3,1.4,0,3.1-1.4,3.2C242.2,364.4,242.1,368.6,241,372z"/>
		<path class="st100" d="M255,377c-0.6-0.3-1.1-0.6-1.7-0.9c0.2-0.4,0.4-0.8,0.6-1.2c0.5-1.1,0.9-2.3,2.1-2.9c0.3-0.4,0.6-0.7,1-1.1
			c0.9-1.4,2.1-2.6,3.1-4c0.6-0.3,1.3-0.7,1.9-1c4.3,2.9,1.7,6.3,0.6,9.6c-0.6,1-1.5,0.7-2.4,0.5c-0.9-0.2-1.6,0.2-2.2,0.7
			C257,377.4,256.1,378,255,377z"/>
		<path class="st36" d="M256,372c-0.1,1.4-0.6,2.5-2.1,2.9c-0.6-1.1-2.8-1.6-1.4-3.4C253.8,369.8,255,371.1,256,372z"/>
		<path class="st36" d="M249.5,371.5c0.6,1.4,0.8,2.4-0.4,3.2c-0.3,0.2-1.2,0-1.2-0.1C247.5,373.3,248.1,372.5,249.5,371.5z"/>
		<path class="st101" d="M260.1,367c-0.2,1.9-1.4,3.1-3.1,4c0-1,0-2,0-2.9C258,367.7,259,367.3,260.1,367z"/>
		<path class="st102" d="M244,430c1.7,1.4,2.3,3,1,5C243.3,433.6,244.2,431.7,244,430z"/>
		<path class="st1" d="M237,416c1.1,0.7,0.1,1.3,0,2c-0.7-0.1-1.7-0.1-1.5-1.2C235.6,416.4,236.5,416.3,237,416z"/>
		<path class="st103" d="M386.2,360c-0.3,0-0.6,0-0.9,0c-1.1,2.3-2,4.7-2.4,7.3c-0.1,1-0.5,2-1.9,1.7c-0.7-1.1-1.3-0.1-2,0
			c-0.2-0.1-0.4-0.3-0.5-0.4c-1.2-2.4-4-2.5-5.8-4.1c-1.4-1.6-0.8-2.9,0.6-4c0.8-0.7,1.7-1.5,2.6-2.1c1.7-1,3.1-2.4,4.8-3.5
			c1.4-0.7,2.6-2.2,4.3-1c0.7,0.7,1.3,1.4,2,2c-0.7,0.5-1,1.2-0.9,2.1C386.1,358.7,386.2,359.4,386.2,360z"/>
		<path class="st104" d="M294.1,447c-1.7,3-3.4,6-5.1,9c-1.1,1.9-1.3,4-2,6c-1.9-2.3-1-4.7,0-7c1.7-3.7,1.2-8.4,5.6-10.8
			c1.4-0.8,1.7-2.9,1.3-4.5c-1.7-6.4,1-12.7,0.2-19c-0.1-0.5,0.5-1.1,0.8-1.7c0.2,0.2,0.4,0.4,0.6,0.6c1.7,4.8,0.6,9.8,0.8,14.7
			c0,1.1,0,2.2-0.1,3.3c0,0.5,0,1.1,0,1.6c0.1,1.6-0.4,3.1-0.3,4.7C296.1,445.3,295.2,446.3,294.1,447z"/>
		<path class="st105" d="M287,469c-1,0-2,0-3,0c0.2-0.6,0.2-1.4,0.6-1.8c0.9-1.2,2.1-2.9,3.5-1.8C289.8,466.8,287.1,467.7,287,469z"
			/>
		<path class="st106" d="M287,462c-0.1-2.3,0.1-4.4,2-6c-0.3,2-0.6,4-1,6c0,0-0.5,0-0.5,0L287,462z"/>
		<path class="st106" d="M288,462c1-1,2-2,3-3c0.1,1.4-0.3,2.7-1,4C289.2,463,288.4,462.8,288,462z"/>
		<path class="st1" d="M263,335c-1.8,1.4-3.7,2.4-6,1C258.8,334.2,260.6,332.6,263,335z"/>
		<path class="st107" d="M380,347c1.6-0.2,2,1.4,3.1,2c-0.4,0.3-0.7,0.7-1.1,1c-0.5,0.5-0.7,1.2-1.3,1.5c-1.5,0.5-3.2,0-4.7,0.6
			c-0.3,0.1-0.6,0.2-0.9,0.2c-1.6,0-3.6,0-4-1.7c-0.4-1.7,2-1.6,3-2.6c0.3,0,0.7,0,1,0C376.8,348.2,378.4,347.5,380,347z"/>
		<path class="st108" d="M380.9,351c0.3-0.3,0.7-0.6,1-0.9c-0.1,2.1,2.3,1.6,3,2.9c0,0.3,0,0.6,0,0.9c-1.7-0.1-2.6,1.5-4,2
			c-1.8-0.3-2.6-1.3-2.4-3.2C378.7,351.3,380.3,351.8,380.9,351z"/>
		<path class="st109" d="M374,348c-0.7,0.9-1.3,1.8-2,2.7c1.3,0.5,2.6,1.1,4,0.3c0.9,0.7,1.5,1.6,1.4,2.9c-0.4,1.1-1.2,1.9-1.9,2.7
			c-1.1,1.1-2.3,2.1-3.9,2.7c-0.4,0.1-0.9,0.1-1.3,0c-2.2-1.4-2.2-3.8-2.6-6c0-0.5,0.1-0.9,0.4-1.3c1.5-1-0.3-4.4,3-4
			C372,348,373,348,374,348z"/>
		<path class="st109" d="M380,347c-1.6,0.8-3,2.6-5,1C376.5,347.1,378.2,346.9,380,347z"/>
		<path class="st1" d="M299,478c0,0.7,0,1.3,0,2c-1.5,0.2-2.8-0.3-4-1c-1.4,0-2.9,0-3-2c2.3-1.6,4.7-1.6,7,0
			C299,477.3,299,477.7,299,478z"/>
		<path class="st110" d="M287,402c3.9,5.1,0.9,10.7,1,16c0,2.8-2,5-2,7.8c-0.7,1.1-1.3,2.1-2,3.2c-3.3,1.9-4.3,5.7-6.7,8.3
			c-3.1,3.5-4.8,3.8-8.1,1.4c-1.4-4.6-4.7-9.3,1-13.3c1.1-0.6,2.3-1,3.5-1.3c2.9,0,5.8,0.1,6.2-3.9c0.1-1.1-0.4-1.4-1.3-0.9
			c-1.3,0.7-2.3,1.7-3.4,2.5c-1.1,0.7-2.2,1-3.5,0.5c-2.9-1.9-6.7-3-5.5-7.8c1.6-3.4,3.5-6.6,7.6-7.4c1.7-0.4,1.9-2,2.5-3.3
			c0.3-0.6,0.8-1.1,1.5-1.3c2.1-0.6,4.1,4.6,6.3,0.2c0.4-0.6,1-1,1.7-1.1C286.2,401.5,286.6,401.7,287,402z"/>
		<path class="st111" d="M271,426c-5.6,4-1.6,8.6-0.9,13c0.7,1.6,2.4,2.4,2.9,4c-0.4,0.7-0.7,1.3-1.1,2c-1.8,0.6-2.2-1-3-2
			c-0.3-0.3-0.6-0.6-0.9-0.9c-0.2-1.4,0.4-3-1-4.1c-0.4-5.4-1.9-10.2-7.1-12.9c-2.1-0.6-3.9-1.4-4-4c-0.7-2.5-4.3-3.7-3-7.1
			c2.4,1,2.8,3.9,5,5.1c2.8,0.6,3.6,4.3,6.7,4.3c0.6-0.3,1.1-0.6,1.8-0.6c1.3,1.5,3.5,0.1,4.9,1.4C271.6,424.8,271.6,425.4,271,426z
			"/>
		<path class="st112" d="M273,443c-2.4-0.3-2.7-2.1-2.9-4c2.1,1.4,3.6,0.3,5.1-1.2c2.6-2.5,4.6-5.5,6.2-8.7c1.1-2.2,1.8-0.9,2.7-0.2
			c0,0.6-0.1,1.2-0.1,1.9c-0.4,1.2-0.8,2.4-2.1,3c-2,1.2-3,3-3.9,5c-0.3,1.1-0.9,1.8-2,2C274.9,441.6,274,442.3,273,443z"/>
		<path class="st113" d="M269,443c1,0.7,2,1.3,3,2c1.2,1.6,0.7,4.1,3,5c0.7,1.7,1.4,3.3,2,5c-2.3,0.3-3.5-1-4.5-2.9
			C270.9,449.2,269.5,446.3,269,443z"/>
		<path class="st114" d="M296,411c0.3-0.1,0.5-0.1,0.8-0.2c1,0.7,2.1,0.8,3.2,0.1c1.2,1.7,1.4,3.6,0.9,5.6c-0.3,1.1-0.8,2-1.7,2.7
			c-4.2,0.6-2.7-2.8-3.3-4.7c-0.2-0.5-0.2-1,0-1.5C295.9,412.4,296,411.7,296,411z"/>
		<path class="st112" d="M286,425.8c-1-3.1,0.3-5.5,2-7.8c0.4,0,0.8,0,1.1,0.1c-0.1,1-0.2,1.9-0.3,2.9
			C287.9,422.6,286.9,424.2,286,425.8z"/>
		<path class="st115" d="M281.8,433.9c0.2-1.3,0.9-2.4,2.1-3c1,1.4,0.4,2.8-0.2,4.2C283.1,434.7,282.5,434.3,281.8,433.9z"/>
		<path class="st67" d="M295.9,413c0.1,0.3,0.2,0.7,0.2,1c0.1,1.8,1.6,3.8-1.1,5c0,0-0.1-0.1-0.1-0.1
			C295.3,417,294.3,414.8,295.9,413z"/>
		<path class="st115" d="M275.9,440.9c0.7-0.7,1.4-1.4,2-2c0.2,0.8,1.3,1.6,0.5,2.5C277.5,442.2,276.7,441.1,275.9,440.9z"/>
		<path class="st116" d="M265,424c-0.6,2.6-1.9,1.1-2.7,0.3c-1.6-1.7-2.9-3.5-4.4-5.3c3,0.2,4.2-1.3,4-4.2c-0.1-1.6,0-3.3,0-4.9
			c1.4-0.3,2.2,0.4,2.7,1.5C265.8,415.6,265.3,419.8,265,424z"/>
		<path class="st117" d="M264,411.1c-0.6-0.4-1.3-0.8-1.9-1.1c-1-2.2-3.9-3.1-4.1-5.9c-0.4-0.8,0.1-1.2,0.7-1.5
			c2.1-0.4,3.3,1.9,5.2,2c0.9,0,1.8-0.1,2.4,0.6c0.3,0.6,0.3,1.3,0.1,2C265.8,408.5,265.3,410,264,411.1z"/>
		<path class="st118" d="M259,403c-0.4,0.4-0.7,0.7-1.1,1.1c-1-0.7-1.9-1.4-2.9-2.1c-1.4-0.9-2.2-2.1-2.4-3.8
			c0.2-0.7,0.7-1.1,1.4-1.3c1.9,0.8,2.5,2.9,3.9,4.1C258.6,401.5,259.6,401.9,259,403z"/>
		<path class="st119" d="M253,398c0.5,1.4,2.1,2.3,2.1,4c-5.7,1.3-1.9-3.4-3.1-4.9C252.9,396.8,253.4,396.9,253,398z"/>
		<path class="st120" d="M259.3,412.2c0.8,2.1,1,3.7-0.7,6.5C258,415.7,257.4,414.1,259.3,412.2z"/>
		<path class="st121" d="M253,398c-0.3-0.3-0.7-0.6-1-1c-0.2-0.7-1-1.4-0.2-2.2c0.8-0.8,1.5,0,2.1,0.3c0,0.6,0.1,1.2,0.1,1.8
			C253.7,397.3,253.4,397.6,253,398z"/>
		<path class="st122" d="M256,421c0.7,2,3.4,2,4,4c0.2,2.2-0.8,3.2-3,2.9C256.3,425.7,254.7,423.6,256,421z"/>
		<path class="st123" d="M347.9,386.9c-0.6,0.7-1.3,1.4-1.9,2.1c-2.9,4.1-6.4,7.6-10,11l0,0c-0.5,0.7-0.9,1.5-2,1.3
			c-0.9-0.6-1.7-1.3-2.1-2.3c1.9-4.2,5.4-7.2,8.8-10c5.3-4.3,7.4-9.4,6.3-16c-0.2-3.5-1.9-7.4,2-10c0,1,0,2,0,2.9
			c1.1,1.5-0.2,3.5,0.9,5c0,1.3,0,2.6,0.1,4c1,2.4,1.6,4.9,1.2,7.5C351,384.6,350.1,386.3,347.9,386.9z"/>
		<path class="st124" d="M331.9,399c1.3,0.1,2.1,0.7,2.1,2.1c0.4,0.7,0.1,1.5,0.2,2.3c1,0.9,2.2,0.4,3.3,0.7c0.9,0,1.7,0.1,2.4,0.7
			c1.8,1.8,4.1,0.7,6.1,0.6c1.7,0,3.5-0.7,5,0.7c1,0,2,0,2.9,0c0.9,1.1,4.7-0.3,2.9,3.3c-2.2,0.4-4.3,0.2-6.5,0.2
			c-2.1-0.7-4.2-0.4-6.4-0.5c-1.8-0.1-3.6,0.5-5.5,0.3c-0.7,0-1.5-0.2-2.2-0.3c-2.8-0.8-5.7-1.3-8.5,0c-0.4,0.2-0.8,0.4-1.3,0.4
			c-1.3-0.2-2-1-2.2-2.3c0-1.2,0.4-2.2,0.7-3.3c0.5-1.3,1.1-2.5,2.2-3.4c1.1-0.8,2.1-1.9,3.6-1.4C331.3,398.9,331.6,399,331.9,399z"
			/>
		<path class="st125" d="M328,401c-0.7,1-1.4,2.1-2.1,3.1c-2.8-0.4-2.9-2.8-3.4-4.8c-1.1-5-1.7-10.1-2.7-15.2c0.2-3-1.8-6.1,0.1-9.1
			c2.5-1.9,3.5-0.5,3.9,1.8c0.4,2.4,0.7,4.8,1,7.2c-0.7,3.1-1.6,6.2,1.1,9c0.6,1.4,1.3,2.7,1.9,4.1C329.2,398.4,328.8,399.7,328,401
			z"/>
		<path class="st126" d="M349,363c-2.2,3-1.8,6.6-2,10c-1-5.3-2.6-10.6-1-16C350.1,357.5,348.7,360.7,349,363z"/>
		<path class="st46" d="M320,375c0.3,3,0.7,6,1,9c-2.6-0.2-2.5-2.3-3-4c0-1.3,0-2.7,0-4C318.7,375.7,319.3,375.3,320,375z"/>
		<path class="st127" d="M326,393c-0.9,0.3-2,0.9-2-0.9c-0.1-2.7-1-5.6,1-8.1C325.1,387,324.9,390.1,326,393z"/>
		<path class="st128" d="M326,367c0-0.8,0.2-1.6,1-2c1.3,0.2,3,0.5,2.4,2.1C328.8,368.6,327.1,368.3,326,367z"/>
		<path class="st129" d="M328,401c0-1.3,0-2.6-0.1-3.9c2.5-1.8,2.1,1.1,3,1.9C330,399.6,329,400.3,328,401z"/>
		<path class="st130" d="M350.1,383.1c0-2.7,0-5.4,0-8.2c0.9,0.7,1.4,2.2,3,1c1.1,0.1,2.3-0.1,3.1,1.1c-0.5,1.8-0.6,3.1,2.1,3.1
			c3.8,0,7.5,1.3,11.4,1c1.3-0.1,3,0.1,3.1,1.8c0.1,2.1-1.7,2.2-3.2,2.1c-3.5-0.2-6.9-0.7-10.4-1c-2.4-1.9-4.9-2.1-7.6-0.6
			C350.9,383.5,350.5,383.4,350.1,383.1z"/>
		<path class="st131" d="M368,352c0,0.3,0,0.7,0,1c0.7,2.2,0.9,4.5,0.9,6.9c-3.4,1.4-1.3,4.9-2.7,7.1c-1.1,0.5-1.8-0.1-2.2-1
			c0-0.7,0-1.3,0.1-2c-1.9-4.7-1.1-9.3,0-14c0,0,0,0,0,0C365.7,349.9,367.2,350.2,368,352z"/>
		<path class="st123" d="M363.9,366c0.7,0.3,1.4,0.7,2.1,1c0.4-0.3,0.8-0.3,1.2,0.1c-1.8,3.6-4.8,6-8.2,8c-1,0.7-2,1.3-2.9,2
			c-1.1-0.1-2.4,0.2-3.1-1.1c1.3-1,2.6-2,3.9-3c1.9-0.6,2.5-2.3,3.1-3.9C361.3,368,362.6,367,363.9,366z"/>
		<path class="st69" d="M364,350c0,4.7,0,9.3,0,14C360.1,359.3,361.6,354.7,364,350z"/>
		<path class="st131" d="M360,369c0.1,2.2-0.4,3.9-3.1,3.9C357.9,371.7,359,370.3,360,369z"/>
		<path class="st126" d="M350,371c-1.6-1.4-0.7-3.3-0.9-5C350.6,367.4,349.8,369.3,350,371z"/>
		<path class="st58" d="M285,371c3.5,2.9,1.2,7.9,4,11c-1.2,0.5,0.5,2.7-2,3.1c-1.2,0.2,2,1.4,1.3,2.9c-0.5,0.9-1.3,1.3-2.3,1.5
			c-2.3-0.1-2.7,1.2-2.8,3.1c0,2.1,0.4,4.3-0.8,6.3c-3.9,2-7.6,4.5-11.6,6.3c-1.3,0.6-2.7,2.2-4.2,0.2c-0.7-1.7-1-3.5-0.9-5.4
			c0-1.8,0.1-3.7,1.1-5.3c0.7-1.1,1.7-2.1,2-3.4c1.2-5.7,6.3-7.5,10.4-7.6c3.7-0.1,3.3-1.6,3.7-3.6c0.1-0.6,0.2-1.3,0.4-1.9
			C284.7,376.1,283.9,373.3,285,371z"/>
		<path class="st132" d="M264,385c0-0.3,0-0.7,0-1c-0.7-0.9-0.5-1.7,0.4-2.4c3.8,0.3,2.8-2.8,3.5-4.8c0.2-0.9,0.5-1.7,1.1-2.5
			c1.5-1.7,1.3-3.5,0.4-5.4c-0.2-0.7-0.2-1.3,0-2c0.3-0.9,0.7-1.7,1.4-2.2c2.6,2,2.9-0.6,3.8-2c0.5-1.5,1.2-2.8,2.4-3.8c0,0,0,0,0,0
			c2-3,4-6,6-9c1.3,0,2,0.7,2,2c-0.8,1.8-3.1,2.7-3.1,5c0.1,2.3-1.7,3.9-2.3,6c-0.7,1.1-1.1,2.2,0.9,2.2c1.9,0.5,1.9,1.6,0.9,3
			c-1.5,1.4-3.4,2.3-5.1,3.4c-1.6,1-2.1,2.7-2.7,4.4c-0.1,2.2-3.7,4.1-0.7,6.7c0.6,0.9,0.1,1.7-0.4,2.5c-0.9,1-1.9,2-3.1,2.6
			c-1.3,0.6-2.6,0.7-3.9-0.1C264.4,387.2,264.8,385.8,264,385z"/>
		<path class="st58" d="M281,368c0.6-1.2,0.7-2.1-1-2.1c-1.5-0.5-1.2-1.7-1-2.9c-0.2-2.6,1.5-4.2,3-6c0.5-0.1,0.9-0.2,1.4-0.3
			c0.3,4.5,2.8,8.6,1.6,13.3c-3.3,2,0.2,5-1,7.3c-0.7,0.4-1.4,0.4-2.1,0.2C277.8,373.6,277.7,372.9,281,368z"/>
		<path class="st133" d="M288,388c-3.5-2.4-3.5-2.4-1.8-6.3c0.8,1.8,1.6,3.1,2.8,0.3c0,1,0,2,0,3c0,1.7,0,3.3,0,5
			c-0.4,0.2-0.9,0.2-1.3-0.1C287.4,389.2,287.4,388.6,288,388z"/>
		<path class="st134" d="M284,377c-1.7-2.6-4.5-5.4,1-7c0,0.3,0,0.7,0,1c0.7,2.5,1.7,5-1,7c-0.3-0.2-0.3-0.4-0.3-0.7
			C283.8,377.1,283.9,377,284,377z"/>
		<path class="st110" d="M288,390c0.3,0,0.7,0,1,0c0.5-0.3,1.4-1.1,1.5-1c1.1,1.1,0.6,10.7-0.6,11.7c-0.4,0.4-1.3,0.2-1.9,0.3
			C285.9,397.3,285.9,393.7,288,390z"/>
		<path class="st135" d="M288,390c0,3.7,0,7.3,0,11c-0.3,0.3-0.7,0.7-1,1c-0.3,0-0.7,0-1,0c-2.3-4.3-2.3-8.7,0-13c0.4-0.8,1.2-1,2-1
			C288,388.7,288,389.3,288,390z"/>
		<path class="st136" d="M269.9,367.1c0,0.6,0.1,1.3,0.1,1.9c0.8,2,0.4,4,0,5.9c-0.8,0.5-0.9,1.2-1,2.1c-1.1,2-3,2.6-5.1,2.8
			c-1.1,0-2-0.4-2.5-1.6c-0.2-0.8,0-1.6,0.6-2.2c-0.2-3.4,2.8-6.7,0-10.1c0.3-0.3,0.6-0.7,0.9-1c1.7,0.2,3.4,1.4,5.1,0
			C269.8,364.6,269.8,365.9,269.9,367.1z"/>
		<path class="st137" d="M275.1,363c-0.4,2.6-1.2,4.4-4.1,2c-0.9,0.2-1.3-0.1-0.9-1c1.4,0.2,2.7-0.3,3.9-1
			C274.4,362.7,274.7,362.7,275.1,363z"/>
		<path class="st138" d="M270.1,364c0.3,0.3,0.6,0.7,0.9,1c0,0.9-0.2,1.6-1.1,2c-0.6-0.7-1.3-1.4-1.9-2.1c0.1-0.9-0.4-2.1,0.7-2.5
			C269.9,362.1,269.8,363.3,270.1,364z"/>
		<path class="st66" d="M275.1,363c-0.4,0-0.7,0-1.1,0c-0.1-2.2,0.4-3.9,3-4C276.8,360.6,276.3,362,275.1,363z"/>
		<path class="st66" d="M270.9,358c0-0.3,0.1-0.6,0.1-0.9c1-0.4,2-0.7,2.9-1.1C273.9,358.1,272.4,358,270.9,358z"/>
		<path class="st139" d="M303.9,403c0-1.7,0-3.3,0-5c-0.1-1.8,1.1-1.6,2.3-1.5c3.2,2.4,2.8,6,3.1,9.3c0,2.4-0.2,4.9,0.6,7.3
			c0.4,1.9,0.4,3.9,0.2,5.8c-1,1.8-0.1,4.8-3.3,5.2c-2.7-3-3-6.7-2.7-10.5c0.1-1.6,0.8-3.1-0.1-4.7C304,407,304,405,303.9,403z"/>
		<path class="st140" d="M304,408.9c1,5,2,10,3,15c1.2,1.1,1.5,2.5,1.4,4c-0.8,2.2-1.7,4.2-4.4,4.3c-1-0.5-1.5-1.4-1.3-2.4
			c0.7-4,0.9-7.8-3-10.6c-0.5-0.3-0.3-1.6,0.3-2.3c0-2,0-4,0-6c0.3-0.3,0.7-0.7,1-1c0.1,1.2,0.5,2.7,1.7,2.5
			C304.9,412.2,303.7,410.2,304,408.9z"/>
		<path class="st55" d="M308,406c-0.1-3.1-0.3-6.2-2-9c-0.7-0.6-1.7-1-2-2c-0.3-0.3-0.6-0.6-0.9-1c1.3-0.7,2.3-1.7,2.9-3
			c-0.1-0.7,2.2,0.9,1-1c0.3-1,0.7-2,1-3c2.6-0.1,3.1-1.8,3-4c1.6-0.9,0.4-3.1,2-4c2.1-1.7,3.4,0.1,5,1c2.1,0.5,1.5,3,3,4
			c1,5.1,2.1,10.2,2.9,15.3c0.3,1.8,0.6,3.5,2,4.8c-0.3,1-0.7,1.9-1,2.9c-1.2,2.9-2.7,5.5-5.7,6.9c-2.9,0.5-4.1,2.4-4.4,5.1
			c-0.2,0.4-0.4,0.8-0.7,1.2c-1.4,0.6-2.8,0.1-4.1-0.3c-0.4-0.2-0.8-0.5-1-0.9c0-2,0-3.9-0.1-5.9C307.7,410.8,309.3,408.2,308,406z"
			/>
		<path class="st73" d="M307,390c1.2,0.6,2.2,1.4,1.7,3.2c-1-0.8-1.9-1.5-2.7-2.2C306.3,390.7,306.7,390.3,307,390z"/>
		<path class="st73" d="M304,395c1,0.4,1.6,1.1,2,2c-0.8,0-1.6,0.2-2,1C302.4,397,303.7,396,304,395z"/>
		<path class="st141" d="M354,429c-3.8,7.5-5.6,8.1-10,3c-1.1-0.7-2-1.6-2.8-2.7c-1.2-1.3-2.8-1.3-4.3-1.7
			c-3.9-0.6-7.9-0.2-11.8-0.3c-3.9-0.1-6.7-1.5-7.6-5.5c0-2.2,1.3-3.4,3.1-4.2c1.9-0.3,1.7,1.5,2.5,2.4c0.7,1.2,1.9,1,3,1
			c0.5,2.8,2.7,1.9,4.3,2c5.1,0.2,10.3-0.9,14.7,3.4C347.3,428.6,351.6,426,354,429z"/>
		<path class="st142" d="M336,412c1,2.1,5.7-0.3,4.7,3.4c-0.8,3-4,1.4-6,1.5c-3.4,0.2-6.6-0.8-8.6-3.9c-0.1-0.2-0.2-0.4-0.3-0.6
			c0.1-0.5,0.3-0.9,0.6-1.3c1.6-1.4,3.5-1.3,5.4-0.9C333.1,410.9,334.6,411.3,336,412z"/>
		<path class="st143" d="M332,411c-2.1,0-4.2-0.2-6.1,1c-1.4-1.3-1.3-1.5,1.1-3l0,0c2.7-2.7,5.9-1.4,9-1c0.7,0,1.3,0,2,0
			c2,1.1,4.2,0.2,6.3,0.5c1.9,0.2,3.9-0.5,5.7,0.5c2.3,0,4.7,0,7,0c0.3-0.5,0.6-0.5,1,0c-0.6,0.9-1.6,1.1-2.6,1
			c-6.5-0.5-12.9,0.6-19.3,1C334.7,411.9,333.3,411.7,332,411z"/>
		<path class="st144" d="M359,375c2.1-3.3,5.1-5.6,8-8c0.4-0.2,0.8-0.2,1.2,0c0.9,0.8,2.3,1.3,1.7,3c-2.2,0.3-3.9,1.4-5.3,3.2
			C363.3,374.9,361.6,376.7,359,375z"/>
		<path class="st143" d="M336,400c2.3-4.6,6.2-7.8,10-11C344.5,394.4,342.1,398.8,336,400z"/>
		<path class="st142" d="M343,418c2.5,1.8,5.3,0.9,8,0.6c0.9-0.1,2.6-0.8,2.8,0.8c0.2,1.6-1.4,1.5-2.4,1.9c-3.7,1.3-7-0.4-10.4-1.3
			C341.4,419,342,418.4,343,418z"/>
		<path class="st120" d="M366.2,378.3c2.7-3.8,5.4-2.8,8.6-0.6C371.7,379.7,369.1,379.2,366.2,378.3z"/>
		<path class="st21" d="M381,369c1.8-2.8,1.6-6.5,4.3-8.9c-1.1,5-2.2,10-3.2,15C381.7,373,381.3,371,381,369z"/>
		<path class="st143" d="M332,404c0.7-1,1.3-2,2-2.9c0.7-0.3,1.3-0.7,2-1c0.4,4.3,5.1,2.7,7,5c-1,0.8-2,0.9-3,0.1c-1,0-2,0-3,0
			C335.5,403.8,333.5,405.2,332,404z"/>
		<path class="st103" d="M370,370c-0.6-1-2.2-1.4-2-3c0.2-0.1,0.5-0.2,0.7-0.4c3.6,0.1,7.1,0.3,10.3,2.3c0,0,0,0,0,0
			c-1.8,1.5-3.2,5.6-6,0.8C372.3,368.5,371,369.6,370,370z"/>
		<path class="st143" d="M350.1,383.1c0.3-0.1,0.6-0.1,0.9-0.1c2.2-0.8,4.5-2.4,6,1c-3.4-0.2-5.4,4.2-9.1,3
			C348.6,385.6,350.1,384.8,350.1,383.1z"/>
		<path class="st69" d="M323,420c-0.7-0.7-1.4-1.4-2.1-2c-0.5-3.8,1.1-5.6,5-5c0,0,0.1,0,0.1,0C326.8,416.1,323,417.2,323,420z"/>
		<path class="st123" d="M357,384c-1.8-1.7-4-0.7-6-1c3.1-3.1,5.8-3.2,8,0.9C358.3,384,357.7,384,357,384z"/>
		<path class="st145" d="M340,405c1,0,2,0,3-0.1c1,0,2,0,3,0c1.7-0.7,3.3-0.8,4.9,0c0,0.3,0.1,0.6,0.1,0.9
			c-3.5,0.2-6.9-0.2-10.4,0.8C337.8,407.7,339.3,406,340,405z"/>
		<path class="st21" d="M382,375c-0.1,1.7,0.5,3.6-1,5.1C379.9,378.1,379.3,376.3,382,375z"/>
		<path class="st146" d="M351,405c-1.6,0-3.3,0-4.9,0c1.8-1.6,3.9-1,6-0.6c0,0.1,0,0.4-0.1,0.4C351.6,404.9,351.3,404.9,351,405z"/>
		<path class="st147" d="M358,409l-0.5,0c0,0-0.5,0-0.5,0c0.2-2.2-2.3-1.7-3-3C356.1,405.9,358.3,405.8,358,409z"/>
		<path class="st61" d="M332,411c1.3,0,2.7,0,4,0c0,0.3,0,0.7,0,1C334.4,412.9,333.1,412.4,332,411z"/>
		<path class="st148" d="M366.5,413.4c-1.7-0.6-1.5-2-1.5-3.3c0-2.3,1.2-2.6,3.2-2.4c1.3,0.1,2,0.3,1.5,1.6
			C369.1,411,368.5,412.8,366.5,413.4z"/>
		<path class="st110" d="M302,446c-0.3-0.4-0.7-0.7-1-1.1c0-0.3,0-0.6,0.1-0.9c2.9-1.9,6.9-3.1,5.2-8c0.2-1,0.7-1.7,1.6-2.3
			c8.7-2.4,17.7-1.8,26.5-2.4c2.3-0.2,5.8-1.5,6.7,2.7c-0.3,0.3-0.7,0.7-1,1c-1.5,1.4-3.5,1.5-5.4,2c-0.2,0-0.4,0-0.6,0
			c-6.1,0-12.2-0.1-18.2,0c-2.3,0-5.3-0.9-5.7,2.9c-0.4,4,2.8,2.7,4.7,3.3c0.2,0.1,0.4,0.5,0.9,1.1C311.1,445.8,306.3,444.2,302,446
			z"/>
		<path class="st61" d="M341,434c-4-3.3-8.6-1.6-12.8-1.2c-2.5,0.3-5,0.2-7.5,0.2c-2.7,0-5.5-0.6-8,1.5c-1.4,1.2-3.1,0.3-4.6-0.5
			c-0.3-0.4-0.4-0.8-0.3-1.2c0.6-1.2,1.3-2.4,2.3-3.2c0.4-0.2,0.8-0.4,1.3-0.4c2.1,0,4.1,0.2,6.2-0.2c1,0,2,0.1,3,0.3
			c4.2,0.9,8.5,0.3,12.7,0.5c0.7,0,1.5,0,2.2,0c1.8,0.1,3.6,0.3,5.4-0.3c0.4-0.1,0.8-0.3,1.3-0.3c0.6,1,1.3,2,1.9,3
			C342.4,431.8,342,433.4,341,434z"/>
		<path class="st110" d="M341,436c1.5-0.6,2.9-1.8,4.6,0.5c-4,0.6-7.3,7.6-11.6,0.5C336.2,435.9,338.6,436,341,436z"/>
		<path class="st61" d="M341,436c-2.1,1.9-4.7,0.6-7,1c1.6-1.9,3.7-2.1,6-2C340.3,435.3,340.7,435.7,341,436z"/>
		<path class="st149" d="M294.1,447c0.3-1,0.7-2,1-3c0.7-0.4,1.3-0.1,2,0c2.9,1,0.8,2,0,3C296,447,295,447,294.1,447z"/>
		<path class="st150" d="M295,419c1.4-1.4,0.6-3.3,1.1-5c1.9,1.1-0.5,4.7,2.9,5c1.6,2.1,1.2,4.6,1.3,7.1c0.1,2.9,0,5.9,1.8,8.5
			c0.4,0.6,0.6,1.3,0.4,2.1c-0.3,0.7-0.8,1.2-1.5,1.4l-0.5,0l-0.5,0c-2.4,2.7-2.4,2.7-3.6,0.4c0.5-1.5-0.3-2.5-1.4-3.4
			C295,429.7,295,424.3,295,419z"/>
		<path class="st87" d="M307,436c1.6,6,1.6,6-6,8c0.5-1.4,2.1-2.3,2-4c0.6-1.1,0.8-2.4,1.7-3.4C305.4,436,306,435.4,307,436z"/>
		<path class="st151" d="M297,438c1,3.1,2-0.4,3.1,0c0,2.3-2.3,3.1-3.1,4.9c-2.7-0.3-0.6-3-1.9-3.9c0-0.3,0-0.7,0.1-1
			C295.7,437.4,296.4,437.5,297,438z"/>
		<path class="st152" d="M305,437.1c0,1.4-0.8,2.4-2,2.9c-0.7-0.7-1.3-1.3-2-2c0.3-0.3,0.6-0.7,0.9-1c0.8-0.9,1.3-2.5,2.9-1.9
			C305.7,435.4,305.6,436.3,305,437.1z"/>
		<path class="st153" d="M295,439c1.6,0.9,0.3,3.1,1.9,3.9c0,0.3,0,0.7,0,1c-0.7,1.1-1.3,0.1-2,0C295,442.3,295,440.7,295,439z"/>
		<path class="st154" d="M264,385c0.7,0.7,1.3,1.3,2,2c0.7,1,1.4,2.1,1.1,3.2c-1.4,5.2-0.8,10.8-3.1,15.8c-2.4,0.1-3.1-2.3-4.9-3
			c-0.4-0.7-0.7-1.3-1.1-2c3.5-0.6-0.8-2.2,0.6-3.2c1.7-0.3,1.7,2.1,3.1,2.4C260.6,394.8,265.8,390.5,264,385z"/>
		<path class="st155" d="M255,377c1-0.3,2-0.7,3-1c1.1,0.7,1.7,1.6,1.1,3c-0.4,0.5-0.8,1-1.2,1.4c-0.8,0.8-0.8,2.9-2.7,1.9
			c-1.4-0.8-1.2-2.1-0.6-3.4C254.8,378.3,254.9,377.6,255,377z"/>
		<path class="st156" d="M262,378c0.4,0.8,1.1,1,1.9,1.1c1,0.8,1.7,1.6,1.1,2.9c-0.8,0.4-1,1.2-1,2.1c-1.2-0.6-2-1.5-2-3
			C261,380.1,259.2,379,262,378z"/>
		<path class="st157" d="M259.1,379c-0.4-1-0.7-2-1.1-3c0.2-1.2,0.4-2.6,2.1-1c0.9,1.4,1,2.7,0,4C259.7,379,259.4,379,259.1,379z"/>
		<path class="st158" d="M260,379c0-1.3,0-2.7,0-4c0.7,0.4,1.3,0.7,2,1.1c0,0.6,0,1.3,0,1.9c-1.6,1-0.2,2.1-0.1,3.1
			C260.7,381,260,380.3,260,379z"/>
		<path class="st159" d="M368,367l-0.5,0c0,0-0.5,0-0.5,0c-0.3,0-0.7,0-1,0c-0.9-2.2-0.7-4.4,0.1-6.4c0.7-1.7,1.2,0.5,1.9,0.5
			c0.8-1,1.9-1.6,3-2l0.1,0.1c2.1-0.9,3-0.2,3,2c-0.6,0.9-2.2,1.5-1,3c-0.1,2.6-0.1,2.6-5,2.9L368,367z"/>
		<path class="st111" d="M368,366.9c1.1-1.9,4.4-0.1,5-2.9c2.1,1.5,6.6,0.2,6,5C375.2,369.1,371.6,368.2,368,366.9z"/>
		<path class="st160" d="M375,356c0.7-0.7,1.3-1.4,2-2.1c0.5-0.8,1-1.5,2-0.9c0.6,1,1.3,1.9,1.9,2.9c-1.7,0.9-2.7,3-4.9,3.1
			C373.7,358.8,374.3,357.4,375,356z"/>
		<path class="st161" d="M375,356c0,1.1-0.1,2.3,1.1,3.1c-0.7,0.7-1.4,1.3-2,2c-0.6-1.3-1.5-2.1-3-2C372.4,358,373.7,357,375,356z"
			/>
		<path class="st162" d="M297,438c-0.6,0-1.3,0-1.9,0c0-1,0-2,0-3c1.2,0.2,2.8-0.6,3.5,0.9C299,437,297.8,437.5,297,438z"/>
		<path class="st163" d="M379,353c-0.7,0.3-1.4,0.6-2,0.9c-0.3-1-0.7-2-1-2.9c1.6-1.1,3.3,0.3,4.9,0
			C380.3,351.7,379.7,352.3,379,353z"/>
		<path class="st69" d="M371,359c-0.5,1.4-1.6,2-3,2c0-2.7,0-5.3,0-8C369.7,354.6,368.7,357.6,371,359z"/>
		<path class="st164" d="M267,406c4-2.2,8-4.3,11.9-6.7c1.1-0.7,2-1,3.1-0.3c0.3,0.4,0.4,0.8,0.3,1.3c-0.5,2.3-2.6,2.2-4.2,2.7
			c-0.3,0.3-0.7,0.6-1,0.9c-2.5,3.4-7.4,3.6-9.6,7.5c-1.1,2.4-1.2,5-0.7,7.5c0.3,1.5,0.4,2.8-0.7,4c-0.3,0.3-0.7,0.7-1,1
			c-2.2-4.2-0.5-8.6-1-12.9c-0.1-1.7,0.2-3.3,2.1-4.1C266.3,406.6,266.6,406.3,267,406z"/>
		<path class="st165" d="M282,400c0-0.3,0-0.6,0-0.9c0-2.8,0.1-5.5,0-8.3c0-3.7,1.5-3.7,4-1.8c0,4.3,0,8.7,0,13
			c-0.3,0.3-0.7,0.7-1,1C281.9,404.1,282.2,401.7,282,400z"/>
		<path class="st144" d="M266,423c0.6-4.3-1.2-8.8,1-13c1,1.3,0.7,2.7,0,4c-1.7,4.8,3.9,5,5,8.1c0.4,1-0.2,1.5-1,1.9
			C269.2,424.5,267.1,426.1,266,423z"/>
		<path class="st166" d="M267,414c0-1.3,0-2.7,0-4c3-2.6,6.3-4.6,10-6.1c-0.1,2.7-0.6,4.4-4.1,4.6C270.1,408.8,269,412.1,267,414z"
			/>
		<path class="st58" d="M282,400c1.3,0.7,0.8,3.2,3,3c-2.5,4.5-2.5,4.5-7,0C279.3,402,280.7,401,282,400z"/>
		<path class="st167" d="M275,421c0.8-1.8,2.8-2.2,4.1-3.3c0.7-0.7,1.9-1,2.4,0.1c0.3,0.5-0.3,1.5-0.5,2.2c-1.2,1.8-2.6,3.4-5,3.3
			C275.1,422.8,274.5,422.1,275,421z"/>
		<path class="st144" d="M276,423c1.7-1,3.3-2,5-3c-0.1,4.8-2.5,6.3-7,5C273.6,423.3,274.8,423.2,276,423z"/>
		<path class="st168" d="M276,423c-0.7,0.7-1.3,1.3-2,2c-1,0.3-2,0.7-3,1c0-0.7,0-1.4,0-2c0.3-0.6,0.7-1.2,1-1.9c1-0.4,2-0.7,3-1.1
			C275.3,421.6,275.7,422.3,276,423z"/>
		<path class="st169" d="M302,435c-1,0.3-1.6,0.6-2-0.9c-1.4-5-0.7-10-0.9-15.1c0-0.8,0.2-1.6,1-2c0.7,2.9,4.4,3.8,4.5,7.5
			c0.1,2.6-2.1,5-0.5,7.6C304.4,433.8,303.4,434.6,302,435z"/>
		<path class="st164" d="M264,406c-0.6-6.5,2-12.6,2-19c1,0.6,2,0.6,3.1,0c1,2.9-0.3,5.4-1.1,8c-1.5,1.4-0.7,3.3-1,5
			c-1.2,1.5,0.2,3.5-1,5C265.3,405.3,264.6,405.7,264,406z"/>
		<path class="st170" d="M266,405c0.3-1.7-0.6-3.6,1-5c0,2,0,4,0,6.1c-0.3,0.3-0.6,0.6-1,0.9C266,406.3,266,405.7,266,405z"/>
		<path class="st171" d="M325.9,413c-2.8,0.6-4.3,2.4-5,5c-1,1-1.9,2-2.9,3.1c-0.6,1.5-0.8,3.3-2.9,3.6c-1.3,0-2.3-0.4-3.2-1.4
			c-0.5-1.9,0.7-2.6,2.1-3.2c0.1-0.3,0.1-0.6,0.1-0.9c1.3-2.4,2.6-4.7,5-6.1c2.8-1.3,3.2-4.8,5.9-6.1c0.4,1,1.1,1.7,2.1,2.1
			c0,1.1-2.2,1.5-1.1,3C326,412.3,326,412.6,325.9,413z"/>
		<path class="st145" d="M336,408c-3,0.3-6.1-0.7-9,1C329.6,405.2,332.9,407,336,408z"/>
		<path class="st147" d="M350,409c-2,0-4-0.1-6-0.1c-0.3-0.2-0.4-0.4-0.3-0.6c0.1-0.2,0.2-0.3,0.3-0.3
			C346,408.3,348.2,407.2,350,409z"/>
		<path class="st145" d="M344,408c0,0.3,0,0.6,0,0.9c-2-0.2-4.2,0.8-6-0.9C340,408,342,408,344,408z"/>
		<path class="st145" d="M332,404c1.7,0.3,3.6-0.6,5,1C335.3,404.8,333.4,405.7,332,404z"/>
		<path class="st172" d="M278,391.8c0,3.5-1.4,6.3-5.3,7c-1.5,0.3-2.9-0.8-2.2-2.4c1.3-3,0.7-7.5,5.2-8.3
			C278.2,387.7,277.9,389.9,278,391.8z"/>
		<path class="st173" d="M267.9,395c-0.1-2.7,0.2-5.4,1.1-8c1-0.7,2-1.4,3-2c2-1.4,3.8-3.2,6.1-4.1c1.6-0.6,2.5-1.5,1.6-3.4
			c0.5-1,1.3-1.3,2.2-0.5c0.7,0,1.3,0,2,0c0,0.3,0,0.7,0,1c0,2,0.1,4-0.8,5.8c-0.3,0.7-0.2,1.4-1.5,1.3c-7.1-0.3-9.4,1.2-12,7.5
			C269.3,393.5,268.5,394.2,267.9,395z"/>
		<path class="st55" d="M273,376c0.2-2.1,0.2-4.4,2.9-5c1.6-0.9,2.3-0.1,2.7,1.5c0.5,2.1,0.7,4.1,0.3,6.2c-0.4,1.3-1.3,2-2.7,2.1
			C273.5,380.3,271.6,379.3,273,376z"/>
		<path class="st174" d="M278,379c-0.9-2.6,2.1-6.3-2.1-8.1c1.5-1.2,2.9-2.7,5.1-3c-0.5,3.1-2.4,6.4,1,9c-0.8,0-1.6,0.2-2,1
			C280,379.7,279.2,379.6,278,379z"/>
		<path class="st175" d="M278,379c0.8-0.1,1.6-0.2,2-1c0.8,0.1,1.9,0,2.2,0.5c0.9,1.2-0.5,1.7-1.2,2c-3,1.6-5.6,3.8-9,4.5
			c0.3-0.7,0.7-1.4,1-2.1c-0.2-2.3,1.8-2.2,3.1-2.9C276.9,380,277.6,379.8,278,379z"/>
		<path class="st176" d="M276.1,380.1c-1,1-2.1,1.9-3.1,2.9c-0.7-0.5-3.3,2.1-2.3-1.3c0.5-2,0.5-4.2,2.3-5.6
			C272.6,378.4,274.3,379.3,276.1,380.1z"/>
		<path class="st177" d="M265,382c-0.4-1-0.7-2-1.1-2.9c1.7-0.7,3.4-1.4,5.1-2.1c-0.4,1.7-0.6,3.5-1.2,5.2
			C266.8,384.8,265.9,382.3,265,382z"/>
		<path class="st177" d="M270,374.9c-0.7-2-0.7-4,0-5.9C272.3,371,271.6,373,270,374.9z"/>
		<path class="st57" d="M278.9,363c0.3,1,0.7,1.9,1,2.9c-0.9,0.3-2,1.7-2.7,0.1C276.6,364.6,277.8,363.6,278.9,363z"/>
		<path class="st178" d="M312,423c1,0.3,2,0.7,3,1c0.6,0.6,0.7,1.2,0.6,2c-0.9,2.7-4.3,1.9-5.6,4c0,1.4-0.7,2.4-2,3
			c-1.5-1.7-0.7-3.4,0-5c-0.6-1.3-1.1-2.6-1-4c1.5-1.3,0.7-3.6,2-5.1c0.3,0,0.6,0.1,0.9,0.1C311.4,420,311.1,421.8,312,423z"/>
		<path class="st73" d="M308,406c1.9,2.1,0.6,4.7,0.9,7C307.2,410.9,308.3,408.4,308,406z"/>
		<path class="st179" d="M308,428c0,1.7,0,3.4,0,5c0,0.3,0,0.6,0,1c-0.3,0.7-0.7,1.3-1,2c-0.7,0.4-1.3,0.7-2,1.1
			c-0.9-3.5-2.1,0.5-3.1-0.1c0-0.7,0-1.3,0-2c0.7-1,1.4-1.9,2.1-2.9C305.9,431.3,306.5,429.2,308,428z"/>
		<path class="st180" d="M319.2,406.8c0.9,5.4-4.2,3.1-5.3,5.8c-0.1,0.3-1.7-0.9-1.3-1.4c1.5-2.2,0.3-6.1,3.9-6.7
			C317.5,404.4,318.8,406.5,319.2,406.8z"/>
		<path class="st181" d="M319.1,413c-1.1,2.5-2.7,4.6-5,6.1C313.7,415.4,314.8,412.9,319.1,413z"/>
		<path class="st181" d="M312,423c-2.7-0.3-1.8-2.4-2-4c1.5-0.2,2.8,0.3,4,1C313.3,421,312.6,422,312,423z"/>
		<path class="st182" d="M310,430c-0.2-3.7,3.6-2.3,5-4.1c0.7-0.5,1.5-1.2,2.2-0.9c6.8,2.7,13.9,0.6,20.8,1.9c1.6,0.2,3.7-0.6,4.1,2
			c-0.1,0.3-0.1,0.6-0.1,1c-1.9,1.3-4.2-0.3-6,1c-0.6,0-1.3,0-1.9,0c-4.6-1.4-9.4,0.3-14-0.9c-1,0-2,0-3-0.1c-2-0.5-4-0.9-6,0
			C310.7,430,310.3,430,310,430z"/>
		<path class="st183" d="M338,427c-7.7,0.2-15.4,0.2-23-1c0-0.7,0-1.3,0-2c1-1,2-2,3-3c1.3,4.1,4.2,5.2,8.4,5.1
			C330.3,426,334.3,425,338,427z"/>
		<path class="st184" d="M320,430c4.7,0.4,9.5-1,14,0.9C329.4,430.5,324.6,432.1,320,430z"/>
		<path class="st184" d="M311,430c2-1.5,4-1.4,6,0C315,430.8,313,430,311,430z"/>
		<path class="st184" d="M336,431c1.8-1.7,4-0.6,6-1C340.2,431.8,338,430.7,336,431z"/>
	</g>
</g>
</svg>
