<?xml version="1.0" encoding="utf-8"?>
<!-- Generator: Adobe Illustrator 23.0.5, SVG Export Plug-In . SVG Version: 6.00 Build 0)  -->
<svg version="1.1" id="Capa_1" xmlns="http://www.w3.org/2000/svg" xmlns:xlink="http://www.w3.org/1999/xlink" x="0px" y="0px"
	 viewBox="0 0 595.3 841.9" style="enable-background:new 0 0 595.3 841.9;" xml:space="preserve">
<style type="text/css">
	.st0{fill:#FFFFFF;}
	.st1{fill:#C5322C;}
	.st2{fill:#C4322B;}
	.st3{fill:#C4332C;}
	.st4{fill:#C6312A;}
	.st5{fill:#C6332C;}
	.st6{fill:#C4322F;}
	.st7{fill:#C6312F;}
	.st8{fill:#C5322E;}
	.st9{fill:#C7342E;}
	.st10{fill:#C5342D;}
	.st11{fill:#CB2F2F;}
	.st12{fill:#C5322B;}
	.st13{fill:#C23227;}
	.st14{fill:#C53533;}
	.st15{fill:#C53433;}
	.st16{fill:#BD362E;}
	.st17{fill:#C73226;}
	.st18{fill:#C43226;}
	.st19{fill:#C23330;}
	.st20{fill:#B4312C;}
	.st21{fill:#C03A37;}
	.st22{fill:#C33325;}
	.st23{fill:#BA352B;}
	.st24{fill:#C53029;}
	.st25{fill:#C9302E;}
	.st26{fill:#C5332D;}
	.st27{fill:#C03531;}
	.st28{fill:#C63130;}
	.st29{fill:#B2342B;}
	.st30{fill:#C13330;}
	.st31{fill:#C62E28;}
	.st32{fill:#AD2F27;}
	.st33{fill:#BD2C2A;}
	.st34{fill:#B92D2F;}
	.st35{fill:#C73332;}
	.st36{fill:#C23128;}
	.st37{fill:#C03E39;}
	.st38{fill:#CA3030;}
	.st39{fill:#C43533;}
	.st40{fill:#BE3A32;}
	.st41{fill:#C43432;}
	.st42{fill:#BF3935;}
	.st43{fill:#B3322E;}
	.st44{fill:#BD3D39;}
	.st45{fill:#C83532;}
	.st46{fill:#BE3935;}
	.st47{fill:#AC2E32;}
	.st48{fill:#BC332E;}
	.st49{fill:#CA343A;}
	.st50{fill:#C4322A;}
	.st51{fill:#C53835;}
	.st52{fill:#A6282F;}
	.st53{fill:#C22F26;}
	.st54{fill:#A83132;}
	.st55{fill:#AA2C2D;}
	.st56{fill:#A72F2B;}
	.st57{fill:#A83335;}
	.st58{fill:#B13130;}
	.st59{fill:#BD3A36;}
	.st60{fill:#C6332B;}
	.st61{fill:#C6322A;}
	.st62{fill:#C8302C;}
	.st63{fill:#C8302E;}
	.st64{fill:#C5312E;}
	.st65{fill:#C6312E;}
	.st66{fill:#C7312E;}
	.st67{fill:#C5322A;}
	.st68{fill:#C53133;}
	.st69{fill:#CA2F2C;}
	.st70{fill:#C7302A;}
	.st71{fill:#C53132;}
	.st72{fill:#C43132;}
	.st73{fill:#C93029;}
	.st74{fill:#C63331;}
	.st75{fill:#C7302E;}
	.st76{fill:#CC2F2C;}
	.st77{fill:#C2332A;}
	.st78{fill:#C0342B;}
	.st79{fill:#CA2F2F;}
	.st80{fill:#C92F2F;}
	.st81{fill:#C63228;}
	.st82{fill:#C4332A;}
	.st83{fill:#C92F2D;}
	.st84{fill:#C9302C;}
	.st85{fill:#C4322C;}
	.st86{fill:#C2332B;}
	.st87{fill:#C9312E;}
	.st88{fill:#CB2F2A;}
	.st89{fill:#C2332C;}
	.st90{fill:#C42F27;}
	.st91{fill:#C73031;}
	.st92{fill:#C92E32;}
	.st93{fill:#C7322F;}
	.st94{fill:#CA2E31;}
	.st95{fill:#C03429;}
	.st96{fill:#CA2F2A;}
	.st97{fill:#C43025;}
	.st98{fill:#CF2D2E;}
	.st99{fill:#C53327;}
	.st100{fill:#CE2D2D;}
	.st101{fill:#C1322C;}
	.st102{fill:#C33229;}
	.st103{fill:#CB322C;}
	.st104{fill:#C2332E;}
	.st105{fill:#CC2E28;}
	.st106{fill:#C13231;}
	.st107{fill:#CA302F;}
	.st108{fill:#CE3030;}
	.st109{fill:#C23232;}
	.st110{fill:#C1342F;}
	.st111{fill:#BD362A;}
	.st112{fill:#C33231;}
	.st113{fill:#CC2E2B;}
	.st114{fill:#CC302B;}
	.st115{fill:#C13025;}
	.st116{fill:#C13128;}
	.st117{fill:#C83129;}
	.st118{fill:#CD302D;}
	.st119{fill:#CC332E;}
	.st120{fill:#CB302E;}
	.st121{fill:#C0342A;}
	.st122{fill:#C33230;}
</style>
<g>
	<g>
		<path class="st0" d="M304.5,490c-31.7,0-63.3-0.1-95,0.1c-3,0-3.6-0.6-3.6-3.6c0.1-50.3,0.1-100.7,0-151c0-3,0.6-3.6,3.6-3.6
			c63.7,0.1,127.3,0.1,191,0c3,0,3.6,0.6,3.6,3.6c-0.1,50.3-0.1,100.7,0,151c0,3-0.6,3.6-3.6,3.6C368.5,489.9,336.5,490,304.5,490z"
			/>
		<path class="st1" d="M279.3,347.9c2.6,1.7,7,0.4,7.8,4.9c-0.5,2.7,0.9,4.5,3.1,5.8c0.2,0.4,0.3,0.8,0.3,1.3
			c-0.5,2.1,1.3,1.8,2.4,2.2c1.2,0.5,2,1.2,1.6,2.7c-1.3,2-3.7,0.4-5.4,1.5c1.5,2.5,6.4,2.4,5,6.8c-1.9,1.6-3.7,0.3-5.6-0.3
			c-1.9,1.2-1.1,2.2,0.3,3.1c2.1,0.8,3.3,3.1,5.5,3.7c1.6,0.1,3.4,0.8,4.6-0.9c0.4-0.2,0.7-0.4,1.2-0.5c1.4-0.4,2.5,1.4,4,0.5
			c0.7-0.7,1.1-1.7,2.1-2.2c1.5-0.4,2.5,0.3,3.2,1.6c0.5,1.7,2,1.3,3.2,1.4c1.6,0.4,3.3,0.9,4.3-1c0.7-1.3,0.8-2.5-0.8-3.2
			c-0.9-0.7-1.3,0.2-1.9,0.7c-2.6-0.4-2.6-3.4-4.6-4.5c-0.1-0.5-0.2-0.9-0.1-1.4c1.3-2.7,0.8-5.8,2.5-8.4c0-0.3,0-0.6,0.1-0.8
			c0.3-0.3,0.7-0.6,1.2-0.7c1.6-0.1,2.5,1,3.3,2.1c1,1.4,2.1,0.9,3.3,0.2c0.5-0.1,0.9-0.1,1.3,0.1c1.6,1,3.1,3.1,4.7,0
			c0.2-0.4,0.4-0.8,0.7-1.2c1.2-1.3,2.1-3.1,4.4-2.6c0.4,0.3,0.7,0.5,1.2,0.4c-0.4-0.2-1-0.1-1.4-0.5c-0.5-0.6-0.5-1.2-0.4-1.9
			c0.2-0.8,0.9-1.3,1-2.2c-2.3-0.5-3.5,1.2-5,2.4c-1,0.5-1.8,0.1-2.6-0.4c-0.6-0.4-1-1-1.3-1.6c-0.7-1.4,0.2-2.7,0.4-4
			c0.3-0.3,0.6-0.7,0.9-1c1.2-0.5,2.6-0.8,3.8-0.6c2.3,0.4,1-1.4,1.4-2.2c1.7-0.6,3.4-1.1,5.1-1.7c1.7,0.2,3.3-0.1,5,0.2
			c2.6,0,5.2,0.4,7.8,0c0.7-0.2,1.4-0.2,2.1-0.2c1.5-0.2,2.7,0.8,4.1,1.2c2,1.2,3.7,2.9,6.1,3.2l-0.1-0.1c2.1,2.8,5.3,4.2,8.1,6l0,0
			c0.2,0.9,0.8,1.6,1.3,2.2c0.2,0.7,0.2,1.3,0,2c-0.4,0.6-0.9,1.1-1.6,1.3c-1.5-0.1-2.4-1.2-3.4-2.1c-1.4-1.9-3.2-2.8-5.6-1.8
			c-2.2,0-2.7-2-3.8-3.3c-1.6-1.7-1.5,0.3-2,0.9c-0.8,1.3-1.6,2.5-1.2,4.6c1.5-1.6,0.1-3.9,1.6-4.9c1.5-0.3,2.1,0.6,2.5,1.8
			c0.3,1.9,0.3,3.9,2.1,5.1c0.3,0.3,0.6,0.6,0.9,1c1.3,1.8,2.7,0.9,4,0c0.6-0.3,1.3-0.5,2-0.5c0.9-0.1,1.8,0,2.7,0.3
			c1.2,2.2,3.5-0.8,4.8,0.9c0.3,0.7,0.3,1.3,0.1,2c-1.5,2.2-1.9,4.8-3.4,7c-0.6,0.3-1.5-0.1-1.9,0.1c-1,0.5,0.1,1.1,0.4,1.4
			c1.9,2.1,3,4.4,2.4,7.3c0.5,0.1-1.3,1.4,0.4,0.8c1.5,1.1,1.8-0.2,2.3-1.2c1.4-1.6,1.5-4.8,4.8-4.2c0.5,0.2,0.8,0.5,1,1
			c-1,4,0.3,8,0.5,12c-0.3,2.5-0.3,5.1-2.5,6.9c-2.8-0.8-2-4.2-4-5.6c-0.5-0.4-1.6-0.9-1.6-0.5c-0.5,4.2-1.4,8.4-3.6,12.2
			c1-1.7,1.2-3.7,3.2-4.7c2,0.6,3.6-1.4,5.6-1c1.4,1.4,0.1,2.9,0.1,4.3c-2.2,5.3-4.1,10.7-8.9,14.4c-1.3-0.6-2.7-0.7-4.1-0.5
			c-0.2,0.2-0.7-0.4-0.9,0.3c0.3,0,0.5,0.1,0.8,0.3c0.6,0.3,1,0.8,1.3,1.4c0.4,1.4-0.1,2.7-0.8,3.9c-0.2,0.4-0.6,0.6-1.1,0.6
			c-4.3-2.5,0.4,2.9-1.9,2.1c-2,1.7-3.3,0.3-4.2-1.2c-0.9-1.5-1.9-3-2.7-4.6c-0.1-0.5,0-0.9,0.2-1.4c0.2-0.4,0.8-1.1,0.7-1.2
			c-0.5-0.6-0.9,0.5-1.5,0.2c-0.2,0-0.3-0.1-0.5-0.1c-0.4-0.2-0.8,0-0.6,0.4c1.5,3.1,3.6,6,4.3,9.5c-0.8,1.3-1.3,2.9-3.2,3.2
			c-3.8-1.6-3,2.7-4.8,3.8c-2.3,0.8-2.6-2.9-4.9-2.1c-0.8,0.3-1.6,0.6-2.5,0.6c-2.7,0.3-4.1,1.9-4.8,4.4c-0.1,0.6-0.2,1.3-0.4,1.9
			c-0.8,2.2,1,3.5,1.6,5.2c0,0.5-0.1,0.9-0.3,1.3c-4.5,2-1.4,3.4,0.4,4.9c0.4,1,0.2,1.9-0.5,2.7c-0.3,0.1-0.6,0.2-0.9,0.2
			c-0.9,0.7-1.8,1.6-3.2,1.2c-1.6-1.2-2-3.3-3-4.9c-1.8-2.8-2.9-1.6-3.8,0.8c-3,0.4-3.7,2.1-2.9,4.8c-1,1.1-1.5,2.3-1.7,3.7
			c0,0.3-0.1,0.6-0.2,0.8c0.4,0,0.5-0.2,0.4-0.7c0.7-1.4,1.7-2.5,2.6-3.7c0.3-0.3,0.7-0.5,1.1-0.5c0.4,0.1,0.8,0.3,1.1,0.6
			c0.6,0.6,1.3,1,2.1,1.3c0.4,0.2,0.6,0.5,0.8,0.9c0.3,1.8-1.3,3-1.4,4.7l0,0c-2.1,0.6-3.5,2.3-5.2,3.6c-0.6,0.5-1.1,0.9-1.7,1.4
			c-2.2,0-4.3,0.3-6.4,1c-1.5-4.5-3.1-1-4.7,0c-1.3,0.3-2-0.6-1.8-1.6c0.4-3-1.2-1.7-2.4-1.2c-1.2,0.1-3.3-1.2-2.8,1.7
			c-0.7,0.9-1.7,1.3-2.9,1.3c-1-0.3-1.7-1.2-2.4-1.9c-0.2-0.3-0.4-0.6-0.6-1c-0.5-0.5-0.9-0.1-1.4,0.2c-0.7,0.5-1.5,0.9-2.3,0.3
			c-0.6-2.4-1.6-3.1-3.3-0.8c-0.7,0.6-1.6,0.8-2.5,0.9c-1-0.8-2-1.5-2.9-2.3c-1-1.2-1.2-2.5-0.9-4c0.4-1.7,0.9-3.4,1.6-5
			c0.1-0.4,0.2-0.9,0.3-1.3c0-0.6,0.4-1.5-0.4-1.7c-0.7-0.2-0.9,0.8-1.2,1.3c-0.6,0.7-1.3,1.2-2.3,1.1c-0.4-0.3-0.6-0.6-0.8-1
			c-0.3-1.9-1.8-2-3.2-2.3c-0.6-0.2-1.2-0.5-1.7-1c-0.7-0.7-1.4-1.5-2.6-1.5c-1.7,0.2-3.3-0.2-4.9-0.3c-2.7-1.2-4.3-3.7-6.2-5.8
			c0.1-0.2,0.1-0.4,0.2-0.6c1.8-2,4.5-3.5,4.3-6.8c-0.1-0.8,0.3-1.8-0.4-2.2c-0.7-0.4-1,0.6-1.4,1.1c-1.4,1.7-1.6,4.5-4.5,4.9
			c-2.6-0.5-3.2-3.5-5.4-4.4c-0.2-0.3-0.4-0.6-0.7-0.9c-1-2.2-2.2-4.4-0.7-7c1.2-2.1-0.5-4.1-0.7-6.2c0.1-1.7,0.2-3.4,0.5-5.1
			c0.1-1.8,0-3.5,0-5.3c-0.2,1.7,0.4,3.6-0.6,5.2c-2.7,1.4-3-0.6-3.5-2.4c-1.8-7.2-1.8-7.2-8.8-7.5c-0.9,0-1.7-0.2-2.1-1
			c-1.1-2.2-1.2,1-1.9,0.3c-2.6-0.3-1.5-3.4-3.3-4.3l0.1,0c-0.5-2.6-1.2-5.1-1.9-7.7c-0.3-0.4-0.4-0.9-0.3-1.3
			c0.5-1.8,0.5-3.7-0.1-5.5c0-0.9-0.2-1.9,0.3-2.8c0.6-0.4,1.3-0.5,2-0.1c0.7,0.7,1.3,1.4,1.6,2.4c0,0-0.1,0.9,0.4,0.3
			c0.2-0.2,0-0.6,0-0.9c-0.2-0.5,0.5-1.5-0.8-1.2c-0.4,0.1-0.7,0-1-0.3c-0.9-1-1.8-2-1.9-3.4c0-0.2-0.1-0.4-0.1-0.7
			c0.3-0.9,0.6-1.9,0.8-2.8c1.4-3.9,3.1-7.8,5.1-11.5c-0.1-0.3,0-0.5,0.2-0.6c0-0.5,2.2,0.4,0.7-1.1c0.1-3.5,2.8-5.1,5.1-7
			c0.2,0.2,0.3,0.3,0.5,0.5c0.5,1.9-0.2,3.9,0.5,5.7c0.1,0.8,0.1,1.6-0.2,2.4c-0.2,0.3-0.2,0.7,0.1,0.8c0.2,0.1,0.6-0.2,0.8-0.4
			c0.4-0.2,0.7-0.2,1.1-0.2c0.4,0.2,0.7,0.4,1,0.7c1.5,1.6,2-0.1,2.9-0.8c1.2-1.6,4.6-2.4,2.1-5.4c1.6-2.8-0.1-4.5-2-6.2
			c0.5-3.7,3.5-3.9,6.2-4.7c1,0.6,2.2-0.1,3.3,0.4c1.5,0,2.8,4.1,4.6,0.3c1.2-1.1,2.8-0.9,4.2-1.1c0.4,0,0.8,0,1.3,0
			c2.2,0.1,4.4,0.2,6.6,0.3C277,346.8,278.2,347.2,279.3,347.9z"/>
		<path class="st2" d="M299,466c1-0.3,2-0.7,3-1c1.8,0.5,2.7-0.3,3-2c0.8-1.2,1.4-3,3.3-2.2c2.7,1.2-0.7,2.3-0.2,3.6
			c0.3,0.6,0.6,1.1,0.9,1.7c1,0,1.7,0.3,2.3,1.1c0.2,1-0.2,1.8-0.7,2.6c-0.7,0.8-1.5,1-2.5,0.9c-1.8-0.4-3.6-0.9-3.2,2
			c0,1.7,1.8,2.2,2.4,3.5c0,0.3-0.1,0.6-0.3,0.9c-1.7,1.2-3.4,0.9-5.1,0.2l0,0c-1-2.8-3.6-3.9-5.9-5.2c-0.3-0.4-0.6-0.7-1-1.1
			c-0.9-0.8-1.6-1.6-1.5-2.9c0.1-0.7,0.5-1.2,1.2-1.5C296.1,466.3,297.6,466.2,299,466z"/>
		<path class="st3" d="M309,379c-0.6-1.3-1.6-2-3-2c-1.4,0.6-1.5,1.7-1,3c-2.3,2.7-3.2-1.5-5-1c-2-1.1-2.1-2.8-1.1-4.6
			c1.2-2.1,0.3-3.4-1.5-4.4c-0.4-0.3-0.7-0.6-1-1c-1.3-2.4-1-4.3,1.8-5.4c0.3,0,0.5,0,0.7,0.3c0.7,1,1,2.4,2.1,3.1
			c1.2,2.3,2.4,4.6,3.6,6.9c2.3,0,2.7-3.6,5.3-2.9c0,0.3,0,0.7,0,1c0.5,2.5,3.6,4.4,1.7,7.5C310.7,379.9,309.8,379.8,309,379z"/>
		<path class="st4" d="M298,369c2.9,1.3,4.3,3.1,1.9,6c-1.3,1.5-0.5,2.7,0.1,4c-0.3,0-0.7,0-1,0c-0.9,0.8-1.6,0.4-2.3-0.4
			c0.2-2-1.7-3.5-1.3-5.6c0-0.6,0.3-1.3-0.1-1.9c0.2,0.4,0.1,0.9,0.1,1.4c-0.1,0.5-0.4,0.7-0.9,0.8c-0.2-0.1-0.4-0.2-0.6-0.3
			c-0.6-2.8-3-3.5-5.1-4.8c-0.9-0.6-2.9-1-2.2-2.6c0.5-1.2,1.9-1.5,3.4-1c1.2,0.4,2.6,0.3,3.9,0.5c0.9-1.4,2-2.7,4-2
			c0.3,0.1,0.3,0.3,0.2,0.6c-1,1.7-2.3,3.3-1.2,5.4c0.4,0.4,0.5,0.8,0.4,1.3C298,370.1,297.3,369.2,298,369z"/>
		<path class="st5" d="M249.9,426.3c-2.7-3.4-5.8-6.4-7.6-10.3c0.2-1.4-0.5-2.8,0.3-4.2c0.9-1.4,1.6-3,3.6-3.2
			c2.1,0.7,2.8,2.4,3.2,4.4c-2,2.7,0.3,4.1,1.8,5.7C254.4,422.1,254.2,423.8,249.9,426.3z"/>
		<path class="st6" d="M249.8,350.9c5.9,2,6.1,2.5,2.2,6.1c0.8,1.7,0.1,3-1.1,4.2c-1.5,0.2-2.6,1.1-3.7,2c-0.4,0.2-0.8,0.1-1.1-0.3
			l0,0c-0.9-0.8-1.7-1.7-1.8-2.9c-0.5-2.1,2.5-4,0.5-6.3c-0.1-2.2,2.4-1.8,3.2-3.1C248.7,349.3,249.1,351,249.8,350.9z"/>
		<path class="st7" d="M249.9,426.3c2.7-2.7,3.7-4.8-0.4-7.6c-3.7-2.6-3.4-4.7-0.5-5.7c2.1,1,3.9,2.3,4,5c1.7,2.4,3.2,4.8,0.9,7.6
			c-1.5,1.9,0.7,3.8,0,5.7C251.9,430.2,251.2,428,249.9,426.3z"/>
		<path class="st8" d="M355,425c-2.9-2.5-2.9-6.8-5.6-9.5c-0.8-0.9-0.5-2.5,0.8-2.8c1.6-0.4,1.6,1.2,1.8,2.3c0.7,0.5,1,1.2,1,2
			c1.3,1.4,3.1,2.2,3.2,4.6c0,1.2,1.2,2.3,2.8,1.4c0.4-0.3,0.8-0.3,1.3,0c0.4,0.7,0.3,1.4-0.3,1.9c-1.1,1.3-1.1,3.3-2.8,4.1
			C354.3,428.8,354.9,426.7,355,425z"/>
		<path class="st9" d="M322.9,350.9c1.3,1.3-0.4,2.7,0.1,4c-0.6,1.1-1.7,1.7-2.6,2.5c-0.6,0.5-1.1,1.1-1.5,1.8
			c-0.4,0.7-0.8,1.4-1.2,2c-0.5,0.6-0.9,1.3-1.7,1.7c-1-0.6-1.5-2.2-3-2c-0.2-2.4,2.5-3.1,3-5.2
			C317.6,353.2,320.1,351.9,322.9,350.9z"/>
		<path class="st10" d="M310,371c-2.4-0.2-1.7,5.3-5.3,2.9c2.7-3.8,2.6-9.4,7.3-12C312,365,312.5,368.3,310,371z"/>
		<path class="st2" d="M290,359c-3.4-0.9-5.9-2.3-2.9-6.2c3.9,1.2,7.1,3.3,8.8,7.2C293.7,361.5,292,359.3,290,359z"/>
		<path class="st11" d="M336,450.8c0-1,0-1.9,0-2.9c-0.6-1,0.1-1.7,0.6-2.4c1.2-0.9,2.3-2,3.2-3.2c1.9-1.3,2-4.8,5.3-4.6
			c0.3,0.4,0.6,0.8,0.7,1.3c0.2,1,0,2-0.8,2.7c-1.1,0.3-0.9,1.4-1.3,2.1c-1,0.8-1.9,1.7-2.7,2.8C339.1,447.8,338.2,450.2,336,450.8z
			"/>
		<path class="st12" d="M355,425c1.6,0.9,0.4,3.2,2.1,4.1c-0.5,0.7-1.1,1.3-1.6,2c-1.4,0.5-1.8,1.9-3,2.6c-0.8,0.4-1.6,0.9-2.6,0.5
			c-0.3-0.4-0.5-0.8-0.6-1.3c0-2.1,1-3.7,2.8-4.8C353.3,427.3,352.8,424.8,355,425z"/>
		<path class="st13" d="M290,359c2.4-1.9,3.8,1.5,5.9,1c0.8,0.9,2.1,1.5,2.1,3c-1.3,0.7-2.7,1.3-4,2c0-1.3-0.7-2-2-2
			c-0.9-0.9-1.9-1.6-2-3C290,359.7,290,359.3,290,359z"/>
		<path class="st14" d="M236.9,362.6c-0.7,4.3-2,8.3-5.1,11.5C231.6,369.4,232.8,365.4,236.9,362.6z"/>
		<path class="st15" d="M377,389c-1.3-4-2-8,0-12c0.3-0.4,0.7-0.4,1.1-0.1l0,0c0.9,3,0.6,6.1,1.1,9.1c-0.1,1-0.2,2-0.2,3
			C378.3,389.6,377.6,389.6,377,389z"/>
		<path class="st16" d="M294,468c0.3,1,0.7,1.9,1,2.9c-3.6-1.1-6-3.8-8-6.8c0.4-0.9,1.2-1.1,2-1.1c0.6-0.6,1.2-0.6,2-0.3
			C292.4,464.2,292.6,466.4,294,468z"/>
		<path class="st17" d="M277,448c1.5,0.8,5.7-2.1,4,3c-1.6,1.2-2.6,3.4-5.1,3.1c-0.3-0.3-0.6-0.6-0.9-0.9
			C273.7,450.6,275.8,449.5,277,448z"/>
		<path class="st18" d="M314,466c1.7-3.1,3.9-3.1,6.3-0.9c-0.1,0.8,0,1.7-1.1,2c-1.4,0.4-2.4,1.8-4,1.7c-1.1-0.1-1.9-0.6-2.4-1.6
			C312.7,466.3,313,465.8,314,466z"/>
		<path class="st19" d="M260,436c2.5-0.7,1.5-4.3,4-5c0.9,0.5,1.3,1.3,1.6,2.3c0.3,3-2.5,4.3-3.5,6.6c-0.1,0.1-0.2,0.3-0.4,0.4
			c-0.6-0.7-1.2-1.4-1.9-2C259.5,437.5,259.4,436.7,260,436z"/>
		<path class="st20" d="M349,346c-0.7,0-1.3,0-2,0c-2.6,0.7-5.3,0.7-7.9,0c-1.6-0.2-3.4,0.4-4.9-0.6c5-1.1,9.9-1.5,14.9-0.3
			c0.3,0.2,0.4,0.4,0.3,0.6C349.2,345.9,349.1,346,349,346z"/>
		<path class="st21" d="M240.1,413c-1.3-2.3-2.6-4.7-3.9-7c0.3-0.4,0.7-0.6,1.2-0.7c0.8,0,1.5,0.1,2.1,0.6c1.6,1.5,3.7,2.8,3.1,5.6
			C242.3,412.7,242,414.1,240.1,413z"/>
		<path class="st22" d="M308,470c0.8,0,1.6-0.2,2-1c1.5-1.2,3.1-1,4.8-0.4c0.9,0.6,0.8,1.3,0.2,2.1c-0.9,0.8-1.8,1.6-2.7,2.3
			c-1.1,0.6-2.2,0.6-3.2-0.2c-0.6-0.4-1-0.9-1.3-1.6C307.7,470.8,307.7,470.4,308,470z"/>
		<path class="st23" d="M377,389c0.6,0,1.3,0,1.9,0c-0.5,4.3-1.6,8.3-3.8,12c-1.1-1.3,0.4-2.7-0.1-4c-0.2-0.2-0.3-0.4-0.2-0.7
			c0.1-0.2,0.2-0.3,0.2-0.3C377.3,394.1,377,391.5,377,389z"/>
		<path class="st24" d="M275.9,454.1c1.5-1.3,2.8-3.1,5.1-3.1c0,0.3,0,0.7,0,1c0.8,1.5,0.7,3,0.4,4.6c-0.4,0.6-0.9,1-1.7,0.5
			C278.4,456.1,277.2,455.1,275.9,454.1z"/>
		<path class="st2" d="M329,347.1c0.6,1.2,3.3,1.3,2.3,3.2c-0.7,1.3-2.4,0.4-3.6,0.1c-1.3-0.3-2.6-0.4-3.9-0.5
			C325.2,348.4,327.1,347.7,329,347.1z"/>
		<path class="st8" d="M350,434c0.7-0.3,1.4-0.7,2-1c0.6,0.7,0.5,1.4,0,2.1c-1.4,1.6-2.8,3.2-4.2,4.8c-1.2,0.5-2-0.1-2.7-0.9
			c0-0.3,0-0.7,0-1C346,435.9,347.9,434.8,350,434z"/>
		<path class="st25" d="M308,471c0.3,0.4,0.7,0.7,1,1.1c0.6,1.2-0.7,2.1-0.7,3.2c-0.4,0.3-0.8,0.6-1.1,0.9c-1.4-0.7-4.2,0.1-3.2-3.1
			C305.2,472,306,470.2,308,471z"/>
		<path class="st26" d="M367.2,355.9c-3.4-1.1-7-1.8-8.1-6C362.5,350.8,365.1,353.1,367.2,355.9z"/>
		<path class="st27" d="M296,472c3.5,0,6,1.1,5.9,5.2C299.6,475.8,297.2,474.5,296,472z"/>
		<path class="st28" d="M332,452c1-0.3,2.1-0.6,3.1-1c-0.4,2.8-2.7,3.9-4.7,5.1c-0.9,0.5-1.4,0-1.8-0.8
			C328.5,453,329.9,452.1,332,452z"/>
		<path class="st29" d="M372.1,360.8c2.5,3,4.1,6.4,4.9,10.2c-0.3,0.3-0.8,0.5-1.2,0.5c-1.5-0.5-1.8-2-2.4-3.2
			c-0.6-1.7-1.3-3.3-1.8-5c-0.1-0.4-0.2-0.9-0.2-1.3C371.5,361.5,371.7,361.1,372.1,360.8z"/>
		<path class="st30" d="M272.9,451.1c-2.3,0.2-1.9-2.1-3-3c0.8-1.2,2.1-1.5,3.3-1.8c0.8,0,1.6,0.3,2.1,0.9
			C275.8,449.2,275.5,450.9,272.9,451.1z"/>
		<path class="st31" d="M279.7,457.1c0.4-0.4,0.9-0.8,1.3-1.1c1.1-2,1.8-4.6,5-3c-0.7,1.3-1.3,2.7-2,4c-0.8,1.3-1.8,2-3.3,1.1
			C280.4,457.8,280,457.5,279.7,457.1z"/>
		<path class="st32" d="M231,389c0,0.3,0,0.7-0.1,1c-0.3,0.4-0.5,0.4-0.8,0c-0.2-4.4-1.5-8.8,0.7-13c0,0,0.1,0.2,0.1,0.2
			c0.6,1.3,0.9,2.6,0,3.8c0,1,0,2,0,3C231.7,385.7,231.7,387.3,231,389z"/>
		<path class="st33" d="M379.1,386c-2.2-2.8-0.7-6.1-1.1-9.1C380,379.8,380,382.8,379.1,386z"/>
		<path class="st34" d="M261,345.1c2.8-0.1,5.8-2.4,8.4,0.7c-0.2,0.1-0.3,0.2-0.4,0.3c-2.5,0.6-4.9,0.7-7.5,0.5
			C260.9,346.2,260.7,345.7,261,345.1z"/>
		<path class="st35" d="M272.9,451.1c1.4-1,1.9-2.4,2.1-4.1c0.3-0.4,0.7-0.4,1,0c0.3,0.3,0.7,0.7,1,1c0.7,2.2-2,3.2-2,5.1
			C274.3,452.4,273.6,451.8,272.9,451.1z"/>
		<path class="st36" d="M363,417c-0.3-0.3-0.7-0.7-1-1c-0.6-0.7-0.6-1.3,0-2c1.6-0.2,3.5-1.2,4.2,1.4c-0.4,0.5-0.8,1-1.2,1.6
			C364.3,417.6,363.7,417.6,363,417z"/>
		<path class="st37" d="M237.1,406c-0.3,0-0.6,0-0.8,0c-1.5-2.5-2.8-5-3.5-7.9c2.4,0.2,1.8,2.9,3.2,3.9
			C237.2,403.1,238.2,404.3,237.1,406z"/>
		<path class="st38" d="M273,447c-1,0.3-2.1,0.7-3.1,1c-0.6-0.7-1.3-1.3-1.9-2c1.3-2.3,3.6,0.3,5-1.1
			C273.6,445.7,273.6,446.3,273,447z"/>
		<path class="st39" d="M322,463.8c0.6-2.8,2.3-4,5.2-3.6C325.7,461.7,324.7,463.9,322,463.8z"/>
		<path class="st26" d="M359.2,349.9c-2.7,0.5-4.9-0.2-6.2-2.8c0.6-0.6,1.3-0.6,2-0.1C357.1,346.9,357.7,349,359.2,349.9z"/>
		<path class="st40" d="M260,436c0,0.7-0.1,1.5-0.1,2.2c-2.2-1.7-4-3.7-5.3-6.1C257.5,431.8,257.7,435.5,260,436z"/>
		<path class="st41" d="M363,417c0.7,0,1.3,0,2,0c0.7,2-0.3,3.2-1.9,4c-0.3,0.4-0.7,0.3-1,0C361.8,419.6,362.3,418.3,363,417z"/>
		<path class="st39" d="M329,455c0.5,0.4,0.9,0.8,1.4,1.2c0,2.2-1.7,3-3.3,4c-1.8-2.1,1.2-3.3,0.9-5.1
			C328.3,454.7,328.7,454.7,329,455z"/>
		<path class="st42" d="M280.7,458.1c1.1-0.4,2.2-0.7,3.3-1.1c0,1.6,0,3.2,0,4.8C282.2,461.2,280.9,460.2,280.7,458.1z"/>
		<path class="st43" d="M230.2,390c0.3,0,0.5,0,0.8,0c1.5,2.5,2.2,5.2,1.9,8.2C231.2,395.7,231.1,392.7,230.2,390z"/>
		<path class="st44" d="M308.3,475.2c-1.9-1.5,0.7-2.1,0.7-3.2c1.1,0.4,2.1,0.7,3.2,1.1C311.2,474.2,310.5,476.1,308.3,475.2z"/>
		<path class="st45" d="M372.1,360.8c0,0.4-0.1,0.8-0.1,1.2c-2.1,0.9-3.3-0.2-4-2.1c0-0.7,0-1.3,0-2c1.1-0.6,1.5,0.5,2.1,0.9
			C370.8,359.6,371.4,360.2,372.1,360.8z"/>
		<path class="st27" d="M301.8,477.1c1.7-0.1,3.4-0.1,5.1-0.2C305.3,480.3,303.6,479.6,301.8,477.1z"/>
		<path class="st46" d="M314.9,470.7c0-0.6,0-1.2,0-1.7c-0.3-0.2-0.4-0.5-0.3-0.7c0.1-0.2,0.2-0.3,0.3-0.3c1.4-0.3,2.8-0.6,4.3-0.9
			C318.1,468.6,316.8,470.1,314.9,470.7z"/>
		<path class="st47" d="M316,355.8c0.2,2.4-2.2,3.3-3,5.2c-0.3,0-0.6,0-0.9,0C312.3,358.5,314.3,357.2,316,355.8z"/>
		<path class="st48" d="M240.1,413c1.3-0.1,1.9-0.8,1.9-2c0.9-0.2,1.3,0.1,1,1c-0.1,1.3,0.4,2.8-0.8,4
			C241.5,415,240.8,414,240.1,413z"/>
		<path class="st49" d="M345,439c0.9,0.3,1.8,0.6,2.7,0.9c-0.6,1.2-1.2,2.2-2.8,1.9C345,440.9,345,440,345,439z"/>
		<path class="st50" d="M376,371c0.3,0,0.6,0,1,0c1.5,1.8,1.2,3.9,1.1,5.9c-0.4,0-0.7,0.1-1.1,0.1c0,0,0,0,0,0
			C375.7,375.2,374.6,373.3,376,371z"/>
		<path class="st51" d="M355,347c-0.7,0-1.4,0.1-2,0.1c-1.3-0.3-2.7-0.7-4-1c0-0.3,0-0.6,0-0.9C351.2,345.1,353.2,345.7,355,347z"/>
		<path class="st52" d="M247.9,350.7c-1,1.1-2,2.2-3,3.3c-0.6,0.6-1.2,0.7-1.8,0.1c0,0-0.2-0.2-0.2-0.2
			C244.2,352.2,245.5,350.7,247.9,350.7z"/>
		<path class="st53" d="M237.8,360.9c0.9,0,1.8,0,2.8,0c-0.1,0.4-0.2,0.9-0.5,1.3c-1,1.2-2,0.2-3.1-0.2
			C237,361.4,237.2,361.1,237.8,360.9z"/>
		<path class="st54" d="M352,435.1c0-0.7,0-1.4,0-2.1c1.1-0.8,1.7-2.3,3.4-1.9C354.6,432.7,353.6,434.1,352,435.1z"/>
		<path class="st55" d="M362,421c0.3,0,0.7,0,1,0c-0.8,1.5-1.1,3.4-3.1,3.9c0-0.7,0.1-1.3,0.1-2c0.2-1.1,1-1.6,1.9-1.9L362,421z"/>
		<path class="st56" d="M261,345.1c0,0.3,0,0.6,0,0.9c-0.2,0.3-0.5,0.6-0.8,0.8c-0.4,0.1-0.8,0.2-1.2,0.2c-1.1,0-2.2,0.2-3-0.7
			C257.6,345.6,259.1,344.7,261,345.1z"/>
		<path class="st57" d="M301.1,367c-2.2,0-2.1-1.6-2.1-3.1C300.6,364.3,300.8,365.7,301.1,367z"/>
		<path class="st26" d="M370.1,358.9c-0.7-0.3-1.4-0.6-2.1-0.9c-0.9-0.5-1-1.3-0.9-2.2C368.3,356.7,370.3,356.8,370.1,358.9z"/>
		<path class="st58" d="M341,446.7c0.2-1.7,1.1-2.6,2.7-2.8C343.3,445.4,342.4,446.3,341,446.7z"/>
		<path class="st59" d="M279.3,347.9c-1.5,0.2-2.6-0.4-3.3-1.8C277.6,345.8,279,345.8,279.3,347.9z"/>
		<path class="st50" d="M237.1,406c-0.4-1.3-0.7-2.6-1.1-4c3.2-0.1,6.6-2.3,9.5-0.3c2.4,1.6,5.1,3.7,4.6,7.5
			c-0.2,1.5-0.5,3.5,1.9,3.8c0.7-0.6,1.3-0.6,2,0c-0.2,1.7,0.7,3.6-1,5c-1.3-1.7-2.7-3.3-4-5c-1-1.3-2-2.7-3-4c-2-1.7-5-1.3-7-3
			C238.3,406,237.7,406,237.1,406z"/>
		<path class="st60" d="M350,434c-1,2.2-3,3.1-5,4c-2.6,0.7-1.9,4.8-5,5c-1.6,0.9-2.7-0.5-4-1c-1.6-1.3-4.3-2.2-2-5
			c1.4-1.4,2.6-2,3.9,0.4c0.7,1.3,1.2,0,1.7-0.5c0.6-0.9,1.3-1.7,2.1-2.4c0.7-0.5,0.9-1-0.3-1.1c-0.4-0.2-0.7-0.4-0.9-0.8
			c-0.4-1.5,0.9-2.4,1.5-3.6c4.1-3,3.3,2.1,5,3c1.4-0.8,2.1,0.2,3,1C350,433.3,350,433.7,350,434z"/>
		<path class="st50" d="M372,363c0.9,1.6,2.4,2.9,2,5c1.3,4.8-1.1,8.8-3.1,12.8c-0.2,0.5-0.5,0.9-0.9,1.2c-1.2,0.6-0.7,2-1.8,3.4
			c-0.7-4.1,1-8.4-2.9-11.3c-0.6-0.5-0.8-2.3,0.1-3c0.4-0.3,1.7,0.6,2.5,0.9c0.1,0.1,0.3,0.2,0.4,0.3c0.1,0.1,0.2,0.2,0.3,0.3
			c0.6-2.6,2.1-4.9,2.3-7.6c0-0.7,0-1.3,0-2C371.3,362.6,371.7,362.6,372,363z"/>
		<path class="st61" d="M370,398c-2.6,1.7-1.3,5-3,7.6c-2.3-2-2.9-5.3-1.5-6.4c3.2-2.5,2.4-5.4,2.5-8.4c0.1-1.2-0.1-2.7,1.2-3
			c1.5-0.4,2.2,1.1,2.9,2.3C373.2,393.1,374.8,396.4,370,398z"/>
		<path class="st50" d="M329,455c-0.3,0-0.7,0-1,0c0,0,0,0,0,0c-0.8-1-2.2-1-3-2l0,0c-0.1-1.7-0.3-3.3,0-5c-0.4-1.7-0.6-3.3,1.7-3.8
			c1.9-0.4,2.7,0.6,3.3,2.2c0.6,1.9,1.3,3.7,2,5.6C331,453,330,454,329,455z"/>
		<path class="st62" d="M312,379c-0.5-2.4-3.7-4-2-7c4.4-1.8,1.9,3.4,4,4c1,0.4,1.4-0.6,2-1c0.9-0.2,2-1.3,2.6-0.1
			c1,2-0.1,4-1.2,5.4c-0.8,1-2.6,2.2-4.3,0.7c-0.4-0.3-0.7-0.7-1.1-1c-0.3-0.2-0.3-0.4-0.3-0.7C311.8,379.1,311.9,379,312,379z"/>
		<path class="st63" d="M370,381c1.2-4.4,3.6-8.4,4-13c0.7,1,1.3,2,2,3c0.3,2,1.3,3.9,1,6c-3.6-1-2.2,4.1-5,4
			C371.3,381.6,370.7,381.6,370,381z"/>
		<path class="st64" d="M294,381c-2.7-0.3-3.3-3.7-6-4c-0.6-2-0.6-4,0-6c2,0.5,3.5,2.8,6,2c0,0,0,0,0,0c1,1.5,1.8,3,2.4,4.7
			C296.1,379.2,295,380,294,381z"/>
		<path class="st62" d="M340,437c1.1,2.2-0.8,2.5-2.1,2.8c-1.7,0.4-1.1-0.9-1.1-1.9c-0.1-2.8-2-0.4-2.9-1c0-0.7,0-1.3,0-2
			c1.8-1.9,2.9-4.7,6-5c0.7-0.3,1.3-0.7,2-1c-0.3,1.3-0.7,2.7-1,4C340.1,434.2,339.7,435.5,340,437z"/>
		<path class="st65" d="M326,357c0-2,1.4-2.8,3-3.4c1.5-0.6,3.6-1.3,4.5,0.2c1.5,2.4-2,1.9-2.5,3.2c-2.7,0.4-3.5,3.3-5.8,4.3
			c-0.5,0.1-0.9,0.1-1.3-0.1c-0.5-0.6-0.6-1.2-0.4-2C323.9,358,324.9,357.5,326,357z"/>
		<path class="st8" d="M354,357c0-1.3-0.7-2-2-2c0.6-1.5-2.7-2.3-1-3.6c1.7-1.2,2.7,1,3.9,2c1.2,1.1,1.4,3,3.1,3.6
			c1.8,0.3,3.6,0.8,5.2,1.8c0.2,0.4,0.3,0.9,0.1,1.4c-1.2,1.8-2.8,1.6-4.5,0.9C356.8,360.1,355.4,358.6,354,357z"/>
		<path class="st66" d="M248.3,397.8c-8.7,2.7-11.7,1.6-12-5C238.8,398.8,243.8,396.1,248.3,397.8z"/>
		<path class="st7" d="M325,448c1.1,1.7,2.7,3.3,0,5c-0.3,0-0.7,0-1,0c-0.7,0.6-1.3,0.5-2,0c-0.6-1.6-2.9-2.7-1.5-4.8
			C321.9,446.2,323.5,448.2,325,448z"/>
		<path class="st8" d="M350,433c-1-0.3-2-0.7-3-1c-0.4-2.2,1.3-3.6,2.2-5.3c0.4-0.7,0.9-1.5,1.9-1.2c1.2,0.4,0.8,1.6,0.9,2.5
			C351.3,429.7,350.7,431.3,350,433z"/>
		<path class="st67" d="M324,359c0,0.7,0,1.3,0,2c0.8,1,2.3,0.9,3,2c-0.1,1.9-1.1,2.9-3,2.9c-1.9,0-2.9-1.1-3-2.9
			c-0.7-1.6-0.2-3,0.9-4.2C322.6,358.4,323.3,358.4,324,359z"/>
		<path class="st68" d="M370,398c3-2.1,1.8-5.2,2-8c3.2,0.9,1.8,4.1,3,6c0,0.3,0,0.7,0,1c-1.1,0.7-2.1,1.5-3.2,2.2
			C370.3,400.1,370.2,399,370,398z"/>
		<path class="st69" d="M305,463c1.5,1.4,1.1,2.6-0.4,3.5c-1.5,0.9-2.4,0.1-2.6-1.5c-0.6-1.1-2.8-1.8-1.6-3.2
			C302.2,459.7,303.4,462.6,305,463z"/>
		<path class="st70" d="M243.1,354.1c0.6,0,1.2-0.1,1.8-0.1c1.7,0.2,4.1,0,1.8,2.8c-0.8,1-1.7,1.8-1.7,3.3c-0.7,0.6-1.3,0.6-2,0
			C241.4,358,242.5,356.1,243.1,354.1z"/>
		<path class="st71" d="M371,365c2.8,3.6-1.9,5.7-1.7,8.9c0,0.3-0.9,0.6-1.1,0.1c-0.3-0.6-0.2-1.3-0.2-1.9
			C367.9,369.2,368.3,366.6,371,365z"/>
		<path class="st67" d="M353,358.4c-0.1,1.5,0,3.2-2.1,3.2c-1.4,0-1.9-1.3-1.8-2.6c0.1-1.7,0.5-3.7,2.4-3.8
			C352.8,355.2,352.9,357.1,353,358.4z"/>
		<path class="st72" d="M314,466c-0.3,0.3-0.7,0.7-1,1c-0.7,0.5-1.3,0.6-2,0c-0.8,0-1.6-0.2-2-1c0.2-0.6,0.2-1.3,0.5-1.8
			c0.9-1.4,2.3-2.7,4-2C315.4,463,313.4,464.8,314,466z"/>
		<path class="st73" d="M262.1,439.9c-0.9-3.1,3-4.1,2.9-6.9c0.7-0.5,1.3-0.6,2,0C267.8,437,265.4,438.7,262.1,439.9z"/>
		<path class="st74" d="M337,446c-0.3,0.7-0.7,1.3-1,2c-1.5-1-4.6,0.7-4.5-2.2c0.1-2.2,2.4-2.9,4.5-2.8
			C338.5,443.3,336.3,445.1,337,446z"/>
		<path class="st75" d="M254,413c-0.7,0-1.3,0-2,0c0.2-3.1-0.5-6.3,1-9.4C254.5,406.7,253.8,409.9,254,413z"/>
		<path class="st28" d="M322,359c0.2,1.5-0.3,2.8-1,4c-0.3,0-0.7,0-1,0c-0.8,0.7-1.9,1.5-2.9,0.9c-0.9-0.6-0.8-1.9-0.1-2.9
			c0.3-0.7,0.7-1.3,1-2C319.3,358,320.7,357.8,322,359z"/>
		<path class="st76" d="M294,468c-3.3-0.3-3-2.8-3-5c1.1-0.5,1.5,0.4,2,1c0.7-0.3,1.3-0.7,2-1c0.7-0.6,1.3-0.5,2,0c0,0.3,0,0.7,0,1
			c-0.1,1.4-1,2.2-2,3C294.7,467.3,294.3,467.7,294,468z"/>
		<path class="st77" d="M322,359c-1.3,0-2.7,0-4,0c0-1.3,0.7-2,2-2c1.3-0.6,2.3-2.1,4-1c0.7,0.3,1.3,0.7,2,1c-0.4,1-1,1.6-2,2
			C323.3,359,322.7,359,322,359z"/>
		<path class="st78" d="M363,359c-1.9,0-4,0.3-5-2c3.6-4.3,4.6-0.4,6,2C363.7,359.4,363.3,359.4,363,359z"/>
		<path class="st79" d="M354,357c2.3-0.1,3.2,2.3,5,3c0.4,1.7-0.8,1.8-2,2C352.9,362.2,354.3,359.1,354,357z"/>
		<path class="st80" d="M325,361c1.7-1.8,2.3-5.2,6-4c0,0.7,0,1.3,0,2c0,0,0,0,0,0c-1.3,1-2.7,2-4,3C326.2,362,325.4,361.8,325,361z
			"/>
		<path class="st81" d="M250,361c0.7-1.3,1.3-2.7,2-4c1.9,0,3.4,0.1,2.2,2.7c-0.9,1.8-2.6,2.4-4.1,3.3c-0.1-0.1-0.3-0.3-0.4-0.4
			C249.4,362,249.4,361.4,250,361z"/>
		<path class="st80" d="M267,433c-0.7,0-1.3,0-2,0c-0.8-0.4-1-1.2-1-2c0.2-1.6,0.7-3.3,2.7-2.4C269,429.6,266.8,431.5,267,433z"/>
		<path class="st82" d="M259,347c0.3-0.3,0.7-0.6,1-0.9c1.1,1,2.8-0.1,4,0.9c1.6,1.5,2,2.8-0.8,2.9C261,350.1,259.9,348.6,259,347z"
			/>
		<path class="st83" d="M288,371c1.3,2,1.3,4,0,6C284.9,375,284.9,373,288,371z"/>
		<path class="st72" d="M283,451c0.1-1.6-0.1-4,2.1-3.4c1.9,0.5,2,2.7,0.9,4.4C284.6,452.9,283.7,452.3,283,451z"/>
		<path class="st84" d="M357,362c0.7-0.7,1.3-1.3,2-2c1.3,0.9,2.7,0.9,4,0c1,0.8,1.6,1.7,1,3c-0.7,0-1.3,0-2,0c-1.7,1.2-3.3,1.2-5,0
			C357,362.7,357,362.3,357,362z"/>
		<path class="st85" d="M337,446c-3.4,0,0.9-2.5-1-3c0-0.3,0-0.7,0-1c1.7-1.2,2.6,0.8,4,1C339.9,444.9,338.9,445.9,337,446z"/>
		<path class="st86" d="M340,430c-2.3,1.3-3.3,4.1-6,5C334.9,432.1,335.6,428.8,340,430z"/>
		<path class="st87" d="M283,451c1,0.3,2,0.7,3,1c0,0.3,0,0.7,0,1c-2.6-0.5-3,2.5-5,3c-0.9-1.3-0.9-2.7,0-4
			C281.7,451.7,282.3,451.3,283,451z"/>
		<path class="st88" d="M322,453c0.7,0,1.3,0,2,0c-0.1,2-1.4,3.1-3,4c-0.3,0.4-0.7,0.4-1,0C319.9,455.3,317.9,452.6,322,453z"/>
		<path class="st89" d="M316,375c-0.3,1.2,0.7,3.1-1,3.3c-1.2,0.2-0.8-1.5-1-2.3c0.3-1.2-0.7-3.1,1-3.4
			C316.3,372.4,315.8,374.1,316,375z"/>
		<path class="st90" d="M372,363c-0.3,0-0.7,0-1,0c-1.3-0.6-2.7,3.2-4,0c-0.6-0.7-0.6-1.3,0-2c0.3-0.3,0.7-0.7,1-1
			c1.4,0.6,2.3,2.1,4,2.1C372,362.4,372,362.7,372,363z"/>
		<path class="st91" d="M367,361c0,0.7,0,1.3,0,2c-1,0-2,0-3,0c-0.3-1-0.7-2-1-3c0-0.3,0-0.7,0-1c0.3,0,0.7,0,1,0
			C365.6,358.8,366,360.4,367,361z"/>
		<path class="st83" d="M294,381c0-1.4,0.7-2.4,2-3c0.3-0.3,0.7-0.3,1,0c0.4,0.8,1.2,1,2,1C298.7,383.1,295.6,380.1,294,381z"/>
		<path class="st92" d="M233,381c0.3,0,0.7,0,1,0c1.2-0.6,1.4,0.5,2,1c-0.1,1.4,0.3,2.9-1.2,4.5C233.5,384.8,233,383,233,381
			L233,381z"/>
		<path class="st93" d="M293,464c-0.7-0.3-1.3-0.7-2-1c-0.7,0-1.3,0-2,0c0.1-1.9,1.2-3.2,3.1-2.9C294.8,460.6,292.3,462.8,293,464z"
			/>
		<path class="st94" d="M295,467c0-1.4,0.7-2.4,2-3c1.3,0,2,0.7,2,2C298.1,468.1,296.7,468,295,467z"/>
		<path class="st95" d="M331,359c1.1-0.5,1.7-2.9,3.4-0.8c0.6,0.7,0.4,1.6-0.4,2.1C332.4,361.4,331.3,361.1,331,359
			C331,359,331,359,331,359z"/>
		<path class="st96" d="M353,417c-0.8-0.4-1-1.2-1-2c0.3-0.4,0.7-0.7,1-1.1c0.7-0.8,1.2-2.4,2.6-1.1c0.9,0.9-0.1,1.7-0.9,2.4
			C354.1,415.8,353.6,416.4,353,417z"/>
		<path class="st97" d="M361.9,421.1c-0.3,1-1,1.5-1.9,1.9c-0.3,0-0.7,0-1,0c0.8-1.9-2.2-3-0.8-5.2
			C359.5,418.9,360.7,420,361.9,421.1z"/>
		<path class="st81" d="M246,363c0.3,0,0.7,0,1,0c1-0.8,2-0.8,3,0c0,0,0,0,0,0c-0.2,1.6-0.8,3-2.7,2.8
			C245.7,365.6,246.1,364.1,246,363z"/>
		<path class="st98" d="M290,360c1.3,0.6,2,1.6,2,3c-1.4,0-3.1,0.2-3.6-1.7C288.1,360.2,289.2,360.2,290,360z"/>
		<path class="st83" d="M333.8,363.6c-0.2,1-0.9,1.3-1.8,1.3c-0.6,0-1.5,0-1.5-0.9c0-1.2,1.2-1.5,2.1-1.7
			C333.4,362.2,333.8,362.9,333.8,363.6z"/>
		<path class="st99" d="M357,363c1.7,0,3.3,0,5,0C360.3,366.2,358.7,366.2,357,363z"/>
		<path class="st41" d="M362,414c0,0.7,0,1.3,0,2c-1.4-0.3-4,0.8-3.6-1.7C358.7,412,360.8,414.5,362,414z"/>
		<path class="st100" d="M264,347c-1.4-0.2-2.9,0.5-4-0.9c0.3,0,0.6-0.1,0.9-0.1c2.6,0,5.3,0.1,7.9,0.1
			C267.5,347.7,265.6,346.7,264,347z"/>
		<path class="st101" d="M317,361c-0.5,2.8,1.3,2.4,3,2c-0.1,1.1-0.5,1.9-1.8,1.9c-1.4,0.1-2.1-0.5-2.2-1.9
			C316,362.2,316.2,361.4,317,361z"/>
		<path class="st102" d="M237.1,376.8c-1.5-1.4-1.3-2.7-0.5-4.3C238.2,373.9,238.4,375.1,237.1,376.8z"/>
		<path class="st103" d="M305,380c-1.2-1-1.7-2.4-0.9-3.7c0.3-0.6,1.5,0,1.9,0.7C305.7,378,305.3,379,305,380z"/>
		<path class="st104" d="M320,457c0.3,0,0.7,0,1,0c0.4,1,1.3,1.9,0.7,3.1c-0.1,0.2-0.9,0.4-1.1,0.3C319.3,459.5,319.3,458.3,320,457
			z"/>
		<path class="st105" d="M339,346c2.6,0,5.3,0,7.9,0C344.3,347.5,341.7,347.5,339,346z"/>
		<path class="st106" d="M245,363c-0.1,1.4-0.8,2-2.2,1.9c-0.7,0-1.4-0.3-1.3-1c0.1-0.4,0.9-0.6,1.5-0.9
			C243.7,362.4,244.3,362.5,245,363z"/>
		<path class="st107" d="M256.7,429.5c1.3-0.8,2.3-0.8,3.1,0.6c0.1,0.3-0.3,1.1-0.4,1.1C258.2,431.2,257.1,431,256.7,429.5z"/>
		<path class="st108" d="M245,363c-0.7,0-1.3,0-2,0c0-1,0-2,0-3c0.7,0,1.3,0,2,0c0.3,1,0.7,2,1,3C245.7,363,245.3,363,245,363z"/>
		<path class="st109" d="M236,382c-0.7-0.3-1.3-0.7-2-1c0.2-0.9-0.3-2.6,1-2.4C236.7,378.9,235.7,380.8,236,382z"/>
		<path class="st110" d="M312,379c0,0.3,0,0.7,0,1c-0.6,0.9-1.5,1.2-2.4,0.7c-0.7-0.3-1.5-0.8-0.6-1.7C310,379,311,379,312,379z"/>
		<path class="st111" d="M325,453c1.4,0,2.9,0,3,2C326.3,455.3,324.5,455.9,325,453z"/>
		<path class="st112" d="M370,381c0.7,0,1.3,0,2,0c-0.1,1.2,0.4,3-1.4,3.2c-0.7,0.1-0.5-1.4-0.6-2.2C370,381.7,370,381.3,370,381z"
			/>
		<path class="st78" d="M297,463c-0.7,0-1.3,0-2,0c0.1-1.2,0.6-2.3,2-1.7C298.1,461.7,297.7,462.4,297,463z"/>
		<path class="st113" d="M325,361c0.8,0,1.6,0.2,2,1c0,0.3,0,0.7,0,1c-1.5,0-2.9,0-3-2C324.3,361,324.7,361,325,361z"/>
		<path class="st114" d="M231,381c0-1.3,0-2.6,0-3.8c1.3,0.9,1.8,2.3,1.9,3.8c0,0,0,0,0,0C232.3,381,231.7,381,231,381z"/>
		<path class="st11" d="M352.8,364.1c-0.6,0.3-0.9,0.7-1.3,0.7c-0.7,0-1.3-0.4-1-1.1c0.1-0.3,0.8-0.5,1.2-0.5
			C352,363.3,352.3,363.7,352.8,364.1z"/>
		<path class="st115" d="M324,356c-1.3,0.3-2.7,0.7-4,1c0.6-1.3,1.6-2,3-2C323.3,355.3,323.7,355.7,324,356z"/>
		<path class="st116" d="M273,447c0-0.7,0-1.3,0-2c1.4,0,2.4,0.7,3,2c0,0-0.5,0-0.5,0s-0.5,0-0.5,0C274.3,447,273.7,447,273,447z"/>
		<path class="st114" d="M231,389c0-1.7,0-3.3,0-5C232.5,385.7,232.5,387.3,231,389z"/>
		<path class="st27" d="M308,471c-1.4,0.6-2.3,2.2-4,2c1-1.1-2.4-2.5,0.2-3.4c1.3-0.4,2.8-2.3,3.8,0.4C308,470.3,308,470.7,308,471z
			"/>
		<path class="st117" d="M311,467c0.7,0,1.3,0,2,0c0.7,0.3,1.3,0.7,2,1c0,0.3,0,0.7,0,1c-1.7,0-3.3,0-5,0
			C310.3,468.3,310.7,467.7,311,467z"/>
		<path class="st118" d="M298,369c0.2,1,0.5,2.1,0.7,3.2c-2.2-0.3-1.5-2-1.7-3.2C297.3,369,297.7,369,298,369z"/>
		<path class="st3" d="M297,378c-0.3,0-0.7,0-1,0c-1.6-1.3-2.3-2.9-2-5c0.3,0,0.7,0,1,0c0.3-0.5,0.7-0.5,1,0
			C295.5,374.8,299.7,375.7,297,378z"/>
		<path class="st119" d="M296,373c-0.3,0-0.7,0-1,0c0-1.3,0-2.6,0-3.9c0.3,0,0.5,0,0.8-0.1C295.9,370.4,295.9,371.7,296,373z"/>
		<path class="st120" d="M239,406c2.5,0.5,6.2-1.6,7,3c-1,1-2,2-3,3c-0.3-0.3-0.7-0.7-1-1C242.4,408.5,239,408.3,239,406z"/>
		<path class="st121" d="M250,363c-1,0-2,0-3,0c0.3-1.6,0.9-2.9,3-2C250,361.7,250,362.3,250,363z"/>
		<path class="st122" d="M340,437c-1.2-0.6-2.2-1.4-1.8-2.9c0.4-1.4,1.7-1,2.8-1.1c0.3,0,0.7,0,1,0c0.5,0.7,0.6,1.3,0,2
			C341.6,436,341,436.6,340,437z"/>
		<path class="st62" d="M342,435c0-0.7,0-1.3,0-2c0.7-0.8,1.8-1.5,2.2-0.4C344.7,433.9,343.5,434.9,342,435z"/>
	</g>
</g>
</svg>
