<?xml version="1.0" encoding="utf-8"?>
<!-- Generator: Adobe Illustrator 23.0.5, SVG Export Plug-In . SVG Version: 6.00 Build 0)  -->
<svg version="1.1" id="Capa_1" xmlns="http://www.w3.org/2000/svg" xmlns:xlink="http://www.w3.org/1999/xlink" x="0px" y="0px"
	 viewBox="0 0 595.3 841.9" style="enable-background:new 0 0 595.3 841.9;" xml:space="preserve">
<style type="text/css">
	.st0{fill:#FFFFFF;}
	.st1{fill:#3A692F;}
	.st2{fill:#D4D9C9;}
	.st3{fill:#446B35;}
	.st4{fill:#417630;}
	.st5{fill:#407630;}
	.st6{fill:#427631;}
	.st7{fill:#407631;}
	.st8{fill:#417631;}
	.st9{fill:#417632;}
	.st10{fill:#417731;}
	.st11{fill:#427531;}
	.st12{fill:#427432;}
	.st13{fill:#447432;}
	.st14{fill:#457833;}
	.st15{fill:#457634;}
	.st16{fill:#437733;}
	.st17{fill:#447634;}
	.st18{fill:#3F7231;}
	.st19{fill:#467534;}
	.st20{fill:#4A7437;}
	.st21{fill:#447733;}
	.st22{fill:#436C2F;}
	.st23{fill:#427932;}
	.st24{fill:#447532;}
	.st25{fill:#486E31;}
	.st26{fill:#447833;}
	.st27{fill:#476437;}
	.st28{fill:#467535;}
	.st29{fill:#487534;}
	.st30{fill:#427532;}
	.st31{fill:#467234;}
	.st32{fill:#416A34;}
	.st33{fill:#457834;}
	.st34{fill:#4E663C;}
	.st35{fill:#4E793E;}
	.st36{fill:#4E7A40;}
	.st37{fill:#407030;}
	.st38{fill:#4F793C;}
	.st39{fill:#41692D;}
	.st40{fill:#497A35;}
	.st41{fill:#4B6533;}
	.st42{fill:#496536;}
	.st43{fill:#3E6B2D;}
	.st44{fill:#020203;}
	.st45{fill:#407632;}
	.st46{fill:#4F7440;}
	.st47{fill:#447835;}
	.st48{fill:#517642;}
	.st49{fill:#050E07;}
	.st50{fill:#437532;}
	.st51{fill:#3F7831;}
	.st52{fill:#427533;}
	.st53{fill:#417533;}
	.st54{fill:#040D05;}
	.st55{fill:#417534;}
	.st56{fill:#437433;}
	.st57{fill:#447533;}
	.st58{fill:#407633;}
	.st59{fill:#50753C;}
	.st60{fill:#476F3B;}
	.st61{fill:#456E32;}
	.st62{fill:#3D7932;}
	.st63{fill:#437432;}
	.st64{fill:#427732;}
	.st65{fill:#507441;}
	.st66{fill:#417634;}
	.st67{fill:#457331;}
	.st68{fill:#507541;}
	.st69{fill:#4D763F;}
	.st70{fill:#417B31;}
	.st71{fill:#477237;}
	.st72{fill:#437335;}
	.st73{fill:#4D7741;}
	.st74{fill:#476A3B;}
	.st75{fill:#3B7B32;}
	.st76{fill:#4F7443;}
	.st77{fill:#4B7737;}
	.st78{fill:#08150A;}
	.st79{fill:#3E7C32;}
	.st80{fill:#537449;}
	.st81{fill:#3F7A31;}
	.st82{fill:#4D793B;}
	.st83{fill:#477A37;}
	.st84{fill:#407731;}
	.st85{fill:#417535;}
	.st86{fill:#3C7932;}
	.st87{fill:#467B32;}
	.st88{fill:#437337;}
	.st89{fill:#437833;}
	.st90{fill:#567146;}
	.st91{fill:#447A33;}
	.st92{fill:#527646;}
	.st93{fill:#437931;}
	.st94{fill:#040A05;}
	.st95{fill:#437135;}
	.st96{fill:#4D7044;}
	.st97{fill:#3F7833;}
	.st98{fill:#4B703C;}
	.st99{fill:#3E7538;}
	.st100{fill:#517648;}
	.st101{fill:#447333;}
	.st102{fill:#446A38;}
	.st103{fill:#57784D;}
	.st104{fill:#3E6F2F;}
	.st105{fill:#457735;}
	.st106{fill:#457233;}
	.st107{fill:#436536;}
	.st108{fill:#49763C;}
	.st109{fill:#496D3F;}
	.st110{fill:#3F7931;}
	.st111{fill:#467232;}
	.st112{fill:#427A32;}
	.st113{fill:#457138;}
	.st114{fill:#4D7743;}
	.st115{fill:#487D39;}
	.st116{fill:#437534;}
	.st117{fill:#4C7440;}
	.st118{fill:#4E7444;}
	.st119{fill:#51744A;}
	.st120{fill:#527845;}
	.st121{fill:#45653C;}
	.st122{fill:#547548;}
	.st123{fill:#527849;}
	.st124{fill:#427335;}
	.st125{fill:#53754A;}
</style>
<g>
	<g>
		<path class="st0" d="M379,381c0,28.5-0.1,57,0.1,85.5c0,3-0.6,3.6-3.6,3.6c-61-0.1-122-0.1-183,0c-3,0-3.6-0.6-3.6-3.6
			C189,401.7,189,336.8,189,272c62,0,124,0,186-0.1c3.4,0,4.1,0.7,4.1,4.1c-0.2,29-0.1,58-0.1,87c-0.4,0.3-0.8,0.3-1.3,0
			c-0.5-0.6-0.7-1.2-0.8-1.9c-0.1-1.3-0.2-2.7-0.6-4c-0.4-1.3-0.5-2.6-1-3.9c-0.2-0.4-0.3-0.9-0.4-1.4c-0.1-4.6-2.4-8.7-3.3-13.1
			c-0.4-1.6-0.8-3.1-1.5-4.6c-1-2.3-1.7-4.7-2.9-6.9c-0.7-1.4-1.3-2.8-2.3-4.1c-5.1-7.1-9.1-15.1-16.2-20.6
			c-1.2-1.6-2.3-3.2-3.8-4.5c-0.3-0.3-0.6-0.6-0.9-0.9c-1.1-1.4-2.7-2.1-4.3-2.8c-6.4-6.3-14.3-10-22.6-12.9
			c-1.9-0.7-3.7-1.4-5.4-2.5c-1-0.6-2.1-0.8-3.2-0.9c-1.7-0.1-3.3-0.3-4.7-1.2c-1.2-0.7-2.5-0.9-3.8-1.3c-1.7-0.7-3.5-0.5-5.2,0
			c-1,0.2-1.9,0.1-2.8-0.2c-0.5-0.2-0.9-0.4-1.3-0.7c-4.7-0.9-9.4-0.9-14,0.3c-5.4,0.6-10.9,0.7-16.2,2.6c-1.4,0.4-2.8,0.8-4.1,1.4
			c-9.9,3.8-19.6,8-27.7,14.9c-0.8,0.8-1.6,1.5-2.5,2.3c-2.6,1.2-4.8,2.9-6.3,5.3c-0.3,0.3-0.6,0.7-0.9,0.9
			c-1.2,0.8-2.3,1.8-3.1,3.1c-0.2,0.4-0.5,0.7-0.7,1c-1.1,1.3-2.4,2.4-3.4,3.7c-0.9,1.1-1.5,2.5-2.2,3.7c-0.8,1.2-1.9,2.2-2.7,3.5
			c-0.8,1.3-1.7,2.5-2.3,3.9c-1.7,3.2-3.3,6.5-4.8,9.8c-1.6,2.9-2.4,6.1-3.4,9.3c-0.9,2.8-2.1,5.5-2.1,8.5c-0.1,0.8-0.2,1.5-0.4,2.3
			c-1.2,3.5-1.4,7.2-1.7,10.9c-0.8,3.4-0.7,6.9-0.7,10.4c-0.1,2.1-0.2,4.2,0.5,6.2c0.2,0.8,0.3,1.5,0.4,2.3c0.7,8.3,2.7,16.2,5.4,24
			c0.6,2.1,1.3,4.1,2.2,6c0.6,1.4,1.3,2.8,2,4.2c0.6,1.4,1.3,2.7,2,4c0.7,1.5,1.6,2.9,2.6,4.3c0.6,1.1,1.4,2.1,2.1,3.1
			c0.8,1.5,2,2.7,3.1,4.1c1.1,1.9,2.9,3.4,4.1,5.3c0.6,0.9,1.3,1.8,2.1,2.6c4.1,4.2,8.7,7.9,13.4,11.4c2.5,1.7,5,3.5,7.7,5
			c0.7,0.4,1.5,0.8,2.2,1.3c1.1,0.7,2.1,1.5,3.3,2c1.4,0.8,3,1.3,4.5,1.8c6.9,2.9,14,4.8,21.4,5.9c12.1,2.3,24,1.4,35.8-1.8
			c1.7-0.5,3.5-0.7,5.2-1.2c1.8-0.3,3.6-0.9,5.3-1.7c1.9-0.6,3.7-1.4,5.1-2.9c1.5-1.1,3.2-1.6,4.9-2.2c1.9-0.6,3.8-1.2,5.4-2.5
			c0.3-0.3,0.7-0.5,1.1-0.7c2.3-1.3,4.4-2.8,6.3-4.5c1.1-0.7,2.1-1.3,3-2.3c1.3-1.2,2.4-2.4,3.7-3.6c0.3-0.3,0.7-0.5,1-0.8
			c2.7-1.7,3.9-4.7,6.2-6.7c2.7-3,5.2-6.1,6.9-9.8c4-5.5,6.6-11.7,9.7-17.7c0.9-2,1.4-4,2.1-6.1c2.1-5.5,3-11.3,3.6-17.1
			C376.8,383.3,376.5,381,379,381z"/>
		<path class="st1" d="M377.8,361c0.1,0.6,0.3,1.3,0.4,1.9c1,4.3-0.5,8.8,0.9,13c0,0.3,0,0.7,0,1c-0.9,0.6-1.7,0.5-2.5-0.3
			c-1.7-4.3-1-8.8-0.7-13.2C375.9,362.4,376.3,361.2,377.8,361z"/>
		<path class="st2" d="M379,376c-2.1-4.2-0.6-8.7-0.9-13c0.3-0.1,0.6,0,0.9,0C379,367.3,379,371.7,379,376z"/>
		<path class="st3" d="M377,377c0.7,0,1.3,0,2,0c0,1.3,0,2.7,0,4c-2,0.7-0.7,3-2,4c-3.6-1.8-0.7-4.5-1-6.8
			C376.3,377.8,376.6,377.3,377,377z"/>
		<path class="st4" d="M208.9,314c-0.2-1.8,1.1-2.8,2.2-3.9c2.4-0.5,3.2-2.2,3.6-4.3l0,0.1c1.5-1.2,3.1-2.3,4.3-3.8l0,0
			c1.8-2.7,4.6-4.2,6.9-6.3c-0.2-1.7,0.8-1.8,2.1-1.7c0.3-0.3,0.7-0.4,1.1-0.2c-0.2,1.6,0.4,2.7,2.1,3.1c0.2,0.4,0.2,0.9,0.2,1.3
			c-0.7,1.7-2.3,2.7-3.8,4.8c2.1-0.9,3.1-2,4.5-2.6c0.7-0.2,1.4-0.3,2.1-0.3c2.3,0.2,4.1,1.7,6.1,2.7c2.7-0.3,1.3-2.8,2.2-4
			c0.8-2,1.2-4.3,4.1-4.4c1,0.2,1.5,1,1.9,1.9c0.1,0.4,0.2,0.9,0.1,1.3c-0.2,0.4-0.4,0.8-0.7,1.1c-0.6,0.6-1.1,1.3-1.6,2
			c-1.2,1.5-0.5,2.9,0.4,4.2c0.3,2.4-0.2,4.9,1.3,7c0.3,0.7,0.4,1.3,0.6,2c0.6,3.5,2.1,6.8,2.2,10.4c-0.1,0.7-0.5,1.3-0.9,1.8
			c-1.5,1-2.2,2.8-3.4,4c-0.4,0.2-0.9,0.2-1.3,0.2c-1.2-1.2-2-3.6-4.2-1.2c-1.9,0.4-0.7,1.1-0.2,1.8c0.3,0.3,0.6,0.6,0.8,0.9
			c0.2,1.5,0,3,0,4.4c-0.6,2.4-3.1,3-4.6,4.6c-1.9,1.6-1.6,4.7-3.8,6.2c-5.7-3-5.7-3-2.7-8.3c-1.2,1.5-1.8,3.4-3.3,4.6
			c-1.5,1.2-1.7,3-2.1,4.7c-0.1,0.4-0.4,0.9-0.6,1.2c-3.6,2.5-4.9,7.8-10.2,8.2c-1.8,0-2.5-2-4.4-2.3c1.2,3.1,1.9,6.1,1.3,9.2
			c-0.4,1.5-1.2,2.9-2.9,2.8c-1.8-0.1-2.1-1.8-2.6-3.2c-0.6-1.5-0.5-3.3-1.6-4.6c-3.8,0.8-3.1,4.5-3.5,6.8c-0.4,1.9,2.4,0.5,3.6,1.2
			c2.4,1.6,4.6,4.2,4.9,6.5c0.5,3,2-0.2,2.3,1c1.8,3-1.8,4.7-1.9,7.2c-0.4,2.8,0.6,5.5,1.3,8.1c1.4,3,2.4,6.2,4.5,8.8
			c0.3,0.3,0.6,0.6,1,0.9c0.2,0.1,0.3,0.3,0.5,0.5c1.7,1.6,2.9,3.7,4.8,5.1c1.8,1.5,3.3,3.5,6,3.1c4.5,0.8,7.9-1,10.5-4.5
			c0.7-0.6,2-0.9,2.4-1.4c0.9-1.3,0.8,4.3,1.5,0.2c0.3-1.9,1.1-3.3,2.6-4.5c1.9-1.3,4.4-1.6,5.9-3.5c1-0.8,2.2-1.1,3.5-1.2
			c1-0.1,2,0,3,0.3c1.7,0.7,3.2,1.5,3.1,3.7c-0.1,0.1-0.2,0.3-0.3,0.4c-1.1,0.8-1.9-0.2-2.8-0.4c1.3,0.4,1.9,2.4,2.3,2.4
			c2.6,0.3-0.7-2,0.9-2.5c2-1.9,4.4-1.4,6.8-1.2c2.8-0.3,5.4-1.2,8-2.1c3,0,4.8,1.2,4.3,4.5c-0.2,1.1-0.2,2,1.1,2.3
			c0.3,0.1,0.7,0.1,1,0c-0.1-0.4-0.6-0.2-0.7-0.3c-2.1-1.9-1.3-3.3,1.1-3.5c2.1-0.3,0.1-2.1,1.2-2.5c1.7-0.7,2.8,0.5,4,1.3
			c1.4,1.3,2.1,3,2.4,4.8c0,3.8,2.5,6.8,3.7,10.2c0.7,2,1.4,4.1,1.4,6.3c1.7,8,1,16-0.1,24c0.1,0.7,1,0,0.3,0.2
			c-0.1,0-0.2-0.1-0.1-0.4c0.5-2.2-1-4.6,0.9-6.6c2.4,1.1,1.7,3.3,1.9,5.2c0.2,1.9-0.2,4.1,1.7,5.5c0.6,0.3,1.3,0.6,1.8,1
			c1,1.8,1.8,3.6,2.5,5.5c0.9,2.3,2.9,3.4,5.1,4.2c1.9,0.7,4.6,0.8,3.9,3.8c-0.6,2.7-2,4.9-5.3,4.5c-4.5,1-9,1.8-13.6,2.8
			c-6.5,1.3-13.1,1.1-19.6-0.4c-1.4-0.3-2.6-0.1-3.9,0.1c-7.8-0.5-15-2.9-21.9-6.2c-1.1-1-2.5-1.7-3.7-2.5c-1.2-0.5-2.5-0.9-3.7-1.2
			c-0.7,0-1.4,0-1.7-0.9c-1.5-3.5-5.5-3.6-7.9-5.9c-1.7-1.5-4.2-2.2-4.6-4.9c0.2-3.3-2.4-1.2-3.6-1.8c-0.7-0.3-1.2-0.8-1.4-1.5
			c-0.3-3,1.7-3.5,4-3.7c1-0.2,2.2,0.7,3-0.3c0.2-0.2-0.6-0.6-1-0.7c-2.1,0-4.3-1.2-5.9,1c-1.1,1-2.2,1.7-3.6,0.6
			c-0.7-0.9-1.3-1.8-2.5-2c-1.6-1.8-3.6-3.1-4.4-5.5c-0.5-1.8-1.6-3.2-3.1-4.3c-1.1-0.7-1.9-1.5-1.8-2.9c-1-0.4,1.6-1.4-0.6-2.3
			c-1.8-0.8-1.3-3.7,0.8-5.2c6.1,2.9,4.5-3.5,6.6-5.4c-2.2,1.4-2.5,5.1-6.1,4.6c-0.5,0-0.9,0-1.4-0.1c-1.4-1.9-2.6,1.6-4,0.1
			c-1.1-1.1-1.7-2.5-2-4c0.4-1.1,0.6-2.3,1.1-3.5c0.4-1.2,0.7-2.4,1.2-3.5c0.7-1.3,1.4-2.6,2.1-3.9c0.3-0.3,0.6-0.6,1-0.9
			c3.4-3-1.2-4.9-1-7.5c-0.1-0.8-0.1-1.7,0.2-2.4c2-4.9-2.9-7.1-4.2-10.7c-0.6-1.7-3-0.5-4.6-1c-2.2-1.4-4.1-3-4.7-5.7
			c-0.2-3.7-0.7-7.4,0.8-11c2.6-2.6,4-5.5,2.8-9.2c0.7-1.1,1.8-1.5,3-1.5c3.9,0.2,4-3.3,4.5-5.5c0.8-3.5,1.4-7.1,0.7-10.8
			c-0.7-2-1.4-4.1-1.3-6.3c1.4-2.5,2.8-5.1,3.3-8c0.3-1.5,1.3-2.7,2.3-3.8c1.3-1.1,2.6-0.8,3.8,0.2c0.3,0.3,0.6,0.6,0.8,1
			c0.1,0.3,0.5,0.7,0.6,0.6c0.3-0.4,0.1-0.9,0.1-1.4c-0.3-0.7,2.2-3.2-1.2-2C209.5,315.2,209.1,314.7,208.9,314z"/>
		<path class="st4" d="M276,274c5.3-1.3,10.5-1.7,15.8,0c-1.3,0.9-2.7,0.2-4.3,0.5c-0.5,0,0.5,1,0.2,0.4c-0.1-0.2,0-0.3,0.4-0.3
			c1.5-0.2,2.9-0.3,4.3,0.2c0.8,0,1.6,0,2.5,0c1-0.5,1.8,0.1,2.7,0.2c2.1,1.5,4.6,0.1,6.8,0.8c1.2,1.8,3.2,0.2,4.6,1.1
			c0.7,1.2,1.8,1.5,3,0.9c6.5,2.9,13.4,4.9,19.5,8.6c3.5,2.1,6.8,4.4,9.5,7.5c0.8,1.8,2.6,2.1,4.1,2.9l0,0c1.2,1.9,2.1,3.9,4.2,5
			c6.3,3.8,10,9.9,13.5,16c1,1.7,3.3,2.8,3.1,5.2c0.7,1.3,0.9,2.9,2.1,4c1.6,2,2.5,4.3,3,6.8c0.9,1.8-0.1,3.2-1,4.6
			c-1,1.6-1.6,3.2-0.7,5.1c1.4,0.4,2.3-1.1,3.7-0.8c1.2,2,1.7,4.2,0.9,6.5c-1.4,0.8-2.5-0.2-3.7-0.6c-1.5-0.5-2.7-0.2-3.1,1.4
			c-0.6,2.7-2.9,3.6-4.9,4.8c2.5,1.8,3.9-5.5,6.8-0.7c0.7,3.9,0.3,7.8,0.4,11.7c-0.2,2.2-0.9,4-3.6,4.1c-1.2,0-2-0.7-2.7-1.5
			c-1.9-2.1-1.2-5.3-3-7.5c-2.1,1.4,0.3,2,0.5,3c0.6,1.4,1,2.8,1.9,4.1c1.1,1.4,1,2.6-0.5,3.6c-0.9,0.4-1.9,0.4-2.8,0.1
			c-2.8-2-3.7-5.4-5.7-8c-0.9-1.6-2.4-2.6-3.9-3.6c-0.8-0.5-1.5-1.1-1.8-2c-0.1-1,0.3-1.7,1.1-2.3c1.2-0.4,2.4-0.8,3.7-1.1
			c1,0,1.8,0.6,3.4,0.1c-1.6-1.2-3.1-0.7-4.5-0.6c-1.3,0.1-2.4,0.7-3.6,1.2c-2.4-1.5-4.8-3.1-6.4-5.4c-1.2-1.7-2.6-1.9-4.3-1.3
			c-0.5,0-0.9,0-1.4-0.1c-3.2-3.9-7.5-6.1-11.8-8.5c-4.2-2.4-7.9-5.7-11-9.5c0.3-3.8-3.1-4.6-5.2-6.5c-2.3-2.1-6.5-2.1-7.2-6.2
			c-1.4-2.3,1.2-5.3-0.8-7c-2-1.6-4.2,1.3-6.6,1c-0.9-0.1-1.6-0.3-2.1-1.1c0.7-4.3,3.8-4.9,7-4.8c-1.8-0.2-3.9,0-5.9,0.7
			c-7.2-0.8-9.2-5-7.6-11.8c1.1-4.6,3.6-6.5,7.2-8.2c0.7-0.5,1.5-0.7,2.5-1.9c-2.5,0.6-4.3-4.8-6.6,0.3c0.3,3.3-2.7,5.6-2.7,8.9
			c0,1.3-1.5,1.5-2.8,1.4c-2.5-0.4-4.6-1.1-4.6-4.2c-0.8-0.9,2-0.7,0.5-1.8c-5.5-2.6-5.6-3.2-0.8-7.1c-0.6-1.6-4.1-0.2-3.3-3.1
			C275.1,277.7,275.1,275.7,276,274z"/>
		<path class="st5" d="M274,279c0.1,0.3,0,0.8,0.2,0.9c1.6,1.2,4.8-0.8,5.3,1.9c0.3,1.9-3,1.7-4,3c-2.5,3.3,2.4,2.3,2.5,4.1
			c0.3,0.2,0.5,0.4,0.3,0.7c-0.1,0.2-0.2,0.3-0.3,0.3c-0.3,3,1.4,3.9,4.1,4.2c3.2,0.3,1.3-2.3,2.1-3.3c1.6-2,2.1-4.4,1.8-6.9
			c2.9-0.9,4.7,0.6,6,3c-0.1,0.8-0.4,1.5-1.3,1.9c-6.4,3.2-7.9,9-4.1,14.8c1.4,2.2,3.6,1.4,5.3,2.3c-0.1,2.8-3.3,1.8-4.3,3.5
			c-1.2,0.9-1.8,2.9-3.8,2.7c-0.3-0.3-0.6-0.7-0.8-1.2c-0.6-2,0-4.1,0.1-6.1c-2.4-1.3-2.9-4.9-6.2-5.2c-0.5-0.1-0.9-0.2-1.3-0.4
			c-1.2-0.7-2-1.8-2.6-3.1c-0.4-1.8-1.6-2.5-3.4-2.5c-1.3-0.2-2.6-0.6-4-0.3c-1.6,1.5,0.6,2.4,0.6,3.6c0.4,2.5,2.2,4.9-0.2,7.3
			c-0.6-0.4-1.5-0.3-1.6,0.3c-0.4,2.1-2,2.5-3.7,2.7c-2.3-0.7-1.2-2.2-0.8-3.7c-1.7,0.4-3.2,1.6-5,1.2c-1-0.1-1.8-0.5-2.6-1
			c-1.2-0.8-1.9-2-2.4-3.3c-0.7-1.6-1.2-3.3-2.4-4.6c-0.9-0.5,2.6-1.6-0.3-1.8c-3.1-4-2.5-6.4,1.9-8.1c0.9-0.3,1.9-0.3,2.7-1
			c0.8-0.8,1.1-1.9,2.1-2.5c1.2-0.8,2.6-0.2,3.8-0.6c-1,0.2-1.8-0.3-2.4-1c-0.4-1-0.2-1.9,0.5-2.8c1.2-0.9,2.5-1.3,4-1.1
			c3.7,0.8,6.9-2.8,10.7-1.1c1.1,0.7,2.1,1.6,3,2.6C273.8,278.6,273.9,278.8,274,279z"/>
		<path class="st6" d="M340.1,449.2c-1.9,2.2-4.3,3.8-7,4.9c0.5-3.1,1.1-6-2.9-7.5c-1.2-0.4-1.1-2.3-0.7-3.6
			c0.5-1.7,1.1-3.4,1.5-5.2c-0.9-1.2-1.5,0.1-2.2,0.3c-3,1.7-5.4,5.2-9.6,3.3c-0.5-3.2,3.4-2.9,4.1-5.1c5.9-4.1,12.3-7.4,18.2-11.5
			c1.1-0.7,2.3-1.4,3.7-0.8c-0.7,2.1,1.4,2.5,2.2,3.7c0.1,0.5-0.7,0.7-0.5,1.3c0,0,0.5-0.1,0.8-0.1c3.5,1.2,2.8,5,4.6,7.2
			c-0.5,3.2-3.9,4.5-4.9,7.4l-0.3-0.1l0.2,0.1c-1.7,0.1-2.5,1.5-3.7,2.4C341.9,446.3,341.4,448.2,340.1,449.2z"/>
		<path class="st7" d="M319,441c4.3,1,6.5-3.1,10-4c1.3-0.7,2.7-1,4,0c-1.8,1.9-1.6,4.5-2.7,6.7c-0.8,1.7,0.4,2.8,2,3.2
			c4.2,1.1,5.6,2.8,1.3,5.8c-0.3,0.2-0.4,0.9-0.6,1.3c0,0,0,0,0,0c-0.6,0.4-1.3,0.5-2,0.4c-2-0.7-3.5-3-6.1-1.9
			c0.4,1.5,2.4,1.6,2.6,3.2c0,0.5-0.2,0.9-0.5,1.3c-1.6,0.7-3.3,1.4-4.9,2.1c-1.1-0.5-1.5-1.7-2.4-2.4c-2.9-2.3-3.7-4.6-0.4-7.3
			c0.5-0.4,0.8-1,0.5-1.8c-0.6-0.6-1.5-0.5-1.6,0.1c-1.4,6.5-6.4,5.7-10.9,5.5c-1.7-0.1-3.7-0.1-5.2-1.4c0.4-1.8-2.5-3-1-5
			C306.8,444.3,312.1,440.4,319,441z"/>
		<path class="st8" d="M352,436c-1.4-0.1-3.1-0.7-2.6-2.2c0.8-2.7-1.3-3.4-2.4-4.8c-0.3-0.2-0.3-0.4-0.3-0.7
			c0.1-0.2,0.2-0.3,0.3-0.3c-1.5-0.9-3.1-1.8-2-4.1c-0.3-0.4-0.3-0.8-0.1-1.3c2.3-2.1,4.8-4.1,6.4-6.8c0.4-0.6,0.9-1,1.5-1.4
			c1-0.5,2-1.2,3.2-0.4c0.9,0.9-0.1,3.1,2.1,3c0.9,0.4,1.7,0.6,2.8-0.3c-1.1-0.6-1.8,0.6-2.6,0.4c-1.9-0.3-1.1-2.7-2.6-3.4
			c-0.1-1.8,1.1-3.2,1.4-4.9c0.3-0.6,0.7-1.2,1.2-1.6c0.7-0.6,1.5-1,2.4-1.3c1.2-0.4,2.3-0.3,3,1c2.5,4.6,0.8-1.7,2-0.8
			c1.1-0.9,2.2-0.4,3.4-0.1c0.9,0.4,1.7,0.9,2,1.9c-2.9,6.2-5,12.9-9.9,18c-2.7,3-4.5,1.4-6.4-1.3c1.4,3.8,3.5,7.4-0.9,10.3
			C353.3,435.5,352.7,435.9,352,436z"/>
		<path class="st9" d="M256,278c0,1,0,2,0,3c-0.6,1.2-2.2,1.1-2.8,2.4c-0.8,0.8-0.8,1.7-0.2,2.6c-0.6,0.3-1.1,0.8-1.7,0.9
			c-5.4,1.1-6,2.3-3.3,7.1c-0.1,0.5-0.5,0.9-1,1c-2.9-0.2-2.5,2.8-4,4c-1.7-1.3-1.5,1.9-2.9,1.2c-1.9-1.1-0.2-3.7-2.1-4.8
			c-0.7-0.2-0.9-0.1-0.1,0.3c0.3,0.2,0.5,0.4,0.6,0.8c-0.1,2.9-3,3-4.5,4.5c-0.7,0-1.3,0-2,0c-0.7-0.9-0.7-2-1-3c0-0.3,0-0.7,0-1
			c-0.6-1-1.1-2.1-2-2.9c-0.3,0-0.7-0.1-1-0.1c0.6-2.3,2.7-3.2,4.5-4.4C239.7,284.6,247.6,280.7,256,278z"/>
		<path class="st10" d="M368,353c-2.6,0-2.1,5.5-6,3.3c-0.7-0.4-2,0.3-2-1.3c0-0.9,0.3-1.6,1.4-1.7c2.9,0,4.2-1.5,4.8-4.4
			c0.3-1.8,2.4-2.9,4.4-1.7c1.1,0.7,1.9,1.8,3.4,1.8c2.9,0.2,0.4,3.1,2.1,4l0-0.1c1.1,1.1-0.5,2.9,1.1,3.9c0.9,1.3,0.8,2.7,0.6,4.2
			c-1.7,5.3-0.3,10.7-0.7,16c0,0.3,0,0.7,0,1c-0.4,0.3-0.8,0.3-1.3,0.1c-1.2-2-2.7-3.8-4.7-5.2c-2.3-2-2.1-4.6-2-7.2
			C368.5,361.4,370.1,357.1,368,353z"/>
		<path class="st11" d="M302,452c3.5-1,7,1.3,10.6,0.1c2-0.7,4.5,0.2,3.3-3.6c-0.5-1.5,1.9-2.4,3.2-3.2c1.3-0.7,1.9,0.8,2.4,1.8
			c0.8,1.6,0.3,3-1.3,3.7c-2.8,1.3-3.1,2.7-0.4,4.3c1.6,1,2,2.5,2.3,4.2c-0.6,2.6-2.8,2.4-4.7,2.8c-1.9,0.5-3.7,1-5.4,1.9
			c-1.4,1.3-3.2,1.1-4.9,1.1c-0.3-0.2-0.4-0.5-0.3-0.7c0.1-0.3,0.2-0.4,0.2-0.4c3.6,0.4,4.1-3,4.4-4.8c0.3-2.1-2.8-0.8-3.7-1.5
			C305.6,456.1,302.1,455.7,302,452z"/>
		<path class="st12" d="M371.1,408.1c-0.7-0.4-1.4-0.7-2.1-1.1c-0.5-0.5-0.6-1.1-0.5-1.7c1.3-1.9-1.7-0.5-1.3-1.7
			c-0.6-0.4-1.2-1.6-1.8,0.1c0.1,0.6,0.3,1.2,0.5,1.8c0,0.2,0,0.4,0.1,0.6c-0.4,1.8,1.6,4.1-0.8,5.6c-2.6-0.6-0.3-5.4-4.2-4.6
			c-1.6-2.2,1.3-4,0.5-6.1c0.1-1.4,0.6-2.5,1.9-3.2c2.1-1.5,1.2-3.8,1.4-5.8c0.1-2.8-0.5-5.7,0.6-8.4c1.1-1.3,2.1-1.4,3.1,0.1
			c0.1,0.4,0.2,0.9,0.2,1.4c-0.1,1.3-0.7,2.7-0.2,4c1.1-1.1,0.1-2.5,0.5-3.6c0.5-2.2-2.7-3.2-2-5.5c0.4-0.3,0.9-0.4,1.4-0.4
			c1.6,0.3,2.7,1.4,3.4,2.8c3,6.4,1.1,13.2,1.5,19.9C373,404.2,372.4,406.3,371.1,408.1z"/>
		<path class="st13" d="M190.2,373c1.5,1.7,3.8,2.7,4.8,5c2.5,0.5,2.6,3.1,1.8,4c-3.2,3.9-1.2,7.9-0.9,12.6c-0.1-3,0.3-5.2,0.9-7.4
			c0.3-1.3,0.7-2.8,2.4-2.6c1.8,0.2,2.4,1.6,2.3,3.3c-0.4,3.8-0.1,7.7-1.8,11.2c-1,2-1.3,4.1-1.9,6.1c-0.2,0.4-0.5,0.8-0.9,1
			c-3.6-8-5.3-16.5-5.8-25.2c0.7-1.4,0.7-1.4-0.2-1.8C189.8,377.3,190,375.1,190.2,373z"/>
		<path class="st14" d="M373.3,402.1c-1.6-0.8-2-2.6-1.7-3.8c1.7-5.6-0.1-10.9-0.6-16.3c0.9-2.3,2.3-4,5-4c0.3,0,0.7,0,1,0
			c0.8,2.3-1.4,4.7,0,7C376.3,390.8,375.9,396.7,373.3,402.1z"/>
		<path class="st15" d="M307,464c0,0.4,0,0.7,0,1.1c-8.9,3.4-18.1,4-27.4,3.4c-3.2-0.2-6.6,0.2-9.6-1.4c1.4-1.9,2.2-2.5,5-0.9
			c2.9,1.7,7.3,1.4,11,1.2c5.7-0.2,11.3-1.6,16.7-3.5C304.2,463.3,305.5,464.4,307,464z"/>
		<path class="st16" d="M201,329c1.5,1.7,1.3,4,2,6c-0.5,2.9-1.9,5.5-2.1,8.4c-0.1,2.1-1.4,3.6-3.6,4.1c-0.5,0-0.9-0.1-1.3-0.4
			c-1-2.3-0.1-4.8-0.7-7.2c0.9-3.2,1.7-6.5,3.6-9.3C200.1,330.8,199.9,329.1,201,329z"/>
		<path class="st6" d="M353,435c2-2.5,4.7-4.9,0.4-8c-1-0.8-1.1-3.5,0.3-4.5c1.9-1.3,2.6,0.9,3,2.1c0.8,3.2,2.7,2,4.5,1.4
			c-1.3,4.1-4.1,7.1-7.1,10C353.2,436.3,352.7,436.1,353,435z"/>
		<path class="st10" d="M373,343c-1.5,1.5-3.1,2.2-5.2,1.6c0.6-1.9-1.6-4.1,0.8-6.1c1.2-1,2.5-2.7,2.5-4.7c1.1,1.2,1.3,2.7,1.7,4.2
			C371.7,339.7,373.5,341.3,373,343z"/>
		<path class="st17" d="M271,277c-2-1.3-4-1.1-6.1,0c-1.6,0.9-3.3,1.8-4.9-0.1c5-2.6,10.6-2.3,16-3c0.3,2,2,4.7-2,5c0,0,0,0,0,0
			C272.9,278.5,272.4,277,271,277z"/>
		<path class="st18" d="M194,353c4.1,4.7,1,7-3,9c0-3.8-0.1-7.6,2-11.1C193.8,351.4,194,352.1,194,353z"/>
		<path class="st19" d="M222,442c0.3,0.3,0.7,0.7,1,1c1.3,0.7,3.1,0.5,4,2c0.5,2.3,3,3.1,4,5c0.3,0.2,0.3,0.5,0.2,0.7
			c-0.1,0.2-0.2,0.4-0.3,0.4c-5.2-3.4-10.1-7.2-14-12.1c-0.2-0.9,0.1-1.3,1-0.9c1,1.6,2,0.3,3,0C222.3,439.1,220.6,440.9,222,442z"
			/>
		<path class="st20" d="M231,451.1c0-0.4,0-0.7,0-1.1c3,0.7,5.3,2.8,8.5,3.4c3,0.5-0.9,1.8-0.6,3C235.9,455,233.3,453.2,231,451.1z"
			/>
		<path class="st21" d="M353,435c0.4,0.4,0.8,0.7,1.1,1.1c-2,2.7-4,5.3-6.8,7.1c-0.4-0.9-1.4-1.6-0.9-2.7c0.6-1.6,2.1,0,2.2-0.2
			c1.1-1.5,1.6-3.4,3.4-4.3C352.3,435.7,352.7,435.3,353,435z"/>
		<path class="st22" d="M373,343c-0.7-1.6-1.7-3.2-0.2-5c1.4,4.9,4,9.6,3.3,15c-1.7-0.8-0.5-3.1-2.1-4
			C372.7,347.2,373.8,344.9,373,343z"/>
		<path class="st23" d="M194,353c-0.8-0.5-1-1.2-1-2.1c0-0.6,0-1.3,0-1.9c0.9-0.9,0.6-3.5,3-2l0,0c3.3,1.1,1.9,3.1,1,5
			C196,352.3,195,352.7,194,353z"/>
		<path class="st24" d="M196,347c-1.6-0.2-2,1.4-3,2c-0.1-3.2,1.2-6.1,2.2-9C196.4,342.3,197.7,344.5,196,347z"/>
		<path class="st25" d="M201,329c-0.8,0.4-0.1,2.8-2.1,1.8c1.1-3.6,2.7-7,5.1-10C204.7,324.2,203,326.6,201,329z"/>
		<path class="st26" d="M206,417c-0.3,1.9-2.1,4.1,1.1,5.3c-0.4,0.6-0.8,1.3-1.2,1.9c-1.4-1.1-2.2-2.6-2.7-4.3c0.1-1.9,0-3.7,1.8-5
			c0.3,0,0.7,0,1,0C206.6,415.7,206.6,416.3,206,417z"/>
		<path class="st27" d="M225.9,295.7c-1.3,3.2-4.3,4.5-6.9,6.3C220.2,298.6,222.5,296.6,225.9,295.7z"/>
		<path class="st28" d="M196.9,406.2c0-0.4,0.1-0.8,0.1-1.3c2.9-0.3,3.1,2.2,4,4c0,1.4-0.6,2.4-1.9,3
			C198.1,410.2,197.2,408.3,196.9,406.2z"/>
		<path class="st29" d="M327,457.1c0-0.4,0-0.8,0-1.1c0.3-2.8,1.2-4.2,4-2c0.7,0,1.4,0.1,2.1,0.1C331.5,455.9,329.6,457.1,327,457.1
			z"/>
		<path class="st30" d="M205,415c-0.4,1.7-0.7,3.5-1.8,5c-0.7-1.3-1.4-2.6-2-4C202.6,416.3,203.3,413.6,205,415z"/>
		<path class="st19" d="M214.7,305.7c0,2.5,1.4,6.1-3.6,4.3C211.8,308.2,213.2,306.9,214.7,305.7z"/>
		<path class="st31" d="M208.9,314c0.4,0.3,0.7,0.7,1.1,1c1.4,1,1.9,2,0,3c-1.2-0.6-2.4-1.2-3.8-1
			C206.6,315.6,207.3,314.4,208.9,314z"/>
		<path class="st32" d="M304.3,275.9c-2.4,0.5-4.9,2-7.3,0.1c0.3-2.5,2-1.3,3.2-1.1C301.7,275,303.2,274.7,304.3,275.9z"/>
		<path class="st21" d="M345.1,296.9c-1.8-0.3-5.1,1.5-4.1-2.9C343.1,293.9,344,295.5,345.1,296.9z"/>
		<path class="st21" d="M349.3,301.9c-4,0.6-3.2-3-4.2-5C346.9,298.2,349.1,299.2,349.3,301.9z"/>
		<path class="st19" d="M219,302c0.4,3.4-2.3,3.2-4.3,3.8C215.8,304.1,216.6,302.1,219,302z"/>
		<path class="st33" d="M312,277.9c-0.2,1.2-0.4,2.2-2.1,1.5c-1.3-0.5-1.6-1.2-1-2.5C310.1,277,311.2,276.9,312,277.9z"/>
		<path class="st21" d="M340.1,449.2c0.9-1.4,0.3-3.9,2.9-4.2c0.6,0.7,0.6,1.4,0,2C342.3,448.2,341.3,448.8,340.1,449.2z"/>
		<path class="st34" d="M343,447c0-0.7,0-1.4,0-2c1.2-1.1,2.3-2.5,4.3-1.8C346.1,444.8,344.7,446.1,343,447z"/>
		<path class="st35" d="M207.7,427.1c2.8,0.1,3.1,2.2,3.1,4.3C209.4,430.3,208.3,428.9,207.7,427.1z"/>
		<path class="st20" d="M240.6,457.1c1.5,0,3.2-0.7,4.4,0.9c0.3,0.9,0.1,1.3-0.9,1C242.7,458.8,241.5,458.2,240.6,457.1z"/>
		<path class="st36" d="M244.1,459c0.3-0.3,0.6-0.7,0.9-1c1.3,0.7,2.9,1,3,2.9C246.5,460.8,245.2,460.1,244.1,459z"/>
		<path class="st37" d="M292.4,274.9c-1.7,0-3.5,0-6,0c2.2-1.3,3.9-0.7,5.5-0.9C292,274.3,292.2,274.6,292.4,274.9z"/>
		<path class="st38" d="M300.2,274.9c-1.1,0.3-2.4-0.1-3.2,1.1c-0.7-0.4-1.5-0.7-2.2-1.1C296.6,273.1,298.4,274.1,300.2,274.9z"/>
		<path class="st39" d="M377.1,356.8c-0.3,0.3-0.3,2.2-1,0.5c-0.5-1.2-0.1-2.9-0.1-4.4C377.6,353.9,377.1,355.4,377.1,356.8z"/>
		<path class="st40" d="M218,438c-0.3,0.3-0.7,0.6-1,0.9c-0.6-0.7-1.1-1.3-1.7-2C217.3,434.3,217.3,437.2,218,438z"/>
		<path class="st41" d="M312,464c1.4-1.7,3.3-2.2,5.4-1.9C315.8,463.2,314,464,312,464z"/>
		<path class="st42" d="M368.1,327c-1.9-0.7-2.2-2.3-2.1-4C367.2,324.1,367.8,325.4,368.1,327z"/>
		<path class="st43" d="M190.9,379.2c0.1-0.3,0-0.8,0.2-0.9c1.1-0.9,0.8,0.4,0.9,0.7c0.4,1,0.6,2-1,2
			C191,380.4,191,379.8,190.9,379.2z"/>
		<path class="st44" d="M364,398c-0.6,1-1.1,2.1-1.7,3.1c-0.4,2.7-1.7,4.9-3.6,6.8c-0.2,0.3-0.5,0.6-0.7,0.9
			c-0.9,2.6-2.6,4.6-4.7,6.2c-0.4,0.4-0.8,0.8-1.1,1.2c-2.2,2.4-4.4,4.7-6.9,6.9c-0.1,0.3-0.2,0.6-0.3,0.9c-7,4.3-14,8.6-21,12.9
			c-7.8,4.8-16.4,7.9-25.2,10.1c-2.2,0.3-2.9-0.7-2.9-2.8c0.1-3-0.1-5.9-0.2-8.9c-1.1-5.9-0.7-12-2.1-17.8c0.3-4.1-2-7.5-3.5-11.1
			c-0.8-1.8-1.4-3.7-2-5.5c-0.2-1.5-0.8-2.7-1.8-3.8c-0.9-0.6-1.4-1.7-2.1-2.5c-1.3-1.8-2-3.9-3.4-5.6c-0.3-0.3-0.6-0.7-0.9-1
			c-6.1-0.4-12,0.7-17.4,3.5c-2.8,1.4-5.6,2.7-8.6,3.6c-1.1,0-2.1,0.1-2.8,1.1c-1.9,1.4-4.2,1.7-6.3,2.6c-0.4,0.2-0.8,0.3-1.2,0.5
			c-1.3,0.2-2.2,0.9-2.9,2c-0.4,0.5-0.8,1-1.2,1.5c-0.5,0.5-1,0.9-1.6,1.2c-2.5,0.6-4,2.3-5.4,4.3c-0.3,0.3-0.7,0.5-1.2,0.7
			c-3.6,0-6.7-1.5-9.2-3.9c-1.8-1.8-4.2-2.3-6-3.9l-0.1-0.1c-0.8-4-1.6-8-4.6-11c-1.6-4.6,0.4-8.9,1.4-13.2c0.2-1.2,0.6-2.3,1.2-3.3
			c0.2-0.4,0.5-0.8,0.7-1.1c2-2,3.7-4.4,5.2-6.9c0.2-0.4,0.5-0.7,0.8-1.1c1.2-1.3,2.4-2.5,3.3-4c0.2-0.4,0.5-0.7,0.8-1.1
			c1-1.1,1.9-2.3,2.7-3.6c0.7-0.9,1.4-1.7,2.1-2.6c3.1-3.9,4.7-8.5,6.3-13c1.6-1.4,3.9-1.9,5-3.9c0-0.2,0.1-0.4,0.1-0.7
			c0.5-1.3,1.6-2.2,2.6-3c1.4-1,3.2-1.6,3.4-3.6c0.5-1,1-2,1.7-2.8c0.3-0.4,0.7-0.8,1-1.3c0.5-0.4,0.5-1,0.8-1.6
			c0.8-1.9-0.8-3-1.6-4.3c-0.6-1.4-0.8-2.8-0.9-4.3c-0.3-3.5-0.9-6.9-0.5-10.4c0.2-2,0.3-4.1,3.2-4.1c0.7,1,1.4,1.9,2,2.9
			c0.9,2.3,2.5,3.7,5.1,3.6c3,1.1,3.6,6.3,8.1,4.7c0.4-0.2,0.7-0.5,1-0.8c1.1-2.8,1.7-5.6-0.3-8.3c-0.9-1.5-0.2-3.2-0.7-4.8
			c0.2-2,1.3-3.2,3.3-2.4c2.5,0.9,4.7,2.5,5.5,5.3c0.5,1.7-0.4,2.5-2.1,2.9c7.1,0.1,6.7,7.4,10.5,10.8c0.5,0.4,1.1,0.7,1.8,1
			c5.2,1.6,10.3,3.4,13.7,8.1c1.8,2.5,4.5,2.6,7.1,2.8c0.7,0.1,1.4,0.2,2.1,0.4c2,0.8,4.3,1.1,4.9,3.8c5,3.3,8.6,8.5,14.3,10.7
			c3.7,1.4,6.8,3.6,8.8,7.2c1.3,0.9,3.2,0.4,4.3,1.8c1.7,3.2,6.3,3.6,7.1,7.7c0.2,1.8,1.9,2.2,3,3.1c0.8,1.1,2.2,1.4,2.9,2.6
			c1.7,4.3,4.3,8,8.2,10.5c0.9,3.4,5.3,5.2,4.5,9.4c-0.1,3.3-0.2,6.5-0.2,9.8C365.2,394.5,365.6,396.6,364,398z"/>
		<path class="st4" d="M211,375c-0.8-0.1-0.9,2-2.1,0.5c-1.9-2.4-3.9-4.6-4.9-7.5c-2.1-3.3-2.1-6.7,0-10c3.5,0.9,1.4,4.3,2.8,6.2
			c0.5,0.7,0,2.3,1.3,2.3c1.4,0,1.7-1.3,1.8-2.5c3.8-0.9,4.1-3.9,4-7c4.6-1.1,5.7-6.6,10-8c1.3,1.3,1.1,2.7,0.1,4.1
			c-1.5,0.9-1.5,1.8,0.2,2.5c0.6,0.4,1,1,1.3,1.7c0.3,1-0.1,1.9-0.5,2.8l0-0.1c-1.3,1.7-3,3.1-4.1,5l0,0c-2.6,2.2-3.9,5.4-6,8.1
			l0,0.1C213,372,213.2,376.2,211,375z"/>
		<path class="st10" d="M201,409c-1.3-1.3-2.7-2.7-4-4c0.8-5.6,3.6-10.9,3.5-16.7c0-1.3,0.3-2.5-1.1-2.7c-1.4-0.2-1,1.3-1.4,2.1
			c-1.4,3.1,0,6.7-1.9,9.7c-0.3-5.1-5.5-9.8-0.4-15.2c0.9-1,0.9-3-0.6-4.2c3.2-1.3,6.2-1,6.8,2.9c0.5,3.6,1.3,4.5,4.7,1.2
			c-2.2,3.9-0.8,7.7-2.6,10.9c1,2.7,2.2,5.3,0,8h0c-1.3,1-1.5,2.6-2,4C202.2,406.5,201.7,407.8,201,409z"/>
		<path class="st45" d="M267,398c-2.3-1.2-4.7-0.1-7,0c-0.6-1.3-1.7-2.3-3-3c1.8-2.9,4.8-4.1,7.7-5.2c4.6-1.6,9.5-2.2,14.4-3
			c0.9-0.2,1.5,0.5,2,1.1l0,0c1.1,1.8,1.8,3.8,2.3,5.8c0.1,0.5-0.1,0.9-0.4,1.3c0.3,1.3,0.6,2.5,0.9,3.9c-1.3,0.5-2.9-2.3-3.6,0.1
			c-0.6,2,3.3-0.2,2.5,2.4c-4.1,0.7-4,0.7-4.2-3.1c-0.1-2.2-1.7-3.1-3.7-3.3C271.6,394.2,268.8,394.7,267,398z"/>
		<path class="st8" d="M223,353c1.5-1,0.9-2.6,1-4c0-0.3,0-0.7,0-1c3.3-0.6,2.6-2.8,2-5c1.7-1.3,2.3-3.2,2.9-5
			c0.4-1.2,0.9-2.4,2.4-1.5c1,0.6,2,2.3,1.2,2.8c-5.2,3.1-1.6,5.3,0.5,7.7c0.3,2.8-2.1,4.6-2.8,7.1c-0.3,1-1,1.6-2,2
			c-0.9,0.8-1.6,2.2-3.1,1c-0.3-0.3-0.7-0.7-1-1C223.2,355.2,222.3,354.4,223,353z"/>
		<path class="st24" d="M197,352c-1.3-1.5,1.5-3.8-1-5c2.4-0.3,4.1-1.8,3.9-4.2c-0.3-3.3,1.2-5.6,3.1-7.8c1.3,5.9-0.4,11.5-2.3,16.9
			C200.1,353.6,198.3,353.3,197,352z"/>
		<path class="st45" d="M214,357c0.8,2,2.1,3.8,0.1,6.1c-1.4,1.6-2.4,1.9-4.1,0.9c0-2.6,0.3-5.3-1.4-7.7c-0.6-0.8-2.2-1.8-0.8-2.9
			c1.4-1,2.9-0.4,3.8,1.1C212.3,355.5,212.8,356.5,214,357z"/>
		<path class="st30" d="M206,417c0-0.7,0-1.3,0-2c2.3,0.1,3.9-0.6,4-3.2c0-1.4,0.3-2.7,2.1-2.7c1.1,0,2,0.4,2.5,1.4
			c0.7,1.2,0.2,2.3-0.7,3.1c-1.5,1.3-3.2,2.3-2.1,4.8c0.4,0.8-0.6,1.4-1.5,1.5C207.9,420.3,207.4,418,206,417z"/>
		<path class="st30" d="M204,358c0,3.3,0,6.7,0,10c-1.7,0.9-3.6,1.7-5.1,0.6c-2-1.5,0.6-2.8,0.8-4.2c0.3-2.3,0.7-4.5,2.4-6.3
			C202.8,357.2,203.3,357.2,204,358z"/>
		<path class="st46" d="M281.1,387.9c-8.8-0.1-16.9,2-24.1,7.1c-1.1,0-2.1-0.1-3.2-0.1c7.1-5.8,15.8-7.3,24.4-9.2
			C280.4,385.3,280.9,386.2,281.1,387.9z"/>
		<path class="st47" d="M294,417c1.2,6,2.5,12,1.7,18.2c-1.6,2.7,0.1,5.9-1.6,10.1c-0.3-10.4,0.4-19.4-1.1-28.3
			C293.3,416.5,293.6,416.6,294,417z"/>
		<path class="st48" d="M298.8,446.9c8.4-3.4,16.8-6.7,25.2-10.1c-0.6,2.7-3.4,2.7-5,4.2c-6.2,1.2-11.5,5.3-18,6
			C300.3,447,299.5,446.9,298.8,446.9z"/>
		<path class="st49" d="M216.1,401c4.7-0.3,6.9,4.4,10.9,5.6c1.7,0.5,3.2,1.6,5.1,1.5c-0.9,2.5-3,0.9-4.5,1.4
			c-2.8,0-4.3-2.3-6.6-3.3C218.7,405.1,217.5,402.9,216.1,401z"/>
		<path class="st50" d="M219,429.4c-0.2,1.1,0.6,2.9-1.2,3.2c-2.4,0.4-1.5-1.8-1.9-3.1c0-0.2-0.1-0.3-0.1-0.5
			c-0.2-1.8-2.7-3.2-0.9-5.3c0.5-0.5,1.2-0.6,1.8-0.2C218.5,425.1,219.1,427.1,219,429.4z"/>
		<path class="st51" d="M238,295c4.1,0.3,1.1,3.4,2,5c1.1,1.3,1.1,2.7,0,4c-2-1-4-2-6-3c-0.5-3.2,4-2.3,4-5
			c-0.2-0.2-0.3-0.4-0.2-0.7C237.9,295.1,237.9,295,238,295z"/>
		<path class="st52" d="M231,298c2.6,0.2,1.5,1.7,1,3c-1.7,1.9-4.1,5.1-6.1,3.2c-1.6-1.4,2.3-3.2,3.6-5
			C229.8,298.6,230.5,298.4,231,298z"/>
		<path class="st53" d="M267,398c-1.2-2.4,0.4-3.3,2.2-3.9c2-0.7,4.3-2.3,5.8,0.9C272.9,397.5,269.7,397,267,398z"/>
		<path class="st54" d="M251,300c-3.9,3.5-1.3,7.9-1.8,11.9c-0.1,1,1.1,2.1-0.3,3.1c-1.3,0.1-1.4-0.8-1.4-1.8
			c-0.5-5.1-1.9-10.2,0.5-15.2c0-0.3,0-0.7,0-1c-0.3-0.2-0.4-0.4-0.3-0.5c0.1-0.1,0.2-0.2,0.3-0.2C250,296.9,250.9,298.1,251,300z"
			/>
		<path class="st55" d="M290.5,426c-0.5-4.1-0.3-8.2-2.5-12C292.1,417.4,293.2,421.4,290.5,426z"/>
		<path class="st56" d="M240,304c0-1.3,0-2.7,0-4c1.6-1,0.5-3.1,1.6-4.5c2.1,0.6,1,2.4,1.4,3.5c0,1.3,0.1,2.7-0.1,4
			C242.7,305.1,241.6,305.5,240,304z"/>
		<path class="st49" d="M212.1,389.9c4.2,2.6,5.1,6.4,3.9,11c-0.4-0.3-0.7-0.6-1.1-0.9c-2.1-2.1-2.2-5-3.3-7.5
			c-0.3-0.7-0.3-1.4,0-2.1C211.8,390.2,211.9,390.1,212.1,389.9z"/>
		<path class="st57" d="M222.8,416.5c4.2-1.4,7.2-3.9,11.2-0.5C230.4,417.9,227.2,417.2,222.8,416.5z"/>
		<path class="st58" d="M226,343c3.4,1.2,2.1,3.5,1.2,5.4c-1.3,2.7-2.1-0.1-3.2-0.4C224,346.1,223.7,344,226,343z"/>
		<path class="st59" d="M294,417c-0.3,0-0.6,0-1,0c-0.1-3.6-1.8-6.6-3.4-9.7c-1.1-2.1-2-4.1-1.6-6.6C291,405.8,293.6,411,294,417z"
			/>
		<path class="st60" d="M211,375c1.6-0.1,1.7-3.6,4.1-1.8c-0.4,0.9-0.8,1.9-1.1,2.8c-1.2,2.6-1.7,5.6-4.5,7.3c-0.9,0-1-0.8-1.5-1.3
			C208,379.2,211.8,378.1,211,375z"/>
		<path class="st61" d="M227,409.1c1.7-0.3,3.6,0.4,5.1-1.1c0,0,0,0,0,0c1.6-2.1,3.8-3.5,5.9-5.1c0.4-0.3,0.7-0.6,1.1-0.9
			c0.7,1,0.6,1.9,0,2.9c-2.8,4.5-7,5.7-12,5c-0.3-0.2-0.5-0.4-0.3-0.6C226.8,409.2,226.9,409.1,227,409.1z"/>
		<path class="st62" d="M240,329c0.4-0.5,0.8-1,1.2-1.4c0.8-0.9,1.5-2.6,2.9-2c1.5,0.6,0.6,2.2,0.5,3.4c0,0.4,0.4,0.8,0.6,1.2
			c0.1,0.5,0,0.9-0.3,1.2c-1.2,0.6-2.6,0.6-3.9,0.7c-0.3,0-0.7,0-1,0C239.3,331,239.2,330,240,329z"/>
		<path class="st63" d="M204,401c0-2.7,0-5.3,0-8c0.9,1.3,2.1,2.5,2.8,3.9C208.3,399.8,207.7,401.5,204,401z"/>
		<path class="st64" d="M222,442c-2.4-0.8-1-2.6-1-4c0.2-1-0.5-2.5,1.6-2.3c1.8,0.2,3.6,0.2,5.4,0.3c0.3,2.3-2.3,1.7-3,3
			C223.6,439.6,221.7,439.7,222,442z"/>
		<path class="st65" d="M230.1,354.1c-0.3-2.8,2.3-4.6,2.8-7.1c0.8-2.4,0.9-5.2,3.1-7C234.9,345,234.1,350.2,230.1,354.1z"/>
		<path class="st52" d="M239,405c0-1,0-1.9,0-2.9c0.3-0.4,0.6-0.8,0.8-1.2c1.2-0.8,2-1.9,3.2-2.8c0.3-0.1,0.7-0.1,1,0
			c0.4,0.2,0.7,0.5,1,0.9c-0.1,0.1-0.1,0.3-0.2,0.4C243.1,401.5,243.1,405.5,239,405z"/>
		<path class="st19" d="M225,439c-1.4-3.4,2.9-1.1,3-3c1.1,0.8,3.6,1.1,2.6,2.8C229.3,441.2,226.9,439.8,225,439z"/>
		<path class="st45" d="M263.2,400.1c-4.7,3.6-5.7-1.7-8.9-2.6C258.3,396.3,260.1,399.1,263.2,400.1z"/>
		<path class="st66" d="M248.1,314c0.3,0.3,0.6,0.7,0.9,1c-0.1,1.5,0.2,2.8,1.1,4c0.9,1.5,2.2,3,1,5c-0.4,0.2-0.8,0.5-1.2,0.7
			c-1-3.6-1.9-7.1-2.9-10.7C247.4,313.5,247.7,313.6,248.1,314z"/>
		<path class="st67" d="M288.7,441.5c-2.5-2.8-1.1-4.9,0.4-7.6C290.5,436.8,290.1,438.9,288.7,441.5z"/>
		<path class="st9" d="M247,312c-2.6-2-1.7-4.5-1-7c-1.2-1.7-1.2-3.3,0-5c0-0.8,0.2-1.6,1-2C247.7,302.7,247.9,307.3,247,312z"/>
		<path class="st68" d="M247,312c0-4.7,0-9.3,0-14c0.3,0,0.6,0,1,0c0,5.3,0.1,10.6,0.1,16c-0.4,0-0.7,0-1.1,0
			C247,313.3,247,312.7,247,312z"/>
		<path class="st69" d="M212.2,392c0.9,2.7,1.8,5.4,2.7,8.1c-3.2-2.2-3.6-5.8-4.9-9c0.2-0.1,0.4-0.1,0.6-0.2
			C211.3,391,211.7,391.6,212.2,392z"/>
		<path class="st70" d="M210,318c0.6-1,0.6-2,0-3c2.1,0.8,0.9-3.4,2.8-2.1c2.6,1.8-0.8,3.3-0.8,5.1c0,1.7-0.8,1.7-2,1
			C210,318.7,210,318.3,210,318z"/>
		<path class="st63" d="M254.9,455.8c-1.4,1.4-2.4,2.6-4,1.3c-0.3-0.2-0.5-1.1-0.3-1.3C251.7,454.5,253.1,454.8,254.9,455.8z"/>
		<path class="st71" d="M243.4,319.2c0.6,1.9,1.2,3.3-0.5,4.3c-0.2,0.1-1-0.2-1.2-0.5C240.7,321.3,241.6,320.3,243.4,319.2z"/>
		<path class="st64" d="M227,445c-1.6-0.2-3-0.7-4-2c1.6-0.4,3.3-1.3,4.6-1C228.5,442.2,227.4,444,227,445z"/>
		<path class="st72" d="M241,332c0.8-2.4,2.6-1,4.1-1c0.3,0.7-0.1,1.2-0.7,1.4c-1.5,0.8-2.5,2.2-3.3,3.6c0,0,0,0,0,0
			C239.2,334.7,240.4,333.4,241,332z"/>
		<path class="st19" d="M217.1,314.7c-0.9-0.2-1.1-1-0.9-1.8c0.2-0.8,0.7-1.6,1.7-1.4c1.1,0.2,1,1.1,1,1.9
			C218.8,314.3,218.3,314.9,217.1,314.7z"/>
		<path class="st73" d="M208,382c0.4,0.4,0.7,0.8,1.1,1.2c1.8,1.2,1.9,3,1.9,4.9c-0.1,1.1-0.2,2.1-1,2.9c0,0,0,0,0,0
			C208.3,388.2,207.9,385.2,208,382z"/>
		<path class="st74" d="M227,409.1c0,0.3,0,0.6,0,0.9c-3,0.3-4.5-1.8-6-3.9C223.6,406,225.1,408,227,409.1z"/>
		<path class="st75" d="M246,300c0,1.7,0,3.3,0,5C242.8,303.3,242.9,301.7,246,300z"/>
		<path class="st76" d="M245,399c-0.3-0.3-0.6-0.6-1-0.9c2.3-0.7,4.6-1.4,7-2.1C249.7,398.4,247.1,398.3,245,399z"/>
		<path class="st28" d="M202,405c-1.3-2.3-0.8-3.7,2-4C204.1,402.7,203.8,404.2,202,405z"/>
		<path class="st77" d="M210,319c0.8,0,1.6-0.2,2-1c0.9,0.6,2.3,1.2,0.9,2.4C211.4,321.6,210.2,321,210,319z"/>
		<path class="st78" d="M244.1,332c0.3-0.3,0.7-0.7,1-1c0.1-0.3,0.2-0.6,0.2-0.9c0.2,0,0.5,0,0.7-0.1c0.5-0.6,0.8-1.6,2-1.1
			c-0.2,2.4-1.5,3.7-3.9,4.1c-0.4-0.2-0.5-0.4-0.4-0.6C243.8,332.1,243.9,332,244.1,332z"/>
		<path class="st72" d="M240,329c0,1,0,2,0,3c-2.5-0.6-1.9-2.7-1.5-4.1C238.6,327.2,239.6,328.4,240,329z"/>
		<path class="st79" d="M229,294.1c1.7,0.2,2.9,0.9,2,2.9C228.2,297.5,228.6,295.7,229,294.1z"/>
		<path class="st80" d="M248,328.9c-0.7,0.4-1.3,0.7-2,1.1c0.3-1.8,0.6-3.6,2.9-4C248.6,326.9,248.3,327.9,248,328.9z"/>
		<path class="st81" d="M210.3,395.6c0.7,2.3,1.1,3.4,1.6,5.1C209.7,399.5,210,398.2,210.3,395.6z"/>
		<path class="st82" d="M283,395c0-0.3,0-0.7,0-1c0.6-0.6,1.3-0.5,1.9,0c0.5,1,0.9,2,1.4,3C285.2,396.3,284.1,395.7,283,395z"/>
		<path class="st83" d="M248.1,296.3c0.1,0.2,0,0.5-0.1,0.7c-0.8-0.4-1-1.2-1-2c0.3-0.3,0.7-0.7,1-1
			C251.3,294.6,247.1,295.6,248.1,296.3z"/>
		<path class="st84" d="M331,338c-3.1,0.8-6.1,1.5-6.1-3.4c0-2.9-2.7-2-4.2-2.6c-0.2-1.6,2-0.7,1.7-2.1c-1.4-1.8-5.4,3.5-5.5-2
			c-0.5-1.1,0.1-1.6,1-2c0.6-0.1,1.3-0.3,1.9-0.4c8.1-2,9.8-0.8,10.1,7.3c0.1,1.4-0.4,3,1,4.1C331.2,337.3,331.2,337.7,331,338z"/>
		<path class="st5" d="M284,312c1-1,2-2,3-3c1.5,0.4,3.2,0.3,4,2c1.9,0.1,3.5-0.2,5.1-1.4c1.5-1.1,3.7-1.2,5.2-0.1
			c1.4,1,0.6,3.2-0.1,4c-1.4,1.7,1.5,3.1-0.2,4.4c-0.8,0.8-1.1,2.2-2.5,2.2c-3.3-4-8.6-3.3-12.8-5.3
			C284.5,314.3,283.5,313.6,284,312z"/>
		<path class="st11" d="M361,374c-4.4-2.4-7.6-5.7-8.3-10.9c0.4-0.5,0.8-0.5,1.3-0.1c2.3,2.3,3.6,5.2,5,8c1.4,0.9,2.8,0.8,4.1-0.4
			c0.5-0.7,1.1-1.3,1.9-1.6c2.2,0.2,3.2-0.8,3-3c0.7-0.6,1.3-0.6,2,0c-0.7,2.7,1,4.8,2,7c-0.8,2.6-1.5,5.3-4,7c-0.3,0-0.7,0-1,0
			C363.6,379.4,363.6,375.4,361,374z"/>
		<path class="st30" d="M341.9,336.9c2.9,0.7,5,4.2,8.4,5.2c0.2,0.1,0.2,1.2,0,1.7c-0.4,0.8-1.3,1.3-2.1,0.9c-2.7-1.4-6-1.4-8.6-3.4
			c-1.2-0.9-2-1.8-1.4-3.3C338.8,336.7,340.1,337.1,341.9,336.9z"/>
		<path class="st10" d="M299,320c0-1.3,0.7-2,2-2c2.3,3.2,6.1,4.2,9.2,6.4c1.7,1.2,2.9,2.6,3.9,4.3c0.7,1.2-0.3,1.2-1.1,1.4
			c-1.7-1-3.3-1.9-5-2.9c-1.5-2.4-3.6-3-6.2-2.3c-1-0.1-1.8-0.4-2.4-1.3C298.8,322.4,298.3,321.3,299,320z"/>
		<path class="st30" d="M291,311c-1-1.3-3.9,1.1-4-2c0.3-3.4,4-0.9,5-3c2.9-2,6-0.6,9.2-0.5C298,307.8,292.7,306.2,291,311z"/>
		<path class="st50" d="M292,287c-2-1-4-2-6-3c-0.1-2.4,0.7-3.6,3.2-2.4c1.2,0.6,2.4,1.3,3.6,1.7c1.3,0.4,3.4,0.1,2.9,2.3
			C295.3,287.7,293.3,286.8,292,287z"/>
		<path class="st52" d="M347.1,358c-1-3.9-6.4-3.7-7.2-7.7c-0.6-1.2-2.1-1.3-2.9-2.4c1-0.9,2.5-2.2,3.3-0.9c2,3.3,5.8,4.7,7.7,8
			c0.6,0.1,0.9,0.4,1,1c-0.3,0.6-0.7,1.3-1,1.9C347.7,358.3,347.4,358.3,347.1,358z"/>
		<path class="st30" d="M370,366c-0.7,0-1.3,0-2,0c0-4.3,0-8.7,0-13c2.4,0.3,2,2.2,2,3.7C370,359.8,370,362.9,370,366z"/>
		<path class="st30" d="M360,359c3.3,2.2,2.5,5.8,3,9c-0.3,0.4-0.7,0.4-1,0c-2.7-0.3-1.8-2.4-2-4C359,362.3,358.7,360.7,360,359z"/>
		<path class="st8" d="M351,353c1.3-0.1,2.6-0.5,3.8-0.4c1,0.1,2.4,0.1,2.9,1.4c0.3,0.8,0,1.6-0.6,2.2c-1,0.9-2,0.9-3.1,0.2
			c-0.7-0.5-1.3-0.9-2-1.4C351.1,354.6,350.5,354.1,351,353z"/>
		<path class="st30" d="M331,338c0-0.3,0-0.7,0-1c0.1-1.5-0.2-3.1,1.8-3.6c0.8-0.2,1.2,0.5,1.4,1.1c0.6,1.7,0.1,3.4-1,4.5
			C332.1,340.1,331.5,338.8,331,338z"/>
		<path class="st85" d="M352,313c1.1-0.6,2.1-0.6,3,0.5c0.8,1,1.1,2,0.8,3.2c-0.2,0.8-0.7,1.1-1.4,1.1c-1.4-0.1-1.8-1.4-2.1-2.4
			C352,314.7,352.1,313.8,352,313L352,313z"/>
		<path class="st86" d="M351,353c0.3,0.7,0.7,1.3,1,2c-0.2,2.6-1.7,1.5-3,1c-0.3-0.3-0.7-0.7-1-1C348.1,353,349.5,353,351,353z"/>
		<path class="st13" d="M334.4,302.6c-0.3-1.8-1-3.2,0.7-4.1c0.2-0.1,1,0.2,1.2,0.5C337.4,300.8,336,301.5,334.4,302.6z"/>
		<path class="st87" d="M321.4,284.3c-1-0.2-2.4,2.1-2.6-0.6c-0.1-1,0-1.7,1.1-1.2c1.1,0.5,3.1,0.2,2.9,1.9
			C322.6,286.2,321.8,284.2,321.4,284.3z"/>
		<path class="st8" d="M354,363c-0.4,0-0.8,0.1-1.3,0.1c-1.3-0.2-2.1-1-2.7-2.1c-0.6-0.7-0.6-1.3-0.1-2
			C351.5,360.2,353.7,360.6,354,363z"/>
		<path class="st8" d="M360,359c0,1.7,0,3.3,0,5C356.3,362.3,356.6,360.7,360,359z"/>
		<path class="st67" d="M278,290c0-0.3,0-0.7,0-1c1.3,0.2,3-0.6,3.8,1.2c0.1,0.3-0.2,1.1-0.4,1.2C279.8,292.1,279.2,290.3,278,290z"
			/>
		<path class="st88" d="M318,326c-0.3,0.7-0.7,1.3-1,2c-0.8-0.6-2.7-0.6-2.1-2C315.5,324.6,317,324.7,318,326z"/>
		<path class="st8" d="M362,368c0.3,0,0.7,0,1,0c0.7,0.3,1.3,0.7,2,1c-0.3,0.7-0.7,1.3-1,2c-0.7,0.6-1.3,0.6-2,0
			C362.6,370,362.6,369,362,368z"/>
		<path class="st89" d="M352,313c-0.9-0.9-2.1-1.7-0.7-3c0.2-0.2,0.8-0.1,1.3-0.2C352.4,310.9,352.2,311.9,352,313
			C352,313,352,313,352,313z"/>
		<path class="st90" d="M350,359c0,0.7,0,1.4,0.1,2c-1.3-0.7-3-1-2.9-3.1c0.3,0,0.6,0,0.9,0C348.7,358.3,349.3,358.7,350,359z"/>
		<path class="st91" d="M362,371c0.7,0,1.3,0,2,0c-1.7,1.5-3.3,1.5-5,0C360,371,361,371,362,371z"/>
		<path class="st92" d="M337,347.9c1.5,0.2,2.6,0.7,2.9,2.4c-1.4-0.5-3-0.8-3.8-2.3C336.4,348,336.7,348,337,347.9z"/>
		<path class="st93" d="M297.5,278.4c0.9,0.2,0.8,0.6,0.6,1c-0.2,0.4-0.4,0.9-0.8,1.1c-0.6,0.3-0.9-0.1-0.7-0.7
			C296.9,279.3,297.3,278.8,297.5,278.4z"/>
		<path class="st94" d="M282.9,315c-2.5-1.3-3-4-4.2-6c-1.4-2.6-2.2-5-6-4.5c-2,0.3-1.5-1.5-0.7-2.4c2.1-2.4,2.3-3-0.5-4.6
			c-1.2-0.7-2.9-3.9-4.6-0.4c-0.5,0.3-0.9,0.2-1.3-0.2c0.3-1.7-2-3-0.6-4.9c1.7-0.2,3.4,0.1,4.9,1c1.6,0.7,3.4,1.2,3.9,3.2
			c0.7,0.9,1.5,1.8,2.2,2.7c4,2.2,4.7,6.7,6.7,10.3C282.6,311.2,284.6,313.1,282.9,315z"/>
		<path class="st95" d="M266.9,312c-2.2,1.8-4.1,1.5-5.8-0.8c-1-1.4-2.2-2.8-3.3-4.2c-0.6-1.3-3.4-0.6-2.7-3c0.5,0,1-0.1,1.5,0
			c2,0.5,2.8-3.3,5-1.5c1.9,1.6-2.7,2.7-0.6,4.5c2.6-0.3,2.8,3,4.9,3.4C266.5,310.8,266.8,311.3,266.9,312z"/>
		<path class="st56" d="M257.6,295.5c-1.6-2.7-1.7-5.3-1.9-8.1c1.9-0.7,3.4,0.1,4,1.6C260.6,291.3,259.7,293.5,257.6,295.5z"/>
		<path class="st96" d="M266.9,312c-0.3-0.3-0.6-0.7-0.9-1c-1.5-2.3-2.9-4.7,0-7c0.4-2.5,0-4.8-1-7c0.4-0.5,0.7-0.5,1.1,0
			c0.3,0,0.6,0.1,0.8,0.2c0.2,1.7-0.4,3.4,0.7,5c1.8,3.3,0.9,6.6,0.2,9.9l-0.5,0L266.9,312z"/>
		<path class="st97" d="M266,304c-1.7,2.3,0.6,4.7,0,7c-3.2,0.6-3.2-2.8-5-4c3.2-1.1,3.4-3.7,2.6-6.7
			C265.7,301.1,264.4,303.4,266,304z"/>
		<path class="st98" d="M281.8,309.1c-1.9-3.4-3.8-6.7-5.7-10.1c0.3,0,0.6,0,0.9,0c4.3,0.4,3.7,5.3,6.4,7.2c0.1,1,0.2,2-0.2,3
			C282.7,309.5,282.3,309.4,281.8,309.1z"/>
		<path class="st4" d="M283,306c-3.4-1.2-2.6-5.9-6-7.1c0.1-0.1,0.2-0.4,0.3-0.4c3.6,0.7,5.4,3.3,6.7,6.4
			C283.9,305.5,283.5,305.9,283,306z"/>
		<path class="st63" d="M269.4,284.1c-2.2,1-4.5,1.5-7.3-0.5C265.1,282.8,267.2,282.7,269.4,284.1z"/>
		<path class="st99" d="M253,283c0.6-1.3,1.6-2,3-2c1.4,0.1,2.8,0.2,4.8,0.3c-2.3,2.6-4.7,1.4-6.8,1.7
			C253.7,283.3,253.3,283.4,253,283z"/>
		<path class="st100" d="M281.8,309.1c0.4,0,0.8,0,1.2-0.1c0.7,0.5,0.3,1.5,1,2c0,0.3,0,0.7,0,1c0.3,1,1,1.6,2,2
			c0.6,1.9-1,1.3-1.8,1.6c-0.4-0.2-0.8-0.4-1.2-0.6C282.6,313,282.2,311,281.8,309.1z"/>
		<path class="st101" d="M253,283c0.3,0,0.7,0,1,0c0,1.1,0.2,2.3-1,3c-1-0.2-2.6,0.4-2.6-1.3C250.5,283.4,251.8,283.1,253,283z"/>
		<path class="st54" d="M255.1,304c0.5,1.3,2.5,1.4,2.7,3c-3.1,0.5-4.8-0.8-4.8-4.1C253.7,303.3,254.4,303.6,255.1,304z"/>
		<path class="st102" d="M273.9,296.2c-1.4-1-3.1-1.6-3.9-3.2C273,291.9,274.2,293.2,273.9,296.2z"/>
		<path class="st5" d="M284,311c-0.8-0.4-1-1.2-1-2c0-1,0-2,0-3c0.3-0.3,0.7-0.7,1-1C284,307,284,309,284,311z"/>
		<path class="st103" d="M266.1,297c-0.4,0-0.7,0-1.1,0c0-1.7-3-3.4,0.1-5C265.4,293.7,265.8,295.3,266.1,297z"/>
		<path class="st104" d="M271,277c2.9-2.1,1.9,1.5,3,2C272.6,279,271.6,278.3,271,277z"/>
		<path class="st13" d="M347,428c0,0.3,0,0.7,0,1c-0.2,1-0.4,2-1.8,1.8c-0.8-0.1-1.1-0.8-1-1.4C344.5,427.7,345.9,428.1,347,428z"/>
		<path class="st105" d="M333,437c-1.3,0-2.7,0-4,0C330.3,436.3,331.7,433.5,333,437z"/>
		<path class="st11" d="M331,454c-2.2-1.1-3.1,0.6-4,2c-0.1-0.1-0.2-0.3-0.3-0.4c-1.1-1.7-4-0.8-4.5-3.2c-0.1-0.7,0.5-1.2,1.2-1.3
			c2.6-0.2,5.3-0.7,7.1,2C330.7,453.4,330.8,453.7,331,454z"/>
		<path class="st106" d="M362.8,416c-0.7,1.4-0.6,3.3-2.5,3.3c-1.2,0-2.4-1.4-2.2-2.3c0.3-1.1,1.5-2.1,2.6-2.6
			C361.8,413.9,362.4,415,362.8,416z"/>
		<path class="st107" d="M345.2,423.1c1.8-2.8,4-5.1,6.9-6.9C350.7,419.4,348.5,421.7,345.2,423.1z"/>
		<path class="st108" d="M358.6,407.9c1.2-2.3,2.4-4.5,3.6-6.8c2.1,2.5-1.7,3.8-1.3,5.9C360.2,407.3,359.4,407.6,358.6,407.9z"/>
		<path class="st109" d="M353.2,415c1.3-2.3,2.7-4.5,4.7-6.2c0.6,2.2-1,3.6-1.9,5.2l0,0C355.1,414.3,354.2,414.7,353.2,415z"/>
		<path class="st81" d="M358,417c-0.8,0.4-2.1,1.4-2.4,1.2c-1.5-1.4,0.7-2.7,0.3-4.2c0,0,0,0,0,0C358.3,413.9,357,416.2,358,417z"/>
		<path class="st110" d="M369,405c0,0.7,0,1.3,0,2c-1-0.3-2-0.7-3-1l0,0C366.3,403.7,367.6,404.3,369,405z"/>
		<path class="st111" d="M238,295c0,0.3,0,0.7,0,1c-1,0.5-1.9,0.7-2.3-0.7c-0.3-1,0-1.7,1-1.9C237.8,293.2,237.9,294.2,238,295z"/>
		<path class="st30" d="M368,380c1.6-2.2,0.9-5.7,4-7c2.9,0.4,4.1,2.2,4,5c-1.7,1.3-3.3,2.7-5,4C370,381.3,369,380.7,368,380z"/>
		<path class="st112" d="M314.5,460.6c-0.3-0.5-0.8-1.1-0.9-1.8c-0.1-0.6,0.5-1.4,1.1-0.9c0.5,0.4,0.8,1.3,1,2
			C315.8,460.3,315.4,460.7,314.5,460.6z"/>
		<path class="st30" d="M361,374c3.4,0.6,3.9,4.1,6,6c1,1.7,2,3.3,3,5c-0.7,0.6-1.3,0.5-2,0c0-1.2-0.6-1.9-1.8-2
			C365.1,379.7,361.5,377.7,361,374z"/>
		<path class="st113" d="M368,385c0.7,0,1.3,0,2,0c0,1.7,0,3.5,0,5.2c-0.1,1.6-1.1,1-2,0.8C367.2,389,367.2,387,368,385L368,385z"/>
		<path class="st110" d="M364,404c0.2-1.3,0.3-2.9,1.7-3.2c1.1-0.2,1.8,1.2,2.3,2.2C367,404.6,365.7,405.1,364,404z"/>
		<path class="st8" d="M364,404c1.5,0.2,2.8-0.3,4-1c-0.1,0.9,2,0.6,1,2c-1.1,0-2.3-0.2-3,1C365,405.6,364.4,405,364,404z"/>
		<path class="st114" d="M364,398c0.4-1.8,0.8-3.6,2-5.2C365.8,394.7,366.7,397,364,398z"/>
		<path class="st115" d="M368,385c0,2,0,4,0,6C366.5,389,366.5,387,368,385z"/>
		<path class="st116" d="M284.2,315.6c0.6-0.5,1.2-1,1.8-1.6c2.4,0.6,4.8,1.7,7.2,1.7c3.2,0,4.7,1.8,5.9,4.3c0.3,1,0.7,2,1,3
			c-0.4,0.6-0.8,1.4-1.8,0.9C294.9,318.8,289.2,317.8,284.2,315.6z"/>
		<path class="st49" d="M210.1,387.8c-0.3-1.6-0.7-3.1-1-4.7c1.6-2.4,3.3-4.8,4.9-7.2c-0.3,4.7-2.8,9.1-1.9,13.9
			c0,0-0.1,0.1-0.1,0.1C210,390.5,210.8,388.4,210.1,387.8z"/>
		<path class="st117" d="M215.1,373.1c1.6-3,1.8-7,6-8.1C220,368.4,217.8,371,215.1,373.1z"/>
		<path class="st118" d="M298.2,323.9c0.6-0.3,1.2-0.6,1.8-0.9c0.4,0.8,1.2,1,2,1c1.5,0.7,4.4-0.4,4,2.9
			C303,326.9,299.9,327.1,298.2,323.9z"/>
		<path class="st4" d="M306,327c-0.5-2.1-3-1.5-4-2.9c3.3-1.5,5.8-1.4,6,3.1C307.3,327.1,306.6,327,306,327z"/>
		<path class="st49" d="M237.9,403c-1.4,2.3-3,4.4-5.9,5.1C232.4,404.5,234.7,403.2,237.9,403z"/>
		<path class="st94" d="M267.9,312c-0.1-3.3-0.1-6.6-0.2-9.9C271,305.3,269.4,308.6,267.9,312z"/>
		<path class="st119" d="M284.9,394c-0.6,0-1.3,0-1.9,0c-1.4-1.8-1.4-4-1.9-6.1C283.3,389.4,283.9,391.8,284.9,394z"/>
		<path class="st120" d="M221,365.1c0.2-2.6,2.1-3.9,4.1-5C224.6,362.4,223.1,363.9,221,365.1z"/>
		<path class="st121" d="M243,398.2c-0.2,1.9-1.3,2.8-3.2,2.8C240.2,399.2,241.1,398,243,398.2z"/>
		<path class="st122" d="M225,357c1-0.3,2.1-0.6,3.1-1c-0.3,1.9-1.4,3.2-3,4.1C225.1,359.1,225,358,225,357z"/>
		<path class="st54" d="M251.1,324c-0.3-1.7-0.7-3.3-1-5C252.3,320.3,253.6,321.7,251.1,324z"/>
		<path class="st123" d="M244.1,332c-0.1,0.3,0,0.7,0,1c-1,1-2,2-3.1,3.1C241.1,334,242.4,332.9,244.1,332z"/>
		<path class="st124" d="M223,353c0.3,1,0.7,2,1,3c-1.5,0-3.3,0.1-3.5-1.7C220.3,352.6,222,353.2,223,353z"/>
		<path class="st125" d="M210.1,387.8c0.6,0.7,1.3,1.5,1.9,2.2c0.1,0.6,0.1,1.3,0.2,1.9c-0.7-0.3-1.5-0.6-2.2-1
			C210,389.9,210.1,388.9,210.1,387.8z"/>
	</g>
</g>
</svg>
