<?xml version="1.0" encoding="utf-8"?>
<!-- Generator: Adobe Illustrator 23.0.5, SVG Export Plug-In . SVG Version: 6.00 Build 0)  -->
<svg version="1.1" id="Capa_1" xmlns="http://www.w3.org/2000/svg" xmlns:xlink="http://www.w3.org/1999/xlink" x="0px" y="0px"
	 viewBox="0 0 595.3 841.9" style="enable-background:new 0 0 595.3 841.9;" xml:space="preserve">
<style type="text/css">
	.st0{fill:#417630;}
	.st1{fill:#FFFFFF;}
	.st2{fill:#486B3A;}
	.st3{fill:#D6DBCC;}
	.st4{fill:#6C9050;}
	.st5{fill:#688C4D;}
	.st6{fill:#DBDFD2;}
	.st7{fill:#030705;}
	.st8{fill:#417631;}
	.st9{fill:#407631;}
	.st10{fill:#427732;}
	.st11{fill:#427433;}
	.st12{fill:#437531;}
	.st13{fill:#427431;}
	.st14{fill:#407730;}
	.st15{fill:#437532;}
	.st16{fill:#457333;}
	.st17{fill:#417532;}
	.st18{fill:#457533;}
	.st19{fill:#427731;}
	.st20{fill:#467533;}
	.st21{fill:#447533;}
	.st22{fill:#3F7732;}
	.st23{fill:#467236;}
	.st24{fill:#447632;}
	.st25{fill:#427432;}
	.st26{fill:#407732;}
	.st27{fill:#427532;}
	.st28{fill:#467133;}
	.st29{fill:#437633;}
	.st30{fill:#477835;}
	.st31{fill:#20351C;}
	.st32{fill:#467735;}
	.st33{fill:#0D1C0E;}
	.st34{fill:#417533;}
	.st35{fill:#457834;}
	.st36{fill:#477230;}
	.st37{fill:#407831;}
	.st38{fill:#46733A;}
	.st39{fill:#427331;}
	.st40{fill:#4E7840;}
	.st41{fill:#3F7730;}
	.st42{fill:#407633;}
	.st43{fill:#437435;}
	.st44{fill:#467835;}
	.st45{fill:#447332;}
	.st46{fill:#417632;}
	.st47{fill:#4E763A;}
	.st48{fill:#437332;}
	.st49{fill:#447734;}
	.st50{fill:#3F7831;}
	.st51{fill:#406A31;}
	.st52{fill:#3E7635;}
	.st53{fill:#457836;}
	.st54{fill:#417431;}
	.st55{fill:#4E7B3D;}
	.st56{fill:#417834;}
	.st57{fill:#437432;}
	.st58{fill:#4C763B;}
	.st59{fill:#447A32;}
	.st60{fill:#4F7A3C;}
	.st61{fill:#447432;}
	.st62{fill:#447336;}
	.st63{fill:#08140A;}
	.st64{fill:#50773E;}
	.st65{fill:#467332;}
	.st66{fill:#457232;}
	.st67{fill:#457433;}
	.st68{fill:#457237;}
	.st69{fill:#132415;}
	.st70{fill:#3D7931;}
	.st71{fill:#487B34;}
	.st72{fill:#447A31;}
	.st73{fill:#5E7D44;}
	.st74{fill:#1D341B;}
	.st75{fill:#487736;}
	.st76{fill:#1B371B;}
	.st77{fill:#3E722F;}
	.st78{fill:#1F3D1D;}
	.st79{fill:#4A713A;}
	.st80{fill:#557940;}
	.st81{fill:#142615;}
	.st82{fill:#457934;}
	.st83{fill:#213B1D;}
	.st84{fill:#1B361A;}
	.st85{fill:#527942;}
	.st86{fill:#1D341A;}
	.st87{fill:#1A341B;}
	.st88{fill:#427330;}
	.st89{fill:#4C7042;}
	.st90{fill:#1A2E1A;}
	.st91{fill:#4F693A;}
	.st92{fill:#244622;}
	.st93{fill:#1A341A;}
	.st94{fill:#437B32;}
	.st95{fill:#477C33;}
	.st96{fill:#4D753D;}
	.st97{fill:#437833;}
	.st98{fill:#447335;}
	.st99{fill:#446A36;}
	.st100{fill:#537A3C;}
	.st101{fill:#437434;}
	.st102{fill:#407731;}
	.st103{fill:#427633;}
	.st104{fill:#1D351C;}
	.st105{fill:#437134;}
	.st106{fill:#4F7542;}
	.st107{fill:#09160B;}
	.st108{fill:#4E7A41;}
	.st109{fill:#4E7642;}
	.st110{fill:#4F763A;}
	.st111{fill:#517744;}
	.st112{fill:#4E7048;}
	.st113{fill:#3E7932;}
	.st114{fill:#08160A;}
	.st115{fill:#436A36;}
	.st116{fill:#203D1D;}
	.st117{fill:#49753B;}
	.st118{fill:#203B1C;}
	.st119{fill:#1C351A;}
	.st120{fill:#152716;}
	.st121{fill:#142516;}
	.st122{fill:#48703A;}
	.st123{fill:#152717;}
	.st124{fill:#1C381C;}
	.st125{fill:#447236;}
	.st126{fill:#4C743E;}
	.st127{fill:#47743A;}
	.st128{fill:#436F34;}
	.st129{fill:#162917;}
	.st130{fill:#1C371C;}
	.st131{fill:#1D381B;}
	.st132{fill:#142817;}
	.st133{fill:#46743D;}
	.st134{fill:#4D7C40;}
	.st135{fill:#3E7831;}
	.st136{fill:#49703B;}
	.st137{fill:#507A45;}
	.st138{fill:#3F7933;}
	.st139{fill:#4D7B3B;}
	.st140{fill:#457837;}
	.st141{fill:#477236;}
	.st142{fill:#427839;}
	.st143{fill:#417A32;}
	.st144{fill:#417731;}
	.st145{fill:#3F7635;}
	.st146{fill:#4B7B40;}
	.st147{fill:#20331B;}
	.st148{fill:#4E793F;}
	.st149{fill:#203F1F;}
	.st150{fill:#437030;}
	.st151{fill:#437431;}
	.st152{fill:#4B7B3B;}
</style>
<g>
	<g>
		<path class="st0" d="M291,300c2,0,4,0,6,0c1.2,1,2.8,0.2,4.1,0.6c4.2,0.4,8.5,1.1,12.7,1c1,0.1,1.9,0.4,2.6,1
			c2.8,2.1,5.7,3.6,9.4,2.9c0.5,0,0.9,0.1,1.3,0.3c1.5,0.8,2.8,2.1,4.5,2.5c5,2.3,9.8,4.9,14.1,8.4c3.6,4.3,9.1,6.1,13,9.9
			c0.3,0.3,0.6,0.6,0.9,1c1,1.9,2.8,2.5,4.6,3.2c9.5,9,16.2,19.7,19.4,32.5c0.3,4.3,0.4,8.5,0,12.8c-0.4,4.2,1,8.1,4.2,11.2
			c0.2,1.2,0.3,2.3-0.1,3.5c-1.8,1.6-3.1,3.2-0.6,5.3c1,3.5-0.1,7.1,0.7,10.6c-0.4,2.8-0.2,5.6-0.6,8.4c-1.6,3.4-2,7.1-3.2,10.6
			c-1.8,1.1-2.9,0.3-2.9-1.5c0-2.2-1.5-3.9-1.7-5.8c0,0.2,0.1,0.3,0.1,0.5c4.1,9.8,1.5,18.8-3,27.6c-0.2,0.5-0.4,0.9-0.8,1.3
			c-2,0.7-2.2,3.8-4.9,3.6c-1.1-0.7-1.4-1.7-1.1-2.9c0,0,0-0.1,0.1-0.1c-1.2,1.9,1.3,3.4,0.7,5.2c-1.3,2.2-3,1.3-5,0.3
			c2.6,2.7,2.7,5.2,0.3,7.8c-1.2,1.3-2.6,2.4-3.5,4.1c-1,1.9-2.7,3.1-4.4,4.3c-1.1,0.8-2.1,1.7-2.9,2.8c-0.3,0.4-0.6,0.7-1,0.9
			c-6.6,5.4-13.9,9.7-21.4,13.6c-3.5,2.3-7.9,2-11.4,4.3c-0.4,0.2-0.9,0.6-1.4,0.6c-10-0.2-19.5,4.6-29.6,3.3
			c-9.2-1.2-18.5-1.9-27.1-5.7c-0.9-0.4-1.6-1.1-2-2.1c-0.7-1.3,1.5-3.8-1.6-4.2c-2.6-1.2-5.3-2.2-8.1-2.7c-2-0.2-4,0.7-6,0
			c-5.2-2.5-9.6-6-13.7-10c-0.4-1.4-1.5-2.7-1.1-4.4c0.8-1.8,2.4-1.8,4-1.7c1.7,0.5,3.4,0.8,5.1,1.2c1.6,0.8,2.5,2.3,3.5,3.8
			c-0.8-1.2-1.6-2.5-2.7-3.4c-1.1-0.8-2.5-0.8-3.7-1.2c-2.7-0.7-5.4-1.3-6.8,2.1c-2.3,1.1-3.5-1.1-5.3-1.6
			c-9.5-8.3-15.1-19.1-19.3-30.7c-0.3-0.8-0.2-1.6,0.1-2.4c0.3-0.4,0.6-0.7,1.1-0.9c0.6-0.5,3.1,2.4,2.2-1.3c-0.2-0.8,1-1.5,2.1-1.5
			c0.2-0.2,0.7,0.8,0.6-0.2c0-0.3-0.3-0.6-0.3-0.9c-0.1-1.7,0.5-3.1,2.1-3.9c2.2-3.4,1-7,0.5-10.6c-0.2-0.9,0.3-2.5-0.3-2.6
			c-1.4-0.3-1.6,1.5-2.6,2.2c-2,1.2-1.3,3.2-1.4,4.9c0,0.8,0.1,1.7-0.1,2.5c-0.4,2.1-0.2,4.9-2.9,5.2c-3.1,0.3-3.1-2.8-3.9-4.9
			c-0.3-0.9-0.1-2-0.2-3c-1-3.2-0.3-6.6,0.4-9.5c0.8-3.3-1.2-4.1-2.6-5.7c-0.3-4.5-1.1-9,1.5-13.2c0.3-0.9,0.8-1.6,1.7-2
			c0.4-1,2.1,1.4,2.1-0.8c-0.7-2.1-1.3-4.2-0.2-6.4c0.7-1.2,0.6-2.5,0.2-3.7c-1.3-3.7,0.3-7,1.3-10.4c0.3-1.2,1.2-2,2.6-1.2
			c1.5,3.5,2,7.2,3.5,10.7c1.3,3.2-1.4,5.9-2,10.1c1.4-4.6,2.7-8.1,2.2-11.9c1.9-2.8,2.4-5.6,0.2-8.5c-0.2-2.1-1.6-3.3-3.1-4.5
			c-0.7-1.3-0.9-2.8-1.3-4.2c0.5-4.9,2.4-9,6.4-12.1c1.4-0.6,2.9-1.2,4.5-0.6c0.4,0.2,0.8,0.4,1.2,0.8c0.9,1.6,2.2,0.7,3.5,0.6
			c1.2-0.1,1.6,1.2,2.6,1.3c0.1,0-0.2-1.1-0.2-1.7c-0.2-1.9,0.6-3.4,1.6-4.8c0.6-0.4-0.5-0.7-0.1-0.2c0,0-0.1,0.1-0.3,0.4
			c-0.6,0.6-1.3,0.9-2.1,1.1c-1.7,0-2.8-0.8-3.5-2.3c-0.8-2.7,1.4-4.1,2.7-6c4.7-6.9,12.2-10.7,18.2-16.1c2.4-1.2,4.6-2.8,7.6-3.1
			c3-0.4,3.5-4,5.5-5.9c6.2-4.6,13.3-5.9,20.7-6.3c2,0,4.1,0.2,6.1,0c1.1,0,2.2-0.5,3.3-0.5C287.9,300.3,289.6,301,291,300z"/>
		<path class="st1" d="M215.7,344.9c-2.7,3.3-4.7,6.9-6,11c0.6,3.4-1.7,5.9-2.6,8.9c-1.2,4.1-2.8,8.1-2.6,12.5
			c-1,3.6-2.1,7.1-2.4,10.8c-0.1,0.5-0.2,1.1-0.4,1.6c-2.5,5.4-1.5,10.8,0.4,16.1c0.9,4.3,0.2,8.8,1.2,13.1c0.3,2.7,1.2,5.1,2.4,7.5
			c0.9,1.7,1.7,3.6,0.3,5.6c4.4,11.9,10.5,22.9,19.4,32.1c6.5,5.9,12.8,11.9,20.5,16.3c2,0.7,4.1,1,5.7,2.5c1.2,1.4,3,1.5,4.6,2
			c12.3,8.7,26.6,9.8,40.9,9.9c7.8,0.1,15.5-2.4,23.2-3.8c4.2-2.2,9.2-2.4,13.2-5.2c7.5-3.5,14.5-7.8,20.4-13.6l0,0.1
			c1.1-1.1,2.3-2,3.5-2.9c2-1.1,3.5-2.7,4.4-4.8c4.6-4.3,7-10.1,11-14.9c0.7-0.9,1.2-1.9,2.3-2.5l-0.2-0.2l0.1,0.2
			c2.3-6,6-11.4,6.3-18.1c0.1-1.4,1.3-2.2,2-3.3c0.9-2.9,1.2-5.9,1.8-8.9c1.7-3.4,1-7.3,2.2-10.8c0.4-0.5,0.8-0.6,1.4-0.2
			c0,29.5-0.1,59,0.1,88.5c0,3-0.6,3.6-3.6,3.6c-61-0.1-122-0.1-183,0c-3,0-3.6-0.6-3.6-3.6c0.1-63.7,0.1-127.3,0-191
			c0-3,0.6-3.6,3.6-3.6c27.8,0.1,55.7,0.1,83.5,0.1c0.6,0.5,0.6,0.8-0.2,0.9c-0.9,0.3-1.5,1.4-2.7,1c-1.7,0.1-3.5-0.7-5.2,0.1
			c-7.4,0.8-14.3,3.3-21,6.7c-3.7,4.1-9.6,4.8-13.5,8.6c-7.6,4.9-14.4,10.6-19.9,17.9c-0.8,1.1-1.6,2.1-2,3.4
			c-0.3,1.4-1.4,2.3-2.2,3.4C218.1,343,216.8,343.8,215.7,344.9z"/>
		<path class="st1" d="M382.2,363.9c-3.8-12.2-10.3-22.8-19-32.1c-1.7-0.9-3.3-2-3.9-4l-0.1-0.1c-4.6-3.3-9-6.9-13.5-10.4
			c-4.3-3.1-8.8-6-13.7-8c-1.4-1.2-3.3-1.6-4.9-2.4c-0.3-0.1-0.6-0.1-0.9-0.1c-3.3-1.2-6.8-1.8-10.2-3.1c-0.5-0.3-1-0.7-1.5-1
			c-3.8,0.1-7.4-1.2-11.2-1.5c-0.5-0.4-0.6-0.8-0.3-1.4c27.7,0,55.3,0,83-0.1c2.5,0,3.1,0.6,3.1,3.1c-0.1,28.7-0.1,57.3-0.1,86
			c-3.2-2.6-3.3-6.8-4.9-10.2C383,373.9,384.3,368.7,382.2,363.9z"/>
		<path class="st2" d="M386,377.8c2,3.4,0.5,7.8,3,11.2c0,1.7,0,3.3,0,5c-1.1,2.3-0.3,4.8-0.5,7.2c-0.1,1.6,0.3,3.3-0.3,4.9
			c-0.5,3.8-0.5,7.7-2,11.4c-0.8-0.7-0.7-1.6-0.2-2.4c0.1-2.7-0.8-5.5,1-8c-1.3-3.8,0.4-7.9-0.9-11.7c-0.7-1.6-0.2-3,0.9-4.3
			c0-1.3-0.1-2.6-0.1-3.9C385,384.1,382.3,381.3,386,377.8z"/>
		<path class="st3" d="M388.2,401c0.2-2.3-1.1-4.9,0.8-7c0,2.3,0,4.7,0,7C388.7,401.7,388.4,401.7,388.2,401z"/>
		<path class="st4" d="M303,300c0,0.3,0.1,0.6,0.2,0.9c-0.6,0.8-1.3,0.7-2.1,0.4c-1.4-0.3-3-0.1-4.1-1.2C299,300,301,300,303,300z"
			/>
		<path class="st5" d="M285.8,300.9c0.1-0.3,0.2-0.6,0.2-0.9c1.7,0,3.3,0,5,0C289.4,301.3,287.6,301.2,285.8,300.9z"/>
		<path class="st6" d="M388.2,401c0.3,0,0.6,0,0.8,0c0,1.7,0,3.3,0,5l-0.4,0.1c0,0-0.4,0-0.4,0C388.2,404.4,388.2,402.7,388.2,401z"
			/>
		<path class="st7" d="M312.9,440.7c-0.6,0.5-1.2,1-1.9,1.5c-2.1,2.3-4.7,3.8-7,5.7c-0.8,0.1-1.6,0.2-2,1c-3.1,3.2-7.6,4.7-10.1,8.6
			c-0.9,1.4-1.8,2.7-1.9,4.4c-0.4,1.5-1.5,2.3-2.7,3.1c-0.1,0.3-0.2,0.6-0.4,0.8c-1.8,1.1-2.4,0-2.4-1.6c0-1.9-0.4-3.9,0-5.8
			c0.8-3.1,3.4-4.9,5.2-7.2c2.3-1.6,3.8-4,6.2-5.5c1.1-0.7,2.1-1.6,2.8-2.7c0.4-0.5,0.9-1,1.4-1.4c1.8-1.5,4.2-2.4,5.3-4.8
			c1.8-1.9,3.5-4,5.4-5.9c1.1-1.1,1.9-2.3,2.6-3.7c0.4-0.8,0.8-1.6,1.3-2.3c1-1.3,1.6-2.8,2.1-4.3c3.9-6.4,4.1-13.8,5.4-20.9
			c0.3-2.3,0.2-4.5-0.6-6.6c-0.8-4.6-1.6-9.3-4-13.4c-2.3-7.7-7.7-13.5-12.9-19.4c-0.8-1.7-2.2-2.8-3.7-3.8
			c-5.8-5.4-12.6-9.8-16.6-17.1c-0.7-3-2.8-6.4,1.8-8.3c0.8,0,1.5,0.4,2.1,0.9c2.5,3.3,2.2,8.3,6.3,10.7c1.7,2.3,4,3.5,6.6,4.4
			c1.4,0.8,2.6,1.8,3.8,2.9c5.9,3.6,11.7,7.2,16,12.8c1.8,2.3,4,4.5,3.2,7.9c1.5,4.1,3,8.2,4.6,12.3c1.5,4.4,1.9,8.9,0.8,13.5
			c0.4,1.1,1,2,1.1,3.2c-0.1,0.5-0.2,1.1-0.4,1.6c1.3,9.8-0.4,19-5.9,27.4c-1,1.4-2.5,2.4-3.1,4.1
			C318.2,435.1,317.4,440,312.9,440.7z"/>
		<path class="st8" d="M324.3,370.9c-5.1-8.4-12.3-14.5-20.4-19.9c1.5-3.4,4.2,0.4,6.1-1.1c2-0.6,3.6-3.3,5.6,0.9
			c1.5,3.1,5.6,1.1,8.6,0.2c1.2-0.4,2.5-1.7,3.4,0.1c0.8,1.6-0.4,2.2-1.8,2.8c-3,1.3-3.5,4.3-0.7,5.4c5.1,2,4.8,3.9,1.2,7.2
			C325.3,367.5,326,369.9,324.3,370.9z"/>
		<path class="st9" d="M310,350c0,1.9-0.6,2.9-2.5,1.6c-1.1-0.7-2.2-1.4-3.5-0.6c-1.8-0.2-2.8-1.1-2.9-3c-2.3-1.5-4.4-3.2-7-4.1
			c-3.6-2.8-5.9-6.3-6-11c3.2-4,5.6-0.9,8.1,1c0,1.7,0.5,2.8,2.6,2.3c1.7-0.4,3.6-0.2,5.4-0.3C307.5,340,308.4,345.1,310,350z"/>
		<path class="st10" d="M321.1,491.3c-22.7,7.2-44.8,5.5-66.2-4.9c-0.2-0.7-0.9-0.9-1.4-1.3c-0.8-1.4-1.9-2.5-2.5-4
			c-0.3-0.8-1-2.2,1-2c2.7,0.8,5.9,0.4,8,3c1.8,1.2,1.8,3.1,2,5c6.2,1.9,11.8,5.3,18.7,5.4c5.3,0.1,10.6,1.2,16,1.4
			c2.1,0.1,4.2-0.5,6.4-0.6c3.6-0.1,6.2-2.4,9.3-3.8c1.9-0.9,5.5,2.6,8.7,0.6C321.6,490.4,321.7,490.8,321.1,491.3z"/>
		<path class="st11" d="M252,413c-0.3-0.7-0.7-1.3-1-2c-0.9,0.2-1.4,0.1-1-1c-1-1.9-1.7-4.2-3.2-5.5c-1.5-1.2-4.1-1.1-5.2,1
			c-1.3,2.4-3.2,2.8-5.4,2.4c-2.3-0.5,0.9-3.1-1.2-3.9c-1.7,0.4-2.2-1-3-2c-0.6-1.3-1.5-2.7,0-4c1.1,0.9,2.7,0.4,3.9,1.2
			c2.1,1.8,4.5,1.3,7,1c2.7-0.3,5.6-1.3,7.6,1.6c0.6,2.1,1.1,4.2,2.7,5.8c0.8,2.3,2.2,4.2,4.3,5.5c1,1.1,1.5,2.6,2.7,3.6
			c0.7,0.6,1.2,1.2,1.6,2c0.5,1.3,0.4,2.9,1.5,4c0.6,0.6,1,1.3,1.5,2c0.3,0.4,0.5,0.7,0.6,1.1c0.4,1.3,1.6,2.2,1.7,3.6
			c0.1,1-0.3,1.8-1.1,2.4c-2.1,1.4-2.4-0.4-3.1-1.7c-2.7-4.9-4.8-10.2-9.9-13.3C251.6,415.9,252.5,414.3,252,413z"/>
		<path class="st12" d="M304.1,311.1c3.7-2.7,7.7-2.6,10.9-4.4c0.1-0.1,0.5,0,0.5,0c1.9,6,6.7,3.2,10.6,3.6c1,0.1,2,1.2,2.7,2
			c1,1.1,3.1,2.3,1.3,4c-1.3,1.3-3.2,0.8-4.4-0.6c-2.1-2.3-4.6-2.1-7.3-1.9C313.5,314.3,309,313.3,304.1,311.1z"/>
		<path class="st13" d="M263,368c-0.1-2.3,1-3.9,3-5c1.4,3.4-0.9,6.1-2,9c-2,1.3-3.5,2.8-2.8,5.4c0,1.2-0.5,2.2-1.1,3.2
			c-1.1,1.7-2,3.5-2.9,5.3c-1.5,1.8-2.3,3.9-3.3,6c-0.3,0.4-0.7,0.8-1.2,1c-0.8,0.3-1.6,0.4-2.4,0.2c-1.4-0.6-2.5-1.4-1.4-3.1
			c0.5-0.9,0.9-1.7,1.4-2.6c0.7-1.3,2.8-2.3,1.5-4.2c-1.3-1.9-2.5-0.2-3.8,0.3c-0.6,0.3-1.3,0.2-1.7-0.5c-0.4-0.8-0.3-1.6,0.3-2.2
			c0.9-0.9,2.2-1,3.3-0.6c6.1,1.9,6.5-1.6,6-6.1C256.5,369.9,259.7,368.9,263,368z"/>
		<path class="st14" d="M214,424c-0.7,1.3-1.3,2.7-2,4c-0.1,0.6-0.4,0.9-1,1c-0.4,0.7-1.3,1.4-1.3,2c0.2,3.7-1.5,1.6-2.7,1
			c-1.1-2.4-1.2-4.3,0.5-6.8c1.7-2.4,2.1-5.4,2-8.5c-0.1-1.6-0.8-3.3,0.5-4.7c0.1-0.5,0.1-1.1,0.4-1.4c1.5-1.4,1.2-5.5,4.3-4.1
			c2.7,1.2,1.2,4.2,0.3,6.4C214.5,416.7,216.1,420.5,214,424z"/>
		<path class="st15" d="M296,334c-2.9,1.7-5.1-3.1-8.1-1c-0.4-0.3-0.7-0.7-1.1-1c-2.4-1.2-2.3,0.5-2.4,2c-0.2,2,0.8,4.3-1,6
			c-0.5,0.2-0.9,0.2-1.4,0c-0.4-2.4-0.6-4.7-1.7-7c-1.3-2.8-0.4-5.2,3.5-5c2,0.1,4,0.2,5.9,0C294.7,327.4,296.8,329.2,296,334z"/>
		<path class="st13" d="M249,390c0.2,1.2,1,1.9,2.2,2.1c1,1.2,0.6,2.5,0,3.7c-1.4,2.3-3.6,2.5-5.9,2.3c-3.4-0.3-6.8-0.6-10.1,0.1
			c-0.8-0.1-1.5-0.4-2.1-1.1c0.1-2.9-0.1-6.6,3.2-7.4c4-0.9,8.1,0.4,10.4,4.6C248,393,247.3,390.9,249,390z"/>
		<path class="st10" d="M202.9,376.4c0.9-7.3,3.4-14.1,6.8-20.6c1.4,1.1,1.3,2.6,1.3,4.1c0,0.2,0,0.5,0,0.7c0.1,1.3-0.3,2.3-1.4,3.1
			c-0.2,0.1-0.4,0.2-0.7,0.2c-1.9,3.8-2.6,7.8-2,12c1,1.3-1,2.7,0,4c-1.9,2,0.3,4,0,6c-1.3,1.2-2.4,0.1-3.6-0.1
			c-0.5-0.3-0.8-0.6-1.1-1.1C202.8,382,202.1,379.2,202.9,376.4z"/>
		<path class="st16" d="M323.3,429c4.3-7.5,6.4-15.6,5.8-24.3c-0.1-1.3-0.4-2.7,0.7-3.8c0.5-0.4,0.9-0.4,1.3,0.1
			c-0.2,2.9,1.3,5.3,1.6,8.2c0.8,8.3-4.9,13.9-7.6,20.8C324.4,429.7,323.7,429.6,323.3,429z"/>
		<path class="st17" d="M378.6,381c2,3.8,1.2,7.7,1.4,11.6c0.1,2.2,0.3,4.3,1.8,6c3,3.6,3,3.6-1.3,6.6c-1-2.6,0.4-6.4-3.4-7.6
			c-0.3-0.1-0.6-0.9-0.5-1.3C377.2,391.2,377.9,386.1,378.6,381z"/>
		<path class="st18" d="M384.1,426.2c-1.5,7.6-4.6,14.6-8.8,21.1c-0.3-2.3,1-4.3,1.8-6.1c3.6-7.7,3.6-15.3,0.9-23.2
			c0.6-0.5,1.2-1,2-1c1.4,1.8,1.9,4,2,6.2c0,1.2,0,2.4,1.8,1.7C384.5,425.2,384.6,425.6,384.1,426.2z"/>
		<path class="st10" d="M214,373c0.4,5.4-2.1,10.6,0.8,16.9c-6-3.7-6.7-6-3.9-10c1.4-2.1,1.5-4.2,0.2-6c-2.2-3.1-2.3-6.5-2.2-9.9h0
			c0.2-0.1,0.4-0.3,0.5-0.4c0.4,0.1,0.8,0.3,1,0.5c1.1,0.8,0.5-0.9,1.1-0.9c1.3-0.9,1.7,0,2.1,1C215,367.2,214.6,370.1,214,373z"/>
		<path class="st15" d="M210,412c2.5,5.1,0.3,9.8-1.7,14.3c-0.8,1.9-1.4,3.7-1.3,5.7c-0.3,0-0.6,0-0.9,0c-1.3-4.2-3.1-8.3-3.3-12.8
			c-0.4-1.1-0.9-2.3,1.1-2.2c0,2.7,0.5,5.1,2.4,7.7c1.3-3.4,2.1-6.2,1.3-9.4C207.2,413.5,206.9,411.4,210,412z"/>
		<path class="st19" d="M386,377.8c-0.3,3.1,0.1,6.2,0.8,9.2c-4.1-0.7-4.7-3.9-4.8-7.1c-0.1-5.3,0.1-10.7,0.1-16
			C384.8,368.2,384.7,373.2,386,377.8z"/>
		<path class="st20" d="M220.1,338c6.3-8.3,13.4-15.8,22.5-21.2c0.5-0.4,1-0.3,1.4,0.2c-1.2,3.8-5.1,5.4-7.8,7
			c-5.9,3.6-9.4,8.8-13.3,13.9C222,338.8,221.1,338.9,220.1,338z"/>
		<path class="st21" d="M375.3,447.2c-3.4,6.6-7.7,12.6-12.9,17.9c-0.5,0.6-1,0.5-1.4-0.1c0.6-1.4,1.5-2.5,2.7-3.5
			c2.7-2,3.7-4.2,0.6-6.8c-0.7-0.6-1-1.7-1.2-2.6c-0.2-0.9-0.2-2.1,1-2.5c1.3-0.5,1.6,0.7,2.1,1.5c0.8,1.5,1.3,3.9,3.8,1.9
			c0.6-0.5,0.1-1.6,1-2C372.3,449.7,372.3,446.8,375.3,447.2z"/>
		<path class="st22" d="M220.1,338c1,0,1.9,0,2.9,0c1,0.7,2,1.3,3,2c0.7,1.3,0.3,3.2,2,4c-0.1,1.9,4.5,2.6,1.8,4.5
			c-3.1,2.2-4.4-1.4-5.8-3.5c-1.3,0.5-2.7,1-4,0c0-0.3,0-0.7,0-1c-1-0.8-1.6-1.8-1.9-3C218.8,340,219.4,339,220.1,338z"/>
		<path class="st23" d="M288.9,462c-0.1-0.9-1.2-1.8-0.3-2.8c3.9-4.1,7.4-8.9,13.4-10.3c-0.8,4.6-6,4.6-8,8c0.8,3,1.1,6,0,9
			c0,0.3,0,0.7,0,1c-1,0.6-1.8,0.1-2.5-0.5C290.4,465.1,289.8,463.5,288.9,462z"/>
		<path class="st17" d="M304,336c-0.2-1.8-2.1-1.9-4.1-3c4.1-1.2,7.5-2,10.3,0.5c3.1,2.7,1.4,6.3,1,9.7
			C309.7,339.7,309.2,335.5,304,336z"/>
		<path class="st24" d="M204,417c-0.4,0.7-0.7,1.5-1.1,2.2c-1.5-4.2-1.9-8.5-2-12.9c-0.5-1.5-0.7-2.9,0.1-4.3
			c3.8,1.2,2.4,1.8,3.3,4.2C206,410.2,202.6,413.4,204,417z"/>
		<path class="st25" d="M344,397c-0.9-0.4-1.8-0.8-2.6-1.4c-1-0.6-3.2-0.3-2.6-2.2c0.6-1.7,2.7-1.8,3.8-0.8c2.8,2.6,6,2.5,9.3,2.4
			c2,0,3.6,0.5,4.1,2.8c-2.5,3.1-5.7,0.5-8.5,1.1c-0.8-0.3-1.6-0.5-2.4-0.7C344.6,397.9,344.2,397.5,344,397z"/>
		<path class="st26" d="M288.9,462c3.1-1.7,3.1-1.7,3.1,4c0.7,1,1.2,2.1,2,3c-0.7,1.7-1.3,3.3-2,5c-1.6,0.3-2.3-0.3-2-2
			c-0.1-2.6-0.8-5-2.7-6.9C286.8,463.6,287.7,462.7,288.9,462z"/>
		<path class="st27" d="M251,417c-0.3,3.1,2.1,5,3.2,7.5c0.7,1.4,1.2,3-0.6,3.8c-1.8,0.8-2.1-1-2.7-2.1c-0.7-1.3-1.9-2.4-2.3-3.8
			C247.8,420.1,246.9,417.3,251,417L251,417z"/>
		<path class="st28" d="M270,434.5c-0.4-0.6-0.7-1.1-1.1-1.7c-1.2-1-2.2-2.2-2.5-3.7c-0.8-1-1.5-2.2-2.4-3.1l0.1,0.1
			c-0.6-0.6-0.5-1.3-0.5-2c1.7-3.1,4-1.8,6.2-0.8c2.3,2,1.7,5.1,2.7,7.6c-0.1,2.9,4.4,5.2,1,8.4c-0.8,0.1-1.4-0.4-1.9-0.9
			C271.1,437.1,270.1,436,270,434.5z"/>
		<path class="st29" d="M245.8,481.4c-7.5-4.8-15-9.8-20.3-17.3c1.5,1,2.9,1.9,4.4,2.9c0.2,0.1,0.4,0.2,0.6,0.3
			c1.1,0.7,1.7,1.7,2.4,2.7c4.3,3.3,8.7,6.7,13,10C246.4,480.5,246.3,481,245.8,481.4z"/>
		<path class="st15" d="M230,457.2c-0.1,1.5-0.1,3.1-1.9,3.2c-1.5,0.1-1.8-1.2-2-2.4c-0.1-0.7-0.2-1.3-0.3-2c-0.1-1.9-3.3-4.5,0-5.4
			c3-0.9,2.5,3.2,3.7,4.9C229.9,456,229.9,456.7,230,457.2z"/>
		<path class="st30" d="M354.1,472.1c-5.1,6.9-12.4,10.6-19.9,13.9c-0.8,0.5-1.5,0.5-2.2-0.1C339.7,481.9,347,477.1,354.1,472.1z"/>
		<path class="st31" d="M345.1,397c0.6,0,1.3,0.1,1.9,0.1c0.9,1.5,0.2,2.7-0.9,3.7c-1,0.1-2,0.1-3,0.2c-4.3-1.3-8.9,0.5-13.2-1
			c-0.3-0.7-0.6-1.4-0.9-2.1c0.5-0.3,1-0.5,1.6-0.4C335.5,397.2,340.3,398.1,345.1,397z"/>
		<path class="st32" d="M244,317c-0.5-0.1-1-0.1-1.4-0.2c4.4-3.4,9-6.4,14.3-8.1c-0.7,1.3-1.2,2.7-2.2,3.8c-1.3,1.4-1.6,4.4-5.1,2.5
			C248.5,314.3,245.9,316.3,244,317z"/>
		<path class="st33" d="M346.1,400.8c-0.1-1.3,0.3-2.5,0.9-3.7c3,0.2,6,0.4,9,0.7c1,0.1,1.9,0.2,2.9,0.4c0.7,0.7,0.6,1.4,0.1,2.1
			c-1.3,0.4-2.7,0.1-4,0.6c-2.6,0.5-5.3,1.2-8,0.3C346.7,401.1,346.4,400.9,346.1,400.8z"/>
		<path class="st34" d="M228,344c-4.2,0.4-3.3-1.7-2-4c0.4-0.7,0.7-1.5,1.2-2.2c1.2-1.6,2.9-3.5,4.8-1.8c1.9,1.8-0.8,2.6-1.8,3.6
			C228.9,340.9,228.2,342.3,228,344z"/>
		<path class="st35" d="M346.1,316.9c5,2.9,9.4,6.4,13.1,10.9c-5.3-2.4-10.2-5.5-14.2-9.8C345.3,317.5,345.4,317,346.1,316.9z"/>
		<path class="st36" d="M273.2,439c1.4-3.3-3-4.9-2.2-8c5.6,1.9,8.2,5.7,8.4,12.2c-0.2,1-0.8,1.9-1.7,2.5c-0.2,0.1-0.5,0.2-0.7,0.2
			c-0.7-0.3-1.3-0.7-2-1c-0.2-1.3-0.7-2.5-1.4-3.7C273.2,440.5,272.2,439.9,273.2,439z"/>
		<path class="st17" d="M266,360c-2.8-1.1-3.6-2.6-1.2-5.1c1.4-1.5,2.2-3.6,3.6-5.2c1-1.1,2.6-2.7,3.6,0.2
			C269.9,353.3,269.5,357.5,266,360z"/>
		<path class="st37" d="M266,360c1.1-3.8,1.7-8,6-10c0.7,0,1.3,0,2,0c0.9,2.6-2.5,4-1.7,6.6c0,0.7-0.2,1.4-0.6,2.1
			c-1.6,1.6-2.8,4.1-5.7,2.3C266,360.7,266,360.3,266,360z"/>
		<path class="st38" d="M266,361c2.2-0.1,3.2-2.2,5-3c0.6-0.6,1.3-0.6,2-0.2c0.7,0.9,0.4,1.8-0.1,2.7c-0.9,1-1.9,2-2.4,3.2
			c-0.6,1.2-1.6,2.1-2,3.4c-0.2,0.4-0.4,0.8-0.6,1.2c-1.2,1.6-1.6,3.9-4.2,4.1c-0.2-0.1-0.4-0.2-0.6-0.3c1-3,2-6,3-9
			C266,362.3,266,361.7,266,361z"/>
		<path class="st27" d="M214,424c0.4-3.7-1-7.5,1-11c2.2,4,0.1,8.5,1.5,12.6c0.3,0.8-0.4,1.9-1.3,1.7
			C213.4,426.9,214.3,425.2,214,424z"/>
		<path class="st39" d="M245.8,481.4c0.1-0.5,0.1-0.9,0.2-1.4c2.1,0.2,3.6-3.3,6-1c-1,2.5,3.8,3.1,2,6c-1.4,0.8-2.2-0.9-3.4-0.8
			C248.5,484.1,247.8,481.8,245.8,481.4z"/>
		<path class="st40" d="M330,397.8c-0.3,0.1-0.6,0.1-1,0.1c-0.1-4.9-0.1-9.8-0.2-14.7c2.8,4.4,4.1,8.9,1.1,13.8
			C330.7,397.3,330.7,397.5,330,397.8z"/>
		<path class="st41" d="M214,373c-1.9-2.8-0.6-6-1-9c0.3-0.5,0.7-0.5,1,0C217.2,367,217.2,370,214,373z"/>
		<path class="st12" d="M346.1,316.9c-0.4,0.4-0.7,0.7-1.1,1.1c-4.7-2.9-9.3-5.9-14-8.8c0.3-0.6,0.6-0.7,1.1-0.2
			C337.3,310.7,341.8,313.5,346.1,316.9z"/>
		<path class="st29" d="M241,465c2.9,2.3,5.5,4.8,4.2,10.2c-2.2-3.4-3.7-5.8-5.2-8.2C239.9,466.1,240.1,465.4,241,465z"/>
		<path class="st42" d="M362.1,341.8c0.1-0.7,0.1-2.3,1.6-1.9c2,0.5,3.1,2.3,3.4,4.4c0.2,1.2-0.5,1.4-1.5,1.1
			C364,344.9,361.9,344.9,362.1,341.8z"/>
		<path class="st43" d="M311.5,451.3c-1.5,1.6-2.9,3.3-4.4,4.9c-0.7,0.7-1.4,1.6-2.4,0.6c-0.8-0.8-0.7-1.8-0.1-2.7
			C306.2,451.7,308.9,451.7,311.5,451.3z"/>
		<path class="st44" d="M201,402c0,1.4-0.1,2.9-0.1,4.3c-1.4-5.8-1.3-11.5,0-17.3c0.7-0.6,1.4-0.6,2.1,0
			C200.6,393.1,201,397.6,201,402z"/>
		<path class="st45" d="M322,439c1.8-1.1,3.5-2.2,5.5-3.5c1.1,3.8-0.7,5-3.5,5.5C322.4,441.3,320.8,441.5,322,439z"/>
		<path class="st12" d="M316,303.9c3.9-0.7,7.2,0.5,10.2,3.1C322.2,307.8,318.8,306.8,316,303.9z"/>
		<path class="st46" d="M312.9,440.7c2.6-2.6,5.1-5.2,7.7-7.8c0.5-0.6,1-0.6,1.4,0.1c-2.1,2.7-4.3,5.3-6.3,8
			C314.4,442.7,313.6,442.3,312.9,440.7z"/>
		<path class="st47" d="M332,486c0.7,0,1.5,0.1,2.2,0.1c-4,2.7-8.4,4.3-13.1,5.2c0-0.4-0.1-0.9-0.1-1.3
			C324.3,487.6,328.6,488,332,486z"/>
		<path class="st46" d="M322,439c-0.2,1.5,1.4,1.3,2,2c-2.5,0.8-3.6,4.6-7.7,3.4C318.4,442.4,320.2,440.7,322,439z"/>
		<path class="st48" d="M244,321c1.1-0.8,2-2.6,3.7-1.4c1.8,1.3,1,2.9,0.3,4.4c-1,0.9-2,0.8-3,0l0,0C244.5,323,243.3,322.4,244,321z
			"/>
		<path class="st49" d="M384.1,426.2c-0.1-0.4-0.2-0.8-0.3-1.2c-1-3.7,0-6.9,2.1-10c0.1,0.8,0.2,1.6,0.2,2.4
			C386.2,420.5,385.5,423.4,384.1,426.2z"/>
		<path class="st45" d="M241,465c-0.3,0.7-0.7,1.3-1,2c-1.7,0.1-3.4-0.1-5-1c-1.4-1-2-1.9,0.2-2.5c0.9-0.2,2,0.2,2.8-0.5
			C239,463.7,240,464.3,241,465z"/>
		<path class="st0" d="M263,368c-2.3,2-5.3,3.3-7,6C255.3,368.5,258.7,367.7,263,368z"/>
		<path class="st34" d="M290,472c0.7,0.7,1.3,1.3,2,2c-0.1,1.3-0.2,2.7-2,2.8c-0.9,0-1.6-0.5-1.8-1.4
			C287.9,473.8,288.1,472.5,290,472z"/>
		<path class="st50" d="M294,466c0.8-3-1.7-6,0-9C297.4,460,295.5,463,294,466z"/>
		<path class="st19" d="M387,391c0,1.3,0,2.7,0,4c-0.2,0.4-0.5,0.8-1,1c-1.9-0.3-2.9-1.1-2.4-3.4C384.1,390.6,385.4,390.7,387,391z"
			/>
		<path class="st29" d="M238,463c-0.5,1.5-4,0-3,3c-1.4,0-2.9-0.2-4,1c-0.3,0.4-0.7,0.5-1,0c0,0,0,0,0,0
			C230.4,461,235,463.6,238,463z"/>
		<path class="st51" d="M301.1,301.2c0.7-0.1,1.4-0.2,2.1-0.4c3.8,0.4,7.7,0.5,11.2,2C309.7,304.3,305.5,302.1,301.1,301.2z"/>
		<path class="st52" d="M263,310c1.4-3.5,4.4-1.1,6.5-2c-1,2.9-3.9,1.5-5.5,3C263.4,310.9,263.1,310.6,263,310z"/>
		<path class="st15" d="M274.6,312.6c0.4-1.1,1.2-1.5,2.3-1.5c1.2,0,2.5,0.2,2.3,1.8c-0.1,1.3-1.5,1-2.4,1
			C275.9,314,274.8,314,274.6,312.6z"/>
		<path class="st53" d="M279,453c-1,0.3-2,2-3,1c-1.5-1.4-0.4-3.3,0-5c1.3-0.8,2.4-0.4,3.4,0.6c0.3,0.4,0.5,0.9,0.5,1.4
			C279.9,451.8,279.6,452.5,279,453z"/>
		<path class="st54" d="M262,487c-1.5-1.3-2-3.1-2-5C265.3,483,265.3,483.1,262,487z"/>
		<path class="st55" d="M330,397.8c0-0.3,0-0.5,0-0.8c4.7,0,9.3,0,14,0c0.4,0,0.7,0,1.1,0.1C340.1,398.9,335,397.8,330,397.8z"/>
		<path class="st17" d="M271,356c-2.1-3.6,2.1-4,3-6c0.7,0,1.4,0,2.2,0c0.3,0.3,0.5,0.7,0.6,1.2c-0.1,1.2-0.7,2.1-1.7,2.9
			C273.7,354.8,272.7,356.2,271,356z"/>
		<path class="st56" d="M214,364c-0.3,0-0.7,0-1,0c-0.3-0.4-0.7-0.4-1,0c-0.7,0.6-1.3,0.6-2,0l0,0c-0.3-1.5,0.5-2.7,1-4c0,0,0,0,0,0
			c1.7,1.2,1.9-1.3,3.4-1.3C214.3,360.5,214.1,362.3,214,364z"/>
		<path class="st57" d="M219.9,443.7c1.2,0,1.9,0.6,1.8,1.8c-0.1,1-0.8,1.4-1.7,1.2c-1-0.2-2.1-0.4-2.2-1.5
			C217.6,443.8,219.1,444.1,219.9,443.7z"/>
		<path class="st58" d="M347,401.2c2.7-0.3,5.4-0.6,8-0.9c0.5,0,0.8,0.3,0.9,0.7C353.1,403.1,350.1,403,347,401.2z"/>
		<path class="st20" d="M241.7,327.1c0,1-0.4,1.6-1.3,1.7c-0.8,0.1-1.7,0-2-1c-0.3-1.2,0.5-1.8,1.6-2
			C241,325.6,241.4,326.2,241.7,327.1z"/>
		<path class="st59" d="M386,396c0.3-0.3,0.6-0.7,1-1c0,4,0,8,0,12C384.4,403.5,386.8,399.6,386,396z"/>
		<path class="st60" d="M329.9,400c4.4,0.5,8.9-1.1,13.2,1c-4,0-8.1,0-12.1,0.1c-0.4,0-0.8-0.1-1.3-0.1
			C329.8,400.6,329.9,400.3,329.9,400z"/>
		<path class="st10" d="M245,324c1,0,2,0,3,0c0.6,1.3,1.4,3.1-0.8,3.4C245,327.7,245.2,325.6,245,324z"/>
		<path class="st61" d="M211,429c0.3-0.3,0.7-0.7,1-1c2.1,1.2,2.3,2.9,1.2,5.4C211.5,432.1,211.3,430.5,211,429z"/>
		<path class="st10" d="M262.3,477.9c-0.9-0.1-1.7-0.3-1.6-1.3c0.1-0.9,0.9-1.4,1.8-1.3c1,0,2.1,0.4,1.8,1.7
			C264.1,478,263.1,477.9,262.3,477.9z"/>
		<path class="st62" d="M380,417c-0.1,1.5-0.9,1.5-2,1c0.2-1.7-0.5-3.5,0.9-5.4C380.5,413.9,379.8,415.6,380,417z"/>
		<path class="st29" d="M264.5,440c1.3,1,2.5,2,3.9,3.1C264.4,443.5,264.4,443.5,264.5,440z"/>
		<path class="st63" d="M286,458.3c-0.4,2.7-2.8,5.5,0.9,7.7c-1.6,1.9-2.5,0.8-2.8-0.9c-0.3-1.4-0.1-2.8-0.1-4.2
			c-1.1-1.3-0.2-2.2,0.7-3.1C285.3,457.7,285.7,457.8,286,458.3z"/>
		<path class="st64" d="M303.9,448c1.6-2.8,4.4-4.2,7-5.7C309.6,445.4,306.9,446.9,303.9,448z"/>
		<path class="st65" d="M220,345c1.3-0.8,2.7-0.8,4,0c-0.7,1.1-0.9,2.7-2.5,2.6C219.9,347.6,220.1,346.1,220,345z"/>
		<path class="st29" d="M380.8,371.6c-1.9-2.3-2.3-4.3-2.7-7.3C380.4,366.6,380.9,368.5,380.8,371.6z"/>
		<path class="st66" d="M370,448c-0.2-1.3-3.4-2.8,0.2-3.8c0.5-0.1,1.5,0.3,1.7,0.7C372.4,446.5,370.8,447,370,448L370,448z"/>
		<path class="st67" d="M263,310c0.3,0.3,0.7,0.7,1,1c-0.6,1-1.3,1.9-2.6,1.7c-0.3-0.1-0.9-0.6-0.8-0.9
			C260.7,310.4,261.9,310.2,263,310z"/>
		<path class="st68" d="M344.1,327.1c0-0.7,0.1-1.4,0.9-1.5c1-0.1,1.6,0.5,1.4,1.5c-0.1,0.5-0.7,1.2-1.2,1.3
			C344.5,328.6,344.2,327.8,344.1,327.1z"/>
		<path class="st10" d="M371,451c-0.3,0.7-0.7,1.3-1,2c-0.9-1.7-3.1-3.3,0-5c0,0,0,0,0,0C370.3,449,370.7,450,371,451z"/>
		<path class="st69" d="M285,458.5c-0.3,0.8-0.6,1.6-0.9,2.4c-1-2-2-3.9-3-5.9c0.4-0.4,0.9-0.6,1.5-0.6
			C284.3,455.2,286.1,456,285,458.5z"/>
		<path class="st70" d="M232,402c1,0.7,2,1.3,3,2c-0.3,1-0.7,2.1-1.9,1.5C231.6,404.8,232.2,403.2,232,402z"/>
		<path class="st71" d="M359.2,327.9c1.7,0.9,2.9,2.4,3.9,4C358.5,330.4,358.2,330.1,359.2,327.9z"/>
		<path class="st72" d="M204,385c1,0.3,2,0.7,3,1c-0.4,1.3-0.8,2.5-1.2,4.1c-0.7-1.3-1.2-2.2-1.7-3.1
			C203.5,386.3,203.4,385.7,204,385z"/>
		<path class="st73" d="M361,465c0.5,0,0.9,0.1,1.4,0.1c-1,2-2.6,3.4-4.4,4.6c-0.5-0.1-0.8-0.3-1-0.8
			C358.3,467.6,360.2,466.9,361,465z"/>
		<path class="st65" d="M218.1,341c1.2,0.7,1.8,1.7,1.9,3c-1.4,0.3-2.8,0.6-4.3,0.9C216,343.3,217.2,342.2,218.1,341z"/>
		<path class="st20" d="M245.2,330.2c1.2,0,2,0,2,0.9c0,0.3-0.6,0.7-1,0.8c-0.6,0.1-1.4,0-1.4-0.8
			C244.8,330.6,245.2,330.2,245.2,330.2z"/>
		<path class="st74" d="M233,397.1c0.7,0,1.3,0,2-0.1c0.9,1.1,0.9,2.1-0.1,3.1c-1.3-0.2-2.8-0.2-2.8-2.1
			C232.4,397.7,232.7,397.4,233,397.1z"/>
		<path class="st75" d="M204,385c0,0.7,0,1.3,0,2c-0.3,0.7-0.7,1.3-1,2c-0.7,0-1.4,0-2.1,0c0-0.3,0.1-0.7,0.1-1c1.2-0.6-0.7-3.3,2-3
			C203.3,385,203.7,385,204,385z"/>
		<path class="st76" d="M267,429c0.8,1.2,1.9,2.3,2,3.8c-1-0.3-1.9-0.6-2.9-0.8c-0.1-1-0.2-1.9-0.3-2.9
			C266.1,428.6,266.5,428.6,267,429z"/>
		<path class="st77" d="M337,478c1-0.4,1.9-1.2,3.6-0.4c-1.1,1.1-2,2.2-3.6,2.4C336.4,479.3,336.4,478.7,337,478z"/>
		<path class="st78" d="M279,450.1c-1-0.3-2-0.7-3-1c0.3-1,0.6-2,1-3c0,0,0.1,0,0.1,0c2.2-0.3,2.5,1.1,2.7,2.8
			C279.7,449.3,279.4,449.7,279,450.1z"/>
		<path class="st79" d="M279.1,345c-1.5-2.9,0.8-3.3,2.7-4c1,0.8,0.6,1.7,0.2,2.6C281.2,344.5,280.6,345.6,279.1,345z"/>
		<path class="st80" d="M277.8,302c1.7-0.8,3.4-1.7,5.2-0.1C281.4,303.2,279.6,302.2,277.8,302z"/>
		<path class="st81" d="M273.2,439c0.3,0.7,0.5,1.3,0.8,2c0.4,1-0.1,1.2-0.9,1c-0.7-1-1.4-1.9-2.1-2.9c-0.4-1.1,0.1-1.3,1-1
			C272.4,438.4,272.8,438.7,273.2,439z"/>
		<path class="st82" d="M332.1,308.9c-0.4,0.1-0.7,0.1-1.1,0.2c-2,0.6-2.8-1.1-4-2.1C329.1,306.7,330.5,307.9,332.1,308.9z"/>
		<path class="st83" d="M279.1,345c0.6-0.7,1.3-1.4,1.9-2.1c0.7,0.1,1.2,0.4,1.6,1c0.2,0.4,0.2,0.8,0.2,1.3
			c-0.2,0.9-0.6,1.7-1.3,2.2c-0.4,0.2-0.8,0.3-1.3,0.3c-0.4-0.1-0.8-0.3-1.2-0.5C279,346.5,279,345.8,279.1,345z"/>
		<path class="st84" d="M276.1,351.1c0-0.3,0-0.7,0-1c0.8-0.8,1.5-1.9,2.9-2.1c1.3,1.4,0.8,2.6-0.2,3.9c-0.4,0.3-0.8,0.5-1.3,0.6
			C276.7,352.3,276.3,351.8,276.1,351.1z"/>
		<path class="st85" d="M322,433c-0.5,0-0.9-0.1-1.4-0.1c0.9-1.3,1.8-2.6,2.7-3.9c0.5,0.3,1.1,0.7,1.6,1
			C323.7,430.7,322.7,431.7,322,433z"/>
		<path class="st86" d="M282.1,455c-0.4,0-0.7,0-1.1,0c-0.7-0.7-1.3-1.3-2-2c0-0.7,0-1.3,0-2c2.3-0.7,3.2,0.7,3.6,2.6
			C282.6,454.1,282.4,454.6,282.1,455z"/>
		<path class="st37" d="M252,413c1.2,1.1,1,2.6,1,4c-0.7,0-1.3,0-2,0c0,0,0,0,0,0C251.3,415.7,251.7,414.3,252,413z"/>
		<path class="st87" d="M271.9,438c-0.3,0.3-0.7,0.7-1,1c-0.8-1.4-2-2.8-1-4.6C271.1,435.4,271.8,436.6,271.9,438z"/>
		<path class="st88" d="M207,380c-1.5-1.3-0.6-2.7,0-4C208.5,377.3,207.6,378.7,207,380z"/>
		<path class="st37" d="M250,410c0.3,0.3,0.7,0.7,1,1c-0.2,0.9-0.3,2.5-1.4,1.8C248.4,412.2,249.2,410.9,250,410z"/>
		<path class="st89" d="M277.8,352c0.4-1.3,0.8-2.6,1.2-4c0-0.3,0-0.5-0.1-0.8c0.3,0,0.7-0.1,1-0.1
			C281.5,349.8,281.7,351.8,277.8,352z"/>
		<path class="st90" d="M282,344c-0.3-0.4-0.7-0.7-1-1.1c0.3-0.6,0.5-1.3,0.8-1.9c0.1-0.3,0.3-0.6,0.4-0.9c0.3,0,0.6-0.1,0.8-0.2
			c0.7,0,1.2,0.4,1.6,1c0.1,0.4,0.1,0.9,0.1,1.3C284,343.3,283.3,344,282,344z"/>
		<path class="st10" d="M244,321c0.3,1,0.7,2,1,3C242,322.3,242,322.3,244,321z"/>
		<path class="st34" d="M294,469c-1.8-0.3-2-1.6-2-3c0.7,0.3,1.3,0.7,2,1C294.2,467.7,294.7,468.3,294,469z"/>
		<path class="st91" d="M357,469c0.3,0.3,0.6,0.5,1,0.8c-1,1.2-2,2.5-3.9,2.4C354.5,470.6,355.7,469.7,357,469z"/>
		<path class="st21" d="M361.7,445.5c-0.1,0.6-0.4,1-1,0.8c-0.2-0.1-0.5-0.5-0.5-0.8c0-0.6,0.3-1,0.9-0.8
			C361.5,444.8,361.6,445.2,361.7,445.5z"/>
		<path class="st92" d="M358.9,399.8c0-0.6,0-1.1,0-1.7c0.9,0,2-0.4,2.3,0.8c0.1,0.2-0.8,0.7-1.3,1.1
			C359.5,400.5,359.1,400.5,358.9,399.8z"/>
		<path class="st93" d="M273.1,442c0.3-0.3,0.6-0.7,0.9-1c1.2,1.1,2,2.3,0.9,4C274.3,444,273.7,443,273.1,442z"/>
		<path class="st94" d="M215.5,351.3c-0.3,0.3-0.5,0.5-0.7,0.7c-0.2-0.3-0.6-0.7-0.7-1c-0.1-0.4,0-1.1,0.7-0.9
			C215.1,350.3,215.2,350.9,215.5,351.3z"/>
		<path class="st95" d="M278.5,305.1c-0.1,0.4-0.1,0.7-0.2,1c-0.4-0.2-0.9-0.4-1-0.8c-0.1-0.3,0.2-0.8,0.3-1.2
			C277.9,304.4,278.3,304.8,278.5,305.1z"/>
		<path class="st96" d="M358.9,399.8c0.3,0.1,0.7,0.2,1,0.3c-1.1,1.1-2.6,0.9-3.9,0.9c-0.3-0.2-0.6-0.5-0.9-0.7
			C356.4,400.1,357.6,400,358.9,399.8z"/>
		<path class="st97" d="M230,467c0.3,0,0.7,0,1,0c1.2,0.6,1.9,1.6,2,3C231.7,469.3,230.7,468.3,230,467z"/>
		<path class="st98" d="M337,478c0,0.7,0,1.3,0,2c-0.7-0.2-2-0.4-2-0.6C335,478.1,336.1,478.2,337,478z"/>
		<path class="st99" d="M203,385c-0.7,1-1.3,2-2,3c-0.2-4,0.6-7.8,1.9-11.6C202.8,379.3,204.2,382.1,203,385z"/>
		<path class="st100" d="M250.6,484.2c1.4-1,2.4-0.1,3.4,0.8c0.3,0.5,0.6,1,0.9,1.4C253.3,486,251.8,485.5,250.6,484.2z"/>
		<path class="st0" d="M282,344c0.6-0.7,1.2-1.5,1.8-2.2c3-0.1,4.8,2.3,6.3,4.1c2.8,3.4,6,6.4,8.5,10.1c1.1,0.7,2.4,0.4,3.5,0.5
			c1.6,0.3,2.4,1.6,3.6,2.5c5.7,5.8,11.4,11.5,13.3,19.8c1,6.1,3.7,12,3.2,18.4c-1.1,1.1-2.4,1.2-3.8,0.8c-2.5-1.3-3.1-3.6-2.9-6
			c0.1,2.8-0.2,5.5-3.8,6.4c-16.3,0.3-32.6,0.1-48.8,0.1c-1.4-0.1-2.9,0.1-4.3-0.6c-2.3-2.7,1.2-6-0.7-8.8c0.3-4,3.6-6.8,4.5-10.5
			c0.1-2,1-3.7,2.3-5.2c1-1.3,1.9-2.7,3.1-3.8c3.3-4.8,7.1-9.4,7.5-15.6c0.3-1,0.9-1.7,1.8-2c0.2-0.1,0.5-0.1,0.7-0.1
			c2.4-0.8,2.3-2.9,2.2-4.8c0.2-0.1,0.5-0.2,0.8-0.3c1.1-0.2,0.7-1.3,1.2-1.9C282,344.6,282,344.3,282,344z"/>
		<path class="st0" d="M282.1,454c-0.8-1.2-1.6-2.5-3.1-3c0-0.3,0-0.6,0-0.9c0-0.4,0.1-0.8,0.1-1.1c0.4-1.8-0.8-3.3-1.1-4.9
			c0.3-5.7-3.8-9.1-7-13c-3.1-1.6,0.2-5.1-2-7c-4.4-2-6.9-5.9-9.1-9.9c-1.5-2.9-1.1-4.9,2.6-5.8c2.6-0.6,5-1.5,7.7-1.5
			c11.6,0.1,23.2,0,34.8,0c6.4,0,6.9,0.5,8,7.1c0.1,0.9,1,1.3,1.4,2.1c0.1,2,0,4.1,2.9,4.1c0.4,0.7,0.2,1.4,0.1,2.1
			c-0.5,1.4-1,2.7-1.4,4.1c-0.3,0.6-0.7,1.2-1,1.7c-1.6,0.6-1.8,2.5-3,3.4c-3.3,1.9-6.6,3.8-7.5,7.9c-1,1.5-3.2,1.9-3.5,3.9
			c-0.3,0.2-0.6,0.5-0.8,0.7c-1.4,0.7-2.6,1.5-3.3,3c-2,1.6-4,3.3-5.9,4.9c-1.2,0.8-2.4,2-4.1,1.6c-1.2-0.3-1.9,0.8-3,1
			C283.3,454.7,282.6,454.5,282.1,454z"/>
		<path class="st61" d="M314,416c-2.7,0.7-2.8-1.1-2.5-2.8c0.7-3.4-0.7-4.7-3.9-4.7c-13.3,0-26.6,0.1-39.9-0.1
			c-2.5,0-3.7,2.8-6.7,1.8c-1.3-0.4-0.3,2.5,0.4,3.6c2.4,3.5,5,6.8,7.5,10.2c-1.6,0.8-3.1-1.8-4.7,0c-1-0.1-1.5-0.7-2.1-1.4
			c-0.3-1.2-0.7-2.4-1.2-3.6c-0.7-0.3-1.4-0.7-2.1-1c-0.4-1.7-0.9-3.3-1.3-5c-0.4-2.7-3.2-4.5-2.8-7.5c1.1-1.7,2.6-2.6,4.6-2.7
			c0.9,0,1.7,0.2,2.4,0.6c0.8,0.7,1.8,0.8,2.8,0.7c13.2-0.5,26.3,0,39.5-0.3c5.5-0.1,11.1-0.6,16.4-2.7c0.5-0.7,1.1-1.2,1.9-1.4
			c0.6-0.1,1,0.1,1.4,0.6c-1.1,7.5-1.4,15.1-5.7,21.8c-0.4,0.5-0.7,0.5-1.1,0c0-0.7,0-1.4,0-2c-1.7-3.7,1.6-7.4-0.4-11.3
			C314.6,410.7,316.7,414.3,314,416z"/>
		<path class="st101" d="M298,358c-4.9-5.2-8.3-11.8-14.2-16.2c0-0.3,0-0.6-0.1-0.9c0.2-1.4,1.1-1.6,2.3-1.1
			c4.1,6.7,11.3,10.2,16.1,16.2c-0.1,0.2-0.3,0.3-0.4,0.5C300.5,357.2,299.1,357.1,298,358z"/>
		<path class="st102" d="M304,439c-3.4-1.7-0.6-2.8,0.5-3.6c2-1.5,3.7-2.8,1.9-5.5c2.4-1.4,3.4,2.4,5.5,1.1c0.6,0.3,0.6,0.7,0.1,1.2
			c-1.8,2-3.5,3.9-5.3,5.9C305.9,438.5,305.3,439.8,304,439z"/>
		<path class="st103" d="M322,397c-1.2-6-3.2-11.9-2.9-18.2c2.8,4.3,3.3,9.3,4,14.2c0.6,1.2,0.4,2.5,0.2,3.8
			C323,397.2,322.5,397.3,322,397z"/>
		<path class="st104" d="M323,397c0-1.3,0.1-2.7,0.1-4c1.5,2.3,0.8,4.8,0.7,7.3c0,0-0.4,0-0.4,0l-0.4,0c-3.6,1.4-7.1,2-10.8,0.2
			c-0.7-0.8-0.8-1.6-0.4-2.5c1.9-0.9,3.8-1.6,6-0.8C319.4,397.8,321.3,397.9,323,397z"/>
		<path class="st105" d="M282.1,454c0.6,0,1.2,0,1.8,0c1.3-0.2,1.7-1.7,3-2c1.3,0.8,2.7,0.1,4,0c-1.7,2.1-3.3,4.2-5,6.3
			c-0.3,0.1-0.7,0.2-1,0.2c-1-1.2-1.9-2.4-2.9-3.5C282,454.6,282.1,454.3,282.1,454z"/>
		<path class="st106" d="M293.9,344c3.7-0.9,5.8,0.8,7,4.1C297.6,348.5,295.8,346.1,293.9,344z"/>
		<path class="st107" d="M286,339.7c-0.8,0.4-1.5,0.8-2.3,1.1c-0.3-0.3-0.6-0.7-0.8-1c0.8-2,1.3-4,1.1-6.2c-0.2-1.9,0.6-3.3,2.8-1.7
			C283.2,334.2,285.8,337.1,286,339.7z"/>
		<path class="st108" d="M304,439c0.9-0.3,1.8-0.6,2.7-1c-1.1,2.6-3.9,3.3-5.6,5.3C300.9,441.1,302.8,440.3,304,439z"/>
		<path class="st109" d="M312,432.2c0-0.4-0.1-0.8-0.1-1.2c0.7-1.3,1.3-2.8,3.2-3C314.4,429.6,313.5,431.1,312,432.2z"/>
		<path class="st110" d="M305.7,359c-1.2-0.7-2.5-1.3-3.7-2c-0.2-0.2-0.3-0.4-0.3-0.6c0-0.2,0.1-0.3,0.2-0.3c0,0,0.2-0.2,0.2-0.2
			C303.8,356.4,305,357.4,305.7,359z"/>
		<path class="st111" d="M296.9,447.1c-0.3-2.6,1.6-2.7,3.3-3C299.1,445,298,446.1,296.9,447.1z"/>
		<path class="st112" d="M317,422c0.4,0,0.7,0,1.1,0c-0.1,1.7-0.8,3-2,4.2C315.8,424.7,316.3,423.4,317,422z"/>
		<path class="st113" d="M293.6,336.8c1.2,0.4,1.3,1.4,1.2,2.4c-0.1,0.4-0.6,1-0.8,1c-1.2-0.1-1.5-1.1-1.6-2.2
			C292.4,337.3,292.8,336.8,293.6,336.8z"/>
		<path class="st114" d="M234.9,400.2c0-1,0.1-2.1,0.1-3.1c3.1-3.4,6.8-0.8,10.3-0.9c1.7,0,3.6,1.1,4.8-1.1c0.3-0.4,0.6-0.5,1.1-0.4
			c0.4,0.2,0.7,0.4,1,0.7c0.5,0.7,1.1,1.2,1.8,1.7c0.3,0.3,0.5,0.7,0.7,1.1c0.2,0.6,0.2,1.3,0,1.9c-0.2,0.4-0.4,0.7-0.7,1
			c-0.5,0.4-1,0.7-1.4,1.2c-0.5,0.7-1.2,1.2-2.1,1.2c-0.2-0.1-0.4-0.2-0.6-0.2c-2.4-3.7-5.6-0.6-8.3-0.6
			C238.9,402.5,236.2,403.5,234.9,400.2z"/>
		<path class="st115" d="M257,414c-3.3-0.6-4.3-3.2-5-6c-0.4-0.9,0.2-1.3,0.9-1.5c1.4,0,1.9,1.2,2.8,1.9c0.7,1.2,0.8,2.6,1.7,3.7
			c0.1,0.2,0.1,0.4,0.2,0.7C257.5,413.3,257.3,413.7,257,414z"/>
		<path class="st116" d="M257,414c0-0.3,0-0.7,0-1c0.7-0.5,1.4-0.6,2,0.2c-0.2,1.6,1.2,3.2,0,4.8C257.8,416.9,257.1,415.6,257,414z"
			/>
		<path class="st117" d="M253,407c-0.3,0.3-0.7,0.7-1,1c-1.6-1.2-3.1-2.5-2.2-4.8c0,0,0.2-0.2,0.2-0.2c1.5,0.5,2.8,1.2,3.4,2.8
			C253.5,406.3,253.3,406.6,253,407z"/>
		<path class="st118" d="M261,419c1.2,0.7,2,1.5,2,3c-0.5,0.5-0.1,1.5-0.9,1.9C260.6,422.5,260.1,420.9,261,419z"/>
		<path class="st119" d="M267,429c-0.4,0-0.9,0.1-1.3,0.1c-1-0.8-1.5-1.9-1.7-3.1C265.8,426.2,266.4,427.6,267,429z"/>
		<path class="st120" d="M262,423.9c0.3-0.6,0.6-1.2,0.9-1.9c0.4,0.7,0.9,1.3,1.3,2c-0.1,0.7-0.2,1.4-0.3,2.1
			C263.4,425.3,262.7,424.6,262,423.9z"/>
		<path class="st38" d="M260.2,377.1c-1.8-3.1-1.1-5,2.7-5.1c0,0,0.2,0.1,0.2,0.1c0.6,0.5,0.9,1.1,0.9,1.8c0,0.5-0.2,0.9-0.4,1.3
			C262.8,376.4,262,377.7,260.2,377.1z"/>
		<path class="st69" d="M253,391.2c0.3-2.5,1.4-4.6,3.3-6.2c0.5-0.2,0.9-0.1,1.2,0.3c0.7,2.9-0.7,4.7-3.1,6
			C253.9,391.4,253.4,391.4,253,391.2z"/>
		<path class="st121" d="M257.2,385c-0.3,0-0.6,0-0.9,0c0.5-1.9,1.4-3.6,2.9-5c0.5-0.4,0.9-0.3,1.3,0.2
			C261,383,260.2,384.8,257.2,385z"/>
		<path class="st122" d="M253,391.2c0.3-0.1,0.6-0.2,0.9-0.3c0.2,0.1,0.5,0.2,0.7,0.3c1,1.3,1.5,2.7,0.7,4.2c-1.2,1.1-2.5,1.8-4,0.5
			c0-0.3,0.1-0.7,0.1-1c0.2-1.3,0.9-2.2,1.7-3.1C253,391.7,253,391.4,253,391.2z"/>
		<path class="st123" d="M260,380c-0.3,0-0.6,0-0.9,0c0.4-1,0.7-2,1.1-3c0.9-0.7,1.8-1.3,2.7-2c1.2,1.8-0.3,3.1-1,4.5
			C261.4,380.1,260.8,380.4,260,380z"/>
		<path class="st124" d="M253,391.9c-0.2,1.3-0.6,2.4-1.7,3.1c-0.4,0-0.8,0-1.3,0c0.4-1,0.7-2,1.1-3C251.8,392,252.4,392,253,391.9z
			"/>
		<path class="st0" d="M211,360c-0.3,1.3-0.7,2.7-1,4c-0.3,0-0.7,0-1,0C209.2,362.4,209.8,361.1,211,360z"/>
		<path class="st125" d="M210,364c0.7,0,1.3,0,2,0c0,1.9,0,3.8,0,6.6C209.2,368.3,210.3,366,210,364z"/>
		<path class="st126" d="M278,444c2,1.3,2.6,2.9,1.1,4.9c-0.7-1-1.4-2-2.1-3C277.3,445.3,277.7,444.7,278,444z"/>
		<path class="st127" d="M271,356c0.7-1.3,1.7-2.3,3-3c1.2,1.2,1.1,2.5,0.6,4c-0.4,0.6-1,1-1.8,1c-0.6,0-1.3,0-1.9,0
			C271,357.3,271,356.7,271,356z"/>
		<path class="st128" d="M272.9,358c0.3-0.3,0.7-0.6,1-1c0.7-1.1,0.4-2.9,2.4-3.1c1.3,2,0.3,3.8-0.6,5.6c-2.1,3.9-3.6,8.2-6.7,11.4
			c-1.1-0.4-2.2-0.7-2.5-2.1c0-0.7,0-1.4,0.5-1.9L267,367c1.1-1.2,2-2.4,2.6-3.8c0.8-1.1,1.5-2.2,2.4-3.1
			C272.3,359.4,272.6,358.7,272.9,358z"/>
		<path class="st129" d="M267,367c0.1,0.7,0.2,1.4,0.2,2.2c0.3,1.8-0.9,3-1.8,4.3c-0.7,0.7-1.4,1.2-2.4,0.5c0-0.6,0.1-1.2,0.1-1.8
			C264.4,370.4,265.7,368.7,267,367z"/>
		<path class="st130" d="M270.3,363.1c-0.5,1.8-1.2,3.5-3.3,3.9c0.7-1.3,1.4-2.7,2.1-4C269.5,362.6,269.9,362.6,270.3,363.1z"/>
		<path class="st131" d="M270.3,363.1c-0.4,0-0.8-0.1-1.3-0.1c0.6-1.4,1.1-2.8,2.9-2.9C271.8,361.3,271.3,362.3,270.3,363.1z"/>
		<path class="st132" d="M276.3,354c-0.8,1-1.6,2-2.4,3.1c-0.9-1.4,0-2.7,0.1-4c0.7-0.6,1.4-1.3,2.1-1.9c0.3,0.3,0.6,0.7,0.9,1
			C276.8,352.7,276.5,353.3,276.3,354z"/>
		<path class="st133" d="M282,344.9c0.2,0.9,1.5,1.4,0.9,2.4c-0.1,0.2-1.4-0.3-2.1-0.5C281.2,346.2,281.6,345.6,282,344.9z"/>
		<path class="st134" d="M323,397c-3.5,2.2-7.4,0.3-11,1.1c-1.2,1.1-2.6,1.3-4.2,1.3c-14.2,0-28.3,0.1-42.5,0c-1,0-2-0.2-2.9-0.7
			c-0.6-0.4-0.8-1-0.5-1.7c17,0,34,0,51,0c1.7-1.1,3.3-1.5,5,0c1.3,0,2.7,0,4,0C322.3,397,322.6,397,323,397z"/>
		<path class="st101" d="M260,380c0.4-0.3,0.8-0.6,1.2-0.9c0.9-0.5,1.8-0.9,2.7-0.1c-0.9,3.7-3.5,6.6-5,10c0.1,1.7,0.4,3.5-1.6,4.5
			c-2,0.4-2.4-1.4-3.3-2.5c0,0-0.2-0.1-0.2-0.1c1.1-2,2.2-3.9,3.3-5.9C258.6,383.6,259.6,382,260,380z"/>
		<path class="st57" d="M318,397c-1.7,0-3.3,0-5,0c2.1-3.4-0.1-7.5,2.1-11.4C318.4,389.1,316.1,393.6,318,397z"/>
		<path class="st135" d="M257,393c0.7-1.3,1.3-2.7,2-4c1.7,2.9,1.5,5.6-1,8c-1,1.2-2.1,1.3-3.5,0.7c-0.8-0.4-1-1-0.5-1.8
			C255.6,395.5,255.4,393.3,257,393z"/>
		<path class="st136" d="M264,379c-0.9,0.5-1.8,0.7-2.7,0.1c0.6-1.3,1.1-2.7,1.7-4c0-0.4,0.1-0.8,0.1-1.2c0.7-0.3,1.3-0.6,2-0.9
			c0.4,0.2,0.8,0.5,0.9,0.9C265,375.5,263.8,377,264,379z"/>
		<path class="st137" d="M266,374c-0.3-0.3-0.6-0.6-0.9-0.9c0.7-1.3,1.5-2.6,2.2-3.9c0.6,0.6,1.1,1.2,1.7,1.9
			C268,372,267,373,266,374z"/>
		<path class="st138" d="M301.9,356.1c0.1,0.3,0.1,0.6,0.1,0.9c-1.1,1.4-2.4,1.8-4,1C298.5,355.7,300.2,356,301.9,356.1z"/>
		<path class="st139" d="M254,397c1.3,0,2.7,0,4,0c1.3,0,2.7,0,4,0c0,0.3,0,0.6,0,0.8c-2.6,2.5-5.3,2-8.1,0.3
			c-0.3-0.1-0.6-0.2-0.9-0.4C252.9,397,253.2,396.7,254,397z"/>
		<path class="st140" d="M313.3,377.2c0.2,0.3,0.6,0.5,0.6,0.7c0,0.5-0.1,1.1-0.3,1.4c-0.7,0.5-0.8-0.1-0.7-0.6
			C312.9,378.1,313.1,377.7,313.3,377.2z"/>
		<path class="st102" d="M314,416c-0.1-2,0.1-4-0.3-5.9c-0.9-4,1.2-4.5,4.3-4.1c1.7,0.2,2.2,0,1.5,2.5c-1,3.7-0.2,7.9-2.6,11.5
			c-1.5,1.2-3.1,2.3-4.7,3.6C310.7,420.3,313.3,418.4,314,416z"/>
		<path class="st15" d="M279.4,417.8c0.5,4.6,1,8.2,1.3,11.7c0.1,0.7-0.2,1.4-1,1.5c-1.1,0.2-1.6-0.7-1.6-1.4
			C278.3,426,276.4,422.4,279.4,417.8z"/>
		<path class="st141" d="M300.5,435.2c-0.8-0.2-1.1-0.8-1-1.5c0.2-0.9,0.8-1.4,1.7-1.5c0.7,0,1.4,0.3,1.2,1.1
			C302.3,434.4,301.6,435.1,300.5,435.2z"/>
		<path class="st142" d="M287,452c-0.8,1,0.2,4.7-3,2C284.4,452.5,284.6,450.5,287,452z"/>
		<path class="st135" d="M276.6,429.6c-0.1,0.8-0.7,1.1-1.4,0.9c-0.4-0.1-0.8-0.6-0.9-1c-0.1-0.7,0.4-1.3,1.1-1.2
			C276.2,428.4,276.6,428.9,276.6,429.6z"/>
		<path class="st143" d="M290.1,449.7c-0.1-0.4-0.3-0.8-0.2-0.9c0.3-0.4,0.7-0.8,1.1-0.8c0.7,0,0.6,0.6,0.3,1
			C291,449.2,290.6,449.4,290.1,449.7z"/>
		<path class="st0" d="M322,401.1c-0.2,1.2-0.7,2.7-1.9,2.6c-4.9-0.4-9.1,2.4-14,2.5c-13.9,0.2-27.8-0.9-41.7,0.6
			c-2.1,0.2-3.1-0.8-3.4-2.7c-0.4-1.6-0.1-3,1.4-4c0.6-0.3,1.2-0.4,1.8-0.5c14.4-0.2,28.8,0,43.2-0.1c1.5,0,3,0,4.4,0.6
			C315.1,401.2,318.7,399.7,322,401.1z"/>
		<path class="st125" d="M253,407c0-0.4,0-0.7,0-1.1c-1.7-1.2-1.2-3.3-1.9-4.9c0.7-0.3,1.3-0.5,2-0.8c0.7,0.2,1.4,0.4,1.9,1
			c1,1.6,1.2,3.2,0.1,4.8c2.5,1.7,3.6,4.2,3.9,7.1c-0.7-0.1-1.3-0.1-2-0.2c0,0,0,0,0,0c-0.9-1.2-1.8-2.4-1.9-3.9
			C254.4,408.4,253.7,407.7,253,407z"/>
		<path class="st144" d="M255,406c-0.9-1.6-1.1-3.2-1-5c1.1-1.1,2.4-1.5,3.9-0.7c1.3,1,1.8,2.2,1.1,3.7
			C257.7,404.7,256.7,406,255,406z"/>
		<path class="st145" d="M259,404c-0.3-1-0.7-2-1-3c1.3-1.3,2.7-1.3,4,0c0,1.1-0.1,2.2-1,3C260.3,404,259.7,404,259,404z"/>
		<path class="st146" d="M322,401.1c-3.3,0-6.7,0-10-0.1c-0.1-0.2-0.3-0.4-0.4-0.6c0.1-0.2,0.2-0.4,0.3-0.6c3.7,0.2,7.3,0.3,11,0.5
			C322.6,400.5,322.3,400.8,322,401.1z"/>
		<path class="st147" d="M253.9,398.2c2.7-0.1,5.4-0.2,8.1-0.3c16.7,0.1,33.3,0.2,50,0.3c0,0.6,0,1.1-0.1,1.7c0,0,0.1,0.3,0.1,0.3
			c-16.2,0.8-32.5,0.1-48.7,0.3c-3.1-0.4-6.3,0.8-9.4-0.7C254,399.3,254,398.7,253.9,398.2z"/>
		<path class="st148" d="M254,399.8c3,0.1,6,0.2,9,0.3c0.7,0.3,0.7,0.6,0,0.8c-0.3,0-0.7,0-1,0c-1.3,0-2.7,0-4,0c-1.3,0-2.7,0-4,0
			c-0.3-0.3-0.6-0.5-1-0.8C253.4,400.1,253.7,400,254,399.8z"/>
		<path class="st149" d="M251,401c0.6,1.6,1.3,3.3,1.9,4.9c-1.9-0.1-2.4-1.5-2.9-2.9C250.4,402.3,250.7,401.6,251,401z"/>
		<path class="st150" d="M254,397c-0.3,0.3-0.6,0.6-0.9,0.8c-1.2,0-2.1-0.4-1.9-1.8c1.3-0.3,2.5-0.7,3.8-1c0.3,0.2,0.4,0.4,0.3,0.7
			c-0.1,0.2-0.2,0.3-0.3,0.3C254.7,396.3,254.3,396.7,254,397z"/>
		<path class="st131" d="M255.1,409.1c1.2,1,1.8,2.4,1.9,3.9C255.5,412.2,253.9,411.3,255.1,409.1z"/>
		<path class="st151" d="M255,396c0-0.3,0-0.7,0-1c-0.6-1.2-1.1-2.5-0.9-4c1.4,0.1,2,1.3,2.9,2C256.3,394,255.7,395,255,396z"/>
		<path class="st152" d="M263,401c0-0.3,0-0.6,0-0.8c16.4,0,32.7,0,49.1,0c0,0.3,0,0.5-0.1,0.8C295.7,401,279.3,401,263,401z"/>
	</g>
</g>
</svg>
