<?xml version="1.0" encoding="utf-8"?>
<!-- Generator: Adobe Illustrator 23.0.5, SVG Export Plug-In . SVG Version: 6.00 Build 0)  -->
<svg version="1.1" id="Capa_1" xmlns="http://www.w3.org/2000/svg" xmlns:xlink="http://www.w3.org/1999/xlink" x="0px" y="0px"
	 viewBox="0 0 595.3 841.9" style="enable-background:new 0 0 595.3 841.9;" xml:space="preserve">
<style type="text/css">
	.st0{fill:#417630;}
	.st1{fill:#FFFFFF;}
	.st2{fill:#407330;}
	.st3{fill:#3D692E;}
	.st4{fill:#648E51;}
	.st5{fill:#698F55;}
	.st6{fill:#020304;}
	.st7{fill:#407730;}
	.st8{fill:#407732;}
	.st9{fill:#417731;}
	.st10{fill:#447533;}
	.st11{fill:#3F7730;}
	.st12{fill:#417732;}
	.st13{fill:#407632;}
	.st14{fill:#437432;}
	.st15{fill:#417532;}
	.st16{fill:#407631;}
	.st17{fill:#3F7731;}
	.st18{fill:#427532;}
	.st19{fill:#407832;}
	.st20{fill:#427632;}
	.st21{fill:#437532;}
	.st22{fill:#457533;}
	.st23{fill:#4D7542;}
	.st24{fill:#417831;}
	.st25{fill:#417533;}
	.st26{fill:#4A7537;}
	.st27{fill:#487736;}
	.st28{fill:#3F7732;}
	.st29{fill:#4B7638;}
	.st30{fill:#3F7931;}
	.st31{fill:#476D37;}
	.st32{fill:#487436;}
	.st33{fill:#437433;}
	.st34{fill:#446B32;}
	.st35{fill:#3E7931;}
	.st36{fill:#447336;}
	.st37{fill:#417931;}
	.st38{fill:#427533;}
	.st39{fill:#447332;}
	.st40{fill:#416A30;}
	.st41{fill:#447634;}
	.st42{fill:#3E7A32;}
	.st43{fill:#457332;}
	.st44{fill:#49723B;}
	.st45{fill:#427935;}
	.st46{fill:#4E7540;}
	.st47{fill:#4B743F;}
	.st48{fill:#437833;}
	.st49{fill:#406834;}
	.st50{fill:#3F7932;}
	.st51{fill:#527848;}
	.st52{fill:#457837;}
	.st53{fill:#3D7931;}
	.st54{fill:#417B33;}
	.st55{fill:#457235;}
	.st56{fill:#467331;}
	.st57{fill:#537249;}
	.st58{fill:#4D7C3D;}
	.st59{fill:#497138;}
	.st60{fill:#517645;}
	.st61{fill:#3F7A31;}
	.st62{fill:#507742;}
	.st63{fill:#407230;}
	.st64{fill:#4D7244;}
	.st65{fill:#4F7B41;}
	.st66{fill:#4F7A3B;}
	.st67{fill:#557549;}
	.st68{fill:#52783B;}
	.st69{fill:#417B32;}
	.st70{fill:#427531;}
	.st71{fill:#427731;}
	.st72{fill:#447433;}
	.st73{fill:#407731;}
	.st74{fill:#417832;}
	.st75{fill:#3B692F;}
	.st76{fill:#416C34;}
	.st77{fill:#447633;}
	.st78{fill:#457735;}
	.st79{fill:#447A32;}
	.st80{fill:#417634;}
	.st81{fill:#497536;}
	.st82{fill:#3F6E2E;}
	.st83{fill:#487536;}
	.st84{fill:#4D7C3F;}
	.st85{fill:#416B30;}
	.st86{fill:#476833;}
	.st87{fill:#40662D;}
	.st88{fill:#417631;}
	.st89{fill:#437633;}
	.st90{fill:#477638;}
	.st91{fill:#407831;}
	.st92{fill:#457734;}
	.st93{fill:#437533;}
	.st94{fill:#4C7940;}
	.st95{fill:#517547;}
	.st96{fill:#40732F;}
	.st97{fill:#4E7642;}
	.st98{fill:#457835;}
	.st99{fill:#3D7131;}
	.st100{fill:#457233;}
	.st101{fill:#427534;}
	.st102{fill:#457237;}
	.st103{fill:#457331;}
	.st104{fill:#407931;}
	.st105{fill:#3E7638;}
	.st106{fill:#427537;}
	.st107{fill:#0D1B0E;}
	.st108{fill:#3E7B31;}
	.st109{fill:#4D7842;}
	.st110{fill:#3F6C30;}
	.st111{fill:#427834;}
	.st112{fill:#437132;}
	.st113{fill:#437134;}
	.st114{fill:#447134;}
	.st115{fill:#417633;}
	.st116{fill:#416F32;}
	.st117{fill:#040E06;}
	.st118{fill:#4D7442;}
	.st119{fill:#517945;}
	.st120{fill:#507643;}
	.st121{fill:#537946;}
	.st122{fill:#527146;}
	.st123{fill:#537B48;}
	.st124{fill:#4D7742;}
	.st125{fill:#46633C;}
	.st126{fill:#517544;}
	.st127{fill:#437531;}
	.st128{fill:#467837;}
	.st129{fill:#477232;}
	.st130{fill:#417733;}
	.st131{fill:#4D7844;}
	.st132{fill:#407536;}
	.st133{fill:#427434;}
	.st134{fill:#437A31;}
	.st135{fill:#477836;}
</style>
<g>
	<g>
		<path class="st0" d="M204,413c0-3.3,0-6.7,0-10c1-1.4,0.2-3.1,0.5-4.6c1.1-1.9,1.6-4.1,2.5-6c0.3-1.2-0.3-2.1-0.8-3
			c-0.6-1.1-0.6-2.3-0.6-3.5c0-0.7,0.3-1.4,0.7-2c2.5-1.2,2-3.9,3-5.8c1.8-1.8,1.4-4.9,3.8-6.3c0.5-0.1,1,0.1,1.3,0.4
			c1.2,2-0.3,4.6,1.4,6.5c1.8,1.8,0.9,4.1,1.1,6.1c0.1,0.2-0.4,0.5,0,0.7c0.1-1.7-0.6-3.7,0.2-4.8c1.9-2.9-1.4-1.8-1.8-2.9
			c-0.7-1.6-0.3-3.3-0.4-5c0-0.7,0-1.4,0.1-2.1c0.1-2.3-0.5-4.3-2.1-6c-1-1.7-0.4-3.1,0.7-4.4c1.1-0.8,1.6-1.9,2-3.2
			c2.3-4.4,3.9-9.3,8.9-11.6c2.8,0.3,1.9,3.7,4,4.6c2.6,0.9,3-3.1,5.4-2.5c1.7,1.4,3.1,3.2,4.7,4.7c0.2,0.4,0.4,0.8,0.5,1.2
			c0.3,1.5,0.1,3,0.1,4.6c0,0.6,0,1.3,0,1.9c-0.3,1.8,0.5,3.1,1.7,4.4c0.5,1.7,2.2,2.5,3.1,3.9c0.6,1.6,1.8,1.1,3,0.9
			c1.7,0,3,1,4.4,1.6c0.6,0.4,1.1,0.9,1.5,1.4c1.1,2.5,3.1,4.3,5.1,6.1c1.8,2.2,4.1,4.1,2,7.4c-2.7,4.2-6.2,5.7-10.8,4.7
			c-0.6-0.8-1.3-1.4-2.3-1.5c0.7,0.1,1.4,0.4,1.9,1c-0.4,3-1.2,6-0.6,9c4.8-0.7,8.9-3.3,13.4-4.9c2.7-1,5.5-2.1,7.1,1.7
			c0.1,0.7,0,1.4-0.5,2c-1.4,1.7-3.8,2.3-5.2,4.1c-0.3,0.3-0.6,0.7-1.1,0.6c0.5,0.1,0.7-0.3,1.1-0.6c1.3-1.8,3.7-2.2,5-4
			c3.1-0.5,4.8,2.5,7.6,2.9c1.3,0.8,2.2,1.9,2.7,3.3c0,2,2.1,3.3,2,5.3c-0.2,0.1-0.2,0.2-0.2,0.2c0.2,0.4,0.3,0.4,0.5,0
			c1.2-0.6,2.4-0.5,3.5,0.2c1.9,2.2,1.2,4.1-0.6,6c-1.3,0.9-2.6,1.9-3.3,3.4c-1.2,1.7-2.6,2.9-4.7,3c-4.8,0.1-5.4,0.9-4.9,6.1
			c-0.4,1.3-1.3,2.1-2.5,2.6c-3.1,0.2-3.7-1.7-3.6-4.3c-0.8-3.4-2.9-2-4.8-1.3c-1.2,0.4-2.1,1.3-2.5,2.5c-1.1,2.2-1.3,4.1,1.8,4.8
			c2,1.1,2.1,2.9,1.7,4.9c-0.3,0.7-0.8,1.2-1.5,1.4c-0.5,0.1-0.9,0.1-1.4,0.1c-2.9-1.6-4.3,1.9-6.7,1.9c-2.5-0.5-5-1.1-7.4,0.4
			c-1.3,0.4-2.1,1.2-2.5,2.5c-0.9,2.3-1.9,4.5,0.7,6.4c0.3,0.4,0.5,0.8,0.6,1.2c0,0.5-0.1,0.9-0.4,1.3c-0.9,1-2.2,1.3-3.4,1.6
			c-1.1,0.5,0.1,0.9,0.1,1.4c0.3,0.8,0.4,1.7,0,2.5c-1.5,1.7-4,1.9-5.5,3.7c-0.6,0.3-1.8-0.3-1.8,0.9c0,1.1,0.9,1.2,1.7,0.9
			c2.9,0.3,4.5,1.7,4.2,4.8c-0.1,0.5,0,1-0.2,1.4c0.4-0.6,0.2-1.5,1-2c0.9-0.4,1.7,0,2.4,0.6c0.3,0.2,0.7,0.4,1.1,0.6
			c1.5,0.6,3.4,0.4,4.5,2c0.3,0.4,0.3,0.9,0.2,1.4c0.6-0.7-0.1-1-0.4-1.5c-0.5-0.6-0.5-1.2-0.2-1.9c0.3-0.3,0.7-0.6,1.1-0.7
			c3.2,0.1,6.3-0.1,8.7-2.4c0.7-0.6,1.5-1.2,2.4-1.4c0.5-0.1,1,0,1.4,0.1c2.1,1.2,3.9,1.2,5.9-0.5c4.1-3.4,6-3.3,10.9,0.1
			c3,2.9,3.7,2.7,6.3-1.6c-1.6,1.8-3.4,3.8-6.3,1.6c-0.3-0.2-0.7-0.5-0.6-0.8c1.6-4.2,1.9-8.9,4.1-12.8c1.7-3.2,3.9-5.8,8.6-5
			c3.2,0.5,5.3-2.2,5.6-5.6c0.1-1.6-1.1-3.2,0.5-4.7c3.4-1.5,5.6-0.2,7.2,2.8c1.3,2.3-0.7,5.2,1.4,7.4c0.8,1.6,1.9,2.8,3.5,3.7
			c1.2,1.3,2.7,2.5,4,0.5c1.3-1.9,1.2-4-0.5-5.9c-2-2.3-5-3.1-6.9-5.5c-0.3-0.6-0.4-1.3-0.5-2c0.1-2-1.3-2.8-2.8-3.6
			c-3.1-1.5-3.6-3.5-1.2-6.2c0.4-0.2,0.9-0.4,1.4-0.4c2.2,0.1,3.6,1.5,5.1,2.9c9.3,9.2,18.6,18.5,27.8,27.8c1.4,1.4,2.8,2.9,3.1,5
			c0,0.7-0.2,1.4-0.6,1.9c-0.3,0.3-0.6,0.7-1.1,0.7c0.5,0.1,0.6-0.4,1-0.6c1.2-0.3,2.1,0.3,2.8,1.1c0.8,1.2,1.4,2.6,3.2,2.6
			c1.6,0.7,3.6,0.6,4.9,2.1c0.4,1.9-1.2,2.2-2.5,2.6c2.1,0.6,3.9-1.4,5.9-0.2c1.3,1,1.5,2.6,2.4,3.9c0.2,0.4,0.3,0.8,0.5,1.2
			c0.1,0.4,0.2,0.8,0.4,1.2c1.9,1.8,4.3,3.4,2.4,6.6c-3.5,3.8-7.1,7.4-12.6,8c-2-0.9-3.1-0.2-3.4,1.9c-6.3,4.5-13.2,7.6-21.2,7.8
			c-5.9-0.1-11.6,0.6-17.4,1.6c-5.4,0.9-10.6-1.5-16-0.5c-7.2-0.3-14.3-1.4-20.4-5.7c-0.3-0.4-0.5-0.8-0.6-1.3
			c-0.3-2.3,2.6-2.6,2.9-4.6c-0.2-1-1.3-1.4-1.7-2.3c-0.5-2.6-2-2-3.5-1.1c-1.7,1-2.8,2.7-4.6,3.5c-1.2,0.4-2.3,0.1-3.2-0.6
			c-0.3-0.3-0.6-0.6-0.9-1c-3.2-1.1-5.5-4.2-9.2-4.5c-2-0.6-3.5-1.7-3.7-4c0.6-2.1,3.1-2.4,4.1-4c0.2-0.2,0.4-0.4,0.4-0.5
			c-0.4,0.2-0.7,0.5-1,0.8c-2.2,2-5,0.8-7.4,1.2c-5.9-2.6-9.2-7.8-12.2-13.1c-0.2-1.5-0.8-2.8-2.3-3.5c-2.2-1.6-3.6-3.7-4.3-6.3
			c-0.6-6-0.6-6,3.6-5.6c0.5,0.4-0.2-0.2,0.3,0.2c0-0.1-0.1-0.1-0.1-0.1c-1.3-1-0.9-2.5-1.4-3.7c-0.3,0.1-0.4,0.3-0.3,0.6
			c-0.4,1.8-1.4,2.5-3.1,2.3c-0.5-0.1-0.9-0.3-1.3-0.6c-2.2-2.5-1.5-6.4-4.5-8.4c-0.6-0.9-0.8-1.8-0.5-2.8c0.2-0.4,0.6-0.8,1-1.1
			c1.1-0.5,2.2-0.9,3.4-0.7c1.4,0.6,2.7,0.7,3.1-1.3c0.2-0.4,0.4-0.8,0.7-1.1c1-5.9,2.1-11.9-0.7-17.6c-1.9-1-3.4-2.5-3.9-4.6
			c-2.2,2.7,0.7,4.9,0.9,7.4c-1,3.5,0.1,7.2-1,10.8c-0.3,1.1-0.4,2.4-1.9,2.5c-1.2,0.1-2.3-0.5-2.9-1.5c-1.6-2.5-1.9-5.2-0.6-8
			c0.5-1.3,1.6-2.7-0.5-3.6c-0.8-0.5-1.4-1.1-1.8-2C204.6,416.5,205.7,414.4,204,413z"/>
		<path class="st1" d="M318.2,501.1c7.5-0.6,14.1-4.2,20.8-7.2c0.6-1.5,2-1.4,3.2-1.8c4.6-1.6,8.2-4.9,11.9-7.8
			c1.7-1.5,2.5-3.8,4.1-5.3c4.4-2.7,7.2-6.9,10.6-10.6c1.5-1.5,2.7-3.3,3.8-5.1c0.7-1.3,1.7-2.4,2.3-3.7c0.3-0.6,0.7-1,1.1-1.5
			c1.1-1.6,2.3-3,2.8-4.9c1.7-4,3-8.2,4.8-12.1c1.3-3.4,3.6-6.5,3.8-10.4c1.1-3.8,0.6-7.9,2.3-11.6c1.2-3.4,0.5-6.9,0.7-10.3
			c0-5.1,0.2-10.1-0.9-15.1c-0.1-1.6,0-3.2-0.6-4.8c-0.9-3.4-1-7-2.2-10.3c-1.6-3.8-2.6-7.8-4.2-11.6c-0.3-1.6-0.9-3.1-1.9-4.4
			c-1.9-5-5.9-8.6-8.3-13.3c-1-2.4-2.3-4.7-4.5-6.3c-4.1-3.2-8-6.4-11.1-10.6c-0.6-1.2-1.6-1.9-2.8-2.3c-0.4-0.2-0.7-0.5-1-0.8
			c-1-1.4-2.2-2.5-3.9-3.2c-2.7-1.8-5.4-3.7-8.5-4.7c-1.3-0.5-2.2-1.6-3.5-2.1c-6.1-1.9-11.9-4.8-18.3-6.1c-2.7-1.3-5.8-1.6-8.7-2.4
			c-0.5,0-1-0.1-1.4-0.2c-0.8-0.1-1.4-0.4-1.9-1c-0.3-0.5-0.3-0.9,0.1-1.4c27.8,0,55.7,0.1,83.5-0.1c3,0,3.6,0.6,3.6,3.6
			c-0.1,63.7-0.1,127.3,0,191c0,3-0.6,3.6-3.6,3.6c-61-0.1-122-0.1-183,0c-3,0-3.6-0.6-3.6-3.6c0.1-29.2,0.1-58.3,0.1-87.5
			c2.3,0,1.1,2,1.6,3c0.9,2.4,1.9,4.7,1.7,7.6c-0.2,2.5,0.5,5.2,2,7.5c1.2,1.9,1.7,3.9,0.8,6c-0.1,0.8,0,1.6,0.8,2
			c2.2,2.7,3,6,3.9,9.3l-0.1,0c2.5,1.5,2.7,4.3,3.6,6.7c1.3,2,2.6,4,3.9,6c1.2,0.9,2.4,1.9,2.6,3.6c3,4.8,6.8,9,11.2,12.5
			c1.6,0.6,3.7,0.6,3.8,3.1c1.1,1.3,1.9,2.9,3.9,3c3.4,1.4,6.1,4,9.1,6.1l0,0c1.6,0.6,3,1.6,4.9,1.5c0.4,0.1,0.8,0.2,1.2,0.4
			c1.1,0.7,2.3,1.2,3.5,1.7c0.9,0.4,1.1,1.3,1.6,2c6.3,2.8,12.8,4.9,19.7,5.3c6.8,0.1,13.5,2.8,20.3,0.5
			C308.8,502.9,313.5,501.4,318.2,501.1z"/>
		<path class="st0" d="M310,309.2c3.2,0.1,6.6-0.2,9.1,2.5c0.8,1.1-0.2,2.5,0.2,3.3c1.1,2.2,0.8,6.2,5.4,4.6
			c1.4-0.5,3.1-0.3,4.4,0.4c2.7,1.5,5,0.9,7.3-0.6c1.6-0.2,2.8,1.9,4.5,0.6c3.9,0,6.4,2.5,9.1,4.7c1.1,1.6,2.9,2.6,4.1,4.1l-0.1-0.1
			c0.8,0.5,1.5,1.1,1.7,2.1c0,2.1-1,4.3,0.6,6.3c0,0.6-0.4,1.1,0.3,1.6c1.7,1.2,1.4,2.8,0.5,4.3c-1.1,1.8-2.7,2-4.7,1.7
			c-2-0.2-3.6-2.6-5.9-1c-1.3,1.6-3.4,1.9-4.9,3.1c-2.5,2.2,0.5,3.7,0.7,5.5c0.6,1.7,0.4,3.3-0.9,4.6c-1.2,1-3.5-0.2-4,2.1
			c-0.6,1.2,0.6,1.9,1,2.8c1.2,4.7-4.1,4.7-5.6,7.5c-0.5,0.5-1.2,0.9-1.9,1.1c-1.9,0.2-2.6-1-2.9-2.6c-1-5.6-4.5-8-10.1-8.2
			c7.3,1.3,9.8,6.4,10.6,13c-3.7,3.6-5.9,0.3-7.8-2c-2.1-2.7-4.4-4.8-7.6-5.8c-0.6-0.2-1.2-0.5-1.7-0.9c-0.5-0.3-1-0.6-1.6-0.4
			c-1.6,3.2-2,7.1-5.8,8.7c-1.7,0.8-0.7,1.8-0.3,2.8c1.2,3,0.8,6.1,0.4,9.2c-0.2,1.4-1.1,2.8-2.8,3.1c-1.6,0.2-2.3-0.9-2.6-2.1
			c-0.1,1.6,1.2,2.6,1.9,3.9c0.4,1.8,0.4,3.7,1.5,5.3c0.2,0.5,0.2,1,0.2,1.5c-1.9,3.8-4.3,4.1-7.2,1.1c-1.1-1.6,0-4.9-3.6-4.8
			c-1.5-0.5-2.8-1.6-4.3-2.1c-1.9-1.1-3.5-2.5-4.4-4.6c-1-3-3.9-5.5-2.4-9.2c1-2.9,1.7-6,3.4-8.6c0.2-1.2,3.3-1.1,1.6-3.2
			c-0.9,0.1-1.5,0.7-2.3,1c-2.5,1-4.6,2.5-5.3,5.4c-0.2,0.6-0.5,1.2-0.9,1.7c-5.1,6.8-8.8,6.6-13.1-0.8c-0.5-1.5-0.2-3.2-1.2-4.6
			c-0.7-2.7-2.4-5.2-1.8-8.3c0.2-1.2-1.1-0.6-1.8-0.8c-2.5-1.1-4.6,1.1-6.9,1.1c-1.4-0.7-1.8-2-2.1-3.4c0.1-1.9-1.5-3.1-1.8-4.8
			c0.5-3.6-1.9-3.5-4.2-3.1c-1.4,0.2-2.3,1.6-3.5,2.4c-0.4,0.2-0.9,0.4-1.4,0.4c-2.2-0.3-3.7-1.4-3.6-3.9c0.4-0.7,1.1-1.1,1.7-1.7
			c-4.4-1.5-5,4.2-8.4,4.4c-2.7-0.5-2.5-3.5-4.3-4.7c-0.4-2.2,0.8-3.9,2.1-5.3c9.1-10.3,19.6-18.6,32.3-24.1
			c1.2-0.5,2.5-0.9,3.9-0.7c1.3,0.3,2.1,1,2.8,2.1c0.4,0.7,0.9,1.1,1.8,0.5c0.4-0.3,0.7-0.4,1.1-0.6c1.1-0.4,2.3-0.2,3.4,0.1
			c1.7,0.2,3.6-0.5,5,1.1c-1.2-1.2-2.7-1.1-4.1-1.1c-0.5,0-1-0.2-1.5-0.4c-1.4-1-2.3-2.2-1.9-4c1.2-2.5,3.5-2.8,5.9-3
			c3.1-0.4,6.3-0.5,9.4-1c0.5,0,1,0.1,1.4,0.2c0.4,0.3,0.6,0.7,0.9,1.1c1.2,3.2,3.5,1.5,5.4,1.2c0.2-0.3,0.4-0.6,0.5-0.9
			c-0.1-0.7-0.4-1.5,0.1-2.2c3,0,6,0,9,0c0.2,0.2,0.5,0.4,0.7,0.7c0.3,0.3,0.5,0.5,0.9,0.7C305.7,309.4,307.9,310.8,310,309.2z"/>
		<path class="st1" d="M286,309.2c-5.5,0.4-10.8,1.7-16,3.8c-1.6,3.1-4.5,2.8-7.3,2.9c-15.2,6.2-27.9,15.8-37.5,29.2
			c0.3,0.4,0.2,0.7-0.3,0.9c-3.2,3.6-5.9,7.5-8.1,11.7c-0.4,1.3-0.8,2.6-2,3.3c-0.6,1-2.1,1.7-0.9,3.1c0.7,0.4,0.9,1.1,0.9,1.8
			c-0.1,0.7-0.4,1.4-0.8,2c-1.4,1.6-2.1,3.5-2.5,5.6c-0.1,0.5-0.3,0.9-0.5,1.3c-2.3,2.7-1.6,6.6-3.9,9.2c0,0.6-0.1,1.3-0.1,1.9
			c-1,2.4,0.3,5-0.6,7.4c-0.4,1.2,0,2.6-0.9,3.7c-0.5,0.4-0.9,0.4-1.4,0c0-28.6,0-57.2-0.1-85.8c0-2.8,0.5-3.3,3.3-3.3
			c27.9,0.1,55.8,0.1,83.8,0.1c0.3,0.6,0.2,1.1-0.2,1.5C289.1,310.7,287.5,310.4,286,309.2z"/>
		<path class="st2" d="M290.9,308.7c-0.1-0.3-0.1-0.5,0.1-0.7c0.7,0,1.3,0,2,0c0.9,1.1,2.9,1.1,3,3c-2.1,0.5-4.2,1.9-6.2-0.2
			C289.4,309.7,290.5,309.4,290.9,308.7z"/>
		<path class="st3" d="M205.2,418c-0.5-1,0.1-2.4-1.2-3c0-0.7,0-1.3,0-2c4.1,0.3,1.1,3.4,2,5C205.8,418.3,205.5,418.3,205.2,418z"/>
		<path class="st4" d="M204,397c0.2-0.2,0.5-0.3,0.9-0.2c0.5,0.3,0.6,0.8,0.4,1.3c-0.4,1.6,0,3.5-1.3,4.9C204,401,204,399,204,397z"
			/>
		<path class="st5" d="M302,309c0-0.3,0-0.7,0-1c1.7,0,3.3,0,5,0c-0.1,0.3-0.1,0.6,0.1,0.9C305.5,310.4,303.8,310.3,302,309z"/>
		<path class="st6" d="M251.9,355.3c0.2,1.3,0.1,2.6,1.1,3.7c5.4,2.7,9.3,6.9,11.9,12.4c5.7,6.6,5.7,6.6,12.1-1.3
			c1.3-2.7,3.8-4.3,6.1-6.1c1-0.7,1.9-1.3,2.9-2c2.1,2.3,0.3,4.1-0.8,6c-0.8,3-1.6,6-3.2,8.7c-3.7,3.9,1.1,5.6,2.2,8.3
			c0.7,2,2.8,2.5,4,4c1.5,1,2.5,2.6,4.4,3.1c2.2,0.4,2.4,2.6,3.4,4c2.7,4,4.5,1.2,6.4-0.9c-0.3-3.1,2.9-4.2,3.7-6.6
			c0.6-0.8,1.3-1.4,2.1-1.9c1.5-1.1,2.8-2.3,4.2-3.5c2.5-2.1,2.8-4.4,0.5-6.8c-0.8-1.8-1.5-3.6-2.2-5.4c-0.2-1.8-1.5-3.4-1.1-5.4
			c0.3-1.3,0.5-2.9,2.5-2.6c0.4,0.3,0.8,0.6,1.1,1c3.8,1.6,6.3,4.8,9,7.7c3.4,3.8,3.8,3.4,7.7,0.2c2-1.7,3.3-4.2,5.8-5.4
			c2.9-2.9,5.7-5.8,7.1-9.7c1.1-3.1,3.4-5.1,6.6-6c2.6-0.4,4.9,0.1,7.1,1.6c4.5,5.8,4.1,10-1.4,14.4c-6.8,2.7-10.6,8.9-15.8,13.6
			c-0.3,0.4-0.6,0.7-0.9,1c-1.4,1.5-3,2.9-1.4,5.1c0.8,2.3,2.7,3.6,4.7,4.7c1,0.8,1.8,1.8,2.1,3.1c0.2,2.1-0.6,3.6-2.4,4.6
			c-4.6,1.6-7.7-2-11.4-3.4c-2-0.6-3.1,0.4-3.7,2.2c-2.2,5.3-7.3,7.9-11,11.7c-0.4,0.5-0.9,0.9-1.2,1.4c-0.4,0.8-0.3,1.4,0.3,2.1
			c2.1,1.7,3.1,4.4,5.3,6c1.6,1.8,3.3,3.6,5.1,5.1c1,1.2,2.1,2.2,3.6,2.7c0.8,0.4,1.5,1,2.2,1.6c2.4,3.2,4.6,6.7,7.8,9.2
			c0.8,0.4,1.4,1,2,1.7c1,1.1,1.6,2.5,2.9,3.4c0.3,0.2,0.6,0.5,0.9,0.9c1.3,1.7,2.8,3.1,4.5,4.5c1.2,1,2.1,2.2,3.2,3.2
			c0.7,0.9,1.7,1.6,2.3,2.6c1.3,1.9,1,4.3,1.9,6.3c-0.4,3.1,1.7,6,0.7,9.2c-0.2,0.5-0.6,0.9-1,1.2c-2,1.3-4.1,0.4-6.1,0
			c-0.7-0.1-1.5-0.2-2.2-0.3c-1.9-1.1-4.4-0.6-6.2-1.8c-1.4-0.3-2.5-1.3-3.5-2.2c-0.7-1.7-2.1-2.9-2.9-4.5
			c-11.6-11.6-23.2-23.2-34.8-34.9c-2.6-1-3.1,1.1-4.1,2.6c-0.6,0.9-1.3,1.8-2.1,2.5c-1.1,0.7-2.1,1.6-2.9,2.6
			c-0.3,0.3-0.7,0.6-1,0.8c-2.4,2.3-4.8,4.5-6.8,7.2c-0.6,1-1.4,1.8-2.3,2.5c-2.2,1.5-4,3.5-5.8,5.4c-0.3,0.3-0.6,0.6-1,0.9
			c-2.5,2.3-4.8,4.7-7,7.2c-1,1.2-2.1,2.4-3.2,3.5c-1.7,1.5-3.4,2.8-5.8,3c-0.4,0.5-0.8,1.1-1.3,1.6c-2.8,2.6-6.3,2.8-9.9,2.6
			l-0.5-0.1l-0.5,0.1c-1.8,1.9-3.9,1.7-6,0.7l0.1,0.1c-0.6-2.7-0.7-5.5,0.3-8.2c0.2-1.2,0.1-2.5,0.3-3.7c0.9-2.8,2.2-5.4,4-7.8
			c2.8-2.8,4.9-6.2,8.1-8.5c2.2-1,3.7-3.3,6.3-3.7c0.4-0.3,0.8-0.6,1.2-0.9c0-5,4.3-5.4,7.4-7.2c0.7-0.7,1.5-1.5,2.2-2.2
			c0.5-3.2,1.9-5.6,5.3-6.4c1.8-0.3,2.9-1.6,3.9-2.9c0.5-1.7,1.5-2.8,3.3-3.3c2-1.5,2.3-3.2,0.9-5.3c-3.1-0.5-4.5-2.9-6.2-5.1
			c0.1-1.4-0.7-2.2-1.8-2.8c-2.8-1.6-5.4-3.3-7.2-6.2c-1.4-2.7-3.3-1.5-4.9-0.5c-3.9,2.6-8.4,3.4-12.7,5.1c-1.1,0.4-2.5,1.2-3.5-0.3
			c1-4.3,4.6-6.7,7.6-9.3c1.1-1,2.3-1.8,3.4-2.8c4.1-4.1,4.1-4.1-0.2-8.5c-1.9-2.2-4.3-3.9-5.9-6.5c-0.3-0.3-0.6-0.6-0.9-0.9
			c-1.3-0.8-2.4-2-3.7-2.7c-2.5-1.8-5.9-2.1-7.7-5.1c-0.9-1.3-2.2-2.4-1.6-4.2c0-0.6,0.1-1.3,0.1-1.9c0.6-3.5,1.6-6.8,5.9-7.4
			C247.8,350.2,250.1,352.3,251.9,355.3z"/>
		<path class="st7" d="M262.9,460.7c0.9-0.9,1.8-1.9,2.7-2.8c4.3-1.1,6.8-3.9,8.2-8l0,0.1c2.5-1.6,4.7-3.5,6.1-6.2
			c0.7-0.6,1.3-1.2,2-1.7c4-1.3,6.6-4.2,8-8.1l0,0c1.4-0.6,2.3-1.7,3.1-3c0.5-0.7,1.1-1.4,1.6-2.1c1.4-0.7,2.3-2.7,4.3-1.8
			c-1.3,2.8,0.3,3.8,2.7,4.9c3.2,1.4,3.4,2.1,2.3,4c-1.8,1.4-3-0.6-4.4-0.9c-1.9-0.4-3.9-0.6-5.6,0.9c2.4,2.2,2.9,5,1.2,7.6
			c-1.9,2.8-4.5,5.8-8.6,4c-2.2-1-3.1-0.1-3.9,1.4c-1.4,2.7-3.8,4.7-2.9,8.5c0.7,2.9-3.4,3.9-3.8,6.6c-1.7-0.1-3.5,0.3-4.9-0.3
			c-2.1-0.9-3-0.6-4.3,1.4c-2.3,3.4-5.2,3.7-7.8,0C260.5,463.8,262.3,462.8,262.9,460.7z"/>
		<path class="st7" d="M320,454c7.3,1.3,10.4,5.2,9.1,11.4c-0.4,1.7-0.7,3.3-2.8,3.5c-2.2,0.3-3.9-0.3-4.3-2.9c-0.5-2.1-1.1-4.3-4-4
			c-4.2-2.5-4.2-4.5,0-7C318.4,454.2,318.9,453.4,320,454z"/>
		<path class="st7" d="M213,420c-0.2-2.5-6.7-3.7-1.3-7.4c1-0.7-2.5-0.7-2.1-2.9c1.9-0.3,3.5,0.2,4.5,2.2c0.9,1.7,1.6,3.6,3.9,4.1
			c1.6,6.7,1.7,13.3,0,20h0c-1,1-2,1.6-3.5,1.2c-1.2-0.3-2.4,0.7-3.6,0c-0.4-0.5-0.8-1.3-0.4-1.8C214.1,430.7,213.2,425.3,213,420z"
			/>
		<path class="st7" d="M302,446c-3.6-1.9-1.7-4.5-1-7c0.7-1.2,1.7-1.7,3-1c6.8,1.2,10.1,5.5,9.1,11.3c-0.3,1.8-0.6,3.3-2.7,3.6
			c-2.2,0.3-4-0.3-4.3-2.9C305.5,447.9,304.9,445.7,302,446z"/>
		<path class="st8" d="M258.1,379c5.6,4.8,5.6,4.8,0.6,9.8c-3.9,3.8-7.8,7.5-11.7,11.3c-0.3,0-0.7,0-1-0.1c1.7-2.7-2-6.3,1.4-8.7
			c0.5-0.4,1-0.8,1.5-1.2h0c4.4,0.3,7.5-2.4,10.2-5.2c2.3-2.5-1.5-3.8-2.2-5.8C257.4,378.6,257.7,378.6,258.1,379z"/>
		<path class="st9" d="M254,443c-3.1,2.3-4.6,6.1-7.9,8.1c-1.4,0.8-2.7,1.1-4.1,0h0c-1.9-4.4,0.2-8.7,5.1-10.3
			c1.3-0.4,2.7-0.1,3.9-0.7c2.3-0.8,3.2-6.3,7-2C256.5,439.5,255,441,254,443z"/>
		<path class="st10" d="M213,420c3.8,5.2,1,10-0.9,14.8c-0.3,0.7-0.7,1.4-1.1,2.2c0.6,0.7,0.6,1.3,0,2c-0.3,0-0.6,0-1,0
			c-2.9-6.7-4.3-13.7-4.8-21c0.3,0,0.6,0,0.8-0.1c0.7,0.3,1.3,0.7,2,1c0.8,1.6,0.7,3.3,1,5c-1.2,4.4-1,5.4,1.8,8.2
			C213,428.4,210.4,423.7,213,420z"/>
		<path class="st11" d="M239,468c-0.5,1-0.8,2.1-1.5,3c-0.8,1.1-2.1,0.5-2.6,0c-1.5-1.6,0.8-0.7,1.1-1.3c1.6-3.3-1.2-4.2-3-5.7
			c-0.9-1-0.8-2,0-3c2.2-1.5-1.1-3.1-0.1-4.6c2.1-0.6,2.7,3.3,5.1,1.6c1-0.7,1.9-2.3,3.4-0.8c0.2,1.1,0.1,2.2,0.1,3.4
			c-0.1,0.7-0.4,1.3-0.6,1.9c-1,1.3-1.2,2.9-1.1,4.5C239.6,467.4,239.4,467.7,239,468z"/>
		<path class="st12" d="M264,496.8c-0.7-0.3-1.3-0.6-2-0.9c-1.1-1.1-2.5-1.6-4-1.9l0,0c-0.6-0.7-1.5-1.1-2-2c2-2.5,3.4-5.7,7.4-5.7
			c1.4,0,3.2-0.9,4,0.7c1,2.1-1.8,1.8-2.4,3c0.3,1.1,1.2,2,1,3.2c-0.2,1.2-1.2,1.9-1.9,2.8C264,496.3,264,496.5,264,496.8z"/>
		<path class="st13" d="M251,440c-0.2,1.3-1.2,1.8-2.4,2.1c-4.7,1.1-6.8,4.2-6.6,8.9c-4.7-2.3-5-3.4-2-8c1.6-0.4,2.6-1.4,3-3
			C245.7,437.4,248.3,437.4,251,440z"/>
		<path class="st14" d="M229,349c2.4-2.7,4-6.7,8.8-6c1.3,0.2,3.4-1.3,3.7,0.9c0.3,2.2-1.4,3.1-3.5,3.1c-0.7,0-1.3,0-2,0
			c-0.5,0.7-1.1,1.1-2,1c-1.8,1.6-2.3,5.3-6,4C226.9,350.5,227.7,349.7,229,349z"/>
		<path class="st15" d="M276,464c5.2,0.5,5.8-3.6,7-7.2c1.1,3.4,2.1,6.7-0.5,9.5c-2.7,2.9-6.3,1.6-9.7,1.2
			C273.2,465.5,276.1,466.1,276,464z"/>
		<path class="st16" d="M267.7,430c-1.6,3.2-5.4,4.3-7.4,7.2c-1.7-1-0.3-2.9-1.3-4.2c-1.8-1.8-1.3-3.6,0.1-5.4c2-2,4.2-3.1,6.9-1.6
			C265.8,427.6,264.8,429.6,267.7,430z"/>
		<path class="st17" d="M351,477c-0.2-1.4-3.5-2-1-4c-0.3-0.5-0.3-1,0.2-1.5c2.1-1.1,4.2-0.6,6.2,0c4.4,1.4,5.1,4.1,2.4,8.1
			c-1.3,1.4-2.6,1.2-3.9,0.1c-0.4-0.3-0.7-0.5-1.1-0.8C352.8,478.3,351.9,477.7,351,477z"/>
		<path class="st18" d="M217.4,392.5c0.9,3.1,0.6,5.9,0.4,8.7c-0.2,2.3-1.9,3.2-3.9,2.7c-2.8-0.6-1.4-2.3-0.7-3.8
			C214.5,397.6,213.7,394.3,217.4,392.5z"/>
		<path class="st18" d="M218,436c0-6.7,0-13.3,0-20c0.6-1.6,1.6-2.1,1.8,0c0.6,6-0.3,12.1,0.6,18.1C220.7,435.4,219.2,435.8,218,436
			z"/>
		<path class="st19" d="M275.2,421.4c-0.8,2.9-3.3,4.5-5.3,6.4c-2.6-2-2.3-4.3-0.2-6.2C271.2,420.2,273.3,418,275.2,421.4z"/>
		<path class="st14" d="M325,492c-1.1-0.1-2.5,0-2.7-1.5c-0.1-1.4,0.9-2,2.1-2.3c0.6-0.2,1.3-0.3,1.9-0.4c1.7-0.4,4.1-1.7,4.9,0.2
			c1.2,2.8-2.5,1.6-3.4,2.9c-0.3,0.4-0.6,0.8-0.9,1.2C326.3,492.6,325.7,492.6,325,492z"/>
		<path class="st20" d="M216,386c0-2.4,0.3-4.8-1-7c0.1-0.6,0.4-0.9,1-1c2.3,0,1.7-3.1,4.2-3.5c0.2,4.6-2.7,8.5-2.7,13
			c0,1-1.2,0.5-1.4-0.5c-0.3-0.2-0.4-0.4-0.3-0.7C215.8,386.1,215.9,386,216,386z"/>
		<path class="st14" d="M304,438c-1,0.3-2,0.7-3,1c-2-1.9-3.9-3.7-7-3c3.9-4,5.9-4,10,0C304,436.7,304,437.3,304,438z"/>
		<path class="st13" d="M266,426c-2,0.7-4,1.3-6,2c-0.2-0.1-0.4-0.2-0.6-0.3c-1-1.1-0.8-2.4-0.5-3.7c1.9-1.9,4.1-2.6,6.5-1.1
			C266.9,423.7,267.2,424.8,266,426z"/>
		<path class="st21" d="M233,461c0,1,0,2,0,3c-0.2,1.2,0.6,3-1.2,3.3c-1.7,0.2-1.6-1.6-1.9-2.8c-0.1-0.5-0.3-0.9-0.4-1.4
			c-0.4-1.4-2.2-3.1-0.2-4.3C231.4,457.5,231.7,460.3,233,461z"/>
		<path class="st21" d="M302,446c1.3-2,3.1-2.8,5-1.1c2.1,1.9,0.5,3.6-1,5.1C303,450.3,301.7,449,302,446z"/>
		<path class="st21" d="M318,462c1.3-2,3.1-2.8,5-1.1c2.1,1.9,0.5,3.6-1,5.1C319,466.3,317.7,465,318,462z"/>
		<path class="st13" d="M260,428c-0.9,1.6-1.1,3.2-1,5c-1.2,1.2-2.4,2.4-3.9,0.4c-1.9-2.4-0.9-4.5,0.9-6.4
			C257.5,426.5,258.9,426.7,260,428L260,428z"/>
		<path class="st22" d="M218.2,457c-1.5-2-2.8-4.2-3.6-6.7c2-0.2,3.5-0.9,3.3-3.3c-0.2-0.2-0.3-0.4-0.2-0.7c0.1-0.2,0.2-0.3,0.2-0.3
			c3.8,0.6,2.8,3.6,3,6l0,0C215.5,451.1,219.7,455.6,218.2,457z"/>
		<path class="st23" d="M251.9,355.3c-6.3-5.1-9.6-4.4-13.7,2.8c-1.1-1.3,0.2-2.7-0.1-4c1.1-3.4,3.8-4.5,7-5c1.6,0,3.1,0.4,4,2
			C250.4,352.1,252.5,352.8,251.9,355.3z"/>
		<path class="st24" d="M239.8,482.1c-1.4-0.8-3.2-1.2-3.8-3.1c2.3-0.3,4.7-0.7,7-1c0.9-0.2,1.2,0.1,1,1
			C244.9,483.1,241.5,481.5,239.8,482.1z"/>
		<path class="st25" d="M350,472c0,0.3,0,0.7,0,1c-1.9,0.3-3.9,0.9-5.8,0.9c-1,0-3.1,1.6-3.1-1.4c0-2.6,1.8-1,2.7-1.5
			c0.7-0.4,1.5-0.7,2.2-1c0.8-0.6,1.6,0,2.4,0.2C349.2,470.5,349.8,471.1,350,472z"/>
		<path class="st26" d="M252.8,491.2c-3.5-1.4-6.5-3.4-9.1-6.1c2-0.3,3.5,0.5,4.8,1.9c1,1.1,2.1,2.1,3.8,1.4
			c0.9-0.4,2.2-0.5,2.5,0.6C255.3,490.4,253.2,490.1,252.8,491.2z"/>
		<path class="st14" d="M317.6,497.1c-1.7,0.2-1.5-1-1.5-1.9c-0.1-1.6,0.3-3,2.3-3c1.2,0,2.5,0.1,2.3,1.7
			C320.5,495.6,319,496.5,317.6,497.1z"/>
		<path class="st27" d="M207,384c-0.1-3.7,1.2-7.1,2.8-10.3c1.5,1.4,1.2,2.8,0.2,4.3C209.2,380.1,212.9,384.4,207,384z"/>
		<path class="st28" d="M241,457c-1.1,0.1-1.6,2-3,1c0-1,0-2,0-3c-0.6-0.7-0.5-1.3,0-2c1.3-0.3,2.7-0.7,4-1c1.6,1.4,0.4,3.1,0.4,4.7
			C242,457.3,241.6,457.4,241,457z"/>
		<path class="st29" d="M304.3,503.1c-7,1.5-13.8,0.5-20.6-1c5.9-1,11.6,1.5,17.4,0.7C302.2,502.5,303.3,502.2,304.3,503.1z"/>
		<path class="st21" d="M320,454c-0.7,0.3-1.3,0.7-2,1c-1.5-2.1-6.7-3.1-2-7c1.6,1.1,2.9,2.4,4,4C320,452.7,320,453.3,320,454z"/>
		<path class="st8" d="M249,390c-1.2,0.1-2.3,0.1-3.5,0.3c-1.4,0.3-2.9,0.6-3-1.3c0-1.7,1.6-2.2,2.9-1.8
			C246.9,387.7,249.6,386.9,249,390L249,390z"/>
		<path class="st30" d="M234,348c0.7-0.3,1.3-0.7,2-1c1.2,1.1,2.2,2.7,4,3c0.6,1.8-1.3,2-2,3C235.8,352,233.7,351,234,348z"/>
		<path class="st31" d="M240,364c2.3,2.3,6.5,1.5,8.1,4.9c-0.4,0.4-0.9,0.6-1.4,0.7c-1.4,0.6-2.6,0.3-3.7-0.7
			c-1.1-1.3-3-1.9-3.1-3.9c-0.3-0.2-0.4-0.5-0.3-0.7C239.8,364.1,239.9,364,240,364z"/>
		<path class="st32" d="M355,478c1,0.7,1.6,1.9,3,2c0.5-0.4,0.9-0.4,1.2,0.1c-1.3,1.9-3,3.3-5.1,4.2c0.3-1.4,1.2-2.9-1.2-3.3
			c-1-0.2-2.5-0.1-1.9-2C352.2,478.1,353.7,478.6,355,478z"/>
		<path class="st33" d="M214,436c1.3,0,2.7,0,4,0c0,1.7,0,3.5,0,5.4c-2.7-0.4-3-2.2-4-3.4C213.4,437.3,213.4,436.7,214,436z"/>
		<path class="st34" d="M304.3,503.1c-1.1-0.1-2.1-0.2-3.2-0.3c5.7-0.7,11.3-2.3,17.1-1.8C313.7,502.6,309,503.3,304.3,503.1z"/>
		<path class="st10" d="M268,398c0.2,3.6-2.1,4.2-5,4l0,0C262.5,398,265.1,397.8,268,398L268,398z"/>
		<path class="st35" d="M246,471c1.1,0.4,3.8-0.5,2.7,2c-1,2.5-3.4,2.1-5.5,1C243.1,471.9,245.9,472.7,246,471L246,471z"/>
		<path class="st36" d="M244,479c-0.3-0.3-0.7-0.7-1-1c0-0.2,0.1-0.3,0.1-0.5c1.1-2.2,2.9-1.6,4.6-1.2c0.8,0.2,0.8,1,0.5,1.6
			C247.3,480,245.6,479.2,244,479z"/>
		<path class="st37" d="M325,492c0.7,0,1.3,0,2,0c0.9,2.2,4.3-1.6,4.5,2c0.1,0.7-0.4,1.3-1.1,1.3C327.9,495.3,325.9,494.6,325,492z"
			/>
		<path class="st38" d="M238,396.4c-1.7,0.2-1.9-0.8-1.9-1.9c0-1,0.2-2.1,1.5-2.2c1.1-0.1,1.9,0.6,2.1,1.7
			C240,395.5,238.8,396,238,396.4z"/>
		<path class="st7" d="M320,452c-2.3-0.4-3.6-1.7-4-4c3-1.1,3.9,2.2,5.9,3.1C322.6,451.5,320.7,451.7,320,452z"/>
		<path class="st39" d="M260,428c-1.4,0-2.9,0.2-4-1c-0.1-2.1,0.9-3.1,3-3C260.2,425.1,260,426.6,260,428z"/>
		<path class="st14" d="M221,452c0.2-0.1,0.3-0.1,0.5-0.2c1.5-0.3,3.3-1.1,4.2,1c0.4,0.9,0,1.7-0.9,1.9
			C222.5,455.2,221.3,454.1,221,452C221,452,221,452,221,452z"/>
		<path class="st40" d="M214.7,450.3c-1.7-2.9-3.5-5.8-3.9-9.3C214.8,443,214.4,446.8,214.7,450.3z"/>
		<path class="st12" d="M210,378c-0.1-1.4-0.1-2.9-0.2-4.3c-0.1-0.3-0.1-0.5,0.2-0.7c0.6-0.9,1.1-1.9,2.5-1.4
			c0.2,0.1,0.3,0.3,0.5,0.4C212.3,374.1,213.5,377.3,210,378z"/>
		<path class="st41" d="M268.1,395.7c2.9,1.4,5.3,3.5,7.2,6.2c-3.2,0.1-4.9-2.5-7.2-3.9c0,0,0,0,0,0
			C268,397.2,268.1,396.5,268.1,395.7z"/>
		<path class="st39" d="M243,440c1.1,1.1,1.1,2.3-0.1,3.3c-1,0.9-2,0.7-2.9-0.3C239.9,440.9,240.9,439.9,243,440z"/>
		<path class="st42" d="M229,349c-0.3,1-0.7,2-1,3c-3.4-0.9-1.8-4.2-3-6.1c0-0.3,0.1-0.6,0.3-0.9C226.5,346.4,227.7,347.7,229,349z"
			/>
		<path class="st13" d="M242,456.9c0-1.6,0-3.3,0-4.9c0-0.3,0-0.7,0-1c1.4,0,2.7,0,4.1,0c-1.3,2.4-2.7,4.7-4,7.1
			C241.5,457.8,241.5,457.4,242,456.9z"/>
		<path class="st43" d="M216,378c-0.3,0.3-0.7,0.7-1,1c-1.7-2.1-0.7-4.7-1-7c0.7-0.5,1.3-0.5,2,0C216,374,216,376,216,378z"/>
		<path class="st44" d="M277.1,404.7c2.9,0.6,4.1,3.5,6.2,5.1c-1.1,0.6-2.1,0.7-3.3,0.1l0,0C279.2,408.2,276.9,407.2,277.1,404.7z"
			/>
		<path class="st27" d="M205.3,398.1c-0.1-0.4-0.3-0.9-0.4-1.3c0.1-1.3,0.2-2.5,0.3-3.8c0.5-0.5,1.1-0.9,1.9-1c0.8,0,1.4,0.4,1.9,1
			C206.5,393.8,208.7,398,205.3,398.1z"/>
		<path class="st45" d="M213.9,365.7c0-0.5,0-1.1,0-1.6c3.3,1.3,2.4,4.5,3.1,6.9C213.1,370.9,213.1,368.5,213.9,365.7z"/>
		<path class="st12" d="M213.9,365.7c0.4,2.1,1.1,4.1,3.1,5.3c-0.3,0.3-0.7,0.7-1,1c-0.7,0-1.3,0-2,0c-0.3,0-0.7,0-1,0c0,0,0,0,0,0
			c-1.4-1.7-1-3.4,0-5.1C213.3,366.5,213.6,366.1,213.9,365.7z"/>
		<path class="st7" d="M335,464c-0.3,1.2-0.1,2.6-1.2,3.6c-2.1-1.1-2.3-3.1-1.3-4.6C333.4,461.6,333.7,464.6,335,464L335,464z"/>
		<path class="st46" d="M239,468c0-0.3,0-0.7,0-1c0.4-1.7-0.1-3.5,1-5c0.3-0.3,0.7-0.7,1-1c0.4,0.2,0.7,0.5,0.7,1
			c-0.5,2.7-1.1,5.4-1.6,8.1C239.7,469.3,239.4,468.7,239,468z"/>
		<path class="st14" d="M263,402c-1,2.9-3.1,2-5.4,1.6C259,400.8,261.1,401.8,263,402C263,402,263,402,263,402z"/>
		<path class="st7" d="M209,424c-1.6-1.4-2.2-3-1-5C210.9,420.2,211.8,421.7,209,424z"/>
		<path class="st47" d="M247,469.2c3.3-0.9,6.8-0.8,9.9-2.6C254.3,470.1,250.8,470.4,247,469.2z"/>
		<path class="st48" d="M342.2,492.1c-0.8,1.1-1.9,1.5-3.2,1.8c-0.8-0.9-1.7-1.9-2.5-2.8C338.4,491.9,340.9,489.4,342.2,492.1z"/>
		<path class="st14" d="M265,493c-0.4-1-1.2-2,0-3c2.1-0.1,4.1,0.1,4,3C267.7,493.8,266.3,493.8,265,493z"/>
		<path class="st16" d="M254,443c0-2.7,1.2-4.5,4-5c0.4,0,0.7,0,1.1,0C258,440.3,256.2,441.8,254,443z"/>
		<path class="st0" d="M238,353c0.1-1.4,1.3-2,2-3c0,0,0,0,0,0c1.7-1,3.3-2.8,5,0c-2.4,1.2-5,2-7,4C238,353.7,238,353.3,238,353z"/>
		<path class="st38" d="M237,368c3,2,1.2,3.1-0.4,4.7c-1.6-1.9-0.2-3.3-0.6-4.7C236.3,367.5,236.7,367.5,237,368z"/>
		<path class="st49" d="M207,393c-0.6,0-1.2,0-1.8,0c-0.4-2.6,0.5-4.9,1.8-7.1c0.1,1.1,0.1,2.3,1,3.1
			C209.1,390.7,207.9,391.8,207,393z"/>
		<path class="st50" d="M243,369c1.3,0,2.7,0,4,0c0.4,0.2,0.5,0.4,0.4,0.6c-0.1,0.2-0.2,0.3-0.4,0.3C245,372.5,243.4,373,243,369z"
			/>
		<path class="st51" d="M258.1,379c-0.4,0-0.7,0-1.1,0c-2.1-1.7-4.5-3.1-5-6.1C254.3,374.6,256.3,376.7,258.1,379z"/>
		<path class="st52" d="M348,471c-0.7-0.3-1.3-0.7-2-1c-2-0.3-4-0.7-6-1c-0.1-0.9,0.1-1.4,1.2-1.1c2.2,1.1,4.6,0.8,6.8,1.2
			C348.6,469.7,348.5,470.4,348,471z"/>
		<path class="st53" d="M251.9,480c-0.1,0.7-0.2,1.4-1,1.4c-1,0-1.6-0.7-1.3-1.6c0.1-0.5,0.8-1.1,1.3-1.2
			C251.7,478.5,251.8,479.3,251.9,480z"/>
		<path class="st54" d="M265,493c1.3-0.8,2.7-0.1,4,0c-1.5,1.3-2.9,2.7-4.9,3C264.4,495,264.7,494,265,493z"/>
		<path class="st30" d="M280,410c0,1.2,1,2.7-1,3.3c-0.7,0.2-1.4-0.2-1.5-0.9C277.2,410.5,278.7,410.3,280,410
			C280,410,280,410,280,410z"/>
		<path class="st25" d="M341.2,467.9c-0.4,0.4-0.8,0.7-1.2,1.1c-3.1,1.1-1.8-2.2-3-3c0.4-0.6,0.7-0.6,1.1,0
			C339.6,466,340.5,466.8,341.2,467.9z"/>
		<path class="st55" d="M238,453c0,0.7,0,1.3,0,2c-0.7,0.2-1.1,1.7-1.9,0.6c-0.5-0.7-0.8-2-0.5-2.7C236.2,451.7,237.2,452.3,238,453
			z"/>
		<path class="st56" d="M225.4,353.3c0.8,0,1.3,0.4,1.3,1.2c0,0.7-0.5,1.2-1.3,1.1c-0.4-0.1-0.9-0.5-1-0.9
			C224.2,354,224.6,353.5,225.4,353.3z"/>
		<path class="st57" d="M299,427.1c-1.4,0.6-2.9,1.2-4.3,1.8c1.5-1.6,2.3-5.5,5.6-1.9C299.8,427,299.4,427,299,427.1z"/>
		<path class="st26" d="M256,492c1.2,0.2,1.9,0.8,2,2c-2-0.4-3.7-1.3-5.2-2.8C253.9,491.5,254.9,491.7,256,492z"/>
		<path class="st58" d="M262.9,460.7c-0.1,2.6-1.6,3.9-3.9,4.4c-0.3,0-0.6-0.1-0.9-0.1C259.7,463.6,261.3,462.1,262.9,460.7z"/>
		<path class="st30" d="M237,368c-0.3,0-0.7,0-1,0c0-1.3,0-2.5,0-4.3C238.1,365.2,239,366.3,237,368z"/>
		<path class="st12" d="M216,386c0,0.3,0,0.7,0,1c-0.9,0.3-1.8,1.1-2.6,0c-0.2-0.2-0.2-0.7,0-0.9C214.2,384.9,215.1,385.7,216,386z"
			/>
		<path class="st59" d="M355,478c-0.7,2.9-2.4,1.6-4,1c0-0.3,0-0.7,0-1C352.3,477.1,353.7,477.2,355,478L355,478z"/>
		<path class="st60" d="M240,469.9c2.1,0.2,4.1-0.1,6-0.7c0,0.6,0,1.2,0,1.8c0,0,0,0,0,0C244,470.8,241.8,471.6,240,469.9z"/>
		<path class="st61" d="M214,436c0,0.7,0,1.3,0,2c-1,0.3-2,0.7-3,1c0-0.7,0-1.3,0-2C212,436.7,213,436.3,214,436z"/>
		<path class="st62" d="M240,364c0,0.3,0,0.7-0.1,1c-1.5-1.4-3.5-2.5-1.9-5.1C238.7,361.3,239.3,362.7,240,364z"/>
		<path class="st63" d="M207,393c0.3-1.3,0.7-2.6,1-4c1.3,1.1,1,2.6,1,4C208.3,393,207.7,393,207,393z"/>
		<path class="st64" d="M338.2,465.9c-0.4,0-0.8,0-1.1,0c-0.7-0.7-1.3-1.3-2-2c0,0,0,0,0,0c0-0.7,0-1.4,0-2.2
			C336.6,462.8,337.9,463.9,338.2,465.9z"/>
		<path class="st65" d="M224.8,466.5c-1.2-1-2.2-2-2.6-3.6C225.4,462.4,224.5,464.9,224.8,466.5z"/>
		<path class="st66" d="M247,370c0-0.3,0-0.6,0-0.9c0.4,0,0.7-0.1,1.1-0.1c1,1,2,2,2.9,3C249.4,372,248.3,370.7,247,370z"/>
		<path class="st63" d="M211.2,386.2c0.1,0.9,0.3,1.4,0.2,1.7c-0.2,0.4-0.6,0.7-0.9,1c-0.1-0.5-0.4-0.9-0.3-1.3
			C210.2,387.2,210.7,386.9,211.2,386.2z"/>
		<path class="st67" d="M282.4,415.1c-1.1,1.1-2.2,2.2-3.3,3.3C279.1,416.2,280.1,415.1,282.4,415.1z"/>
		<path class="st68" d="M214.8,360.9c0.5-1.2,0.9-2.5,2-3.3C217,359.2,216.9,360.7,214.8,360.9z"/>
		<path class="st32" d="M355,478c-1.3,0-2.7,0-4,0c0-0.3,0-0.7,0-1C352.6,476.2,353.9,476.6,355,478z"/>
		<path class="st69" d="M218,446c0,0.3,0,0.7,0,1c-0.6,0.1-1.3,0.7-1.7-0.2c-0.1-0.2-0.1-0.7,0.1-0.9
			C216.9,445.1,217.5,445.5,218,446z"/>
		<path class="st0" d="M314.2,409.1c2.8-4.7,8.7-6.6,10.9-11.7c0.8-2.5,3.3-2.9,5-4.3c3.7,1.5,6.1,5.3,10.6,5.1
			c0.4,0.2,0.8,0.3,1.2,0.5c1.9,1,3.9,1.8,6.1,1.6c0.4,0.2,0.8,0.4,1.1,0.7c0.2,0.1,0.4,0.3,0.6,0.4c-0.2-0.1-0.4-0.2-0.7-0.4
			c-2.5-1.8-4.9-3.7-6-6.7c-0.8-0.8-1.5-1.5-2.3-2.3c-1.3-1.3-2.9-2.2-3.5-4.1c0.5-2.6,0.2-5.4,0.7-8l0,0c3.1-2.2,6.3-4.1,8.4-7.5
			c1.8-2.8,4.8-4.8,7.7-6.5c5-4.4,5.3-6.5,1.9-12.7c-0.4-1.1-1.4-1.5-2.3-2c-0.9-0.7-1.9-1.1-2.7-1.9c-0.8-1.1-1.9-2.2-1-3.8
			c5-1.2,10-2.5,15,0c0.6,0.4,1,0.9,1.2,1.5c0.1,0.3,0.3,0.6,0.4,0.9c0.2-0.4-0.1-0.7,0-1.1c0.5-1.2,1.2-2,2.4-2.5
			c2.9-0.5,2.9,3,4.9,3.6c2.6,4.7,6.6,8.5,8.2,13.8c0.6,1.4,0.9,3,2,4.2c2.2,3.6,3.3,7.6,4.1,11.7c0.6,1.3,0.5,2.4-1.2,2.7
			c-1.3-0.4-1.7-2.3-3.6-2c1.5,0.2,2.6,1,3.3,2.3c1.1,3.2,0.1,5.6-2.4,7.7c-4,0.8-2.7-2.6-3.4-4.3c-0.2,3.9,3.9,6.8,2.6,11.1
			c-0.1,2.1-2.1,4-0.4,6.1c0.4-0.1,0.8-0.1,1.3-0.1c1.7,0.3,3.1,1.2,4.6,1.9c0.4,0.3,0.7,0.7,1,1.2c0.6,1.6,0.4,3-1,4.2
			c-1.2,0.8-2.8,0.3-4.2,1.2c1.4,1.6,3.4,0.1,4.7,1.4c2.3,3.5-2.8,4.8-2.2,7.8c0.6,3.3,1.9,6.8-1.5,9.5c-1.4,0-1.8-0.9-2.2-1.9
			c-0.1-0.1-0.1-0.2-0.1-0.2c-0.6,0.4-0.1-0.3,0.1,0.3c0.1,0.7-0.6,0.3,0.1,0.4c3.3,4.8,1.5,10,1.5,15.1c-1.1,4.2-2.8,8.2-4.9,12.1
			c-0.9,1-1.5,2.4-3.1,2.6c-0.7-0.1-1.3-0.4-1.8-0.8c-0.8-1.1-1.9-1.4-3.2-1c-1.5,0.1-2,1.2-2.3,2.4c-1.9,2.1-0.8,4.1,0.1,6.1
			c0,2.4-0.6,4.5-2.7,5.8c-1.3,0.8-1.5,2-1.7,3.2c-2.1,3.7-3.4,3.9-6.1,1.2c-2.7-2.7-3-7-0.5-9.9c1.4-1.6,0-3.8,0.8-4.7
			c-0.4,0.6-1.2,1.9-3.1,1.1c-0.4-0.3-0.7-0.6-1-1c-0.7-1.8-0.8-3.7-1.5-5.5c-1.5-2.4-1.7-6.1-5.9-5.7c-2-0.9-3.1-2.8-4.9-3.9l0,0
			c-0.5-0.5-0.8-1.2-0.9-1.9c1.3-3.8,0.3-7.5-0.3-11.2c-0.5-2.9-2.5-4.6-5.5-4.7c-1.5-0.1-3,0.3-4.4-0.5c-1.7-1.6-1.7-3.1,0.6-4.5
			c-2.6,1.3-1.9,3-0.9,4.7c0.3,0.7,0.3,1.4,0.1,2.1c-0.4,0.7-0.9,1.1-1.7,1.2c-0.8-0.2-1.7-0.2-2-1.2c-1.8-0.9-2.9-2.5-4.4-3.8
			c-1.5-1.6-3.3-3-4.4-4.9c-1.1-1.8-2.3-3.6-4-4.9C313.4,412.7,313.2,411.1,314.2,409.1z"/>
		<path class="st70" d="M337,320c-0.6,0.7-1.5,1.4-1.8,2.2c-1.1,3-1.8,4.3-4.2,0.6c-1.2-1.8-4.3-2.1-6.8-1.4c-2.4,0.7-4.8,0.9-7.3,0
			c0-2.2,2.2-0.9,3.1-2.3c-6.1-1.8-3.5-4.7-0.8-7.5c2.5-1.5,4.2,0.5,6.3,1.2c4.3,1.4,8.7,2.6,12.8,4.8
			C338.6,318.9,338.8,320,337,320z"/>
		<path class="st15" d="M369,345c-0.1,1.2-0.8,1.9-2,2c-1.3,0.9-1.1-1-2-1c-0.6,0.7-1.2,1.4-1.9,2.1c-3.7-5.1-8.8-1.2-13.1-2.1
			c-3.2,1.5-3.3-1.2-4-3c-0.8-0.8-1.2-1.7-0.5-2.6c0.9-1.1,1.7-0.5,2.4,0.4c1.2,1.5,3.2,1.7,4.8,2.5c1.1,0.6,2.3,0.9,3.1-0.3
			c0.5-0.6,1-1.5,0.9-2.2c-0.3-1.9-1.9-0.4-2.9-0.8c-0.6-0.2-1.2-0.4-2.2-0.8c1.2-1.8,3.5-0.7,4.4-2.2c-0.5-2.1-0.9-4.3,0.1-6.4
			c0.7-0.3,1.3-0.2,1.8,0.4c3.4,4,8.1,6.5,11.2,10.9C369.5,343,369.8,344,369,345z"/>
		<path class="st71" d="M384,388c0.7-2.7,1.3-5.3,2-8c1.3-0.2,1.9-1,2.1-2.3c1.8,3.2,2,6.8,2.6,10.3c-0.3,0.8-0.1,1.7-0.5,2.5
			c-0.3,1.9-0.7,3.8,0.9,5.4c0.6,1.5,0.2,3,0.3,4.6c-0.4,1.9-2.8,1.8-3.5,3.5c-1.6-0.2-3-0.8-4-2C381.5,397.3,382.8,392.7,384,388z"
			/>
		<path class="st72" d="M356,459c3.5,0.7,2.6-2.2,3-3.8c0.3-1.1,0-2.8,1.5-2.7c1.9,0.1,1.6,1.9,1.4,3.2c-0.4,2.8-1.1,5.5-0.9,8.4
			c0,0.6,0.7,2.3-1.4,1c-1.8-1.1-1.5,1-1.5,1.9c0,3.1,1.6,5.5,4,7c1.4,0.9,1.7-1,1.9-2c1.5-2.1,2.7-4.7,6-4.3
			c0.3,0.3,0.4,0.6,0.3,0.8c-0.1,0.3-0.2,0.4-0.2,0.4c-3.1,4.2-6.4,8.2-10.8,11.1c-0.4,0-0.8-0.1-1.2-0.1c2.5-5.3,0.1-7.7-8-8
			c-0.7-0.3-1.3-0.7-2-1c0-0.6,0-1.3,0-1.9c0.6,0.1,1.3,0.2,1.9,0.3c1.9,1.1,3.9,1.7,6.1,0.6l-0.1,0.1c1.3-1.9,0.3-3.8-0.1-5.7
			C355.5,462.5,355.1,460.7,356,459z"/>
		<path class="st73" d="M370,468c-2.4,0.8-3.4,3.5-6,4c-0.7-4.3,5-5.1,5-9c-1-2-0.5-4,0-6c-0.7-1.4-2.3-2.7-0.6-4.3
			c1.7-1.5,2.5,0.6,3.6,1.3c1.6-0.8,3-0.7,4,1c0.3,0.3,0.7,0.7,1,1c0.8,1-0.2,2.1,0.1,3.1c-0.3,0.3-0.7,0.6-1,1
			c-0.9,0.9-1.5,2.1-2.6,2.8C371.5,464,372.2,467,370,468z"/>
		<path class="st74" d="M385,428c2.1-3.3,0.7-6.7,0-10c1.7-1.5,3.4-1.5,5.2-0.1c0.6,0.6,0.8,1.4,1,2.2c-1.1,3.5,0.1,7.5-2.1,10.9
			c-0.1,0.1-0.2,0.3-0.3,0.4c-0.7,1.3-0.4,3.7-2.5,3.5c-1.8-0.2-1.1-2.4-1.4-3.7C384.7,430.1,384,429,385,428z"/>
		<path class="st22" d="M385,428c0.4,1.9,0.9,3.7,1.3,5.8c1.6-0.3,1.5-2.3,2.7-2.8c0,4.2-2.3,7.5-4,11c-1.3-2.2-2.1-4.3-1.1-7
			c1.3-3.3-1.9-5.9-1.9-9c0.6-0.5,1.2-1,2-1C385,425.8,385,426.9,385,428z"/>
		<path class="st75" d="M391,401c-0.1-1.7,0.4-3.5-1-5c-0.8-0.9-0.5-1.8-0.4-2.8c0.4-0.4,0.8-0.5,1.3-0.2c1.8,5.2,1.3,10.6,1,16
			c-0.5,0.3-1,0.2-1.4-0.2c-0.8-1.2-0.4-2.6-0.5-4C389.8,403.4,389.8,402,391,401z"/>
		<path class="st76" d="M391,409c0.3,0,0.6,0,0.9,0c0.1,3.7,0.6,7.5-0.8,11.1c-0.4-0.4-0.8-0.7-1.2-1.1
			C388.3,415.4,390,412.3,391,409z"/>
		<path class="st77" d="M370,468c1.3-1.9-0.1-5.1,3.1-6c0.8,0.5,0.5,1.4,0.8,2c-0.9,1.9-2.2,3.6-3.8,5C370,468.6,370,468.3,370,468z
			"/>
		<path class="st78" d="M310,309.2c-3.1,3.8-6.6,1.5-10,0.8c2.9-1.3,6.1,0.2,9-0.9C309.3,309.2,309.7,309.2,310,309.2z"/>
		<path class="st79" d="M337,320c0.4-0.7,0.8-1.5,1.1-2.2c1.8-0.3,2,1.5,2.9,2.3C339.6,322.9,338.3,322.8,337,320z"/>
		<path class="st80" d="M369,345c-0.6-1-0.5-2.1,0.1-3.1c2.2,1.6,3.5,3.8,4.8,6.1C371.6,348,371.1,345.2,369,345z"/>
		<path class="st81" d="M377.1,459.1c-1.3-1-0.5-2-0.1-3.1c1-0.7,2-1.3,3.1-2C379.5,456,378.6,457.7,377.1,459.1z"/>
		<path class="st82" d="M309,309.1c-2.9,1.7-6,0.5-9,0.9c0.7-0.3,1.4-0.7,2-1c1.7,0,3.4-0.1,5.1-0.1C307.8,309,308.4,309,309,309.1z
			"/>
		<path class="st83" d="M354.2,328.9c-1.3-1.4-4.9-0.6-4.1-4.1C352,325.6,354.1,326.3,354.2,328.9z"/>
		<path class="st83" d="M357.9,331c-0.6,0-1.3,0-1.9,0c-0.3,0.4-0.7,0.4-1,0c-0.3-0.7-0.6-1.5-0.9-2.2
			C356.1,328.4,357.3,329.1,357.9,331z"/>
		<path class="st84" d="M258,494c2.1-0.9,3.4-0.3,4,1.9C260.4,495.8,259.1,495.1,258,494z"/>
		<path class="st85" d="M373.8,464c-0.3-0.7-0.5-1.3-0.8-2c1-0.7,2-1.3,3.1-2C376,461.7,375,462.9,373.8,464z"/>
		<path class="st86" d="M384,366c-1.7-0.9-2.1-2.5-2-4.2C383.2,363,383.8,364.4,384,366z"/>
		<path class="st87" d="M390.9,393c-0.3,0-0.6,0-0.9,0c-0.7-1-0.7-2,0-3c0.2-0.7,0.5-1.3,0.7-2C391,389.7,391.7,391.3,390.9,393z"/>
		<path class="st88" d="M314.1,375.9c3.1,2.3,3.2,4.8,0.5,7.3c-1.8,1.7-3.1,3.9-5.5,4.8c-1.8-1.4-3.2-1-4.6,0.6
			c-1.2,1.4-2.4,2.8-4.4,1.3c-2.9-2.4-1.9-5.6-1.8-8.7c0.4,0.1,0.9,0.1,0.9,0.3c0.8,1.5-0.5,4.7,1.7,4.5c2.6-0.1,2-3.2,2.2-5.3
			c0.2-2.5-0.2-4.9-1.8-7c-0.9-1.2-2-2.9-0.5-3.9c1.7-1.2,2.1,1.5,3.3,2.1c0.2,0.1,0.4,0.1,0.7,0.2c2.2,1.5,3.8,3.4,5.1,5.6
			c0.5,0.8,1.2,2.4,2.2,0.3c0.1-0.4,0.3-0.8,0.5-1.2C312.9,376.3,313.4,375.9,314.1,375.9z"/>
		<path class="st15" d="M328,373c-2.2-4.9-3.6-10.2-10.1-11.6c-1.4-0.3-2.3-2.9-3.2-4.7c4.4,2.1,9.8,0.9,13.5,5.6
			c2.1,2.6,0.4,5.8,2.8,7.7C330.9,371.9,329.9,372.9,328,373z"/>
		<path class="st15" d="M349,352c-2.4,1.6-4.1,3.5-5.1,6.4c-1.3,3.8-4.9,6-7.8,8.7c-1.6,0.3-2.2,2.5-4.2,1.9
			c0.2-1.7,1.2-2.6,2.7-3.1c1.9-0.6,3-1.9,3.3-3.9c0-0.2,0-0.4,0-0.6c0.2-1.3,1.2-2.1,1.8-3.2c0.4-0.5,0.9-0.7,1.2-1.2
			c0.1-1.3,0.8-2.7,0-4c0-3.5,1.9-4.8,5.2-4.4c0.5,0,1.1,0.1,1.6,0.3c0.7,0.4,1.3,0.9,1.6,1.7C349.5,351.1,349.4,351.6,349,352z"/>
		<path class="st18" d="M309.7,320.4c-0.2,1.3-1.1,1.6-2.1,1.6c-3.3-0.1-6.5,0.1-9.5,1.9c-0.8,0.5-2.5,0.6-3.1-0.5
			c-0.7-1.3,0.8-2,1.6-2.7c3.3-3,6.7-5.4,11.3-2.1C309.1,319.4,309.8,319.6,309.7,320.4z"/>
		<path class="st89" d="M332,369c1.4-0.7,2.4-2,4.2-1.9c-9,10.4-9,10.5-18.5,1.2c-1.5-1.5-3.9-2-4.5-4.3c4.4-0.5,6,3.1,8.4,5.6
			c1.8,1.9,3.1,4.3,6.4,3.5c1-1,2-2,3-3C331.3,369.7,331.7,369.3,332,369z"/>
		<path class="st73" d="M259,357c1.2-0.5,2.3-1.2,3.6-1.5c1.1-0.3,2.4,1,1.8,1.5c-4,3.3,0,6.8-0.4,10.1c0.1,0.5-0.3,1.3-0.6,1.1
			c-3.2-1.8-5.9-4.3-7.5-7.6C254.4,357.4,257.1,357.3,259,357z"/>
		<path class="st7" d="M348,350c-0.3,0-0.7,0-1,0c-2-1.3-6.2,0.7-6-4c0.9-2.3,3.6-1.5,5-3c1.6,0.6,2,2.9,4,3c0.7,1,2,1.6,2,3
			C351,350.7,349.7,351,348,350z"/>
		<path class="st88" d="M311,366c0.4,1.7,0.7,3.3,1.1,5c0.5,1.9,1.2,3.9,1,5.9l0,0c-0.9,0.9-2.3,0.6-2.5-0.3
			c-0.7-3.8-4.2-3.4-6.5-4.7c0,0,0,0,0,0c3.3-3,2.2-8.3,6-11C311.1,362.5,309.8,364.5,311,366z"/>
		<path class="st73" d="M245,350c-1.7-0.9-3.3,0.2-5,0c1.7-3.3,4.2-4.9,8-4c1.4,0.3,2.7,0.7,3.1,2.1c0.5,1.6-1.1,2.2-2.1,2.9
			C247.7,350.7,246.3,350.3,245,350z"/>
		<path class="st90" d="M259,357c-2.1,1-3.1,2.7-1.5,4.6c1.8,2.1,3,5.1,6.4,5.4c2.3,1,1,2.8,0.9,4.3c-4.2-3.9-8.6-7.6-11.9-12.4
			C254.2,355.8,256.4,355.7,259,357z"/>
		<path class="st91" d="M300,390c2.2-0.1,2.7-2,3.9-3.3c2.4-2.6,4.4-3,5.1,1.3c-0.5,0.4-1,0.7-1.6,1.1c-2.4,1.6-4.1,4.1-6.4,5.9
			C298.9,393.7,299.1,391.9,300,390z"/>
		<path class="st18" d="M275.6,357.2c-2.9,1.4-5.4,2.9-6.1,7.2c-1.4-2.9-2.4-4.8-3.2-6.7c-0.2-0.5,0.2-1.2,0.4-1.8
			C269.1,358.9,272.6,354.3,275.6,357.2z"/>
		<path class="st15" d="M341,346c1.2,2.5,3.9,2.8,6,4c-2.7-0.4-4.8,0.4-6,3c-0.7-1.1-1.5-2.1-2.1-3.3
			C337.3,347.2,338.4,346.1,341,346z"/>
		<path class="st25" d="M273,316c3.9-1.1,6.3,3.3,10.1,2.6c-4,3.4-7.4-1.4-11.1-0.6C271.3,316.8,272.4,316.5,273,316z"/>
		<path class="st92" d="M262.7,315.9c2.2-1.6,4.7-2.4,7.3-2.9c0.7,1,1.3,2,2,3c-0.9,1.5-3,0.6-4,2l0,0c-1,0.8-2,0.9-3,0
			C264.2,317.3,263.5,316.6,262.7,315.9z"/>
		<path class="st93" d="M239.7,338.6c0.3-2.4,0.1-4.5,2.8-4.5c1,0,2.3,0.2,2.1,1.5C244.4,338.3,242,338.1,239.7,338.6z"/>
		<path class="st30" d="M355,331c0.3,0,0.7,0,1,0c1.6,2,2.5,4,0,6C351.2,335.7,353.7,333.3,355,331z"/>
		<path class="st14" d="M296.8,357.6c-0.1,1.3-0.9,2.1-2.2,2.2c-1.3,0.1-2.2-0.7-2.3-2c-0.1-1.4,0.9-2,2.1-2.1
			C295.6,355.6,296.6,356.2,296.8,357.6z"/>
		<path class="st94" d="M284.1,385c-1.6-2.5-8.7-3.6-2.2-8.3c-0.4,2.3-0.6,4.4,1.9,5.8C284.7,383.1,284.9,384,284.1,385z"/>
		<path class="st95" d="M285.2,368c-0.7-2.1,1.6-3.9,0.8-6c1.6-1.3,2.2,0.1,2.3,1.1C288.4,365.4,288,367.5,285.2,368z"/>
		<path class="st96" d="M294,312c-1.2,1.4-3.1,0.8-4.6,1.4c-4,1.8-4.1-0.5-3.4-3.4C288.7,310.5,291.3,311.6,294,312z"/>
		<path class="st53" d="M341,357c0.1,0.2,0.2,0.5,0.3,0.7c0,0.1-0.2,0.2-0.3,0.3c-0.8,1.3-1.8,2.3-3.5,1.5c-0.2-0.2-0.3-0.3-0.5-0.5
			c-0.4-0.8-2.1-1.5-1.1-2.4C337.5,355.2,339.3,356.3,341,357z"/>
		<path class="st88" d="M301,395c1.2-3,3.1-5.2,6.4-5.9c-0.7,2.8-3,4.3-5.1,6C301.9,395.1,301.4,395,301,395z"/>
		<path class="st97" d="M283.1,364c-1.8,2.3-3.7,4.4-6.1,6.1C276.9,365.9,280.4,365.4,283.1,364z"/>
		<path class="st98" d="M294,312c-2.6-0.8-6.1,1.6-8-2c0,0,0,0,0,0c1.3-0.7,2.7-0.7,4,0c1.8,1.6,4,0.8,6,1
			C295.3,311.3,294.7,311.7,294,312z"/>
		<path class="st18" d="M300.8,356.9c1.4,2.1,2.3,3.3,1.5,4.9c-0.1,0.3-1,0.4-1.2,0.3C299.5,360.7,300,359.3,300.8,356.9z"/>
		<path class="st99" d="M296,396.1c-1.3-1.1-2.6-2.2-4-3.3c-0.5-0.6-0.6-1.2,0-1.8C295.7,390.9,296.2,393.2,296,396.1z"/>
		<path class="st100" d="M265,318c1,0,2,0,3,0c-0.1,1.5-0.3,3.1-2.3,2.8C263.8,320.5,264,319.2,265,318z"/>
		<path class="st101" d="M338,362c-1.3-0.2-3.3,0.6-3.6-1.5c-0.2-1.5,1.5-1.4,2.6-1.5c0,0,0,0,0,0C338.1,359.7,339.1,360.5,338,362
			L338,362z"/>
		<path class="st102" d="M350.5,335.3c-0.1,0.5-0.5,1.1-1.2,1.1c-1.1,0-1.3-0.9-1.2-1.7c0.1-0.7,0.5-1.2,1.3-1
			C350.2,333.8,350.6,334.3,350.5,335.3z"/>
		<path class="st103" d="M249,328c1.4,0.1,2.8,0.2,2.8,2c0,1.2-0.5,1.9-1.8,1C248.7,330.3,247.9,329.5,249,328z"/>
		<path class="st104" d="M289.9,371.8c-0.9-2.4,0.8-3.3,1.4-5.9C292.2,369,291.5,370.3,289.9,371.8z"/>
		<path class="st105" d="M268,318c0.5-2.4,2.4-1.9,4-2c0.3,0,0.7,0,1,0c-0.3,0.7-0.7,1.3-1,2C270.7,318,269.3,318,268,318z"/>
		<path class="st106" d="M249,328c0.3,1,0.7,2,1,3c-1.3,0.8-2.7,0.8-4,0l0,0C246.7,329.7,247.7,328.7,249,328z"/>
		<path class="st107" d="M311,366c-1-1.6-2.2-3.1-0.9-5c1.3,0,1.9,0.7,2.1,1.9C311.1,363.7,311,364.9,311,366z"/>
		<path class="st108" d="M246,331c-0.9,0.8-1.7,2-3.2,0.9c-0.2-0.1-0.1-0.9,0.2-1.3C244.2,328.9,245.1,330.3,246,331
			C246,331,246,331,246,331z"/>
		<path class="st101" d="M334,356.2c-0.3,0.4-0.6,1.1-0.9,1.1c-0.9,0.1-1-0.7-0.8-1.3c0.1-0.4,0.6-0.6,1-0.9
			C333.5,355.4,333.8,355.7,334,356.2z"/>
		<path class="st109" d="M292,391c0,0.6,0,1.2,0,1.8c-1.7-0.9-3.1-2-3.8-3.8C289.5,389.6,290.7,390.3,292,391z"/>
		<path class="st92" d="M261.8,321.3c-1.1,0.6-1.4,0.9-1.8,0.9c-0.9,0-0.9-0.7-0.9-1.3c0-0.5,0.2-1,0.8-0.7
			C260.5,320.4,261,320.8,261.8,321.3z"/>
		<path class="st110" d="M290,310c-1.3,0-2.7,0-4,0c0-0.3,0-0.5,0-0.8c1.6-0.2,3.3-0.3,4.9-0.5C290.6,309.2,290.3,309.6,290,310z"/>
		<path class="st35" d="M266.4,322.3c0.2,0.4,0.5,0.7,0.7,1.1c-0.3,0.1-0.6,0.4-0.8,0.4c-0.3-0.2-0.5-0.6-0.8-0.9
			C265.8,322.7,266.1,322.6,266.4,322.3z"/>
		<path class="st20" d="M213,366.9c0,1.7,0,3.4,0,5.1c-1,0.3-2,0.7-3,1C210.6,370.8,210.6,368.3,213,366.9z"/>
		<path class="st7" d="M332,425c4.2-1.4,8-1.8,10.9,2.5c1.7,2.6,1.8,12.1,0.1,14.5c-1.9,0.6-2.1-1.2-3-2c-0.8,0-1.6-0.1-2-0.9
			c-1.6-3.1-2.2-6.8-6-8.5c-0.9-0.4-1-1.6-1-2.6c0-0.7,0-1.3,0-2C330.6,425,331.1,424.7,332,425z"/>
		<path class="st111" d="M354,366c1.3,0.7,1.9,1.9,0.1,2.3c-4.2,0.9-6.5,3.7-8.4,7.3c-1.5,2.9-4.9,3.5-7.8,4.4c4-4.2,8-8.3,12-12.5
			C351.1,366.2,352.5,366,354,366z"/>
		<path class="st112" d="M331,428c2.1,2.8,7.2,2.7,7.2,7.7c0,1.1-0.2,2.2-0.2,3.4c-3.3-2.8-6.6-5.6-8-10
			C330.3,428.7,330.7,428.4,331,428z"/>
		<path class="st113" d="M273.9,449.8c0.6,6.5-1.2,8.2-8.2,8C268.1,454.9,270.5,451.8,273.9,449.8z"/>
		<path class="st114" d="M289.9,433.9c0.4,6.4-1.1,7.9-8,8.1C283.9,438.6,286.5,435.9,289.9,433.9z"/>
		<path class="st28" d="M337.9,379.9c2.6,2.7,2.5,5.4,0.1,8.2c-1,0.5-1.4-0.4-2-0.9C330.4,383.2,335.9,382,337.9,379.9z"/>
		<path class="st115" d="M348,447c1-0.1,2-0.4,2.4-1.4c0.9-2.3,2.2-0.8,2.1,0.1c-0.2,2.9,2.2,4.7,2.5,7.3c-0.3,0.3-0.7,0.5-1.2,0.6
			c-1.1-0.2-1.8-1.3-2.9-1.7c-1.3-0.7-2.4-1.6-2.9-3.1C347.4,448.2,347.4,447.6,348,447z"/>
		<path class="st116" d="M314.2,409.1c-0.2,4.6,5.2,5.9,5.8,10c-0.2,0.4-0.5,0.7-0.9,0.7c-3-0.9-3.3-4.7-6-5.9c-1-1.3-1-2.6,0-3.9
			C313.4,409.7,313.8,409.4,314.2,409.1z"/>
		<path class="st117" d="M349,401c-0.3,0.1-0.7,0.1-1,0.2c-2.6,0-4.9-0.4-6.9-2.2c-0.1-0.3-0.2-0.5-0.3-0.8c1.3-1,2-2.3,2.2-3.9
			C345.4,396.1,348.1,397.7,349,401L349,401z"/>
		<path class="st118" d="M356,459c-0.8,3.7,2.7,7.4-0.1,11c-0.3-3.3-0.7-6.6-1-9.9C354.5,459,355.1,458.8,356,459L356,459z"/>
		<path class="st58" d="M279.9,443.7c-0.6,3.4-2.7,5.4-6.1,6.2C275.4,447.4,277.6,445.5,279.9,443.7z"/>
		<path class="st72" d="M356,459c-0.4,0.4-0.7,0.7-1.1,1.1c-0.6-2-1.2-4.1-1.9-6.1c0.1-0.5,0.4-0.8,0.9-1c0.3,0,0.7,0,1,0
			C355.3,455,355.7,457,356,459z"/>
		<path class="st119" d="M319.1,419.8c0.3-0.2,0.6-0.5,0.9-0.7c1.3,1.6,2.7,3.3,4,4.9c0.3,0.2,0.4,0.4,0.3,0.6
			c-0.1,0.2-0.2,0.3-0.3,0.3C322,423.6,320.2,422,319.1,419.8z"/>
		<path class="st120" d="M348,447c0,0.6,0,1.2,0.1,1.8c-2.2-1-3.7-2.8-5-4.9C345.3,444.1,346.2,446.2,348,447z"/>
		<path class="st121" d="M349,352c0-0.3,0-0.7,0-1c1.6-1.1,3.3-1.3,5,0c1.3,0.2,1.9,1,1.9,2.3C353.8,352.2,351.4,351.9,349,352z"/>
		<path class="st117" d="M330.1,393.1c-1.3,1.8-3,3.2-5,4.3C325.2,394.1,327.6,393.5,330.1,393.1z"/>
		<path class="st118" d="M356,469.9c-2.2,1.1-4.3,2.5-6.1-0.6C351.9,469.5,354,469.7,356,469.9z"/>
		<path class="st117" d="M336,387.2c0.7,0.3,1.3,0.6,2,0.9c0.9,1.3,1.8,2.6,2.7,3.9C338.3,391.3,336.7,389.7,336,387.2z"/>
		<path class="st122" d="M313,377c-1.1-1.9-1.1-3.9-1-5.9c0.7,1.6,1.4,3.2,2,4.8C313.7,376.3,313.4,376.6,313,377z"/>
		<path class="st123" d="M324,424.9c0-0.3,0-0.6,0-0.9c1.7,0.9,2.9,2.3,3.9,3.9C326,427.8,324.9,426.4,324,424.9z"/>
		<path class="st124" d="M340,440c1,0.7,2,1.3,3,2c0,0.6,0,1.3,0,1.9C341.4,443.1,340.2,441.9,340,440z"/>
		<path class="st125" d="M313,410c0,1.3,0,2.6,0,3.9C310.3,412.6,311,411.3,313,410z"/>
		<path class="st51" d="M354,453c-0.3,0.3-0.6,0.7-0.9,1c-0.7-0.7-1.4-1.4-2.1-2.1C352.4,451,352.9,452.8,354,453z"/>
		<path class="st126" d="M241.7,461.9c-0.2-0.3-0.5-0.6-0.7-1c0-1.3,0-2.6,0.1-4c0.3,0,0.6,0,0.9-0.1c0,0.4,0.1,0.8,0.1,1.2
			C241.9,459.4,241.8,460.7,241.7,461.9z"/>
		<path class="st120" d="M293,430.9c-0.2,1.9-1.2,2.9-3.1,3C290.5,432.4,291.5,431.4,293,430.9z"/>
		<path class="st0" d="M240,462c-0.1,1.7,0.4,3.5-1,5C237.8,465,238.4,463.4,240,462z"/>
		<path class="st38" d="M384,388c0,4.7,0,9.3,0,14c-0.3,0-0.7,0-1,0c-3-1.5-1.1-3.9-1-6c1.1-4.5-2.8-8.3-1.8-13.1
			C383,383.8,380.9,387.8,384,388z"/>
		<path class="st71" d="M391,409c0.3,3.4-0.5,6.7-1,10c-1.5-0.9-3.2-1.1-5-1c-0.1-3.2,4.5-3.6,4-7c-1-0.8-1.8-1.6-1-3
			c1.2-1.1,1-2.6,1-4c1.1-0.5,1.5,0.4,2,1C391,406.3,391,407.7,391,409z"/>
		<path class="st21" d="M329,411.8c-0.1,1.7,0,3.6-2.2,3.8c-2.6,0.2-2.7-1.8-2.8-3.7c0-1.7,0.2-3.6,2.4-3.6
			C328.6,408.3,328.9,410.1,329,411.8z"/>
		<path class="st18" d="M388,408c0.3,1,0.7,2,1,3c-0.1,0.1-0.3,0.2-0.4,0.2c-1.8,1.2-3.6,2.7-5.6,0.8c-1.2-1.1-1.3-2.8-0.5-4.1
			C384.2,405.3,386.1,407.3,388,408z"/>
		<path class="st127" d="M332,425c-0.3,0.3-0.7,0.7-1,1c-1-1.5-2.5-3.3-0.8-4.8c2.6-2.1,5.8-1.3,9.4-0.7c-1.6,2.1-3.6,1.3-5.1,1.5
			C332.6,422.2,331.1,422.6,332,425z"/>
		<path class="st80" d="M365,346c0.3-0.5-0.1-2.4,1.3-0.6c0.4,0.5,0.5,1.1,0.7,1.6c0.9,0.7,2,1.2,2.6,2.1c0.7,1,0.4,2.4-0.7,3
			c-1.5,0.9-2.1-0.4-2.5-1.5C365.9,349.2,365.5,347.6,365,346z"/>
		<path class="st77" d="M369,457c1.7,2,0.9,4,0,6C366,461,366,459,369,457z"/>
		<path class="st128" d="M348.9,401c1.5-0.5,2.9-2.8,4.6-0.6c0.4,0.5-0.1,2.5-1.4,2.8C350.4,403.6,348.7,403.5,348.9,401
			C349,401,348.9,401,348.9,401z"/>
		<path class="st129" d="M343.5,380.8c1.2,0.3,1.4,1.2,1.4,2.3c-0.1,1.1-0.7,1.8-1.8,1.8c-1.2,0-1.9-0.6-1.7-1.8
			C341.5,381.8,342.2,381,343.5,380.8z"/>
		<path class="st71" d="M382,396c0.2,2-0.6,4.2,1,6c-0.6,1.1-1.1,2.1-2,3.8C379.5,401.8,380.9,398.9,382,396z"/>
		<path class="st130" d="M391,405c-0.7-0.3-1.3-0.7-2-1c-0.3,0-0.7,0-1,0c-2.1-4.1,0.3-3.7,3-3C391,402.3,391,403.7,391,405z"/>
		<path class="st71" d="M381.6,376.4c2,0.9,3.5,1.6,5,2.3c-0.3,0.6-0.2,1.1-1.5,1.2C382.7,380,381.7,379.3,381.6,376.4z"/>
		<path class="st36" d="M384,425c-0.1,1.5-0.9,1.5-2,1c0.1-1.7-0.3-3.5,0.7-5.5C384.6,421.8,383.8,423.6,384,425z"/>
		<path class="st131" d="M341,398.9c2.3,0.7,4.6,1.5,6.9,2.2C344.9,402.6,342.7,401.6,341,398.9z"/>
		<path class="st132" d="M362,362.2c2,2.5,2.5,4,1.3,6C361.5,366.7,362.2,365,362,362.2z"/>
		<path class="st15" d="M354,351c-1.7,0-3.3,0-5,0c-0.3-0.3-0.7-0.7-1-1c1.3-0.3,2.7-0.7,4-1C353.2,349.1,353.9,349.8,354,351z"/>
		<path class="st104" d="M321.4,414.4c-2.1-0.6-2.8-1.6-1.9-3.6C321.1,411.6,321.6,412.6,321.4,414.4z"/>
		<path class="st81" d="M376,455c-1.3-0.3-2.7-0.7-4-1C374.1,451.5,375.6,451.1,376,455z"/>
		<path class="st133" d="M356.5,369.8c0.7,0.2,1.7,0.2,1.7,1.2c0,0.8-0.8,0.9-1.4,0.8c-0.5-0.2-1.3-0.6-1.4-1
			C355.1,370,355.8,369.8,356.5,369.8z"/>
		<path class="st134" d="M327.7,423.6c-0.3,0.2-0.6,0.6-0.6,0.6c-0.4-0.2-0.9-0.5-1.1-0.9c-0.3-0.6,0.1-1,0.7-0.7
			C327,422.7,327.3,423.2,327.7,423.6z"/>
		<path class="st77" d="M364.9,452.4c0.3,0.4,0.7,0.6,0.8,1c0.1,0.2-0.2,0.5-0.4,0.7c-0.3-0.3-0.7-0.5-0.9-0.8
			C364.4,453.2,364.7,452.8,364.9,452.4z"/>
		<path class="st135" d="M390,390c0,1,0,2,0,3c0,1,0,2,0,3C388.5,394,388.6,392,390,390z"/>
		<path class="st0" d="M304,372c0.2,0,0.4,0.1,0.5,0c4.7-2.9,7.2-1.9,7,4c0,0.3,1,0.7,1.5,1.1c1.5,1.8,1.9,3.4-0.6,4.8
			c-2.7,1.4-3.2-0.5-3.7-2.3C307.9,376.5,304.4,375.2,304,372z"/>
		<path class="st133" d="M305.6,378.3c1.4,0.3,1.5,1.5,1.7,2.6c0.2,1-0.4,1.6-1.4,1.6c-1.4-0.1-1.8-1.3-1.8-2.5
			C304.1,379.1,304.6,378.5,305.6,378.3z"/>
		<path class="st0" d="M338,362c-0.3-1-0.7-2-1-3c1.3-0.3,2.7-0.7,4-1C340.8,360,339.6,361.1,338,362z"/>
	</g>
</g>
</svg>
